/* XPM */
static char *result[] = {
/* columns rows colors chars-per-pixel */
"30 30 32 1 ",
"  c black",
". c #121100",
"X c #151300",
"o c #1C1900",
"O c #3A3600",
"+ c #635B00",
"@ c #776E00",
"# c #918600",
"$ c #938800",
"% c #A49700",
"& c #B0A200",
"* c #BAAC00",
"= c #C0B200",
"- c #DFCE00",
"; c #EAD900",
": c #EDDB00",
"> c #F6E400",
", c #FBE800",
"< c #FCE900",
"1 c #FDEA00",
"2 c #FEEB00",
"3 c #FFEB00",
"4 c #FFEC00",
"5 c #FFED00",
"6 c #FFEE00",
"7 c #FFEF00",
"8 c #FFF000",
"9 c #FFF100",
"0 c #FFF200",
"q c #FFF300",
"w c #FFF400",
"e c None",
/* pixels */
"eeeeeeeeeeeeeeeeeeeeeeeeeeeeee",
"eeeeeeeeeeeeeeeeeeeeeeeeeeeeee",
"eeeeee4444444eeeeeeee444eeeeee",
"eeeee44444444eeeeeeee4444eeeee",
"eeee444444444eeeeeeee44444eeee",
"eee4444444444eeeeeeee444444eee",
"ee44444444444eeeeeeee4444444ee",
"ee444444444444eeeeee44444444ee",
"ee4444444444444eeee444444444ee",
"444444444444444eeee44444444444",
"444444444444444eeee44444444444",
"444444444444444eeee44444444444",
"444444444444444eeee44444444444",
"444444444444444444444444444444",
"444345676543444444444444444444",
"444346898643444444444444444444",
"44452-*&*-25444444444444444444",
"4449<%OoO%<9444444444444444444",
"4440,#. .#,0444444444444444444",
"4449,$X X$,9444444444444444444",
"44471=@+@=17444444444444444444",
"ee442>:;:>244444444444444444ee",
"ee4347qwq7434444444444444444ee",
"ee44444444444444444444444444ee",
"eee444444444444444444444444eee",
"eeee4444444444444444444444eeee",
"eeeee44444444444444444444eeeee",
"eeeeee444444444444444444eeeeee",
"eeeeeeeee444444444444eeeeeeeee",
"eeeeeeeee444444444444eeeeeeeee"
};
