/* XPM */
static char *result[] = {
/* columns rows colors chars-per-pixel */
"30 30 192 2 ",
"   c black",
".  c #010000",
"X  c #000100",
"o  c #010100",
"O  c #000001",
"+  c #010001",
"@  c #000101",
"#  c #020000",
"$  c #030000",
"%  c #020100",
"&  c #020001",
"*  c #010200",
"=  c #000201",
"-  c #000002",
";  c #010002",
":  c #000102",
">  c #010102",
",  c #000003",
"<  c #010003",
"1  c #010103",
"2  c #020002",
"3  c #030002",
"4  c #020102",
"5  c #020003",
"6  c #000202",
"7  c #040000",
"8  c #040001",
"9  c #060000",
"0  c #050002",
"q  c #000004",
"w  c #000005",
"e  c #010005",
"r  c #020005",
"t  c #000006",
"y  c #010006",
"u  c #030006",
"i  c #060007",
"p  c #00020B",
"a  c #00030B",
"s  c #01030B",
"d  c #02020B",
"f  c #04020B",
"g  c #00040B",
"h  c #00010D",
"j  c #00030C",
"k  c #00020D",
"l  c #00030D",
"z  c #02020C",
"x  c #02020D",
"c  c #00030E",
"v  c #04010C",
"b  c #01060D",
"n  c #00040F",
"m  c #000411",
"M  c #010610",
"N  c #000315",
"B  c #020517",
"V  c #000914",
"C  c #010817",
"Z  c #01081C",
"A  c #010E2B",
"S  c #001026",
"D  c #010F31",
"F  c #021034",
"G  c #021535",
"H  c #011635",
"J  c #011636",
"K  c #021636",
"L  c #021637",
"P  c #04153A",
"I  c #04153B",
"U  c #041A3D",
"Y  c #041A3E",
"T  c #021C43",
"R  c #021B44",
"E  c #042459",
"W  c #05245D",
"Q  c #032E66",
"!  c #052D66",
"~  c #042E6C",
"^  c #082F68",
"/  c #092F6A",
"(  c #073067",
")  c #05306D",
"_  c #04306F",
"`  c #09306A",
"'  c #09326B",
"]  c #043470",
"[  c #0C3474",
"{  c #083877",
"}  c #06377F",
"|  c #063780",
" . c #073681",
".. c #063781",
"X. c #063685",
"o. c #073685",
"O. c #053981",
"+. c #063980",
"@. c #053982",
"#. c #053883",
"$. c #043983",
"%. c #053A84",
"&. c #053A86",
"*. c #073C84",
"=. c #063B89",
"-. c #053F91",
";. c #083F93",
":. c #03438F",
">. c #044191",
",. c #064094",
"<. c #064595",
"1. c #094092",
"2. c #084493",
"3. c #0E4995",
"4. c #0F4896",
"5. c #0F4996",
"6. c #0D4A96",
"7. c #0C4A97",
"8. c #0D4A97",
"9. c #0D4B97",
"0. c #07439B",
"q. c #03459B",
"w. c #074499",
"e. c #05449B",
"r. c #05459B",
"t. c #05469B",
"y. c #05459C",
"u. c #06449C",
"i. c #07449E",
"p. c #08439E",
"a. c #0E479C",
"s. c #09499F",
"d. c #0B4A9E",
"f. c #0E4D9C",
"g. c #154597",
"h. c #114891",
"j. c #104996",
"k. c #104E95",
"l. c #124E9F",
"z. c #154D9F",
"x. c #184D9E",
"c. c #1C559C",
"v. c #23589D",
"b. c #0546A3",
"n. c #0847A3",
"m. c #0248A3",
"M. c #034AA2",
"N. c #0548A1",
"B. c #0449A2",
"V. c #0648A3",
"C. c #044BA3",
"Z. c #074BA3",
"A. c #034DA2",
"S. c #0549A4",
"D. c #0748A4",
"F. c #054AA5",
"G. c #0449A7",
"H. c #0549A7",
"J. c #0648A6",
"K. c #0748A7",
"L. c #044AA6",
"P. c #054AA7",
"I. c #034CA7",
"U. c #0848A1",
"Y. c #094AA4",
"T. c #0A4EA5",
"R. c #0D4CA6",
"E. c #0447A9",
"W. c #0646AA",
"Q. c #0348A8",
"!. c #014BA8",
"~. c #0549A8",
"^. c #0548A9",
"/. c #0648A8",
"(. c #0749A8",
"). c #0649A9",
"_. c #054AA8",
"`. c #0548AB",
"'. c #0748AA",
"]. c #054AAA",
"[. c #044BAB",
"{. c #0449AE",
"}. c #154FA2",
"|. c #1751A2",
" X c #1852A1",
".X c #1A55A2",
"XX c #1C5AA6",
"oX c #275AA2",
"OX c #265AAB",
"+X c #315EA3",
"@X c #2D60A0",
"#X c None",
/* pixels */
"#X#X Xs.P.m.q.0.p.u.r.y.y.y.y.y.y.y.y.y.r.t.y.e.b.{.J.c.#X#X",
"#Xx.^.2.! R L G K H H H H H H H H H H H H H H J T Q <.G.}.#X",
"|.D.1.U g q 2 #                                 > m Y ;.E..X",
"U.N.W c % , < .                                 4 1 p E N.d.",
"n.-.A 5 9 5 O   - O                           O e 6 @ S :.V.",
"K.&.M 7 0 e O X - O                           + r 6 % b %.].",
"/.#.a   t t @ X .                             . ; : 3 f X.[.",
"H.$.j : w <   X # .                               , e v o.I.",
"F.@.x @ o $ . - +                                 - : d  .A.",
"H.@.z   . # O - O                                 O X s } C.",
"/.O.a                                             O   a | _.",
").O.a                                             O   a | ~.",
").O.a                                             O   a | ~.",
").O.a                                             O   a | ~.",
").O.a                                             O   a | H.",
").O.a                                             O   a | H.",
").O.a                                             O   a | H.",
").O.a                                             O   a | H.",
"/.O.a                                             O   a | H.",
"/.O.a                                             O   a | H.",
"/.O.a                                             O   a | H.",
"/.O.a                                             O   a | H.",
"/.O.a                                             O   a | H.",
"/.+.a                                           O O   a ..H.",
"`.*.C = * X O O                               + < - - V =.'.",
"(.w.I u 9 e y 8 # - , , , , , , , , , , , , , @ * & t P i.W.",
"l.!.] Z 2 , - # X                               7 i Z ' S.z.",
"@XZ.M.~ D N k l n k h h h h h h h h h h h h h k B F _ B.Y.+X",
"#XoXR.Q.,.[ ` ) / ^ ^ ^ ^ ^ ^ ^ ^ ^ ^ ^ ^ ^ ^ ( { >.L.T.OX#X",
"#X#X#XXXf.h.4.a.g.j.7.8.8.8.8.9.9.6.6.6.6.6.6.5.3.k.v.#X#X#X"
};
