/* XPM */
static char *result[] = {
/* columns rows colors chars-per-pixel */
"30 30 82 1 ",
"  c black",
". c gray4",
"X c #1D1E1E",
"o c #2C3333",
"O c #414242",
"+ c #504D4D",
"@ c #505050",
"# c gray38",
"$ c gray43",
"% c red",
"& c #FF0101",
"* c #FF0202",
"= c #FF0303",
"- c #FF0505",
"; c #FF0707",
": c #FF0808",
"> c #FF0909",
", c #FF0A0A",
"< c #FF0D0D",
"1 c #FF0E0E",
"2 c #FF0F0F",
"3 c #FF1414",
"4 c #FF1616",
"5 c #FF1A1A",
"6 c #FF2727",
"7 c #FF2828",
"8 c #FF2A2A",
"9 c #FF2D2D",
"0 c #FF2F2F",
"q c #FC3B3B",
"w c #FF3B3B",
"e c #FF3F3F",
"r c #FF4343",
"t c #FF4949",
"y c #FF4D4D",
"u c #FF4E4E",
"i c #FF5858",
"p c #FF5E5E",
"a c #EA6F6F",
"s c #FF6464",
"d c #FF6C6C",
"f c #FF7070",
"g c #FF7272",
"h c #FF7575",
"j c #FF7878",
"k c #FF7A7A",
"l c #7F8888",
"z c #9C8888",
"x c #B89B9B",
"c c #A3ACAC",
"v c #ADB5B5",
"b c #E28484",
"n c #FF8484",
"m c #FF8888",
"M c #FF8B8B",
"N c #CCB9B9",
"B c #FFA5A5",
"V c #FFA6A6",
"C c #F7B1B1",
"Z c #FFB5B5",
"A c #FFBDBD",
"S c #C7C4C4",
"D c #C4CDCD",
"F c #C1D4D4",
"G c #DFDFDF",
"H c #FFC9C9",
"J c #FFCDCD",
"K c #FFD1D1",
"L c #FFD5D5",
"P c #FFDADA",
"I c #E2E2E2",
"U c #E4E5E5",
"Y c #F4E2E2",
"T c #F8E5E5",
"R c #FDE8E8",
"E c #FFECEC",
"W c #F0F7F7",
"Q c #FFF2F2",
"! c #F4FAFA",
"~ c snow",
"^ c white",
"/ c None",
/* pixels */
"/////////%%%%%%%%%%%%/////////",
"/////////%%%%%%%%%%%%/////////",
"//////%%%%%%%%%%%%%%%%%%//////",
"/////%%%%%%%%%%%%%%%%%%%%/////",
"////%%%%%%%%%%%%%%%%%%%%%%////",
"///%%%%%%%%%%%%%%%%%%%%%%%%///",
"//%%%%%->,:=%%%%%%=:,>-%%%%%//",
"//%%%%-ekmf9%%%%%%9fmke-%%%%//",
"//%%%&5nE^Ps1&%%&1sP^En5&%%%//",
"//%%&wMJ~^QAj7%%7jAQ^~JMw&%%//",
"//%%=dRWIGU!Kt%%tK!UGIWRd=%%//",
"%%%%=gTv#@$DLy%%yLD$@#vTg=%%%%",
"%%%%=hYl. XcLu%%uLcX .lYh=%%%%",
"%%%%=hYl. XcLu%%uLcX .lYh=%%%%",
"%%%%*iCzOo+xBw%%wBx+oOzCi*%%%%",
"%%%%%3qbSFNa0<%%<0aNFSbq3%%%%%",
"%%%%%%;pZHVr%%%%%%rVHZp;%%%%%%",
"%%%%%%&48062%%%%%%26084&%%%%%%",
"%%%%%%%%%%%%%%%%%%%%%%%%%%%%%%",
"%%%%%%%%%%%%%%%%%%%%%%%%%%%%%%",
"%%%%%%%%%%%%%%%%%%%%%%%%%%%%%%",
"%%%%%%%%%%%%%%%%%%%%%%%%%%%%%%",
"%%%%%%%%%%%%%%%%%%%%%%%%%%%%%%",
"%%%%%%%%%%%%%%%%%%%%%%%%%%%%%%",
"%%%%%%%%%%%%%%%%%%%%%%%%%%%%%%",
"%%%%%%%%%%%%%%%%%%%%%%%%%%%%%%",
"%%%%/%%%%%%%%%//%%%%%%%%%/%%%%",
"%%%%//%%%%%%%////%%%%%%%//%%%%",
"%%/////%%%%%//////%%%%%/////%%",
"%%//////%%%////////%%%//////%%"
};
