/* XPM */
static char *result[] = {
/* columns rows colors chars-per-pixel */
"30 30 91 1 ",
"  c black",
". c gray4",
"X c #1D1E1E",
"o c #2C2F33",
"O c #414142",
"+ c #504F4D",
"@ c #505050",
"# c gray38",
"$ c gray43",
"% c #FF8D00",
"& c #FF8E00",
"* c #FF8F00",
"= c #FF9000",
"- c #FF9100",
"; c #FF9200",
": c #FF9201",
"> c #FF9302",
", c #FF9303",
"< c #FF9005",
"1 c #FF9207",
"2 c #FF9405",
"3 c #FF9508",
"4 c #FF9609",
"5 c #FF960A",
"6 c #FF980D",
"7 c #FF980E",
"8 c #FF980F",
"9 c #FF9B14",
"0 c #FF9B16",
"q c #FF9D1A",
"w c #FFA327",
"e c #FFA328",
"r c #FFA52A",
"t c #FFA22D",
"y c #FFA62F",
"u c #FFA72F",
"i c #FCA93B",
"p c #FFAB3B",
"a c #FFAD3B",
"s c #FFAB3F",
"d c #FFAE43",
"f c #FFB149",
"g c #FFB44D",
"h c #FFB64E",
"j c #FFBB58",
"k c #FFBA5E",
"l c #EAB56F",
"z c #FFBC64",
"x c #FFC06C",
"c c #FFC170",
"v c #FFC572",
"b c #FFC875",
"n c #FFC578",
"m c #FFC67A",
"M c #7F8388",
"N c #9C9388",
"B c #B8AC9B",
"V c #A3A7AC",
"C c #ADB0B5",
"Z c #E2B984",
"A c #FFCA84",
"S c #FFCC88",
"D c #FFCD8B",
"F c #CCC4B9",
"G c #FFD9A5",
"H c #FFDCA6",
"J c #F7D9B1",
"K c #FFE3B5",
"L c #FFE3BD",
"P c #C7C6C4",
"I c #C4C8CD",
"U c #C1C9D4",
"Y c #DFDFDF",
"T c #FFEDC9",
"R c #FFE9CD",
"E c #FFEBD1",
"W c #FFEDD5",
"Q c #FFEED5",
"! c #FFEFDA",
"~ c #E2E2E2",
"^ c #E4E4E5",
"/ c #F4ECE2",
"( c #F8F0E5",
") c #FDF4E8",
"_ c #FFF6EC",
"` c #F0F3F7",
"' c #FFF9F2",
"] c #F4F7FA",
"[ c #FFFDFA",
"{ c white",
"} c None",
/* pixels */
"}}}}}}}}};;;;;;;;;;;;}}}}}}}}}",
"}}}}}}}}};;;;;;;;;;;;}}}}}}}}}",
"}}}}}};;;;;;;;;;;;;;;;;;}}}}}}",
"}}}}};;;;;;;;;;;;;;;;;;;;}}}}}",
"}}}};;;;;;;;;;;;;;;;;;;;;;}}}}",
"}}};;;-=&&*=;;;;;;=*&&=-;;;}}}",
"}};;;-;2453,--;;--,3542;-;;;}}",
"}};;-&<smSct&*;;*&tcSms<&-;;}}",
"}};-;:qA_{!z7:--:7z!{_Aq:;-;}}",
"}};=:pDR[{'Lne**enL'{[RDp:=;}}",
"}};*,x)`~Y^]Ef&&fE]^Y~`)x,*;}}",
";;;*,v(C#@$IWg&&gWI$@#C(v,*;;;",
";;;*,b/M. XVQh&&hQVX .M/b,*;;;",
";;;*,b/M. XVQh&&hQVX .M/b,*;;;",
";;;*>jJNOo+BGa**aGB+oONJj>*;;;",
";;;-;9iZPUFly6--6ylFUPZi9;-;;;",
";;;;-%1kKTHd&*;;*&dHTKk1%-;;;;",
";;;;--:0ruw8--;;--8wur0:--;;;;",
";;;;;;-=&%&=;;;;;;=&%&=-;;;;;;",
";;;;;;------;;;;;;------;;;;;;",
";;;;;;;;;;;;;;;;;;;;;;;;;;;;;;",
";;;;;;;;;;;;;;;;;;;;;;;;;;;;;;",
";;;;;;;;;;;;;;;;;;;;;;;;;;;;;;",
";;;;;;;;;;;;;;;;;;;;;;;;;;;;;;",
";;;;;;;;;;;;;;;;;;;;;;;;;;;;;;",
";;;;;;;;;;;;;;;;;;;;;;;;;;;;;;",
";;;;};;;;;;;;;}};;;;;;;;;};;;;",
";;;;}};;;;;;;}}}};;;;;;;}};;;;",
";;}}}}};;;;;}}}}}};;;;;}}}}};;",
";;}}}}}};;;}}}}}}}};;;}}}}}};;"
};
