/* XPM */
static char *result[] = {
/* columns rows colors chars-per-pixel */
"30 30 88 1 ",
"  c black",
". c gray4",
"X c #1E1D1D",
"o c #332C2D",
"O c #424141",
"+ c #4D5050",
"@ c #505050",
"# c gray38",
"$ c gray43",
"% c #887F81",
"& c #00FFD0",
"* c #00FFD1",
"= c #00FFD2",
"- c #01FFD2",
"; c #02FFD2",
": c #03FFD2",
"> c #05FFD1",
", c #05FFD2",
"< c #07FFD2",
"1 c #08FFD3",
"2 c #09FFD3",
"3 c #0AFFD3",
"4 c #0DFFD5",
"5 c #0EFFD4",
"6 c #0FFFD5",
"7 c #14FFD7",
"8 c #16FFD6",
"9 c #1AFFD6",
"0 c #27FFDA",
"q c #28FFD9",
"w c #2AFFDB",
"e c #2DFFD8",
"r c #2FFFDA",
"t c #2FFFDC",
"y c #3BFCDA",
"u c #3BFFDC",
"i c #3BFFDF",
"p c #3FFFDC",
"a c #43FFDF",
"s c #49FFDF",
"d c #6FEAD4",
"f c #4DFFE2",
"g c #4EFFE4",
"h c #58FFE6",
"j c #5EFFE5",
"k c #64FFE3",
"l c #6CFFE5",
"z c #70FFE5",
"x c #78FFE7",
"c c #7AFFE7",
"v c #72FFEA",
"b c #75FFED",
"n c #889C98",
"m c #9BB8B3",
"M c #ACA3A5",
"N c #B5ADAE",
"B c #B9CCC8",
"V c #84E2D1",
"C c #84FFE9",
"Z c #88FFEA",
"A c #8BFFEA",
"S c #B1F7EA",
"D c #A5FFF0",
"F c #A6FFF4",
"G c #B5FFF7",
"H c #BDFFF3",
"J c #C4C7C7",
"K c #CDC4C6",
"L c #D4C1C4",
"P c #DFDFDF",
"I c #CDFFF6",
"U c #C9FFFC",
"Y c #D1FFF7",
"T c #D5FFF8",
"R c #D5FFF9",
"E c #DAFFF8",
"W c #E2E2E2",
"Q c #E5E4E4",
"! c #E2F4F1",
"~ c #E5F8F5",
"^ c #E8FDF9",
"/ c #ECFFFB",
"( c #F7F0F1",
") c #FAF4F5",
"_ c #F2FFFC",
"` c #FAFFFE",
"' c white",
"] c None",
/* pixels */
"]]]]]]]]]============]]]]]]]]]",
"]]]]]]]]]============]]]]]]]]]",
"]]]]]]==================]]]]]]",
"]]]]]====================]]]]]",
"]]]]======================]]]]",
"]]]===**&&&*======*&&&**===]]]",
"]]===*=,231:**==**:132,=*===]]",
"]]==*&>pcZze&*==*&ezZcp>&*==]]",
"]]=*=-9C/'Ek5-**-5kE'/C9-=*=]]",
"]]=*-uAI`'_Hxq**qxH_'`IAu-*=]]",
"]]=&:l^(WPQ)Ys&&sY)QPW(^l:&=]]",
"===&:v~N#@$KTf&&fTK$@#N~v:&===",
"===&:b!%. XMRg&&gRMX .%!b:&===",
"===&:b!%. XMRg&&gRMX .%!b:&===",
"===*;hSnOo+mDi&&iDm+oOnSh;*===",
"===*=7yVJLBdr4**4rdBLJVy7=*===",
"====*&<jGUFa&&==&&aFUGj<&*====",
"====**-8wt06**==**60tw8-**====",
"======**&&&*======*&&&**======",
"======******======******======",
"==============================",
"==============================",
"==============================",
"==============================",
"==============================",
"==============================",
"====]=========]]=========]====",
"====]]=======]]]]=======]]====",
"==]]]]]=====]]]]]]=====]]]]]==",
"==]]]]]]===]]]]]]]]===]]]]]]=="
};
