/* XPM */
static char *result[] = {
/* columns rows colors chars-per-pixel */
"30 30 88 1 ",
"  c black",
". c gray4",
"X c #1D1E1D",
"o c #2C312E",
"O c #414241",
"+ c #504E4F",
"@ c #505050",
"# c gray38",
"$ c gray43",
"% c #FF51BC",
"& c #FF52BC",
"* c #FF52BD",
"= c #FF53BD",
"- c #FF54BD",
"; c #FF55BD",
": c #FF55BE",
"> c #FF56BE",
", c #FF57BE",
"< c #FF58BF",
"1 c #FF59BF",
"2 c #FF5ABF",
"3 c #FF5BC0",
"4 c #FF5DC1",
"5 c #FF5EC1",
"6 c #FF5FC1",
"7 c #FF61C2",
"8 c #FF61C3",
"9 c #FF65C5",
"0 c #FF66C5",
"q c #FF69C5",
"w c #FF71C8",
"e c #FF72C9",
"r c #FF72CA",
"t c #FF74CB",
"y c #FF76CB",
"u c #FF78CC",
"i c #FC7DCC",
"p c #FF7ECD",
"a c #7F8581",
"s c #9C8F97",
"d c #A3A9A6",
"f c #ADB2AF",
"g c #B8A5B1",
"h c #EA99CB",
"j c #FF80D0",
"k c #FF81D0",
"l c #FF88D1",
"z c #FF8BD4",
"x c #FF8DD6",
"c c #FF94D8",
"v c #FF94D9",
"b c #FF99D8",
"n c #FF9FDA",
"m c #E2A4CA",
"M c #FFA1DB",
"N c #FFA7DD",
"B c #FFA4DF",
"V c #FFA7E2",
"C c #FFAEE0",
"Z c #FFB1E1",
"A c #FFB3E2",
"S c #C7C5C6",
"D c #CCC0C7",
"F c #C4CAC6",
"G c #C1CDC6",
"H c #DFDFDF",
"J c #F7C9E5",
"K c #FFC4E9",
"L c #FFC6ED",
"P c #FFD4EE",
"I c #FFD1F1",
"U c #FFDEF2",
"Y c #FFDFF7",
"T c #E2E2E2",
"R c #E4E4E4",
"E c #FFE1F3",
"W c #FFE4F5",
"Q c #FFE7F5",
"! c #F4E8F0",
"~ c #F8ECF3",
"^ c #FDEFF8",
"/ c #F0F4F1",
"( c #F4F8F6",
") c #FFF2FA",
"_ c #FFF6FB",
"` c #FFFCFD",
"' c white",
"] c None",
/* pixels */
"]]]]]]]]]<<<<<<<<<<<<]]]]]]]]]",
"]]]]]]]]]<<<<<<<<<<<<]]]]]]]]]",
"]]]]]]<<<<<<<<<<<<<<<<<<]]]]]]",
"]]]]]<<<<<<<<<<<<<<<<<<<<]]]]]",
"]]]]<<<<<<<<<<<<<<<<<<<<<<]]]]",
"]]]<<<,:=&=><<<<<<>=&=:,<<<]]]",
"]]<<<,<35642,,<<,,24653<,<<<]]",
"]]<<,&>pNZMw&-<<-&wMZNp>&,<<]]",
"]]<,<<qC)'Qb7<,,<7bQ')Cq<<,<]]",
"]]<:1pAU`'_PNe--eNP_'`UAp1:<]]",
"]]<=2n^/THR(El&&lE(RHT/^n2=<]]",
"<<<=2B~f#@$FWz&&zWF$@#f~B2=<<<",
"<<<=2V!a. XdWx&&xWdX .a!V2=<<<",
"<<<=2V!a. XdWx&&xWdX .a!V2=<<<",
"<<<-1vJsOo+gKj==jKg+oOsJv1-<<<",
"<<<,<9imSGDhy8>>8yhDGSmi9<,<<<",
"<<<<,%<cIYLk*=<<=*kLYIc<%,<<<<",
"<<<<,><0tur8>,<<,>8rut0<>,<<<<",
"<<<<<<,;&%*:<<<<<<:*%&;,<<<<<<",
"<<<<<<,,,,,,<<<<<<,,,,,,<<<<<<",
"<<<<<<<<<<<<<<<<<<<<<<<<<<<<<<",
"<<<<<<<<<<<<<<<<<<<<<<<<<<<<<<",
"<<<<<<<<<<<<<<<<<<<<<<<<<<<<<<",
"<<<<<<<<<<<<<<<<<<<<<<<<<<<<<<",
"<<<<<<<<<<<<<<<<<<<<<<<<<<<<<<",
"<<<<<<<<<<<<<<<<<<<<<<<<<<<<<<",
"<<<<]<<<<<<<<<]]<<<<<<<<<]<<<<",
"<<<<]]<<<<<<<]]]]<<<<<<<]]<<<<",
"<<]]]]]<<<<<]]]]]]<<<<<]]]]]<<",
"<<]]]]]]<<<]]]]]]]]<<<]]]]]]<<"
};
