/* XPM */
static char *result[] = {
/* columns rows colors chars-per-pixel */
"30 30 32 1 ",
"  c black",
". c #121100",
"X c #151300",
"o c #1C1900",
"O c #3A3600",
"+ c #635B00",
"@ c #776E00",
"# c #918600",
"$ c #938800",
"% c #A49700",
"& c #B0A200",
"* c #BAAC00",
"= c #C0B200",
"- c #DFCE00",
"; c #EAD900",
": c #EDDB00",
"> c #F6E400",
", c #FBE800",
"< c #FCE900",
"1 c #FDEA00",
"2 c #FEEB00",
"3 c #FFEB00",
"4 c #FFEC00",
"5 c #FFED00",
"6 c #FFEE00",
"7 c #FFEF00",
"8 c #FFF000",
"9 c #FFF100",
"0 c #FFF200",
"q c #FFF300",
"w c #FFF400",
"e c None",
/* pixels */
"eeeeeeeee444444444444eeeeeeeee",
"eeeeeeeee444444444444eeeeeeeee",
"eeeeee444444444444444444eeeeee",
"eeeee44444444444444444444eeeee",
"eeee4444444444444444444444eeee",
"eee444444444444444444444444eee",
"ee44444444444444444444444444ee",
"ee4444444444444444347qwq7434ee",
"ee444444444444444442>:;:>244ee",
"44444444444444444471=@+@=17444",
"4444444444444444449,$X X$,9444",
"4444444444444444440,#. .#,0444",
"4444444444444444449<%OoO%<9444",
"44444444444444444452-*&*-25444",
"444444444444444444346898643444",
"444444444444444444345676543444",
"444444444444444444444444444444",
"44444444444eeee444444444444444",
"44444444444eeee444444444444444",
"44444444444eeee444444444444444",
"44444444444eeee444444444444444",
"ee444444444eeee4444444444444ee",
"ee44444444eeeeee444444444444ee",
"ee4444444eeeeeeee44444444444ee",
"eee444444eeeeeeee4444444444eee",
"eeee44444eeeeeeee444444444eeee",
"eeeee4444eeeeeeee44444444eeeee",
"eeeeee444eeeeeeee4444444eeeeee",
"eeeeeeeeeeeeeeeeeeeeeeeeeeeeee",
"eeeeeeeeeeeeeeeeeeeeeeeeeeeeee"
};
