/* XPM */
static char *result[] = {
/* columns rows colors chars-per-pixel */
"30 30 33 1 ",
"  c black",
". c #020200",
"X c #040400",
"o c #151300",
"O c #2A2700",
"+ c #3A3600",
"@ c #6D6500",
"# c #776E00",
"$ c #8B8000",
"% c #938800",
"& c #A49700",
"* c #B5A700",
"= c #BAAC00",
"- c #C0B200",
"; c #DFCE00",
": c #ECDA00",
"> c #EDDB00",
", c #F6E400",
"< c #FBE800",
"1 c #FCE900",
"2 c #FDEA00",
"3 c #FEEB00",
"4 c #FFEB00",
"5 c #FFEC00",
"6 c #FFED00",
"7 c #FFEE00",
"8 c #FFEF00",
"9 c #FFF000",
"0 c #FFF100",
"q c #FFF200",
"w c #FFF300",
"e c #FFF400",
"r c None",
/* pixels */
"rrrrrrrrr555555555555rrrrrrrrr",
"rrrrrrrrr555555555555rrrrrrrrr",
"rrrrrr555555555555555555rrrrrr",
"rrrrr554580q0644555555555rrrrr",
"rrrr555532<<13555555555555rrrr",
"rrr55558,-%$&;7655555555555rrr",
"rr55555w>#oX+=97555555555555rr",
"rr55555e:@. O*98555555555555rr",
"rr55555w>#oX+=97555555555555rr",
"55555558,-%$&;765555555rrrrrrr",
"5555555532<<1355555555rrrrrrrr",
"55555554580q06445rrrrrrrrrrrrr",
"55555555555555555rrrrrrrrrrrrr",
"5555555555555rrrrrrrrrrrrrrrrr",
"5555555555555rrrrrrrrrrrrrrrrr",
"5555555555555rrrrrrrrrrrrrrrrr",
"5555555555555rrrrrrrrrrrrrrrrr",
"55555555555555555rrrrrrrrrrrrr",
"55555555555555555rrrrrrrrrrrrr",
"5555555555555555555555rrrrrrrr",
"55555555555555555555555rrrrrrr",
"rr55555555555555555555555555rr",
"rr55555555555555555555555555rr",
"rr55555555555555555555555555rr",
"rrr555555555555555555555555rrr",
"rrrr5555555555555555555555rrrr",
"rrrrr55555555555555555555rrrrr",
"rrrrrr555555555555555555rrrrrr",
"rrrrrrrrr555555555555rrrrrrrrr",
"rrrrrrrrr555555555555rrrrrrrrr"
};
