/* XPM */
static char *result[] = {
/* columns rows colors chars-per-pixel */
"30 30 35 1 ",
"  c #004AAD",
". c #0049AC",
"X c #0047AB",
"o c #0048AC",
"O c #1E5FB6",
"+ c #7AA0D3",
"@ c #7FA4D5",
"# c #7FA3D5",
"$ c #3D75C0",
"% c #F4F7FB",
"& c white",
"* c #3D74C0",
"= c #3B73BF",
"- c #F3F6FB",
"; c #5786C8",
": c #F9FBFD",
"> c #064DAE",
", c #AAC2E3",
"< c #0047AC",
"1 c #356EBD",
"2 c #EAF0F8",
"3 c #88A9D8",
"4 c #1D5DB5",
"5 c #D6E1F1",
"6 c #6490CC",
"7 c #FCFDFE",
"8 c #0C51B0",
"9 c #BACDE8",
"0 c #4478C2",
"q c #F2F5FA",
"w c #024BAD",
"e c #9AB6DE",
"r c #2261B7",
"t c #DDE7F4",
"y c #DDE6F3",
/* pixels */
"                              ",
"       .XXXXXXXXXXXXXX.       ",
"      oO+@##########@+Oo      ",
"      X$%&&&&&&&&&&&&%$X      ",
"      X*%&&&&&&&&&&&&%*X      ",
"      X*%&&&&&&&&&&&&%*X      ",
"      X*%&&&&&&&&&&&&%*X      ",
"      X*%&&&&&&&&&&&&%*X      ",
"      X*%&&&&&&&&&&&&%*X      ",
"      X*%&&&&&&&&&&&&%*X      ",
"      X*%&&&&&&&&&&&&%*X      ",
"      X*%&&&&&&&&&&&&%*X      ",
"      X*%&&&&&&&&&&&&%*X      ",
"      X*%&&&&&&&&&&&&%*X      ",
"      X*%&&&&&&&&&&&&%*X      ",
"      X*%&&&&&&&&&&&&%*X      ",
"      X*%&&&&&&&&&&&&%*X      ",
"      X*%&&&&&&&&&&&&%*X      ",
"      X*%&&&&&&&&&&&&%*X      ",
"      X=-&&&&&&&&&&&&-=X      ",
"      X;:&&&&&&&&&&&&:;X      ",
"     .>,&&&&&&&&&&&&&&,>.     ",
"     <12&&&&&&&&&&&&&&21<     ",
"    ..3&&&&&&&&&&&&&&&&3..    ",
"    o45&&&&&&&&&&&&&&&&54o    ",
"    X67&&&&&&&&&&&&&&&&76X    ",
"   .89&&&&&&&&&&&&&&&&&&98.   ",
"   X0q&&&&&&&&&&&&&&&&&&q0X   ",
"  .we&&&&&&&&&&&&&&&&&&&&ew.  ",
"  ort&&&&&&&&&&&&&&&&&&&&yro  "
};
