/* XPM */
static char *result[] = {
/* columns rows colors chars-per-pixel */
"30 30 22 1 ",
"  c #004AAD",
". c #0049AC",
"X c #004AAE",
"o c #03449B",
"O c #0D3568",
"+ c #0D3565",
"@ c #0D3566",
"# c #004AAF",
"$ c #063F8A",
"% c #1B2123",
"& c #1C201D",
"* c #1A2225",
"= c #1C201F",
"- c #1C2120",
"; c #1A2224",
": c #1C201E",
"> c #05408F",
", c #172735",
"< c #182530",
"1 c #0048A8",
"2 c #03449C",
"3 c white",
/* pixels */
"                              ",
"      . XXXXXXXXXXXXXX .      ",
"      XoO+@@@@@@@@@@+OoX      ",
"      #$%&&&&&&&&&&&&%$#      ",
"      #$*=----------=*$#      ",
"      #$*=----------=*$#      ",
"      #$*=----------=*$#      ",
"      #$*=----------=*$#      ",
"      #$*=----------=*$#      ",
"      #$*=----------=*$#      ",
"      #$*=----------=*$#      ",
"      #$*=----------=*$#      ",
"      #$*=----------=*$#      ",
"      #$*=----------=*$#      ",
"      #$*=----------=*$#      ",
"      #$*=----------=*$#      ",
"      #$*=----------=*$#      ",
"      #$*=----------=*$#      ",
"      #$;::::::::::::;$#      ",
"      X>,<<<<<<<<<<<<,>X      ",
"       12oooooooooooo21       ",
"      . XXXXXXXXXXXXXX .      ",
"                              ",
"                              ",
"                              ",
"                              ",
"                              ",
"                              ",
"                              ",
"                              "
};
