/* XPM */
static char *result[] = {
/* columns rows colors chars-per-pixel */
"30 30 24 1 ",
"  c red",
". c #FF0100",
"X c #FF0201",
"o c #FF0402",
"O c #FF0603",
"+ c #FF0604",
"@ c #FF130B",
"# c #FF1A0F",
"$ c #FF2717",
"% c #FF351F",
"& c #FF4A2C",
"* c #FF502F",
"= c #FF5633",
"- c #FF663C",
"; c #FF9E5D",
": c #FFA964",
"> c #FFB96E",
", c #FFC574",
"< c #FFCD79",
"1 c #FFDA81",
"2 c #FFDC82",
"3 c #FFDE83",
"4 c #FFE487",
"5 c None",
/* pixels */
"555555555555555555555555555555",
"555555555555555555555555555555",
"555555555555555115555555555555",
"5555555555555554>5555555555555",
"555555     553255o    55555555",
"55555       &,<-       5555555",
"5555        $;:%        555555",
"555         @*=#         55555",
"55          .O+X          5555",
"55                        5555",
"55                        5555",
"55                        5555",
"55                        5555",
"55                        5555",
"55                        5555",
"55                        5555",
"55                        5555",
"55                        5555",
"55                        5555",
"5555                    555555",
"5555                    555555",
"5555                    555555",
"55555                  5555555",
"555555                55555555",
"5555555              555555555",
"55555555     55      555555555",
"555555555555555555555555555555",
"555555555555555555555555555555",
"555555555555555555555555555555",
"555555555555555555555555555555"
};
