/* XPM */
static char *result[] = {
/* columns rows colors chars-per-pixel */
"30 30 155 2 ",
"   c #FA0000",
".  c #FB0000",
"X  c #FD0100",
"o  c #FE0000",
"O  c red",
"+  c #FF0101",
"@  c #FD0200",
"#  c #FC0300",
"$  c #FF0202",
"%  c #FF0303",
"&  c #FE0403",
"*  c #FF0404",
"=  c #FF0505",
"-  c #FD0704",
";  c #FE0705",
":  c #FF0606",
">  c #FF0707",
",  c #F90800",
"<  c #F90900",
"1  c #FD0A07",
"2  c #F90E05",
"3  c #FF0808",
"4  c #FE0909",
"5  c #FF0A0A",
"6  c #FE0B0A",
"7  c #FF0B0B",
"8  c #FF0C0C",
"9  c #FF0D0D",
"0  c #FF0E0E",
"q  c #FF0F0F",
"w  c #EE1A00",
"e  c #F21300",
"r  c #F51001",
"t  c #FF1111",
"y  c #FF1212",
"u  c #FF1414",
"i  c #FF1515",
"p  c #FF1717",
"a  c #FF1818",
"s  c #FE1918",
"d  c #FF1A1A",
"f  c #FF1B1B",
"g  c #FF1D1D",
"h  c #FF1E1E",
"j  c #DF3100",
"k  c #E92300",
"l  c #E22D00",
"z  c #FF2020",
"x  c #FF2121",
"c  c #FF2323",
"v  c #FF2424",
"b  c #FF2626",
"n  c #FF2727",
"m  c #FF2929",
"M  c #FF2A2A",
"N  c #FF2B2B",
"B  c #FF2C2C",
"V  c #FF2F2F",
"C  c #FF3030",
"Z  c #FF3232",
"A  c #FF3333",
"S  c #FF3535",
"D  c #FF3737",
"F  c #FF373B",
"G  c #FF3838",
"H  c #FF3C3C",
"J  c #FF3D3D",
"K  c #FF3E3E",
"L  c #BC6A00",
"P  c #AF7D00",
"I  c #AF7E00",
"U  c #AE7F00",
"Y  c #CB4E00",
"T  c #D64000",
"R  c #D04400",
"E  c #CB5000",
"W  c #C85600",
"Q  c #C16100",
"!  c #FF4242",
"~  c #FF4045",
"^  c #FF4444",
"/  c #FF4545",
"(  c #FF4848",
")  c #FF4949",
"_  c #FF4C4C",
"`  c #FF4F4F",
"'  c #FF5151",
"]  c #FF5252",
"[  c #FF5656",
"{  c #FF5A5A",
"}  c #FF5B5B",
"|  c #FF5C5C",
" . c #FF6060",
".. c #FF6464",
"X. c #FF6666",
"o. c #FF6767",
"O. c #FF6969",
"+. c #FF6C6C",
"@. c #FF7171",
"#. c #FF7272",
"$. c #FF7777",
"%. c #FF7878",
"&. c #FF7979",
"*. c #FF7C7C",
"=. c #FF7D7D",
"-. c #6EDD00",
";. c #77D200",
":. c #72DA00",
">. c #57FF00",
",. c #5AFD00",
"<. c #58FF00",
"1. c #59FF00",
"2. c #5BFF00",
"3. c #5FFC00",
"4. c #5EFD00",
"5. c #5FFD00",
"6. c #5CFF00",
"7. c #5DFF00",
"8. c #5EFE00",
"9. c #5EFF00",
"0. c #6AE400",
"q. c #66F100",
"w. c #63F600",
"e. c #62F700",
"r. c #61F800",
"t. c #60FA00",
"y. c #60FB00",
"u. c #9F9500",
"i. c #9C9A00",
"p. c #999D00",
"a. c #A19400",
"s. c #97A300",
"d. c #98A100",
"f. c #8EB100",
"g. c #87BD00",
"h. c #FF8080",
"j. c #FF8181",
"k. c #FF8282",
"l. c #FF8989",
"z. c #FF9595",
"x. c #FF9696",
"c. c #FF9999",
"v. c #FF9A9A",
"b. c #FF9D9D",
"n. c #FFA4A4",
"m. c #FFA7A7",
"M. c #FFA9A9",
"N. c #FFADAD",
"B. c #FFB3B3",
"V. c #FFB7B7",
"C. c #FFBABA",
"Z. c #FFBDBD",
"A. c #FFC8C8",
"S. c #FFC9C9",
"D. c None",
/* pixels */
"D.D.D.D.D.D.D.D.D.D.D.D.D.D.D.D.D.D.D.D.D.D.D.D.D.D.D.D.D.D.",
"D.D.D.D.D.D.D.D.D.D.D.D.D.D.D.D.D.D.D.D.D.D.D.D.D.D.D.D.D.D.",
"D.D.D.D.D.D.D.D.D.D.D.D.D.D.D.D.D.D.D.D.D.D.D.D.D.D.D.D.D.D.",
"D.D.D.D.D.D.D.D.D.D.D.D.D.D.D.D.D.D.D.D.D.D.D.D.D.D.D.D.D.D.",
"D.D.D.D.D.D.D.D.D.e.y.4.7.7.9.D.D.9.7.8.5.y.D.D.D.D.D.D.D.D.",
"D.D.D.D.D.D.D.D.D.L d.:.<.>.1.6.2.1.>.,.;.i.Q D.D.D.D.D.D.D.",
"D.D.D.D.D.D.D.D.6 - l s.w.r.e.3.3.w.t.q.a.k ; 6 D.D.D.D.D.D.",
"D.D.D.D.D.D.D.} $.F r Y U I p.0.-.u.I P R 2 ~ &.] D.D.D.D.D.",
"D.D.D.D.D.D.5 $.A.o.&   , # T g.f.j @ < . 4 %.S.X.% D.D.D.D.",
"D.D.D.D.D.D.= H o.S + O O O w W E e O O O * K o.A + D.D.D.D.",
"D.D.D.D.D.D.O O = u d 5 = i s 1 X o O O 9 f y * O O D.D.D.D.",
"D.D.D.D.D.D.O O 8 O.z.H g *.l.m O O O $ ` c.| : O O D.D.D.D.",
"D.D.D.D.D.D.O O q h.V.) v v.M.Z > c a 3  .Z.#.3 O O D.D.D.D.",
"D.D.D.D.D.D.O O = N J a 9 G H 0 D b.=.p g / M % O O D.D.D.D.",
"D.D.D.D.D.D.O O * x C i O O O O K M.l.a O O O O O O D.D.D.D.",
"D.D.D.D.D.D.O O 0 &.N._ O O O O y A m > O O O O O O D.D.D.D.",
"D.D.D.D.D.D.O O 0 @.n.( O O O O O O h ^ V = O O O O D.D.D.D.",
"D.D.D.D.D.D.D.O % d b t O O O O O O ' C.k.q O O O D.D.D.D.D.",
"D.D.D.D.D.D.D.D.O O 7 ! ' h O O O O ! x.O.8 O O D.D.D.D.D.D.",
"D.D.D.D.D.D.D.D.O O d x.C.^ O O + O 7 d y $ O O D.D.D.D.D.D.",
"D.D.D.D.D.D.D.D.O O y o.j.B a { [ u O O O O O O D.D.D.D.D.D.",
"D.D.D.D.D.D.D.D.D.O $ 8 0 O S B.m.n O O O O O D.D.D.D.D.D.D.",
"D.D.D.D.D.D.D.D.D.D.O O O O z +...p O O O O D.D.D.D.D.D.D.D.",
"D.D.D.D.D.D.D.D.D.D.D.O O O $ 3 > + O O O D.D.D.D.D.D.D.D.D.",
"D.D.D.D.D.D.D.D.D.D.D.D.D.D.O O O O D.D.D.D.D.D.D.D.D.D.D.D.",
"D.D.D.D.D.D.D.D.D.D.D.D.D.D.D.O O D.D.D.D.D.D.D.D.D.D.D.D.D.",
"D.D.D.D.D.D.D.D.D.D.D.D.D.D.D.D.D.D.D.D.D.D.D.D.D.D.D.D.D.D.",
"D.D.D.D.D.D.D.D.D.D.D.D.D.D.D.D.D.D.D.D.D.D.D.D.D.D.D.D.D.D.",
"D.D.D.D.D.D.D.D.D.D.D.D.D.D.D.D.D.D.D.D.D.D.D.D.D.D.D.D.D.D.",
"D.D.D.D.D.D.D.D.D.D.D.D.D.D.D.D.D.D.D.D.D.D.D.D.D.D.D.D.D.D."
};
