/* XPM */
static char *result[] = {
/* columns rows colors chars-per-pixel */
"30 30 33 1 ",
"  c black",
". c #020200",
"X c #040400",
"o c #151300",
"O c #2A2700",
"+ c #3A3600",
"@ c #6D6500",
"# c #776E00",
"$ c #8B8000",
"% c #938800",
"& c #A49700",
"* c #B5A700",
"= c #BAAC00",
"- c #C0B200",
"; c #DFCE00",
": c #ECDA00",
"> c #EDDB00",
", c #F6E400",
"< c #FBE800",
"1 c #FCE900",
"2 c #FDEA00",
"3 c #FEEB00",
"4 c #FFEB00",
"5 c #FFEC00",
"6 c #FFED00",
"7 c #FFEE00",
"8 c #FFEF00",
"9 c #FFF000",
"0 c #FFF100",
"q c #FFF200",
"w c #FFF300",
"e c #FFF400",
"r c None",
/* pixels */
"rrrrrrrrr555555555555rrrrrrrrr",
"rrrrrrrrr555555555555rrrrrrrrr",
"rrrrrr555555555555555555rrrrrr",
"rrrrr5555555554460q085455rrrrr",
"rrrr55555555555531<<235555rrrr",
"rrr5555555555567;&$%-,85555rrr",
"rr55555555555579=+Xo#>w55555rr",
"rr55555555555589*O .@:e55555rr",
"rr55555555555579=+Xo#>w55555rr",
"rrrrrrr555555567;&$%-,85555555",
"rrrrrrrr5555555531<<2355555555",
"rrrrrrrrrrrrr54460q08545555555",
"rrrrrrrrrrrrr55555555555555555",
"rrrrrrrrrrrrrrrrr5555555555555",
"rrrrrrrrrrrrrrrrr5555555555555",
"rrrrrrrrrrrrrrrrr5555555555555",
"rrrrrrrrrrrrrrrrr5555555555555",
"rrrrrrrrrrrrr55555555555555555",
"rrrrrrrrrrrrr55555555555555555",
"rrrrrrrr5555555555555555555555",
"rrrrrrr55555555555555555555555",
"rr55555555555555555555555555rr",
"rr55555555555555555555555555rr",
"rr55555555555555555555555555rr",
"rrr555555555555555555555555rrr",
"rrrr5555555555555555555555rrrr",
"rrrrr55555555555555555555rrrrr",
"rrrrrr555555555555555555rrrrrr",
"rrrrrrrrr555555555555rrrrrrrrr",
"rrrrrrrrr555555555555rrrrrrrrr"
};
