/* XPM */
static char *result[] = {
/* columns rows colors chars-per-pixel */
"50 50 199 2 ",
"   c #151B2D",
".  c #191D2F",
"X  c #14172C",
"o  c #1C1E31",
"O  c #17222F",
"+  c #19202F",
"@  c #1C2332",
"#  c #1A2C31",
"$  c #1A3232",
"%  c #2A2E2F",
"&  c #2E322F",
"*  c #242334",
"=  c #292334",
"-  c #252934",
";  c #2D253A",
":  c #2C2C39",
">  c #2A2C37",
",  c #332636",
"<  c #332C36",
"1  c #32273D",
"2  c #342C3C",
"3  c #3B2A38",
"4  c #2F3230",
"5  c #34323C",
"6  c #393837",
"7  c #472D3A",
"8  c #4B323A",
"9  c #53313C",
"0  c #1E4437",
"q  c #204A38",
"w  c #324739",
"e  c #24583C",
"r  c #26633E",
"t  c #415C3F",
"y  c #524C36",
"u  c #777437",
"i  c #3B2B42",
"p  c #372940",
"a  c #283B45",
"s  c #3D3941",
"d  c #422D46",
"f  c #472F49",
"g  c #4D324C",
"h  c #493745",
"j  c #52334E",
"k  c #5C364A",
"l  c #573551",
"z  c #593652",
"x  c #5D3855",
"c  c #533E55",
"v  c #603640",
"b  c #743D44",
"n  c #733E4B",
"m  c #623A57",
"M  c #663C5A",
"N  c #6A3D5B",
"B  c #6E3E57",
"V  c #713F5A",
"C  c #723F57",
"Z  c #294648",
"A  c #305452",
"S  c #296A43",
"D  c #2A7843",
"F  c #396E5A",
"G  c #3B6D4F",
"H  c #3B6761",
"J  c #474045",
"K  c #484346",
"L  c #4D4449",
"P  c #504A47",
"I  c #584343",
"U  c #5C4F50",
"Y  c #5C5750",
"T  c #4E554A",
"R  c #634C41",
"E  c #794147",
"W  c #76415A",
"Q  c #7A4259",
"!  c #7A4153",
"~  c #625353",
"^  c #6E5C58",
"/  c #6B5D55",
"(  c #705F59",
")  c #735350",
"_  c #547B48",
"`  c #447244",
"'  c #696654",
"]  c #78695B",
"[  c #416C65",
"{  c #8C464B",
"}  c #88474B",
"|  c #9A4A4D",
" . c #824559",
".. c #8A4758",
"X. c #8F4858",
"o. c #944A57",
"O. c #9C4D57",
"+. c #944A58",
"@. c #975959",
"#. c #A24E54",
"$. c #AB5155",
"%. c #A85758",
"&. c #B45455",
"*. c #B95655",
"=. c #B75957",
"-. c #B85956",
";. c #B95D59",
":. c #B55A58",
">. c #88695D",
",. c #9E6B5F",
"<. c #83715F",
"1. c #91684D",
"2. c #BC655D",
"3. c #BE685F",
"4. c #A87652",
"5. c #B37C55",
"6. c #8A7862",
"7. c #9E7466",
"8. c #937969",
"9. c #836C63",
"0. c #BD6C61",
"q. c #B46C63",
"w. c #A87764",
"e. c #B37967",
"r. c #BB7767",
"t. c #C27566",
"y. c #C27968",
"u. c #2F8D48",
"i. c #2E8646",
"p. c #308F49",
"a. c #338350",
"s. c #3B9C59",
"d. c #379952",
"f. c #32984B",
"g. c #34A34D",
"h. c #37AF50",
"j. c #3AA357",
"k. c #39B552",
"l. c #3D8661",
"z. c #4DBC55",
"x. c #53B654",
"c. c #6EB156",
"v. c #5CC257",
"b. c #60C159",
"n. c #98923A",
"m. c #BBB03D",
"M. c #D6C83E",
"N. c #9C8344",
"B. c #BB8256",
"V. c #BFAB43",
"C. c #B1A25C",
"Z. c #948369",
"A. c #9F9174",
"S. c #B78163",
"D. c #A08D71",
"F. c #A7906F",
"G. c #BCA57D",
"H. c #D08D5D",
"J. c #C89356",
"K. c #D6915F",
"L. c #D9945F",
"P. c #DC9B5C",
"I. c #CC8C5B",
"U. c #DEA15A",
"Y. c #C5B95D",
"T. c #E3AC57",
"R. c #E0A559",
"E. c #E2A958",
"W. c #E6B355",
"Q. c #EABC52",
"!. c #E8B954",
"~. c #E4BD4E",
"^. c #C68667",
"/. c #D78F60",
"(. c #DC9660",
"). c #E19861",
"_. c #81C95C",
"`. c #D7C642",
"'. c #EEC64F",
"]. c #EFC84F",
"[. c #F1CC4E",
"{. c #E3D441",
"}. c #F6DA49",
"|. c #F9DE48",
" X c #F4D34C",
".X c #ECC250",
"XX c #F0C651",
"oX c #EFE042",
"OX c #FBE446",
"+X c #FFED44",
"@X c #F8E647",
"#X c #FFF044",
"$X c #F0DC63",
"%X c #D3BE8F",
"&X c #CCB589",
"*X c #CFC094",
"=X c #F2E08A",
"-X c #ECDCA6",
";X c None",
/* pixels */
";X;X;X;X;X;X;X;X;X;X;X;X;X;X;X;X;X;X;X;X;X;X;X;X;X;X;X;X;X;X+X+X+X+X+X+X+X+X;X;X;X;X;X;X;X;X;X;X;X;X",
";X;X;X;X;X;X;X;X;X;X;X;X;X;X;X;X;X;X;X;X+X+X+X+X+X;X;X;X;X/.L.'.+XOXOX+X+X+X+X+X;X;X;X;X;X;X;X;X;X;X",
";X;X;X;X;X;X;X;X;X;X;X;X;X;X;X;X;X+X+X+X+X+X#X#X;X;XP.W.'..XQ.W.+XQ.T.|.OXOX|.OX+X+X;X;X;X;X;X;X;X;X",
";X;X;X;X;X;X;X;X;X;X;X;X;X;X+X+X+X+X+XOX}.Q.Q.P.L.L.T.}.OXOXOX+X+X|.R.P.P.U.P.T..X|.;X;X;X;X;X;X;X;X",
";X;X;X;X;X;X;X;X;X;X;X;XOX+X+X+X+X}.Q.P.P.L.L.L.L.L.P.P.P.P.E.!..XOX XP./.;X;XK.L.U.'.+X;X;X;X;X;X;X",
";X;X;X;X;X;X;X;X;X;X;XP.}.+X+X}.W.P.L.L.L.L.;XL.L.L./.L.K.K.L./.L.P.P./.L.L.L.;X;XK.L.Q.OX;X;X;X;X;X",
";X;X;X;X;X;X;X;X;X;XL.Q.OX[.W.).H.4.;X;X;X;X;XL.L.;X;X;X;X;X;X;X;X;X;X;XL.L.(.(.;X;X;XL.R.!.;X;X;X;X",
";X;X;X;X;X;X;X;XW.P.R. XQ.L./.5.R ;X;X;X;X;X;X;X;X;X;X;X;X;X;X;X;X;X;X;X;X;X;X;X;X;X;X;X;X;X;X;X;X;X",
";X;X;X;X;X;XP.[.+X'.Q.R.L.L.5.y ;X(.L.;X;X;X;X;X;X;X;X;X;X;X;X;X;X;X;X;X;X;X;X;X;X;X;X;X;X;X;X;X;X;X",
";X;X;X;X;XP.'.OX'.U.P.L.L.1.* ;XL.L.;X;X;X;X;X;X;X;X;X;X;X;X;X;X;X;X;X;X;X;X;X;X;X;X;X7.7.7.;X;X;X;X",
";X;X;X;XL.!.OXW.R.P.L.L.B.R ;XL.L.;X;X;X;X;X;X;X;X;X;X;X;X;X;X;X;X;X;X;X;X;X;X;X;X;X;X;X;X7.w.^.S.;X",
";X;X;XL.L.U.T.T.OXQ.L.L.L.K.L.L.;X;X;X;X;X;X;X;X;X;X;X;X;X;X;X;X;X;X;X;X;X;X;X;X;X;X;X;X;X;Xw.S.K.^.",
";X;X;XU.P.K.T.OX[.P.(.I.4.L.L.;X;X;X;X;X;X;X;X;X;X;X;X;X;X;X. . O .   ;X;X;X;X;X;X;X;X;X;X;X;X7.S.L.",
";X;XP.E.L.E.OXOXU.L.P.1.* ;X;X;X;X;X;X;X;X;X;X;X;X;X;X;X= 8 } { { @.) < ;X;X;X;X;X;X;X;X;X;X;X;X7.w.",
";XL.!.E.Q.OX+X'.L.L.4.< ;X;X;X;X;X;X;X;X;X;X;X;X;X;X. 9 | | { &.*.-.t.,.<   ;X;X;X;X;X;X;X;X;X;X;X7.",
";XL.].[.+X+X+XT.W.J.8 ;X;X;X;X;X;X;X;X;X;X;X;X;X;X;X= 9 7 = . 7 #.*.&.0.w.I   ;X;X;XO ;X;X;X;X;X;X;X",
";XE.|.+X+X+X+X.X|.N.;X).L.;X;X;X;X;X;X;X;X;X;X;X;X;X  ;X  i l i n #.&.&.0.r.h ;X;X. e 0 ;X;X;X;X;X;X",
";X.X+X+X+X+X+X+X#XV.J.B.;X;X;X;X;X;X;X;X;X;X;X;X;X;X;X;X* m N M B X.&.&.2.y.e.h ;XO i.u.# ;X;X;X;X;X",
";X|.+X+X+X+X+X+X+X].4.;X;X;X;X;X;X;X;X;X;X;X;X;X;X;X;X;Xo l M W $.&.=.;.r.y.t.E   @ a.k.` ;X;X;X;X;X",
";X+X+X+X+X+X+X+X#X~.I ;X;X;X;X;X;X;X;X;X;X;X;X;X;X;X;X. ; ; d Q &.&.0.0.t.0.=.| * Z l.z._ ;X;X;X;X;X",
";X+X+X+X+X+X+X+X+X`.6 ;X;X;X;X;X;X;X;X;X;X@ 0 S w - ;X, M x x N Q +.#.&.&.:.0.O.5 H d.x._ ;X;X;X;X;X",
";XoX+X+X+X+X+X+X+X{.6 ;X;X;X;X;X;X;X;X;X;Xr g.k.x.c.w + l N N M M B ..$.*.*.2.@.c [ x.x.w ;X;X;X;X;X",
";Xu oX+X+X+X+X+X+X+Xu +     ;X;X;X;X;X;X;X# $ S s.x.c.T i N B ....o.&.&.*.&.*.X.j a F G o ;X;X;X;X;X",
";X;Xn.#X+X+X+X+X+X+XY.F.5 - o ;X;X;X;X;X;X;X;X@ A x.v.b.' M V +.&.*.&.$.&.&.#.Q N g > * ;X;X;X;X;X;X",
";X;Xy `.#X#X#X#X+X+X=X&XA.F.:   ;X;X;X;X;X;X;X;Xo H j.z.T M N M Q X. .W ..+.$.$.&.q.e.>.* ;X;X;X;X;X",
";X;X;Xy M.#X#X+X+X$X-X-X%X' o @ * . ;X;X  ;X;X;X;Xa F S f N N N W  .W Q #.$.&.&.2.y.t.r.5 ;X;X;X;X;X",
";X;X;X;X6 u m.{.M.C.-X*XL - ; ~ ~ K @ O r q O ;X;X  @ ; m N N M Q $.$.:.;.;.0.;.0.2.*.%., ;X;X;X;X;X",
";X;X;X;X;X;X% % 4 > Z.G.Z.P s ] 8.^ - $ D d.Z   ;Xo f M N N N Q Q  .&.2.y.y.0.*.&.&.*.b . ;X;X;X;X;X",
";X;X;X;X;X;X;X;X;X;X@ Y Y . @ K L 5 q f.e Z Z     o l N N N N O.&.&.$.&.*.*.*.*.&.o.! =   ;X;X;X;X;X",
";X;X;X;X;X;X;X;X;X;X;X;X;X;X;X;X;X  p.k.g.0   : > @ 1 M N N N B O.$.+. .#.$.O...W j , * ;X;X;X;X;X;X",
";X;X;X;X;X;X;X;X;X;X;X;X;X;X;X;X;X  S g.k.u.> U Y ;   ; l N N N N W Q N N V N x 3 , b E . ;X;X;X;X;X",
";X;X;X;X;X;X;X;X;X;X;X;X;X;X;X;X;X;XO e u.r o @ @   ;XX p l l x N N N x l x z z g C &.&.9   ;X;X;X;X",
";X;X;X;X;X;X;X;X;X;X;X;X;X;X;X;X;X;X;X;X;X;X;X;X;X;X;X;X;X@ ; ; j z p = = ; f M N N #.=.{ * ;X;X;X;X",
";X;X;X;X;X;X;X;X;X;X;X;X;X;X;X;X;X;X;X;X;X;X;X;X;X;X;X;X  p m N M M g j M M N N N N #.*.#.= ;X;X;X;X",
";X;X;X;X;X;X;X;X;X;X;X;X;X;X;X;X;X;X;X;X;X;X;X;X;X;X    @ h h i g j x N N N N N N B } b 7 > @ ;X;X;X",
";X;X;X;X;X;X;X;X;X;X;X;X;X;X;X;X;X;X;X;X;X;X;X;X;XO r q   h ( L s 5 p p ; f l g p 2 s P ] <.- ;X;X;X",
";X;X;X;X;X;X;X;X;X;X;X;X;X;X;X;X;X;X;X;X;X;X;X;XO S k.i.  * * L ' ~ ^ ^ ^ ~ i 5 ' A.8.Z.6.h *   ;X;X",
";X;X;X;X;X;X;X;X;X;X;X;X;X;X;X;X;X;X;X;X;X;X;X;X# g.h.D * x l f p = 5 s s ~ ~ Y >.8.6 ; ; f { b * ;X",
";X;X;X;X;X;X;X;X;X;X;X;X;X;X;X;X;X;X;X;X;X;X;X;XO u.h.0 ; j M N M l j j i ; ; ; ; f j m ! #.-.#., ;X",
";X;X;X;X;X;X;X;X;X;X;X;X;X;X;X;X;X;X;X;X;X;X;X;X  $ 0 #   . * d g l M N M N N N N N W O.$.$.b , ;X;X",
";X;X;X;X;X;X;X;X;X;X;X;X;X;X;X;X;X;X;X;X;X;X;X;X;X;X;X;X;X;X      o = ; 1 g g m m g k E 8 , . ;X;X;X",
";X;X;X;X;X;X;X;X;X;X;X;X;X;X;X;X;X;X;X;X;X;X;X;X;X;X;X;X;X    O ;X;X;X;X      ; *           ;X;X;X;X",
";X;X;X;X;X;X;X;X;X;X;X;X;X;X;X;X;X;X;X;X;X;X;X;X;X;X;X;X;X;X;X;X;X;X;X;X;X;X;X;X;X;X;X  .   ;X;X;X;X",
";X;X;X;X;X;X;X;X;X;X;X;X;X;X;X;X;X;X;X;X;X;X;X;X;X;X;X;X;X;X;X;X;X;X;X;X;X;X;X;X;X;X;X;X      ;X;X;X",
";X;X;X;X;X;X;X;X;X;X;X;X;X;X;X;X;X;X;X;X;X;X;X;X;X;X;X;X;X;X;X;X;X;X;X;X;X;X;X;X;X;X;X;X;X    ;X;X;X",
";X;X;X;X;X;X;X;X;X;X;X;X;X;X;X;X;X;X;X;X;X;X;X;X;X;X;X;X;X;X;X;X;X;X;X;X;X;X;X;X;X;X;X;X;X;X;X;X;X;X",
";X;X;X;X;X;X;X;X;X;X;X;X;X;X;X;X;X;X;X;X;X;X;X;X;X;X;X;X;X;X;X;X;X;X;X;X;X;X;X;X;X;X;X;X;X;X;X;X;X;X",
";X;X;X;X;X;X;X;X;X;X;X;X;X;X;X;X;X;X;X;X;X;X;X;X;X;X;X;X;X;X;X;X;X;X;X;X;X;X;X;X;X;X;X;X;X;X;X;X;X;X",
";X;X;X;X;X;X;X;X;X;X;X;X;X;X;X;X;X;X;X;X;X;X;X;X;X;X;X;X;X;X;X;X;X;X;X;X;X;X;X;X;X;X;X;X;X;X;X;X;X;X",
";X;X;X;X;X;X;X;X;X;X;X;X;X;X;X;X;X;X;X;X;X;X;X;X;X;X;X;X;X;X;X;X;X;X;X;X;X;X;X;X;X;X;X;X;X;X;X;X;X;X"
};
