/* XPM */
static char *result[] = {
/* columns rows colors chars-per-pixel */
"50 50 196 2 ",
"   c #151B2D",
".  c #191E2F",
"X  c #12172C",
"o  c #1C1E31",
"O  c #17212F",
"+  c #18232F",
"@  c #1B2331",
"#  c #1B2A34",
"$  c #1C3434",
"%  c #1D3C35",
"&  c #2E332F",
"*  c #232234",
"=  c #2D2434",
"-  c #2D253A",
";  c #2E2C3A",
":  c #262A35",
">  c #31263D",
",  c #342B3C",
"<  c #3D2B3F",
"1  c #29383A",
"2  c #343133",
"3  c #35323D",
"4  c #3B393F",
"5  c #3A3836",
"6  c #452C39",
"7  c #4C2E3A",
"8  c #5C343E",
"9  c #48353F",
"0  c #1E4136",
"q  c #204938",
"w  c #23583C",
"e  c #3A543D",
"r  c #34463A",
"t  c #26653F",
"y  c #434134",
"u  c #736F36",
"i  c #78723F",
"p  c #6A6735",
"a  c #3C2B42",
"s  c #372941",
"d  c #273C45",
"f  c #3E3941",
"g  c #3B3740",
"h  c #442E47",
"j  c #462F48",
"k  c #492F4A",
"l  c #423C43",
"z  c #4C3C41",
"x  c #4C324C",
"c  c #403044",
"v  c #52344E",
"b  c #5D3843",
"n  c #4B3D51",
"m  c #553551",
"M  c #5A3653",
"N  c #5D3855",
"B  c #6B3A42",
"V  c #693A47",
"C  c #753F4C",
"Z  c #783F46",
"A  c #613A57",
"S  c #663B59",
"D  c #6A3D5B",
"F  c #6E3D51",
"G  c #723F5A",
"H  c #753F53",
"J  c #2A464B",
"K  c #2A5C44",
"L  c #325554",
"P  c #286D41",
"I  c #326540",
"U  c #356A58",
"Y  c #3C775F",
"T  c #2B7843",
"R  c #3C6963",
"E  c #4A4346",
"W  c #564245",
"Q  c #554B4C",
"!  c #564549",
"~  c #445F41",
"^  c #5B534D",
"/  c #4B4053",
"(  c #5C4F50",
")  c #694449",
"_  c #7D4046",
"`  c #78564C",
"'  c #75405A",
"]  c #7C4359",
"[  c #625452",
"{  c #645B55",
"}  c #695955",
"|  c #765854",
" . c #437345",
".. c #546F48",
"X. c #666042",
"o. c #6F6158",
"O. c #7A695A",
"+. c #9B4B4E",
"@. c #824559",
"#. c #8B4758",
"$. c #8E4858",
"%. c #934A57",
"&. c #9B4C56",
"*. c #914958",
"=. c #975459",
"-. c #8D464A",
";. c #A34E54",
":. c #A75055",
">. c #AC5155",
",. c #B55455",
"<. c #B75856",
"1. c #B85856",
"2. c #B95756",
"3. c #816F5D",
"4. c #98675D",
"5. c #80715D",
"6. c #866249",
"7. c #BB635D",
"8. c #B8695F",
"9. c #AA7753",
"0. c #836C62",
"q. c #887561",
"w. c #BD6B60",
"e. c #B66862",
"r. c #BE7A69",
"t. c #C16E62",
"y. c #C07466",
"u. c #C37D6A",
"i. c #2F8B48",
"p. c #309249",
"a. c #329B4B",
"s. c #3E974C",
"d. c #3E8E5E",
"f. c #399657",
"g. c #348E49",
"h. c #3AA755",
"j. c #37B150",
"k. c #38B451",
"l. c #38A84F",
"z. c #449F5C",
"x. c #50984D",
"c. c #608B4D",
"v. c #44AF56",
"b. c #52A350",
"n. c #47B653",
"m. c #50B754",
"M. c #6CBD58",
"N. c #76A855",
"B. c #56C257",
"V. c #70C55B",
"C. c #958D3A",
"Z. c #A1993A",
"A. c #B7AD3D",
"S. c #D9CC3F",
"D. c #B18D4B",
"F. c #B48352",
"G. c #AD8E48",
"H. c #9B8F73",
"J. c #968468",
"K. c #A8916F",
"L. c #AA9271",
"P. c #A89575",
"I. c #D7915F",
"U. c #D9945F",
"Y. c #DC9A5D",
"T. c #CD9756",
"R. c #C0AC42",
"E. c #D5B34B",
"W. c #E4AE57",
"Q. c #E3A959",
"!. c #E0A25B",
"~. c #E6B355",
"^. c #EABB53",
"/. c #C9856F",
"(. c #DA9360",
"). c #C0A87F",
"_. c #83CC5E",
"`. c #DCCE40",
"'. c #EFC94E",
"]. c #F0CC4D",
"[. c #E8DA41",
"{. c #F5D64B",
"}. c #EBC051",
"|. c #EFE042",
" X c #FBE446",
".X c #FEEC44",
"XX c #FBE44B",
"oX c #FFF244",
"OX c #FAE95A",
"+X c #DCC17E",
"@X c #F1DC6F",
"#X c #C1B189",
"$X c #E8D49E",
"%X c #DFD2A0",
"&X c #EEDEA6",
"*X c None",
/* pixels */
"*X*X*X*X*X*X*X*X*X*X*X*X*X*X*X*X*X*X*X*X*X*X*X*X*X*X*X*X*X*X*X*X*X*X*X*X*X*X*X*X*X*X*X*X*X*X*X*X*X*X",
"*X*X*X*X*X*X*X*X*X*X*X*X*X*X*X*X*X*X*X*X*X*X*X*X*X*X*X*X*X*X*X*X*X*X*X*X*X*X*X*X*X*X*X*X*X*X*X*X*X*X",
"*X*X*X*X*X*X*X*X*X*X*X*X*X*X*X*X*X*X*X*X*X*X*X*X*X*X*X*X*X*X*X*X*X*X*X*X*X*X*X*X*X*X*X*X*X*X*X*X*X*X",
"*X*X*X*X*X*X*X*X*X*X*X*X*X*X*X*X*X*X*X*X*X*X*X*X*X*X*X*X*X*X*X*X*X*X*X*X*X*X*X*X*X*X*X*X*X*X*X*X*X*X",
"*X*X*X*X*X*X*X*X*X*X*X*X*X*X*X*X*X*X*X*X*X*X*X*X*X*X*X*X*X*X*X*X*X*X*X*X*X*X*X*X*X*X*X*X*X*X*X*X*X*X",
"*X*X*X*X*X*X*X*X*X*X*X*X*X*X*X*X*X*X*X*X*X.     *X*X*X*X*X*X*X*X*X*X*X*X*X*X*X*X*X*X*X*X*X*X*X*X*X*X",
"*X*X*X*X*X*X*X*X*X*X*X*X*X*X*X*X*X*X*X*X  6 Z 8 *   *X*X*X*X*X*X*X*X*X*X*X*X*X*X*X*X*X*X*X*X*X*X*X*X",
"*X*X*X*X*X*X*X*X*X*X*X*X*X*X*X*X*X*X*X*X  * +.,.=.z   *X*X*X*X*X*X*X*X*X*X*X*X*X*X*X*X*X*X*X*X*X*X*X",
"*X*X*X*X*X*X*X*X*X*X*X*X*X*X*X*X*X*X*X      8 ,.2.8.W * *X*X*X*X*X*X*X*X*X*X*X*X*X*X*X*X*X*X*X*X*X*X",
"*X*X*X*X*X*X*X*X*X*X*X*X*X*X*X*X*X*X*Xo j , = +.2.1.r.W   *X*X*X*X*X*X*X*X*X*X*X*X*X*X*X*X*X*X*X*X*X",
"*X*X*X*X*X*X*X*X*X*X*X*X. . *X*X*X*X  > D D x F ;.,.7.4.* *X*X*X*X*X*X*X*X*X*X*X*X*X*X*X*X*X*X*X*X*X",
"*X*X*X*X*X*X*X*X*X*X*X*X0 t + *X*X*X  * M D ' #.;.,.,.w.| @ *X*X*X*X*X*X*X*X*X*X*X*XU.*X*X*X*X*X*X*X",
"*X*X*X*X*X*X*X*X*X*X*X*X% l. .# *X* j > h ' >.,.,.2.,.y.u.z *X*X*X*X% 1 *X*X*X*X*X*X(.U.*X*X*X*X*X*X",
"*X*X*X*X*X*X*X*X*X*X*X*XO p.m.y . - D A m ' >.2.1.7.8.u./.` *X*X*X$ s.t *X*X*X*X*X*X*XU.U.*X*X*X*X*X",
"*X*X*X*X*X*X*X*X*X*X*X*X@ U v.V.e - S D D D %.,.w.y.y.y.t.)     q g.V.~ *X*X*X*X*X*X*XU.U.*X*X*X*X*X",
"*X*X*X*X*X*X*X*X*X*X*X*X*XJ d.V.N.1 M D D D D @.>.,.2.8.1.V X 1 f.B.c.O *X*X*X*X*X*X*XU.U.U.U.*X*X*X",
"*X*X*X*X*X*X*X*X*X*X*X*X*X# R v.M...S G $.] G &.,.,.,.7.e.M J Y j.b.r *X*X*X*X*X*X*X*XY.U.U.*X*X*X*X",
"*X*X*X*X*X*X*X*X*X*X*X*X*X*XL d.T x D D $.>.>.2.<.,.,.,.=.n R f.n.e *X*X*X*X*X*X*X*X*X(.U.U.*X*X*X*X",
"*X*X*X*X*X*X*X*X*X*X*X*X*X*X@ $ ; A D D D @.&.>.,.2.,.;.G n R z.x.* *X*X*X*X*X*X*X*X(.U.U.U.*X*X*X*X",
"*X*X*X*X*X*X*X*X*X*X*X*X*XO * k A S D D D @.D ' ] %.>.%.G A d K 1 *X*X*X*X*X*X*X*X*X*XU.U.U.*X*X*X*X",
"*X*X*X*X*X*X*X*X*X*X*X*X*X> A D D D D D G >.>.:.:.:.,.,.,.=.) 3 X *X*X*X*X*X*X*X*X*X*XU.U.Y.{.*X*X*X",
"*X*X*X*X*X*X*X*X*X*X*X*X*X> D D D S G *.G &.<.1.<.<.,.,.1.u./.4.o *X*X*X*X*X*X*X*X*X*X*XI.~..X*X*X*X",
"*X*X*X*X*X*X*X*X*X*X*X*X*X* M D D S @.,.>.>.,.1.u.u.7.<.w.7.w.4.@ *X*X*X*X*X*X*X*X*X*X*XU.{.*X*X*X*X",
"*X*X*X*X*X*X*X*XO # . *X*X  - S D S G &.2.,.,.,.w.w.,.,.,.,.w.| . *X*X*X*X*X*X*X*X*X*X*X~. X*X*X*X*X",
"*X*X*X*X*X*X*XO P a.0   *X*X  , S D D D $.$.$.<.,.,.,.2.,.,.C o *X*X*X*X*X*X*X*X*X*X*XI.^.oX.X*X*X*X",
"*X*X*X*X*X*X  t j.k.a.+ *X*X*Xo a N S D S ' S ' *.$.$.$.*.H - *X*X*X*X*X*X*X*X*X*X*X*X*XG.|..X*X*X*X",
"*X*X*X*X*X*X  i.k.k.a.+ *X*X  a v k N S N N N D S S A m s o   *X*X*X*X*X*X*X*X*X*X*X*X*X*XA.XX*X*X*X",
"*X*X*X*X*X*X  w a.k.p.O . *X@ > S D ' S s - s j M A a = 6 6   *X*X*X*X*X*X*X*X*X*X*X*X*X*XC.^.*X*X*X",
"*X*X*X*X*X*X*X. # w % .     s Q g N S D S N N N S @.+.>.,.B *X*X*X*X*X*X*X*X*X*X*X*X*X*X& G.!.*X*X*X",
"*X*X*X*X*X*X*X*X*X*X*X*X*X@ ; [ [ - m S S ' ' S @.,.2.;.Z * *X*X*X*X*X*X*X*X*X*X*X*X*X*Xy T.(.*X*X*X",
"*X*X*X*X*X*X*X*X*X*X*X*X*Xa m - Q [ s s m m m m C 8 b z ; 3 *X*X*X*X*X*X*X*X*X*X*X*X*X*XD.U.*X*X*X*X",
"*X*X*X*X*X*X*X*X*X*X*X*Xo m D x * E [ { f 3 ; 9 O.o.J.L.4 .   *X*X*X*X*X*X*X*X*X*X*X*X*X!.U.*X*X*X*X",
"*X*X*X*X*X*X*X*X*X*X*X*Xo x D D m - , l l } ( q.K.} ^ E Q g X *X*X*X*X*X*X*X*X*X*X*X*X*X(.U.*X*X*X*X",
"*X*X*X*X*X*X*X*X*X*X*X*X*Xo a A D S N k j - - - - > j * E l @ % $ *X*X*X*X*X*X*X*X*X*X(.(.(.U.U.*X*X",
"*X*X*X*X*X*X*X*X*X*X*X*X*X*X. * x D D D D S S S S D ] _ = @ U h.a.$ *X*X*X*X*X*X*X*X*X(.U.U.U.(.*X*X",
"*X*X*X*X*X*X*X*X*X*X*X*X*X*X    o > m D D D D D D $.<.;.9 U h.j.n. .  *X*X*X*X*X*X*X*X*X*XU.U.U.(.*X",
"*X*X*X*X*X*X*X*X*X*X*X*X*X*X.       o - a m m h - V -.7 d d.j.n.V...  *X*X*X*X*X*X*X*X*X*X*XU.(.(.*X",
"*X*X*X*X*X*X*X*X*X*X*X*X*X*X*X. . *X*X  .     . X   .   O K j.M...1 O *X*X*X*X*X*X*X*X*X*XU.U.U.Y.*X",
"*X*X*X*X*X*X*X*X*X*X*X*X*X*X*X*X*X*X*X*X*X*X*X*X*X*X.     + p.x.: ! l + *X*X*X*X*X*X*X*X*XY.^.}.Y.*X",
"*X*X*X*X*X*X*X*X*X*X*X*X*X*X*X*X*X*X*X*X*X*X*X*X*X*X.     *X% % ; 3.| s   *X*X*X*X*X*X*X` W..X X*X*X",
"*X*X*X*X*X*X*X*X*X*X*X*X*X*X*X*X*X*X*X*X*X*X*X*X*X*X*X*X*X*X*X*Xo O.0.4 . O . *X*X*X*X9 D.{.'..X*X*X",
"*X*X*X*X*X*X*X*X*X*X*X*X*X*X*X*X*X*X*X*X*X*X*X*X*X*X*X*X*X*X*X*X*Xl } ; 4 5.: *X*X*X5 R.Q.^.~..X*X*X",
"*X*X*X*X*X*X*X*X*X*X*X*X*X*X*X*X*X*X*X*X*X*X*X*X*X*X*X*X*X*X*X*X*X  : O 5.L.@   O p S.{.U.Q. X*X*X*X",
"*X*X*X*X*X*X*X*X*X*X*X*X*X*X*X*X*X*X*X*X*X*X*X*X*X*X*X*X*X*X*X*X*X  Q E H.#XO.i Z.[.oX].Q. X.X*X*X*X",
"*X*X*X*X*X*X*X*X*X*X*X*X*X*X*X*X*X*X*X*X*X*X*X*X*X*X*X*X*X*X*X*X*XX { P.$X$X@X.XoXoX.X X X{.*X*X*X*X",
"*X*X*X*X*X*X*X*X*X*X*X*X*X*X*X*X*X*X*X*X*X*X*X*X*X*X*X*X*X*X*X*X*X*X3 ).&X$XXXoX.X.X.X.X.X^.*X*X*X*X",
"*X*X*X*X*X*X*X*X*X*X*X*X*X*X*X*X*X*X*X*X*X*X*X*X*X*X*X*X*X*X*X*X*X*XO 4 P.%XXX.X.X.X.X.X^.U.*X*X*X*X",
"*X*X*X*X*X*X*X*X*X*X*X*X*X*X*X*X*X*X*X*X*X*X*X*X*X*X*X*X*X*X*X*X*X*X*X*Xg X.[.oX.X.X.X}.9.*X*X*X*X*X",
"*X*X*X*X*X*X*X*X*X*X*X*X*X*X*X*X*X*X*X*X*X*X*X*X*X*X*X*X*X*X*X*X*X*X*X*X*X. u C.S.[.E.6.2 *X*X*X*X*X",
"*X*X*X*X*X*X*X*X*X*X*X*X*X*X*X*X*X*X*X*X*X*X*X*X*X*X*X*X*X*X*X*X*X*X*X*X*X*X*X. & 5 2 O *X*X*X*X*X*X"
};
