/* XPM */
static char *result[] = {
/* columns rows colors chars-per-pixel */
"50 50 187 2 ",
"   c #151B2D",
".  c #1B1D2F",
"X  c #1C1E31",
"o  c #17222F",
"O  c #1C222F",
"+  c #172430",
"@  c #1B2331",
"#  c #1A2C33",
"$  c #1E2E3B",
"%  c #1D3D36",
"&  c #232334",
"*  c #2B2634",
"=  c #222934",
"-  c #2A2B37",
";  c #2C253A",
":  c #2D2C39",
">  c #272E3A",
",  c #3A2A37",
"<  c #31253C",
"1  c #352A3D",
"2  c #3E2C3C",
"3  c #352735",
"4  c #263735",
"5  c #33313C",
"6  c #3A343E",
"7  c #3A383A",
"8  c #4F333D",
"9  c #413539",
"0  c #52313C",
"q  c #59333E",
"w  c #432C39",
"e  c #1F4738",
"r  c #214C39",
"t  c #29423C",
"y  c #245D3D",
"u  c #285B3D",
"i  c #3B553D",
"p  c #25603D",
"a  c #59453F",
"s  c #425D3F",
"d  c #646235",
"f  c #7C7739",
"g  c #372940",
"h  c #3B2B41",
"j  c #283F47",
"k  c #3C3341",
"l  c #3E3942",
"z  c #412D45",
"x  c #492F49",
"c  c #462F48",
"v  c #4B314B",
"b  c #453A4C",
"n  c #4C3C42",
"m  c #553F44",
"M  c #52334E",
"N  c #5A364E",
"B  c #553551",
"V  c #5B3653",
"C  c #5D3854",
"Z  c #673842",
"A  c #703B43",
"S  c #623A55",
"D  c #653B59",
"F  c #6A3D5B",
"G  c #683C55",
"H  c #713F5A",
"J  c #2C4248",
"K  c #2B4F4A",
"L  c #2A6D43",
"P  c #276A40",
"I  c #3E6541",
"U  c #2C7744",
"Y  c #366559",
"T  c #3D7363",
"R  c #3B6862",
"E  c #4C4448",
"W  c #454E43",
"Q  c #54464D",
"!  c #5D4548",
"~  c #554C4B",
"^  c #5C4B47",
"/  c #444956",
"(  c #675349",
")  c #74405A",
"_  c #7B4259",
"`  c #754057",
"'  c #6A5A56",
"]  c #795A55",
"[  c #4C6D44",
"{  c #6A6358",
"}  c #75635B",
"|  c #766B5B",
" . c #8E464B",
".. c #92474C",
"X. c #994A4E",
"o. c #854558",
"O. c #8A4758",
"+. c #8F4957",
"@. c #944A56",
"#. c #9C4C57",
"$. c #875E57",
"%. c #985252",
"&. c #A04D4F",
"*. c #A14E55",
"=. c #A75056",
"-. c #AC5255",
";. c #B55554",
":. c #BA5656",
">. c #B75957",
",. c #B85957",
"<. c #B75B59",
"1. c #B85C59",
"2. c #86604A",
"3. c #8D7C5E",
"4. c #92655B",
"5. c #A1665D",
"6. c #BA635D",
"7. c #BA655D",
"8. c #B97F57",
"9. c #AC7853",
"0. c #9A5A60",
"q. c #8A7664",
"w. c #BD6C62",
"e. c #A67163",
"r. c #BB7566",
"t. c #C17566",
"y. c #C37B6A",
"u. c #2D8346",
"i. c #32944A",
"p. c #3C845F",
"a. c #3C935C",
"s. c #369253",
"d. c #36A64E",
"f. c #3AAB4F",
"g. c #3CAB56",
"h. c #37B250",
"j. c #3AB452",
"k. c #498D4B",
"l. c #579B4F",
"z. c #459153",
"x. c #618A4D",
"c. c #6C9C51",
"v. c #44B552",
"b. c #55BA56",
"n. c #48AE58",
"m. c #73A354",
"M. c #63BB57",
"N. c #69C65A",
"B. c #71C55B",
"V. c #AE894B",
"C. c #AE9743",
"Z. c #82BC5A",
"A. c #9A886B",
"S. c #A8916F",
"D. c #AC9977",
"F. c #B89D77",
"G. c #D9935F",
"H. c #DC9B5C",
"J. c #D5945D",
"K. c #C7885B",
"L. c #DEA15B",
"P. c #E4AE57",
"I. c #E2AA58",
"U. c #E1A55A",
"Y. c #E6B355",
"T. c #ECBF52",
"R. c #C6816D",
"E. c #88CF5F",
"W. c #D7CA41",
"Q. c #F0CA4E",
"!. c #EBDD42",
"~. c #F7DB4A",
"^. c #F8DD48",
"/. c #F4DF50",
"(. c #FBE346",
"). c #FFED43",
"_. c #FDEC4F",
"`. c #FFF044",
"'. c #D9C97F",
"]. c #D7BF8D",
"[. c #D4BF90",
"{. c #CFC296",
"}. c #EEDC88",
"|. c #E2CC99",
" X c #EEDDA8",
".X c #F0E2AB",
"XX c None",
/* pixels */
"XXXXXXXXXXXXXXXXXXXXXXXXXXXXXXXXXXXXXXXXXXXXXXXXXXXXXXXXXXXXXXXXXXXXXXXXXXXXXXXXXXXXXXXXXXXXXXXXXXXX",
"XXXXXXXXXXXXXXXXXXXXXXXXXXXXXXXXXXXXXXXXXXXXXXXXXXXXXXXXXXXXXXXXXXXXXXXXXXXXXXXXXXXXXXXXXXXXXXXXXXXX",
"XXXXXXXXXXXXXXXXXXXXXXXXXXXXXXXXXXXXXXXXXXXXXXXXXXXXXXXXXXXXXXXXXXXXXXXXXXXXXXXXXXXXXXXXXXXXXXXXXXXX",
"XXXXXXXXXXXXXXXXXXXXXXXXXXXXXXXXXXXXXXXXXXXXXXXXXXXXXXXXXXXXXXXXXXXXXXXXXXXXXXXXXXXXXXXXXXXXXXXXXXXX",
"XXXXXXXXXXXXXXXXXXXXXXXXXXXXXXXXXXXXXXXXXXXXXXXXXXXXXXXXXXXXXXXXXXXXXXXXXXXXXXXXXXXXXXXXXXXXXXXXXXXX",
"XXXXXXXXXXXXXXXXXXXXXXXXXXXXXXXXXXXXXXXXXXXX. * 3 &   XXXXXXXXXXXXXXXXXXXXXXXXXXXXXXXXXXXXXXXXXXXXXX",
"XXXXXXXXXXXXXXXXXXXXXXXXXXXXXXXXXXXXXXXXXXXX  q -...0 O   XXXXXXXXXXXXXXXXXXXXXXXXXXXXXXXXXXXXXXXXXX",
"XXXXXXXXXXXXXXXXXXXXXXXXXXXXXXXXXXXXXXXXXXXX  @  .:.6.] X XXXXXXXXXXXXXXXXXXXXXXXXXXXXXXXXXXXXXXXXXX",
"XXXXXXXXXXXXXXXXXXXXXXXXXXXXXXXXXXXXXXXXXXX ;   0 ;.;.6.$.* XXXXXXXXXXXXXXXXXXXXXXXXXXXXXXXXXXXXXXXX",
"XXXXXXXXXXXXXXXXXXXXXXXXXXXXXXXXXXXXXXXX  ; S M 1 X.;.;.t.!   XXXXXXXXXXXXXXXXXXXXXXXXXXXXXXXXXXXXXX",
"XXXXXXXXXXXXXXXXXXXXXXXXXXXX# # XXXXXXXX  z F F C H #.;.1.5.1 XXXXXXXXXXXXXXXXXXXXXXXXXXXXXXXXXXXXXX",
"XXXXXXXXXXXXXXXXXXXXXXXXXXXXp i.4 XXXXX & X V H #.=.;.;.;.y.4.& XXXXXXXXXXXXXXXXXXXXXXXXXXXXXXXXXXXX",
"XXXXXXXXXXXXXXXXXXXXXXXXXXXX% d.k.X   g D c M o.;.;.;.;.1.R.S.0 XXXXXX@ P % XXXXXXXXXXXXXXXXXXXXXXXX",
"XXXXXXXXXXXXXXXXXXXXXXXXXXXX# s.b.x.@ g F D S H -.;.t.r.y.R.y.m XXXX+ L N.i XXXXXXXXXXXXXXXXXXXXXXXX",
"XXXXXXXXXXXXXXXXXXXXXXXXXXXX@ Y n.E.W : D F F F O.*.<.6.1.6.:.0   # U b.c.4 XXXXXXXXXXXXXXXXXXXXXXXX",
"XXXXXXXXXXXXXXXXXXXXXXXXXXXXXXJ p.b.Z.W S H H G G O.;.;.:.t.1.0 $ Y j.M.i XXXXXXXXXXXXXXXXXXXXXXXXXX",
"XXXXXXXXXXXXXXXXXXXXXXXXXXXXXX$ T v.z.Q F H *.#.@.;.;.;.;.6.0.b R a.v.[ XXXXXXXXXXXXXXXXXXXXXXXXXXXX",
"XXXXXXXXXXXXXXXXXXXXXXXXXXXXXX@ J L t C F F H =.;.;.;.:.;.-.) / T n.l.# XXXXXXXXXXXXXXXXXXXXXXXXXXXX",
"XXXXXXXXXXXXXXXXXXXXXXXXXXXXXX    ; x F F D F H H @.*.-.;.o.F b Y z.i XXXXXXXXXXXXXXXXXXXXXXG.XXXXXX",
"XXXXXXXXXXXXXXXXXXXXXXXXXXXXXX& v D F F F F _ #.O.O.O.@.-.=.O.G > # XXXXXXXXXXXXXXXXXXXXXXXXG.XXXXXX",
"XXXXXXXXXXXXXXXXXXXXXXXXXXXXXXc F F D F H H H -.;.;.;.;.;.;.,.r.e.! XXXXXXXXXXXXXXXXXXXXXXXXXXXXXXXX",
"XXXXXXXXXXXXXXXXXXXXXXXXXXXXXX1 F F F F +.=.O.#.;.<.w.w.,.:.w.r.R.$.  XXXXXXXXXXXXXXXXXXXXXXXXXXXXXX",
"XXXXXXXXXXXXXXXXXXXXXXXXXXXXXX@ B F D D o.;.;.;.;.w.y.y.,.,.<.,.t.]   XXXXXXXXXXXXXXXXXXXXXXXXXXXXXX",
"XXXXXXXXXXXXXXXXXX  e u @ XXXX  & V F F F O.;.=.-.;.<.,.;.;.;.;.%.1 XXXXXXXXXXXXXXXXXXXXXXXXXXXXXXXX",
"XXXXXXXXXXXXXXXX  e d.h.p   XXXX  & V F F F _ H H *.-.-.-.-.;.+.1 XXXXXXXXXXXXXXXXXXXXXXXXXXXXXXXXXX",
"XXXXXXXXXXXXXXXX+ i.h.h.u.o XXXX  g h M D F F D F H H H H H S g X XXXXXXXXXXXXXXXXXXXXXXXXXXXXXXXXXX",
"XXXXXXXXXXXXXXXX+ i.j.j.u.  XXXX  x S C F S z h x S D D z ; & .   XXXXXXXXXXXXXXXXXXXXXXXXXXXXXXXXXX",
"XXXXXXXXXXXXXXXX  e P i.y       5 h V F F D v z x x V G Z Z  .0 XXXXXXXXXXXXXXXXXXXXXXXXXXXXXXXXXXXX",
"XXXXXXXXXXXXXXXXXXXX  #   XX    k ' l x D F F F F F _ =.:.:.&.3 XXXXXXXXXXXXXXXXXXXXXXXXXXXXXXG.XXXX",
"XXXXXXXXXXXXXXXXXXXXXXXXXXXXXXg g E ' 5 h V F F F G @.X...Z , & XXXXXXXXXXXXXXXXXXXXXXXXXXXXG.H.XXXX",
"XXXXXXXXXXXXXXXXXXXXXXXXXXXXX B S ; l ' E k h 1 g h ! 6 ( | 6 * XXXXXXXXXXXXXXXXXXXXXXXXXXXXG.G.XXXX",
"XXXXXXXXXXXXXXXXXXXXXXXXXX  ; D F C ; > ~ ' E ~ Q q.F.q.S.| 1 .   XXXXXXXXXXXXXXXXXXXXXXXXXXG.XXXXXX",
"XXXXXXXXXXXXXXXXXXXXXXXXXXXXX g S F D v h ; 1 l l ~ ~ : ; & } 6     XXXXXXXXXXXXXXXXXXXXXXXXXXXXXXXX",
"XXXXXXXXXXXXXXXXXXXXXXXXXXXXXX  ; v D F F D C v v x x B G z : & K U y o XXXXXXXXXXXXXXXXXXXXXXXXXXXX",
"XXXXXXXXXXXXXXXXXXXXXXXXXXXXXXXX    h B F F F F D ) ) _ *.@., K a.j.d.4 XXXXXXXXXXXXXXXXXXXXY.G.XXXX",
"XXXXXXXXXXXXXXXXXXXXXXXXXXXXXXXX      X h B S F D C N #.:.A j a.h.j.N.[ XXXXXXXXXXXXXXXXXX(.I.XXXXXX",
"XXXXXXXXXXXXXXXXXXXXXXXXXXXXXXXXXXX   XX    ; ; : &   , w X j s.j.B.m.4 . XXXXXXXXXXXXXX).^.XXXXXXXX",
"XXXXXXXXXXXXXXXXXXXXXXXXXXXXXXXXXX  XXXXXXXX      XXXX    .   r j.l.# k & XXXXXXXXXXXXXX).^.H.XXXXXX",
"XXXXXXXXXXXXXXXXXXXXXXXXXXXXXXXXXXXXXXXXXXXXXXXXXXXXXXXX      # U p 6 ] Q & XXXXXXXXXXXX).(.L.G.XXXX",
"XXXXXXXXXXXXXXXXXXXXXXXXXXXXXXXXXXXXXXXXXXXXXXXXXXXXXXXXXX    XXXX  5 q.} :   XXXXXXXXXX).).Y.G.XXXX",
"XXXXXXXXXXXXXXXXXXXXXXXXXXXXXXXXXXXXXXXXXXXXXXXXXXXXXXXXXXXXXXXXXXXX@ ] } : : 7   XXXXXXV.T.Q.H.H.XX",
"XXXXXXXXXXXXXXXXXXXXXXXXXXXXXXXXXXXXXXXXXXXXXXXXXXXXXXXXXXXXXXXXXXXXXX> n . | A.@   XXXX9 K.U.H.G.XX",
"XXXXXXXXXXXXXXXXXXXXXXXXXXXXXXXXXXXXXXXXXXXXXXXXXXXXXXXXXXXXXXXXXXXXXX  7 - F.3.5 X XXXX( G.G.G.G.XX",
"XXXXXXXXXXXXXXXXXXXXXXXXXXXXXXXXXXXXXXXXXXXXXXXXXXXXXXXXXXXXXXXXXXXXXX  | { {.{.D.@ O ^ 8.G.I.H.G.XX",
"XXXXXXXXXXXXXXXXXXXXXXXXXXXXXXXXXXXXXXXXXXXXXXXXXXXXXXXXXXXXXXXXXXXXXX  { {..X.X'.f C.J.H.P.(.Y.G.XX",
"XXXXXXXXXXXXXXXXXXXXXXXXXXXXXXXXXXXXXXXXXXXXXXXXXXXXXXXXXXXXXXXXXXXXXXXX: A.|.}._.).).^.^.(.(.P.G.XX",
"XXXXXXXXXXXXXXXXXXXXXXXXXXXXXXXXXXXXXXXXXXXXXXXXXXXXXXXXXXXXXXXXXXXXXXXXXX@ 3.~.).).).).).).^.H.XXXX",
"XXXXXXXXXXXXXXXXXXXXXXXXXXXXXXXXXXXXXXXXXXXXXXXXXXXXXXXXXXXXXXXXXXXXXXXXXXXX7 W.).).).).).(.P.2.XXXX",
"XXXXXXXXXXXXXXXXXXXXXXXXXXXXXXXXXXXXXXXXXXXXXXXXXXXXXXXXXXXXXXXXXXXXXXXXXXXXXXd !.`.).).(.Y.8.7 XXXX",
"XXXXXXXXXXXXXXXXXXXXXXXXXXXXXXXXXXXXXXXXXXXXXXXXXXXXXXXXXXXXXXXXXXXXXXXXXXXXXX  d W.`.^.U.9.! XXXXXX"
};
