/* XPM */
static char *result[] = {
/* columns rows colors chars-per-pixel */
"50 50 196 2 ",
"   c #11162C",
".  c #151B2D",
"X  c #1A1D2F",
"o  c #1C1E31",
"O  c #17232F",
"+  c #19232F",
"@  c #1C2332",
"#  c #192C31",
"$  c #172030",
"%  c #1A3233",
"&  c #1C3A35",
"*  c #1D3238",
"=  c #232334",
"-  c #2A2537",
";  c #2C243A",
":  c #242D3A",
">  c #2C2C39",
",  c #292B36",
"<  c #342B36",
"1  c #31263C",
"2  c #342B3D",
"3  c #392938",
"4  c #2C3C37",
"5  c #21353D",
"6  c #36333D",
"7  c #39363E",
"8  c #422B38",
"9  c #4A2E3A",
"0  c #423639",
"q  c #4C3E3B",
"w  c #56363D",
"e  c #60353F",
"r  c #1F4337",
"t  c #28433A",
"y  c #214C39",
"u  c #3C4838",
"i  c #23563B",
"p  c #3A563D",
"a  c #25643E",
"s  c #595337",
"d  c #53433C",
"f  c #716C37",
"g  c #3B2B42",
"h  c #263F43",
"j  c #3A3542",
"k  c #3E3941",
"l  c #422D45",
"z  c #472F48",
"x  c #492F4A",
"c  c #4C314B",
"v  c #433943",
"b  c #51334E",
"n  c #583848",
"m  c #563551",
"M  c #593653",
"N  c #5D3954",
"B  c #63384C",
"V  c #693B46",
"C  c #623A56",
"Z  c #663C59",
"A  c #693D5B",
"S  c #693C56",
"D  c #713F5A",
"F  c #2B464B",
"G  c #2E5350",
"H  c #2C5A4B",
"J  c #276D41",
"K  c #2C7C44",
"L  c #396A5D",
"P  c #336A4E",
"I  c #4A4446",
"U  c #4C4648",
"Y  c #5A4343",
"T  c #50454A",
"R  c #574B4D",
"E  c #5E554E",
"W  c #5B4E51",
"Q  c #5F5251",
"!  c #48525C",
"~  c #6C4E4D",
"^  c #7F4147",
"/  c #67544F",
"(  c #765A44",
")  c #74415A",
"_  c #7C4359",
"`  c #645554",
"'  c #6B5D56",
"]  c #705F58",
"[  c #604555",
"{  c #4A7345",
"}  c #73655B",
"|  c #8C454B",
" . c #844349",
".. c #96494D",
"X. c #824559",
"o. c #8A4758",
"O. c #8E4858",
"+. c #8F4857",
"@. c #934A57",
"#. c #9A4C56",
"$. c #865E57",
"%. c #835F49",
"&. c #A44F55",
"*. c #A65157",
"=. c #AC5155",
"-. c #AF5A5A",
";. c #B65554",
":. c #B95655",
">. c #B75957",
",. c #B85957",
"<. c #B95C59",
"1. c #B35B58",
"2. c #957747",
"3. c #806E5F",
"4. c #88624A",
"5. c #BA635C",
"6. c #BC685F",
"7. c #B6645D",
"8. c #A97752",
"9. c #B47C56",
"0. c #8C7864",
"q. c #917B66",
"w. c #BC6A61",
"e. c #B06C61",
"r. c #BF7164",
"t. c #B17667",
"y. c #AD7565",
"u. c #C06C61",
"i. c #C07466",
"p. c #C37C6A",
"a. c #2E8646",
"s. c #318D48",
"d. c #319249",
"f. c #3C944B",
"g. c #348652",
"h. c #3A9B59",
"j. c #36A84E",
"k. c #3BA553",
"l. c #38B451",
"z. c #3D8262",
"x. c #57954F",
"c. c #60864C",
"v. c #4CB556",
"b. c #4CB158",
"n. c #76AB56",
"m. c #73A054",
"M. c #69B055",
"N. c #5BC358",
"B. c #68C75A",
"V. c #7DCA5C",
"C. c #888238",
"Z. c #E1D23F",
"A. c #B9954B",
"S. c #B98156",
"D. c #A89045",
"F. c #9A846A",
"G. c #A89675",
"H. c #B29E7A",
"J. c #CC8C5C",
"K. c #C08359",
"L. c #D4925D",
"P. c #D9935F",
"I. c #DC9B5C",
"U. c #D79B5A",
"Y. c #D6B54B",
"T. c #DEA25A",
"R. c #DCA955",
"E. c #E3AC57",
"W. c #E1A659",
"Q. c #E2A958",
"!. c #E6B455",
"~. c #E8B456",
"^. c #EABC52",
"/. c #C4836E",
"(. c #C5B760",
"). c #EEC64F",
"_. c #EFC94E",
"`. c #E7C94A",
"'. c #F1CD4D",
"]. c #EDD944",
"[. c #F5D54A",
"{. c #F7DA49",
"}. c #F8DE48",
"|. c #EDC450",
" X c #F2CB50",
".X c #E5D35C",
"XX c #FBE446",
"oX c #FFED44",
"OX c #F7E047",
"+X c #FFF144",
"@X c #FAEA5D",
"#X c #ADA181",
"$X c #C2AD83",
"%X c #EDDD9E",
"&X c #F3E29A",
"*X c None",
/* pixels */
"*X*X*X*X*X*X*X*X*X*X*X*X*X*X*X*X*X*X*X*X*X*X*X*X*X*X*X*X*X*X*X*X*X*X*X*X*X*X*X*X*X*X*X*X*X*X*X*X*X*X",
"*X*X*X*X*X*X*X*X*X*X*X*X*X*X*X*X*X*X*X*X*X*X*X*X*X*X*X*XoXoXoXoXoXoXoXoXoX*X*X*X*X*X*X*X*X*X*X*X*X*X",
"*X*X*X*X*X*X*X*X*X*X*X*X*X*X*X*X*X*X*X*X*X*X*X{.}.}.}.XXoXoXoXoXoXoXoX*X*X*X*X*X*X*X*X*X*X*X*X*X*X*X",
"*X*X*X*X*X*X*X*X*X*X*X*X*X*X*X*X*X*X*X*X*X*X*XI.I.I.I.^.oXoXoXXX}.XX}.}.}.oXoXXX*X*X*X*X*X*X*X*X*X*X",
"*X*X*X*X*X*X*X*X*X*X*X*X*X*XoXoXoXoXoX*X*XP.P.I.!.E.I._.}.{.^.T.I.I.I.I.I.E.^.E.I.T.I.P.*X*X*X*X*X*X",
"*X*X*X*X*X*X*X*X*X*X*X*X*XoXoXoXoXoX*XP.P.W.'.XXoX{.}.^.T.I.P.P.P.P.P.P.P.P.P.P.I.~.).). X*X*X*X*X*X",
"*X*X*X*X*X*X*X*X*X*X*XoXoXoXoXoXoX^.I.P.E.{.XX^._.+X+XOX^.P.P.P.P.P.P.P.P.P.P.P.P.P.T.|.XXoXoX*X*X*X",
"*X*X*X*X*X*X*X*X*X*XoXoXoXoXoXoX{.^.P.E.XX[.I.W.{.{.!.I.I.P.P.P.P.P.P.P.P.P.P.I.P.P.P.P.I.~.[.XXoX+X",
"*X*X*X*X*X*X*X*X*XoXoXoXoXoX[.XXoX~.P.R.E.I.P.U.!.U.P.P.P.P.P.P.P.P.P.P.P.P.P.P.P.P.P.P.P.I.W.E.{.oX",
"*X*X*X*X*X*X*X*XoXoXoXoXXX|.}.{.E.E.I.P.J.8.( 9.P.P.P.P.P.P.P.P.*X*X*XP.P.P.P.P.P.P.P.P.P.^.XX_.^.XX",
"*X*X*X*X*X*X*XoXoXoXoX}.!.E.|.T.!.E.P.4.n = *XP.P.*X*X*X*X*X*X*X*X*X*X*X*X*X*X*X*X*XP.P.P.I._.XXXX}.",
"*X*X*X*X*X*XoXoXoXoXXXW.P.I.^.'.E.J.%.= *X*X*X*X*X*X*X*X*X*X*X*X*X*X*X*X*X*X*X*X*X*X*X*X*XP.P.W.'.|.",
"*X*X*X*X*XoXoXoXoXoX[.I.~.}.oX{.S.Y *X*X*X*X*X*X*X*X*X*X*X*X*X*X*XX . o < 8 9 3 X *X*X*X*X*XP.P.P.P.",
"*X*X*X*XY.oXoXoXoX{.T.^.oXoXoXA.< *X*X*X*X*X*X*X*X*X*X*X*X*X*XX - c n | &.5.7.V X *X*X*X*X*X*X*XP.P.",
"*X*X*Xs ].oXoXoXoX).|.oXoXoXY.d *X*X*X*X*X*X*X*X*X*X*X*X*X*X= z C ) *.r.i.t.~ = *X*X*X*X*X*X*X*X*X*X",
"*X*Xo D.oXoXoXoXoXXXoXoXoX}.U.K.I.*X*X*X*X*X*X*X*X*X*X*X*X1 C A ) #.;.5.7.~ = *X*X*X*X*X*X*X*X*X*X*X",
"*X*Xq `.oXoXoXoXoXoXoXoXXXE.S.J.*X*X*X*X*X*X*X*X*X*X*X*X= M A A _ &.;.;.r./.$.= *X*XO r J a.& *X*X*X",
"*X*X( XXoXoXoXoXoXoXoXoX|.9.q *X*X*X*X*X*X*X*X*X*XX *X. l A A +.;.:.,.6./.p.7.< X @ J j.B.x.@ *X*X*X",
"*X< A.oXoXoXoXoXoXoXXXOX2.0 *X*X*X*X*X*X*X*X*X*Xt p . o N A Z #.;.<.6.r.r.5.;.e @ L k.B.n.4 *X*X*X*X",
"*Xq R.oXoXoXoXoXoXoX].f = *X*X*X*X*X*X*X*X*X*XO f.{ . ; Z A Z D O.#.=.;.,.w.5.B F z.v.n.4 *X*X*X*X*X",
"*X0 R.oXoXoXoXoXoXoXC.  *X*X*X*X*X*X*X*X*X*X*X* k.M.4 ; Z A Z Z Z _ *.;.;.,.w.) ! L b.H *X*X*X*X*X*X",
"*X0 L.}.+XoXoXoXoXZ.u + X *X*X*X*X*X*X*X*X*X*XF h.B.c.: M A _ o.+.=.;.;.;.;.*.A j G P O *X*X*X*X*X*X",
"*X@ 8.{.oXoXoXoXoX(.G.0.X . *X*X*X*X*X*X*X*X*X: L b.V.m.[ A X.*.;.:.;.;.;.;.@.A [ g : X *X*X*X*X*X*X",
"*X. (  XoXoXoX+X@X&X#Xd . @ @ *X*X*X*X*X*X*X*X. h z.v.x.N A A A X.@.@.+.#.&.=.*.-.t.y.Y . *X*X*X*X*X",
"*X*X< 2.OX+XoX.X&X#X7 @ j ` W j X % a & *X*X*X*X@ G g.h N A A Z X.D D +.=.=.;.:.i.i.p.4.. *X*X*X*X*X",
"*X*X*Xo s C.f I H.H.0.4 T 0.0.W + r d.g.5 *X*X*X*X@ @ z A A Z A @.;.;.:.<.<.5.5.w.,.1.n *X*X*X*X*X*X",
"*X*X*X*X*X*X*X*X, } I . > T T > a s.r F 5 . . *X*X; m Z A A X.o.D #.;.w.p.r.w.;.;.:. .X *X*X*X*X*X*X",
"*X*X*X*X*X*X*X*X*X*X*X*X*X*X  % j.l.s.* @ > = o . g N Z Z A X.=.;.;.=.;.:.:.;.;.*.o.l . *X*X*X*X*X*X",
"*X*X*X*X*X*X*X*X*X*X*X*X*X*X*X# a.l.l.J 6 ` R @ . . g C A A Z X.=.=.D #.=.=.@.o.A z - X *X*X*X*X*X*X",
"*X*X*X*X*X*X*X*X*X*X*X*X*X*X*X*X# a d.y o = @ *X*X*X. g Z A A A D _ D D A A A x 1 3 ..9 *X*X*X*X*X*X",
"*X*X*X*X*X*X*X*X*X*X*X*X*X*X*X*X*X*X*X*X*X*X*X*X*X*X*Xo x m M Z A A A M M M C c n &.;...= *X*X*X*X*X",
"*X*X*X*X*X*X*X*X*X*X*X*X*X*X*X*X*X*X*X*X*X*X*X*X*X*X*X*Xo ; ; g N x 1 = ; 2 M A A #.;.;.w *X*X*X*X*X",
"*X*X*X*X*X*X*X*X*X*X*X*X*X*X*X*X*X*X*X*X*X*X*X*X*X*X*X*XX c Z Z A M x M Z Z A Z A #.:.:. .+ *X*X*X*X",
"*X*X*X*X*X*X*X*X*X*X*X*X*X*X*X*X*X*X*X*X*X*X*X*X. *X*X. , T j x m m Z A A A A A D #...w < , *X*X*X*X",
"*X*X*X*X*X*X*X*X*X*X*X*X*X*X*X*X*X*X*X*X*X*X*X# i r X . = Q ` v j 2 g ; g b m b 3 n v ` } / *X*X*X*X",
"*X*X*X*X*X*X*X*X*X*X*X*X*X*X*X*X*X*X*X*X*X*XX K l.j.i . o ; 6 ` ' ` ] ` R I > v q.F.q.F.' 6 . *X*X*X",
"*X*X*X*X*X*X*X*X*X*X*X*X*X*X*X*X*X*X*X*X*X*XO d.l.l.a.X ; m c g ; > j j U ] W ' F.' ; ; 2 B < *X*X*X",
"*X*X*X*X*X*X*X*X*X*X*X*X*X*X*X*X*X*X*X*X*X*XX K l.a.% *Xo b A A C c c z ; 1 ; ; 2 c m Z D *...9 . *X",
"*X*X*X*X*X*X*X*X*X*X*X*X*X*X*X*X*X*X*X*X*X*X. # r % *X*X. = 1 c c N A Z A A A Z A A _ #.&.=.| 9 *X*X",
"*X*X*X*X*X*X*X*X*X*X*X*X*X*X*X*X*X*X*X*X*X*X*X*X*X*X*X*X*X*X. . o ; ; ; l m Z Z M c V V 9 3 X *X*X*X",
"*X*X*X*X*X*X*X*X*X*X*X*X*X*X*X*X*X*X*X*X*X*X*X*X*X*X*X*X*XX O *X*X*X*X. . o ; ; = . X . . *X*X*X*X*X",
"*X*X*X*X*X*X*X*X*X*X*X*X*X*X*X*X*X*X*X*X*X*X*X*X*X*X*X*X*XX O *X*X*X*X*X*X*X*X*X*X*X. X . . *X*X*X*X",
"*X*X*X*X*X*X*X*X*X*X*X*X*X*X*X*X*X*X*X*X*X*X*X*X*X*X*X*X*X*X*X*X*X*X*X*X*X*X*X*X*X*X*X*X. X *X*X*X*X",
"*X*X*X*X*X*X*X*X*X*X*X*X*X*X*X*X*X*X*X*X*X*X*X*X*X*X*X*X*X*X*X*X*X*X*X*X*X*X*X*X*X*X*X*X. . X *X*X*X",
"*X*X*X*X*X*X*X*X*X*X*X*X*X*X*X*X*X*X*X*X*X*X*X*X*X*X*X*X*X*X*X*X*X*X*X*X*X*X*X*X*X*X*X*X*X*X*X*X*X*X",
"*X*X*X*X*X*X*X*X*X*X*X*X*X*X*X*X*X*X*X*X*X*X*X*X*X*X*X*X*X*X*X*X*X*X*X*X*X*X*X*X*X*X*X*X*X*X*X*X*X*X",
"*X*X*X*X*X*X*X*X*X*X*X*X*X*X*X*X*X*X*X*X*X*X*X*X*X*X*X*X*X*X*X*X*X*X*X*X*X*X*X*X*X*X*X*X*X*X*X*X*X*X",
"*X*X*X*X*X*X*X*X*X*X*X*X*X*X*X*X*X*X*X*X*X*X*X*X*X*X*X*X*X*X*X*X*X*X*X*X*X*X*X*X*X*X*X*X*X*X*X*X*X*X",
"*X*X*X*X*X*X*X*X*X*X*X*X*X*X*X*X*X*X*X*X*X*X*X*X*X*X*X*X*X*X*X*X*X*X*X*X*X*X*X*X*X*X*X*X*X*X*X*X*X*X",
"*X*X*X*X*X*X*X*X*X*X*X*X*X*X*X*X*X*X*X*X*X*X*X*X*X*X*X*X*X*X*X*X*X*X*X*X*X*X*X*X*X*X*X*X*X*X*X*X*X*X"
};
