/* XPM */
static char *result[] = {
/* columns rows colors chars-per-pixel */
"50 50 192 2 ",
"   c #151B2D",
".  c #191D2F",
"X  c #14172C",
"o  c #171F30",
"O  c #1B1E31",
"+  c #0D142B",
"@  c #211F31",
"#  c #17222F",
"$  c #1A212F",
"%  c #1B2331",
"&  c #1C2B33",
"*  c #1E2C3A",
"=  c #1B3333",
"-  c #35382F",
";  c #242335",
":  c #2A2534",
">  c #232A33",
",  c #2C243A",
"<  c #2D2B39",
"1  c #33273D",
"2  c #342C3D",
"3  c #352936",
"4  c #243737",
"5  c #363931",
"6  c #34323C",
"7  c #3B343D",
"8  c #3C3B37",
"9  c #422B38",
"0  c #46373F",
"q  c #4B313B",
"w  c #5B343E",
"e  c #1F4337",
"r  c #214D39",
"t  c #2F4038",
"y  c #374B3B",
"u  c #25593D",
"i  c #3B513D",
"p  c #26643E",
"a  c #5E5D34",
"s  c #514738",
"d  c #3B2C42",
"f  c #273944",
"g  c #3D3941",
"h  c #3D3442",
"j  c #432D47",
"k  c #462F49",
"l  c #4C314B",
"z  c #453C43",
"x  c #52334E",
"c  c #5B364D",
"v  c #443E50",
"b  c #563551",
"n  c #5B3753",
"m  c #5D3855",
"M  c #523851",
"N  c #683A49",
"B  c #793F46",
"V  c #613A57",
"C  c #653B59",
"Z  c #6A3D5B",
"A  c #703F5A",
"S  c #294549",
"D  c #2E4B4E",
"F  c #2A5348",
"G  c #315452",
"H  c #2A6944",
"J  c #37605B",
"K  c #3A7A5D",
"L  c #2A7442",
"P  c #3D7462",
"I  c #464044",
"U  c #4B4546",
"Y  c #4D4348",
"T  c #4B4848",
"R  c #554B4C",
"E  c #51474A",
"W  c #57514B",
"Q  c #5E5251",
"!  c #664B4B",
"~  c #7B4046",
"^  c #75415A",
"/  c #7C4259",
"(  c #754056",
")  c #615351",
"_  c #6A5A56",
"`  c #765151",
"'  c #6C6154",
"]  c #776859",
"[  c #417367",
"{  c #7B7362",
"}  c #83494C",
"|  c #95494D",
" . c #9A4A4D",
".. c #854558",
"X. c #8B4758",
"o. c #8C4959",
"O. c #8A4651",
"+. c #944A57",
"@. c #9C4D56",
"#. c #944A58",
"$. c #9D545B",
"%. c #A34F56",
"&. c #AD5255",
"*. c #A85557",
"=. c #B55454",
"-. c #B75957",
";. c #B85A57",
":. c #B95D5A",
">. c #B85756",
",. c #94694E",
"<. c #9E714F",
"1. c #81725E",
"2. c #98665C",
"3. c #A77C4E",
"4. c #BB655E",
"5. c #BC685F",
"6. c #836F60",
"7. c #8B7365",
"8. c #897B65",
"9. c #987F6A",
"0. c #A16E61",
"q. c #BD6D62",
"w. c #BF7164",
"e. c #BB7B69",
"r. c #A97364",
"t. c #C06D62",
"y. c #C27B6A",
"u. c #C07365",
"i. c #2D8446",
"p. c #2E8847",
"a. c #31974A",
"s. c #398C59",
"d. c #3A9958",
"f. c #36A54E",
"g. c #3AAA54",
"h. c #38AA53",
"j. c #3AB452",
"k. c #3EB852",
"l. c #428B4A",
"z. c #468548",
"x. c #5C954E",
"c. c #419A5C",
"v. c #5B8B4C",
"b. c #66914E",
"n. c #689F52",
"m. c #44A655",
"M. c #48B555",
"N. c #5CBC57",
"B. c #6EA954",
"V. c #6DC75B",
"C. c #75CA5C",
"Z. c #9F933D",
"A. c #8A8439",
"S. c #D6C93F",
"D. c #BB9F47",
"F. c #85BE5B",
"G. c #98866B",
"H. c #A38F6F",
"J. c #B09874",
"K. c #D9935F",
"L. c #DC9C5C",
"P. c #D7905F",
"I. c #C38659",
"U. c #D0AC4C",
"Y. c #DFA35A",
"T. c #DFA956",
"R. c #C5B450",
"E. c #E4AE57",
"W. c #E0A659",
"Q. c #E2AA58",
"!. c #E7B555",
"~. c #ECBE53",
"^. c #C8846E",
"/. c #C7B175",
"(. c #D4C840",
"). c #EEC64F",
"_. c #EDCA4C",
"`. c #E2D441",
"'. c #F6D94A",
"]. c #F9DC49",
"[. c #F3D14C",
"{. c #FBE546",
"}. c #FFED43",
"|. c #FFF044",
" X c #F4DE60",
".X c #F2E074",
"XX c #C5AB80",
"oX c #D3C496",
"OX c #E0CC9B",
"+X c #EEDF9E",
"@X c #EDDBA6",
"#X c None",
/* pixels */
"#X#X#X#X#X#X#X#X#X#X#X#X#X#X#X#X#X#X#X#X#X#X#X#X#X#X#X#X#X#X#X#X#X#X#X#X#X#X#X#X#X#X#X#X#X#X#X#X#X#X",
"#X#X#X#X#X#X#X#X#X#X#X#X#X#X#X#X#X#X#X#X#X#X#X#X#X#X#X#X#X#X#X#X#X#X#X#X#X#X#X#X#X#X#X#X#X#X#X#X#X#X",
"#X#X#X#X#X#X#X#X#X#X#X#X#X#X#X#X#X#X#X#X#X#X#X#X#X#X#X#X#X#X#X#X#X#X#X#X#X#X#X#X#X#X#X#X#X#X#X#X#X#X",
"#X#X#X#X#X#X#X#X#X#X#X#X#X#X#X#X#X#X#X#X#X#X#X#X#X#X#X#X#X#X#X#X#X#X#X#X#X#X#X#X#X#X#X#X#X#X#X#X#X#X",
"#X#X#X#X#X#X#X#X#X#X#X#X#X#X#X#X#X#X#X#X#X#X#X#X#X#X#X#X#X#X#X#X#X#X#X#X#X#X#X#X#X#X#X#X#X#X#X#X#X#X",
"#X#X#X#X#X#X#X#X#X#X#X#X#X#X#X#X#X#X#X#X#X#X#X#X#X#X#X#X#X#X#X#X#X#X#X#X#X#X#X#X#X#X#X#X#X#X#X#X#X#X",
"#X#X#X#X#X#X#X#X#X#X#X#X#X#X#X#X#X#X#X#X#X#X#X#X#X#X#X#X#X#X#X#X#X#X#X#X#X#X#X#X#X#X#X#X#X#X#X#X#X#X",
"#X#X#X#X#X#X#X#X#X#X#X#X#X#X#X#X#X#X#X#X#X#X#X#X#X#X#X#X#X#X#X#X#X#X#X#X#X#X#X#X|.'.#X#X#X#X#X#X#X#X",
"#X#X#X#X#X#X#X#X#X#X#X#X#X#X#X#X#X#X#X#X#X#X#X#X#X#X#X#X#X#X#X#X#X#X#X#X#X#XK.Y.!.E.K.K.#X#X#X#X#X#X",
"#X#X#X#X#X#X#X#X#X#X#X#X#X#X#X#X#X#X.     #X#X#X#X#X#X#X#X#X#X#X#X#X#X#X#X#X#XK.P.K.K.#X#X#X#X#X#X#X",
"#X#X#X#X#X#X#X#X#X#X#X#X#X#X#X#X#X. w } B 3 . #X#X#X#X#X#X#X#X#X#X#XK.K.).{.'.[.E.K.P.#X#X#X#X#X#X#X",
"#X#X#X#X#X#X#X#X#X#X#X#X#X#X#X#X#X  : | -.-.` ;   #X#X#X#X#X#XK.K.K.K.K.W.E.~.'.{.E.Y.L.K.#X#X#X#X#X",
"#X#X#X#X#X#X#X#X#X#X#X#X#X#X#X#X#X    q =.=.4.2.7 #X#X#X#X#X#X#X#X#X#X#X#X#XK.L.W.L._.'.W.K.#X#X#X#X",
"#X#X#X#X#X#X#X#X#X#X#X#X#X#X#X#X  j k ; B =.=.t.0.; #X#X#X#X#X#X#X#X#X#X#X#X#X#XK.P.E.}.].Y.#X#X#X#X",
"#X#X#X#X#X#X#X#X#X#X#X#X#X#X#X#X; V Z n c +.&.-.5.!   #X#X#X#X#X#X#X#X#X#X#X#X#XK.K.W.{.}.).K.#X#X#X",
"#X#X#X#X#X#X#X#X#X% r % #X#X#X    l Z A ..%.=.>.:.y.! #X#X#X#X#X#X#X#X#X#X#X#X#X#XI.L.{.}.{.Y.#X#X#X",
"#X#X#X#X#X#X#X#X#X# p.l.4 #X#X, d ; x X.=.=.>.-.q.^.r.< #X#X  e z.4 #X#X#X#X#X#X#X,.!.}.}.}.!.#X#X#X",
"#X#X#X#X#X#X#X#X#X  u j.x.y . l Z m m ..=.-.u.u.y.u.q.q X # u m.v.& #X#X#X#X#X#X#X,.~.}.}.}.[.K.#X#X",
"#X#X#X#X#X#X#X#X#X#X* K N.F.4 j Z Z Z Z ..%.-.:.4.:.=.9   F h.V.i #X#X#X#X#X#X#X8 U.{.}.}.}.'.W.#X#X",
"#X#X#X#X#X#X#X#X#X#Xo G m.C.b.g C A A Z Z +.=.=.=.q.$.1 S s.M.x.> #X#X#X#X#X#X#XA.}.}.}.}.}.].D.#X#X",
"#X#X#X#X#X#X#X#X#X#X#Xf P M.B.Q Z A %.@.@.=.>.=.=.:.o.v P g.N.S #X#X#X#X#X#X#X5 (.}.}.}.}.}.].3.#X#X",
"#X#X#X#X#X#X#X#X#X#X#X  S s.F n Z Z / @.&.=.=.>.=.&./ M G m.z.: #X#X#X#X#X#X#X5 `.}.}.}.}.}.].<.#X#X",
"#X#X#X#X#X#X#X#X#X#X#X#Xo & d Z Z Z Z Z A ..#.%.=.#.Z m 4 F > #X#X#X#X#X#X#X#X8 `.}.}.}.}.}._.s #X#X",
"#X#X#X#X#X#X#X#X#X#X#X. d b V Z Z C Z #.X.X.X.#.*.&.&.*.` 0 . #X#X#X#X#X#X#X#X5 S.}.}.}.}.}.Z.; #X#X",
"#X#X#X#X#X#X#X#X#X#X#X; V Z Z C Z / Z @.=.>.=.=.=.=.:.q.^.e.0 #X#X#X#X#X#X#X  T /. X|.|.|.`.s #X#X#X",
"#X#X#X#X#X#X#X#X#X#X#X. x Z Z C A &.@.@.=.>.5.q.q.=.q.t.q.e.z #X#X#X#X#X#X#XI /.+X+X.XR.S.a + #X#X#X",
"#X#X#X#X#X#X#X#X#X#X#X#X; n Z Z Z X.=.=.=.=.:.4.:.=.>.>.-.} @ #X#X#X#X#X#X  { G.oX@XOXW a #X#X#X#X#X",
"#X#X#X#X#X#X#X#X#X#X#X#X  , n Z Z Z ..%.A @.=.=.=.&.&.%.N @ #X#X#X#X#X#X#X  W T 8.oXH.7 + #X#X#X#X#X",
"#X#X#X#X#X#X#X#X  # = #X#X  , M V Z Z Z Z Z ..X.O./ Z c % o #X#X#X#X#X#X#X@ > O { J.> $ #X#X#X#X#X#X",
"#X#X#X#X#X#X#X  # i.f.p O @ j l c V V n n m Z C C l 1 . @ o #X#X#X#X#X#X; ) R O T ' . #X#X#X#X#X#X#X",
"#X#X#X#X#X#X#X  L j.k.p.% O n Z Z Z m 1 : 1 j V Z A O.~ c #X#X#X#X#X#X#Xd 7._ >   .   #X#X#X#X#X#X#X",
"#X#X#X#X#X#X#X# a.j.j.e : z 2 b Z Z Z V C V V A X.&. .| 3 #X#X#X#X& r # Y 7.R $   #X#X#X#X#X#X#X#X#X",
"#X#X#X#X#X#X#X  p h.H #   I Q < 1 l M C Z Z m V w 9 : 7 R 6 #X#X  H d.4 2 E < #X#X#X#X#X#X#X#X#X#X#X",
"#X#X#X#X#X#X#X#X# e %   d 1 2 E Q z d d 1 1 < z _ 8.G.9.] > #X  * K M.n.t . #X#X#X#X#X#X#X#X#X#X#X#X",
"#X#X#X#X#X#X#X#X#X#X#X; V Z M 2 g U _ R Q E 8./.6.Q R 7 O   #X  D [ h.V.B.; #X#X#X#X#X#X#X#X#X#X#X#X",
"#X#X#X#X#X#X#X#X#X#X#X1 V Z Z V l d , 1 g 6 z R 2 : j x N . #X  f [ d.k.p.% #X#X#X#X#X#X#X#X#X#X#X#X",
"#X#X#X#X#X#X#X#X#X#X#XO , l V Z Z Z C n x x l M Z / / o.&.3   . > S d.a.e #X#X#X#X#X#X#X#X#X#X#X#X#X",
"#X#X#X#X#X#X#X#X#X#X#X#X#X. , 1 x V Z Z Z Z Z C ..=.=.| B 3   E U o e = #X#X#X#X#X#X#X#X#X#X#X#X#X#X",
"#X#X#X#X#X#X#X#X#X#X#X#X        o ; , , l x j , 3 3 9 : X #X#XU 6   #X#X#X#X#X#X#X#X#X#X#X#X#X#X#X#X",
"#X#X#X#X#X#X#X#X#X#X#X#X#X      #X#X            X X   #X#X#X#X    #X#X#X#X#X#X#X#X#X#X#X#X#X#X#X#X#X",
"#X#X#X#X#X#X#X#X#X#X#X#X#X    #X#X#X#X#X#X#X#X#X#X.   . #X#X#X#X#X#X#X#X#X#X#X#X#X#X#X#X#X#X#X#X#X#X",
"#X#X#X#X#X#X#X#X#X#X#X#X#X#X#X#X#X#X#X#X#X#X#X#X#X#X    #X#X#X#X#X#X#X#X#X#X#X#X#X#X#X#X#X#X#X#X#X#X",
"#X#X#X#X#X#X#X#X#X#X#X#X#X#X#X#X#X#X#X#X#X#X#X#X#X#X#X#X#X#X#X#X#X#X#X#X#X#X#X#X#X#X#X#X#X#X#X#X#X#X",
"#X#X#X#X#X#X#X#X#X#X#X#X#X#X#X#X#X#X#X#X#X#X#X#X#X#X#X#X#X#X#X#X#X#X#X#X#X#X#X#X#X#X#X#X#X#X#X#X#X#X",
"#X#X#X#X#X#X#X#X#X#X#X#X#X#X#X#X#X#X#X#X#X#X#X#X#X#X#X#X#X#X#X#X#X#X#X#X#X#X#X#X#X#X#X#X#X#X#X#X#X#X",
"#X#X#X#X#X#X#X#X#X#X#X#X#X#X#X#X#X#X#X#X#X#X#X#X#X#X#X#X#X#X#X#X#X#X#X#X#X#X#X#X#X#X#X#X#X#X#X#X#X#X",
"#X#X#X#X#X#X#X#X#X#X#X#X#X#X#X#X#X#X#X#X#X#X#X#X#X#X#X#X#X#X#X#X#X#X#X#X#X#X#X#X#X#X#X#X#X#X#X#X#X#X",
"#X#X#X#X#X#X#X#X#X#X#X#X#X#X#X#X#X#X#X#X#X#X#X#X#X#X#X#X#X#X#X#X#X#X#X#X#X#X#X#X#X#X#X#X#X#X#X#X#X#X",
"#X#X#X#X#X#X#X#X#X#X#X#X#X#X#X#X#X#X#X#X#X#X#X#X#X#X#X#X#X#X#X#X#X#X#X#X#X#X#X#X#X#X#X#X#X#X#X#X#X#X",
"#X#X#X#X#X#X#X#X#X#X#X#X#X#X#X#X#X#X#X#X#X#X#X#X#X#X#X#X#X#X#X#X#X#X#X#X#X#X#X#X#X#X#X#X#X#X#X#X#X#X"
};
