/* XPM */
static char *result[] = {
/* columns rows colors chars-per-pixel */
"50 50 216 2 ",
"   c #141A2D",
".  c #1A1E2F",
"X  c #1B1F30",
"o  c #1E212F",
"O  c #1D2131",
"+  c #242433",
"@  c #2A2535",
"#  c #2B2A35",
"$  c #2C2C39",
"%  c #332C36",
"&  c #342C3C",
"*  c #3A2D3A",
"=  c #332637",
"-  c #36323A",
";  c #3B333A",
":  c #3A3538",
">  c #472D3B",
",  c #43343C",
"<  c #433A3C",
"1  c #4A3D3D",
"2  c #53323E",
"3  c #5C343F",
"4  c #60353F",
"5  c #4E413D",
"6  c #53443E",
"7  c #59473F",
"8  c #5A483F",
"9  c #3B2B41",
"0  c #352840",
"q  c #3F3541",
"w  c #432D43",
"e  c #462F49",
"r  c #433444",
"t  c #4C3C43",
"y  c #4D334A",
"u  c #473A45",
"i  c #553343",
"p  c #5B3B42",
"a  c #5A354B",
"s  c #533A48",
"d  c #5D3953",
"f  c #653942",
"g  c #6C3A43",
"h  c #683A49",
"j  c #743E46",
"k  c #733E4A",
"l  c #7A3F47",
"z  c #653B55",
"x  c #6C3C54",
"c  c #683C5B",
"v  c #713D53",
"b  c #3F4342",
"n  c #4C4344",
"m  c #4A4745",
"M  c #534342",
"N  c #5A4545",
"B  c #524A44",
"V  c #5C4B44",
"C  c #564B4A",
"Z  c #5A4C4C",
"A  c #544349",
"S  c #5B5246",
"D  c #5D564C",
"F  c #5E5150",
"G  c #4F5249",
"H  c #614C46",
"J  c #67474A",
"K  c #7C414E",
"L  c #794549",
"P  c #6B5445",
"I  c #61534C",
"U  c #6D524C",
"Y  c #64594A",
"T  c #6B5D4B",
"R  c #635546",
"E  c #745946",
"W  c #72534E",
"Q  c #735B4B",
"!  c #7A5C4C",
"~  c #785B47",
"^  c #7C4355",
"/  c #784159",
"(  c #645453",
")  c #6A5555",
"_  c #695C54",
"`  c #7B5552",
"'  c #7E5C51",
"]  c #765F5A",
"[  c #654F52",
"{  c #78664E",
"}  c #6D6452",
"|  c #6F6D57",
" . c #726452",
".. c #7C6C53",
"X. c #72635A",
"o. c #78665D",
"O. c #7C6C5C",
"+. c #756A57",
"@. c #79765B",
"#. c #6C604D",
"$. c #8C454B",
"%. c #85464A",
"&. c #92474C",
"*. c #94484C",
"=. c #994A4D",
"-. c #844558",
";. c #894855",
":. c #9B4C56",
">. c #954B58",
",. c #8A5855",
"<. c #985252",
"1. c #A34E53",
"2. c #A84F51",
"3. c #A55254",
"4. c #AC5254",
"5. c #A8595A",
"6. c #B55455",
"7. c #B85655",
"8. c #B75957",
"9. c #B35B59",
"0. c #B95D59",
"q. c #B85A57",
"w. c #83634B",
"e. c #89664D",
"r. c #8D694D",
"t. c #856D4F",
"y. c #926C4E",
"u. c #9A724F",
"i. c #836151",
"p. c #836E51",
"a. c #8A6058",
"s. c #826D5B",
"d. c #8A6A55",
"f. c #986B58",
"g. c #857354",
"h. c #8E7A56",
"j. c #88775B",
"k. c #9D7352",
"l. c #967955",
"z. c #A9615B",
"x. c #BC645D",
"c. c #B8635D",
"v. c #A57852",
"b. c #A97B53",
"n. c #836C62",
"m. c #886863",
"M. c #8A7365",
"N. c #8D7B64",
"B. c #877364",
"V. c #927469",
"C. c #947B6A",
"Z. c #967D69",
"A. c #9E7E70",
"S. c #9F6C60",
"D. c #BC6C61",
"F. c #AA7364",
"G. c #B17766",
"H. c #BE7365",
"J. c #BC7E6A",
"K. c #B47968",
"L. c #A17E71",
"P. c #C17566",
"I. c #C27B6A",
"U. c #C06F63",
"Y. c #9C825A",
"T. c #A88459",
"R. c #B48557",
"E. c #9C836D",
"W. c #928F69",
"Q. c #A99D6D",
"!. c #B99762",
"~. c #A48373",
"^. c #A48972",
"/. c #AF8C79",
"(. c #AB8875",
"). c #B18E79",
"_. c #AB9474",
"`. c #B39976",
"'. c #B5937B",
"]. c #BC9B7C",
"[. c #B59779",
"{. c #B0826E",
"}. c #BCA27A",
"|. c #B9A26C",
" X c #C5836E",
".X c #C19E7F",
"XX c #C39B64",
"oX c #C8A368",
"OX c #D1A768",
"+X c #C1A37E",
"@X c #C3A97E",
"#X c #C29F80",
"$X c #C8A682",
"%X c #C9A982",
"&X c #D1AE85",
"*X c #CCB487",
"=X c #D4B386",
"-X c #D8B887",
";X c #D9B788",
":X c #DCBB8A",
">X c #D2B388",
",X c #E0BE8B",
"<X c #DFC691",
"1X c #E4C38D",
"2X c #E6C991",
"3X c #E8CD93",
"4X c #E4C791",
"5X c #E9D196",
"6X c #EBD599",
"7X c #EDDB9C",
"8X c #F0DE9E",
"9X c #F1E19F",
"0X c #EFE1A0",
"qX c #F1E4A2",
"wX c #F3EAA5",
"eX c None",
/* pixels */
"eXeXeXeXeXeXeXeXeXeXeXeXeXeXeXeXeXeXeXeXeXeXeXeXeXeXeXeXeXeXeXeXeXeXeXeXeXeXeXeXeXeXeXeXeXeXeXeXeXeX",
"eXeXeXeXeXeXeXeXeXeXeXeXeXeXeXeXeXeXeXeXeXeXeXeXeXeXeXeXeXeXeXeXeXeXeXeXeXeXeXeXeXeXeXeXeXeXeXeXeXeX",
"eXeXeXeXeXeXeXeXeXeXeXeXeXeXeXeXeXeXeXeXeXeXeXeXeXeXeXeXeXeXeXeXeXeXeXeXeXeXeXeXeXeXeXeXeXeXeXeXeXeX",
"eXeXeXeXeXeXeXeXeXeXeXeXeXeXeXeXeXeXeXeXeXeXeXeXeXeXeXeXeXeXeXeXeXeXeXeXeXeXeXeXeXeXeXeXeXeXeXeXeXeX",
"eXeXeXeXeXeXeXeXeXeXeXeXeXeXeXeXeXeXeXeXeXeXeXeXeXeXeXeXeXeXeXeXeXeXeXeXeXeXeXeXeXeXeXeXeXeXeXeXeXeX",
"eXeXeXeXeXeXeXeXeXeXeXeXeXeXeXeXeXeXeXeXeXeXeXeXeXeXeXeXeXeXeXeXeXeXeXeXeXeXeXeXeXeXeXeXeXeXeXeXeXeX",
"eXeXeXeXeXeXeXeXeXeXeXeXeXeXeXeXeXeXeXeXeXeXeXeXeXeXeXeXeXeXeXeXeXeXeXeXeXeXeXeXeXeXeXeXeXeXeXeXeXeX",
"eXeXeXeXeXeXeXeXeXeXeXeXeXeXeXeXeXeXeXeXeXeXeX@.W.G eXeXm @.| eXeXeXeXeXeXeXeXeXeXeXeXeXeXeXeXeXeXeX",
"eXeXeXeXeXeXeXeXeXeXeXeXeXeXeXeXeXeXeXD G eXo ..oXC eX5 h.Q.| eXeXeXeXeXeXeXeXeXeXeXeXeXeXeXeXeXeXeX",
"eXeXeXeXeXeXeXeXeXeXeXeXeXeXeXeXeXeXO @.Q...% e.OXt.: !.oXy.# eXeXeXeXeXeXeXeXeXeXeXeXeXeXeXeXeXeXeX",
"eXeXeXeXeXeXeXeXeXeXeXeXeXeXeXeXeXeX, - p.OXg.B XXY...!.l.< 1 ; eXeXeXeXeXeXeXeXeXeXeXeXeXeXeXeXeXeX",
"eXeXeXeXeXeXeXeXeXB T B eXeXeX[ S.K.{.' S Y.|.S B T g.Y.Y U K.K.G.a.t eXeX# Y #.: eXeXeXeXeXeXeXeXeX",
"eXeXeXeXeXeXeXeXo V Y.T @ J f.P. X XJ.` - S { V - S ..B + ; W J. XD.5.j 0 % g.l.- eXeXeXeXeXeXeXeXeX",
"eXeXeXeXeXeXeXeX: 6 t s ^ D.P.0.I. Xf.a.,.N % : ! M - u ` K.J. X Xc.7.6.;.d s n 5 eXeXeXeXeXeXeXeXeX",
"eXeXeXeXeXeXeXeX  @ y / D.x.0.0.3.<.> A J. Xa.W F.F.K. X X X X XI.9.6.6.6./ d w o eXeXeXeXeXeXeXeXeX",
"eXeXeXeXeXeXeXeX- A r a k :.6.q.*.= @ N `  X X X X XI.H.I.I.H.D.%.f 4.7.7.>.s q n @ eXeXeXeXeXeXeXeX",
"eXeXeXeXeXeXX t m.m.s 0 e i 6.*.2 < U <.4.I. X XI.P.x.D.D.q.0.9.,.J &.2.*.l f r m.[ + eXeXeXeXeXeXeX",
"eXeXeXeXeXeXu V.L.V.r h z > i % t z.D.D.q.P. XP.0.8.D.D.q.6.q.9.0.p + = @ ) C.E.).L.( X eXeXeXeXeXeX",
"eXeXeXeXm < Z ~.).L.J %.^ -.z = <.x.H.H.q.D.0.2.4.6.2.6.7.6.6.6.=.> e x > M.&X:X'./.m.; 5 eXeXeXeXeX",
"eXeXeXS Y.h.Y _ '.'.s.] N &.>.9 f 9.H.0.7.3.f ) J %.v a j 1.6.7.4.i w %.f ( >X:X].(.n g.h.h.eXeXeXeX",
"eXeXeX# t.R.Q n +X,X1X.Xn &.1.d @ $.q.6.*.j X.%XE.) ( X.] t i f *.g ( Z.C.^.:X5X4XC.< u.R.V eXeXeXeX",
"eXeXeX- V w.Q  .`.,X4X4Xo.p J ( C > %.p C B.;X4X<X2X4X<X:X].^.O.I u N.4X7X0X6X5X1XO.T ! ! B @ eXeXeX",
"eXeXeX: } | T D E.,X5XqX*X[.%X:X$X( ( ^.&X,X4X8XqXwXqX0X6X2X1X4X:X=X=X;X<X0X6X1X&XX.Y } Y } # eXeXeX",
"eXeXeX: V o.n.(.>X5X0X*XO. . .N.=X;X<X5X1X1X5X7X5X2X4X2X5X5X7XqX5X@Xj.} Q W.:X2X:X$XZ.n.Z 5 # eXeXeX",
"eXeXeXeXn ).$X:X2X6X3X_ { l.p.< +X2X6X6X6X7XqX8X7X2X1X5XqXqX7X5X2Xs.Y g.T.B _.7X5X,X>X#Xn.O eXeXeXeX",
"eXeXeXeX$ E.).].-X1X=XB < l.T :  .,X1X5X0X0X7X1X4X4X4X7XqX3X4X1X}.m < y.g.# N.4X1X;X'./.~.- eXeXeXeX",
"eXeXeXeXX o.L.m.B E.+XT T T Y g...-X1X3X2X1X;X&X#X].#X:X3X7X6X3X`...+.T Y #.s.,X;X'.A.~./.n eXeXeXeX",
"eXeXeXeX  [ ] q O o O.O.| R  .B s.>X`.N.E.(.~.).'.).>X6X7X5X:X&X+XF Y Q Y  .s.N.F u q ) M.$ eXeXeXeX",
"eXeXeXeXeX& +   - % + ( ^.E.E.E.B.n O u m.A.).&X%X%X2X7X3X;X'.).+X_.V.Z.M.m @ + r O   eX$ O eXeXeXeX",
"eXeXeXeXeXeXeXX A N + $ ( ].N.B : - : < Z F o.`.].:X1X1X1X.XC.) B t n C ) V @ % H - eXeXeXeXeXeXeXeX",
"eXeXeXeXeXeXeXX H P @ H M ; , 5 N M M 1 ; $   + n.:X1X1X`.( @ % 1 V 1 H i.i.: , ! < eXeXeXeXeXeXeXeX",
"eXeXeXeXeXeXeX  u ! - P P < < 7 m p.n a k f i w * _ ].N.q e *  .} 7 1 1 1 e.< n ! @ eXeXeXeXeXeXeXeX",
"eXeXeXeXeXeXeXeX; ' t ~ E 7 ~ B h. .y >.q.3.;.>.>.x y y c 1./ n N.| 5 ~ < r.5 W P + eXeXeXeXeXeXeXeX",
"eXeXeXeXeXeXeXeX@ U H w.b.Q < < V I z -.:.6.1.>.4.-.c / 5.q.:.a T B : N e.R.8 W M . eXeXeXeXeXeXeXeX",
"eXeXeXeXeXeXeXeX@ I ! u.R.f.w.P u d -.:.4.6.7.6.q.4.x :.P.q.6./ s M P y.v.R.P ! t   eXeXeXeXeXeXeXeX",
"eXeXeXeXeXeXeXeXO V ! ~ b.w.k.y.* v 4.>.9.6.6.4.2.=.i f 1.4.6.4.x M v.y.y.r.5 ,.:   eXeXeXeXeXeXeXeX",
"eXeXeXeXeXeXeXeX  M P 6 k.R u.k.$ %.6.v 5.x.6.:.k i + @ k 1.6.7.%.7 b.w.w.e.1 ! % eXeXeXeXeXeXeXeXeX",
"eXeXeXeXeXeXeXeXeX< N 1 k.6 u.v.# &.6.a ,.x.7.6.-.i + = k 4.6.x.3 6 R.P E e.< N % eXeXeXeXeXeXeXeXeX",
"eXeXeXeXeXeXeXeXeXeX% < v.6 u.v.# &.6.i L H.6.6.7.3.= i 2.4.0.D.p R R.P ~ r.# # eXeXeXeXeXeXeXeXeXeX",
"eXeXeXeXeXeXeXeXeXeXeXeX8 : r.y.t *.&.= , D.7.1.4.&.. j 6.v 4.3.2 r.u.P 1 1 eXeXeXeXeXeXeXeXeXeXeXeX",
"eXeXeXeXeXeXeXeXeXeXeXeXeXeX1 6 M N 1 % @ $.6.^ =.%.. j $.% g g % 5 6 1 eXeXeXeXeXeXeXeXeXeXeXeXeXeX",
"eXeXeXeXeXeXeXeXeXeXeXeXeXeXeXeXo @ 1 , O 2 j + > = @ , < 1 + .     eXeXeXeXeXeXeXeXeXeXeXeXeXeXeXeX",
"eXeXeXeXeXeXeXeXeXeXeXeXeXeXeXeXeXeXeXeXeXeXeXeXeXeXeXeXeXeXeXeXeXeXeXeXeXeXeXeXeXeXeXeXeXeXeXeXeXeX",
"eXeXeXeXeXeXeXeXeXeXeXeXeXeXeXeXeXeXeXeXeXeXeXeXeXeXeXeXeXeXeXeXeXeXeXeXeXeXeXeXeXeXeXeXeXeXeXeXeXeX",
"eXeXeXeXeXeXeXeXeXeXeXeXeXeXeXeXeXeXeXeXeXeXeXeXeXeXeXeXeXeXeXeXeXeXeXeXeXeXeXeXeXeXeXeXeXeXeXeXeXeX",
"eXeXeXeXeXeXeXeXeXeXeXeXeXeXeXeXeXeXeXeXeXeXeXeXeXeXeXeXeXeXeXeXeXeXeXeXeXeXeXeXeXeXeXeXeXeXeXeXeXeX",
"eXeXeXeXeXeXeXeXeXeXeXeXeXeXeXeXeXeXeXeXeXeXeXeXeXeXeXeXeXeXeXeXeXeXeXeXeXeXeXeXeXeXeXeXeXeXeXeXeXeX",
"eXeXeXeXeXeXeXeXeXeXeXeXeXeXeXeXeXeXeXeXeXeXeXeXeXeXeXeXeXeXeXeXeXeXeXeXeXeXeXeXeXeXeXeXeXeXeXeXeXeX",
"eXeXeXeXeXeXeXeXeXeXeXeXeXeXeXeXeXeXeXeXeXeXeXeXeXeXeXeXeXeXeXeXeXeXeXeXeXeXeXeXeXeXeXeXeXeXeXeXeXeX",
"eXeXeXeXeXeXeXeXeXeXeXeXeXeXeXeXeXeXeXeXeXeXeXeXeXeXeXeXeXeXeXeXeXeXeXeXeXeXeXeXeXeXeXeXeXeXeXeXeXeX"
};
