/* XPM */
static char *result[] = {
/* columns rows colors chars-per-pixel */
"50 50 207 2 ",
"   c #151B2E",
".  c #1A1E2F",
"X  c #191F30",
"o  c #1C202F",
"O  c #1D2534",
"+  c #1F2A3A",
"@  c #2E2B34",
"#  c #222C3A",
"$  c #262733",
"%  c #302D34",
"&  c #25313E",
"*  c #2C313B",
"=  c #3B3438",
"-  c #423A3B",
";  c #4A3D3D",
":  c #4E403C",
">  c #5B493F",
",  c #54443E",
"<  c #243341",
"1  c #2B3640",
"2  c #2B3944",
"3  c #2E3E49",
"4  c #273946",
"5  c #323D45",
"6  c #2D414E",
"7  c #34444B",
"8  c #3B454B",
"9  c #3C494D",
"0  c #394145",
"q  c #304753",
"w  c #354A54",
"e  c #3A4D53",
"r  c #374E59",
"t  c #3D5156",
"y  c #3D545B",
"u  c #3F595F",
"i  c #3E5964",
"p  c #424B4C",
"a  c #474744",
"s  c #5B4D43",
"d  c #534744",
"f  c #4D5247",
"g  c #595749",
"h  c #445456",
"j  c #42565A",
"k  c #445A5D",
"l  c #4A5C5C",
"z  c #4A5456",
"x  c #634E43",
"c  c #6B5343",
"v  c #665446",
"b  c #745947",
"n  c #785A4B",
"m  c #5E674A",
"M  c #4F6359",
"N  c #5C635C",
"B  c #666347",
"V  c #7B644D",
"C  c #7D6D4B",
"Z  c #6B6755",
"A  c #726A55",
"S  c #7A7459",
"D  c #6C745B",
"F  c #435D63",
"G  c #495F60",
"H  c #4B6465",
"J  c #46646B",
"K  c #4A666A",
"L  c #4C6A6C",
"P  c #4E6867",
"I  c #536965",
"U  c #516D6E",
"Y  c #5A6A66",
"T  c #4C6C72",
"R  c #466970",
"E  c #516E72",
"W  c #4E7479",
"Q  c #4B7177",
"!  c #537373",
"~  c #52767A",
"^  c #557A7C",
"/  c #5A7C7C",
"(  c #5B7472",
")  c #59716C",
"_  c #677C6B",
"`  c #657B73",
"'  c #88654D",
"]  c #916C4E",
"[  c #9C724F",
"{  c #8D7353",
"}  c #9C7854",
"|  c #8B7250",
" . c #A17752",
".. c #A57A53",
"X. c #AB7D55",
"o. c #738A5C",
"O. c #59807F",
"+. c #7C8566",
"@. c #6D837C",
"#. c #628178",
"$. c #7B8C73",
"%. c #7B9775",
"&. c #9C864A",
"*. c #858458",
"=. c #96855A",
"-. c #989851",
";. c #AD994D",
":. c #AB845A",
">. c #AA8358",
",. c #B48759",
"<. c #A29C59",
"1. c #9AA851",
"2. c #AAA649",
"3. c #B4A95A",
"4. c #858463",
"5. c #948861",
"6. c #979875",
"7. c #90956C",
"8. c #A7996C",
"9. c #B09B61",
"0. c #93AF7C",
"q. c #BBAA68",
"w. c #B7B96B",
"e. c #AAAD74",
"r. c #CBB75C",
"t. c #C39861",
"y. c #C7A767",
"u. c #C3B976",
"i. c #CECF52",
"p. c #E6DB5D",
"a. c #D8CA6D",
"s. c #537D81",
"d. c #5B7F82",
"f. c #568184",
"g. c #5C8383",
"h. c #5A878A",
"j. c #5D8A8B",
"k. c #5D8E90",
"l. c #5F9192",
"z. c #628A8B",
"x. c #628786",
"c. c #738C86",
"v. c #61908F",
"b. c #6B928E",
"n. c #76958C",
"m. c #628E91",
"M. c #639495",
"N. c #6B9494",
"B. c #6C9A96",
"V. c #6B9698",
"C. c #659C9C",
"Z. c #6A9D9D",
"A. c #629798",
"S. c #709693",
"D. c #729F9D",
"F. c #779C92",
"G. c #6AA09F",
"H. c #79A39A",
"J. c #729EA1",
"K. c #6E9EA1",
"L. c #6DA3A3",
"P. c #6FA7A8",
"I. c #73A5A4",
"U. c #7AA5A3",
"Y. c #76A8A3",
"T. c #7DABA4",
"R. c #75ABAB",
"E. c #79ABAC",
"W. c #74A6A9",
"Q. c #7EB0AC",
"!. c #7DAEB1",
"~. c #7CB2B3",
"^. c #7FB7BA",
"/. c #849483",
"(. c #9BAB92",
"). c #92B099",
"_. c #A8B385",
"`. c #82ABA2",
"'. c #84AEAA",
"]. c #84B2AE",
"[. c #89B1A5",
"{. c #94B8A6",
"}. c #82B5B5",
"|. c #8CBBB4",
" X c #81B7B8",
".X c #83BBBC",
"XX c #8ABEBE",
"oX c #87B5B3",
"OX c #90BDB5",
"+X c #B6CD8E",
"@X c #94C3BC",
"#X c #99C4B9",
"$X c #9FC4AB",
"%X c #ABCEBB",
"&X c #A2C8B8",
"*X c #ACCEB3",
"=X c #CED189",
"-X c #D6D987",
";X c #C7C982",
":X c #F5F68A",
">X c #F2F293",
",X c #D9DBAB",
"<X c #89BFC0",
"1X c #8CC3C4",
"2X c #92C6C4",
"3X c #A0CAC0",
"4X c None",
/* pixels */
"4X4X4X4X4X4X4X4X4X4X4X4X4X4X4X4X4X4X4X4X4X4X4X4X4X4X4X4X4X4X4X4X4X4X4X4X4X4X4X4X4X4X4X4X4X4X4X4X4X4X",
"4X4X4X4X4X4X4X4X4X4X4X4X4X4X4X4X4X4X4X4X4X4X4X4X4X4X4X4X4X4X4X4X4X4X4X4X4X4X4X4X4X4X4X4X4X4X4X4X4X4X",
"4X4X4X4X4X4X4X4X4X4X4X4X4X4X4X4X4X4X4X4X4X4XO # i j 3 O 4X4X4X4X4X4X4X4X4X4X4X4X4X4X4X4X4X4X4X4X4X4X",
"4X4X4X4X4X4X4X4X4X4X4X4X4X4X4X4X4X4X4XF r s.h.^ M.M.j.T H *.Y 4X4X4X4X4X4X4X4X4X4X4X4X4X4X4X4X4X4X4X",
"4X4X4X4X4X4X4X4X4X4X4X4X4X4X4X4X4X& ~ D.k.~.P.A.M.C.C.M.M.4.T.Q < 4X4X4X4X4X4X4X4X4X4X4X4X4X4X4X4X4X",
"4X4X4X4X4X4X4X4X4X4X4X4X4X4X4X4XX F ~.Q.B.L.L.Z.A.W.~.P.W.j.!.~.F X 4X4X4X4X4X4X4X4X4X4X4X4X4X4X4X4X",
"4X4X4X4X4X4X4X4X4X4X4X4X4X4X4X# + ! E.oXe.{..XV.N.XX1XXXm.^ ^.R.! + # 4X4X4X4X4X4X4X4X4X4X4X4X4X4X4X",
"4X4X4X4X4X4X4X4X4X4X4X4X4X4Xq s.6 L G.$X=X$.V.C.M.L. XE.T N.@XZ.L 7 s.q 4X4X4X4X4X4X4X4X4X4X4X4X4X4X",
"4X4X4X4X4X4X4X4X4X4X4X4X4Xi J c.p F h.Z.#.( P.G.L.L.A.J.x.` D.h.e 7 j.J F 4X4X4X4X4X4X4X4X4X4X4X4X4X",
"4X4X4X4X4X4X4X4X4X4X4X4X< h./ e.+.z.L.j.P ! W.R.I.d.z. Xc.3._.J.m.E M.^ h.< 4X4X4X4X4X4X4X4X4X4X4X4X",
"4X4X4X4X4X4X4X4X4X4X4X4X3 ^ I e.D I.1Xz.7 H E.XX'.) j.L.I a.,X|.}.! g.J ^ 3 4X4X4X4X4X4X4X4X4X4X4X4X",
"4X4X4X4X4X4X4X4X4X4X4X2 M h p 0 e N.#X Xy P A.P.T.F.h.Z.! &.w.}.B.j 8 e h G 2 4X4X4X4X4X4X4X4X4X4X4X",
"4X4X4X4X4X4X4X4X4X4X. 7 k h *.f H A.Y.j.r ! M.C.C.h.! C.W 7 ( L.A.P 5 8 t k 7 X 4X4X4X4X4X4X4X4X4X4X",
"4X4X4X4X4X4X4X4X4X4X7 7 F `.=XA Y z.h.E.oXN./ M.L.^ H L.K.!.G.h.j.J F V.}.y 7 7 4X4X4X4X4X4X4X4X4X4X",
"4X4X4X4X4X4X4X4X4X9 H 5 d.}.%.S y.Z r J.1X1X'.! ~ H 7 D.@X&X`.j 4 F L.<X1X^ 1 G 9 4X4X4X4X4X4X4X4X4X",
"4X4X4X4X4X4X4X4X4Xk j e d.^.{.-X>XC H z.Q.&X*X( y i J / S.G.M.U N c.XX<X~.d.e t j 4X4X4X4X4X4X4X4X4X",
"4X4X4X4X4X4X4X4XO 7 * j O.G.H.i.a.v H O.A.L.D.G V.}.2X'.! C.b.M ;.u.H.P.C.f.t : m O 4X4X4X4X4X4X4X4X",
"4X4X4X4X4X4X4X4X# 3 # e Q l.C.#.B 0 L l.C.C.M.e / R.].N.T x.6.Z i.:X0.C.l.! e g +.< 4X4X4X4X4X4X4X4X",
"4X4X4X4X4X4X4X4Xe l e z.I.J h.f.j 2 u l.Z.C.z.Y g.C.C.f.H ) 3.m ;.i.o.f.J W.z.e k t X 4X4X4X4X4X4X4X",
"4X4X4X4X4X4X4X7 N Z h I.1X~.].Y.H 4 j.M.A.A._ q.@.j.R.A.W.E.H.N.f +.W.Q.~.1XJ.j k l 1 4X4X4X4X4X4X4X",
"4X4X4X4X4X4X4Xl 8.r.( ^.1X1X1X1Xg.e J..XE.I.#.6.M k H.@X|.Y.P.Z.w g.1X1X1X@X XU t k h 4X4X4X4X4X4X4X",
"4X4X4X4X4X4X4Xh -.;.! P.~.#X3X[.E 7 ! Q.%X%X#XY.~ e h.G.A.Z.A.E 7 U `.%X%XOXY.f.* 5 k 4X4X4X4X4X4X4X",
"4X4X4X4X4X4X4X7 0 f ^ C.L.Y.`.g.H 7 U z.T.[.`.G.! t ^ A.C.G.N.L 7 H O.T.`.n.B.f.4 2 8 O 4X4X4X4X4X4X",
"4X4X4X4X4X4X# 0 7 s.s.C.C.A.C.g.k * l h.A.A.B.O.Z V l h.j.j.^ l 7 M h.G.O.8.(.^ g.7 5 # 4X4X4X4X4X4X",
"4X4X4X4X4X4X# * w ^ E..XE.G.C.h.< s :.} S 8.8.n y.y.V } =.Z { :.v & g./.S =.0.R.^ S Z # 4X4X4X4X4X4X",
"4X4X4X4X4X4X# 5 G P @.oX1X~.m.! j p :.' x :.>.x :.} s >...s } >.a y I 3.-X$.H.O.G =.*.# 4X4X4X4X4X4X",
"4X4X4X4X4X4X& ^ B.$.3.*.M.K.R H G d X.[ c X.X.c X...c ..X.c [ ..d H h 9.:Xe.! I E n.) & 4X4X4X4X4X4X",
"4X4X4X4X4X4Xj W.@X+X:X2.N 7.i j 3 -  .' s X.' x  . .d [ ] s '  .- 3 e C 2.B t O.E.1XI.y   4X4X4X4X4X",
"4X4X4X4X4XO K P.P.1.p.&.{ <.E U.T # % $ X % $ o % % X @ $ . @ % & U U.U.oXT J @X3XXXW.P O 4X4X4X4X4X",
"4X4X4X4X4X# ^ C.G.@.7.f M _ |.[.! 8 ; ; ;                 - - ; 8 ) {.%XoX! K Y.'.I.C.^ # 4X4X4X4X4X",
"4X4X4X4X4XO f.C.C.C.M.j Q C.I.Z.d.8 c ' n X             X x b n 9 O.G.G.C.T w k.C.C.C.f.O 4X4X4X4X4X",
"4X4X4X4X4X+ ~ E.L.Z.n.=.k C.C.C.z.e n X.[ $             $ ] ..n 9 j.G.G.n.5.z W C.L.E.~ + 4X4X4X4X4X",
"4X4X4X4X4X6 z.^.^.^.$Xw.p A.C.A./ 7 b ..[ @             @ X.X.b g 6.A.C.4.a.(. X X X^.j.7 4X4X4X4X4X",
"4X4X4X4X  t M.I.#X@X#X#.H I.R.N.F + x  ...%             * ,.,.s B ;XB.P.N ;.%.1X@X#XP.M.t   4X4X4X4X",
"4X4X4X4XO u M.G.B.b.H.j.Q.1X1X1XE.s.s } ,.=             = :.>.s l ).1X1XI.S.h.Y.b.B.G.C.k . 4X4X4X4X",
"4X4X4X4X+ 4 r s.A.C.A.B.#X1X1X1X1X~ - :.t.:             ; ,. .= W .X<X1X2X2XS.M.C.C.^ r 4 + 4X4X4X4X",
"4X4X4X4X4X4X  < k.C.^ H {.#XH.Z.A.U a ..,.:             : ,. .a E N.A.U.#X).H ^ G.k.<   4X4X4X4X4X4X",
"4X4X4X4X4X4X4X4X4XW 6 7 v.G.C.A.k.! z } ,.;       X     : X.] 9 R j.C.C.G.v.7 3 W 4X4X4X4X4X4X4X4X4X",
"4X4X4X4X4X4X4X4X4X4X4X# W A.C.M.q # 5 ' X.>   4X4X4XX   > X.' * O 6 j.G.M.Q + 4X4X4X4X4X4X4X4X4X4X4X",
"4X4X4X4X4X4X4X4X4X4X4X4X+ r R 4X4X4X  d ' c     4X4X    : V c   4X4X4XQ w + 4X4X4X4X4X4X4X4X4X4X4X4X",
"4X4X4X4X4X4X4X4X4X4X4X4X4X4X4X4X4X4X  O ; >   4X4X4X4X  X % = 4X4X4X4X4X4X4X4X4X4X4X4X4X4X4X4X4X4X4X",
"4X4X4X4X4X4X4X4X4X4X4X4X4X4X4X4X4X4X4X4X4X4X4X4X4X4X4X4X4X4X4X4X4X4X4X4X4X4X4X4X4X4X4X4X4X4X4X4X4X4X",
"4X4X4X4X4X4X4X4X4X4X4X4X4X4X4X4X4X4X4X4X4X4X4X4X4X4X4X4X4X4X4X4X4X4X4X4X4X4X4X4X4X4X4X4X4X4X4X4X4X4X",
"4X4X4X4X4X4X4X4X4X4X4X4X4X4X4X4X4X4X4X4X4X4X4X4X4X4X4X4X4X4X4X4X4X4X4X4X4X4X4X4X4X4X4X4X4X4X4X4X4X4X",
"4X4X4X4X4X4X4X4X4X4X4X4X4X4X4X4X4X4X4X4X4X4X4X4X4X4X4X4X4X4X4X4X4X4X4X4X4X4X4X4X4X4X4X4X4X4X4X4X4X4X",
"4X4X4X4X4X4X4X4X4X4X4X4X4X4X4X4X4X4X4X4X4X4X4X4X4X4X4X4X4X4X4X4X4X4X4X4X4X4X4X4X4X4X4X4X4X4X4X4X4X4X",
"4X4X4X4X4X4X4X4X4X4X4X4X4X4X4X4X4X4X4X4X4X4X4X4X4X4X4X4X4X4X4X4X4X4X4X4X4X4X4X4X4X4X4X4X4X4X4X4X4X4X",
"4X4X4X4X4X4X4X4X4X4X4X4X4X4X4X4X4X4X4X4X4X4X4X4X4X4X4X4X4X4X4X4X4X4X4X4X4X4X4X4X4X4X4X4X4X4X4X4X4X4X",
"4X4X4X4X4X4X4X4X4X4X4X4X4X4X4X4X4X4X4X4X4X4X4X4X4X4X4X4X4X4X4X4X4X4X4X4X4X4X4X4X4X4X4X4X4X4X4X4X4X4X",
"4X4X4X4X4X4X4X4X4X4X4X4X4X4X4X4X4X4X4X4X4X4X4X4X4X4X4X4X4X4X4X4X4X4X4X4X4X4X4X4X4X4X4X4X4X4X4X4X4X4X"
};
