/* XPM */
static char *result[] = {
/* columns rows colors chars-per-pixel */
"50 50 170 2 ",
"   c #0F152D",
".  c #11172D",
"X  c #141B2D",
"o  c #1A1E2E",
"O  c #191F30",
"+  c #1D222E",
"@  c #1D2232",
"#  c #1D2339",
"$  c #262D2E",
"%  c #292F2F",
"&  c #21272E",
"*  c #31372F",
"=  c #222530",
"-  c #282733",
";  c #262A31",
":  c #2B2B33",
">  c #24293A",
",  c #2A3030",
"<  c #333533",
"1  c #3D3C35",
"2  c #3C3438",
"3  c #353B31",
"4  c #413E37",
"5  c #40363A",
"6  c #463A3B",
"7  c #3C4231",
"8  c #3A413F",
"9  c #484F33",
"0  c #4A413A",
"q  c #454734",
"w  c #52453D",
"e  c #534A3A",
"r  c #5A4E3C",
"t  c #545A33",
"y  c #595F34",
"u  c #5C503C",
"i  c #63563D",
"p  c #616735",
"a  c #626438",
"s  c #6B7235",
"d  c #757B37",
"f  c #634C43",
"g  c #6D5246",
"h  c #6D5942",
"j  c #745748",
"k  c #775849",
"l  c #7C6843",
"z  c #5D6271",
"x  c #815D4D",
"c  c #85604D",
"v  c #876949",
"b  c #916D4D",
"n  c #8E7546",
"m  c #8B7D42",
"M  c #907747",
"N  c #927A47",
"B  c #967B48",
"V  c #8F6850",
"C  c #946B51",
"Z  c #9B6F53",
"A  c #9C7153",
"S  c #A37455",
"D  c #AC7B57",
"F  c #A97658",
"G  c #AC7A58",
"H  c #AA7755",
"J  c #B17D59",
"K  c #816E67",
"L  c #7D8436",
"P  c #878E39",
"I  c #89903A",
"U  c #8D9436",
"Y  c #999F3B",
"T  c #9CA33C",
"R  c #A4AB3C",
"E  c #ABB23C",
"W  c #B2B93E",
"Q  c #B0B43F",
"!  c #BBC23F",
"~  c #C2C93F",
"^  c #CDD03E",
"/  c #DBE23D",
"(  c #E5EC3E",
")  c #E8EF3E",
"_  c #E9F13F",
"`  c #968345",
"'  c #9C9640",
"]  c #A4854C",
"[  c #A9894C",
"{  c #B08D4E",
"}  c #A69148",
"|  c #AC9B49",
" . c #B5924E",
".. c #BB984F",
"X. c #AE8056",
"o. c #B38357",
"O. c #B58C54",
"+. c #B98B56",
"@. c #B48158",
"#. c #BB9452",
"$. c #BC9851",
"%. c #BCB645",
"&. c #999E6C",
"*. c #B48769",
"=. c #B0B47A",
"-. c #C19F4F",
";. c #C19456",
":. c #C59C53",
">. c #C99D55",
",. c #C4A84C",
"<. c #CEBC4D",
"1. c #D6BB4F",
"2. c #CDA454",
"3. c #CFA953",
"4. c #C4A654",
"5. c #D1A654",
"6. c #D2AC53",
"7. c #D5B451",
"8. c #C7CC41",
"9. c #D4C44B",
"0. c #DAC34D",
"q. c #DCCB4C",
"w. c #D3CA48",
"e. c #CAD143",
"r. c #D2D842",
"t. c #DEDC47",
"y. c #DED449",
"u. c #E2DE46",
"i. c #E2DB49",
"p. c #E0D649",
"a. c #DDE246",
"s. c #E3E545",
"d. c #E9E747",
"f. c #E6EC43",
"g. c #E8EF44",
"h. c #E5E048",
"j. c #EAF143",
"k. c #ECF44F",
"l. c #F3FA45",
"z. c #F0F654",
"x. c #EDF36D",
"c. c #EFF47B",
"v. c #F3F878",
"b. c #9B9EA7",
"n. c #A3A5AC",
"m. c #C5A38C",
"M. c #D4BBA9",
"N. c #EEF28E",
"B. c #F0F583",
"V. c #F3F884",
"C. c #F1F588",
"Z. c #E1E491",
"A. c #F2F691",
"S. c #F8FD99",
"D. c #DCC8BA",
"F. c #F4F8A8",
"G. c #F6F9B2",
"H. c #FCFEB7",
"J. c #F6F9B9",
"K. c #BEC0C5",
"L. c #E5D5CB",
"P. c #FDFFC2",
"I. c #FCFDCF",
"U. c #ECE2D5",
"Y. c #DEDFE2",
"T. c #FDFFE0",
"R. c #FCFDEC",
"E. c #FFFFFE",
"W. c #FDFEF5",
"Q. c None",
/* pixels */
"Q.Q.Q.Q.Q.Q.Q.Q.Q.Q.Q.Q.Q.Q.Q.Q.Q.Q.Q.Q.Q.Q.Q.Q.Q.Q.Q.Q.Q.Q.Q.Q.Q.Q.Q.Q.Q.Q.Q.Q.Q.Q.Q.Q.Q.Q.Q.Q.Q.Q.",
"Q.Q.Q.Q.Q.Q.Q.Q.Q.Q.Q.Q.Q.Q.Q.Q.Q.Q.Q.Q.Q.Q.Q.Q.Q.Q.Q.Q.Q.Q.Q.Q.Q.Q.Q.Q.Q.Q.Q.Q.Q.Q.Q.Q.Q.Q.Q.Q.Q.Q.",
"Q.Q.Q.Q.Q.Q.Q.Q.Q.Q.Q.Q.Q.Q.Q.Q.Q.Q.Q.Q.Q.Q.Q.Q.Q.Q.Q.Q.Q.Q.Q.Q.Q.Q.Q.Q.Q.Q.Q.Q.Q.Q.Q.Q.Q.Q.Q.Q.Q.Q.",
"Q.Q.Q.Q.Q.Q.Q.Q.Q.Q.Q.Q.Q.Q.Q.Q.Q.Q.Q.Q.Q.Q.Q.Q.Q.Q.Q.Q.Q.Q.Q.Q.Q.Q.Q.Q.Q.Q.Q.Q.Q.Q.Q.Q.Q.Q.Q.Q.Q.Q.",
"Q.Q.Q.Q.Q.Q.Q.Q.Q.Q.Q.Q.Q.Q.Q.Q.Q.Q.Q.Q.Q.Q.Q.Q.Q.Q.Q.Q.Q.Q.Q.Q.Q.Q.Q.Q.Q.Q.Q.Q.Q.Q.Q.Q.Q.Q.Q.Q.Q.Q.",
"Q.Q.Q.Q.Q.Q.Q.Q.Q.Q.Q.Q.Q.Q.Q.Q.Q.Q.Q.Q.Q.Q.Q.Q.Q.Q.Q.Q.Q.Q.Q.Q.Q.Q.Q.Q.Q.Q.Q.Q.Q.Q.Q.Q.Q.Q.Q.Q.Q.Q.",
"Q.Q.Q.Q.Q.Q.Q.Q.Q.Q.Q.Q.Q.Q.Q.Q.Q.Q.Q.Q.Q.Q.Q.Q.Q.Q.Q.Q.Q.Q.Q.Q.X X X X X Q.Q.Q.Q.Q.Q.Q.Q.Q.Q.Q.Q.Q.",
"Q.Q.Q.Q.Q.Q.Q.Q.Q.Q.Q.Q.Q.Q.Q.Q.Q.Q.Q.Q.Q.Q.Q.Q.Q.Q.Q.Q.Q.Q.Q.Q.. y p + + X Q.Q.Q.Q.Q.Q.Q.Q.Q.Q.Q.Q.",
"Q.Q.Q.Q.Q.Q.Q.Q.Q.Q.Q.Q.Q.Q.Q.Q.Q.Q.Q.Q.Q.Q.Q.Q.Q.Q.Q.Q.Q.Q.Q.Q.  s s.r.! 7 $ Q.Q.Q.Q.Q.Q.Q.Q.Q.Q.Q.",
"Q.Q.Q.Q.Q.Q.Q.Q.Q.Q.Q.Q.Q.Q.Q.Q.Q.Q.Q.Q.Q.Q.Q.Q.Q.Q.Q.Q.Q.Q.Q.Q.  s f.p.g.g.R % Q.Q.Q.Q.Q.Q.Q.Q.Q.Q.",
"Q.Q.Q.Q.Q.Q.Q.Q.Q.Q.Q.Q.Q.Q.Q.Q.Q.Q.Q.Q.Q.Q.Q.Q.Q.Q.Q.Q.Q.Q.X X   s q.2.q.g.h.` ; Q.Q.Q.Q.Q.Q.Q.Q.Q.",
"Q.Q.Q.Q.Q.Q.Q.Q.Q.Q.Q.Q.Q.Q.Q.Q.Q.Q.Q.Q.Q.Q.Q.Q.Q.Q.Q.Q.Q.X O @ # < ` 2.y.u.6.3.1 X Q.Q.Q.Q.Q.Q.Q.Q.",
"Q.Q.Q.Q.Q.Q.Q.Q.Q.Q.Q.Q.Q.Q.Q.Q.Q.Q.Q.Q.Q.Q.Q.Q.Q.Q.Q.Q.Q.X @ K.Y.b.; < %.7.:. .N = X Q.Q.Q.Q.Q.Q.Q.",
"Q.Q.Q.Q.Q.Q.Q.Q.Q.Q.Q.Q.Q.Q.Q.Q.Q.Q.Q.Q.Q.Q.Q.o X       . . @ n.E.E.b.# : B u o @ X Q.Q.Q.Q.Q.Q.Q.Q.",
"Q.Q.Q.Q.Q.Q.Q.Q.Q.Q.Q.Q.Q.Q.Q.Q.Q.Q.Q.Q.Q.X X . 7 L L L L 9   @ n.E.E.&.+ X X X Q.Q.Q.Q.Q.Q.Q.Q.Q.Q.",
"Q.Q.Q.Q.Q.Q.Q.Q.Q.Q.Q.Q.Q.Q.Q.Q.Q.Q.Q.X X X % T ~ S.P.P.S.e.T * > z =.k.Y + X Q.Q.Q.Q.Q.Q.Q.Q.Q.Q.Q.",
"Q.Q.Q.Q.Q.Q.Q.Q.Q.Q.Q.Q.Q.Q.Q.Q.Q.Q.Q.X . , W _ V.W.E.E.E.T.v.^ ` o $ E ! + X Q.Q.Q.Q.Q.Q.Q.Q.Q.Q.Q.",
"Q.Q.Q.Q.Q.Q.Q.Q.Q.Q.Q.Q.Q.Q.Q.Q.Q.Q.X X   T j._ A.E.E.E.E.E.B._ h.l   + + X o Q.Q.Q.Q.Q.Q.Q.Q.Q.Q.Q.",
"Q.Q.Q.Q.Q.Q.Q.Q.Q.Q.Q.Q.Q.Q.Q.Q.Q.Q.X 3 d 8.j.( A.E.E.D.L.E.B._ u.[ <   X X Q.Q.Q.Q.Q.Q.Q.Q.Q.Q.Q.Q.",
"Q.Q.Q.Q.Q.Q.Q.Q.Q.Q.Q.Q.Q.Q.Q.Q.X X . p l.f.f.( N.E.M.H m.E.B._ f.q.[ v = X Q.Q.Q.Q.Q.Q.Q.Q.Q.Q.Q.Q.",
"Q.Q.Q.Q.Q.Q.Q.Q.Q.Q.Q.Q.X X X . . = 7 8.s.s 7 7 8 K G *.U.R.c.j.j.y.2.2.: X Q.Q.Q.Q.Q.Q.Q.Q.Q.Q.Q.Q.",
"Q.Q.Q.Q.Q.Q.Q.Q.Q.Q.Q.X     + 9 q b D 2.i X . 1 : . c G 4.k.j.g.j.y.2.:.; X X Q.Q.Q.Q.Q.Q.Q.Q.Q.Q.Q.",
"Q.Q.Q.Q.Q.Q.Q.Q.Q.Q.+ . t s U j.1.>.;.M . + i 2.} s | G O.y.j.g.j.y.2.2.i o o Q.Q.Q.Q.Q.Q.Q.Q.Q.Q.Q.",
"Q.Q.Q.Q.Q.Q.Q.Q.Q.X . y Z.H.H.C.u.y.6.N X X i :.0.l.f.w.9.y.j.g.s.7.2.2. .@ X Q.Q.Q.Q.Q.Q.Q.Q.Q.Q.Q.",
"Q.Q.Q.Q.Q.Q.Q.Q.X X y t.I.E.E.G._ j.7.N   X X r 4.w.f.j.j.j.j.j.p.2.3.2.{ O X Q.Q.Q.Q.Q.Q.Q.Q.Q.Q.Q.",
"Q.Q.Q.Q.Q.Q.Q.Q.X 7 / S.E.E.E.G.s.y.g.W q $ X . @ = Y t.f.j.j.f.6.3.2.:.A O o Q.Q.Q.Q.Q.Q.Q.Q.Q.Q.Q.",
"Q.Q.Q.Q.Q.Q.Q.X X 3 ( F.E.E.J.V.,.D 9.j.~ 7 o a 1 . = ..7.p.y.q.6.>.o.G C o X Q.Q.Q.Q.Q.Q.Q.Q.Q.Q.Q.",
"Q.Q.Q.Q.Q.Q.Q.X + m f.x.A.C.f._ ,.F o.| 7 . I i. .1 + #.>.+.+.+.+.o.D G C o X Q.Q.Q.Q.Q.Q.Q.Q.Q.Q.Q.",
"Q.Q.Q.Q.Q.Q.Q.X = -.q.) j.j.j.j.t. .G k O O 8.a.' ; + $.2.+.F F F F D S 5 X Q.Q.Q.Q.Q.Q.Q.Q.Q.Q.Q.Q.",
"Q.Q.Q.Q.Q.Q.Q.X = $.1.j.j.g.g.g.j.s.o.F Z w 5 4 & . 7 r.p.3.+.D D G A 5 X X Q.Q.Q.Q.Q.Q.Q.Q.Q.Q.Q.Q.",
"Q.Q.Q.Q.Q.Q.Q.X = $.0.j.f.j.g.g.j.w.o.F F F F x . . W j.g.q.2.o.G Z 2 . X X Q.Q.Q.Q.Q.Q.Q.Q.Q.Q.Q.Q.",
"Q.Q.Q.Q.Q.Q.Q.X = $.6.u.j.g.g.g.g.#.F O.<.<.<.%.I I r.j.g.q.2.o.G C f : X X Q.Q.Q.Q.Q.Q.Q.Q.Q.Q.Q.Q.",
"Q.Q.Q.Q.Q.Q.Q.X = ..2.6.u.j.j.j.j.$.O.t.j.j.j.j.l.l.g.g.j.q.2.X.F D J V = X Q.Q.Q.Q.Q.Q.Q.Q.Q.Q.Q.Q.",
"Q.Q.Q.Q.Q.Q.Q.Q.X 0 2.2.6.u.g.j.j.s.s.g.g.j.g.j.g.g.g.g.g.0.2.J D D F F - X X Q.Q.Q.Q.Q.Q.Q.Q.Q.Q.Q.",
"Q.Q.Q.Q.Q.Q.Q.Q.. : ] 3.2.6.y.y.s.j.j.j.g.j.g.g.j.j.g.g.q.2.>.D G F G c = X X Q.Q.Q.Q.Q.Q.Q.Q.Q.Q.Q.",
"Q.Q.Q.Q.Q.Q.Q.Q.Q.. e 6.3.2.2.2.1.0.y.g.j.g.j.j.j.j.y.9.2.2.+.G G D G 2 X X Q.Q.Q.Q.Q.Q.Q.Q.Q.Q.Q.Q.",
"Q.Q.Q.Q.Q.Q.Q.Q.Q.X = n 2.2.2.2.2.2.2.1.1.1.1.1.1.1.2.2.2.;.D G G G g @ X X Q.Q.Q.Q.Q.Q.Q.Q.Q.Q.Q.Q.",
"Q.Q.Q.Q.Q.Q.Q.Q.Q.Q.. = n 2.5.2.3.2.2.2.2.2.2.2.2.2.5.>.;.D G G A g + X X Q.Q.Q.Q.Q.Q.Q.Q.Q.Q.Q.Q.Q.",
"Q.Q.Q.Q.Q.Q.Q.Q.Q.Q.Q.X + j ] >.2.5.5.2.2.2.2.2.2.>.>.J o.J C k @ + X X o Q.Q.Q.Q.Q.Q.Q.Q.Q.Q.Q.Q.Q.",
"Q.Q.Q.Q.Q.Q.Q.Q.Q.Q.Q.Q.X . - f h l +.;.>.5.5.#.#.@.j f f f : . X X X X Q.Q.Q.Q.Q.Q.Q.Q.Q.Q.Q.Q.Q.Q.",
"Q.Q.Q.Q.Q.Q.Q.Q.Q.Q.Q.Q.Q.X X X X X 2 6 0 e e 6 6 6 @ . X . X X O X Q.Q.Q.Q.Q.Q.Q.Q.Q.Q.Q.Q.Q.Q.Q.Q.",
"Q.Q.Q.Q.Q.Q.Q.Q.Q.Q.Q.Q.Q.Q.Q.Q.Q.X X . X . . . . X X Q.Q.Q.Q.Q.Q.Q.Q.Q.Q.Q.Q.Q.Q.Q.Q.Q.Q.Q.Q.Q.Q.Q.",
"Q.Q.Q.Q.Q.Q.Q.Q.Q.Q.Q.Q.Q.Q.Q.Q.Q.Q.Q.Q.Q.Q.Q.Q.Q.Q.Q.Q.Q.Q.Q.Q.Q.Q.Q.Q.Q.Q.Q.Q.Q.Q.Q.Q.Q.Q.Q.Q.Q.Q.",
"Q.Q.Q.Q.Q.Q.Q.Q.Q.Q.Q.Q.Q.Q.Q.Q.Q.Q.Q.Q.Q.Q.Q.Q.Q.Q.Q.Q.Q.Q.Q.Q.Q.Q.Q.Q.Q.Q.Q.Q.Q.Q.Q.Q.Q.Q.Q.Q.Q.Q.",
"Q.Q.Q.Q.Q.Q.Q.Q.Q.Q.Q.Q.Q.Q.Q.Q.Q.Q.Q.Q.Q.Q.Q.Q.Q.Q.Q.Q.Q.Q.Q.Q.Q.Q.Q.Q.Q.Q.Q.Q.Q.Q.Q.Q.Q.Q.Q.Q.Q.Q.",
"Q.Q.Q.Q.Q.Q.Q.Q.Q.Q.Q.Q.Q.Q.Q.Q.Q.Q.Q.Q.Q.Q.Q.Q.Q.Q.Q.Q.Q.Q.Q.Q.Q.Q.Q.Q.Q.Q.Q.Q.Q.Q.Q.Q.Q.Q.Q.Q.Q.Q.",
"Q.Q.Q.Q.Q.Q.Q.Q.Q.Q.Q.Q.Q.Q.Q.Q.Q.Q.Q.Q.Q.Q.Q.Q.Q.Q.Q.Q.Q.Q.Q.Q.Q.Q.Q.Q.Q.Q.Q.Q.Q.Q.Q.Q.Q.Q.Q.Q.Q.Q.",
"Q.Q.Q.Q.Q.Q.Q.Q.Q.Q.Q.Q.Q.Q.Q.Q.Q.Q.Q.Q.Q.Q.Q.Q.Q.Q.Q.Q.Q.Q.Q.Q.Q.Q.Q.Q.Q.Q.Q.Q.Q.Q.Q.Q.Q.Q.Q.Q.Q.Q.",
"Q.Q.Q.Q.Q.Q.Q.Q.Q.Q.Q.Q.Q.Q.Q.Q.Q.Q.Q.Q.Q.Q.Q.Q.Q.Q.Q.Q.Q.Q.Q.Q.Q.Q.Q.Q.Q.Q.Q.Q.Q.Q.Q.Q.Q.Q.Q.Q.Q.Q.",
"Q.Q.Q.Q.Q.Q.Q.Q.Q.Q.Q.Q.Q.Q.Q.Q.Q.Q.Q.Q.Q.Q.Q.Q.Q.Q.Q.Q.Q.Q.Q.Q.Q.Q.Q.Q.Q.Q.Q.Q.Q.Q.Q.Q.Q.Q.Q.Q.Q.Q."
};
