/* XPM */
static char *result[] = {
/* columns rows colors chars-per-pixel */
"30 30 122 2 ",
"   c #060E1E",
".  c #080F1E",
"X  c #0A111F",
"o  c #050F20",
"O  c #0C1424",
"+  c #0D1728",
"@  c #0E192C",
"#  c #101727",
"$  c #111926",
"%  c #101729",
"&  c #121B2B",
"*  c #191F2E",
"=  c #141E32",
"-  c #181F34",
";  c #19212E",
":  c #172134",
">  c #1C2433",
",  c #1D2639",
"<  c #1F293C",
"1  c #212734",
"2  c #222936",
"3  c #242C3C",
"4  c #282F3D",
"5  c #2C333F",
"6  c #1E2B40",
"7  c #1E2C4A",
"8  c #232C40",
"9  c #212F4B",
"0  c #263144",
"q  c #2D3443",
"w  c #2B354B",
"e  c #2E384B",
"r  c #313642",
"t  c #343944",
"y  c #323B4C",
"u  c #383F4D",
"i  c #333E53",
"p  c #3A414D",
"a  c #364051",
"s  c #3B4354",
"d  c #3A455B",
"f  c #3E495B",
"g  c #374563",
"h  c #384767",
"j  c #444A55",
"k  c #484D57",
"l  c #434C5B",
"z  c #484E59",
"x  c #4A525F",
"c  c #454E62",
"v  c #475467",
"b  c #4A5265",
"n  c #4D5867",
"m  c #42506B",
"M  c #4D566C",
"N  c #545B65",
"B  c #585D67",
"V  c #535C6D",
"C  c #4D5A7A",
"Z  c #5B616B",
"A  c #5C6473",
"S  c #5E6A7D",
"D  c #606773",
"F  c #646A75",
"G  c #646C7B",
"H  c #6B717C",
"J  c #71777F",
"K  c #4F5D81",
"L  c #5F6B81",
"P  c #626D82",
"I  c #657286",
"U  c #687080",
"Y  c #6E7887",
"T  c #6F7A88",
"R  c #727780",
"E  c #747A82",
"W  c #7A7E86",
"Q  c #767D8C",
"!  c #787F8A",
"~  c #7B8087",
"^  c #7C828A",
"/  c #7C8492",
"(  c #74849F",
")  c #7E90B2",
"_  c #81868D",
"`  c #83888E",
"'  c #828790",
"]  c #848A93",
"[  c #898E96",
"{  c #858D9A",
"}  c #888F9A",
"|  c #8B929C",
" . c #91969F",
".. c #858EA3",
"X. c #8790A3",
"o. c #8B94A4",
"O. c #8F98A5",
"+. c #9196A1",
"@. c #929AA6",
"#. c #949DA9",
"$. c #999FA9",
"%. c #96A0AC",
"&. c #9BA3AD",
"*. c #9DA4B1",
"=. c #A3A7AF",
"-. c #A4A9B2",
";. c #AAAFB4",
":. c #AEB1B6",
">. c #AEB2B8",
",. c #B1B4B9",
"<. c #B6B9BC",
"1. c #BBBEC2",
"2. c #B4BDCB",
"3. c #BFC3C6",
"4. c #C0C3C6",
"5. c #C2C5C8",
"6. c #C7CACD",
"7. c #C8CACD",
"8. c #CBCED0",
"9. c #D7DADC",
"0. c #DBDEDF",
"q. c #DEE1E2",
/* pixels */
"0.7.7.7.6.6.6.6.6.6.7.7.7.7.7.7.7.7.7.7.7.7.6.6.6.6.6.6.8.9.",
"1.4 q t t t t t t t t t t r 1 1 r t t t t r t t t t t q q 7.",
":.4 %.o.X...X.X...........&.k p ....X.X.......X.X.o.o.| 3 1.",
":.r ] : : 8 q 3 : 0 0 : = D N > e 8 : 8 q q 8 - 3 : , W 4 4.",
":.5 ~ & ;  .} b & T T > O B j p #.l - Q / /  .1 H , & J 4 4.",
",.5 ~ O > | > t p 3 + + > B j z A , # $ 9 z  .2 ] - # E 3 4.",
",.5 _ O > ` 2 &.{ a o w ..G j j A ( w O j { -.2 [ 1 # J 3 3.",
":.5 _ X ; ` 4 _ > = O & 9 Z j k N 7 @ o = , ` 3 ` - + E 4 4.",
":.q _ % > ` 4 W 8 3 # # O Z j k B + # + 8 3 _ 2 ] , $ E 3 4.",
":.4 $.G G ' 4 _ + o F +.{ *.u j *.{ +.Z O % _ 2 ] A v / 3 4.",
",.& 0 9 d ' 4 _ + O ' b w w + % w 0 n ^ O $ ` 3 ] i 6 8 ; 4.",
",.* . o ; ] 4 _ > > ~ 4 n ! E E W k 5 W : > ` 3 ] 3 > . 1 5.",
",.r + + 2 [ 4 _ 3 3 _ 5 _ V i d A W q ^ 0 3 ` 3 ] q 8 $ p 4.",
",.2 ' ] | } 1 $.{ ] &.3 W 4 G J t Y 5 &.] } $.> | | { W , 4.",
":.q } q 0 > O 3 0 q 3 + E e ) 2.j H O 0 q q 2 + < q q ' 3 5.",
":.q W l { +.{ { ] ] ' > v > 9 w < l > ] ] / +.} / ] l J 3 4.",
":.r ~ < l $.s i a i | 5 +   x z   + 5 | a d %.f i i < R 3 4.",
":.r ~ 0 y ] i N O   ^ E Z Z ] / Z Z E ^   $ ` p Z r w R 3 4.",
":.q ^ g f ` c _ $ X f I L L S G L P I d O $ ` c [ m h J 4 4.",
":.r ^ + , _ 3 ^ : @ w < A Q 3 0 ^ A , 0 2 3 ` 2 ' 1 & W 3 4.",
">.5 ^ & 2 ` 5 ` : : 3 : a / G U / i : 3 , < ` 3 ` 3 = J 3 3.",
",.r ^ O : ;.#.,.o.| } } } *.l l *.} } } } o.%.1 ` > + J 8 5.",
":.5 ~ $ > | i w e e w e e e @ & e e e w e e 0 * [ > $ E 4 4.",
",.5 ~ 3 5 _ * W / ^ [ / Q ^ ^ ^ ^ ^ / { / ^ ^ ^ =.0 3 R 4 4.",
":.5 _ C M / 3 | a a %.z e a w w i e n +.y i e i | C K R 3 5.",
":.5 ^ ; < J 3 ^ O X A 3 H / p p / v 3 %.{ } ` ; J 3 : R 3 4.",
",.5 ` ; : 2 5 [ ; ; > ; w w 3 3 e 3 ; q w e | 3 2 : > W 3 5.",
":.4 &.@.@.O.%.>.@.O.O.%.@.O.O.@.O.O.O.O.O.q } #.O.O.#.o.3 5.",
"<.> 0 w w w w w w w w w w w e w e w w w e : 7 w w w w 8 , 5.",
"0.,.:.:.:.;.;.;.;.:.:.:.:.:.:.:.;.>.>.;.;.>.>.>.>.;.>.>.<.q."
};
