/* XPM */
static char *result[] = {
/* columns rows colors chars-per-pixel */
"30 30 167 2 ",
"   c #020203",
".  c #080807",
"X  c #04060B",
"o  c #05080F",
"O  c #0B0B0B",
"+  c #060A12",
"@  c #0A0D14",
"#  c #0D1014",
"$  c #0D121C",
"%  c #131414",
"&  c #12151C",
"*  c #13191F",
"=  c #1B1B1C",
"-  c #20201F",
";  c #0F1624",
":  c #151A23",
">  c #191D25",
",  c #131C2C",
"<  c #191F2B",
"1  c #161E32",
"2  c #1F2022",
"3  c #1B212B",
"4  c #162133",
"5  c #192335",
"6  c #192639",
"7  c #222323",
"8  c #272826",
"9  c #282827",
"0  c #24262A",
"q  c #27292B",
"w  c #2C2C2B",
"e  c #30302F",
"r  c #212835",
"t  c #212837",
"y  c #2E3238",
"u  c #323333",
"i  c #383736",
"p  c #373836",
"a  c #393937",
"s  c #32353A",
"d  c #35383E",
"f  c #3B3B3B",
"g  c #3F403F",
"h  c #262E44",
"j  c #293346",
"k  c #2F3947",
"l  c #25354D",
"z  c #29344A",
"x  c #343842",
"c  c #3B3E42",
"v  c #2C3955",
"b  c #3D4044",
"n  c #3C434C",
"m  c #444443",
"M  c #474847",
"N  c #484947",
"B  c #464748",
"V  c #474848",
"C  c #4A4B4A",
"Z  c #4F504E",
"A  c #404551",
"S  c #474B51",
"D  c #4E5156",
"F  c #4E535A",
"G  c #545554",
"H  c #575857",
"J  c #5A5A57",
"K  c #555758",
"L  c #5B5C5B",
"P  c #61615F",
"I  c #455266",
"U  c #4B566A",
"Y  c #5C5F63",
"T  c #525E6F",
"R  c #535F71",
"E  c #5E6268",
"W  c #556174",
"Q  c #5A6577",
"!  c #59667A",
"~  c #5E6A7D",
"^  c #636462",
"/  c #676865",
"(  c #65676B",
")  c #65696C",
"_  c #6C6C6A",
"`  c #70706E",
"'  c #676C74",
"]  c #686E75",
"[  c #626C7B",
"{  c #747474",
"}  c #777876",
"|  c #737579",
" . c #7B7C7B",
".. c #80817F",
"X. c #586781",
"o. c #5F6D84",
"O. c #6E7786",
"+. c #68768B",
"@. c #777C83",
"#. c #7B7E83",
"$. c #7C838C",
"%. c #7E8693",
"&. c #868684",
"*. c #878886",
"=. c #898986",
"-. c #83868A",
";. c #86898C",
":. c #8B8B8A",
">. c #91928E",
",. c #808995",
"<. c #8A8E96",
"1. c #848D99",
"2. c #8F9597",
"3. c #8A919B",
"4. c #9A9B97",
"5. c #93969A",
"6. c #9C9D9C",
"7. c #A2A39F",
"8. c #8E94A1",
"9. c #9196A0",
"0. c #939AA4",
"q. c #9A9EA2",
"w. c #919BA8",
"e. c #9DA1A9",
"r. c #A4A5A1",
"t. c #AAABA7",
"y. c #A2A6AC",
"u. c #A6ABAF",
"i. c #ADAEAB",
"p. c #AFB0AC",
"a. c #B1B1AF",
"s. c #A0A7B0",
"d. c #A9AEB4",
"f. c #B9BAB6",
"g. c #BBBCBB",
"h. c #C4C4BE",
"j. c #AFB7C2",
"k. c #B3BAC4",
"l. c #B9BDC4",
"z. c #B6BECB",
"x. c #BAC2CA",
"c. c #C6C6C2",
"v. c #CACAC6",
"b. c #C2C8CF",
"n. c #C9CBCA",
"m. c #D1D1CD",
"M. c #C7CDD2",
"N. c #CBCFD2",
"B. c #CDD1D4",
"V. c #D4D6D4",
"C. c #D7D8D5",
"Z. c #D9DAD4",
"A. c #D0D7DB",
"S. c #D5DADC",
"D. c #DADDDD",
"F. c #E2E3DE",
"G. c #DADEE0",
"H. c #DDE1E2",
"J. c #E4E6E4",
"K. c #EBEBE4",
"L. c #EBEDEB",
"P. c #EFF0EA",
"I. c #F1F1EB",
"U. c #F6F6F1",
"Y. c #F7F8F2",
"T. c #FBFCF5",
"R. c #FFFFFA",
/* pixels */
"V.:.=.=.=.=.=.=.=.=.=.*.=.=.:.=.*.*.*.*.*.*.:.*.=.*.=.*.=.v.",
"r.= 3 $ $ $ $ O   2 8 8 % =   # - % % 8 7 8 O o + & o > = =.",
"7.B w.] ] ] ] u % i.>.=.Z 7.f ..:.{ P :.n.>.7 b ( ] s T K &.",
"7.C %.f a f m = = g.=.C   G 6.=.- } a = c.w   9 B m = W K &.",
"7.B ! D 7  .,.d % f. ./ u 6.} r._  .p = c.w   D #.<.C R K &.",
"7.B ! ( u %.v o O G ^ P i C . w G p % O C O   # 1 X.Y T H &.",
"7.B ~ > % 1.r % 8 * n , , , , : , ; 4 c : 8 % L u [ ^ T H &.",
"7.B Q x r ( w w P j I > : > > > > , : I j P e *.&.$.c R H &.",
"7.N 1.9.O.g m ^ ^ 1 @ B h.h.c.h.c.g.w + 1 P e ..L F 2 W K &.",
"7.> Y ^ ^ u.' J w 4 + L T.T.a.g.R.I.f o 1 P w f L L q W K &.",
"r..   X . <.$. .f 4 @ L Y.7.8 w f.I.a o 1 ^ w C } ` ` q.G *.",
"r.e n V w e _ 0.: 4 + L v.J N C H Z.f o 1 P e ..B p g g % =.",
"7.B !  .:.} &.! o 5 + L F.Z.` =.n.F.a o 1 P e } 2 | ..$.y =.",
"7.m 9.5.s : 5 l o 5 + J T.T._ :.R.I.a o 1 P e { d 2.= > $ =.",
"r.% d A h , 3 #   5 + J T.T._ :.R.I.i o 1 ^ i } 8 7 * @ O *.",
"7.u -.-.-. .=.N   $ . J T.T._ =.T.I.a + < J :.:.% = $.5.g *.",
"7.N | m 2 9 C ( X , o J T.R._ :.T.I.a o 5 . % w w O 3 +.K *.",
"7.M 0.q.I _ 7 n $ 5 + J T.T._ =.R.I.i o 1   O ;.$.& X W H &.",
"7.V Q ' q.>.- ( % 4 + J T.T._ =.R.P.a o 1 Z &.q.=.} s W H &.",
"r.M ! : 2 } % B = 4 + J Y.T.4.i.R.P.a + 1 ^ f w 7 M 2 W K &.",
"r.B o.@ % { 2 1.) 1 + J T.T.6.i.T.I.i o 1 ^ B #.s 1.Y T K &.",
"7.c 0.@.$.#.@ A ^ 4 + H T.T.F.K.T.I.i + 1 L 8.w.: U Y T K &.",
"r.& z h z & X y J , + P T.I.T.Y.U.I.m + 1 # z v X E K R K *.",
"r.% 0 0 0 - - % O = { Z.L.k.H.B.j.I.m.` 0 O X : 7 i u O.J &.",
"r.f q.%.$.$.%.c % L <.x.j.H.L.z.A.k.L.T.f.Z . S $.%.$.3.c *.",
"7.B o.1 4 1 6 k #.9.3.s.N.z.G.L.A.J.T.G.J.N.4.| k t 1 ; . :.",
"r.m W   + x K | B.1.N.D.V.M.V.s.z.z.S.N.z.G.L.S.f.{ u >   :.",
"r.% 3 d ) 6.J.y.q.e.q.{ { k.l.q.b.S.d.d.G.n.d.C.m.J.l.;.8 =.",
"t.@ O w C C C C e e C e u C V C C C V C V C V C B N N C 7 :.",
"F.a.a.i.i.p.i.i.i.p.i.i.i.i.i.i.i.p.p.i.p.i.i.i.i.i.i.i.a.Z."
};
