/* XPM */
static char *result[] = {
/* columns rows colors chars-per-pixel */
"50 50 208 2 ",
"   c #151B2D",
".  c #191D2F",
"X  c #12172C",
"o  c #1C1F31",
"O  c #171E30",
"+  c #0F162B",
"@  c #211E2F",
"#  c #17232F",
"$  c #1B212E",
"%  c #172330",
"&  c #1D2231",
"*  c #192C32",
"=  c #1E2C38",
"-  c #1D3A35",
";  c #1F313C",
":  c #1A3233",
">  c #242334",
",  c #2B2333",
"<  c #232A33",
"1  c #2A2B37",
"2  c #2B2439",
"3  c #2D2C3A",
"4  c #332635",
"5  c #3B2A37",
"6  c #33263D",
"7  c #3A2A39",
"8  c #342B3B",
"9  c #233835",
"0  c #2C3239",
"q  c #29383E",
"w  c #34323D",
"e  c #39353D",
"r  c #3C383E",
"t  c #432C39",
"y  c #4C2E3B",
"u  c #48323D",
"i  c #52313C",
"p  c #5A333E",
"a  c #1E4336",
"s  c #1F4738",
"d  c #264538",
"f  c #23553B",
"g  c #235A3C",
"h  c #285D3E",
"j  c #3B523D",
"k  c #25613E",
"l  c #404231",
"z  c #51413D",
"x  c #48482F",
"c  c #757134",
"v  c #3C2A42",
"b  c #213740",
"n  c #283843",
"m  c #3A3842",
"M  c #422D45",
"N  c #462E48",
"B  c #492F4A",
"V  c #423C43",
"C  c #46364C",
"Z  c #5C3642",
"A  c #54344E",
"S  c #583743",
"D  c #553550",
"F  c #5A3653",
"G  c #5E3855",
"H  c #623743",
"J  c #6C3A42",
"K  c #643846",
"L  c #773E45",
"P  c #633A55",
"I  c #6D3D54",
"U  c #653B59",
"Y  c #6A3D5B",
"T  c #733E53",
"R  c #703F5B",
"E  c #29484A",
"W  c #2B5649",
"Q  c #2F4E50",
"!  c #325454",
"~  c #355A59",
"^  c #345957",
"/  c #2A6643",
"(  c #2B7845",
")  c #3B775E",
"_  c #3A644F",
"`  c #3E6B64",
"'  c #3E7464",
"]  c #4A4346",
"[  c #484345",
"{  c #544B4C",
"}  c #574B4D",
"|  c #5A524C",
" . c #5B4259",
".. c #5E5959",
"X. c #7E4149",
"o. c #75544B",
"O. c #74405A",
"+. c #7B4259",
"@. c #754657",
"#. c #6A5B56",
"$. c #665755",
"%. c #785B57",
"&. c #65425C",
"*. c #4E6C44",
"=. c #466542",
"-. c #4D7847",
";. c #6C6256",
":. c #78665C",
">. c #676347",
",. c #436A66",
"<. c #427369",
"1. c #726F65",
"2. c #83434A",
"3. c #8B454A",
"4. c #94484D",
"5. c #9C4B4E",
"6. c #91474B",
"7. c #864657",
"8. c #9B4C55",
"9. c #944A56",
"0. c #935251",
"q. c #8A5954",
"w. c #A24E56",
"e. c #A94F52",
"r. c #A75057",
"t. c #AB5154",
"y. c #A9595A",
"u. c #B45454",
"i. c #B95655",
"p. c #B95957",
"a. c #B95D59",
"s. c #B45C58",
"d. c #84745F",
"f. c #BB645D",
"g. c #B4645D",
"h. c #B07D53",
"j. c #876F64",
"k. c #897462",
"l. c #947967",
"z. c #BA6C61",
"x. c #BF7164",
"c. c #C47C6A",
"v. c #C17366",
"b. c #2E8446",
"n. c #2E8A47",
"m. c #329B4C",
"M. c #33954C",
"N. c #399C55",
"B. c #378953",
"V. c #33A14C",
"C. c #38A64E",
"Z. c #37B150",
"A. c #3AB451",
"S. c #3AA855",
"D. c #3B8461",
"F. c #5E854B",
"G. c #42944B",
"H. c #53BE56",
"J. c #50B253",
"K. c #4BB052",
"L. c #78AD57",
"P. c #66A052",
"I. c #59C257",
"U. c #68C65A",
"Y. c #78C75C",
"T. c #CBBF3F",
"R. c #B88454",
"E. c #AA8F43",
"W. c #9D846C",
"Q. c #A48D6D",
"!. c #B99F74",
"~. c #B09A76",
"^. c #AC9D7C",
"/. c #AEA07D",
"(. c #CF8D5C",
"). c #D9945F",
"_. c #D79C57",
"`. c #DFA35A",
"'. c #E4AD56",
"]. c #E7B754",
"[. c #C5826D",
"{. c #84C75D",
"}. c #92D662",
"|. c #F1CB4E",
" X c #F5D44B",
".X c #EEC553",
"XX c #FBE446",
"oX c #FFEE45",
"OX c #FBE85C",
"+X c #F7DE68",
"@X c #FFF47B",
"#X c #FDEE7A",
"$X c #CDAC80",
"%X c #C9B489",
"&X c #E7D193",
"*X c #FFF589",
"=X c #FFF499",
"-X c #F4E78E",
";X c #DDCBA6",
":X c #EBDBA7",
">X c #FFF7B0",
",X c #FFFAC7",
"<X c #FFFACA",
"1X c #FFFDDF",
"2X c #FFFCE4",
"3X c #FFFEF4",
"4X c #FFFEFB",
"5X c None",
/* pixels */
"5X5X5X5X5X5X5X5X5X5X5X5X5X5X5X5X5X5X5X5X5X5X5X5X5X5X5X5X5X5X5X5X5X5X5X5X5X5X5X5X5X5X5X5X5X5X5X5X5X5X",
"5X5X5X5X5X5X5X5X5X5X5X5X5X5X5X5X5X5X5X5X5X5X5X5X5X5X5X5X5X5X5X5X5X5X5X5X5X5X5X5X5X5X5X5X5X5X5X5X5X5X",
"5X5X5X5X5X|.|.`.).5X5X5X5X5X5X5X5X5X5X5X5X5X5X5X5X5X5X5X5X5X5X5X5X5X5X5X5X5X5X5X5X5X5X5X5X5X5X5X5X5X",
"5X5X5X5X].XXXX'._.).).5X5X5X5X5X5X5X5X5X5X5X5X5X5X5X5X5X5X5X5X5X5X5X5X5X5X5X5X5X5X5X5X5X5X5X5X5X5X5X",
"5X5X5X_.|..XXXOX+X|.].).5X5X5X5X5X5X5X5X5XO i H , 5X5X5X5X5X5X5X5X5X5X5X5X5X5X5X5X5X5X5X5X5X5X5X5X5X",
"5X5X5X(.`. X*X2X1XOX'.).).5X5X5X5X5X5X5X5X  4 6.4.y   5X5X5X5X5X5X5X5X5X5X5X5X5X5X5X5X5X5X5X5X5X5X5X",
"5X5X5Xh. XoX>X3X-X'.).).).).).5X5X5X5X5X5X5X& q.a.e.S O 5X5X5X5X5X5X5X5X5X5X5X5X5X5X5X5X5X5X5X5X5X5X",
"5X5X5XR.XXoX<X<X|.).).).).).).5X5X5X5X5X5X> %.v.p.t.R 6   5X5X5X5X5X5X5X5X5X5X5X5X5X5X5X5X5X5X5X5X5X",
"5X5X5XE.@X=X3X,X|.R.5X5X5X5X5X5X5X5X5X5X& o.g.Z y y F G 2 5X5X5X5X5X5X5X5X5X5X5X5X5X5X5X5X5X5X5X5X5X",
"5X5X5Xc *X=X3X<X'.>.5X5X5X5X5X5X).5X5X5Xu g.7.7 7 7 K Y F o 5X5X5X5X9 9 5X5X5X5X5X5X5X5X5X5X5X5X5X5X",
"5X5X5Xl ].#X3X=X_.e 5X5X5X5X5X5X).).5X> q.p.r.t.t.u.w.Y U v   5X5X* G.=.5X5X5X5X5X5X5X5X5X5X5X5X5X5X",
"5X5X5X5Xx -X4X#X_.5 5X5X5X. . 5X5X).z y f.v.a.L t J X.P U F >   * b.U.=.5X5X5X5X5X5X5X5X5X5X5X5X5X5X",
"5X5X5X5X& >.;X&X!.< 5X5X* -.k $ 5X5X1 3.y.@.M $ . 5 8 v A Y v O ( I.L.* 5X5X5X5X5X5X5X5X5X5X5X5X5X5X",
"5X5X5X5X+ ;.&X:X:X;.5X5X  -.H.b.d + t t.T v t y 2.t.t.r.7.Y v n N.U.F.+ 5X5X5X5X5X5X5X5X5X5X5X5X5X5X",
"5X5X5X5X5X| %X:X%X~.< 5X5Xj {.I.M.; t t.7.8.f.f.a.i.u.8.+.Y C ~ N.Y.*.5X5X5X5X5X5X5X5X5X5X5X5X5X5X5X",
"5X5X5X5X5X> /.%X| /.w 5X5X. *.Y.A.) 1 5.a.x.[.[.c.y.O.Y Y Y  .<.D.K.d 5X5X5X5X5X5X5X5X5X5X5X5X5X5X5X",
"5X5X5X5X5X| !.] 0 V & 5X5X5X& P.A.D.$.g.c.[.c.f.f.y.O.Y Y Y &.,.` W $ 5X5X5X5X5X5X5X5X5X5X5X5X5X5X5X",
"5X5X5X5X5X> w   3 > 5X5X5X5X5Xd N.' 1.c.c.f.s.i.u.u.+.U U Y R G n O   5X5X5X5X5X5X5X5X5X5X5X5X5X5X5X",
"5X5X5X5X5X5X  e :.] 5X5X5X5X5X# E ! l.c.f.u.t.u.t.7.U B 2 K 8.O.F 6 . 5X5X5X5X5X5X5X5X5X5X5X5X5X5X5X",
"5X5X5X5X5X5X5XV j.#.5X5X5X5X5X  X p z.f.e.i , y H N 6 & ; O L r.R G > 5X5X5X5X5X5X5X5X5X5X5X5X5X5X5X",
"5X5X5X5X5X5X5X3 %.j.1 5X5X5X5XX y s.p.u.i a g : % % a / ` = , 5.9.P 2 5X5X5X5X5X5X5X5X5X5X5X5X5X5X5X",
"5X5X5X5X5X5X5X& { #.> O 5X5X5X> 0.[.f.J * m.A.m.m.m.S.S.' Q q Z t.T > 5X5X5X5X5X5X5X5X5X5X5X5X5X5X5X",
"5X5X5X5X5X5X5X  O o : / # 5X5X4 y.c.u.5 ! ) m.A.A.A.A.m.W <.E 7 8.M . 5X5X5X5X5X5X5X5X5X5X5X5X5X5X5X",
"5X5X5X5X5X5X5X& =.*.- n.a 5X5X. H s.e.1 ^ ,.W J.U.Z.A.b.~ ` ; J T o 5X5X5X5X5X5X5X5X5X5X5X5X5X5X5X5X",
"5X5X5X5X5X5X5Xd U.}.F.d # 5X5X5X. 2.u.y q ` Q _ Y.K.Z.f ~ Q , X.7 X 5X5X5X5X5X5X5X5X5X5X5X5X5X5X5X5X",
"5X5X5X5X5X5X5X* M.I.J.-     5X5X5X5 X.X.& E ^ * L.U.m.- ^ = Z T D > 5X5X5X% f :   5X5X5X5X5X5X5X5X5X",
"5X5X5X5X5X5X5X5X/ A.m.-     . 5X5X5X6 O.A 3 ^ ; *.Y.n.q n 6 Y Y U > 5X5X5Xs Z.n.* 5X5X5X5X5X5X5X5X5X",
"5X5X5X5X5X5X5X5X# g - o 5X5X  . . 5Xi u.8.T m C q V.h A F U Y Y v . O . . ( A.A.g   5X5X5X5X5X5X5X5X",
"5X5X5X5X5X5X5X5X5X  w { & 5X5X5X. X i i.u.u.4.O.M a q U Y Y G v 8 } > 5XX s V.A.f   5X5X5X5X5X5X5X5X",
"5X5X5X5X5X5X5X5X5X  V $.& 5X5X5X5X5X5 5.p.p.p.t.Y v 6 U P B v [ #.$.& 5X5X. - f & 5X5X5X5X5X5X5X5X5X",
"5X5X5X5X5X5X5X5X5X5XO & 5X5X5X5X5X5XX 4 i X.4.4.P M 2 6 1 e Q.W.V & o X 5X5X5X5X5X5X5X5X5X5X5X5X5X5X",
"5X5X5X5X5X5X5X5X5X5X5X5X5X5X5X5X5X5X1 #.u r V e . e d.[ m k.d.m v D D & . 5X5X5X5X5X5X5X5X5X5X5X5X5X",
"5X5X5X5X5X5X5X5X5X5X5X5X5X5X5X5X5X5X. ;.l.l.Q.l.e :.!.k.& 1 v P Y P G F 2 5X5X5X5X5X5X5X5X5X5X5X5X5X",
"5X5X5X5X5X5X5X5X5X5X5X5X5X5X5X5X5X5X  > 3 1 w V > [ #.] ] < 2 D v 2 > B 2 5X5X5X5X5X5X5X5X5X5X5X5X5X",
"5X5X5X5X5X5X5X5X5X5X5X5X5X5X5X5X5X5X> I +.8.2.@ V |   O V { . .         O 5X5X5X5X5X5X5X5X5X5X5X5X5X",
"5X5X5X5X5X5X5X5X5X5X5X5X5X5X5X5X5X5XH p.u.w.J o :.{     & } > 5X5XO   5X5X5X5X5X5X5X5X5X5X5X5X5X5X5X",
"5X5X5X5X5X5X5X5X5X5X5X5X5X5X5X5X5X. J J t , . & j.e 5X5X5X. . 5X5XO   5X5X5X5X5X5X5X5X5X5X5X5X5X5X5X",
"5X5X5X5X5X5X5X5X5X5X5X5X5X5X5X5X5X. . . X       1 & 5X5X5X5X5X5X5X5X  O 5X5X5X5X5X5X5X5X5X5X5X5X5X5X",
"5X5X5X5X5X5X5X5X5X5X5X5X5X5X5X5X5X5X5X5X.   5X5X5X5X5X5X5X5X5X5X5X5X5X5X5X5X5X5X5X5X5X5X5X5X5X5X5X5X",
"5X5X5X5X5X5X5X5X5X5X5X5X5X5X5X5X5X5X5X5X.   5X5X5X5X5X5X5X5X5X5X5X5X5X5X5X5X5X5X5X5X5X5X5X5X5X5X5X5X",
"5X5X5X5X5X5X5X5X5X5X5X5X5X5X5X5X5X5X5X.   . 5X5X5X5X5X5X5X5X5X5X5X5X5X5X5X5X5X5X5X5X5X5X5X5X5X5X5X5X",
"5X5X5X5X5X5X5X5X5X5X5X5X5X5X5X5X5X5X5X5X5X5X5X5X5X5X5X5X5X5X5X5X5X5X5X5X5X5X5X5X5X5X5X5X5X5X5X5X5X5X",
"5X5X5X5X5X5X5X5X5X5X5X5X5X5X5X5X5X5X5X5X5X5X5X5X5X5X5X5X5X5X5X5X5X5X5X5X5X5X5X5X5X5X5X5X5X5X5X5X5X5X",
"5X5X5X5X5X5X5X5X5X5X5X5X5X5X5X5X5X5X5X5X5X5X5X5X5X5X5X5X5X5X5X5X5X5X5X5X5X5X5X5X5X5X5X5X5X5X5X5X5X5X",
"5X5X5X5X5X5X5X5X5X5X5X5X5X5X5X5X5X5X5X5X5X5X5X5X5X5X5X5X5X5X5X5X5X5X5X5X5X5X5X5X5X5X5X5X5X5X5X5X5X5X",
"5X5X5X5X5X5X5X5X5X5X5X5X5X5X5X5X5X5X5X5X5X5X5X5X5X5X5X5X5X5X5X5X5X5X5X5X5X5X5X5X5X5X5X5X5X5X5X5X5X5X",
"5X5X5X5X5X5X5X5X5X5X5X5X5X5X5X5X5X5X5X5X5X5X5X5X5X5X5X5X5X5X5X5X5X5X5X5X5X5X5X5X5X5X5X5X5X5X5X5X5X5X",
"5X5X5X5X5X5X5X5X5X5X5X5X5X5X5X5X5X5X5X5X5X5X5X5X5X5X5X5X5X5X5X5X5X5X5X5X5X5X5X5X5X5X5X5X5X5X5X5X5X5X",
"5X5X5X5X5X5X5X5X5X5X5X5X5X5X5X5X5X5X5X5X5X5X5X5X5X5X5X5X5X5X5X5X5X5X5X5X5X5X5X5X5X5X5X5X5X5X5X5X5X5X",
"5X5X5X5X5X5X5X5X5X5X5X5X5X5X5X5X5X5X5X5X5X5X5X5X5X5X5X5X5X5X5X5X5X5X5X5X5X5X5X5X5X5X5X5X5X5X5X5X5X5X"
};
