/* XPM */
static char *result[] = {
/* columns rows colors chars-per-pixel */
"50 50 211 2 ",
"   c #151B2D",
".  c #1A1D2F",
"X  c #13172C",
"o  c #1D1F31",
"O  c #091229",
"+  c #211F30",
"@  c #17222F",
"#  c #1A222F",
"$  c #1C2232",
"%  c #1D2A35",
"&  c #1B2B36",
"*  c #1D3C36",
"=  c #1E3336",
"-  c #242334",
";  c #2B2433",
":  c #232A35",
">  c #2C2935",
",  c #2B2439",
"<  c #2D2B39",
"1  c #332D3D",
"2  c #3B2A3A",
"3  c #372836",
"4  c #22323C",
"5  c #273836",
"6  c #363831",
"7  c #39353D",
"8  c #373539",
"9  c #25292F",
"0  c #432C39",
"q  c #442C39",
"w  c #45343C",
"e  c #4D313E",
"r  c #59333D",
"t  c #54313D",
"y  c #1E4A38",
"u  c #264839",
"i  c #24583B",
"p  c #3A533D",
"a  c #28643F",
"s  c #474037",
"d  c #756A3A",
"f  c #3C2A42",
"g  c #372840",
"h  c #243B43",
"j  c #273541",
"k  c #3E3A41",
"l  c #432D46",
"z  c #453E44",
"x  c #52334D",
"c  c #583541",
"v  c #593652",
"b  c #5D3A54",
"n  c #563551",
"m  c #683944",
"M  c #723C44",
"N  c #7A3F46",
"B  c #663B59",
"V  c #6A3D5B",
"C  c #693B53",
"Z  c #723F57",
"A  c #294748",
"S  c #2E4E51",
"D  c #325454",
"F  c #375D5B",
"G  c #315C52",
"H  c #2D524B",
"J  c #2C7B44",
"K  c #297242",
"L  c #366459",
"P  c #3D6962",
"I  c #3F7566",
"U  c #474545",
"Y  c #534A4B",
"T  c #5A4C4E",
"R  c #574245",
"E  c #5D554E",
"W  c #565357",
"Q  c #7E434C",
"!  c #764046",
"~  c #7C4359",
"^  c #74415A",
"/  c #655954",
"(  c #6D4B52",
")  c #446241",
"_  c #537446",
"`  c #5A7F49",
"'  c #49655F",
"]  c #6C6256",
"[  c #7C6A5D",
"{  c #776558",
"}  c #6D6B46",
"|  c #436D67",
" . c #566B64",
".. c #7A7262",
"X. c #827D38",
"o. c #88464B",
"O. c #92474B",
"+. c #9D4C4F",
"@. c #96494D",
"#. c #884655",
"$. c #954B55",
"%. c #9B4C54",
"&. c #954A59",
"*. c #9A5855",
"=. c #A34E53",
"-. c #AC5154",
";. c #AA5958",
":. c #B45455",
">. c #B85555",
",. c #B65B58",
"<. c #87624A",
"1. c #9F7050",
"2. c #BC645D",
"3. c #B5625D",
"4. c #A47351",
"5. c #897663",
"6. c #9E7366",
"7. c #907668",
"8. c #846F61",
"9. c #BE6A61",
"0. c #B46A61",
"q. c #A67966",
"w. c #B47F63",
"e. c #C27566",
"r. c #C37A69",
"t. c #C06E62",
"y. c #369E4C",
"u. c #398958",
"i. c #32884B",
"p. c #34A64E",
"a. c #3BA853",
"s. c #37B250",
"d. c #39B351",
"f. c #3E8762",
"g. c #5F944F",
"h. c #658E4D",
"j. c #46B853",
"k. c #58BF57",
"l. c #68A954",
"z. c #75BE5A",
"x. c #62C459",
"c. c #6BC65B",
"v. c #7ACA5D",
"b. c #8A8339",
"n. c #918A39",
"m. c #BFB53E",
"M. c #CCBF3D",
"N. c #D4C83F",
"B. c #E7D83F",
"V. c #B29A44",
"C. c #84BD5B",
"Z. c #9A826B",
"A. c #BD8562",
"S. c #A59474",
"D. c #B39575",
"F. c #BCA57D",
"G. c #D6915F",
"H. c #D9945F",
"J. c #DC9B5C",
"K. c #C5875A",
"L. c #DEA25A",
"P. c #E4AD57",
"I. c #E0A559",
"U. c #E2A958",
"Y. c #E6B255",
"T. c #EABB52",
"R. c #E8B754",
"E. c #EABC4F",
"W. c #C78667",
"Q. c #D79060",
"!. c #DAAF6F",
"~. c #E3AE68",
"^. c #D8CA40",
"/. c #EFC94D",
"(. c #EEC64F",
"). c #F1CD4D",
"_. c #E8D841",
"`. c #F7DA49",
"'. c #F8DD48",
"]. c #F5D64A",
"[. c #EDC350",
"{. c #FBE446",
"}. c #FFED43",
"|. c #FBEA47",
" X c #FFEE52",
".X c #FEED5C",
"XX c #FAE459",
"oX c #FFF05D",
"OX c #FFF04D",
"+X c #FFF172",
"@X c #FFF37A",
"#X c #FEEE68",
"$X c #C9B388",
"%X c #D2C395",
"&X c #E2CC9B",
"*X c #FFF599",
"=X c #FEF288",
"-X c #D1C4A7",
";X c #EDDCA5",
":X c #F6E8AD",
">X c #FEF6AC",
",X c #FFF7A7",
"<X c #FFF8BA",
"1X c #FEF6B2",
"2X c #F2E6B2",
"3X c #E8DEC3",
"4X c #FDF9D9",
"5X c #FDF8E6",
"6X c #FFFDF3",
"7X c #FFFEFD",
"8X c None",
/* pixels */
"8X8X8X8X8X8X8X8X8X8X8X8X8X8X8X8X8X8X8X8X8X8X8X8X8X8XX @ 9 ; X 8X8X8X8X8X8X8X8X8X8X8X8X8X8X8X8X8X8X8X",
"8X8X8X8X8X8X8X8X8X8X8X8X8X8X8X8X8X8X8X8X8X8X8X8XX - R Q =.+.M 0   8X8X8X8X8X8X8X8X8X8X8X8X8X8X8X8X8X",
"8X8X8X8X8X8X8X8X8X8X8X8X8X8X8X8X8X8X8X8X8X8X8X+ ( *.2.,.-.&.$.+.2 8X8X8X8X8X8X8X8X8X8X8X8X8X8X8X8X8X",
"8X8X8X8X8X8X8X8X8X8X8X8X8X8X8X8X8X8X5 $ 8X8X$ { 2.! r ! Z n f e 0   8X8X8X8X8X8X8X8X8X8X8X8X8X8X8X8X",
"8X8X8X8X8X8X8X8X8X8X8X8X8X8X8X8X8X_ ` % 8X. ! ,.=.x 2 3 0 x ,   8X8X8X8X8X8X8X8X8X8X8X8X8X8X8X8X8X8X",
"8X8X8X8X8X8X8X8X8X8X8X8X8X8X8X8X_ v.u X . m 3.2.2.&.o.=.=.Z x o 8X8X8X8X8X8X8X8X8X8X8X8X8X8X8X8X8X8X",
"8X8X8X8X8X8X8X8X8X8X8X8X8X8X8X$ g.j.a X t -.#.b R 1 + q C V V f   8X8X8X8X8X8X8X8X8X8X8X8X8X8X8X8X8X",
"8X8X8X8X8X8X8X8X8X8X8X8X8X8X8X6 z.d.u.& M -.C 0 3 M ! e , f v n + 8X8X    . 8X8X8X8X8X8X8X8X8X8X8X8X",
"8X8X8X8X8X8X8X8X8X8X8X8X8X8X8X5 l.d.f.S N >.,.,.,.>.>.:.%.%.~ V g   * K J K # 8X8X8X8X8X8X8X8X8X8X8X",
"8X8X8X8X8X8X8X8X8X8X8X8X8X8X8X8X* u.|  .0.r.W.W.r.e.3.=.=.&.^ v & G a.x.v.x.a X 8X8X8X8X8X8X8X8X8X8X",
"8X8X8X8X8X8X8X8X8X8X8X8X8X8X8X8X  h | q.W.9.2.2.3.2.;.Z B B V v S f.k.C._ G i . 8X8X8X8X8X8X8X8X8X8X",
"8X8X8X8X8X8X8X8X8X8X8X8X8X8X8X8XX 3 #.r.9.*.o.-.>.:.-.~ V V B ( P g.j.G 8X8X. 8X8X8X8X8X8X8X8X8X8X8X",
"8X8X8X8X8X8X8X8X8X8X8X8X8X8X8X8X0 ;.t.:.Q ; . t $.&.^ B v B ~ V W L H @ 8X8X8X8X8X8X8X8X8X8X8X8X8X8X",
"8X8X8X8X8X8X8X8X8X8X8X8X8X8X8X  ! e.t.O.+ a a * + , - , o , $.#.v - X 8X8X8X8X8X8X8X8X8X8X8X8X8X8X8X",
"8X8X8X8X8X8X8X8X8X8X8X8X8X8X8X  m 2.+.7 S u.s.y.i y y A G $ 2 -.~ B , 8X8X8X8X8X8X8X8X8X8X8X8X8X8X8X",
"8X8X8X8X8X8X8X8X8X8X8X8X8X8X8X8X; =.N % F L J j.s.s.s.a.I j - +.&.V l 8X8X8X8X8X8X8X8X8X8X8X8X8X8X8X",
"8X8X8X8X8X8X8X8X8X8X8X8X8X8X8X8X8Xt +.; S F & l.j.d.d.J D F & N =.V f 8X8X8X8X8X8X8X8X8X8X8X8X8X8X8X",
"8X8X8X8X8X8X8X8X8X8X8X8X8X8X8X8X. 3 Q 2 = P 4 h.x.d.p.* F P h N &.v o 8X8X8X8X8X8X8X8X8X8X8X8X8X8X8X",
"8X8X8X8X8X8X8X8X8X8X8X8X8X8X8X  g b B b ; A h ) c.s.i = | A q $.B - 8X8X8X8X8X8X8X8X8X8X8X8X8X8X8X8X",
"8X8X8X8X8X8X8X8X8X8X8X8X8X8X8X1 f x V V ^ l 4 p v.j.u S h l #.m +   8X8X8X8X8X8X8X8X8X8X8X8X8X8X8X8X",
"8X8X8X8X8X8X8X8X8X8X8X8X8X8X: [ [ , f #.:.-.m $ h.y.= j l Z V 2   8X8X8X8X8X8X8X8X8X8X8X8X8X8X8X8X8X",
"8X8X8X8X8X8X8X8X8X8X8X8X8X8Xo 7 Z.5./ e m ! c > 4 K % x V B l o 8X8X8X8X8X8X8X8X8X8X8X8X8X8X8X8X8X8X",
"8X8X8X8X8X8X8X8X8X8X8X8X8X  2 , k 5.D.7.] @ / 5.- % - g - :     8X8X8X8X8X8X8X8X8X8X8X8X8X8X8X8X8X8X",
"8X8X8X8X8X8X8X8X8X8X8X8X8X+ o.#.t 3 T { Y # [ s T T $ y J p.J =   8X8X8X8X8X8X8X8X8X8X8X8X8X8X8X8X8X",
"8X8X8X8X8X8X8X8X8X8X8X8X8X8X0 M +.O.@.O., T 8 > 1 < * p.d.d.v.) o 8X8X8X8X8X8X8X8X8X8X8X8X8X8X8X8X8X",
"6.6.8X8X8X8X8X8X8X8X8X8X8X8X  # + ; 2 r > 8.] T -   * s.s.x.C.U / T Y - o ] ..z   8X6 6 6 6 8X8X8X8X",
"8X6.8X8X8X8X8X8X8X8X8X8X8X8X8X  X         E 5.U E 1 4 i.p.x.` : / 7.8.U k 5.$X$X/ } N.B._.N.b.9 8X8X",
"8X8X8X8X8X8X8X8X8X8X8X8X8X8X8X  . 8X8X8X8X. : - / z   # 5 a u   - z T z   A $X:X3X4X,X+XoX}.|.n.8X8X",
"8X8X8X8X8X8X8X8X8X8X8X8X8X8X.     8X8X8X8X8X8X8X. $   8XX X     8X  $   7 F.;X2X6X7X7X6X5X>X X}.b.8X",
"8X8X6.6.8X8X8X8X8X8X8X8X8X8X    8X8X8X8X8X8X8X8X8X8X8X8X    8X8X8X8X8X  { S.S.&X-X2X7X7X7X7X1XOXN.8X",
"8X8X8X6.6.8X8X8X8X8X8X8X8X8X8X8X8X8X8X8X8X8X8X8X8X8X8X8X  @ 8X8X8X8X8X8X% % U E U !.7X>X:X7X7X,X{.8X",
"8X8XQ.q.6.8X8X8X8X8X8X8X8X8X8X8X8X8X8X8X8X8X8X8X8X8X8X8X8X8X8X8X8X8X8X8X8X8X8XO 7 J.=XXX~.5X7X*X}.8X",
"8X8XQ.W.6.6.8X8X8X8X8X8X8X8X8X8X8X8X8X8X8X8X8X8X8X8X8X8X8X8X8X8X8X8X8X8X8X8X8X. <.U.'.E.Y.>X7X@X}.8X",
"8X8XH.H.A.6.6.8X8X8X8X8X8X8X8X8X8X8X8X8X8X8X8X8X8X8X8X8X8X8X8X8X8X8X8X8X8X8X8X8 K.J.J.H.E.,X6X+X}.8X",
"8X8X8XJ.H.A.6.6.8X8X8X8X8X8X8X8X8X8X8X8X8X8X8X8X8X8X8X8X8X8X8X8X8X8X8X8X8X8X8 4.H.I.L.H.].1X4XOX}.8X",
"8X8X8XH.H.G.A.6.8X8X8X8X8X8X8X8X8X8X8X8X8X8X8X8X8X8X8X8X8X8X8X8X8X8X8X8X8X8X1.Q.U.'.].T.#X6X,X}.}.8X",
"8X8X8X8XQ.H.W.6.6.8X8X8X8X8X8X8X8X8X8X8X8X8X8X8X8X8X8X8X8X8X8X8X8X8X8X8XQ.J.Q.L.`.}./.}.*X5X@X}.}.8X",
"8X8XH.H.H.H.8X8X6.8X8X8X6.6.q.8X8X8X8X8X8X8X8X8X8X8X8XJ.Q.Q.8X8X8X8X8XQ.Q.Q.Q.I./.Y.P.}..X.X}.}.8X8X",
"8X8X8XJ.(.I.Q.8X8X8X8X8X8XA.q.q.8X8X8X8X8X8X8X8X8X8XQ.Q.Q.8X8X8X8X8XQ.J.J.Q.8X8XH.H./.oX>X X}.m.8X8X",
"8X8X8X8X/.'.L.Q.8X8XH.8X8XH.G.G.8X8X8X8X8X8X8X8X8X8X8X8X8X8X8X8X8XJ.Q.Q.8X8X8X8XG.P. X4X<X|.B.d 8X8X",
"8X8X8X8X8X).U.J.H.8XH.H.8XQ.H.H.Q.8X8XQ.Q.8X8X8X8X8X8X8X8X8X8X8X8X8X8X8X8X}.}.8X8X{.@X4X#X}.b.8X8X8X",
"8X8X8X8X8X8XQ.Q.H.I.I.G.H.H.H.H.Q.J.8XJ.Q.J.8X8X8X8XQ.8X8X8X8X8X}.8X8X}.}.}.8X8X}.}. X X}.V.8X8X8X8X",
"8X8X8X8X8X8X8XQ.H.Y.`.P.H.G.H.H.Q.Q.R.).J.H.8X8X8X8X8X8X8X8X}.}.}.}.}.}.}.8X8XI.Y.|.|./.d > 8X8X8X8X",
"8X8X8X8X8X8X8X8XH.J.{.}.[.U.J.H.Q.Q.P.{.'.[.Y.J.J.J.8X8X8X8X8X}.|.).T.U.8X8XH.H.L.'.[.<.$ 8X8X8X8X8X",
"8X8X8X8X8X8X8X8X8X8X{.}.}.{.`.T.P.J.8X8X|.}.].R.T.L.Q.H.H.H.8X8XP.Q.Q.Q.P.J.Q.H.Q.I.8X8X8X8X8X8X8X8X",
"8X8X8X8X8X8X8X8X8X8X8X8X}.}.}.}.}.'.[.8X8X8XY.T.L.J.H.H.Q.Q.8XQ.J.U.[.[.(.J.H.H.Q.8X8X8X8X8X8X8X8X8X",
"8X8X8X8X8X8X8X8X8X8X8X8X8X8X}.}.}.}.}.}.8X8X8X}.'.{./.T.T.T.T.[.'.{.}.).J.H.J.8X8X8X8X8X8X8X8X8X8X8X",
"8X8X8X8X8X8X8X8X8X8X8X8X8X8X8X8X8X8X8X8X8X8X}.}.}.}.}.}.}.}.}.}.{.).Y.J.Q.H.8X8X8X8X8X8X8X8X8X8X8X8X",
"8X8X8X8X8X8X8X8X8X8X8X8X8X8X8X8X8X8X8X8X8X8X8X}.}.}.}.OX}.}.}.|.Y.Q.Q.Q.8X8X8X8X8X8X8X8X8X8X8X8X8X8X",
"8X8X8X8X8X8X8X8X8X8X8X8X8X8X8X8X8X8X8X8X8X8X8X8X8X}.}.}.}.}.8X8X8X8X8X8X8X8X8X8X8X8X8X8X8X8X8X8X8X8X"
};
