/* XPM */
static char *result[] = {
/* columns rows colors chars-per-pixel */
"50 50 208 2 ",
"   c #151B2D",
".  c #1A1D2F",
"X  c #11172B",
"o  c #1C1E31",
"O  c #171F30",
"+  c #231F34",
"@  c #281F33",
"#  c #19212F",
"$  c #1C2332",
"%  c #1B2C33",
"&  c #172A32",
"*  c #1C3736",
"=  c #25292F",
"-  c #22262F",
";  c #232333",
":  c #2B2433",
">  c #292935",
",  c #2B2439",
"<  c #2E2D39",
"1  c #242C37",
"2  c #312B36",
"3  c #3B2937",
"4  c #3B2A39",
"5  c #352938",
"6  c #25353A",
"7  c #34333C",
"8  c #3C323D",
"9  c #432C39",
"0  c #4B2F3C",
"q  c #46383B",
"w  c #54313D",
"e  c #5C353F",
"r  c #62353F",
"t  c #1F4B38",
"y  c #2C493A",
"u  c #34493B",
"i  c #22533A",
"p  c #265B3E",
"a  c #434432",
"s  c #56453D",
"d  c #515133",
"f  c #787338",
"g  c #392941",
"h  c #253A42",
"j  c #383A42",
"k  c #422D46",
"l  c #472F48",
"z  c #492F49",
"x  c #483347",
"c  c #52334E",
"v  c #573545",
"b  c #5C3955",
"n  c #463F50",
"m  c #6B3A43",
"M  c #653A4A",
"N  c #743E48",
"B  c #623956",
"V  c #653B59",
"C  c #6A3D5B",
"Z  c #733F56",
"A  c #29454B",
"S  c #2A5947",
"D  c #2F4E50",
"F  c #355C59",
"G  c #355A54",
"H  c #364B4C",
"J  c #296944",
"K  c #376541",
"L  c #2B7943",
"P  c #39625D",
"I  c #387859",
"U  c #3C6963",
"Y  c #3C7D61",
"T  c #494246",
"R  c #4F4748",
"E  c #574D4C",
"W  c #59514C",
"Q  c #54524B",
"!  c #634B41",
"~  c #7E4149",
"^  c #6A5445",
"/  c #795847",
"(  c #7A4159",
")  c #665853",
"_  c #6F4B57",
"`  c #557D49",
"'  c #4A7046",
"]  c #78675A",
"[  c #585360",
"{  c #417368",
"}  c #406F67",
"|  c #6D7165",
" . c #857F38",
".. c #8A454A",
"X. c #934A4D",
"o. c #9B4A4D",
"O. c #864557",
"+. c #9C4C55",
"@. c #924956",
"#. c #9C5956",
"$. c #A34D4F",
"%. c #A34E53",
"&. c #A84F51",
"*. c #AB5154",
"=. c #A75558",
"-. c #B45454",
";. c #BB5E5A",
":. c #B35A58",
">. c #9D6E50",
",. c #BA615B",
"<. c #B4635D",
"1. c #AB7853",
"2. c #AE7058",
"3. c #8B7465",
"4. c #817868",
"5. c #9E7466",
"6. c #957D69",
"7. c #BD6C63",
"8. c #A37464",
"9. c #BA7863",
"0. c #C37C6A",
"q. c #C17566",
"w. c #C06D62",
"e. c #2E8947",
"r. c #36994B",
"t. c #3B9A5A",
"y. c #388459",
"u. c #35AA4F",
"i. c #36A54E",
"p. c #37B351",
"a. c #3BB452",
"s. c #39A055",
"d. c #4E9152",
"f. c #65914F",
"g. c #689550",
"h. c #46B854",
"j. c #52BD56",
"k. c #4FA450",
"l. c #60A452",
"z. c #67C75A",
"x. c #7BC95C",
"c. c #938C39",
"v. c #9E953B",
"b. c #8A8439",
"n. c #B7AD3D",
"m. c #BD8358",
"M. c #97886D",
"N. c #8D836C",
"B. c #BA8269",
"V. c #AD9573",
"C. c #AD9372",
"Z. c #B4A17C",
"A. c #D5925E",
"S. c #D9945F",
"D. c #DC9B5C",
"F. c #CF8D5C",
"G. c #DEA15A",
"H. c #DDA557",
"J. c #E3AD56",
"K. c #E0A559",
"L. c #E2A958",
"P. c #E6B455",
"I. c #E9BA53",
"U. c #E8B953",
"Y. c #C28467",
"T. c #DB9460",
"R. c #DCA660",
"E. c #8AC95E",
"W. c #EEC64F",
"Q. c #EFC94F",
"!. c #F1CC4D",
"~. c #E8D942",
"^. c #F3D34B",
"/. c #F7DA49",
"(. c #F8DD48",
"). c #ECC250",
"_. c #FBE446",
"`. c #FFED44",
"'. c #FFED4C",
"]. c #F5E443",
"[. c #FFEE54",
"{. c #FFEF5C",
"}. c #FAE550",
"|. c #E3CB7D",
" X c #FDEA63",
".X c #FFF168",
"XX c #FFF278",
"oX c #C2B38B",
"OX c #DBC594",
"+X c #ECDB9F",
"@X c #FFF384",
"#X c #FFF48E",
"$X c #FFF59D",
"%X c #FEF696",
"&X c #F4E58F",
"*X c #EBD8A3",
"=X c #FEF4A4",
"-X c #FFF7AE",
";X c #FFF8B4",
":X c #F1E3AE",
">X c #FFF9C6",
",X c #FFFAD4",
"<X c #FFFBD8",
"1X c #FFFDE9",
"2X c #FFFCE7",
"3X c #FFFDF4",
"4X c #FFFFFF",
"5X c None",
/* pixels */
"5X5.5X5X5X5X5X5X5X5X5X5X5X5X5X5X5X5X5X5X5X5X5X5X5X5X5X5X5X5X5X5X5X5X5X5X5X5X5X5X5X5X5X5X5X5X5X5X5X5X",
"5X5X5X5X5X5X5X5X5X5X5X5X5X5X5X5X5X5X5X5X5X5X5X5X5X5X5X5X5X5X5X5X5X5X5X5X5X5X5X5X5X5X5X5X5X5X5X5X5X5X",
"5X5X5.5X5X5X5X5X5X5X5X5X5X5X5X5X5X5X5X5X5X5X5X5X5X5X5X5X5X5X5X5X5X5X5X5X5X5X5X5X5X5X5X5X5X5X5X5X5X5X",
"5X5.5.5X5X5X5X5X5X5X5X5X5X5X5X5X5X5X5X5X5X5X5X5X5X5X; m 9 ; 5X5X5X5X5X5X5X5X5X5X5X5X5X5X5X5X5X5X5X5X",
"5.5.5X5X5X5X5X5X5X5X5X5X5X5X5X5X5X5X5X5X5X5X5X5X5X5X. r &.X.0   5X5X5X5X5X5X5X5X5X5X5X5X5X5X5X5X5X5X",
"5.5.5X5X5X5X5X5X5X5X5X5X5X5X5X5X5X5X5X5X5X5X5X5X5X5X5X# #.,.-.r ; 5X5X5X5X5X5X5X5X5X5X5X5X5X5X5X5X5X",
"8.5.5X5X5X5X5X5X5X5X5X5X5X5X5X5X5X5X5X5X5X5X5X5X5X5X  2 8.=.&.-.v . 5X5X5X5X5X5X5X5X5X5X5X5X5X5X5X5X",
"B.8.5X5X5X5X5X5X5X5X5X5X5X5X5X5X5X5X    5X5X5X5X5X5Xk / T ; 3 m V k # 5X5X5X5X5X5X5X5X5X5X5X5X5X5X5X",
"B.Y.5X5X5X5X5X5X5X5X5X5X5X5X5X5X5X$ ' K *   5X5X5X5 #.X.v v z 9 x b g   5X5X5X5X5X5X5X5X5X5X5X5X5X5X",
"m.5X5X5X5X5X5X5X5X5X5X5X5X5X5X5X5X5Xl.x.i.i   5X: X.7.7.;.X.X.-.+.C z   5X    5X5X5X5X5X5X5X5X5X5X5X",
"S.5X5X5X5X5X5X5X5X5X5X5X5X5X5X5X5X5X6 f.z.i.6 . ..*.M x 9 . . r Z B b , 5Xo h # 5X5X5X5X5X5X5X5X5X5X",
"S.5X5X5X5X5X5X5X5X5X5X5X5X5X5X5X5X5X5X7 x.h.J + o.+.v 4 3 9 e 0 g z V z   h I * 5X5X5X5X5X5X5X5X5X5X",
"5X5X5X5X5X5X5X5X5X5X5X5X5X5X5X5X5X5X5X1 l.p.Y H %.;.,.;.-.-.-.-.+.+.C b $ F d.K 5X5X5X5X5X5X5X5X5X5X",
"5.5X5X5X5X5X5X5X5X5X5X5X5X5X5X5X5X5X5X5XS t.U 4.q.0.Y.Y.0.q.=.+.+.O.C c h y.h.` 5X5X5X5X5X5X5X5X5X5X",
"5X5X5X5X5X5X5X5X5X5X5X5X5X5X5X5X5X5X5X5X  A | 9.0.w.,.,.,.,.=.C C V C T U t.z.` 5X5X5X5X5X5X5X5X5X5X",
"5.5X5X5X5X5X5X5X5X5X5X5X5X5X5X5X5X5X5X5Xo v 7.7.:.....-.-.-.%.C C C C [ U t.k.H 5X5X5X5X5X5X5X5X5X5X",
"5X5X5X5X5X5X5X5X5X5X5X5X5X5X5X5X5X5X5X# ~ 7.<.$.e # # m +.@.Z B c ( ( _ G D * 5X5X5X5X5X5X5X5X5X5X5X",
"5X5X5X5X5X5X5X5X5X5X5X5X5X5X5X5X5X5X5X: *.0.,.e & e.J % : + @ ;   0 +.( z o   5X5X5X5X5X5X5X5X5X5X5X",
"5X5X5X5X5X5X5X5X5X5X5X5X5X5X5X5X5X5X5X; X.,.N h G s.a.e.i i i G D O m *.C c o 5X5X5X5X5X5X5X5X5X5X5X",
"5X5X5X5X5X5X5X5X5X5X5X5X5X5X5X5X5X5X5X  0 -.9 6 U S r.h.p.p.p.t.P % : %.O.V , 5X5X5X5X5X5X5X5X5X5X5X",
"5X5X5X5X5X5X5X5X5X5X5X5X5X5X5X5X5X5X5X5Xo ~ r $ U A u x.a.p.u.p P P j %.O.B , 5X5X5X5X5X5X5X5X5X5X5X",
"5X5X5X5X5X5X5X5X5X5X5X5X5X5X5X5X5X5X  < c x Z + h F u E.j.p.L * } F g *.( k o 5X5X5X5X5X5X5X5X5X5X5X",
"5X5X5X5X5X5X5X5X5X5X5X5X5X5X5X5X5X5X. c C B C c $ A ' E.a.u.i D P 1 N O.g o 5X5X5X5X5X5X5X5X5X5X5X5X",
"5X5X5X5X5X5X5X5X5X5X5X5X5X5X5X5X5X< x > k B @.%.M o f.z.u.J h D 1 v @.4 O 5X5X5X5X5X5X5X5X5X5X5X5X5X",
"5X5X5X5X5X5X5X5X5X5X5X5X5X5X5X5X5X1 ] 3.8 4 m $.w % k.r.i , b l z C c o 5X5X5X5X5X5X5X5X5X5X5X5X5X5X",
"5XS.S.5X5X5X5X5X5X5X5X5X5X5X5X5Xo , > ] Z.C.) ] 8 * p %   z C B b l ,   5X5X5X5X5X5X5X5X5X5X5X5X5X5X",
"5XS.S.5X5X5X5X5X5X5X5X5X5X5X  3 ~ @.e : E 6.C.6.W ) ) 7 , g 4 $ % % $ 5X5X5X5X5X5X5X5X5X5X5X5X5X5X5X",
"5XS.S.S.5X5X5X5X5X5X5X5X5X5X5X: m +.&.X.r 3 1 8 W ] R R ) o i L i.r.y X 5X5X5X5X5X5X5X5X5X5X5X5X5X5X",
"5X5XS.T.S.5X5X5X5X5X5X5X5X5X5X5X  ; 3 e w < ] 3.] $ ; > < % r.p.a.x.` $     5X5XX X 5X5X5X5X5X5X5X5X",
"5X5XS.D.S.5X5X5X5X5X5X5X5X5X5X5X5X5X  X   $ Q R E E ) 1 X % i.p.j.E.Q ) ) W <   ) N.R $ 5X5X5X5X5X5X",
"5X5XS.S.S.S.5X5X5X5X5X5X5X5X5X5X5X5X    5X5XX X < T 7 O   # L r.j.f.o W 3.3.W < ] Z.OX4.a d . 5X5X5X",
"T.5XS.S.S.S.T.5X5X5X5X5X5X5X5X5X5X  #   5X5X5X5X  X   5X    # & i y   $ g R T # 7 oX:X:X&X~.c.= 5X5X",
"S.5XS.T.S.S.S.5X5X5X5X5X5X5X5X5XO O   5X5X5X5X5X5X5X5X5X5X5X5X      5X5X5X. . 7 V.*X*X=X3X@X`.v.- 5X",
"!.J.A.S.S.S.S.S.5X5X5X5X5X5X5X5X5X5X5X5X5X5X5X5X5X5X5X5X5X5X5X    5X5X5X5X5XX W M.N.|.#X4X>X`.`. .5X",
"5XI.S.T.T.S.S.S.T.5X5X5X5X5X5X5X5X5X5X5X5X5X5X5X5X5X5X5X5X5X5X5X  5X5X5X5X5X5X# # ^ R.&X4X2X#X%Xn.= ",
"5X/.G.A.S.S.S.S.S.m.5X5X5X5X5X5X5X5X5X5X5X5X5X5X5X5X5X5X5X5X5X5X5X5X5X5X5X5X5X5Xq m.D. X1X4X4X>X~.d ",
"5X`.Q.T.5X5XT.S.S.A.! 5X5X5X5X5X5X5X5X5X5X5X5X5X5X5X5X5X5X5X5X5X5X5X5X5X5X5X2 / m.S.W.{.1X4X4X>X].u ",
"5X5X_.J.5X5XK.S.S.S.1.q 5X5X5X5X5X5X5X5X5X5X5X5X5X5X5X5X5X5X5X5X5X5X5X5X> s >.S.T.K./.$X4X2X<X;X~.a ",
"5X5X5X(.L.5X_.).S.S.S.F.1./ 5X5X5X5X5X5X5X5X5X5X5X5X5X5X5X5X5X5X5X! ! / 1.L.K.S.U._.@X3X4X>X%XXXn.= ",
"5X5X5X5X5X5X5X_.I.S.S.A.A.S.S.S.T.5X5X5X5X5X5X5X5X5X5X5X5X5XT.T.S.A.A.G.!._.!.I.}.-X3X1X$X[.`.`.b.5X",
"5X5X5X5X5X5X5X^.`.W.S.K.J.S.S.S.S.5X5X`.].c.f f ^ ! s s >.A.A.S.S.S.S././._._.`.[.;X-X{.`.`.`.~.a 5X",
"5X5X5X5X5X5X5X5X`.`.).L././.W.P.P.I.5X5X`.`.`._.I.J.D.S.S.D.J.P.P.D.S.K.S.G.!.`.[.@X;X.X`.`.`.v.5X5X",
"5X5X5X5X5X5X5X5X5X`.`.I.G.^.`.`.`.`.`.`.`.`.`.`.`.`.(././.(.'._.).S.T.A.S.I.`.{.,X1X=X[.`.`.!.d 5X5X",
"5X5X5X5X5X5X5X5X5X5X5X`.L.D._.`.`.`.`.`.`.`.`.`.`.`._._.!.!.U.D.S.S.S.H.!.`.XX;X-X.X`.`._.W.5X5X5X5X",
"5X5X5X5X5X5X5X5X5X5X5X5XU.S.^.`.`.`.`.`.`.`.5X`.!.L.L.D.S.S.A.A.S.S.W.`.`.`.{..X`.`.`.`.^.5X5X5X5X5X",
"5X5X5X5X5X5X5X5X5X5X5X5X5XL.G.^.`.`.`.`.5X`.5X5X5XU.!.S.S.S.A.D.H./.`.`.`.`.`.[.`.`.`.5X5X5X5X5X5X5X",
"5X5X5X5X5X5X5X5X5X5X5X5X5X5X5XL.^.`.`.`.5X5X5X5X5X5X5X5X5X).I.^._.`.`.`.[.@X,X>X[.(.5X5X5X5X5X5X5X5X",
"5X5X5X5X5X5X5X5X5X5X5X5X5X5X5X5X5X5X`.`.`.5X`.5X5X5X5X5X`.`.`.`.`.`.`. X<X,X-XXX5X5X5X5X5X5X5X5X5X5X",
"5X5X5X5X5X5X5X5X5X5X5X5X5X5X5X5X5X5X`.`.`.`.`.`.5X5X`.`.`.'.`.`.`.`.`.[.=X.X5X5X5X5X5X5X5X5X5X5X5X5X",
"5X5X5X5X5X5X5X5X5X5X5X5X5X5X5X5X5X5X`.`.`.`.`.`.5X5X5X5X`.`.`.`.`.`.`.5X5X5X5X5X5X5X5X5X5X5X5X5X5X5X"
};
