/* XPM */
static char *result[] = {
/* columns rows colors chars-per-pixel */
"50 50 199 2 ",
"   c #15172D",
".  c #151B2D",
"X  c #1A1D2E",
"o  c #1C1E31",
"O  c #201F30",
"+  c #17222F",
"@  c #1C212C",
"#  c #1C2331",
"$  c #192B32",
"%  c #1D2C39",
"&  c #172730",
"*  c #1A3333",
"=  c #1D3C35",
"-  c #1E3339",
";  c #34372E",
":  c #232334",
">  c #2B2334",
",  c #222A33",
"<  c #292A36",
"1  c #2C253A",
"2  c #2B2E3B",
"3  c #332535",
"4  c #3D2A37",
"5  c #33263D",
"6  c #3B293C",
"7  c #352A38",
"8  c #253434",
"9  c #233A39",
"0  c #34313C",
"q  c #39343E",
"w  c #3C3A3F",
"e  c #343938",
"r  c #442C39",
"t  c #4D2F3C",
"y  c #4C363B",
"u  c #54313D",
"i  c #5A353F",
"p  c #61363F",
"a  c #1E4937",
"s  c #224C3A",
"d  c #24533B",
"f  c #235B3C",
"g  c #2E503B",
"h  c #3C523D",
"j  c #28613E",
"k  c #4C4C31",
"l  c #3C2B42",
"z  c #283943",
"x  c #3E3A41",
"c  c #3C3644",
"v  c #422D45",
"b  c #472E46",
"n  c #423D42",
"m  c #483748",
"M  c #52334E",
"N  c #5C3543",
"B  c #563551",
"V  c #5A3753",
"C  c #5B3C56",
"Z  c #613640",
"A  c #6B3B44",
"S  c #663948",
"D  c #763E47",
"F  c #623A55",
"G  c #663B59",
"H  c #6A3D5B",
"J  c #6C3C53",
"K  c #723F5A",
"L  c #733F54",
"P  c #294748",
"I  c #2E4F50",
"U  c #325654",
"Y  c #355C5A",
"T  c #395353",
"R  c #285845",
"E  c #2C7D45",
"W  c #2A7443",
"Q  c #39745C",
"!  c #356456",
"~  c #3C6B62",
"^  c #3C6761",
"/  c #3D7764",
"(  c #494146",
")  c #494346",
"_  c #534A4A",
"`  c #5A4E4F",
"'  c #51474B",
"]  c #445E41",
"[  c #59504E",
"{  c #5C4F55",
"}  c #7F4149",
"|  c #684659",
" . c #774154",
".. c #754059",
"X. c #79425A",
"o. c #675954",
"O. c #6C5541",
"+. c #476842",
"@. c #557847",
"#. c #78665C",
"$. c #6D6056",
"%. c #416F67",
"&. c #466765",
"*. c #42736A",
"=. c #7E7163",
"-. c #8C7F3A",
";. c #8D464B",
":. c #814248",
">. c #96494D",
",. c #96494D",
"<. c #844559",
"1. c #874658",
"2. c #9D4D56",
"3. c #964B55",
"4. c #865B55",
"5. c #9B5955",
"6. c #A14D4F",
"7. c #A34E53",
"8. c #A65155",
"9. c #AC5155",
"0. c #A6595B",
"q. c #B45454",
"w. c #B95655",
"e. c #B95957",
"r. c #B65C59",
"t. c #B95D59",
"y. c #BB625C",
"u. c #B7645C",
"i. c #A47450",
"p. c #8B7465",
"a. c #877660",
"s. c #947E67",
"d. c #806A60",
"f. c #BB6A60",
"g. c #A57B69",
"h. c #C37C6A",
"j. c #C07466",
"k. c #C06F63",
"l. c #2E8647",
"z. c #31944A",
"x. c #349D4C",
"c. c #379355",
"v. c #36A84E",
"b. c #3BA456",
"n. c #39A753",
"m. c #37B150",
"M. c #39B451",
"N. c #4E8B4B",
"B. c #6F9F52",
"V. c #49A951",
"C. c #47B753",
"Z. c #59BB56",
"A. c #66A853",
"S. c #5AC257",
"D. c #69C35A",
"F. c #74CB5C",
"G. c #78C65B",
"H. c #958E38",
"J. c #D8CA3F",
"K. c #FFEE3F",
"L. c #B78352",
"P. c #80B859",
"I. c #9C916F",
"U. c #A99674",
"Y. c #AC9471",
"T. c #D9945F",
"R. c #DC9B5C",
"E. c #CD8E5B",
"W. c #DEA15A",
"Q. c #C9BD45",
"!. c #EABB52",
"~. c #C4826D",
"^. c #CAA97F",
"/. c #85CA5E",
"(. c #92D561",
"). c #DCC643",
"_. c #EEC54F",
"`. c #EEDE40",
"'. c #F6D74A",
"]. c #EDC351",
"[. c #F7DC54",
"{. c #F0CB4E",
"}. c #FCE746",
"|. c #FFF242",
" X c #CDC475",
".X c #FFF378",
"XX c #FCEB6F",
"oX c #BBA982",
"OX c #A7A58C",
"+X c #CCB788",
"@X c #E5D697",
"#X c #FFF593",
"$X c #F8E487",
"%X c #EADAA7",
"&X c #FFF8A9",
"*X c #FFFDD0",
"=X c #FFFDED",
"-X c #FFFFFC",
";X c None",
/* pixels */
";X;X;X;X;X;X;X;X;X;X;X;X;X;X;X;X;X;X;X;X;X;X;X;X;X;X;X;X;X;X;X;X;X;X;X;X;X;X;X;X;X;X;X;X;X;X;X;X;X;X",
";X;X;X;XT.T.T.T.;X;X;X;X;XT.;X;X;X;X;X;X;X;X;X;X;X;X;X;X;X;X;X;X;X;X;X;X;X;X;X;X;X;X;X;X;X;X;X;X;X;X",
";X;X;XT.T.T.R.W.R.{.|._.T.T.;X;X;X;X;X;X;X;X;X;X;X;X;X;X;X;X;X;X;X;X;X;X;X;X;X;X;X;X;X;X;X;X;X;X;X;X",
";X;X;XT.R.'.}.'.!.].}.!.T.;X;X;X;X;X;X;X;X;X;X;X;X;X;X;X;X;X;X;X;X;X;X;X;X;X;X;X;X;X;X;X;X;X;X;X;X;X",
";X;XT.T.].|.'.R.W.i.E.R.;X;X;X;XT.;X;X;X;X;X;X;X;X;X;X;X;X;X;X;X;X;X;X;X;X;X;X;X;X;X;X;X;X;X;X;X;X;X",
";X;XT.R.[.#X[.R.E.y ;X;X;X;X;XT.T.;X;X;X;X;XX i Z > ;X;X;X;X;X;X;X;X;X;X;X;X;X;X;X;X;X;X;X;X;X;X;X;X",
";X;X;XR.$X*X[.R.T.i.;X;X;X;X;X;X;X;X;X;X;X;X. 7 >.;.r . ;X;X;X;X;X;X;X;X;X;X;X;X;X;X;X;X;X;X;X;X;X;X",
";X;X;XL.XX$X}.!.T.T.;X;X;X;X;X;X;X;X;X;X;X;X;X: 5.e.6.b o ;X;X;X;X;X;X;X;X;X;X;X;X;X;X;X;X;X;X;X;X;X",
";X;X;XO.).|.#X.X_.i.;X;X;X;X;X;X;X;X;X;X;X;X: 4.j.w.8.H 1 . ;X;X;X;X;X;X;X;X;X;X;X;X;X;X;X;X;X;X;X;X",
";X;X;X;Xk `.&X=XXXH.;X;X;X;X;X;X;X;X;X;X;X# 4.r.i r t V V 1 ;X;X;X;X;X;X;X;X;X;X;X;X;X;X;X;X;X;X;X;X",
";X;X;X;X@ H.XX=X*X).; ;X;X;X;X;X;X;X;X;X. m f.L 4 4 4 S H B o ;X;X;X;X9 8 ;X;X;X;X;X;X;X;X;X;X;X;X;X",
";X;X;X;X;X; J.#X-X@X; ;X;X;X;X;X;X;X;X;X> 5.e.7.9.q.q.2.H G 5 ;X;X;X* V.+.;X;X;X;X;X;X;X;X;X;X;X;X;X",
";X;X;X;X;X;Xk  X-XOX@ ;X;X. + ;X;X;X;X. i f.j.e.A r A D F H B : . $ z.D.T ;X;X;X;X;X;X;X;X;X;X;X;X;X",
";X;X;X;X;X;Xw +X%XI.# ;X;X# @.f + ;X;X: >.0.| r o o r 6 v B H 5 + l.S.B.@ ;X;X;X;X;X;X;X;X;X;X;X;X;X",
";X;X;X;X;X;X=.@X%X@X[ ;X;X+ N.Z.E = . u 9.G 6 r t ;.q.8.8.<.G l z n.F.@.;X;X;X;X;X;X;X;X;X;X;X;X;X;X",
";X;X;X;X;X. o.+X%X+XU.% ;X;X] /.S.z.% t 9.1.2.y.y.e.q.9.2...G c ^ b.G.+.;X;X;X;X;X;X;X;X;X;X;X;X;X;X",
";X;X;X;X;X. < +XoX[ U.< ;X;XX @.F.n.Q 2 6.y.k.~.~.h.5...H H H { %.c.V.8 ;X;X;X;X;X;X;X;X;X;X;X;X;X;X",
";X;X;X;X;X;Xo.Y.x e x o ;X;X;X8 A.m./ o.y.h.~.h.u.t.8...H H G G &.~ P ;X;X;X;X;X;X;X;X;X;X;X;X;X;X;X",
";X;X;X;X;X;X: 2 . 2 : ;X;X;X;X;Xs b.*.=.h.h.y.e.w.w.9...G F H H C z . ;X;X;X;X;X;X;X;X;X;X;X;X;X;X;X",
";X;X;X;X;X;X;X. c #.n ;X;X;X;X;X+ P T g.h.y.9.9.q.8.<.G l 1 J 2...V 1 . ;X;X;X;X;X;X;X;X;X;X;X;X;X;X",
";X;X;X;X;X;X;X. ) p.o.;X;X;X;X;X. . p u.y.8.r > t B v 1 % - . } 8.K V o ;X;X;X;X;X;X;X;X;X;X;X;X;X;X",
";X;X;X;X;X;X;X;X0 #.=.: ;X;X;X;X. i u.e.9.r a f $ & & a ! ^ % 3 7.1.F : ;X;X;X;X;X;X;X;X;X;X;X;X;X;X",
";X;X;X;X;X;X;X;X# ` o.o + ;X;X;X> 5.h.t.p = n.m.x.x.x.m.b.~ I 9 A 9.J o ;X;X;X;X;X;X;X;X;X;X;X;X;X;X",
";X;X;X;X;X;X;X;X. o o - f + ;X;X3 u.j.9.7 U Q x.M.M.M.m.z.U / z r 3.l X ;X;X;X;X;X;X;X;X;X;X;X;X;X;X",
";X;X;X;X;X;X;X;X# +.+.e l.9 ;X;XX A r.7.2 Y &.R Z.D.m.M.j ! %., D J X ;X;X;X;X;X;X;X;X;X;X;X;X;X;X;X",
";X;X;X;X;X;X;X;Xg F.(.N.a + ;X;X;XX ;.q.6 z ~ I ! /.M.m.f ! P 3 :.1 . ;X;X;X;X  ;X;X;X;X;X;X;X;X;X;X",
";X;X;X;X;X;X;X;X$ x.Z.V.*   . ;X;X;X4 :.D o P I , P.D.z.- U # S K B O ;X;X;X& f $ . ;X;X;X;X;X;X;X;X",
";X;X;X;X;X;X;X;X+ W M.z.*   . . ;X;X;X6 ..B z U , @.F.E z z l H H F : ;X;XX f m.E & ;X;X;X;X;X;X;X;X",
";X;X;X;X;X;X;X;X;X& f = # ;X;X. . . . N q.7.J c m 9 x.R B V G H H 5 X . . . l.M.m.s . ;X;X;X;X;X;X;X",
";X;X;X;X;X;X;X;X;X;X  x ' . ;X;X;X. . p w.q.q.3.K l a e G H H B 1 w ` O ;X. s v.m.s   ;X;X;X;X;X;X;X",
";X;X;X;X;X;X;X;X;X;X. ( ` X ;X;X;X;X;X4 7.q.w.w.8.G 5 l H V b l ' o.` X ;X;X. = d + ;X;X;X;X;X;X;X;X",
";X;X;X;X;X;X;X;X;X;X;Xo # ;X;X;X;X;X;X. 4 u :.>.;.V l 5 5 < w U.s.c # o ;X;X;X;X;X;X;X;X;X;X;X;X;X;X",
";X;X;X;X;X;X;X;X;X;X;X;X;X;X;X;X;X;X;X0 o.x y ( 0 o x a.n n p.#.n v V M o . ;X;X;X;X;X;X;X;X;X;X;X;X",
";X;X;X;X;X;X;X;X;X;X;X;X;X;X;X;X;X;X;X# #.a.s.I.p.e a.+X$.o < l G H F V B 1 ;X;X;X;X;X;X;X;X;X;X;X;X",
";X;X;X;X;X;X;X;X;X;X;X;X;X;X;X;X;X;X;XX < 1 1 l w , ( o.n ' : 1 B l 1 O b 1 ;X;X;X;X;X;X;X;X;X;X;X;X",
";X;X;X;X;X;X;X;X;X;X;X;X;X;X;X;X;X;X;X> L <.2.:.X _ ) . o ) ) . . . . . . . ;X;X;X;X;X;X;X;X;X;X;X;X",
";X;X;X;X;X;X;X;X;X;X;X;X;X;X;X;X;X;X;XA w.q.>.Z O d.( . . # ` # ;X;X. o ;X;X;X;X;X;X;X;X;X;X;X;X;X;X",
";X;X;X;X;X;X;X;X;X;X;X;X;X;X;X;X;X;XO D p r : . : a.0 ;X;X;X. . ;X;X. . ;X;X;X;X;X;X;X;X;X;X;X;X;X;X",
";X;X;X;X;X;X;X;X;X;X;X;X;X;X;X;X;X;X. X . . . . X < @ ;X;X;X;X;X;X;X;X. . ;X;X;X;X;X;X;X;X;X;X;X;X;X",
";X;X;X;X;X;X;X;X;X;X;X;X;X;X;X;X;X;X;X;X;X. . ;X;X;X;X;X;X;X;X;X;X;X;X;X;X;X;X;X;X;X;X;X;X;X;X;X;X;X",
";X;X;X;X;X;X;X;X;X;X;X;X;X;X;X;X;X;X;X;X;X. X ;X;X;X;X;X;X;X;X;X;X;X;X;X;X;X;X;X;X;X;X;X;X;X;X;X;X;X",
";X;X;X;X;X;X;X;X;X;X;X;X;X;X;X;X;X;X;X;X. . . ;X;X;X;X;X;X;X;X;X;X;X;X;X;X;X;X;X;X;X;X;X;X;X;X;X;X;X",
";X;X;X;X;X;X;X;X;X;X;X;X;X;X;X;X;X;X;X;X;X;X;X;X;X;X;X;X;X;X;X;X;X;X;X;X;X;X;X;X;X;X;X;X;X;X;X;X;X;X",
";X;X;X;X;X;X;X;X;X;X;X;X;X;X;X;X;X;X;X;X;X;X;X;X;X;X;X;X;X;X;X;X;X;X;X;X;X;X;X;X;X;X;X;X;X;X;X;X;X;X",
";X;X;X;X;X;X;X;X;X;X;X;X;X;X;X;X;X;X;X;X;X;X;X;X;X;X;X;X;X;X;X;X;X;X;X;X;X;X;X;X;X;X;X;X;X;X;X;X;X;X",
";X;X;X;X;X;X;X;X;X;X;X;X;X;X;X;X;X;X;X;X;X;X;X;X;X;X;X;X;X;X;X;X;X;X;X;X;X;X;X;X;X;X;X;X;X;X;X;X;X;X",
";X;X;X;X;X;X;X;X;X;X;X;X;X;X;X;X;X;X;X;X;X;X;X;X;X;X;X;X;X;X;X;X;X;X;X;X;X;X;X;X;X;X;X;X;X;X;X;X;X;X",
";X;X;X;X;X;X;X;X;X;X;X;X;X;X;X;X;X;X;X;X;X;X;X;X;X;X;X;X;X;X;X;X;X;X;X;X;X;X;X;X;X;X;X;X;X;X;X;X;X;X",
";X;X;X;X;X;X;X;X;X;X;X;X;X;X;X;X;X;X;X;X;X;X;X;X;X;X;X;X;X;X;X;X;X;X;X;X;X;X;X;X;X;X;X;X;X;X;X;X;X;X",
";X;X;X;X;X;X;X;X;X;X;X;X;X;X;X;X;X;X;X;X;X;X;X;X;X;X;X;X;X;X;X;X;X;X;X;X;X;X;X;X;X;X;X;X;X;X;X;X;X;X"
};
