/* XPM */
static char *result[] = {
/* columns rows colors chars-per-pixel */
"50 50 205 2 ",
"   c #151B2D",
".  c #191D2F",
"X  c #11162B",
"o  c #1C1F31",
"O  c #0F162C",
"+  c #201F30",
"@  c #16232F",
"#  c #1A212F",
"$  c #1C2231",
"%  c #1C2D32",
"&  c #1B2736",
"*  c #1B3333",
"=  c #1D3D35",
"-  c #242334",
";  c #2C2534",
":  c #2A2B36",
">  c #2A2439",
",  c #2D2C3A",
"<  c #252B34",
"1  c #352735",
"2  c #3B2836",
"3  c #31273D",
"4  c #362A3D",
"5  c #3B2C38",
"6  c #253434",
"7  c #24333C",
"8  c #243A35",
"9  c #35323C",
"0  c #39333E",
"q  c #363739",
"w  c #272B2E",
"e  c #432C39",
"r  c #4A2D3A",
"t  c #402A37",
"y  c #53313E",
"u  c #58343E",
"i  c #4E363B",
"p  c #1D4136",
"a  c #214D39",
"s  c #2D483C",
"d  c #374B3B",
"f  c #22523B",
"g  c #245D3D",
"h  c #26633E",
"j  c #405B3F",
"k  c #77643E",
"l  c #3A2B42",
"z  c #253741",
"x  c #3B3642",
"c  c #3D3840",
"v  c #383949",
"b  c #442D45",
"n  c #472E48",
"m  c #423C42",
"M  c #4E324D",
"N  c #483144",
"B  c #52334D",
"V  c #5A364C",
"C  c #563551",
"Z  c #5B3753",
"A  c #5D3854",
"S  c #6B3A43",
"D  c #663948",
"F  c #723C45",
"G  c #7B3F46",
"H  c #773F4A",
"J  c #623A57",
"K  c #653B59",
"L  c #693D5B",
"P  c #733F54",
"I  c #2C4C4D",
"U  c #294348",
"Y  c #2C5B4C",
"T  c #325455",
"R  c #335C54",
"E  c #355B59",
"W  c #3D5940",
"Q  c #276A40",
"!  c #297A43",
"~  c #3A655E",
"^  c #3E6E64",
"/  c #3C6661",
"(  c #3D7264",
")  c #3D7F63",
"_  c #464144",
"`  c #4B4646",
"'  c #554C4B",
"]  c #59484F",
"[  c #5B534D",
"{  c #56504C",
"}  c #5B5151",
"|  c #49595F",
" . c #7B4259",
".. c #774157",
"X. c #6A5B55",
"o. c #655A51",
"O. c #715E5A",
"+. c #614447",
"@. c #557948",
"#. c #4B6E44",
"$. c #78675B",
"%. c #796341",
"&. c #5A5060",
"*. c #476C65",
"=. c #726F65",
"-. c #807A34",
";. c #84454B",
":. c #8C454A",
">. c #814147",
",. c #92484D",
"<. c #9B4C4E",
"1. c #834559",
"2. c #884657",
"3. c #954A55",
"4. c #9C4D56",
"5. c #954A58",
"6. c #835552",
"7. c #A44E50",
"8. c #A65357",
"9. c #AB5254",
"0. c #AC5C57",
"q. c #B45455",
"w. c #B95655",
"e. c #BA5D59",
"r. c #B65C59",
"t. c #96645C",
"y. c #AB6557",
"u. c #BB635D",
"i. c #A97653",
"p. c #B97758",
"a. c #8B7464",
"s. c #897F69",
"d. c #937B68",
"f. c #B76B61",
"g. c #B27366",
"h. c #C17365",
"j. c #C37D6B",
"k. c #2D8546",
"l. c #309149",
"z. c #329A4B",
"x. c #388357",
"c. c #3A9B58",
"v. c #34A44D",
"b. c #36AA4E",
"n. c #39A34E",
"m. c #39A454",
"M. c #37B351",
"N. c #3AB451",
"B. c #47954C",
"V. c #508D4B",
"C. c #6F9F52",
"Z. c #68934F",
"A. c #41AC57",
"S. c #50A150",
"D. c #48B553",
"F. c #56BC56",
"G. c #72A052",
"H. c #77B758",
"J. c #69BD58",
"K. c #63C559",
"L. c #77C95C",
"P. c #A39A37",
"I. c #BFAE4F",
"U. c #ADA54C",
"Y. c #9A8C70",
"T. c #A1876D",
"R. c #AB9572",
"E. c #B19F7B",
"W. c #BEA37B",
"Q. c #D9945F",
"!. c #DA985D",
"~. c #C69B4F",
"^. c #DCA05A",
"/. c #E4AD57",
"(. c #E9BA53",
"). c #E7B754",
"_. c #C4816D",
"`. c #DE9760",
"'. c #87C35C",
"]. c #96D662",
"[. c #EFC64E",
"{. c #F3D24C",
"}. c #F8DC48",
"|. c #F0D149",
" X c #FEED43",
".X c #FBE448",
"XX c #D7C679",
"oX c #FFF375",
"OX c #EDE26E",
"+X c #8B8E98",
"@X c #BFB7B4",
"#X c #CCB487",
"$X c #D6C090",
"%X c #EDDA9B",
"&X c #FFF488",
"*X c #FDF294",
"=X c #E9D7A2",
"-X c #F3D9A1",
";X c #FFF8B7",
":X c #F9EEAD",
">X c #FFFAC9",
",X c #FFFDDA",
"<X c #FEFDF6",
"1X c #FFFCE7",
"2X c None",
/* pixels */
"2X2X2X2X2X2X2X2X2X2X2X2X2X2X2X2X2X2X2X2X2X2X2X2X2X2X2X2X2X2X2X2X2X2X2X2X2X2X2X2X2X2X2X2X2X2X2X2X2X2X",
"2X2X2X2X2X2X2X2X2X2X2X2X2X2X2X2X2X2X2X2X2X2X2X2X2X2X2X2X2X2X2X2X2X2X2X2X2X2X2X2X2X2X2X2X2X2X2X2X2X2X",
"2X2X2X2X2X2X2X2X2X2XQ.{. X2X2X2X2X2X2X2X2X2X2X2X2X2X2X2X2X2X2X2X2X2X2X2X2X2X2X2X2X2X2X2X2X2X2X2X2X2X",
"2X2X2X2X2X2X2XQ.Q.Q.!..X X X X2X2X2X2X2X2X2X2X2X2X2X2X2X2X2X2X2X2X2X2X2X2X2X2X2X2X2X2X2X2X2X2X2X2X2X",
"2X2X2X2X2X2X2X/.[.(.!./.(.).(.[.2X2X2X2X2X2X2X2X2X2X2X2X2X2X2X2X2X2X2X2X2X2X2X2X2X2X2X2X2X2X2X2X2X2X",
"2X2X2X2X2X2X{. X X X}.^.Q.Q.Q.!.!.2X2X2X2X2X2X2X2X2X2X2X2X2X2X2X2X2X2X2X2X2X2X2X2X2X2X2X2X2X2X2X2X2X",
"2X2X2X2X2X(..XoX&X X X{.(.Q.Q.Q.Q.Q.2X2X2X2X2X2X2X  ; 2 1 o 2X2X2X2X2X2X2X2X2X2X2X2X2X2X2X2X2X2X2X2X",
"2X2X2X2X2X-XoX>X:X.X{.|.~.2XQ.!.!.Q.2X2X2X2X2X  - ] <.9.,.> 2X2X2X2X2X2X2X2X2X2X2X2X2X2X2X2X2X2X2X2X",
"2X2X2X2X2X@X,X1X&X[.!.k 2X2X2X2XQ.Q.2X2X2X2X  9 t.u.w.,.b o 2X2X2X2X2X2X2X2X2X2X2X2X2X2X2X2X2X2X2X2X",
"2X2X2X2X2X+X<X<X;X|.i.; 2X2X2X2XQ.2X2X2X2X2X0 f.0.y N D C 3   2X2X2X2X2X2X2X2X2X2X2X2X2X2X2X2X2X2X2X",
"2X2X2X2X2X` OX>X>X Xk 2X2X2X2X2X2X2X2X2X2X- 6.u.D > 1 e N Z >   2X2X2X2X2X2X2X2X2X2X2X2X2X2X2X2X2X2X",
"2X2X2X2X2X2XP.*X<XoXk O 2X2X8 s 2X2X!.!.i D u.u.8.4.9.q.3.L C o 2X2X2X2X% s 2X2X2X2X2X2X2X2X2X2X2X2X",
"2X2X2X2X2X2Xw U.;X*XI.7 2X2Xd S.f ; i.!.p.y.f.t.;.r t F H L L l   2X  = z.@.  2X2X2X2X2X2X2X2X2X2X2X",
"2X2X2X2X2X2X2Xq XX%X=XY.& 2X6 H.D.! q i.`.p.J + .   1 r 4 b Z J >   g n.J.d 2X2X2X2X2X2X2X2X2X2X2X2X",
"2X2X2X2X2X2X2X` W.%X=X$X_ 2X$ @.L.N.Y 9 y.u.H >.:.:.7.w.7.7. .J > U b.K.Z.o 2X2X2X2X2X2X2X2X2X2X2X2X",
"2X2X2X2X2X2X2X- Y.=X#X#X{ 2X2X6 H.F.x.U >.w.e.h.h.h.f.9.4.2.L Z z ( A.'.d 2X2X2X2X2X2X2X2X2X2X2X2X2X",
"2X2X2X2X2X2X2Xm #XR._ E.{ 2X2X2X#.D.*.*.y.j.j.j.h.h.f. .L L L L | *.N.S.- 2X2X2X2X2X2X2X2X2X2X2X2X2X",
"2X2X2X2X2X2X2X< [ < _ [ - 2X2X2X* x.( =.j._.f.e.w.w.q.5.L L L L &.^ x.U 2X2X2X2X2X2X2X2X2X2X2X2X2X2X",
"2X2X2X2X2X2X2X    - x $ 2X2X2X2X  & m g.h.8.G :.q.q.5.P J C P 1.L v <   2X2X2X2X2X2X2X2X2X2X2X2X2X2X",
"2X2X2X2X2X2X2X2Xo ' $.c 2X2X2X2X  u 0.u.9.e @ o y D n b > $ 2 ,.2.J n o 2X2X2X2X2X2X2X2X2X2X2X2X2X2X",
"2X2X2X2X2X2X2X2X$ } d.m 2X2X2X2X1 0.j.w.S @ k.Q p @ @ * Y E & t 9.1.L 4 2X2X2X2X2X2X2X2X2X2X2X2X2X2X",
"2X2X2X2X2X2X2X2X2X} d.m 2X2X2X2X2 y.h.7.; Y c.b.b.z.z.v.m.^ z o :.8.L l 2X2X2X2X2X2X2X2X2X2X2X2X2X2X",
"2X2X2X2X2X2X2X2X2Xx O.b X 2X2X2Xo S e.:.7 T ~ f D.F.N.N.b.R / T 2 7. .l 2X2X2X2X2X2X2X2X2X2X2X2X2X2X",
"2X2X2X2X2X2X2X2X  < - * f @ 2X2X2X. F q.e z ^ U V.L.N.M.l.I *.I ; 3.B o 2X2X2X2X2X2X2X2X2X2X2X2X2X2X",
"2X2X2X2X2X2X2X2X% C.@.* l.= 2X2X2X2X+ G H o I T * '.F.M.g U T & S D o 2X2X2X2X2X2X2X2X2X2X2X2X2X2X2X",
"2X2X2X2X2X2X2X2Xa L.].#.h * 2X2X2X2X2XN P M , R 7 G.L.z.* E 7 N 1.C o 2X2X2X2X2X2X2X2X2X2X2X2X2X2X2X",
"2X2X2X2X2X2X2X2Xf D.K.B.@     2X2X2X+ ,.q.1.C v v W F.Q x v n P L J > 2X2X2X2X2X2X2X2X2X2X2X2X2X2X2X",
"2X2X2X2X2X2X2X2Xp b.N.k.        .   + 4.w.9.3.P K 9 ! s A J L L L Z o 2X2X  2X2X2X2X2X2X2X2X2X2X2X2X",
"2X2X2X2X2X2X2X2X2Xf g *   2X2X.     . S 9.w.w.q.1.M - l L L L J B - o     g p   2X2X2X2X2X2X2X2X2X2X",
"2X2X2X2X2X2X2X2X2X  o , . 2X2X2X2X2X- . 2 >.<.7.5.K J J L J C l 0 } c   g M.v.= 2X2X2X2X2X2X2X2X2X2X",
"2X2X2X2X2X2X2X2X2X  m X.o 2X2X2X2X2X0 $.{ q _ e b l ] x 4 4 o.T.O.` :   ! N.N.Q   2X2X2X2X2X2X2X2X2X",
"2X2X2X2X2X2X2X2X2X  , c 2X2X2X2X2X2X# { a.d.R.$.0 [ W.$.: o.$.' > > 3 . f z.N.g   2X2X2X2X2X2X2X2X2X",
"2X2X2X2X2X2X2X2X2X2X2X2X2X2X2X2X2X2X> l > , 9 _ , o.T.[ o , l n J L A -   * a & 2X2X2X2X2X2X2X2X2X2X",
"2X2X2X2X2X2X2X2X2X2X2X2X2X2X2X2X2X. F 4.3.1.M   ' { 0 4 ' $ l L L C C l   2X2X2X2X2X2X2X2X2X2X2X2X2X",
"2X2X2X2X2X2X2X2X2X2X2X2X2X2X2X2X2Xe 7.9.,.;.b 4 a.0   # ' c - 4 >         2X2X2X2X2X2X2X2X2X2X2X2X2X",
"2X2X2X2X2X2X2X2X2X2X2X2X2X2X2X2X2X- r 1   .   ` W.{ 2X2X, ' .   2X    2X2X2X2X2X2X2X2X2X2X2X2X2X2X2X",
"2X2X2X2X2X2X2X2X2X2X2X2X2X2X2X2X2X2X2X2X    2X$ ` q 2X2X  .   2X2X.   2X2X2X2X2X2X2X2X2X2X2X2X2X2X2X",
"2X2X2X2X2X2X2X2X2X2X2X2X2X2X2X2X2X2X2X2X    2X2XX 2X2X2X2X2X2X2X2X  . 2X2X2X2X2X2X2X2X2X2X2X2X2X2X2X",
"2X2X2X2X2X2X2X2X2X2X2X2X2X2X2X2X2X2X2X    . 2X2X2X2X2X2X2X2X2X2X2X.   2X2X2X2X2X2X2X2X2X2X2X2X2X2X2X",
"2X2X2X2X2X2X2X2X2X2X2X2X2X2X2X2X2X2X2X2X2X2X2X2X2X2X2X2X2X2X2X2X2X2X2X2X2X2X2X2X2X2X2X2X2X2X2X2X2X2X",
"2X2X2X2X2X2X2X2X2X2X2X2X2X2X2X2X2X2X2X2X2X2X2X2X2X2X2X2X2X2X2X2X2X2X2X2X2X2X2X2X2X2X2X2X2X2X2X2X2X2X",
"2X2X2X2X2X2X2X2X2X2X2X2X2X2X2X2X2X2X2X2X2X2X2X2X2X2X2X2X2X2X2X2X2X2X2X2X2X2X2X2X2X2X2X2X2X2X2X2X2X2X",
"2X2X2X2X2X2X2X2X2X2X2X2X2X2X2X2X2X2X2X2X2X2X2X2X2X2X2X2X2X2X2X2X2X2X2X2X2X2X2X2X2X2X2X2X2X2X2X2X2X2X",
"2X2X2X2X2X2X2X2X2X2X2X2X2X2X2X2X2X2X2X2X2X2X2X2X2X2X2X2X2X2X2X2X2X2X2X2X2X2X2X2X2X2X2X2X2X2X2X2X2X2X",
"2X2X2X2X2X2X2X2X2X2X2X2X2X2X2X2X2X2X2X2X2X2X2X2X2X2X2X2X2X2X2X2X2X2X2X2X2X2X2X2X2X2X2X2X2X2X2X2X2X2X",
"2X2X2X2X2X2X2X2X2X2X2X2X2X2X2X2X2X2X2X2X2X2X2X2X2X2X2X2X2X2X2X2X2X2X2X2X2X2X2X2X2X2X2X2X2X2X2X2X2X2X",
"2X2X2X2X2X2X2X2X2X2X2X2X2X2X2X2X2X2X2X2X2X2X2X2X2X2X2X2X2X2X2X2X2X2X2X2X2X2X2X2X2X2X2X2X2X2X2X2X2X2X",
"2X2X2X2X2X2X2X2X2X2X2X2X2X2X2X2X2X2X2X2X2X2X2X2X2X2X2X2X2X2X2X2X2X2X2X2X2X2X2X2X2X2X2X2X2X2X2X2X2X2X",
"2X2X2X2X2X2X2X2X2X2X2X2X2X2X2X2X2X2X2X2X2X2X2X2X2X2X2X2X2X2X2X2X2X2X2X2X2X2X2X2X2X2X2X2X2X2X2X2X2X2X",
"2X2X2X2X2X2X2X2X2X2X2X2X2X2X2X2X2X2X2X2X2X2X2X2X2X2X2X2X2X2X2X2X2X2X2X2X2X2X2X2X2X2X2X2X2X2X2X2X2X2X"
};
