/* XPM */
static char *result[] = {
/* columns rows colors chars-per-pixel */
"50 50 103 2 ",
"   c #14172B",
".  c #151B2D",
"X  c #171E30",
"o  c #19232F",
"O  c #172333",
"+  c #192335",
"@  c #1B2B34",
"#  c #1A2639",
"$  c #1B2B3C",
"%  c #1E3234",
"&  c #1B353A",
"*  c #1C3C3E",
"=  c #213535",
"-  c #253D37",
";  c #24413C",
":  c #29473A",
">  c #2A4B3B",
",  c #2E543D",
"<  c #31593F",
"1  c #1E2E42",
"2  c #1E3144",
"3  c #1C3B43",
"4  c #1D3E49",
"5  c #203246",
"6  c #22364A",
"7  c #233A4E",
"8  c #253D52",
"9  c #1E4341",
"0  c #1F4A44",
"q  c #1D414A",
"w  c #1E484F",
"e  c #1F4A51",
"r  c #205047",
"t  c #2B5345",
"y  c #20544A",
"u  c #225C4D",
"i  c #264156",
"p  c #274358",
"a  c #29465D",
"s  c #27485B",
"d  c #2A495E",
"f  c #215356",
"g  c #22565B",
"h  c #235C5D",
"j  c #2D6B4E",
"k  c #376843",
"l  c #3D7446",
"z  c #3D7748",
"x  c #256451",
"c  c #266E56",
"v  c #277157",
"b  c #287056",
"n  c #277359",
"m  c #2C7C5B",
"M  c #387F52",
"N  c #294D60",
"B  c #295463",
"V  c #235E61",
"C  c #285C66",
"Z  c #236263",
"A  c #27656A",
"S  c #286268",
"D  c #266D6D",
"F  c #277366",
"G  c #287767",
"H  c #26716F",
"J  c #28766E",
"K  c #297B6D",
"L  c #277370",
"P  c #407B48",
"I  c #2B8563",
"U  c #2C8B64",
"Y  c #2B836C",
"T  c #2C8B6B",
"R  c #308E62",
"E  c #2D9067",
"W  c #2E956A",
"Q  c #2F986B",
"!  c #349665",
"~  c #389260",
"^  c #359B67",
"/  c #3A9D64",
"(  c #329B6A",
")  c #3EA364",
"_  c #43824A",
"`  c #468B4E",
"'  c #4A924F",
"]  c #438E52",
"[  c #498F52",
"{  c #4A9651",
"}  c #4F9C51",
"|  c #47A45D",
" . c #4EAD5D",
".. c #51A353",
"X. c #55AB55",
"o. c #51AD5B",
"O. c #53B25C",
"+. c #5AB659",
"@. c #5BB959",
"#. c #43A562",
"$. c #47AA62",
"%. c #49AA60",
"&. c None",
/* pixels */
"&.&.&.&.&.&.&.&.&.&.&.&.&.&.&.&.&.&.&.&.&.&.&.&.&.&.&.&.&.&.&.&.&.&.&.&.&.&.&.&.&.&.&.&.&.&.&.&.&.&.",
"&.&.&.&.&.&.&.&.&.&.&.&.&.&.&.&.&.&.&.&.&.&.&.&.&.&.&.&.&.&.&.&.&.&.&.&.&.&.&.&.&.&.&.&.&.&.&.&.&.&.",
"&.&.&.&.&.&.&.&.&.&.&.&.&.&.&.&.&.&.&.&.&.&.&.&.&.&.&.&.&.&.&.&.&.&.&.&.&.&.&.&.&.&.&.&.&.&.&.&.&.&.",
"&.&.&.&.&.&.&.&.&.&.&.&.&.&.&.&.&.&.&.&.&.&.&.&.&.&.&.&.&.&.&.&.&.&.&.&.&.&.&.&.&.&.&.&.&.&.&.&.&.&.",
"&.&.&.&.&.&.&.&.&.&.&.&.&.&.&.&.&.&.&.&.&.&.&.&.&.&.&.&.&.&.&.&.&.&.&.&.&.&.&.&.&.&.&.&.&.&.&.&.&.&.",
"&.&.&.&.&.&.&.&.&.&.&.&.&.&.&.&.&.&.&.&.&.&.&.&.&.&.&.&.&.&.&.&.&.&.&.&.&.&.&.&.&.&.&.&.&.&.&.&.&.&.",
"&.&.&.&.&.&.&.&.&.&.&.&.&.&.&.&.&.&.&.&.&.&.&.&.&.&.&.&.&.&.&.&.&.&.&.&.&.&.&.&.&.&.&.&.&.&.&.&.&.&.",
"&.&.&.&.&.&.&.&.&.&.&.&.&.&.&.&.&.&.&.&.&.&.&.&.&.&.&.&.&.&.&.&.&.&.&.&.&.&.&.&.&.&.&.&.&.&.&.&.&.&.",
"&.&.&.&.&.&.&.&.&.&.&.&.&.&.&.&.&.&.&.&.&.&.&.&.&.&.&.&.&.&.&.&.&.&.&.&.&.&.&.&.&.&.&.&.&.&.&.&.&.&.",
"&.&.&.&.&.&.&.&.&.&.&.&.&.&.&.. . . &.&.&.&.&.&.. . &.&.. . . . &.&.&.&.&.&.&.&.&.&.&.&.&.&.&.&.&.&.",
"&.&.&.&.&.&.&.&.&.&.&.&.&.&.. . + X . &.X . &.o @ @ . . # 8 5 . &.&.&.&.&.&.&.&.&.&.&.&.&.&.&.&.&.&.",
"&.&.&.&.&.&.&.&.&.&.&.&.&.. o w F 7 . .   . @ _ +.' = . i d a # . &.&.&.&.&.&.&.&.&.&.&.&.&.&.&.&.&.",
"&.&.&.&.&.&.&.&.&.&.&.&.&.. $ H H A O ; k X , @.@.@.l   5 a 7 X . . &.&.. . &.&.&.&.&.&.&.&.&.&.&.&.",
"&.&.&.&.&.&.&.&.&.&.. &.&.. # D H A ; } @.P t @.@.} = . . t { P @ . . . . . . &.&.&.&.&.&.&.&.&.&.&.",
"&.&.&.&.&.&.&.&.&.. O + . . . 3 Z Z ~ @.@.+.X.@.O.]   @ : ..@.@.` @ . @ & O . . . &.&.&.&.&.&.&.&.&.",
"&.&.&.&.&.&.&.&.. # p 8 + . O , % o ! O.@.@.o.%.! y % { +.+.+.@.O.x * I W b # X $ + &.&.&.&.&.&.&.&.",
"&.&.&.&.&.&.&.&.. 7 s N 2 . j @.' % u ^ ) | O.| | z ' @.+.+.+.+.) x x Q W Q 9 6 d 8 + . X &.&.&.&.&.",
"&.&.&.&.&.&.&.. . X 8 p 2 x ( @.@.- & I U ! O.@.@.@.@.+. ./ / | ( U E Q W E * i d a + . . . &.&.&.&.",
"&.&.&.&.&.&.. . . # 3 $ . n Q @.} % o > % v ) @.O.O.+.+./ W W Q O.+.) Q ( u . 6 8 $ . . X . &.&.&.&.",
"&.&.&.&.&.&.X . $ V L Z $ n ) $.t . l @.z & /  .! (  .+.#.Q W ) O.@.M u x * 9 y 3 . . . . . &.&.&.&.",
"&.&.&.&.X   . . 4 L L L w h F 9 & @ X.+.+.I ! ^ W W ( / / W W O.+.` o   . 9 E Q U * . .   . &.&.&.&.",
"&.&.&.. X X X   . e H H D D f 9 I @ : } X.! W W W W W W T W Q | { % % @   u Q E Q r   # @ o . &.&.&.",
"&.&.&.X 2 N 2 X $ O g L H D O 0 Q y * o v Q W W Q W E K H K E Q I x E U * 9 Y J F * 2 D D e X . &.&.",
"&.&.&.+ s a s 8 d 8 d D H D O 0 Q Q U * c Y U W W Q Y D H H Y W Y Y T Q n . g L f   Z H H D O . &.&.",
"&.&.&.X 1 a p 1 a N N D L D # o v W W I G H H T Q W Y H H D Y Y L D L W c 3 D D D h D J H q . . &.&.",
"&.&.&.&.. X X 1 a N N D L D S $ g L H J H H H Y T T H J K J H D D L K W n g L L D H Z h q . . &.&.&.",
"&.&.&.&.. . $ a N C L A C D D J Y K H H H H L T K D K T W T H H H D K E W K L D H H w . . . . &.&.&.",
"&.&.&.&.. . 8 a N C D N N B D K Q W H H H H T W T H Y W E K D H H L L K K D C C D H A $ 7 + .   &.&.",
"&.&.&.&.. . + 8 8 N S N a N D L Y E L L L D Y W E J H J J L D L D D D L H C d a C D 7 i d i + . &.&.",
"&.&.&.&.&.. . $ 6 N N N N S D S A A A H D H H K T L D S A L L A d d C D H C a a a d a d a d + . &.&.",
"&.&.&.&.&.. 1 a N a a N a S C a a a N A L L L D D C B a d S D B a d d A L D N d a d d d a 6 X . &.&.",
"&.&.&.&.. 1 a a a 6 8 a a N a N a a s C C B D L L C s d d d B N a d d D D H B a 8 # # # # + . &.&.&.",
"&.&.&.&.. 1 a a 5 . 8 d d a a i d d B H B d C L D C N A H S a a d a C L L D N a a 5 # X . . &.&.&.&.",
"&.&.&.&.. . 2 5 . . i a d a 8 1 d d H H J d N F D N C L L A a a d a C H D B a d a a a 8 # . . &.&.&.",
"&.&.&.&.&.. . . . . 1 a a a 1 $ d d C H C d d d B a C D H g 8 a a N a B B a a 6 a d d N 5 . X &.&.&.",
"&.&.&.&.&.&.&.&.. . . # # # . X 6 i a N d d d a a N N S A 6 5 d a p a a d 6 + . 1 p p 7 + . . &.&.&.",
"&.&.&.&.&.&.&.&.&.. . .   . . . . X 5 a d a d 5 5 N p 8 + . 1 a N 6 1 a d a # . . X X . . . &.&.&.&.",
"&.&.&.&.&.&.&.&.&.&.&.&.&.. . . . O a a d d i #   1 $ . . . . $ 6 # . 1 5 6 # . . . . . . &.&.&.&.&.",
"&.&.&.&.&.&.&.&.&.&.&.&.&.&.&.&.. . 5 a a p + . X . X . . . . .   . X . . &.&.&.&.&.. &.&.&.&.&.&.&.",
"&.&.&.&.&.&.&.&.&.&.&.&.&.&.&.&.&.&.&.&.&.&.&.&.&.&.&.&.&.&.&.&.&.&.&.&.&.&.&.&.&.&.&.&.&.&.&.&.&.&.",
"&.&.&.&.&.&.&.&.&.&.&.&.&.&.&.&.&.&.&.&.&.&.&.&.&.&.&.&.&.&.&.&.&.&.&.&.&.&.&.&.&.&.&.&.&.&.&.&.&.&.",
"&.&.&.&.&.&.&.&.&.&.&.&.&.&.&.&.&.&.&.&.&.&.&.&.&.&.&.&.&.&.&.&.&.&.&.&.&.&.&.&.&.&.&.&.&.&.&.&.&.&.",
"&.&.&.&.&.&.&.&.&.&.&.&.&.&.&.&.&.&.&.&.&.&.&.&.&.&.&.&.&.&.&.&.&.&.&.&.&.&.&.&.&.&.&.&.&.&.&.&.&.&.",
"&.&.&.&.&.&.&.&.&.&.&.&.&.&.&.&.&.&.&.&.&.&.&.&.&.&.&.&.&.&.&.&.&.&.&.&.&.&.&.&.&.&.&.&.&.&.&.&.&.&.",
"&.&.&.&.&.&.&.&.&.&.&.&.&.&.&.&.&.&.&.&.&.&.&.&.&.&.&.&.&.&.&.&.&.&.&.&.&.&.&.&.&.&.&.&.&.&.&.&.&.&.",
"&.&.&.&.&.&.&.&.&.&.&.&.&.&.&.&.&.&.&.&.&.&.&.&.&.&.&.&.&.&.&.&.&.&.&.&.&.&.&.&.&.&.&.&.&.&.&.&.&.&.",
"&.&.&.&.&.&.&.&.&.&.&.&.&.&.&.&.&.&.&.&.&.&.&.&.&.&.&.&.&.&.&.&.&.&.&.&.&.&.&.&.&.&.&.&.&.&.&.&.&.&.",
"&.&.&.&.&.&.&.&.&.&.&.&.&.&.&.&.&.&.&.&.&.&.&.&.&.&.&.&.&.&.&.&.&.&.&.&.&.&.&.&.&.&.&.&.&.&.&.&.&.&.",
"&.&.&.&.&.&.&.&.&.&.&.&.&.&.&.&.&.&.&.&.&.&.&.&.&.&.&.&.&.&.&.&.&.&.&.&.&.&.&.&.&.&.&.&.&.&.&.&.&.&.",
"&.&.&.&.&.&.&.&.&.&.&.&.&.&.&.&.&.&.&.&.&.&.&.&.&.&.&.&.&.&.&.&.&.&.&.&.&.&.&.&.&.&.&.&.&.&.&.&.&.&."
};
