/* XPM */
static char *_cff0d98e3b14affaeff3a9993ba054fNHBT2jUavhF2fyjh[] = {
/* columns rows colors chars-per-pixel */
"50 50 4 1 ",
"  c #679175",
". c #79A863",
"X c #9BB94E",
"o c #BFBA5B",
/* pixels */
"oooooooooXXoooooXXXXXXXXXXXXXXXXXXXXXXXXXoooXXXXXo",
"oooooooooooooooooooooooooXXXXXXXXXXXXXXXXXooXXXXXo",
"oooXXXoooooooooXXXXXXXXXXXXXXXXXXXXXXXXXXXXXXXXXXo",
"XXXXXXXXXXXXXXXXXX......XXXXXXXXXXXXXXXXXXXXXXXXXX",
"XXXXXXXXXXXXXXXX.........X....XXXXXXoooXXXXXXXXXXX",
"XXXXXXXXXXXXXX.................XXXooooooXXXXXXXXXX",
"XXXXXXXXXXXXX..................ooooooooooooo...XX.",
"XXXXXXXXXXX......XXXXX............ooooooooo.......",
".XXX..XXX.......XXXXXXX...XXX.......ooo.....XX...X",
".......XXXXXXXXXXXXXXXX..XXXXXXXXXXXXXXXXXXXXXXXXX",
"..........XXXXXXXXXXXXXXXXXXXXXXXXXXXXXXXXXX..XXXX",
"X.....XXXXXXXXXXXXXXXXXXXXXXX      XXX   X.....X..",
"XXXXXXXXXXXXXX     XX   XXXoooo     X     ........",
"XXXXXXXXXXXXX            Xooooooo      oo  .......",
"XXXXXXXXXXX   oooo   oo  ooooooooo    oooo  oo...X",
"...XXXXX    ooooooooooooooooooooooo  oooooooooo..X",
"......o  oooooooooooooooooooo...oooo ooXXooooooooX",
"oooooooooooooooo...ooooooooo.....oooooXXXXoooooooo",
"ooooooXXXXXXoo.......oo.............XXXXXXXXXXXooo",
"XXXXXXXXXXXXXXXXXX.....................XXXXXXXXXXX",
"XXXXXXXXXXXXXXXXXXXXXX....................XXX.....",
"XXXXXooooXXXXXXXXXXXXXXXXX........................",
"XXXXooooooXXXXXXXXXXXX.......XXX...............ooo",
"oooooooooooooXXXX...........XXXXX.......XXXXXXoooo",
"XXooooXXXoooooXXXXXXXXXXXXXXXXXXX....XXXXXooXXoooo",
"XXXXoXXXXXoooooXXXXXXXXXXXXXXXXXXXXXXXXXoooooooooo",
"XXXXXXXXXXXXXXXXXXXXXXXXXXXXXXXXXXXXXXXoooooooo...",
"XXXXXXXXXXXXXXXXXXXXXXXXXXXXXXXXXXXXXX............",
".....XXXXXXXXXXXXXXXXXXXXXXXXXXXXXXXX.....XX......",
"..............XXXXXXXXXXXXXXXXXXXX......XXXXX.....",
"..........XXXXXXXXXXXXXXXXXXXXXXXXXXXXXXXXXXXXXX..",
"....XXXXXXXXXXXXXXXXXXXXXXXXXXXXXXXXXXXXXXXXXXXXX.",
"XXXXXXXXXXXXXXXXXXXXXXXX     XXXX     XXXXXXoooXX.",
"XXXXXXXXXXXXXXXXXXXXXX        XX       XXXXoooooX.",
"XoooooXXXXXXXXXXXXXXX   ooo       oooo  XXoooooooo",
"ooooooXXXXX     XX     oooooo    ooooooo Xoooooooo",
"oooooXXXXX             oooooooo oooooooooooooooooo",
"oooXXX  X   oo     oo   oooooooooooooooooooooooooo",
"XXXXX      oooo   ooooo oooooooooooooooooooooooooo",
"XXXXX  oo  oooooooooooooooooooooooooXXXXooooo..ooo",
"Xoo   ooooooooooooooooooooo....ooooXXXXXXooo....oo",
"oooooooooooXXXoooooXXXXooo......XXoXXXXXXX......oo",
"ooooooooooXXXXXoooXXX...........XXXXXXX.........XX",
"XXooooooXXXXXXXoooXX...........XXXXXXX...........X",
"XXXoooXXXXXXXXXXXoXX...............XX......XX.....",
"XXXXXXXXXXXXXXXXXX........................XXXXX...",
"XXXXXXXXXXXX..........XXX.................XXXXXXXX",
"XXXXXXXXXXXXXXX......XXXXX..XXX.......XX..XXXXXXXX",
"XXXXXXXXXXXXXXXXXX...XXXXX.XXXXXX....XXXX..XXXXXXX",
"XXXXXXXXXXXXooXXXXXXXXXXXXXXXXXXXXXXXXXXXXXXXXXXXX"
};
