/* XPM */
static char *result[] = {
/* columns rows colors chars-per-pixel */
"50 50 6 1 ",
"  c #161C2E",
". c #506A69",
"X c #669D9D",
"o c #D0DEB5",
"O c #8CC3C4",
"+ c None",
/* pixels */
"+++++..........XXX....  XXXOOXXXXXX..XXXOOOOXXXXXo",
"++++....XXXXXXXXXXX...  XXOOOOOOXXX.XXXXOOOOOXXXXo",
"+++....XXXXXXXXXXXXOXXX XXXOOOOOOXXXXXXXXXOOOXXXXo",
"++...XXXXXXXXOOOOXXOOXX.XXXXOOOOOX.XXXXXXXXXXXXXoo",
"+...XXXXXXOOOOOOOOOOOXXX..XXXOOOO.XOOOXXXXOOOOXXoo",
"+...XXXXXOOOOOOOOOOOOXXX...XXXOOO.OOOOXXXXOOOOOXoo",
"+..XXXXXXOOOOOOOOOOOOOXX...XXXOO..OOOOOXXXOOOOOooO",
"+..XXXXXXOOOOOOOOOOOOOXXX...XXO..OOOOOOXXXOOOOOooO",
"...XXXOXXOOOOOOOOOOOOoXXX........OOOOOOXXOOOOOOoOO",
".....OOOXXOOOOOOOOOOOooXX.......OOOOOOOXXOOOOOOoOO",
"....OooOXXOOOOOOOOOOOooXXX....XXOOOOOOOXXOOOOOOoOO",
"....OoooXXOOOOOOOOOOOoooXX....OOOOOOOOOXXOOOOOOOOO",
"...OOoooXXOOOOOOOOOOOoooXXX..XOOOOOOOOOXXOOOOOOOOO",
"..OOOOooXXOOOOOOOOOOOoooXXX..OOOOOOOOOOXOOOOOOOOOO",
"..OOOOooXXOOOOOOOOOOOoooOXXX.OOOOOOOOOOOOOOOOOOOOO",
"..OOOOooXXOOOOOOOOOOOOooOXXX.OOOOOOOOOOOOOOOOOOOOO",
".OOOOOooXXOOOOOOOOOOOOoOOXXX.OOOOOOOOOOOOOOOOOOOOO",
".OOOOOooXXOOOOOOOOOOOOoOOXXX.OOOOOOOOOOOOOOOOOOOOO",
".OOOOOooXXOOOOOOOOOOOOOOOXXX.OOOOOOOOOOOOOOOOOOOOO",
".OOOOOOoXXXOOOXXOOOOOOOOOXXX.OOOOOOOOOOOOOOOOOOOOO",
"XOOOOOOoXXXXXXXOOOOOOOOOOOXX.OOOOOOOOOOOOOOOOOOOOO",
"XOOOOOOoXXXXXXOOOOOOOOOOOOXX..OOOOOOOOOOOOOOOOOOOO",
"XOOOOOOOXXXXOOOOOOOOOOOOOOXX..OOOOOOOOOOOOOOOOOOOO",
"XOOOOOOXXXXOOOOOOOOOOOOOOOXXX.OOOOOOOOOOOOOOOOOOOO",
"XOOOOOOXXXOOOOOOOOOOOOOOOOXXX.XOOOOOOOOOOOOOOOOOOX",
"XOOOOOOXXOOOOOOOOOOOOOOOOOXX..XOOOOOOOOOOOOOOOXXXX",
"XOOOOOXXXOOOOOOOOOOOOOOOOOXX..XOOOOOOOOOOXOOOXXXXX",
"XXOOOOXXXOOOOOOOOOOOOOOOOOXX..XXOOOOOOOOOXXXXXXXXX",
"XXXXXXXXOOOOOOOOOOOOOOOOOXX...XXOOOOOOOOOOXXXXXXXO",
"OOOXXXXOOOOOOOOOOOOOOOOOOX...XXOOOOOOOOOOOOXXXXXXO",
"OOOXXXXOOOOOOOOOOOOOOOOOXXXXXXXOOOOOOOOOOOOXXOXXXO",
"OOOOXXXOOOOOOOOOOOOOOOOOXXXXXXXOOOOOOOOOOOOXXOOOOO",
"OOOOXXXOOOOOOOOOOOOOOOOOXXXXXXXOOOOOOOOOOOOXXOOOOO",
"OOOOXXXOOOOOOOOOOOOOOOOXXXXOOXXOOOOOOOOOOXOXXOOOOO",
"OOOOXXXXOOOOOOOOOOOOOOXXXXXOOXXOOOOOOOOOOXOXXOOOOO",
"OOO.XXXXOOOOOOOOOOOOOOXXOOOOOOXOOOOOOOOOOXOOOOOOOO",
"OOO.XXXXOOOOOOOOOOOOOOOOOOOOOOXOOOOOOOOOOXOOOOOOOO",
"....XXXOOOOOOOOOOOOOOOOOOOOOOOOOOOOOOOOOOXOOOOOOOO",
".....XXOOOOOOOOOOOOOOOOOOOOOOOOOOOOOOOOOOXXOOOOOOO",
"XXX..XXOOOOOOOOOOOOOOOOXOOOOOOOOOOOOOOOOOXXXOOOOOO",
"OXXX.XXOOOOOOOOOOOOXOOXXOOOOOOOOOOOOOOOOOXXXOOOOOO",
"OXXXXXXOOOOOOOOOOOXXOXXXOOOOOOOOOOOOOOOOXXXXOOOOOO",
"OOXXXXXOOOOOOOOOOOXXXXXOOOOOOOOOOOOOOOOoXXXXOOOOOO",
"OOXXXXXOOOOOOOOOOXXXXXXXOOOOXOOOOOOOOOOoXXXXOOOOOO",
"OXXXXXXXOOOOOOOOXXXXOXXXXXXXXOOOOOOOOOooXXXXOOOOOO",
"XXXXXXXXXOOOOOXXXXXOOOXXXXXXOOOOOOOOOOooXXXXXOOOOO",
"XXXXXXXXXXOOXXXXXOOOOOXXXXXXOOOOOOOOOOooXXXXXOOOOO",
"XOOOOXXXXXXXXXXXXOOOOOOXXXXOOOOOOOOOOOooXXXXOOOOOO",
"XOOOOOXXXXXXXXXXOOOOOOOXXXOOOOOOOOOOOOooOXXXOOOOOO",
"OOOOOoXXXXXXXOOOOOOOOOOXXXOOOOOOOOOOOOooOXXXXOOOOO"
};
