/* XPM */
static char *result[] = {
/* columns rows colors chars-per-pixel */
"50 50 209 2 ",
"   c #11172B",
".  c #151B2D",
"X  c #1A1D2F",
"o  c #1C1E31",
"O  c #0E152D",
"+  c #17222F",
"@  c #19202F",
"#  c #1A2631",
"$  c #1A2932",
"%  c #1E2D39",
"&  c #172030",
"*  c #1B3533",
"=  c #232234",
"-  c #2A2333",
";  c #2E2936",
":  c #2C253A",
">  c #2D2D39",
",  c #242C37",
"<  c #3B2937",
"1  c #332D3B",
"2  c #322539",
"3  c #253234",
"4  c #26373B",
"5  c #33313B",
"6  c #363636",
"7  c #2A2E2F",
"8  c #492E3B",
"9  c #4E383C",
"0  c #52313D",
"q  c #5B343E",
"w  c #1F4337",
"e  c #214D39",
"r  c #254339",
"t  c #36493A",
"y  c #23583C",
"u  c #3F583E",
"i  c #25633E",
"p  c #444635",
"a  c #585833",
"s  c #4D4536",
"d  c #3D2B42",
"f  c #372940",
"g  c #393A42",
"h  c #2E3141",
"j  c #432C47",
"k  c #482F49",
"l  c #433D44",
"z  c #493949",
"x  c #53334E",
"c  c #553846",
"v  c #5B3753",
"b  c #5E3855",
"n  c #573450",
"m  c #693A47",
"M  c #713C47",
"N  c #633A55",
"B  c #6A3D5B",
"V  c #643B58",
"C  c #703E56",
"Z  c #713F5A",
"A  c #2B454A",
"S  c #364547",
"D  c #364E52",
"F  c #335555",
"G  c #2A7843",
"H  c #38655B",
"J  c #2C6A47",
"K  c #3E6C65",
"L  c #3B6660",
"P  c #3E7B62",
"I  c #4B4544",
"U  c #444142",
"Y  c #554C4B",
"T  c #5A494B",
"R  c #5A544E",
"E  c #5A5953",
"W  c #504154",
"Q  c #624A45",
"!  c #7D4147",
"~  c #775746",
"^  c #7A4459",
"/  c #675A54",
"(  c #634A55",
")  c #4E7647",
"_  c #7A675B",
"`  c #676259",
"'  c #436E67",
"]  c #417168",
"[  c #417866",
"{  c #7E6860",
"}  c #857E39",
"|  c #8B454B",
" . c #87484D",
".. c #95494D",
"X. c #96484C",
"o. c #834559",
"O. c #8D4858",
"+. c #954A55",
"@. c #9C4D54",
"#. c #9A4C59",
"$. c #935B58",
"%. c #A24E55",
"&. c #AC5153",
"*. c #A45157",
"=. c #B55555",
"-. c #B95655",
";. c #BA5B58",
":. c #A04D4F",
">. c #86675C",
",. c #9A7159",
"<. c #A8685E",
"1. c #BC645D",
"2. c #A27251",
"3. c #955F64",
"4. c #9E7466",
"5. c #907965",
"6. c #867464",
"7. c #BB6D62",
"8. c #A37665",
"9. c #AA7A64",
"0. c #BB7869",
"q. c #A06D60",
"w. c #C27768",
"e. c #2D8245",
"r. c #2E8A47",
"t. c #3A8D4C",
"y. c #34954A",
"u. c #399E57",
"i. c #3D8D5E",
"p. c #36AB4F",
"a. c #37AE51",
"s. c #37B251",
"d. c #38B251",
"f. c #3F8463",
"g. c #5B864B",
"h. c #5D934E",
"j. c #47B753",
"k. c #58B254",
"l. c #51AC52",
"z. c #7CB759",
"x. c #6DAD55",
"c. c #5DC158",
"v. c #90873B",
"b. c #A49C3B",
"n. c #B2A83C",
"m. c #E8D83E",
"M. c #8F8259",
"N. c #A69540",
"B. c #92866D",
"V. c #BB8465",
"C. c #AB9978",
"Z. c #C98A5B",
"A. c #D4915F",
"S. c #D9935F",
"D. c #DD9C5C",
"F. c #E09F5C",
"G. c #DFA25A",
"H. c #CCA050",
"J. c #E0A559",
"K. c #E3AC57",
"L. c #E6B255",
"P. c #E9BB52",
"I. c #E9B754",
"U. c #C68764",
"Y. c #D08F60",
"T. c #DB9460",
"R. c #C6AA7D",
"E. c #E8BB6F",
"W. c #87C65D",
"Q. c #88D05F",
"!. c #91D762",
"~. c #DAC942",
"^. c #DECE4E",
"/. c #EDC54F",
"(. c #EFC94D",
"). c #E3D441",
"_. c #EBDB42",
"`. c #F4D34B",
"'. c #F7DB49",
"]. c #F8DD48",
"[. c #F9DF46",
"{. c #ECC251",
"}. c #F6DA52",
"|. c #FBE446",
" X c #FEED43",
".X c #FAEA49",
"XX c #FAE953",
"oX c #FFF059",
"OX c #FFF263",
"+X c #B7B9BE",
"@X c #C6AE82",
"#X c #DBC594",
"$X c #E4CD97",
"%X c #E9D89E",
"&X c #F0DF9E",
"*X c #FFF387",
"=X c #FFF49C",
"-X c #FFF591",
";X c #E8D5A0",
":X c #FEF6A9",
">X c #FEF7B4",
",X c #F0E2AB",
"<X c #FFFBD8",
"1X c #FFFCD7",
"2X c #FFF9C7",
"3X c #FFFDE8",
"4X c #FFFEF4",
"5X c #FFFEFE",
"6X c None",
/* pixels */
"6X6X6X6X6X6X6X6X6X6X6X6X6X6X6X6X6X6X6X6X6X6X6X6X6X6X6X6X6X6X6X6X6X6X6X6X6X6X6X6X6X6X6X6X6X6X6X6X6X6X",
"6X6X6X6X6X6X6X6X6X6X6X6X6X6X6X6X6X6X6X6X6X6X6X6X6X6X6X6X4.4.4.4.4.6X6X6X6X6X6X6X6X6X6X6X6X6X6X6X6X6X",
"6X6X6X6X6X6X6X6X6X6X6X6X6X6X6X6X6X6X6X6X6X6X6X6X6X6X4.4.4.4.4.4.4.4.6X6X6X6X6X6X4.6X6X6X6X4.4.4.4.4.",
"6X6X6X6X6X6X6X6X6X6X6X6X6X6X6X6X6X6X6X6X6X6X6X6X6X6X6X4.4.4.4.4.4.4.4.6X6X6X6X6X4.4.4.4.4.4.4.4.4.4.",
"6X6X6X6X6X6X6X6X6X6X6X6X6X6X6X6X6X6X6X6X6X4.4.4.4.4.4.4.4.4.4.4.4.6X4.4.6X6X6X6X6X6X4.4.4.6X6X6X4.4.",
"6X6X6X6X6X6X6X6X6X6X6X6X6X6X6X6X6X6X6X6X6X6X6X4.4.4.4.4.6X6X6X6X6X6X6X6X4.6X6X6X6X6X6X6X6X6X6X6X6X6X",
"6X6X6X6X6X6X6X6X6X6X6X6X6X6X6X6X6X6X6X6X6X6X6X6X4.4.4.6X6X6X6X6X6X6X6X6X6X6X6X6X6X6X6X6X6X6X6X6X6X6X",
"6X6X6X6X6X6X6X6X6X6X6X6X6X6X6X6X6XA.9.6X6X6X6X6X6X6X6X6X6X6X6X6X6X6X6X6X6X6X6X6X6X6X6X6X6X6X6X6X6X6X",
"6X6X6X6X6X6X6X6X6X6X6X6X6X6X6X6XS.V.8.6X6X6X6X6X6X6X6X6X6X6X6X6X6X6X6X6X6X6X6X6X6X6X6X6X6X6X6X6X6X6X",
"6X6X6X6X6X6X6X6X6X6X6X6X6X6X6XS.Z.8.4.6X6X6X6X6X6X6X6X6X6X6X6X6X6X6X6X6X6X6X6X6X6X6X6X6X6X6X6X6X6X6X",
"6X6X6X6X6X6X6X6X6X6X6X6X6X6XS.Y.9.4.6X6X6X6X6X6X6X6X6X6X6X6X6X6X6X6X6X6X6X6X6X6X6X6X6X6X6X6X6X6X6X6X",
"6X6X6X6X6X6X6X6X6X6X6X6X6XS.Y.9.4.4.6X6X6X6X6X6X6X6X6X6X6X6X6X6X6X6X6X6X6X6X6X6X6X6X6X6X6X6X6X6X6X6X",
"6X6X6X6X6X6X6X6X6X6X6X6X6XV.6X6X6X6X6X6X6X6X6X6X6X6X6X6X6X6X6X6X6X6X6X6X6X6X6X6X6X6X6X6X6X6X6X6X6X6X",
"6X6X6X6X6X6X6X6X6X6X6X6X6X6X6X6X6X6X6X6X6X6X6X6X6X6X6X6X6X6X6X6X6X6X6X6X6X6X6X6X6X6X6X6X6X6X6X6X6X6X",
"6X6X6X6X6X6X6X6X6X6X6X6X6X6X6X6X6X6X6X6X6X6X6X6X6X6X6X6X6X6X6X6X6X6X6X6X6X6X6X6X6X6X6X6X6X6X6X6X6X6X",
"6X6X6X6X6X6X6X6X6X6X6X6X6X6X6X6X6X6X6X6X6X6X6X6X6X6X6X6X6X6X6X6X6X6X6X6X6X6X6X6X6X6X6X6X6X6X6X6X6X6X",
"6X6X6X6X6X6X6X6X6X6X6X6X4.6X6XT.T.6X6X6X6X6X6X6X6X6X. X X X X . 6X6X6X6X6X6X6X6X6X6X6X6X6X6X6X6X6X6X",
"6X6X6X6X6X6X6X6X6X6X6X4.6X6X6XS.6X6X6X6X6X6X6X6X6X6X6X2 | ....m ; 6X6X6X6X6X6X6X6X6X6X6X6X6X6X6X6X6X",
"6X6X6X6X6X6X6X6X6X8.8.4.6X6XK.G.6X6X6X6X6X6X6X6X6X6X6XX < ! =.=.:. .l 6X6X3 t X 6X6X6X6X6X6X6X6X6X6X",
"6X6X6X6X6X6X6X6XU.V.9.4.6XD.`.6X6X6X6X6X6X6X6X6X6X6X6X6X. X ~ w.1.1.7.c . u x.3 . 6X6X6X6X6X6X6X6X6X",
"6X6X6X6X6X6X6XS.S.A.8.9.Y.I. X6X6X6X6X6X6X6X6X6X6X6X6X6X  : V 3.V.7.1.q.= # z.g.X 6X6X6X6X6X6X6X6X6X",
"6X6X6X6X6X6X6XS.S.V.9.A.G.|.6X6X6X6X6X. & . 6X6X6X6X. - 8 2 d N ^ @.-.<.2 * k.W.3 6X6X6X6X6X6X6X6X6X",
"6X6X6X6X6X6XS.S.S.U.Z.S.{. X6X6X6X6X6X$ G e.r . 6X. o C %...| @.@.O.&.M X i d.z.3 6X6X6X6X6X6X6X6X6X",
"6X6X6X6X6X6XS.S.G.L.A.G.|.6X6X6X6X6X6X6Xe r.p.G . X f x v C o.%.=.=.| S H p.j.h.X 6X6X6X6X6X6X6X6X6X",
"6X6X6X6X6XS.S.D.{.K.S.P. X6X6X6X6X6X6X6X6X+ G i 2 M | 0 k m ^ o.+.&.O.H f.a.k.t . 6X6X6X6X6X6X6X6X6X",
"6X6X6X X6XT.A.L.{.S.S.P.6X6X6X6X6X6X6X6X6X6X. , b ^ O.#.&.=.=.-.=.-.$.H ] u.k.% ; ; 6X6X6X6X6X6X6X6X",
"6X6X6X6X6XA.J.].P.S.S.6X6X6X6X6X6X6X6X6X6X6X. j B B B B Z o.o.%.*.=.+.5 F f.g.I <.3.; 6X6X6X6X6X6X6X",
"6X6X X6XS.D.{..XG.S.S.6X6X6X6X6X6X6X6X6X6X6X. : b V x x x x x x N %.=...O.$.M.V.U.U.T 6X6X6X6X6X6X6X",
"6X6X X6X`.'. X|.F.D.I.6X6X6X6X6X6X6X6X6X6X6X. . 4 A w 4 4 , % o = c %.-.-.1.w.7.7.w.$.& 6X6X6X6X6X6X",
"6X6X X X X X X|.J.D.6X6X6X6X6X6X6X6X6X6X6X. r h.l.s.s.a.u.[ K F % % 8 &.=.-.=.=.;.0.( . 6X6X6X6X6X6X",
"6X X X|. X`./. XJ.D.N.6X6X6X6X6X6X6X6X6X6X$ x.!.c.d.d.d.s.i.K K A 3 X M -.=.=.=.X.m = . 6X6X6X6X6X6X",
"6X X|.`.'.D.D.'.F.J.} 6X6X6X6X6X6X6X6X6X+ ) Q.c.p.e.e e J K ] K D # . k =.=.=.&...|  .- 6X6X6X6X6X6X",
"6X6X6X|.`.S.D.`.I.G.v.6X6X6X6X6X6X6X6X6Xy j.j.e.w + . $ % F ] ] L . : B =.=.=.-.-.-.-.q 6X6X6X6X6X6X",
"6X6X6XI.`.S.S.L.P.D.~.a _.6X6X6X6X6X6X6Xi d.i + 6X6X% L K K ] ] F h b #.=.=.=.:.X.=.=.| X 6X6X6X6X6X",
"6X6X6XI.`.S.S.T.S.D.|.n._.6X6X6X6X6X6X6Xi y.$ 6X6X6Xo A ' ' K L h v V o.&.=.X.< < &.-.&.< 6X6X6X6X6X",
"6X6X6XH.{.S.D.A.S.D.]..X X6X6X6X6X6X6X6X$ y $ 6X6X6X6Xo D ' K z v B B B N 0 = 0 X.-.=.=.8 . 6X6X6X6X",
"6X6X6XQ A.D./.G.S.S./. X X6X6X6X6X6X6X6X6X. X 6X6X6Xo x B W S B B B b d o = m &.-.-.=.=.8   6X6X6X6X",
"6X6X6X9 Z.S.{.P.S.S.P..X6X6X6X6X6X6X6X6X6X6X6X6X6X6X: v v j 2 k x f o o f n | ..X.X.m 0 =   6X6X6X6X",
"6X6X6X6X2.S.L.].G.S.G.|.} 6X6X6X6X6X6X6X6X6X6X6X6X6X> 1 $ * * $ o . . : ( >.5._ 5._ _ Y R > 6X6X6X6X",
"6X6X6X6X~ A.L. X(.A.D.`.} O 6X6X6X6X6X6X6X6X6X6X6X6X= r y.p.p.G & 5 R > g I / Y / R T 1 1 # 6X6X6X6X",
"6X6X6X6X9 Z.D.}.=XE.A.P.m.a 6X6X6X6X6X6X    6X6X6X.   4 x.c.d.s.y 1 / > o j j j j j x Z C 2 6X6X6X6X",
"6X6X6X6X6X,.T.}.<X:XL.K. X^.s 6X6X6XX 5 ` R . o , 6 Y = t W.j.s.G . o : N B B B ^ +.#.=.| - 6X6X6X6X",
"6X6X6X6X6X~ T.P.-X4X>X:XXX:X+XE p 6 E @XB.B.S 6 >.5._ z t Q.c.s.e.& . : j b b b c q q q - . 6X6X6X6X",
"6X6X6X6X6X6XA.G.|.>X5X5X2X-X:XXX_.^.#X,XB.5 5 l { / l ; r ) t.y $ X .   o o o # .   .   . 6X6X6X6X6X",
"6X6X6X6X6X X6XG.|.oX>X4X5X4X<X>X>X&X%X,X$XB.= = g = . . . . + . . 6X6X6X6X6X6X6X6X6X. . . 6X6X6X6X6X",
"6X6X6X6X6X X X X X*X3X1X1X4X5X5X3X&X#X$XC.R.{ . . 6X6X6X. . . 6X6X6X6X6X6X6X6X6X6X6X6X. X . 6X6X6X6X",
"6X6X6X6X6X6X X X XXX:X<X-XOX=X=XOX.XM.C.I I l . 6X6X6X6XX X 6X6X6X6X6X6X6X6X6X6X6X6X6XX . . 6X6X6X6X",
"6X6X6X6X6X6X6X X X X XoX.X X X Xm.v.7 , $   6X6X6X6X6X6X6X6X6X6X6X6X6X6X6X6X6X6X6X6X6X6X6X6X6X6X6X6X",
"6X6X6X6X6X6X6X6X6Xn.~.m.).).).b.t   6X6X6X6X6X6X6X6X6X6X6X6X6X6X6X6X6X6X6X6X6X6X6X6X6X6X6X6X6X6X6X6X",
"6X6X6X6X6X6X6X6X6X6X6X6 6 7 p 6X6X6X6X6X6X6X6X6X6X6X6X6X6X6X6X6X6X6X6X6X6X6X6X6X6X6X6X6X6X6X6X6X6X6X"
};
