/* XPM */
static char *result[] = {
/* columns rows colors chars-per-pixel */
"50 50 6 1 ",
"  c #8CC3C4",
". c #669D9D",
"X c #506A69",
"o c #161C2E",
"O c #D0DEB5",
"+ c white",
/* pixels */
"             ..............          .........Xooo",
"       ...XXXXXXXX.......            ........Xoooo",
"XXXXXXXXXXXX..XXXXX....             .........Xoooo",
"XX...............XXX...           ...........ooooo",
"..................XXX....         ...XXXX..XXooooo",
".........         .......         ..XXXXXXoooooooX",
"..                  .....         ..XXXXXXoooXXooX",
"OOOO                   ...       ...      XXoXXXoX",
"OOOOOO                  ..      ....       XoXXXoo",
"OOO                         ...........    .Xooooo",
"                            ............   ..Xoooo",
"                               ...............XooX",
"                                XXX...........XXXX",
"                                 XXX..........XXX.",
"                                 XXX..........XXX.",
"                                  XXX........XXXX.",
"                                   XX........XXXX.",
"                                    XX.......XXXXX",
"                                     XXX..XXXXXXXX",
"                                     XXXXXXXXXXXXX",
"                                     XXXXXXXXXXXXX",
"                                    XXXXXXXXXXXXXX",
"                                    XXX.....XXXXX.",
"                                   X.........XXXX.",
"                         ....................XXoX.",
"                      ..............       ...oooX",
"               ......    ..........          .oooX",
"                .......   .....               oooX",
"                 ......  ..                   oooX",
"                 .....                        oooo",
"                 .....                       ooooo",
"                ...   ..                     ooooo",
"                     .....                  oooooo",
"                    ......                 ooooooo",
"                      ......       ...oooooooooooo",
"                         .....  .........ooooXXXoX",
"       ..                 ..................oXXXoX",
"...........                  .................oooX",
"........        ..           .................oooo",
"..........     ....         ...    ...........oooo",
"      .....   .....         ..      ...  ......ooo",
"OOOOO    .........                   ..   .....ooo",
"OOOOO    ........                     .    ...XXoX",
"           ......                      .   ...XXoX",
"           ......                          ...XXoX",
"              ....                      .  ...XXoX",
"               ......                    .....XXXX",
"O              ......                    ....XXXXX",
"               ......                   .....XXXXX",
"                ....                  .....XXXXXXX"
};
