/* XPM */
static char *result[] = {
/* columns rows colors chars-per-pixel */
"50 50 198 2 ",
"   c #12172C",
".  c #151B2D",
"X  c #191E2F",
"o  c #1B1E31",
"O  c #0E152C",
"+  c #211F33",
"@  c #16222F",
"#  c #1A212F",
"$  c #1B2331",
"%  c #192D32",
"&  c #1D2A38",
"*  c #1C3133",
"=  c #1C3A35",
"-  c #242434",
";  c #282433",
":  c #242A34",
">  c #2B2A37",
",  c #2B2439",
"<  c #2D2D39",
"1  c #222A39",
"2  c #342D3B",
"3  c #372939",
"4  c #2B3A36",
"5  c #22323D",
"6  c #273438",
"7  c #3A3C31",
"8  c #33313B",
"9  c #39333D",
"0  c #4B323D",
"q  c #53323E",
"w  c #58323D",
"e  c #412B38",
"r  c #62353F",
"t  c #1F4838",
"y  c #224D3A",
"u  c #234337",
"i  c #3A4636",
"p  c #25573C",
"a  c #34563D",
"s  c #26653E",
"d  c #27683F",
"f  c #484932",
"g  c #6A6736",
"h  c #3D2A43",
"j  c #2A3341",
"k  c #233641",
"l  c #3D3741",
"z  c #462E43",
"x  c #502F40",
"c  c #413046",
"v  c #4D3044",
"b  c #433C44",
"n  c #4D324C",
"m  c #573548",
"M  c #5B3653",
"N  c #5F3955",
"B  c #623640",
"V  c #673942",
"C  c #633A57",
"Z  c #693C55",
"A  c #663C5A",
"S  c #6A3D5B",
"D  c #723C45",
"F  c #2B454A",
"G  c #294947",
"H  c #38454D",
"J  c #384E53",
"K  c #335555",
"L  c #385A57",
"P  c #2D534C",
"I  c #2A6D41",
"U  c #2A7442",
"Y  c #3E625F",
"T  c #347B4E",
"R  c #3E6D65",
"E  c #3B6660",
"W  c #3F7168",
"Q  c #4B4446",
"!  c #50464B",
"~  c #544A4C",
"^  c #574D4C",
"/  c #5B544A",
"(  c #5D5150",
")  c #505958",
"_  c #4E5059",
"`  c #6D494B",
"'  c #7F4148",
"]  c #67435B",
"[  c #75415B",
"{  c #7B445A",
"}  c #625651",
"|  c #6A5A56",
" . c #6E5C59",
".. c #765A56",
"X. c #745546",
"o. c #4C6D45",
"O. c #6D6155",
"+. c #736556",
"@. c #75635A",
"#. c #786B5A",
"$. c #406E66",
"%. c #407467",
"&. c #417168",
"*. c #407E64",
"=. c #7F6861",
"-. c #974A4E",
";. c #8C4754",
":. c #834459",
">. c #8A4656",
",. c #944A57",
"<. c #9C4C56",
"1. c #974C58",
"2. c #855F5B",
"3. c #A14D4F",
"4. c #A54F54",
"5. c #AB5255",
"6. c #A95856",
"7. c #B55555",
"8. c #B95655",
"9. c #B75957",
"0. c #95655B",
"q. c #87765B",
"w. c #8B6159",
"e. c #BB635D",
"r. c #B4635C",
"t. c #897064",
"y. c #B97A6A",
"u. c #AC6F62",
"i. c #C27566",
"p. c #C47D6B",
"a. c #3B8A48",
"s. c #33984B",
"d. c #3A9F57",
"f. c #3B975A",
"g. c #398B58",
"h. c #34A24D",
"j. c #3AA64E",
"k. c #38B451",
"l. c #38AA52",
"z. c #3D8062",
"x. c #478849",
"c. c #57964E",
"v. c #558F4C",
"b. c #64924F",
"n. c #47B753",
"m. c #74A454",
"M. c #76AD56",
"N. c #408360",
"B. c #58C157",
"V. c #7ACC5D",
"C. c #69C65A",
"Z. c #9C953B",
"A. c #B4AA3B",
"S. c #C6BA3E",
"D. c #EFDF3E",
"F. c #92856B",
"G. c #9D8E72",
"H. c #B19F7C",
"J. c #D9945F",
"K. c #DD9E5B",
"L. c #D7915F",
"P. c #CE8C5D",
"I. c #CCBF40",
"U. c #DEA25A",
"Y. c #D7B64A",
"T. c #E3AC57",
"R. c #E8B754",
"E. c #8BCA5E",
"W. c #85D15F",
"Q. c #8ED361",
"!. c #DACB40",
"~. c #EEC74F",
"^. c #EFC84E",
"/. c #F8DD49",
"(. c #EFD849",
"). c #FBE445",
"_. c #FEEC43",
"`. c #FFED4B",
"'. c #FFF044",
"]. c #FFEF5D",
"[. c #FFEE52",
"{. c #FFF37B",
"}. c #FFF272",
"|. c #BDAF88",
" X c #CDB081",
".X c #E0CD9A",
"XX c #E3D09C",
"oX c #FFF485",
"OX c #ECD7A1",
"+X c #FEF7B6",
"@X c #F7ECAE",
"#X c #FFF9CA",
"$X c #FFF9C2",
"%X c #F5ECCC",
"&X c #FFFCE5",
"*X c #FFFFFF",
"=X c #FFFEF7",
"-X c None",
/* pixels */
"-X-X-X-X-X-X-X-X-X-X-X-X-X-X-X-X-X-X-X-X-X-X-X-X-X-X-X-X-X-X-X-X-X-X-X-X-X-X-XJ.T.R.T.K.~.R.J.-X-X-X",
"-X-X-X-X-X-X-X-X-X-X-X-X-X-X-X-X-X-X-X-X-X-X-X-X-X-X-X-X-X-X-X-X-X-X-X-X-X-XJ.J.J.J.L.K./.).R.J.-X-X",
"-X-X-X-X-X-X-X-X-X-X-X-X-X-X-X-X-X-X-X-X-X-X-X-X-X-X-X-X-X-X-X-X-X-X-X-X-X-XJ.J.K.R.K.K.T.)._.R.J.-X",
"-X-X-X-X-X-X-X-X-X-X-X-X-X-X-X-X-X-X-X-X-X-X-X-X-X-X-X-X-X-X-X-X-X-X-X-X-X-X-X-X-X).).).(.[.).).K.J.",
"-X-X-X-X-X-X-X-X-X-X-X-X-X-X-X-X-X-X-X-X-X-X-X-X-X-X-X-X-X-X-X-X-X-X-X-X-X-X-X-X-X].oX_.{.@X~./.R.J.",
"-X-X-X-X-X-X-X-X-X-X-X-X-X-X-X-X-X-X-X-X-X-X-X-X-X-X-X-X-X-X-X-X-X-X-X-X-X-X-X-XD.{.#X_.'.'._.^.T.-X",
"-X-X-X-X-X-X-X-X-X-X-X-X-X-X-X-X-X-X-X-X-X-X-X-X-X-X-X-X-X-X-X-X-X-X-X-X-X-X-X-XA.+X$XoX_._._.U.P.-X",
"-X-X-X-X-X-X-X-X-X-X-X-X-X-X-X-X-X-X-X-X-X-X-X-X-X-X-X-X-X-X-X-X-X-X-X-X-X-X-Xf D.{.+X&X]._._.Y.X.-X",
"-X-X-X-X-X-X-X-X-X-X-X-X-X-X-X-X-X-X-X-X-X-X-X-X-X-X-X-X-X-X-X-X-XJ.-X-XJ.-X-XZ._._.#X&X]._.'.Z.o -X",
"-X-X-X-X-X-X-X-X-X-X-X-X-X-X-X-X-X-X-X-X-X-X-X-X-X-X-X-X-X-X-X-X-XJ.J.J.J.-X-XZ.'.}.=X#X_._.S.7 -X-X",
"-X-X-X-X-X-X-X-X-X-X-X-X-X-X-X-X-X-X-X-X-X-X-X-X-X-X-X-X-X-X-X-X-X-XJ.J.J.-XO g _.+X*X#X'.S.i -X-X-X",
"-X-X-X-X-X-X-X-X-X-X-X-X-X-X-X-X-X-X-X-X-X-X-X-X-X-X-X-X-X-X-X-X-X-X-X-X-X-X-X7 !.@X*X#XS.i -X-X-X-X",
"-X-X-X-X-X-X-X-X-X-X-X-X-X-X-X-X-X-X-X-X-X-X-X-X-X-X-X-X-X-X- . -X-X-X-X-X-X-X# / XX%X+Xq.  -X-X-X-X",
"-X-X-X-X-X-X-X-X-X-X-X-X-X-X-X-X-X-X-X-X-X-X-X-X-X-X-X-X. 9 ` X -X-X-X-X-X-X-XO #.OX@XXXH.< -X-X-X-X",
"-X-X-X-X-X-X-X-X-X-X-X-X-X-X-X-X-X-X-X-X-X-X-X-X-X-X. . w 9.0.X -X-X-X-X-X-X-X8 G.F..X|.! $ -X-X-X-X",
"-X-X-X-X-X-X-X-X-X-X-X-X-X-X-X-X-X. : # -X-X-X-X-X. @ q r.e.u.< -X-X-X-X-X-X-X: F.Q |  XO.. -X-X-X-X",
"-X-X-X-X-X-X-X-X-X-X-X-X-X-X-X-X-X. x.o.. -X-X    . h { H.i.i.` . -X-X-X-X-X-X  8 ~ @ +.O.-X-X-X-X-X",
"-X-X-X-X-X-X-X-X-X-X-X-X-X-X-X-X-X@ a.v.. . , v V e < [ r.9.i.w.X . # X . -X-X. < l : # X -X-X-X-X-X",
"-X-X-X-X-X-X-X-X-X-X-X-X-X-X-X-X-X@ x.a   . M S <.4.w M <.8.6.3 X a b.4 -X-X-X  ~ t.! X -X-X-X-X-X-X",
"-X-X-X-X-X-X-X-X-X-X-X-X-X-X-X-X-Xy p - x q 3 n S ,.4.4.>.3.:.= U V.E.4 -X-X-XX | t.! X -X-X-X-X-X-X",
"-X-X-X-X-X-X-X-X-X-X-X-X-X-X-X-X-X@ ; M [ 5.3.q v A :.5.5.` J s.B.Q.o.X -X-X-X> t. .2 -X-X-X-X-X-X-X",
"-X-X-X-X-X-X-X-X-X-X-X-X-X-X-X-X-Xo n S S [ <.5.4.,.,.<.-.H N.k.V.M.% -X-X-X% % ! Q - -X-X-X-X-X-X-X",
"-X-X-X-X-X-X-X-X-X-X-X-X-X-X-X-X-X, A S S S S 7.7.7.7.8.w.&.N.n.M.6 -X-X-X= U @ - 6 . -X-X-X-X-X-X-X",
"-X-X-X-X-X-X-X-X-X-X-X-X-X-X-X-X. o h h h n S S 1.7.7.5.) %.d.n.i   -X-X-Xs d 6 m.M.4 -X-X-X-X-X-X-X",
"-X-X-X-X-X-X-X-X-X-X-X-X-X-X-X$ p d s s = . , M A [ <.-.5 W d.a.$ + . -X-X% u b.W.C.a -X-X-X-X-X-X-X",
"-X-X-X-X-X-X-X-X-X-X-X-X-X-X% c.E.V.k.k.h.U F 1 , M 5.3.0 ) z.y ` 0.; -X-X. y n.k.h.= -X-X-X-X-X-X-X",
"-X-X-X-X-X-X-X-X-X-X-X-X. = c.Q.W.n.k.k.k.l.N.K $ + ;.8.5.6.q.@.u.p.9 -X-X. y l.k.U . -X-X-X-X-X-X-X",
"-X-X-X-X-X-X-X-X-X-X-X% s s.j.j.s.d s s.l.d.%.R P k m 7.8.e.i.p.p.i.9 -X. . X y d = -X-X-X-X-X-X-X-X",
"-X-X-X-X-X-X-X-X-X-X-Xp s.I * % : . # % P W R F & $ V 8.8.7.9.e.i.0.; . . $ ~ 8   -X-X-X-X-X-X-X-X-X",
"-X-X-X-X-X-X-X-X-X-X-X$ % . -X-X-X& Y L K &.&.E &   D 8.7.7.9.6...< . .   > ..9 . -X-X-X-X-X-X-X-X-X",
"-X-X-X-X-X-X-X-X-X-X-X-X-X-X-X-X-X* R W &.&.&.E j h { 5.4.,.>.0 , . X X -X-X- $ -X-X-X-X-X-X-X-X-X-X",
"-X-X-X-X-X-X-X-X-X-X-X-X-X-X-X-X-X. F W &.W K k n :.5.5.7.4.>.>.M . . -X-X-X-X-X-X-X-X-X-X-X-X-X-X-X",
"-X-X-X-X-X-X-X-X-X-XO -X-X-X-X-X+ h j R Y l c n S >.8.8.7.7.8.8.' . -X-X-X-X-X-X-X-X-X-X-X-X-X-X-X-X",
"-X-X-X-X-X-X-X-X-X$ I 4 . -X-XX h S ] J _ A S S S :.7.7.7.8.7.7.r -X-X-X-X-X-X-X-X-X-X-X-X-X-X-X-X-X",
"-X-X-X-X-X-X-X-X@ U k.g.5 . . o n A C M S S S S S S 4.8.9.8.9.7.3 -X-X-X-X-X-X-X-X-X-X-X-X-X-X-X-X-X",
"-X-X-X-X-X-X-X-X@ s.k.f.F .   o ; c , 2 c h n N N n v B r r r r ; . -X-X-X-X-X-X-X-X-X-X-X-X-X-X-X-X",
"-X-X-X-X-X-X-X-XX U d.T k -X-X$ ! Q !  .- $ ; 2 n ( @.( +.} O.( ; . -X-X-X-X-X-X-X-X-X-X-X-X-X-X-X-X",
"-X-X-X-X-X-X-X-X-X@ % $ X -X-X. $ - | | l |  .@.( } @.( #.} O.( - . -X-X-X-X-X-X-X-X-X-X-X-X-X-X-X-X",
"-X-X-X-X-X-X-X-X-X-X-X-X-X-X-X. . $ < > $ < b 8 + o o o o o o o . -X-X-X-X-X-X-X-X-X-X-X-X-X-X-X-X-X",
"-X-X-X-X-X-X-X-X-X-X-X-X-X-X  > Q b -  .l + h M C C N A Z Z Z M - -X-X-X-X-X-X-X-X-X-X-X-X-X-X-X-X-X",
"-X-X-X-X-X-X-X-X-X-X-X-X-X-X  ( ( > $ ~ ( , M C S ] [ ;.4.7.4.<.q . -X-X-X-X-X-X-X-X-X-X-X-X-X-X-X-X",
"-X-X-X-X-X-X-X-X-X-X-X-X-X-X. 8 $ . . $ b - o - h h h ; 3 r 3 ; - . -X-X-X-X-X-X-X-X-X-X-X-X-X-X-X-X",
"-X-X-X-X-X-X-X-X-X-X-X-X-X-X. . -X-X-X-X-X-X-X-X  -X-X-X      -X-X-X-X-X-X-X-X-X-X-X-X-X-X-X-X-X-X-X",
"-X-X-X-X-X-X-X-X-X-X-X-X-X-X. . -X-X-X-X-X-X-X-X-X-X-X-X. . -X-X-X-X-X-X-X-X-X-X-X-X-X-X-X-X-X-X-X-X",
"-X-X-X-X-X-X-X-X-X-X-X-X-X. X . -X-X-X-X-X-X-X-X-X-X-X-XX -X-X-X-X-X-X-X-X-X-X-X-X-X-X-X-X-X-X-X-X-X",
"-X-X-X-X-X-X-X-X-X-X-X-X-XX X -X-X-X-X-X-X-X-X-X-X-X-X. . -X-X-X-X-X-X-X-X-X-X-X-X-X-X-X-X-X-X-X-X-X",
"-X-X-X-X-X-X-X-X-X-X-X-X-X-X-X-X-X-X-X-X-X-X-X-X-X-X-X. . X -X-X-X-X-X-X-X-X-X-X-X-X-X-X-X-X-X-X-X-X",
"-X-X-X-X-X-X-X-X-X-X-X-X-X-X-X-X-X-X-X-X-X-X-X-X-X-X-X. X . -X-X-X-X-X-X-X-X-X-X-X-X-X-X-X-X-X-X-X-X",
"-X-X-X-X-X-X-X-X-X-X-X-X-X-X-X-X-X-X-X-X-X-X-X-X-X-X-X-X-X-X-X-X-X-X-X-X-X-X-X-X-X-X-X-X-X-X-X-X-X-X",
"-X-X-X-X-X-X-X-X-X-X-X-X-X-X-X-X-X-X-X-X-X-X-X-X-X-X-X-X-X-X-X-X-X-X-X-X-X-X-X-X-X-X-X-X-X-X-X-X-X-X"
};
