/* XPM */
static char *result[] = {
/* columns rows colors chars-per-pixel */
"50 50 208 2 ",
"   c #0E142D",
".  c #12172C",
"X  c #151B2D",
"o  c #191D2F",
"O  c #1B1D31",
"+  c #201F30",
"@  c #16212F",
"#  c #1B212E",
"$  c #1C2331",
"%  c #1A2B32",
"&  c #1D3C35",
"*  c #1D3534",
"=  c #25292F",
"-  c #242334",
";  c #262A35",
":  c #2B2B37",
">  c #2D243A",
",  c #2E2A39",
"<  c #2A2434",
"1  c #3C2A37",
"2  c #33273D",
"3  c #342C3C",
"4  c #372A36",
"5  c #23373A",
"6  c #34333C",
"7  c #39323C",
"8  c #3B3739",
"9  c #4A2E3B",
"0  c #462D3C",
"q  c #4A333D",
"w  c #54353E",
"e  c #1F4337",
"r  c #1F4638",
"t  c #264939",
"y  c #324A3A",
"u  c #24553B",
"i  c #23663E",
"p  c #454632",
"a  c #4E4E33",
"s  c #53423D",
"d  c #696538",
"f  c #797437",
"g  c #3A2B42",
"h  c #3E3942",
"j  c #253C43",
"k  c #412C44",
"l  c #482D49",
"z  c #4D314B",
"x  c #453746",
"c  c #553948",
"v  c #5D3954",
"b  c #563852",
"n  c #4F3D52",
"m  c #683943",
"M  c #723C44",
"N  c #653B58",
"B  c #693D5A",
"V  c #643B57",
"C  c #723F56",
"Z  c #2C484C",
"A  c #384749",
"S  c #355957",
"D  c #304F51",
"F  c #2C6C45",
"G  c #2A7442",
"H  c #2C7D44",
"J  c #356759",
"K  c #3E6C65",
"L  c #386661",
"P  c #3F7A65",
"I  c #4D4648",
"U  c #54484B",
"Y  c #59534C",
"T  c #5D4E51",
"R  c #4F5848",
"E  c #6A4A4E",
"W  c #7A4348",
"Q  c #7C5D47",
"!  c #794259",
"~  c #675955",
"^  c #7C5853",
"/  c #4A7245",
"(  c #79665B",
")  c #756A5A",
"_  c #4A6463",
"`  c #417168",
"'  c #407167",
"]  c #5D6661",
"[  c #7F7360",
"{  c #857E38",
"}  c #87444A",
"|  c #94494E",
" . c #984A4D",
".. c #824559",
"X. c #8A4857",
"o. c #954A55",
"O. c #9D4C56",
"+. c #934F5B",
"@. c #985252",
"#. c #A24D4F",
"$. c #A24E55",
"%. c #A84F54",
"&. c #AC5255",
"*. c #A55353",
"=. c #B55454",
"-. c #B85555",
";. c #B65B58",
":. c #956456",
">. c #BB635D",
",. c #B27C55",
"<. c #8A7863",
"1. c #997068",
"2. c #BE6E62",
"3. c #B87868",
"4. c #A67162",
"5. c #C37A69",
"6. c #C17265",
"7. c #2D8646",
"8. c #338A48",
"9. c #33954A",
"0. c #3D945D",
"q. c #35A74E",
"w. c #3BAC53",
"e. c #3AB452",
"r. c #36B250",
"t. c #3C8262",
"y. c #528250",
"u. c #66934F",
"i. c #44A952",
"p. c #48B753",
"a. c #51BE56",
"s. c #68B657",
"d. c #76AD56",
"f. c #66C359",
"g. c #76C75B",
"h. c #8D8639",
"j. c #928B39",
"k. c #9B943A",
"l. c #ADA33C",
"z. c #B7AD3C",
"x. c #CDC23F",
"c. c #D0C33F",
"v. c #EEDE3F",
"b. c #BA8157",
"n. c #9A856A",
"m. c #A8926F",
"M. c #A08E6F",
"N. c #AEA07E",
"B. c #D28F5D",
"V. c #D6905F",
"C. c #D9945F",
"Z. c #DC9C5C",
"A. c #CD8C5B",
"S. c #DEA15A",
"D. c #E3AD57",
"F. c #E2AA58",
"G. c #E6B355",
"H. c #EABB53",
"J. c #E8B755",
"K. c #CD886A",
"L. c #8ACE5F",
"P. c #8ED461",
"I. c #DBCC40",
"U. c #EEC64F",
"Y. c #EFC94E",
"T. c #F1CC4D",
"R. c #E3D441",
"E. c #ECDC42",
"W. c #F4D44C",
"Q. c #F7DB4A",
"!. c #F9DE48",
"~. c #F9DF47",
"^. c #ECC150",
"/. c #E5CF5B",
"(. c #FBE446",
"). c #FFED43",
"_. c #FFEE4A",
"`. c #F4E346",
"'. c #FFF044",
"]. c #FFEF5D",
"[. c #FFEE53",
"{. c #FFF159",
"}. c #FFF065",
"|. c #FFF06B",
" X c #FFF271",
".X c #FFF37C",
"XX c #FEEF63",
"oX c #CAB78C",
"OX c #DCC68A",
"+X c #DBC594",
"@X c #E5D39F",
"#X c #FFF48C",
"$X c #FFF480",
"%X c #FFF496",
"&X c #E6D8A4",
"*X c #E2CBA0",
"=X c #FFF6A4",
"-X c #FFF7B3",
";X c #FFF9BC",
":X c #FFF8B6",
">X c #F2E4AF",
",X c #FFFACC",
"<X c #FFFAC6",
"1X c #FFFCD4",
"2X c #FFFBDD",
"3X c #FFFDEC",
"4X c #FFFFFD",
"5X c None",
/* pixels */
"5X5X5X5X5X5X5X5X5X5X5X5X5X5X5X5X5X5X5X5X5X5X5X5X5X5X5X).).).).).).).5X5X5X5X5X5X).).).).).).).5X5X5X",
"5X5X5X5X5X5X5X5X5X5X5X5X5X5X5X5X5X5X5X5X5X5X5X5X5X).).).).).)._.).).).).5X5X5X5X5X).(.T.(.).).).).5X",
"5X5X5X5X5X5X5X5X5X5X5X5X5X5X5X5X5X5X5X5X5X5X5X).).).).).).).).).).).).).).Y.S.5X5X5X^.Z.S.H.W.(.).).",
"5X5X5X5X5X5X5X5X5X5X5X5X5X5X5X5X).).5X5X).).).).).).).(.(.Y.^.W.(.(.).).).).Q.D.5XV.F.D.V.C.C.S.^.~.",
"5X5X5X5X5X5X5X5X5X5X5X5X5X5X).).).5X).).).).).).(.T.H.Z.S.C.C.C.S.Z.G.Q.).'.).(.W.G.C.C.C.C.C.C.C.Z.",
"5X5X5X5X5X5X5X5X5X5X5X5X5X).).).5X).).).).).(.H.S.C.C.C.C.C.C.C.C.C.5XZ.S.Y.(.).).).^.Z.C.C.C.C.5X5X",
"5X5X5X5X5X5X5X5X5X5X5X5X)._.).).).)._.).(.H.Z.C.C.C.C.C.C.C.C.C.C.C.C.5X5XC.D.U.W.).5X5X5X5X5X5X5X5X",
"5X5X5X5X5X5X5X5X5X5X5X5X).).).).).).).(.G.Z.D.W.5X5X5X5X5X5X5X5X5XC.C.C.5X5X5X5X5X5X5X5X5X5X5X5X5X5X",
"5X5X5X5X5X5X5X5X5X5X5X5X).).).).).).).Q.Q.~.5X5X5X5X5X5X5X5X5X5X5X5X5X5X5X5X5X5X5X5X5X5X5X5X5X5X5X5X",
"5X5X5X5X5X5X5X5X5X5X5X5X).).).).).).).).).5X5X5X5X5X5X5X5X5X5X5X5X5X5X5X5X5X5X5X5X5X5X5X5X5X5X5X5X5X",
"5X5X5X5X5X5X5X5X5X5X5X5X~.).).).).).).).5X5X5X5X5X5X5X5X5X5X5X5X5X5X5X5X5X5X5X5X5X5X5X5X5X5X5X5X5X5X",
"5X5X5X5X5X5X5X5X5X5X5XC.^.(.).).).).).).5X5XC.C.C.5X5X5X5X5X5X5X5X5X5X5X5X5X5X5X5X5X5X5X5X5X5X5X5X5X",
"5X5X5X5X5X5X5X5X5X5XC.C.S.(.).).).).).W.Z.C.C.C.5X5X5X5X5X5X5X5X5X5X5X5X5X5X5X5X5X5X5X5X5X5X5X5X5X5X",
"5X5X5X5X5X5X5X5X5X5XC.C.U.).).).).).W.Z.C.C.5X5X5X5X5X5X5X5X5X5X5X5X5X5X5X5X5X5X5X5X5X5X5X5X5X5X5X5X",
"5X5X5X5X5X5X5X5X5XC.C.D.(.).).).(.D.Z.V.C.5X5X5X5X5X5X5X5X5X5X5X5X5X5X5X5X5X5X5X5X5X5X5X5X5X5X5X5X5X",
"5X5X5X5X5X5X5X5X5XC.C.Z.W.).).).^.C.V.C.5X5X5X5X5X5X5X5X5X5X5X5X5X5X5X5X5X5X5X5X5X5X5X5X5X5X5X5X5X5X",
"5X5X5X5X5X5X5X5X5XC.C.S.(.W.(.Q.S.C.C.C.5X5X5X5X5X5X5X5X5X5X5X5X5X5X5X5X5X5X5X5X5X5X5X5X5X5X5X5X5X5X",
"5X5X5X5X5X).5X5XC.C.C.G.~.S.~.H.V.C.C.5X5X5X5X5X5X5X5X5X5X5X5XX 4 w M } 0 o 5X5X5X5X5X5X5X5X5X5X5X5X",
"5X5X5X5X5X).5X5XC.C.C.W.H.S.G.C.C.5X5X5X5X5X5X5X5X5X5X5X5X5X< m $.-.6.:.1 o X 5X5X5X5X5X5X5X5X5X5X5X",
"5X5X5X5X).).W.C.C.C.D.Q.Z.Z.Z.V.,.5X5X5X5X5X5X5X5X5X5X5X5X: @.-.-.5.5.U 5X5XX X # X 5X5X5X5X5X5X5X5X",
"5X5X5X5X).).F.C.C.C.G.Y.C.C.V.Q 5X5X5X5X5X5X5X5X5X5X5X5XX E 5.2.>.5.4.; 5X# u 8.9.G % 5X5X5X5X5X5X5X",
"5X5X5X).).Q.C.C.C.C.Z.S.C.C.,.4 5X5X5X5X5XX & 5 X 5XX X - V 1.3.2.>.3.4 @ G a.d.y.e % 5X5X5X5X5X5X5X",
"5X5X5X).).(.5XC.C.C.C.C.C.A.s 5X5X5X5X5X5Xr i.u X X 2 } M l m X.+.&.@.A 9.f.P./ . 5X5X5X5X5X5X5X5X5X",
"5X5X5X5X5X5X5XC.C.C.C.C.Z.:.$ 5X5X5X5X5X% 8.s.; X > V ....+.%.=.$.*.w J e.g.L.y . 5X5X5X5X5X5X5X5X5X",
"5X5X).5X5X5XC.C.C.C.C.C.B.w 5X5X5X5X5X5Xt p.u.O 1 k 2 l b B ! O.&.*.A P e.g.u.= 5X5X5X5X5X5X5X5X5X5X",
"5X5X).5X).5XW.H.C.C.C.Z.b.8 5X5X5X5X5X5X# F t l ..O.} } | $.O.O.&.*._ P q.p.i   O X 5X5X5X5X5X5X5X5X",
"5X).).5X).).).G.C.C.S.^.Q 5X5X5X5X5X5X5X5XX 2 B N C ..O.$.%.=.;.=.$.A L t.i.A q :.6 5X5X5X5X5X5X5X5X",
"5X).(.5X).).Q.Z.C.C.H.`.a 5X5X5X5X5X5X5X5XX k B B B B B B B ! ..*.=.m x ] y.[ 3.K.^ X 5X5X5X5X5X5X5X",
"5X).~.S.Q.).Q.Z.C.Z.(.z.= 5X5X5XX X 5X5X5XX # l b 2 > > 2 , > g ! =.=.=.&.2.K.5.5.1.- 5X5X5X5X5X5X5X",
"5XE.~.Z.Y.).).D.V.D.).l.5X'.5X5X% u X 5X5X@ t y F 7.7.J S D j X $ m =.=.;.2.;.=.2.3.7 5X5X5X5X5X5X5X",
"a R.~.C.Y._.}.D.V.G.'.l.l.'.5X5X% 8.H % % / L.f.r.e.e.e.0.` K D j $ W -.=.=.=.=.>.c O 5X5X5X5X5X5X5X",
"a R.(.Z.Y..X,XJ.C.Y.'.R.R.'.5X5XX & q.9.q.g.g.p.q.9.9.q.0.` K Z $ X 0 &.=.&.o.X.w k - 5X5X5X5X5X5X5X",
"; l.).D.T.;X1XW.C.W.}.}.'.).5X5X5XX r q.e.e.w.7.e X @ r L ` ' _ * X g $.-.=.=.=.O.O.m . 5X5X5X5X5X5X",
". j.'.^.T.<X1XW.Z.W.#X|.v.5X5X5X5X5XX & u t e @ . $ D D S ` ` L $ g ! &.=.=.=.=.=.-.#.4 5X5X5X5X5X5X",
"5Xk.'.).).;X2XW.C.W.,X$Xl.5X5X5X5X5X5X5X. X . 5X5X% S ` ` ` ` D g B $.-.-.=.m m =.=.=.w 5X5X5X5X5X5X",
"5Xh.).).).;X2X(.F.Q.1X;Xl.5X5X5X5X5X5X5X5X5X5X5X5X5X% S ` ` S g B B C +.} 0 = M =.=.-.M X 5X5X5X5X5X",
"5Xa E.).).#X,X(.T.).=X;Xl.5X5X5X5X5X5X5X5X5X5X5X5XX > n _ S n B B B b 2 o 1  .-.-.-.-.} X 5X5X5X5X5X",
"5X5XE.).).XX-X%X-X}.{.|.l.5X5X5X5X5X5X5X5X5X5X5X5X> v B N l b N b g O - z O.-.#.| |  .m X 5X5X5X5X5X",
"5X5X).)._.]._.<X4X=X).'.l.5X5X5X5X5X5X5X5X5X5X5X5X- g 2 > X - > X X - b c E W x q 6 8 7 : X 5X5X5X5X",
"5X5X).).|.,X[.%X4X,X_.'.l.$ 5X5X5X5X5X5X5X5X5X5X5X$ 5 F G G * X - > - T <.m.<.n.n.) U I I O 5X5X5X5X",
"5X5X).).}.3X#X X4X4X.X).E.p 5X5X5X5X5X5X5X5X5X5X5XX H a.e.e.9.% U ( ; h 3 , > , , - - z B C 9 X 5X5X",
"5X5X).).).-X1X}.2X3X-X_.(.f 5X5X5X  $ 6 X 5X5XX ; - 8 d.f.r.q.& > 3 - z v V V B C C X.o.|  .9 X 5X5X",
"5X5X).).).|.3X.X#X X.X%X'.x.8   X Y <.N.U X h Y ( ~ + / L.e.r.i $ , U 3 g v v b c w w 9 + - o 5X5X5X",
"5X5X).).).)..X].)..X[.,X#X'.x.d <.+XoXA ) : ~ 1.( T < u.g.e.7.e : I 7 o O O O O . . X X X 5X5X5X5X5X",
"5X5X5X5Xl.`.).).).%X X#X2X|.'./.OX>X@X) ; $ U U 3 $ O $ 5 t @ X X 5XX 5X5X5X5X5X5X5XX o o 5X5X5X5X5X",
"5X5X5X5X5Xh.v.'.)._.$X:X4X3X:X>X*X&X@XOX<.- O $ 5X5X5XX X X X X 5X5X5X5X5X5X5X5X5X5X5XX X X o 5X5X5X",
"5X5X5X5X5X@ f `.).).).|.:X3X3X<XOX+XM.~ m.6 X 5X5X5X5XX X X 5X5X5X5X5X5X5X5X5X5X5X5X5X5XX X o 5X5X5X",
"5X5X5X5X5X5X# l.(.).'.'._.{.{.`.h.I Y # ; o 5X5X5X5X5X5X5X5X5X5X5X5X5X5X5X5X5X5X5X5X5X5X5X5X5X5X5X5X",
"5X5X5X5X5X5X5X5Xf c.R.R.I.j.h.d = 5X5X5X5X5X5X5X5X5X5X5X5X5X5X5X5X5X5X5X5X5X5X5X5X5X5X5X5X5X5X5X5X5X",
"5X5X5X5X5X5X5X5X5X5Xp p p o 5X5X5X5X5X5X5X5X5X5X5X5X5X5X5X5X5X5X5X5X5X5X5X5X5X5X5X5X5X5X5X5X5X5X5X5X"
};
