/* XPM */
static char *result[] = {
/* columns rows colors chars-per-pixel */
"50 50 219 2 ",
"   c #161B2D",
".  c #1A1E2F",
"X  c #191F30",
"o  c #1D2534",
"O  c #1F2A3A",
"+  c #222C3A",
"@  c #262C34",
"#  c #312D35",
"$  c #25313E",
"%  c #2E3137",
"&  c #3B3637",
"*  c #473B3D",
"=  c #594A3E",
"-  c #5A5739",
";  c #454934",
":  c #5E6434",
">  c #656B35",
",  c #76753A",
"<  c #243341",
"1  c #2B3640",
"2  c #2B3944",
"3  c #2E3E49",
"4  c #273946",
"5  c #323D45",
"6  c #2D414E",
"7  c #34444B",
"8  c #3B454B",
"9  c #3C494D",
"0  c #394145",
"q  c #3A4D53",
"w  c #344A55",
"e  c #3D5156",
"r  c #3D545B",
"t  c #3F595F",
"y  c #3E5964",
"u  c #454847",
"i  c #5C4D43",
"p  c #534744",
"a  c #4D5247",
"s  c #42565A",
"d  c #445A5D",
"f  c #4A5C5C",
"g  c #465456",
"h  c #595749",
"j  c #644E41",
"k  c #645243",
"l  c #6B5545",
"z  c #775A49",
"x  c #5E674A",
"c  c #4F6359",
"v  c #5C635C",
"b  c #666347",
"n  c #7B644D",
"m  c #7D6D4B",
"M  c #6B6755",
"N  c #726A55",
"B  c #7A7459",
"V  c #6C745B",
"C  c #435D63",
"Z  c #495F60",
"A  c #4B6465",
"S  c #46646B",
"D  c #4A666A",
"F  c #4C6A6C",
"G  c #4E6867",
"H  c #516D6E",
"J  c #576A65",
"K  c #4C6C72",
"L  c #466970",
"P  c #516E72",
"I  c #4E7479",
"U  c #4B7177",
"Y  c #537373",
"T  c #52767A",
"R  c #557A7C",
"E  c #5A7C7C",
"W  c #5B7472",
"Q  c #59716C",
"!  c #677C6B",
"~  c #657B73",
"^  c #84654C",
"/  c #857247",
"(  c #99734E",
")  c #8D7353",
"_  c #9B7956",
"`  c #916C4D",
"'  c #A47A53",
"]  c #AB7D54",
"[  c #A27753",
"{  c #A0794F",
"}  c #7F823A",
"|  c #59807F",
" . c #7C8566",
".. c #69827B",
"X. c #7B8C73",
"o. c #7B9775",
"O. c #738A5C",
"+. c #898E3A",
"@. c #83873A",
"#. c #999D3C",
"$. c #B9BF3F",
"%. c #E8EF3E",
"&. c #9D854B",
"*. c #858458",
"=. c #96855A",
"-. c #989851",
";. c #A9964B",
":. c #B59D4F",
">. c #AA845A",
",. c #AB8357",
"<. c #B18558",
"1. c #BC9954",
"2. c #A59553",
"3. c #AAA649",
"4. c #B7A948",
"5. c #B5A958",
"6. c #B6B641",
"7. c #858463",
"8. c #948861",
"9. c #979875",
"0. c #90956C",
"q. c #A7996C",
"w. c #B09B61",
"e. c #93AF7C",
"r. c #B7B96B",
"t. c #AFAC70",
"y. c #9AA851",
"u. c #C9A753",
"i. c #D1AD52",
"p. c #C7B259",
"a. c #D3B658",
"s. c #D7BF4E",
"d. c #C7A767",
"f. c #C3B976",
"g. c #D7C94A",
"h. c #DFD24A",
"j. c #D6D646",
"k. c #C8CD4D",
"l. c #E0D849",
"z. c #E6DB5D",
"x. c #DBE142",
"c. c #DCE24D",
"v. c #DAE051",
"b. c #E5EC45",
"n. c #EBF246",
"m. c #EBF158",
"M. c #D8CA6D",
"N. c #EEF36B",
"B. c #EBF072",
"V. c #537D81",
"C. c #5B7F82",
"Z. c #568184",
"A. c #5C8383",
"S. c #5A878A",
"D. c #5D8A8B",
"F. c #5D8E90",
"G. c #5F9192",
"H. c #628A8B",
"J. c #628786",
"K. c #738C86",
"L. c #66918F",
"P. c #76958C",
"I. c #628E91",
"U. c #639495",
"Y. c #6B9494",
"T. c #6C9A96",
"R. c #659C9C",
"E. c #6A9D9D",
"W. c #679798",
"Q. c #729F9D",
"!. c #729793",
"~. c #6AA09F",
"^. c #79A39A",
"/. c #729EA1",
"(. c #6E9EA1",
"). c #6DA3A3",
"_. c #6FA7A8",
"`. c #73A5A4",
"'. c #7AA5A3",
"]. c #75ABAB",
"[. c #79ABAC",
"{. c #79A9A5",
"}. c #7EB0AC",
"|. c #7DAEB1",
" X c #7CB2B3",
".X c #7FB7BA",
"XX c #849483",
"oX c #9BAB92",
"OX c #92B099",
"+X c #82ABA2",
"@X c #84AEAA",
"#X c #86B2AA",
"$X c #94B8A6",
"%X c #82B5B5",
"&X c #81B7B8",
"*X c #83BBBC",
"=X c #8ABEBE",
"-X c #8AB8B4",
";X c #90BDB5",
":X c #A8B385",
">X c #97C3BA",
",X c #9FC4AB",
"<X c #A6CBB9",
"1X c #ACCEB3",
"2X c #B6CD8E",
"3X c #CED189",
"4X c #D1D385",
"5X c #F3F68B",
"6X c #F3F797",
"7X c #F1EE94",
"8X c #D9DBAB",
"9X c #F5F8AF",
"0X c #89BFC0",
"qX c #8CC3C4",
"wX c #92C6C4",
"eX c #A0CAC0",
"rX c #F8FAC9",
"tX c #FEFEF0",
"yX c None",
/* pixels */
"yXyXyXyXyXyXyXyXyXyXyXyXyXyXyXyXyXyXyXyXyXyXyXyXyXyXyXyXyXyXyXyXyXyXyXyXyXyXyXyXyXyXyXyXyXyXyXyXyXyX",
"yXyXyXyXyXyXyXyXyXyXyXyXyXyXyXyXyXyXyXyXyXyXyXyXyXyXyXyXyXyXyXyXyXyXyXyXyXyXyXyXyXyXyXyXyXyXyXyXyXyX",
"yXyXyXyXyXyXyXyXyXyXyXyXyXyXyXyXyXyXyXyXyXyXo + y s 6 o yXyXyXyXyXyXyXyXyXyXyXyXyXyXyXyXyXyXyXyXyXyX",
"yXyXyXyXyXyXyXyXyXyXyXyXyXyXyXyXyXyXyXy w Z.Z.R U.U.D.F A *.J yXyXyXyXyXyXyXyXyXyXyXyXyXyXyXyXyXyXyX",
"yXyXyXyXyXyXyXyXyXyXyXyXyXyXyXyXyX$ I /.I. X_.W.W.R.R.U.U. .+XK $ yXyXyXyXyXyXyXyXyXyXyXyXyXyXyXyXyX",
"yXyXyXyXyXyXyXyXyXyXyXyXyXyXyXyXX C  X}.T.).).(.W._. X).].H. X|.C . yXyXyXyXyXyXyXyXyXyXyXyXyXyXyXyX",
"yXyXyXyXyXyXyXyXyXyXyXyXyXyXyXO O Y [.-Xq.$X*XW.Y.*XqX0XY.V..X].Y + + yXyXyXyXyXyXyXyXyXyXyXyXyXyXyX",
"yXyXyXyXyXyXyXyXyXyXyXyXyXyXw V.6 F ~.,X3Xo.R.R.U.).&X[.K Y.;XE.F 6 V.w yXyXyXyXyXyXyXyXyXyXyXyXyXyX",
"yXyXyXyXyXyXyXyXyXyXyXyXyXy S K.9 C S.E.~ W `.R.).).W.~.J...!.S.q 8 S.S y yXyXyXyXyXyXyXyXyXyXyXyXyX",
"yXyXyXyXyXyXyXyXyXyXyXyX$ S.E t. .H.`.D.G Y ].].`.C.H.&XK.5.:X`.I.H U.R S.< yXyXyXyXyXyXyXyXyXyXyXyX",
"yXyXyXyXyXyXyXyXyXyXyXyX6 R J t.V `.qXH.w A ].=X@XQ H.).G M.8X-X%XY A.D R 6 yXyXyXyXyXyXyXyXyXyXyXyX",
"yXyXyXyXyXyXyXyXyXyXyX2 c g 9 0 q Y.>X&Xr A R._.[.P.D.E.Y &.r.%XE.s 8 9 s f 2 yXyXyXyXyXyXyXyXyXyXyX",
"yXyXyXyXyXyXyXyXyXyX. 7 d s 7.a A E.`.S.q Y U.R.R.S.T R.I 8 W ).W.F 2 7 r d 7   yXyXyXyXyXyXyXyXyXyX",
"yXyXyXyXyXyXyXyXyXyX7 7 C +X4XN J J.S.[.&XY.E U.~.R A ~.(.|.E.S.S.S C E.%Xr 7 7 yXyXyXyXyXyXyXyXyXyX",
"yXyXyXyXyXyXyXyXyX9 A 5 C.%Xo.B r.N r /.qXqX[.H R A 7 Q.>X<X+Xr 4 y ).0XqXT 1 A 9 yXyXyXyXyXyXyXyXyX",
"yXyXyXyXyXyXyXyXyXd s q C.%X$X4X7Xm A D.@X<X1XW r C S E Y.~.U.H M K.=X=X XA.9 r s yXyXyXyXyXyXyXyXyX",
"yXyXyXyXyXyXyXyX@ 7 $ s | ~.^.k.a.l A A.R.E.T.A Y.&XwX@XT W.L.c ;.f.+X_.~.Z.s ; v o yXyXyXyXyXyXyXyX",
"yXyXyXyXyXyXyXyX+ 5 + q U F.~...b 8 D U.R.R.U.q E ].#XY.F D.9.M k.6Xe.G.G.T w h 7.+ yXyXyXyXyXyXyXyX",
"yXyXyXyXyXyXyXyXq d q S.`.S S.Z.s 4 y U.R.R.H.v C.R.R.V.S Q 5.b :.j.O.Z.L `.H.9 d e X yXyXyXyXyXyXyX",
"yXyXyXyXyXyXyX7 v M s `.wX X@X].Z 4 H.I.U.R.! t...G.[.W.`.@X^.U.u  .`. X XqX/.s d f 1 yXyXyXyXyXyXyX",
"yXyXyXyXyXyXyXg q.5.~ &XqXqXqXwXJ.w Q.*X[.)...9.c d `.>X-X_._.E.q D.>XqXqXwX&XF s d s yXyXyXyXyXyXyX",
"yXyXyXyXyXyXyXd -.:.K ]..X>X<X+XP 7 W [.eX1X<X_.T q A.R.R.R.U.Q 7 H '.<X1X;X{.Z.+ 5 g yXyXyXyXyXyXyX",
"yXyXyXyXyXyXyX8 0 a R R.R._.+XJ.A 7 F U.+X+X+X~.T e R R.).R.U.H 9 A | {.+XP.T.Z.2 2 8 o yXyXyXyXyXyX",
"yXyXyXyXyXyX+ 5 7 Z.V.R.R.W.R.A.f % f S.E.R.T.E M n f A.D.D.R f 7 c | ~.Z.q.oXR A.7 5 @ yXyXyXyXyXyX",
"yXyXyXyXyXyX+ % q E [.0X/.(.R.S.< i >._ B q.q.m d.d.n =._ M ) ,.k $ A.XXB =.e.].R B M + yXyXyXyXyXyX",
"yXyXyXyXyXyX+ 3 C D C.$X0X.XI.T r u >.` j ,.,.i >._ i ,.' i ) >.u r J 5.4XX.^.| f =.*.+ yXyXyXyXyXyX",
"yXyXyXyXyXyX$ R !.X.5.O.I.(.L Z A p ] ( l ] ' l ] ' l { ,.l ( ' p A g w.5Xr.U G Y P.W + yXyXyXyXyXyX",
"yXyXyXyXyXyXs `.0X2X5X$.v 9.y s 3 & ' / i 1.;.= [ 4.j 4.&.= ( ] * 3 e m 3.b e | [.qX`.r   yXyXyXyXyX",
"yXyXyXyXyXo D _.].y.z.&.*.2.P '.H + # @ . ; : : - : : > & . % # + H '.'.%XK L >XeX=X`.D o yXyXyXyXyX",
"yXyXyXyXyX+ R E.E.J.0.= c ! ;X#XY 8 * = * @.x.x.j.v.B.c.+.& * * 8 Q $X<X&XY A _.@X`.E.R + yXyXyXyXyX",
"yXyXyXyXyXo Z.R.R.R.U.g K R.`.E.C.8 l ^ n #.m.9XtX5Xm.n.#.j z z 9 | ~.`.E.F q D.).G.~.Z.o yXyXyXyXyX",
"yXyXyXyXyXO T [.E.E.P.=.d R.R.R.D.q z ] &.} m.rXtXrXN.%.} ;.' z e J.R.R.P.8.s I R.).[.T o yXyXyXyXyX",
"yXyXyXyXyX6 H.&X&X.X,Xr.8 R.R.R.V.7 z ' 2.+.n.5X9X9X5Xb.@.4.<.z h XXW.G. .M.oX%X&X&X.XF.6 yXyXyXyXyX",
"yXyXyXyX  e U.).>X>X>X..G ~.[.L.C O j ( :.+.b.%.m.6XN.x.> p.<.k b M.E._.v :.o.qX>X>X_.G.e   yXyXyXyX",
"yXyXyXyXX t W.R.T.L.^.S.[.qXqX>X|.V.i [ u., x.b.b.b.%.x.> 5.[ i f OXqXqX/.!.D._.Y.T.~.G.d X yXyXyXyX",
"yXyXyXyXO < y V.R.R.R.!.wXqXqXqX0XI * >.a.+.j.j.h.b.h.j.} 1.[ * I *XqXqXwX>X!.U.R.R.R r 2 O yXyXyXyX",
"yXyXyXyXyXyX  < F.).R A $X,X`.Y.U.H u ' 1.@.j.l.g.u.h.g., 1.[ u H U.E.^.>XOXA R ).F.<   yXyXyXyXyXyX",
"yXyXyXyXyXyXyXyXyXI 6 7 I.~.R.R.G.Y g ( <., g.h.i.i.g.$.- ] ` 8 S G.R.R.E.U.7 3 I yXyXyXyXyXyXyXyXyX",
"yXyXyXyXyXyXyXyXyXyXyX+ I R.R.G.w + 5 ^ ' / x.l.u.u.i.4.j { ^ % o 6 D.R.U.U O yXyXyXyXyXyXyXyXyXyXyX",
"yXyXyXyXyXyXyXyXyXyXyXyXO w L yXyXyX  = ^ ^ $.h.yXyXi./ = ^ l . yXyXyXU w O yXyXyXyXyXyXyXyXyXyXyXyX",
"yXyXyXyXyXyXyXyXyXyXyXyXyXyXyXyXyXyX  o * j yXyXyXyXyXyXyX# & yXyXyXyXyXyXyXyXyXyXyXyXyXyXyXyXyXyXyX",
"yXyXyXyXyXyXyXyXyXyXyXyXyXyXyXyXyXyXyXyXyXyXyXyXyXyXyXyXyXyXyXyXyXyXyXyXyXyXyXyXyXyXyXyXyXyXyXyXyXyX",
"yXyXyXyXyXyXyXyXyXyXyXyXyXyXyXyXyXyXyXyXyXyXyXyXyXyXyXyXyXyXyXyXyXyXyXyXyXyXyXyXyXyXyXyXyXyXyXyXyXyX",
"yXyXyXyXyXyXyXyXyXyXyXyXyXyXyXyXyXyXyXyXyXyXyXyXyXyXyXyXyXyXyXyXyXyXyXyXyXyXyXyXyXyXyXyXyXyXyXyXyXyX",
"yXyXyXyXyXyXyXyXyXyXyXyXyXyXyXyXyXyXyXyXyXyXyXyXyXyXyXyXyXyXyXyXyXyXyXyXyXyXyXyXyXyXyXyXyXyXyXyXyXyX",
"yXyXyXyXyXyXyXyXyXyXyXyXyXyXyXyXyXyXyXyXyXyXyXyXyXyXyXyXyXyXyXyXyXyXyXyXyXyXyXyXyXyXyXyXyXyXyXyXyXyX",
"yXyXyXyXyXyXyXyXyXyXyXyXyXyXyXyXyXyXyXyXyXyXyXyXyXyXyXyXyXyXyXyXyXyXyXyXyXyXyXyXyXyXyXyXyXyXyXyXyXyX",
"yXyXyXyXyXyXyXyXyXyXyXyXyXyXyXyXyXyXyXyXyXyXyXyXyXyXyXyXyXyXyXyXyXyXyXyXyXyXyXyXyXyXyXyXyXyXyXyXyXyX",
"yXyXyXyXyXyXyXyXyXyXyXyXyXyXyXyXyXyXyXyXyXyXyXyXyXyXyXyXyXyXyXyXyXyXyXyXyXyXyXyXyXyXyXyXyXyXyXyXyXyX",
"yXyXyXyXyXyXyXyXyXyXyXyXyXyXyXyXyXyXyXyXyXyXyXyXyXyXyXyXyXyXyXyXyXyXyXyXyXyXyXyXyXyXyXyXyXyXyXyXyXyX"
};
