/* XPM */
static char *result[] = {
/* columns rows colors chars-per-pixel */
"50 50 165 2 ",
"   c #0F162A",
".  c #10172B",
"X  c #151B2E",
"o  c #181D2F",
"O  c #171D30",
"+  c #191F31",
"@  c #1D2233",
"#  c #1D243A",
"$  c #222534",
"%  c #262935",
"&  c #2A2C37",
"*  c #272B38",
"=  c #292D39",
"-  c #302F3B",
";  c #2F3039",
":  c #32333C",
">  c #3A3A3F",
",  c #242C45",
"<  c #262E48",
"1  c #29334E",
"2  c #24394E",
"3  c #353840",
"4  c #3A3C42",
"5  c #2C3552",
"6  c #2E3856",
"7  c #323D5E",
"8  c #413F42",
"9  c #3F4145",
"0  c #364264",
"q  c #384467",
"w  c #374768",
"e  c #384568",
"r  c #3D496F",
"t  c #3E4C72",
"y  c #3D5576",
"u  c #424245",
"i  c #494445",
"p  c #454749",
"a  c #46484A",
"s  c #4A4B4C",
"d  c #4E4549",
"f  c #554E4B",
"g  c #57504B",
"h  c #59504D",
"j  c #595550",
"k  c #5C5B55",
"l  c #5E5E58",
"z  c #555552",
"x  c #605351",
"c  c #6A5D54",
"v  c #605F59",
"b  c #6B5D55",
"n  c #6A6359",
"m  c #7C675E",
"M  c #776A59",
"N  c #7C6A5D",
"B  c #746459",
"V  c #7F715E",
"C  c #535765",
"Z  c #404E75",
"A  c #415077",
"S  c #41557A",
"D  c #40597D",
"F  c #6F6D61",
"G  c #7B7564",
"H  c #7B7768",
"J  c #7F7B6A",
"K  c #626672",
"L  c #7C7A7B",
"P  c #82725F",
"I  c #856E63",
"U  c #877063",
"Y  c #8C7366",
"T  c #837F6D",
"R  c #877963",
"E  c #917768",
"W  c #967B6A",
"Q  c #9A7D6C",
"!  c #86816E",
"~  c #968266",
"^  c #9D816D",
"/  c #948268",
"(  c #8D8873",
")  c #A2856F",
"_  c #A1896D",
"`  c #A48770",
"'  c #A58871",
"]  c #AB8E72",
"[  c #AE9273",
"{  c #A29A7D",
"}  c #B39576",
"|  c #B49976",
" . c #B59F79",
".. c #BB9C79",
"X. c #BEA27A",
"o. c #C2A37C",
"O. c #C7A97D",
"+. c #CAAB7F",
"@. c #3F5F80",
"#. c #3F6081",
"$. c #3F6A87",
"%. c #3F6E89",
"&. c #3E7D93",
"*. c #415D80",
"=. c #406B88",
"-. c #3E8496",
";. c #3E8698",
":. c #8A8B8A",
">. c #A69F81",
",. c #A7A082",
"<. c #ACA484",
"1. c #BEAD86",
"2. c #BBAF89",
"3. c #CDAE80",
"4. c #C2AB80",
"5. c #CFB081",
"6. c #C5B78F",
"7. c #C8B78C",
"8. c #D5B583",
"9. c #D8B784",
"0. c #D7B886",
"q. c #DAB985",
"w. c #D2BE8F",
"e. c #DABD8A",
"r. c #C6BC93",
"t. c #DEC28E",
"y. c #CEC297",
"u. c #CEC398",
"i. c #DEC491",
"p. c #D1C69A",
"a. c #DCCD9D",
"s. c #D4C99F",
"d. c #E1C691",
"f. c #E1CA96",
"g. c #E4CD99",
"h. c #E6D29D",
"j. c #E9D39D",
"k. c #DBCFA0",
"l. c #DFD4A3",
"z. c #E9D6A1",
"x. c #E5D9A6",
"c. c #EBDAA4",
"v. c #EDDEA9",
"b. c #E1D4A3",
"n. c #F0DBA4",
"m. c #EFE1AB",
"M. c #F1E3AD",
"N. c #F0E4B3",
"B. c #F8E9B0",
"V. c #F2E7BA",
"C. c #F3E8BE",
"Z. c #D3D5D9",
"A. c #F5EBC6",
"S. c #F5ECCA",
"D. c #F7EFD3",
"F. c #F7F0D4",
"G. c #F9F3DE",
"H. c #FBF4D5",
"J. c #EDECE8",
"K. c #FAF5E3",
"L. c #FCF9EF",
"P. c #FDFBF3",
"I. c #FFFFFE",
"U. c #F2F3F5",
"Y. c None",
/* pixels */
"Y.Y.Y.Y.Y.Y.Y.Y.Y.Y.Y.Y.Y.Y.Y.Y.Y.Y.Y.Y.Y.Y.Y.Y.Y.Y.Y.Y.Y.Y.Y.Y.Y.Y.Y.Y.Y.Y.Y.Y.Y.Y.Y.Y.Y.Y.Y.Y.Y.Y.",
"Y.Y.Y.Y.Y.Y.Y.Y.Y.Y.Y.Y.Y.Y.Y.Y.Y.Y.Y.Y.Y.Y.Y.Y.Y.Y.Y.Y.Y.Y.Y.Y.Y.Y.Y.Y.Y.Y.Y.Y.Y.Y.Y.Y.Y.Y.Y.Y.Y.Y.",
"Y.Y.Y.Y.Y.Y.Y.Y.Y.Y.Y.Y.Y.Y.Y.Y.Y.Y.Y.Y.Y.Y.Y.Y.Y.Y.Y.Y.Y.Y.Y.Y.Y.Y.Y.Y.Y.Y.Y.Y.Y.Y.Y.Y.Y.Y.Y.Y.Y.Y.",
"Y.Y.Y.Y.Y.Y.Y.Y.Y.Y.Y.Y.Y.Y.Y.Y.Y.Y.Y.Y.Y.Y.Y.Y.Y.Y.Y.Y.Y.Y.Y.Y.Y.Y.Y.Y.Y.Y.Y.Y.Y.Y.Y.Y.Y.Y.Y.Y.Y.Y.",
"Y.Y.Y.Y.Y.Y.Y.Y.Y.Y.Y.Y.Y.Y.Y.Y.Y.Y.X X X X . X X . . X . X Y.Y.Y.Y.Y.Y.Y.Y.Y.Y.Y.Y.Y.Y.Y.Y.Y.Y.Y.Y.",
"Y.Y.Y.Y.Y.Y.Y.Y.Y.Y.Y.Y.Y.Y.Y.Y.Y.X o . o > 9 9 9 9 u 4 9 @ . X Y.Y.Y.Y.Y.Y.Y.Y.Y.Y.Y.Y.Y.Y.Y.Y.Y.Y.",
"Y.Y.Y.Y.Y.Y.Y.Y.Y.Y.Y.Y.Y.Y.Y.X X . . C L a.m.v.v.v.v.v.v.J s X X o Y.Y.Y.Y.Y.Y.Y.Y.Y.Y.Y.Y.Y.Y.Y.Y.",
"Y.Y.Y.Y.Y.Y.Y.Y.Y.Y.Y.Y.Y.o X X : G :.J.H.m.m.m.m.m.m.m.m.M.b.l . X X Y.Y.Y.Y.Y.Y.Y.Y.Y.Y.Y.Y.Y.Y.Y.",
"Y.Y.Y.Y.Y.Y.Y.Y.Y.Y.Y.Y.X X X : 2.A.I.F.m.m.m.m.m.m.m.m.m.m.M.a.<.s . X Y.Y.Y.Y.Y.Y.Y.Y.Y.Y.Y.Y.Y.Y.",
"Y.Y.Y.Y.Y.Y.Y.Y.Y.Y.Y.Y.X X / u.A.I.I.V.m.m.m.m.m.m.m.m.m.m.m.M.M.s.3 X X Y.Y.Y.Y.Y.Y.Y.Y.Y.Y.Y.Y.Y.",
"Y.Y.Y.Y.Y.Y.Y.Y.Y.Y.Y.X X ; X.N.I.I.I.A.V.m.v.m.m.m.m.m.m.m.m.m.m.H.K . X Y.Y.Y.Y.Y.Y.Y.Y.Y.Y.Y.Y.Y.",
"Y.Y.Y.Y.Y.Y.Y.Y.Y.Y.X X : [ i.V.I.L.P.I.L.N.A.V.m.N.V.m.m.m.N.C.m.K.U.K X . Y.Y.Y.Y.Y.Y.Y.Y.Y.Y.Y.Y.",
"Y.Y.Y.Y.Y.Y.Y.Y.Y.Y.X . M e.c.V.I.D.K.I.D.S.I.A.m.V.P.C.m.m.V.K.m.G.I.Z.> i . Y.Y.Y.Y.Y.Y.Y.Y.Y.Y.Y.",
"Y.Y.Y.Y.Y.Y.Y.Y.Y.X X . M q.c.V.I.D.G.I.m.S.I.A.m.K.I.F.m.m.K.K.m.V.S.J.2.N . Y.Y.Y.Y.Y.Y.Y.Y.Y.Y.Y.",
"Y.Y.Y.Y.Y.Y.Y.Y.Y.X . i +.9.c.m.D.D.N.V.m.m.G.A.N.P.I.D.v.N.I.K.m.m.m.V.n.M . X Y.Y.Y.Y.Y.Y.Y.Y.Y.Y.",
"Y.Y.Y.Y.Y.Y.Y.Y.X + $ h q.9.c.m.m.M.c.m.m.m.m.m.m.N.N.m.m.N.K.m.m.m.m.M.M.T   X Y.Y.Y.Y.Y.Y.Y.Y.Y.Y.",
"Y.Y.Y.Y.Y.Y.Y.Y.X $ b f 9.8.c.m.m.m.i.c.m.m.m.m.m.m.M.v.M.v.M.m.m.m.m.m.B.{ % X X Y.Y.Y.Y.Y.Y.Y.Y.Y.",
"Y.Y.Y.Y.Y.Y.Y.Y.X $ m P 9.8.c.M.m.M.t.c.m.m.m.m.m.m.v.M.m.m.m.m.j.c.m.m.m.h.g . X Y.Y.Y.Y.Y.Y.Y.Y.Y.",
"Y.Y.Y.Y.Y.Y.Y.X X $ Y [ 8.9.z.g.m.m.i.c.m.m.m.m.m.m.c.h.M.m.m.M.d.h.m.m.m.v.k . o Y.Y.Y.Y.Y.Y.Y.Y.Y.",
"Y.Y.Y.Y.Y.Y.Y.X X @ Y [ 8.8.0.e.m.m.c.v.m.m.m.m.m.M.h.a.m.m.m.m.a.h.m.m.m.m.p.> X X Y.Y.Y.Y.Y.Y.Y.Y.",
"Y.Y.Y.Y.Y.Y.Y.X X - E ] 9.9.8.t.m.m.c.m.m.m.m.m.m.m.h.f.m.m.m.m.h.z.m.m.M.M.c.h X X Y.Y.Y.Y.Y.Y.Y.Y.",
"Y.Y.Y.Y.Y.Y.X o X m W ` +.9.8.0.c.m.i.c.m.m.m.m.m.m.h.f.M.m.m.m.c.c.m.m.j.M.d.O.% X Y.Y.Y.Y.Y.Y.Y.Y.",
"Y.Y.o X Y.X X X f ] Q W ) +.o.9.e.f.e.c.m.m.m.m.m.v.i.e.c.m.m.M.i.j.m.c.i.c.e.+.$ X X Y.Y.Y.Y.Y.Y.Y.",
"Y.X X @ + o X f O.9...Q W ..] +.8.8.8.z.f.m.m.m.m.c.8.8.t.c.m.z.0.t.m.j.e.e.+.} x o o X Y.Y.Y.Y.Y.Y.",
"Y.. F y.r.r.r.a.t.+.+.^ W ) ^ +.8.8.8.e.9.e.e.j.m.z.8.9.8.e.e.e.8.8.e.t.+.o.o.) ] P $ * = X . X o Y.",
"Y.. F m.M.M.M.M.f.8.q.O.) ) Q ) O.3.8.8.8.8.8.0.0.0.8.8.3.8.+.o.9.8.9.+.+.} Q } +.+.y.b.p.s 9 = X Y.",
"Y.o X G x.M.M.c.j.t.0.8.+.8.} ] ] o.8.8.8.O.+.3.8.0.9.9.] .._ u [ o.o.t.+.} } +.q.q.t.m.m.m.B.! . Y.",
"Y.Y.X X 1.j.f.i.~ n R t.9.9.9.8.8.9.8.8.} ] | o.8.| | | ) E d X f Q ~ +.q.+.+.+.N ~ 9.d.h.M.p.s . Y.",
"Y.Y.X X u B +.~ $ @ ,.j.8.8.8.8.8.8.8.8.W ] +.+.9.O.o.] W Y @ X * ~ O.+.+.t.h.t.V & g g g v p . Y.Y.",
"Y.Y.Y.X . o u > * <.M.j.8.c 6.j.e.8.8.3.] +.9.8.8.+.9.+.O.d X X X ; [ 9.i.m.m.j.q.P @ $ X   . X Y.Y.",
"Y.Y.Y.Y.Y.. s y.x.M.a.X.c ; p.M.v.M.d.8.8.8.0.e.e.e.e.t.o.: X X X X *  .M.M.m.m.m.j.+.X.; X X Y.Y.Y.",
"Y.Y.Y.Y.Y.Y.X v <.,.V O 4 r.B.B.k.{ 4.8.9.t.j.M.M.M.B.p.p . o , @ X . > { p.B.B.B.k.{ a X X Y.Y.Y.Y.",
"Y.Y.Y.Y.Y.Y.O X . . . X s ! T ! k a 7.f.h.m.m.M.v.( ! s . o 6 Z 0 1 1 O   s ! T ! l   X X Y.Y.Y.Y.Y.",
"Y.Y.Y.Y.Y.Y.Y.Y.X + X X X .     . 4 n s.m.v.M.( z X . . o 6 Z Z A A Z 6 + .     . . X X X X Y.Y.Y.Y.",
"Y.Y.Y.Y.Y.Y.Y.Y.X X @ $ o X X o + X . 3 9 u 9 #   X X @ 6 Z y D -.y Z t w e , X X + $ $ $ X X Y.Y.Y.",
"Y.Y.Y.Y.Y.Y.Y.X X : I W c @ X # Z 6 o . . . . O X # 1 r y A D -.;.&.=.S Z t , X O c +.] I : X Y.Y.Y.",
"Y.Y.Y.Y.Y.Y.Y.X : I Q | 8.P @ @ 0 Z 6 , , , , , < r Z t Z D -.;.;.;.;.;.=.D , o c 8.8.8.` m X X Y.Y.",
"Y.Y.Y.Y.Y.Y.Y.. b Q ` 8.8.8.> . , D =.S Z D =.=.$.$.$.$.$.-.;.;.;.;.;.;.&.*., % +.8.8.8.` I o X Y.Y.",
"Y.Y.Y.Y.Y.Y.Y.X b Q ) 8.8.5.> X 2 -.;.D =.=.;.;.;.;.;.;.;.;.;.-.;.-.;.=.D 7 @ + c 8.8...Q m o Y.Y.Y.",
"Y.Y.Y.Y.Y.Y.Y.o $ I Q } 8.c + @ w y y A D =.D D D D D D D D D D D D D y 7 + O . X g ^ E I : X Y.Y.Y.",
"Y.Y.Y.Y.Y.Y.Y.Y.X % B I f X X O @ @ @ 7 w w e e q q q q q q q e q q 0 # @ X o X X X $ @ $ X X Y.Y.Y.",
"Y.Y.Y.Y.Y.Y.Y.Y.Y.X o o O X X X o X . O O O X O X + X O X + o X o X o X X X X Y.Y.X X X X X Y.Y.Y.Y.",
"Y.Y.Y.Y.Y.Y.Y.Y.Y.Y.X o X o X X X X X X X O X X X o X o X X X o X X o X X X Y.Y.Y.Y.Y.Y.Y.Y.Y.Y.Y.Y.",
"Y.Y.Y.Y.Y.Y.Y.Y.Y.Y.Y.Y.Y.Y.Y.O X + X o X Y.Y.Y.Y.Y.Y.Y.Y.Y.Y.X o X X X X Y.Y.Y.Y.Y.Y.Y.Y.Y.Y.Y.Y.Y.",
"Y.Y.Y.Y.Y.Y.Y.Y.Y.Y.Y.Y.Y.Y.Y.Y.Y.X o X X Y.Y.Y.Y.Y.Y.Y.Y.Y.Y.X X X Y.Y.Y.Y.Y.Y.Y.Y.Y.Y.Y.Y.Y.Y.Y.Y.",
"Y.Y.Y.Y.Y.Y.Y.Y.Y.Y.Y.Y.Y.Y.Y.Y.Y.X X X Y.Y.Y.Y.Y.Y.Y.Y.Y.Y.Y.o X X Y.Y.Y.Y.Y.Y.Y.Y.Y.Y.Y.Y.Y.Y.Y.Y.",
"Y.Y.Y.Y.Y.Y.Y.Y.Y.Y.Y.Y.Y.Y.Y.Y.Y.Y.Y.Y.Y.Y.Y.Y.Y.Y.Y.Y.Y.Y.Y.Y.Y.Y.Y.Y.Y.Y.Y.Y.Y.Y.Y.Y.Y.Y.Y.Y.Y.Y.",
"Y.Y.Y.Y.Y.Y.Y.Y.Y.Y.Y.Y.Y.Y.Y.Y.Y.Y.Y.Y.Y.Y.Y.Y.Y.Y.Y.Y.Y.Y.Y.Y.Y.Y.Y.Y.Y.Y.Y.Y.Y.Y.Y.Y.Y.Y.Y.Y.Y.Y.",
"Y.Y.Y.Y.Y.Y.Y.Y.Y.Y.Y.Y.Y.Y.Y.Y.Y.Y.Y.Y.Y.Y.Y.Y.Y.Y.Y.Y.Y.Y.Y.Y.Y.Y.Y.Y.Y.Y.Y.Y.Y.Y.Y.Y.Y.Y.Y.Y.Y.Y.",
"Y.Y.Y.Y.Y.Y.Y.Y.Y.Y.Y.Y.Y.Y.Y.Y.Y.Y.Y.Y.Y.Y.Y.Y.Y.Y.Y.Y.Y.Y.Y.Y.Y.Y.Y.Y.Y.Y.Y.Y.Y.Y.Y.Y.Y.Y.Y.Y.Y.Y."
};
