/* XPM */
static char *result[] = {
/* columns rows colors chars-per-pixel */
"50 50 166 2 ",
"   c #080F26",
".  c #0E152A",
"X  c #10172B",
"o  c #151B2D",
"O  c #191E2F",
"+  c #171E31",
"@  c #191F30",
"#  c #1D2232",
"$  c #1E263D",
"%  c #232634",
"&  c #252835",
"*  c #2A2B37",
"=  c #20283F",
"-  c #2A2C38",
";  c #2F333D",
":  c #33343C",
">  c #3A393E",
",  c #3B373F",
"<  c #212941",
"1  c #252E48",
"2  c #27304B",
"3  c #29324E",
"4  c #2B3142",
"5  c #3B3B42",
"6  c #2B3552",
"7  c #2E3856",
"8  c #323E5E",
"9  c #333F60",
"0  c #433E43",
"q  c #3E4045",
"w  c #354364",
"e  c #3B496D",
"r  c #364A69",
"t  c #3E4D72",
"y  c #3C5475",
"u  c #3F5579",
"i  c #3F5B7D",
"p  c #454143",
"a  c #4C4645",
"s  c #434548",
"d  c #4E4648",
"f  c #4B4B4B",
"g  c #47494A",
"h  c #554D4A",
"j  c #5B4F4E",
"k  c #5C544D",
"l  c #4D4F59",
"z  c #525350",
"x  c #5E5150",
"c  c #595954",
"v  c #60584F",
"b  c #635453",
"n  c #655B51",
"m  c #6B5B56",
"M  c #6F5D58",
"N  c #6D6154",
"B  c #616059",
"V  c #69665D",
"C  c #716557",
"Z  c #79655D",
"A  c #7A6C5B",
"S  c #74675D",
"D  c #7D715F",
"F  c #404E75",
"G  c #405177",
"H  c #415178",
"J  c #6C6B60",
"K  c #716F62",
"L  c #84745E",
"P  c #866E62",
"I  c #8C7465",
"U  c #8C7B64",
"Y  c #807D6B",
"T  c #917668",
"R  c #967A6B",
"E  c #9A7D6C",
"W  c #907E65",
"Q  c #85816E",
"!  c #988467",
"~  c #9C836B",
"^  c #9C896C",
"/  c #8B8671",
"(  c #938D76",
")  c #9F8D70",
"_  c #9C967B",
"`  c #9C9176",
"'  c #A2856F",
"]  c #A38E6E",
"[  c #A68971",
"{  c #AB8E73",
"}  c #A38670",
"|  c #AD9472",
" . c #B29475",
".. c #B59976",
"X. c #B89E77",
"o. c #BB9D79",
"O. c #B0A17E",
"+. c #BEA27A",
"@. c #C4A57C",
"#. c #C4A97E",
"$. c #CAAB7E",
"%. c #3B6C85",
"&. c #3E6D89",
"*. c #3F748D",
"=. c #397186",
"-. c #3E7D93",
";. c #406484",
":. c #406986",
">. c #787C86",
",. c #3E8296",
"<. c #3D8698",
"1. c #3D8899",
"2. c #92959D",
"3. c #A79F81",
"4. c #B6AD89",
"5. c #BBB28C",
"6. c #AFB0AF",
"7. c #CEAE80",
"8. c #CFB081",
"9. c #C4B78F",
"0. c #CCB98D",
"q. c #D4B483",
"w. c #D8B784",
"e. c #D7B886",
"r. c #D9B986",
"t. c #D9BC8A",
"y. c #D1B889",
"u. c #C4BA92",
"i. c #C7BB97",
"p. c #D1BE90",
"a. c #DCC28E",
"s. c #CFC498",
"d. c #DDC491",
"f. c #D6CB9D",
"g. c #DCCD9D",
"h. c #E2C691",
"j. c #E1CA96",
"k. c #E3CD99",
"l. c #E6D19D",
"z. c #DCCFA0",
"x. c #DDD1A1",
"c. c #E4D5A2",
"v. c #E9D6A1",
"b. c #E6D9A6",
"n. c #EBDAA4",
"m. c #EDDEA9",
"M. c #F1DEA6",
"N. c #EFE1AB",
"B. c #F2E3AC",
"V. c #EEE2B9",
"C. c #F0E4B4",
"Z. c #F2E6BA",
"A. c #F5EABE",
"S. c #F4EAC4",
"D. c #F5ECCC",
"F. c #F8EFCB",
"G. c #F6EED2",
"H. c #F7F0D6",
"J. c #F8F3DE",
"K. c #EDECE8",
"L. c #F9F5E6",
"P. c #FBF8EE",
"I. c #FAF7E9",
"U. c #FDFBF5",
"Y. c #FEFDFC",
"T. c None",
/* pixels */
"T.T.T.T.T.T.T.T.T.T.T.T.T.T.T.T.T.T.T.T.T.T.T.T.T.T.T.T.T.T.T.T.T.T.T.T.T.T.T.T.T.T.T.T.T.T.T.T.T.T.",
"T.T.T.T.T.T.T.T.T.T.T.T.T.T.T.T.T.T.T.T.T.T.T.T.T.T.T.T.T.T.T.T.T.T.T.T.T.T.T.T.T.T.T.T.T.T.T.T.T.T.",
"T.T.T.T.T.T.T.T.T.T.T.T.T.T.T.T.T.T.o o o @ O O @ @ O o o o o T.T.T.T.T.T.T.T.T.T.T.T.T.T.T.T.T.T.T.",
"T.T.T.T.T.T.T.T.T.T.T.T.T.T.T.T.o o # 5 4.u.u.u.u.u.9.U 4 + o o o T.T.T.T.T.T.T.T.T.T.T.T.T.T.T.T.T.",
"T.T.T.T.T.T.T.T.T.T.T.T.T.T.T.o X # _ b.B.B.B.B.B.B.B.V.K.>.g * o o T.T.T.T.T.T.T.T.T.T.T.T.T.T.T.T.",
"T.T.T.T.T.T.T.T.T.T.T.T.T.T.o o B _ N.N.N.N.N.N.N.N.N.N.S.U.S.O.; o o o T.T.T.T.T.T.T.T.T.T.T.T.T.T.",
"T.T.T.T.T.T.T.T.T.T.T.T.T.o X J m.B.N.B.N.N.N.N.N.N.N.N.N.I.Y.F.5.D O o T.T.T.T.T.T.T.T.T.T.T.T.T.T.",
"T.T.T.T.T.T.T.T.T.T.T.T.o o + 6.A.N.N.N.N.B.N.N.N.N.N.N.C.P.Y.U.S.+.& o o T.T.T.T.T.T.T.T.T.T.T.T.T.",
"T.T.T.T.T.T.T.T.T.T.T.T.X # 2.Y.Z.C.C.N.B.m.Z.N.N.Z.Z.S.Y.Y.P.Y.S.a.^ * o o T.T.T.T.T.T.T.T.T.T.T.T.",
"T.T.T.T.T.T.T.T.T.T.T.o g l Y.Y.C.S.G.N.m.Z.P.C.N.J.U.Z.P.Y.S.Y.D.v.w.v X o T.T.T.T.T.T.T.T.T.T.T.T.",
"T.T.T.T.T.T.T.T.T.T.T.o ! i.L.S.C.S.U.C.m.G.Y.L.N.J.U.N.H.U.S.Y.S.v.r.v o o T.T.T.T.T.T.T.T.T.T.T.T.",
"T.T.T.T.T.T.T.T.T.T.o o ^ B.N.N.N.S.U.S.m.D.U.I.N.H.A.N.C.C.A.J.B.v.q.+.: X o T.T.T.T.T.T.T.T.T.T.T.",
"T.T.T.T.T.T.T.T.T.T.o o | C.N.N.m.m.D.Z.m.N.B.N.N.N.N.N.N.v.m.N.N.v.e.q.0 * o T.T.T.T.T.T.T.T.T.T.T.",
"T.T.T.T.T.T.T.T.T.o o 0 s.B.N.N.N.B.N.N.N.B.N.N.N.N.N.N.m.d.m.N.N.n.q.7.a m o o T.T.T.T.T.T.T.T.T.T.",
"T.T.T.T.T.T.T.T.T.o o N v.N.N.N.j.m.N.N.N.m.N.N.N.B.N.N.N.d.n.N.N.m.q.q.I m o o T.T.T.T.T.T.T.T.T.T.",
"T.T.T.T.T.T.T.T.T.o + / N.N.N.N.a.m.N.N.B.k.c.N.N.N.N.N.N.d.m.N.d.j.q.q.[ m o o o T.T.T.T.T.T.T.T.T.",
"T.T.T.T.T.T.T.T.o o g N.N.N.N.m.a.m.N.N.N.j.v.N.N.N.N.N.N.N.N.N.a.q.q.q.' m X O o T.T.T.T.T.T.T.T.T.",
"T.T.T.T.T.T.T.T.o # U l.N.N.N.N.l.N.N.N.N.j.l.N.N.N.N.N.N.l.m.N.h.w.q.q.' P : o o T.T.T.T.T.T.T.T.T.",
"T.T.T.T.T.T.T.T.o % #.h.m.k.N.N.k.N.B.N.N.j.k.B.N.N.N.N.m.d.n.l.w.$.$...R E x o o O T.T.T.T.T.T.T.T.",
"T.T.T.T.T.T.T.o o : @.q.k.a.N.n.a.v.N.N.l.e.r.n.N.N.N.N.m.t.e.e.q. .@.R R  .$.h X o T.T.T.T.T.T.T.T.",
"T.T.T.T.T.T.T.o : P [ $.7.t.l.t.$.a.l.k.w.$.w.m.B.v.k.d.d.r.q.q.$.|  .R ^ w.w.t.c o o T.T.T.T.T.T.T.",
"T.T.T.T.T.T.o > ..+.' ' +.q.q.q.r.$.w.w.w.w.q.a.d.t.q.q.q.q.q.q.o.E R R ..$.q.l.x.c o o T.T.T.T.T.T.",
"T.T.T.T.T.T.* X.r.$.o.~ [ 8.q.8.w.! W $...q.q.q.q.q.q.q.q.q.$.{ [ [ $.$.q.q.d.N.B.g.z X o o T.T.T.T.",
"T.T.T.T.T.: v v.$.a.$.$.7.q.o.E T & a R ' $.@.$.q. .+.{ q.q.q.$.$.$.w.$.a.$.h.N.N.B.z.c ; o T.T.T.T.",
"T.T.T.  : 5.N.v.| L $.t.t.$.#.| m @ @ Z R '  ...q.o.@.R ..q.q.q.q.q.e.q.v.a.| s.N.N.N.B._ X T.T.T.T.",
"T.T.# Y 5.N.N.+.: N t.n.l.k.q.! # o o 0  .$.q.e.q.e.q.| ..w.q.w.j.0.U w.v.B.S d d.N.B.g.f o T.T.T.T.",
"T.T.O s g g ) 5 N e.v.B.B.B._ # o o o o k q.r.w.e.q.q.@.o.t.v.v.N.u.& ^ h.B.Q o c p.f.f o o T.T.T.T.",
"T.T.o X . . # > #.M.C.B.f.| # o o $ @ X X V b.B.m.j.t.q.8.w.m.m.N.u.o N e.N.b.s o % % o X o o T.T.T.",
"T.O O 0 h n % o c ( ( ( q o o = 6 F 8 1 + o V 3.B.N.m.j.t.w.m.m.N.x.z o D m.B./ @ o o 0 d - O O T.T.",
"T.o d ~ $.r.U O o X . X o o = e F F F F 6 o X # B 5.B.B.j.q.j.m.m.B._ . # / m.x.* o N ..E Z % o T.T.",
"T.o M [ q.q.q.L o o o o + 8 e F G &.F F w # o o . Q g.f.c.h.o.f 5 q : + o # q 5 o k q.q...R Z O T.T.",
"T.o M ' $.w.q.A o T.o o + e F F i <.&.i t t 6 $ o # % % K 4.] h . $ 2 < o o X o X C r.e.+.R P # T.T.",
"T.o p T } o.A O o T.O o + e H &.,.<.<.,.&.H F e = X o o o o o o # e 7 o O o T.T.o p +.q.{ R k + T.T.",
"T.T.o 5 0 5 O o T.T.T.o o 2 y -.<.<.<.<.1.,.*.*.%.r 7 w 8 $ o o # w $ o o o T.T.o o 0 ~ R x O o T.T.",
"T.T.o X o o o T.T.T.T.T.o o 2 t u ;.,.-.,.-.,.-.1.:.*.%.%.=.i =.y 8 + + o O T.T.T.o o & * # o T.T.T.",
"T.T.T.T.T.T.T.T.T.T.T.T.o o o @ 7 8 e H H H H H H G G H y y r w 8 # o o o T.T.T.T.T.T.o o T.T.T.T.T.",
"T.T.T.T.T.T.T.T.T.T.T.T.T.O o o o o < 6 6 6 6 6 7 7 3 6 6 3 # o + X o o + T.T.T.T.T.T.T.T.T.T.T.T.T.",
"T.T.T.T.T.T.T.T.T.T.T.T.T.T.T.o O o o o o o o o o o o o o o o o o + o + T.T.T.T.T.T.T.T.T.T.T.T.T.T.",
"T.T.T.T.T.T.T.T.T.T.T.T.T.T.T.T.T.o o o o o o o T.T.O O o o o o o T.T.T.T.T.T.T.T.T.T.T.T.T.T.T.T.T.",
"T.T.T.T.T.T.T.T.T.T.T.T.T.T.T.T.T.o O o O o o @ O o o o o O O T.T.T.T.T.T.T.T.T.T.T.T.T.T.T.T.T.T.T.",
"T.T.T.T.T.T.T.T.T.T.T.T.T.T.T.T.T.o + O o o o o O o O o o o T.T.T.T.T.T.T.T.T.T.T.T.T.T.T.T.T.T.T.T.",
"T.T.T.T.T.T.T.T.T.T.T.T.T.T.T.T.T.T.o o @ T.T.o o T.o o O T.T.T.T.T.T.T.T.T.T.T.T.T.T.T.T.T.T.T.T.T.",
"T.T.T.T.T.T.T.T.T.T.T.T.T.T.T.T.T.T.T.T.T.T.T.T.T.T.o + o T.T.T.T.T.T.T.T.T.T.T.T.T.T.T.T.T.T.T.T.T.",
"T.T.T.T.T.T.T.T.T.T.T.T.T.T.T.T.T.T.T.T.T.T.T.T.T.T.o O o T.T.T.T.T.T.T.T.T.T.T.T.T.T.T.T.T.T.T.T.T.",
"T.T.T.T.T.T.T.T.T.T.T.T.T.T.T.T.T.T.T.T.T.T.T.T.T.T.T.T.T.T.T.T.T.T.T.T.T.T.T.T.T.T.T.T.T.T.T.T.T.T.",
"T.T.T.T.T.T.T.T.T.T.T.T.T.T.T.T.T.T.T.T.T.T.T.T.T.T.T.T.T.T.T.T.T.T.T.T.T.T.T.T.T.T.T.T.T.T.T.T.T.T.",
"T.T.T.T.T.T.T.T.T.T.T.T.T.T.T.T.T.T.T.T.T.T.T.T.T.T.T.T.T.T.T.T.T.T.T.T.T.T.T.T.T.T.T.T.T.T.T.T.T.T.",
"T.T.T.T.T.T.T.T.T.T.T.T.T.T.T.T.T.T.T.T.T.T.T.T.T.T.T.T.T.T.T.T.T.T.T.T.T.T.T.T.T.T.T.T.T.T.T.T.T.T.",
"T.T.T.T.T.T.T.T.T.T.T.T.T.T.T.T.T.T.T.T.T.T.T.T.T.T.T.T.T.T.T.T.T.T.T.T.T.T.T.T.T.T.T.T.T.T.T.T.T.T.",
"T.T.T.T.T.T.T.T.T.T.T.T.T.T.T.T.T.T.T.T.T.T.T.T.T.T.T.T.T.T.T.T.T.T.T.T.T.T.T.T.T.T.T.T.T.T.T.T.T.T."
};
