/* XPM */
static char *result[] = {
/* columns rows colors chars-per-pixel */
"50 50 159 2 ",
"   c #0F162A",
".  c #10172B",
"X  c #151B2D",
"o  c #191E2F",
"O  c #191F30",
"+  c #1B2133",
"@  c #1E253B",
"#  c #222534",
"$  c #252935",
"%  c #292A37",
"&  c #262B39",
"*  c #2C2E39",
"=  c #2F333D",
"-  c #32323B",
";  c #3D3B3F",
":  c #242D46",
">  c #29334F",
",  c #3C3D43",
"<  c #2B3552",
"1  c #323E5D",
"2  c #333F60",
"3  c #413D42",
"4  c #3F4146",
"5  c #374466",
"6  c #3C496E",
"7  c #3A476B",
"8  c #414246",
"9  c #4F4649",
"0  c #4C4D4D",
"q  c #484444",
"w  c #50474A",
"e  c #544D4A",
"r  c #594D4E",
"t  c #57514C",
"y  c #59524C",
"u  c #5D5751",
"i  c #5D5C56",
"p  c #605251",
"a  c #655D53",
"s  c #6F5D58",
"d  c #6B5E54",
"f  c #696459",
"g  c #746459",
"h  c #7A665D",
"j  c #776959",
"k  c #7C6D5E",
"l  c #736656",
"z  c #7F705D",
"x  c #414E76",
"c  c #405076",
"v  c #415178",
"b  c #40597C",
"n  c #757265",
"m  c #797566",
"M  c #82725E",
"N  c #856D62",
"B  c #8C7466",
"V  c #867A65",
"C  c #887861",
"Z  c #837F6D",
"A  c #8A7E68",
"S  c #827561",
"D  c #917668",
"F  c #967A6A",
"G  c #9A7E6D",
"H  c #85816E",
"J  c #978368",
"K  c #9C836B",
"L  c #9A8A6E",
"P  c #8A8571",
"I  c #8D8873",
"U  c #918C75",
"Y  c #9F987D",
"T  c #A1846F",
"R  c #A9916F",
"E  c #A48771",
"W  c #A68970",
"Q  c #AB8D73",
"!  c #AD9272",
"~  c #AF9874",
"^  c #A59B7D",
"/  c #B29475",
"(  c #B59976",
")  c #BA9F77",
"_  c #B79878",
"`  c #BB9C79",
"'  c #BAA077",
"]  c #BEA279",
"[  c #C3A47C",
"{  c #C7A97D",
"}  c #CBAC7F",
"|  c #3F6583",
" . c #3F6986",
".. c #3F6F8A",
"X. c #3F768E",
"o. c #3E7C92",
"O. c #406283",
"+. c #406987",
"@. c #40708B",
"#. c #3E8497",
"$. c #3E8798",
"%. c #3E889A",
"&. c #93969F",
"*. c #A9A283",
"=. c #BFAE87",
"-. c #B5AC8A",
";. c #BCB18B",
":. c #999CA4",
">. c #BEBBB5",
",. c #CDAE80",
"<. c #C0AC83",
"1. c #CEB486",
"2. c #C2B38B",
"3. c #D5B583",
"4. c #D8B784",
"5. c #D7B886",
"6. c #D9B985",
"7. c #DABD8A",
"8. c #C5BB93",
"9. c #CABD93",
"0. c #DCC18E",
"q. c #CFC499",
"w. c #DDC491",
"e. c #D1C69A",
"r. c #E2C792",
"t. c #E2CA96",
"y. c #E4CE9A",
"u. c #E6D29D",
"i. c #E9D29B",
"p. c #DBCFA0",
"a. c #DED1A1",
"s. c #E3D5A4",
"d. c #EAD7A2",
"f. c #E5D8A5",
"g. c #EBDAA4",
"h. c #ECDEA9",
"j. c #F2DFA7",
"k. c #EFE1AB",
"l. c #F1E3AD",
"z. c #F7E8AF",
"x. c #EDE3BA",
"c. c #F1E5B5",
"v. c #FCEDB3",
"b. c #F2E6BA",
"n. c #F3E8BF",
"m. c #D0CEC4",
"M. c #D7D8DC",
"N. c #F3E9C2",
"B. c #F8EDC2",
"V. c #F5ECCA",
"C. c #F6EED1",
"Z. c #F7F0D6",
"A. c #F9F3DC",
"S. c #F6F1DC",
"D. c #FAF5E3",
"F. c #FBF8EC",
"G. c #FCFBF6",
"H. c #FFFFFE",
"J. c None",
/* pixels */
"J.J.J.J.J.J.J.J.J.J.J.J.J.J.J.J.J.J.J.J.J.J.J.J.J.J.J.J.J.J.J.J.J.J.J.J.J.J.J.J.J.J.J.J.J.J.J.J.J.J.",
"J.J.J.J.J.J.J.J.J.J.J.J.J.J.J.J.J.J.o X X .               X J.J.J.J.J.J.J.J.J.J.J.J.J.J.J.J.J.J.J.J.",
"J.J.J.J.J.J.J.J.J.J.J.J.J.J.J.J.X X X . # k Z Z H Z Z Z Z % . X X J.J.J.J.J.J.J.J.J.J.J.J.J.J.J.J.J.",
"J.J.J.J.J.J.J.J.J.J.J.J.J.J.X X o X + :.>.g.z.z.z.z.z.z.z.-.P + X X J.J.J.J.J.J.J.J.J.J.J.J.J.J.J.J.",
"J.J.J.J.J.J.J.J.J.J.J.J.J.X X X t =.m.G.B.k.k.k.k.k.k.k.k.l.l.U & O X J.J.J.J.J.J.J.J.J.J.J.J.J.J.J.",
"J.J.J.J.J.J.J.J.J.J.J.J.X X - i s.A.H.N.k.k.k.k.k.k.k.k.k.k.k.h.a.n O X J.J.J.J.J.J.J.J.J.J.J.J.J.J.",
"J.J.J.J.J.J.J.J.J.J.J.X X X / k.Z.H.H.b.k.k.k.k.k.k.k.k.k.k.k.k.k.x., X X J.J.J.J.J.J.J.J.J.J.J.J.J.",
"J.J.J.J.J.J.J.J.J.J.X X X t { b.H.H.H.A.V.k.k.k.k.k.k.k.k.k.k.k.h.D.:.+ X J.J.J.J.J.J.J.J.J.J.J.J.J.",
"J.J.J.J.J.J.J.J.J.J.X X e { i.b.H.D.F.H.F.n.D.n.k.c.C.k.k.k.c.V.k.D.H.:.O o J.J.J.J.J.J.J.J.J.J.J.J.",
"J.J.J.J.J.J.J.J.J.J.X   j 7.d.b.H.Z.A.H.b.V.H.V.k.N.H.V.k.k.N.D.k.A.H.M.u a X J.J.J.J.J.J.J.J.J.J.J.",
"J.J.J.J.J.J.J.J.J.X X + C 7.d.b.G.Z.Z.F.l.N.G.V.k.G.H.Z.k.c.G.D.k.k.x.S.y.l . J.J.J.J.J.J.J.J.J.J.J.",
"J.J.J.J.J.J.J.J.J.X . t 3.3.g.k.n.V.k.k.k.k.V.n.c.A.D.V.k.c.G.C.k.k.k.k.h.k . X J.J.J.J.J.J.J.J.J.J.",
"J.J.J.J.J.J.J.J.X + 3 r 4.3.g.k.k.k.u.h.k.k.k.k.l.h.h.k.k.l.V.h.k.k.k.k.z.Z   X J.J.J.J.J.J.J.J.J.J.",
"J.J.J.J.J.J.J.J.o # g y 4.3.g.k.k.k.0.d.k.k.k.k.k.k.l.l.k.k.k.k.k.k.k.k.l.2.; X X J.J.J.J.J.J.J.J.J.",
"J.J.J.J.J.J.J.X X # N K 4.3.g.h.k.l.w.d.k.k.k.k.k.k.k.h.k.k.k.l.i.d.l.k.l.i.e . X J.J.J.J.J.J.J.J.J.",
"J.J.J.J.J.J.J.X X # B Q 3.3.u.w.k.k.t.g.k.k.k.k.k.l.u.t.k.l.h.l.w.i.k.k.k.l.m + X J.J.J.J.J.J.J.J.J.",
"J.J.J.J.J.J.J.X O O D Q 3.3.3.7.k.k.k.k.k.k.k.k.k.l.u.w.c.k.k.l.t.i.k.k.k.k.h.4   X J.J.J.J.J.J.J.J.",
"J.J.J.J.J.J.X o X 9 D Q 3.3.3.7.k.k.u.h.k.k.k.k.k.k.u.t.k.k.k.k.d.d.k.k.k.k.u.M O X J.J.J.J.J.J.J.J.",
"J.J.J.J.J.J.X X O N G G [ 3.3.3.y.k.w.d.l.k.l.h.k.l.u.t.l.k.k.k.d.f.k.g.u.k.0.} $ X J.J.J.J.J.J.J.J.",
"J.J.J.J.J.X . o N { K F G { / 3.5.0.5.d.h.k.k.l.k.g.5.5.d.k.k.k.w.u.k.d.w.u.5.[ % X o J.J.J.J.J.J.J.",
"J.J.J.J.X o , V 3.3.{ F F ( W ,.3.3.3.y.0.g.d.h.l.g.3.3.5.u.g.u.4.4.u.u.3.3.,.Q k * . J.J.J.J.J.J.J.",
"J.o X   . n h.k.w.3.,.W F F G [ 3.3.3.3.3.3.3.t.u.y.3.3.3.3.3.5.3.3.4.3.3.( / K ( ! - . J.J.J.J.J.J.",
"J.X 0 H P h.k.k.u.5.4.,._ ( K K ( { 4.3.3.4.3.3.3.3.3.3.] 3.[ J 5.4.3.3.,.W F ( 3.5.R - X X J.J.J.J.",
"J.  Z v.c.l.k.k.k.u.3.3.5.3.[ ] ` { 3.3.,.` [ { 3.3.3.3.Q Q C % N Q / 3.,.` [ } 3.3.r.;.- + + o X J.",
"J.X & *.l.l.k.y.1.a 1.y.3.4.3.4.3.3.3.3.T Q _ ] 3.Q Q T G D - . 9 K K } 4.3.3.3.{ } t.c.q.8.8.f X J.",
"J.J.X $ 9.i.7.} e 8 a.u.4.] 3.7.3.3.3.,.G ( 3.3.3.,.3._ T h + X O z 3.3.3.5.0.} q e ( w.z.z.-.+ X J.",
"J.J.X O k J J t   8.k.t.' 8 8.g.w.w.7.,.( 3.3.3.3.3.3.3.4.; X X X O M 4.0.u.l.r.' 3   a *.*.n X J.J.",
"J.J.J.X X X . 0 P p.k.' 3 X 8.l.l.l.w.3.3.3.0.t.t.t.t.y.L # X X X X O V l.l.k.k.y.=.l g #   X X J.J.",
"J.J.J.J.J.J.X , 8.s.f ,   m f.k.k.k.w.3.7.u.g.l.k.h.l.*.% X @ 1 : o X + I k.k.k.k.g.i.H # X X J.J.J.",
"J.J.J.J.J.J.J.. = 4 X X X Y f.a.s.i.4.7.h.l.l.f.e.0 4 % . + 5 x 7 5 @ X # 4 , 4 4 4 8 $ X X J.J.J.J.",
"J.J.J.J.J.J.J.J.X X X X X + & $ t ( / 2.8.8.9.i # X X . @ 5 6 O.b x 6 @ X . . X . X X X X J.J.J.J.J.",
"J.J.J.J.J.J.J.J.X X X X X o X X o O X O + X + X X X O : 5 c O.$. .c c 5 X X X X X . X X J.J.J.J.J.J.",
"J.J.J.J.J.J.J.X X + w r - X X X X X X X X X X X X < 1 v c +.$.$.o.b x 7 & X X O l d r % X J.J.J.J.J.",
"J.J.J.J.J.J.J.X o p F Q ( 3 X + 1 1 1 1 1 1 2 2 5 6 x | @.$.$.$.#.o.@.c 5 X + z 4.3.! h # X J.J.J.J.",
"J.J.J.J.J.J.J.X r F T ,.5.' - X < v ..o.v v +.o.o.o.o.#.%.%.%.%.$.#.O.5 @ . z 4.3.4.( F * X J.J.J.J.",
"J.J.J.J.J.J.J.X s G W 3.3.3.; X : +.o.o.b X.X.o.o.o.o.o.o.#.@.@.@.O.5 + X . z 4.4.3.! F - X J.J.J.J.",
"J.J.J.J.J.J.J.X w F G { 5.R * X & 1 1 2 x v v v v v x v v v x v 6 5 @ X X X + M [ _ G h # X J.J.J.J.",
"J.J.J.J.J.J.J.X X w F W K - X o o X X X > < < < < < < < < < < < @ X X X X o X O w e r % X J.J.J.J.J.",
"J.J.J.J.J.J.J.J.X X , 3 % X X X X X X o X X X X X X X X X X X X X o X o J.J.J.X . X X X J.J.J.J.J.J.",
"J.J.J.J.J.J.J.J.J.J.. . X J.J.X X o X X X J.J.J.J.J.J.J.X X X X X X X J.J.J.J.J.J.J.J.J.J.J.J.J.J.J.",
"J.J.J.J.J.J.J.J.J.J.J.J.J.J.J.o X X O X J.J.J.J.J.J.J.J.J.X X X X X J.J.J.J.J.J.J.J.J.J.J.J.J.J.J.J.",
"J.J.J.J.J.J.J.J.J.J.J.J.J.J.J.J.X O X X J.J.J.J.J.J.J.J.J.o X o O X J.J.J.J.J.J.J.J.J.J.J.J.J.J.J.J.",
"J.J.J.J.J.J.J.J.J.J.J.J.J.J.J.J.X X X X J.J.J.J.J.J.J.J.J.J.X X X J.J.J.J.J.J.J.J.J.J.J.J.J.J.J.J.J.",
"J.J.J.J.J.J.J.J.J.J.J.J.J.J.J.J.X X O J.J.J.J.J.J.J.J.J.J.J.o X X J.J.J.J.J.J.J.J.J.J.J.J.J.J.J.J.J.",
"J.J.J.J.J.J.J.J.J.J.J.J.J.J.J.J.X o X J.J.J.J.J.J.J.J.J.J.J.o X X J.J.J.J.J.J.J.J.J.J.J.J.J.J.J.J.J.",
"J.J.J.J.J.J.J.J.J.J.J.J.J.J.J.J.J.J.J.J.J.J.J.J.J.J.J.J.J.J.J.J.J.J.J.J.J.J.J.J.J.J.J.J.J.J.J.J.J.J.",
"J.J.J.J.J.J.J.J.J.J.J.J.J.J.J.J.J.J.J.J.J.J.J.J.J.J.J.J.J.J.J.J.J.J.J.J.J.J.J.J.J.J.J.J.J.J.J.J.J.J.",
"J.J.J.J.J.J.J.J.J.J.J.J.J.J.J.J.J.J.J.J.J.J.J.J.J.J.J.J.J.J.J.J.J.J.J.J.J.J.J.J.J.J.J.J.J.J.J.J.J.J.",
"J.J.J.J.J.J.J.J.J.J.J.J.J.J.J.J.J.J.J.J.J.J.J.J.J.J.J.J.J.J.J.J.J.J.J.J.J.J.J.J.J.J.J.J.J.J.J.J.J.J.",
"J.J.J.J.J.J.J.J.J.J.J.J.J.J.J.J.J.J.J.J.J.J.J.J.J.J.J.J.J.J.J.J.J.J.J.J.J.J.J.J.J.J.J.J.J.J.J.J.J.J."
};
