/* XPM */
static char *result[] = {
/* columns rows colors chars-per-pixel */
"50 50 169 2 ",
"   c #0F152A",
".  c #10172B",
"X  c #151B2D",
"o  c #191E2F",
"O  c #171D30",
"+  c #191F32",
"@  c #1C2132",
"#  c #1D253A",
"$  c #1C2D3F",
"%  c #222533",
"&  c #262935",
"*  c #2A2B36",
"=  c #212738",
"-  c #20283F",
";  c #2D2E39",
":  c #2F333C",
">  c #33353E",
",  c #3A363F",
"<  c #3C3A3E",
"1  c #222A42",
"2  c #262F49",
"3  c #28324D",
"4  c #213A4B",
"5  c #353940",
"6  c #3A3B41",
"7  c #2E3957",
"8  c #2D3755",
"9  c #313D5D",
"0  c #333F60",
"q  c #423D42",
"w  c #3C404A",
"e  c #354162",
"r  c #384467",
"t  c #374769",
"y  c #394569",
"u  c #3B486C",
"i  c #2A5263",
"p  c #3E4C72",
"a  c #3D5375",
"s  c #3F5B7D",
"d  c #306173",
"f  c #424245",
"g  c #4A4645",
"h  c #454749",
"j  c #4C4D4D",
"k  c #4E4748",
"l  c #544C4A",
"z  c #57504B",
"x  c #5A514D",
"c  c #565652",
"v  c #5F5250",
"b  c #5D5B54",
"n  c #5F5E58",
"m  c #60574E",
"M  c #655A51",
"N  c #605F58",
"B  c #695A55",
"V  c #6E6255",
"C  c #64625A",
"Z  c #6C6A5E",
"A  c #726556",
"S  c #75645A",
"D  c #79655D",
"F  c #756A5A",
"G  c #786A59",
"H  c #7F735F",
"J  c #404D75",
"K  c #415077",
"L  c #415278",
"P  c #405B7E",
"I  c #7D7564",
"U  c #7B7868",
"Y  c #826B61",
"T  c #847661",
"R  c #8C7366",
"E  c #8D7B63",
"W  c #827E6B",
"Q  c #967A6A",
"!  c #997C6C",
"~  c #85816E",
"^  c #978467",
"/  c #9C826C",
"(  c #9C896C",
")  c #968368",
"_  c #8B8671",
"`  c #958F77",
"'  c #969077",
"]  c #9A947A",
"[  c #A2856F",
"{  c #A18B6B",
"}  c #A6906F",
"|  c #A9916F",
" . c #A68970",
".. c #AB8D72",
"X. c #A29172",
"o. c #AB9374",
"O. c #B29575",
"+. c #B59977",
"@. c #BC9D79",
"#. c #BFA27A",
"$. c #C3A57C",
"%. c #C7A97D",
"&. c #CAAB7E",
"*. c #3F6382",
"=. c #3F6885",
"-. c #3E6D88",
";. c #387487",
":. c #3D748C",
">. c #38788A",
",. c #405E80",
"<. c #3E8496",
"1. c #3D8698",
"2. c #3E889A",
"3. c #ABA383",
"4. c #B9AB85",
"5. c #BFB68F",
"6. c #9DA0A8",
"7. c #ADAFB7",
"8. c #CEAF80",
"9. c #CFB080",
"0. c #CCB98E",
"q. c #C9B78B",
"w. c #D4B482",
"e. c #D8B784",
"r. c #D6B987",
"t. c #DABA86",
"y. c #DABC8A",
"u. c #C1B790",
"i. c #C5BB93",
"p. c #C9BE95",
"a. c #DCC18D",
"s. c #D6C494",
"d. c #DEC491",
"f. c #D4C99B",
"g. c #E0C794",
"h. c #E1CA96",
"j. c #E4CD99",
"k. c #E5D19D",
"l. c #EAD49F",
"z. c #DFD3A2",
"x. c #C6C3BC",
"c. c #E4D5A2",
"v. c #E9D7A1",
"b. c #EBDAA4",
"n. c #EDDEA9",
"m. c #E7D9A8",
"M. c #F1DFA7",
"N. c #EFE1AB",
"B. c #F2E4AD",
"V. c #F7E8AF",
"C. c #F0E3B3",
"Z. c #F9EAB0",
"A. c #F1E6BA",
"S. c #F3E9BE",
"D. c #DBD9CE",
"F. c #D9DBDD",
"G. c #F1E7C1",
"H. c #F4EAC5",
"J. c #F5ECCA",
"K. c #F6EFD2",
"L. c #F7F0D5",
"P. c #F7F1D8",
"I. c #F9F3DE",
"U. c #F9F5E3",
"Y. c #FBF8ED",
"T. c #FBF7EB",
"R. c #FCFAF1",
"E. c #FFFEFE",
"W. c None",
/* pixels */
"W.W.W.W.W.W.W.W.W.W.W.W.W.W.W.W.W.W.W.W.W.W.W.W.W.W.W.W.W.W.W.W.W.W.W.W.W.W.W.W.W.W.W.W.W.W.W.W.W.W.",
"W.W.W.W.W.W.W.W.W.W.W.W.W.W.W.W.W.W.W.W..   . . . . . . . X X X W.W.W.W.W.W.W.W.W.W.W.W.W.W.W.W.W.W.",
"W.W.W.W.W.W.W.W.W.W.W.W.W.W.W.W.W.X X . * _ _ _ _ _ _ _ T * . X X X W.W.W.W.W.W.W.W.W.W.W.W.W.W.W.W.",
"W.W.W.W.W.W.W.W.W.W.W.W.W.W.W.W.X X @ ' 5.V.C.V.V.B.V.B.n.x.6.= @ o X X W.W.W.W.W.W.W.W.W.W.W.W.W.W.",
"W.W.W.W.W.W.W.W.W.W.W.W.W.W.W.X @ : ] N.B.N.N.N.N.N.N.n.N.A.Y.D.0.b . X X W.W.W.W.W.W.W.W.W.W.W.W.W.",
"W.W.W.W.W.W.W.W.W.W.W.W.W.W.X @ ~ b.n.N.N.N.N.N.N.N.N.B.N.N.S.E.I.m.Z < X X W.W.W.W.W.W.W.W.W.W.W.W.",
"W.W.W.W.W.W.W.W.W.W.W.W.W.X . w S.n.N.N.N.N.N.N.N.N.N.N.n.N.A.E.E.U.B.+.X X + W.W.W.W.W.W.W.W.W.W.W.",
"W.W.W.W.W.W.W.W.W.W.W.W.X X = 7.U.N.N.N.N.N.N.N.N.N.N.N.N.L.U.E.E.E.A.9.M X X X W.W.W.W.W.W.W.W.W.W.",
"W.W.W.W.W.W.W.W.W.W.W.W.@ @ 7.E.I.n.L.A.N.n.N.P.A.N.G.T.G.T.E.U.I.E.A.l.9.m . X W.W.W.W.W.W.W.W.W.W.",
"W.W.W.W.W.W.W.W.W.W.W.. V F F.Y.L.N.U.H.N.N.K.E.H.n.J.E.J.C.E.U.K.E.A.v.t.A   O W.W.W.W.W.W.W.W.W.W.",
"W.W.W.W.W.W.W.W.W.W.W.. A l.L.C.N.N.U.E.C.b.L.E.E.N.J.R.S.N.I.J.L.Y.C.v.e.^ * . X W.W.W.W.W.W.W.W.W.",
"W.W.W.W.W.W.W.W.W.W.X   H M.N.N.N.N.H.R.C.N.S.L.J.B.A.S.N.N.N.N.G.A.M.b.e.e.x . X W.W.W.W.W.W.W.W.W.",
"W.W.W.W.W.W.W.W.W.X X . ~ V.N.N.N.N.N.S.N.N.N.N.N.N.N.N.N.N.b.j.N.N.N.m.w.e.x k @ X W.W.W.W.W.W.W.W.",
"W.W.W.W.W.W.W.W.W.X . g s.N.N.N.N.b.N.N.N.N.N.N.N.N.N.N.N.N.v.a.n.B.N.b.w.e.m S % X W.W.W.W.W.W.W.W.",
"W.W.W.W.W.W.W.W.W.X . l l.N.N.N.k.k.N.N.N.N.b.b.N.N.N.N.N.N.v.d.n.n.b.m.e.e. .R % X X W.W.W.W.W.W.W.",
"W.W.W.W.W.W.W.W.W.X & ] B.N.N.N.k.d.N.N.N.N.h.k.N.N.N.N.N.N.b.k.B.M.y.g.w.w...R % X X W.W.W.W.W.W.W.",
"W.W.W.W.W.W.W.W.X . f N.N.N.N.N.k.d.N.N.N.N.h.j.N.N.N.N.N.N.N.N.n.N.t.&.e.e...R % X X W.W.W.W.W.W.W.",
"W.W.W.W.W.W.W.W.X % X.h.N.n.N.n.b.b.N.N.N.N.h.k.N.N.N.N.N.N.b.j.B.M.y.w.r.w...Q m X o X W.W.W.W.W.W.",
"W.W.W.W.W.W.W.X X % &.y.n.g.m.B.k.k.C.N.B.n.g.j.N.N.N.N.N.N.b.a.M.d.&.&.&.O.Q Q R ; X X W.W.W.W.W.W.",
"W.W.W.W.W.W.W.+ . q @.w.d.a.b.n.d.a.N.N.N.g.w.w.v.N.N.B.N.v.m.w.t.t.&...%.! ! ..w.| ; . @ W.W.W.W.W.",
"W.W.W.W.W.W.X . z Q [ &.$.e.d.d.w.w.g.j.g.&.w.w.v.B.b.g.h.r.d.w.&.t.&.[ ..Q { &.w.a.4., . X W.W.W.W.",
"W.W.W.W.W.W.. x %.$.[ / O.e.w.e.w.r.&.w.&.e.w.w.y.d.y.w.w.w.w.w.t.&.@.! Q ! +.t.&.d.B.u., . W.W.W.W.",
"W.W.W.W.W.  g 9.e.w.$.! / $.w.9.&.8.M o.&.O.e.w.e.w.w.9.w.w.w.e.$. .[ ..&.&.&.&.a.M.N.B.s.5 . X X W.",
"W.W.W.W.X f W j.e.e.w.w.8.w.w./ / m X B / ..%.%.$.e.@.+.o.#.w.w.t.&.&.&.t.&.a.&.t.M.B.n.N.5.j : X W.",
"W.W.W.. C m.N.j.{ T &.r.y.w.w.O./ , . % R Q [ O.O.w.%.%...! &.w.w.w.w.w.r.w.k.h.$.o.n.N.N.N.V.~   W.",
"W.. c ] c.B.n.X.* A e.v.v.j.y.$.g X X X x +.&.w.e.w.w.w.$.[ w.e.w.w.j.q.E r.k.B.4.* } b.N.B.p.f . W.",
"W.. W Z.B.c.} & G e.v.B.B.B.s.f . X X X + A w.w.#.k f q { o.&.a.m.c.N.5.@ ) a.N.s.@ & X.b.p.6 . W.W.",
"W.X @ ' u., * H a.b.V.V.z.p.j . X o # X X o I C % . . . % ^ r.a.N.N.N.s.. m &.b.N.`   % ) > . W.W.W.",
"W.W.X @ @ . < X.3.3.3.3.B o o + 1 9 J 3 - X o X X , < * X % ^ d.N.N.N.f.h X V c.B.5.5 . @ X W.W.W.W.",
"W.W.W.W.X X X X X . . . X X X 7 J J J J p 1 X X M o.! D & . , e.v.B.B.Z.3.. X U N.Z.~   X W.W.W.W.W.",
"W.W.W.W.W.W.O X O X X X X 3 0 J K d s J u - X B w.w.O.Q D % , w.( b n N h X X X c n w . W.W.W.W.W.W.",
"W.W.W.W.W.W.W.W.W.W.X X X 0 K J J =.<.P r X X ^ t.w.$.Q ! ; < 0.O.<   X . X X X . . . W.W.W.W.W.W.W.",
"W.W.W.W.W.W.W.W.W.W.X O X 9 K s =.1.1.<.;.$ X G w.w.+.Q Y & X = % @ @ 9 O X X + W.W.W.W.W.W.W.W.W.W.",
"W.W.W.W.W.W.W.W.W.W.X O X e K ;.1.1.1.<.2.d . o G +.! Y ; X 4 X X X o 3 o X X X W.W.W.W.W.W.W.W.W.W.",
"W.W.W.W.W.W.W.W.W.W.X X X 9 J K =.:.2.1.<.>.4 X O q k ; X i ;.7 7 # X X X X X W.W.W.W.W.W.W.W.W.W.W.",
"W.W.W.W.W.W.W.W.W.W.X O X # r p J a s s ,.,.a 0 = O X 2 e a P e 1 @ X X o X W.W.W.W.W.W.W.W.W.W.W.W.",
"W.W.W.W.W.W.W.W.W.W.W.X X X @ - y y y y y y y u 0 0 0 r 2 + # + X X X X W.W.W.W.W.W.W.W.W.W.W.W.W.W.",
"W.W.W.W.W.W.W.W.W.W.W.X X X X X O @ X O O O X O + + O + + X X X X X X W.W.W.W.W.W.W.W.W.W.W.W.W.W.W.",
"W.W.W.W.W.W.W.W.W.W.X o X X X X X X + X X X @ X O O X O X X X X X o X o W.W.W.W.W.W.W.W.W.W.W.W.W.W.",
"W.W.W.W.W.W.W.W.W.X X o X W.o W.W.W.W.W.W.W.W.W.W.W.W.W.W.W.o X X X X X o X W.W.W.W.W.W.W.W.W.W.W.W.",
"W.W.W.W.W.W.W.X o X X X W.W.W.W.W.W.W.W.W.W.W.W.W.W.W.W.W.W.X X + X X X X X W.W.W.W.W.W.W.W.W.W.W.W.",
"W.W.W.W.W.W.W.W.O X X @ W.W.W.W.W.W.W.W.W.W.W.W.W.W.W.W.W.W.W.W.W.W.W.o o X W.W.W.W.W.W.W.W.W.W.W.W.",
"W.W.W.W.W.W.W.W.W.X X W.W.W.W.W.W.W.W.W.W.W.W.W.W.W.W.W.W.W.W.W.W.W.W.X X W.W.W.W.W.W.W.W.W.W.W.W.W.",
"W.W.W.W.W.W.W.W.W.W.W.W.W.W.W.W.W.W.W.W.W.W.W.W.W.W.W.W.W.W.W.W.W.W.W.W.W.W.W.W.W.W.W.W.W.W.W.W.W.W.",
"W.W.W.W.W.W.W.W.W.W.W.W.W.W.W.W.W.W.W.W.W.W.W.W.W.W.W.W.W.W.W.W.W.W.W.W.W.W.W.W.W.W.W.W.W.W.W.W.W.W.",
"W.W.W.W.W.W.W.W.W.W.W.W.W.W.W.W.W.W.W.W.W.W.W.W.W.W.W.W.W.W.W.W.W.W.W.W.W.W.W.W.W.W.W.W.W.W.W.W.W.W.",
"W.W.W.W.W.W.W.W.W.W.W.W.W.W.W.W.W.W.W.W.W.W.W.W.W.W.W.W.W.W.W.W.W.W.W.W.W.W.W.W.W.W.W.W.W.W.W.W.W.W.",
"W.W.W.W.W.W.W.W.W.W.W.W.W.W.W.W.W.W.W.W.W.W.W.W.W.W.W.W.W.W.W.W.W.W.W.W.W.W.W.W.W.W.W.W.W.W.W.W.W.W.",
"W.W.W.W.W.W.W.W.W.W.W.W.W.W.W.W.W.W.W.W.W.W.W.W.W.W.W.W.W.W.W.W.W.W.W.W.W.W.W.W.W.W.W.W.W.W.W.W.W.W.",
"W.W.W.W.W.W.W.W.W.W.W.W.W.W.W.W.W.W.W.W.W.W.W.W.W.W.W.W.W.W.W.W.W.W.W.W.W.W.W.W.W.W.W.W.W.W.W.W.W.W."
};
