/* XPM */
static char *result[] = {
/* columns rows colors chars-per-pixel */
"50 50 160 2 ",
"   c #0D1327",
".  c #0F162A",
"X  c #10172A",
"o  c #151B2D",
"O  c #191E2F",
"+  c #191F31",
"@  c #1C2132",
"#  c #1D263C",
"$  c #232634",
"%  c #252935",
"&  c #2A2B36",
"*  c #272B38",
"=  c #2B2D39",
"-  c #312F3A",
";  c #33343C",
":  c #39363E",
">  c #34383F",
",  c #3B393E",
"<  c #1F3245",
"1  c #222B43",
"2  c #262F49",
"3  c #26314A",
"4  c #29334E",
"5  c #20394B",
"6  c #323747",
"7  c #3B3740",
"8  c #363940",
"9  c #3D3C42",
"0  c #2B3552",
"q  c #323C5D",
"w  c #423D42",
"e  c #364265",
"r  c #384367",
"t  c #394669",
"y  c #3B496D",
"u  c #3F4D74",
"i  c #3F5176",
"p  c #3A5977",
"a  c #3F5378",
"s  c #326879",
"d  c #464145",
"f  c #4B4545",
"g  c #4E4846",
"h  c #4B4C4D",
"j  c #544B4A",
"k  c #4F504F",
"l  c #50514F",
"z  c #5B534D",
"x  c #5A5A55",
"c  c #61584F",
"v  c #655B52",
"b  c #675A53",
"n  c #63625A",
"m  c #69675E",
"M  c #6B695F",
"N  c #726556",
"B  c #74645A",
"V  c #7C6D5B",
"C  c #726C5E",
"Z  c #414E76",
"A  c #405077",
"S  c #415279",
"D  c #40587C",
"F  c #5E626E",
"G  c #737164",
"H  c #7D796A",
"J  c #7D7463",
"K  c #8C7466",
"L  c #827E6C",
"P  c #917768",
"I  c #95796A",
"U  c #9A7D6C",
"Y  c #968366",
"T  c #9C846B",
"R  c #9F896B",
"E  c #8A8572",
"W  c #8E8873",
"Q  c #908B74",
"!  c #9B957B",
"~  c #A2856F",
"^  c #A38E6D",
"/  c #A8916F",
"(  c #A38770",
")  c #A68971",
"_  c #AB8E73",
"`  c #A59575",
"'  c #AC9372",
"]  c #A89A7A",
"[  c #B29475",
"{  c #B69976",
"}  c #B99E77",
"|  c #BB9C79",
" . c #BEA279",
".. c #B2A07C",
"X. c #C2A47B",
"o. c #CBAC7F",
"O. c #C7AA7D",
"+. c #3E6F89",
"@. c #3D6884",
"#. c #3E718B",
"$. c #3E7C92",
"%. c #405D80",
"&. c #797D8A",
"*. c #3E8496",
"=. c #3D8798",
"-. c #3E899A",
";. c #81838A",
":. c #A89F81",
">. c #ABA384",
",. c #B0A886",
"<. c #B5AC89",
"1. c #BCB28D",
"2. c #BFB690",
"3. c #B6B8BE",
"4. c #CEAE80",
"5. c #C6B186",
"6. c #D4B482",
"7. c #D8B784",
"8. c #D7B987",
"9. c #DAB986",
"0. c #DABD8A",
"q. c #C7B994",
"w. c #DCC18E",
"e. c #DEC591",
"r. c #D6CA9D",
"t. c #DCCB9A",
"y. c #E1C692",
"u. c #E2CA96",
"i. c #E3CD99",
"p. c #E6D19D",
"a. c #DDD1A2",
"s. c #E5D5A2",
"d. c #E8D6A1",
"f. c #E6D9A5",
"g. c #EBDAA4",
"h. c #EEDFA9",
"j. c #F1DCA4",
"k. c #EFE1AB",
"l. c #F3E4AD",
"z. c #F0E3B2",
"x. c #F7E9B0",
"c. c #FAEBB2",
"v. c #F2E7BB",
"b. c #F4E8B9",
"n. c #F3E9C2",
"m. c #F5ECCB",
"M. c #FBF2CC",
"N. c #F6EFD4",
"B. c #F7F0D6",
"V. c #F9F2D7",
"C. c #F9F3DD",
"Z. c #ECEDEE",
"A. c #F9F5E3",
"S. c #FAF7E9",
"D. c #FCF9ED",
"F. c #FEF9E4",
"G. c #F4F4F3",
"H. c #FCFAF3",
"J. c #FEFEFC",
"K. c None",
/* pixels */
"K.K.K.K.K.K.K.K.K.K.K.K.K.K.K.K.K.K.K.K.K.K.K.K.K.K.K.K.K.K.K.K.K.K.K.K.K.K.K.K.K.K.K.K.K.K.K.K.K.K.",
"K.K.K.K.K.K.K.K.K.K.K.K.K.K.K.K.K.K.K.K.o o X X o X X X o o o K.K.K.K.K.K.K.K.K.K.K.K.K.K.K.K.K.K.K.",
"K.K.K.K.K.K.K.K.K.K.K.K.K.K.K.K.K.K.o . 8 x x x x x x x ,   o o o K.K.K.K.K.K.K.K.K.K.K.K.K.K.K.K.K.",
"K.K.K.K.K.K.K.K.K.K.K.K.K.K.K.K.o o $ M <.c.l.l.l.l.l.l.q.&.6   o o o K.K.K.K.K.K.K.K.K.K.K.K.K.K.K.",
"K.K.K.K.K.K.K.K.K.K.K.K.K.K.K.o o o Q z.l.k.k.k.k.k.k.k.b.H.3.E c o o o K.K.K.K.K.K.K.K.K.K.K.K.K.K.",
"K.K.K.K.K.K.K.K.K.K.K.K.K.K.O . m >.h.k.k.k.k.k.k.k.k.k.h.z.D.F.p.M . o O K.K.K.K.K.K.K.K.K.K.K.K.K.",
"K.K.K.K.K.K.K.K.K.K.K.K.K.o X x s.x.k.k.k.k.k.k.k.l.k.k.k.k.A.J.C.a.] , o o K.K.K.K.K.K.K.K.K.K.K.K.",
"K.K.K.K.K.K.K.K.K.K.K.K.O o o ;.M.h.h.h.k.k.k.k.k.h.h.k.k.k.S.J.J.V.u.g o o K.K.K.K.K.K.K.K.K.K.K.K.",
"K.K.K.K.K.K.K.K.K.K.K.K.o o F G.m.k.z.k.k.k.k.k.k.k.z.z.n.J.J.H.J.C.e.X.> o O K.K.K.K.K.K.K.K.K.K.K.",
"K.K.K.K.K.K.K.K.K.K.K.o = 6 Z.J.m.k.S.k.k.k.n.A.k.k.S.D.n.H.J.n.J.C.k.w.{ @ O K.K.K.K.K.K.K.K.K.K.K.",
"K.K.K.K.K.K.K.K.K.K.K.o Y H G.S.n.k.D.v.k.k.H.H.b.h.S.H.k.N.J.n.J.V.k.w.{ O o o K.K.K.K.K.K.K.K.K.K.",
"K.K.K.K.K.K.K.K.K.K.o o T l.m.k.k.z.H.S.k.k.H.J.C.h.S.C.k.n.A.v.H.m.h.w.X.g o o K.K.K.K.K.K.K.K.K.K.",
"K.K.K.K.K.K.K.K.K.K.o o ` l.k.k.h.k.C.A.k.k.m.B.n.k.m.k.k.h.k.k.m.h.k.w.8.R X X o K.K.K.K.K.K.K.K.K.",
"K.K.K.K.K.K.K.K.K.o o o >.l.h.k.k.k.k.n.h.k.k.h.k.k.h.k.k.k.p.f.k.h.k.w.7.T 7 : o K.K.K.K.K.K.K.K.K.",
"K.K.K.K.K.K.K.K.K.o o z t.l.k.k.k.h.h.h.k.k.k.k.k.k.k.k.k.k.e.s.k.k.l.w.7.Y j w o o K.K.K.K.K.K.K.K.",
"K.K.K.K.K.K.K.K.K.o X V g.k.k.k.i.f.k.k.k.k.h.k.k.k.l.k.k.k.e.d.k.k.h.w.6.| K w o o K.K.K.K.K.K.K.K.",
"K.K.K.K.K.K.K.K.K.o o W l.k.k.k.e.d.k.k.l.h.e.h.k.k.k.k.k.k.e.g.k.s.i.0.6.X.I w o o o K.K.K.K.K.K.K.",
"K.K.K.K.K.K.K.K.o X x h.k.k.k.k.e.d.l.k.k.h.0.h.k.k.k.l.k.k.h.k.k.i.6.6.7.X.U w o o o K.K.K.K.K.K.K.",
"K.K.K.K.K.K.K.K.o + J h.l.k.k.k.i.f.h.k.k.h.w.h.k.k.k.k.k.k.g.h.l.i.6.6.6.X.U j + o O K.K.K.K.K.K.K.",
"K.K.K.K.K.K.K.K.o , 6.u.l.s.k.k.d.h.k.k.h.h.e.h.k.k.k.k.z.h.e.g.h.e.6.6.6.{ I I * o O K.K.K.K.K.K.K.",
"K.K.K.K.K.K.K.o o : 6.0.g.w.h.k.y.d.h.h.k.s.8.p.k.k.k.h.h.l.w.y.y.6.X.4.{ I I _ B o o o K.K.K.K.K.K.",
"K.K.K.K.K.K.o o o b | 6.w.0.l.d.8.e.h.h.d.8.6.0.k.k.k.k.f.s.e.6.6.6.[  .T I ) o.6.N X X X X X o K.K.",
"K.o o + o o o o V U '  .X.6.w.8.6.6.w.e.8.6.6.0.k.k.u.e.0.8.8.6.6.6.[ ( U I { 8.8.t.>.>.>.>.L o K.K.",
"K.o O @ 6 <.2.| 4.X.T U X.7.6.6.6.6.6.6.6.6.6.6.0.0.6.6.6.6.6.6.6.X.U I U ( 4.6.8.h.l.l.l.c.,.o K.K.",
"K.o H r.r.l.l.w.o.9. .~ ~ o.6.6.o.X.z 4.{ X.7.6.6.6.4.6.4.6.6.4.) R U  .4.4.6.6.p.h.k.k.l.q.> o K.K.",
"K.. H l.l.h.i.6. . .o.o.o.7.X.U T 7 & K I | o.o.4.6._ 5._ 6.7.6.4.6.4.6.6.8.O. . .w.d.h.s.9 o o K.K.",
"K.K.o Q 1.' / / , z 6.0.9.7.O.^ K & X w U I ~ _ | 6.{ X.I { 6.6.6.6.6.8.6.y.] $ % / 8.X.^ * o K.K.K.",
"K.K.o o o o X o f o.i.l.i.7.7.X.d o o - K [ o.6.6.6.6.4.( [ 7.6.6.8.w.' 6.w.z.E O * Y g o o K.K.K.K.",
"K.K.o o o - N c 5.u.l.k.l.u.O.j X o o X V 8.6.6.6.6.6.6.o.X.7.y.e.p.k.k V 0.p.l.W G l o o K.K.K.K.K.",
"K.K.K.o o = ' j.l.l.l.x.l.d.z X O o o o 9 5.p.u.y.i.i.6.6.6.6.j.k.k.k.! % N ' k.c.s.x o K.K.K.K.K.K.",
"K.K.K.K.o o > n n n n n n x o o o 0 0 o . h a.z.l.h.l.s.y.6.4.C E k.l.l.! . ; x n k   K.K.K.K.K.K.K.",
"K.K.K.K.K.K.o o X . . X X . # e e u Z 0 o o d h W l.h.h.h.d.d.:.% k h h h O o X . o o K.K.K.K.K.K.K.",
"K.K.K.K.K.o + + $ + o O o @ t u A #.$.Z 4 o o . # , 1.f.s.f.G 8 o o . X X + @ + o O K.K.K.K.K.K.K.K.",
"K.K.K.K.o o j P | / % o O e D a +.=.*.*.@.3 @ o o o % = = = + o @ + o o : P K w o o O K.K.K.K.K.K.K.",
"K.K.K.K.o : I | 7.6.T % o y $.*.*.=.=.=.=.*.p 1 # o o o X o o * y 4 o :  .X.U P w o o K.K.K.K.K.K.K.",
"K.K.K.K.X 7 I | 7.6.9.N o q D $.=.=.=.=.=.=.=.=.s < < # 1 1 1 y e O o ^ 7.7.| I K @ o K.K.K.K.K.K.K.",
"K.K.K.K.o 7 U [ 6.8. .f o O q %.#.#.#.+.#.+.+.+.#.#.D Z Z Z S S e o o / 7.7.{ I K $ o K.K.K.K.K.K.K.",
"K.K.K.K.K.% B U [ [ l X o o @ 0 r Z Z Z Z Z Z Z Z a A A A e 4 4 2 o o x 4.4.) I z O o K.K.K.K.K.K.K.",
"K.K.K.K.K.o & d w 7 X O o O o o # 2 2 2 2 2 2 2 3 2 2 2 2 @ o o o o o o b _ I c + o K.K.K.K.K.K.K.K.",
"K.K.K.K.K.K.o X o o o O o o o o o X o o o o o o o o o X o o o O o O O o o : : $ o K.K.K.K.K.K.K.K.K.",
"K.K.K.K.K.K.K.K.K.K.K.o o o + o o K.K.K.K.K.K.K.K.K.K.O o o O o O K.K.K.o o o K.K.K.K.K.K.K.K.K.K.K.",
"K.K.K.K.K.K.K.K.K.K.K.K.O o O o O K.K.K.K.K.K.K.K.K.K.K.O O o o K.K.K.K.K.K.K.K.K.K.K.K.K.K.K.K.K.K.",
"K.K.K.K.K.K.K.K.K.K.K.K.K.o o o o K.K.K.K.K.K.K.K.K.K.K.o o o O o K.K.K.K.K.K.K.K.K.K.K.K.K.K.K.K.K.",
"K.K.K.K.K.K.K.K.K.K.K.K.K.K.K.O O K.K.K.K.K.K.K.K.K.K.K.K.K.O o o K.K.K.K.K.K.K.K.K.K.K.K.K.K.K.K.K.",
"K.K.K.K.K.K.K.K.K.K.K.K.K.K.K.O K.K.K.K.K.K.K.K.K.K.K.K.K.o O O O K.K.K.K.K.K.K.K.K.K.K.K.K.K.K.K.K.",
"K.K.K.K.K.K.K.K.K.K.K.K.K.K.K.K.K.K.K.K.K.K.K.K.K.K.K.K.K.K.K.K.K.K.K.K.K.K.K.K.K.K.K.K.K.K.K.K.K.K.",
"K.K.K.K.K.K.K.K.K.K.K.K.K.K.K.K.K.K.K.K.K.K.K.K.K.K.K.K.K.K.K.K.K.K.K.K.K.K.K.K.K.K.K.K.K.K.K.K.K.K.",
"K.K.K.K.K.K.K.K.K.K.K.K.K.K.K.K.K.K.K.K.K.K.K.K.K.K.K.K.K.K.K.K.K.K.K.K.K.K.K.K.K.K.K.K.K.K.K.K.K.K.",
"K.K.K.K.K.K.K.K.K.K.K.K.K.K.K.K.K.K.K.K.K.K.K.K.K.K.K.K.K.K.K.K.K.K.K.K.K.K.K.K.K.K.K.K.K.K.K.K.K.K.",
"K.K.K.K.K.K.K.K.K.K.K.K.K.K.K.K.K.K.K.K.K.K.K.K.K.K.K.K.K.K.K.K.K.K.K.K.K.K.K.K.K.K.K.K.K.K.K.K.K.K."
};
