/* XPM */
static char *result[] = {
/* columns rows colors chars-per-pixel */
"50 50 167 2 ",
"   c #0F152A",
".  c #0E1427",
"X  c #11172B",
"o  c #151B2D",
"O  c #181E2F",
"+  c #191F31",
"@  c #1C2132",
"#  c #1D253A",
"$  c #232634",
"%  c #252835",
"&  c #292B37",
"*  c #212738",
"=  c #262A38",
"-  c #2B2D39",
";  c #2E313B",
":  c #32313B",
">  c #39363E",
",  c #3B393E",
"<  c #232B44",
"1  c #28324D",
"2  c #363940",
"3  c #3D3A41",
"4  c #2E3957",
"5  c #2F3A58",
"6  c #2C3653",
"7  c #333F5F",
"8  c #423D42",
"9  c #2E425D",
"0  c #364264",
"q  c #384467",
"w  c #3A466A",
"e  c #324865",
"r  c #3E4D72",
"t  c #385875",
"y  c #3F5D7D",
"u  c #3C5576",
"i  c #444145",
"p  c #4B4646",
"a  c #4F4946",
"s  c #4D4E4D",
"d  c #454749",
"f  c #534B4A",
"g  c #594D4E",
"h  c #5C544D",
"j  c #474A54",
"k  c #545452",
"l  c #595955",
"z  c #655C51",
"x  c #6D5F55",
"c  c #6F5E58",
"v  c #705E58",
"b  c #64635B",
"n  c #6B6458",
"m  c #7B675D",
"M  c #776958",
"N  c #7C6D5C",
"B  c #706456",
"V  c #414F76",
"C  c #415077",
"Z  c #415078",
"A  c #6C6B66",
"S  c #736F61",
"D  c #797566",
"F  c #7C7868",
"G  c #777566",
"H  c #806F5E",
"J  c #83735E",
"K  c #867660",
"L  c #8D7366",
"P  c #8C7B63",
"I  c #917F65",
"U  c #957A6A",
"Y  c #997C6C",
"T  c #87816D",
"R  c #968366",
"E  c #9D826C",
"W  c #9E8A6B",
"Q  c #8E8973",
"!  c #8B8671",
"~  c #928C75",
"^  c #9C967B",
"/  c #A28C6D",
"(  c #A2866F",
")  c #A7906E",
"_  c #A48770",
"`  c #A78A71",
"'  c #AA8D72",
"]  c #AE9174",
"[  c #A29B7E",
"{  c #B39575",
"}  c #B49976",
"|  c #B89B77",
" . c #BB9C79",
".. c #B19D79",
"X. c #BCA177",
"o. c #BEA27A",
"O. c #C3A47C",
"+. c #C7A87D",
"@. c #CAAB7E",
"#. c #3F5F80",
"$. c #3F6483",
"%. c #387185",
"&. c #3E768E",
"*. c #3E7C92",
"=. c #406282",
"-. c #3E8296",
";. c #3D8798",
":. c #3E8899",
">. c #A59E80",
",. c #ABA384",
"<. c #B0A786",
"1. c #B4AC89",
"2. c #BBB296",
"3. c #A6A9B0",
"4. c #ABAEB6",
"5. c #CEAF80",
"6. c #C1B28B",
"7. c #CCB689",
"8. c #D4B482",
"9. c #D8B784",
"0. c #D7B986",
"q. c #D9B986",
"w. c #DABD8A",
"e. c #C4BA92",
"r. c #C9BD93",
"t. c #D7C08F",
"y. c #DCC18E",
"u. c #CEC498",
"i. c #DEC591",
"p. c #D9CC9E",
"a. c #D1C69A",
"s. c #E0CA96",
"d. c #E4CE99",
"f. c #E2C792",
"g. c #E6D29D",
"h. c #E9D39C",
"j. c #D4C6A2",
"k. c #DBCFA0",
"l. c #DCD0A0",
"z. c #E8D6A1",
"x. c #EBDAA4",
"c. c #EDDEA9",
"v. c #E4D7A5",
"b. c #F0DFA8",
"n. c #EFE1AB",
"m. c #F3E4AC",
"M. c #F6E8AF",
"N. c #EFE2B4",
"B. c #F1E4B3",
"V. c #F7E8B0",
"C. c #F8E9B0",
"Z. c #F1E5B9",
"A. c #D8D9DD",
"S. c #F3E9C2",
"D. c #F5ECCB",
"F. c #F9F0CF",
"G. c #F6EED1",
"H. c #F7F0D5",
"J. c #F7F1D9",
"K. c #F8F3DD",
"L. c #FAF5E4",
"P. c #FBF7EA",
"I. c #FBF9EE",
"U. c #FDFBF3",
"Y. c #FEFEFD",
"T. c #F2F3F4",
"R. c None",
/* pixels */
"R.R.R.R.R.R.R.R.R.R.R.R.R.R.R.R.R.R.R.R.R.R.R.R.R.R.R.R.R.R.R.R.R.R.R.R.R.R.R.R.R.R.R.R.R.R.R.R.R.R.",
"R.R.R.R.R.R.R.R.R.R.R.R.R.R.R.R.R.R.R.o o             . o o o R.R.R.R.R.R.R.R.R.R.R.R.R.R.R.R.R.R.R.",
"R.R.R.R.R.R.R.R.R.R.R.R.R.R.R.R.R.o o   d F D D D D D D a   o o o R.R.R.R.R.R.R.R.R.R.R.R.R.R.R.R.R.",
"R.R.R.R.R.R.R.R.R.R.R.R.R.R.R.R.o o ; ~ r.M.M.m.M.M.M.m.j.3.j X o o o R.R.R.R.R.R.R.R.R.R.R.R.R.R.R.",
"R.R.R.R.R.R.R.R.R.R.R.R.R.R.R.o @ = 1.m.m.n.n.n.n.n.n.n.B.L.A.2.P @ o o o R.R.R.R.R.R.R.R.R.R.R.R.R.",
"R.R.R.R.R.R.R.R.R.R.R.R.R.R.o @ ~ p.n.n.n.n.n.n.n.n.n.n.n.n.P.U.N.~ = + o o R.R.R.R.R.R.R.R.R.R.R.R.",
"R.R.R.R.R.R.R.R.R.R.R.R.R.o   A V.n.n.n.n.n.n.n.n.n.n.n.n.c.L.Y.I.N.t.i o o R.R.R.R.R.R.R.R.R.R.R.R.",
"R.R.R.R.R.R.R.R.R.R.R.R.O X = 4.F.n.n.n.n.n.n.n.n.n.n.c.B.D.I.Y.Y.K.y.M o o o R.R.R.R.R.R.R.R.R.R.R.",
"R.R.R.R.R.R.R.R.R.R.R.R.X % 3.Y.D.n.D.n.n.n.n.D.n.n.D.D.D.Y.Y.K.Y.L.g.0.M + O R.R.R.R.R.R.R.R.R.R.R.",
"R.R.R.R.R.R.R.R.R.R.R.o n j T.Y.D.N.P.n.n.n.K.P.n.n.P.U.B.L.Y.S.U.K.m.y.X.+ o R.R.R.R.R.R.R.R.R.R.R.",
"R.R.R.R.R.R.R.R.R.R.R.o W a.L.Z.N.n.U.J.n.n.U.Y.D.n.P.I.n.D.U.S.U.K.n.y.| & o o R.R.R.R.R.R.R.R.R.R.",
"R.R.R.R.R.R.R.R.R.R.o X W m.n.n.n.n.I.L.n.n.P.U.H.n.J.Z.n.N.B.B.K.n.n.y.@.R o o R.R.R.R.R.R.R.R.R.R.",
"R.R.R.R.R.R.R.R.R.R.o X ,.B.n.n.n.n.Z.G.n.n.n.n.n.n.n.n.n.n.z.c.n.n.n.y.9.R % % o R.R.R.R.R.R.R.R.R.",
"R.R.R.R.R.R.R.R.R.o o 3 r.n.n.n.n.n.n.n.n.n.n.n.n.n.m.n.n.n.i.z.n.n.n.y.9.Y f i o R.R.R.R.R.R.R.R.R.",
"R.R.R.R.R.R.R.R.R.o o N x.n.n.n.g.x.n.n.n.n.n.n.n.n.n.n.n.n.i.z.n.n.n.y.9.{ m 8 o o R.R.R.R.R.R.R.R.",
"R.R.R.R.R.R.R.R.R.o o P m.n.n.n.i.g.n.n.n.n.i.c.n.n.n.n.n.m.i.z.n.g.g.y.8.O.Y 8 o o R.R.R.R.R.R.R.R.",
"R.R.R.R.R.R.R.R.o X k v.n.n.n.n.i.z.n.n.n.c.y.n.n.n.n.n.n.n.x.n.n.d.9.9.9.O.Y 3 o o o R.R.R.R.R.R.R.",
"R.R.R.R.R.R.R.R.o O D c.n.n.n.n.d.z.n.n.n.n.y.x.n.n.n.n.n.n.z.n.m.h.@.9.@.O.Y f o o O R.R.R.R.R.R.R.",
"R.R.R.R.R.R.R.R.X , 5.d.n.z.c.n.z.c.n.n.n.n.y.n.n.n.n.n.m.n.y.x.m.f.9.@.9.{ Y U & o o R.R.R.R.R.R.R.",
"R.R.R.R.R.R.R.o o > 8.w.x.i.c.n.i.z.n.n.n.g.9.g.n.n.n.n.n.n.y.f.f.@.+.@.| Y U ' M O o O R.o O o R.R.",
"R.R.R.R.R.R.o o O x | 8.w.w.n.z.q.y.c.n.g.8.@.y.n.n.n.m.z.g.y.8.@.q.| X.( I ) @.9.N o o o o o o R.R.",
"R.o o o o * % $ P ( ' | O.8.w.0.8.8.w.y.0.8.8.y.n.n.i.f.w.0.9.8.9.@.{ ( Y R X.9.q.g.e.e.e.r.~ o R.R.",
"R.o = 2 s a.k.7.8.+.( U | 8.8.8.8.8.O.8.8.5.8.8.@.y.q.@.@.0.8.8.@.| Y _ ( ' @.9.w.n.m.m.m.B.^ o R.R.",
"R.  ! m.x.m.b.w.9.9.O.` ' 5.8.O.O.W i O.' O.9.9.@.@.@.@.@.0.9.@.] ' ' @.@.@.9.q.h.z.n.n.n.>.@ o R.R.",
"R.X l l.M.h.f.9.R P 8.8.8.8.O.U Y : $ v U ] | | @.q.) +./ @.@.@.y.@.q.q.q.q...N P 0.d.h.s.; o o R.R.",
"R.R.X k S z z z % K q.d.w.8.5.X.M @ X , Y U } X.@.@.@.@.Y { f.@.@.@.q.@.@.f.2., X M 9.R h $ o R.R.R.",
"R.R.o o   o o o K q.x.n.x.0.9.E % X o @ H +.@.q.q.@.q.@.X.+.@.q.@.i.h.N @.y.m.u.2 $ a &   o R.R.R.R.",
"R.R.R.o o , } o.z.c.m.n.m.x./ $ o o o   B q.q.9.q.q.q.q.@.@.@.b.n.n.B.l p O.y.M.p.u.D X R.R.R.R.R.R.",
"R.R.R.O o X b r.e.e.e.e.e.<.= o o @ # o + Q n.m.n.n.n.y.@.@.@.y.t.m.M.v.k @ z 6.r.[ $ R.R.R.R.R.R.R.",
"R.R.R.R.o o o + + o o o o o + < < w w * o + Q [ e.M.n.n.b.f.f.J 9 [ ..[ Q @ o O o o o R.R.R.R.R.R.R.",
"R.R.R.R.R.R.o o o + o o o o 5 Z Z =.=.w = o X . 9 R p.M.m.M...F @ X X X X o o o o o R.R.R.R.R.R.R.R.",
"R.R.R.R.R.o o o o o o o 1 0 r #.&.:.:.=.t @ o O X . s b b b ;   o o o o o o + o o o R.R.R.R.R.R.R.R.",
"R.R.R.R.o o 8 H ` I @ o # r &.*.;.;.;.;.-.%.e @ o o         o + 0 6 o o - M m 8 o o R.R.R.R.R.R.R.R.",
"R.R.R.R.o : L  .9.9.I @ o 0 y -.;.;.;.;.;.;.*.u 9 # @ # # @ # 0 r 6 o - } O.Y L > o o R.R.R.R.R.R.R.",
"R.R.R.R.X > U O.8.8.q.B X @ 0 =.*.&.&.*.&.&.&.&.&.y r r r r r V q O o W 9.8.} U L @ o R.R.R.R.R.R.R.",
"R.R.R.R.o > Y ' 8.q.O.p X o # 4 w V V r V V C C V Z Z r C q 4 4 1 o O / q.8.| U L @ o R.R.R.R.R.R.R.",
"R.R.R.R.R.% c Y ] ' p o o o o o * 1 1 1 1 1 1 1 1 1 1 1 1 # o o o o o h @.@.( U g O o R.R.R.R.R.R.R.",
"R.R.R.R.R.o % > > ; o o o o o o o o o o X o o o X o o o o o O o o o o o g E U g O o R.R.R.R.R.R.R.R.",
"R.R.R.R.R.R.o o o X o R.R.R.O o o O o o o R.R.R.o O o + o o o o O R.o o o & & @ o R.R.R.R.R.R.R.R.R.",
"R.R.R.R.R.R.R.R.R.R.R.R.R.R.R.o o O o O R.R.R.R.o o o o o o o O o o R.R.o o o o R.R.R.R.R.R.R.R.R.R.",
"R.R.R.R.R.R.R.R.R.R.R.R.R.R.R.o o o O + o R.R.R.R.o O o o o + o o o R.R.R.R.R.R.R.R.R.R.R.R.R.R.R.R.",
"R.R.R.R.R.R.R.R.R.R.R.R.R.R.R.R.R.o o o o o R.R.R.R.R.R.R.R.R.o o O R.R.R.R.R.R.R.R.R.R.R.R.R.R.R.R.",
"R.R.R.R.R.R.R.R.R.R.R.R.R.R.R.R.R.+ o o o R.R.R.R.R.R.R.R.R.R.o O R.R.R.R.R.R.R.R.R.R.R.R.R.R.R.R.R.",
"R.R.R.R.R.R.R.R.R.R.R.R.R.R.R.R.R.R.R.R.R.R.R.R.R.R.R.R.R.R.R.R.R.R.R.R.R.R.R.R.R.R.R.R.R.R.R.R.R.R.",
"R.R.R.R.R.R.R.R.R.R.R.R.R.R.R.R.R.R.R.R.R.R.R.R.R.R.R.R.R.R.R.R.R.R.R.R.R.R.R.R.R.R.R.R.R.R.R.R.R.R.",
"R.R.R.R.R.R.R.R.R.R.R.R.R.R.R.R.R.R.R.R.R.R.R.R.R.R.R.R.R.R.R.R.R.R.R.R.R.R.R.R.R.R.R.R.R.R.R.R.R.R.",
"R.R.R.R.R.R.R.R.R.R.R.R.R.R.R.R.R.R.R.R.R.R.R.R.R.R.R.R.R.R.R.R.R.R.R.R.R.R.R.R.R.R.R.R.R.R.R.R.R.R.",
"R.R.R.R.R.R.R.R.R.R.R.R.R.R.R.R.R.R.R.R.R.R.R.R.R.R.R.R.R.R.R.R.R.R.R.R.R.R.R.R.R.R.R.R.R.R.R.R.R.R.",
"R.R.R.R.R.R.R.R.R.R.R.R.R.R.R.R.R.R.R.R.R.R.R.R.R.R.R.R.R.R.R.R.R.R.R.R.R.R.R.R.R.R.R.R.R.R.R.R.R.R.",
"R.R.R.R.R.R.R.R.R.R.R.R.R.R.R.R.R.R.R.R.R.R.R.R.R.R.R.R.R.R.R.R.R.R.R.R.R.R.R.R.R.R.R.R.R.R.R.R.R.R."
};
