/* XPM */
static char *result[] = {
/* columns rows colors chars-per-pixel */
"50 50 157 2 ",
"   c #0F162A",
".  c #10172B",
"X  c #151B2D",
"o  c #181E2F",
"O  c #171D30",
"+  c #191F30",
"@  c #1C2133",
"#  c #1D253A",
"$  c #212533",
"%  c #262935",
"&  c #292A37",
"*  c #272C38",
"=  c #2B2E39",
"-  c #2D303A",
";  c #32333C",
":  c #3E3B3F",
">  c #242D46",
",  c #252E48",
"<  c #29334E",
"1  c #373A41",
"2  c #3C3D43",
"3  c #2B3552",
"4  c #2E3856",
"5  c #323E5E",
"6  c #333F60",
"7  c #413C42",
"8  c #3F4145",
"9  c #364365",
"0  c #384467",
"q  c #384568",
"w  c #3D496F",
"e  c #2F5067",
"r  c #404246",
"t  c #4A4546",
"y  c #4D4846",
"u  c #424448",
"i  c #4F4649",
"p  c #46484A",
"a  c #4B4C4D",
"s  c #554E4A",
"d  c #57504B",
"f  c #59524C",
"g  c #5D5350",
"h  c #5C5B56",
"j  c #5F5E58",
"k  c #655B51",
"l  c #6A5C55",
"z  c #6E5D58",
"x  c #62615A",
"c  c #686359",
"v  c #7B675E",
"b  c #776959",
"n  c #7C6C5E",
"m  c #73605A",
"M  c #404F76",
"N  c #415077",
"B  c #415178",
"V  c #40597C",
"C  c #777365",
"Z  c #82725E",
"A  c #846D62",
"S  c #8D7466",
"D  c #867A65",
"F  c #8A7962",
"G  c #837F6D",
"H  c #827561",
"J  c #917668",
"K  c #967A6B",
"L  c #9A7E6C",
"P  c #85806E",
"I  c #9B836B",
"U  c #9C8C6F",
"Y  c #8B8672",
"T  c #918C75",
"R  c #A1846F",
"E  c #A48D6E",
"W  c #A8906F",
"Q  c #A48770",
"!  c #A68970",
"~  c #AB8D73",
"^  c #AC9372",
"/  c #AF9975",
"(  c #AE9B78",
")  c #B39576",
"_  c #B69976",
"`  c #BA9F77",
"'  c #BB9C79",
"]  c #BFA27A",
"[  c #C3A47C",
"{  c #C7AB7E",
"}  c #CAAB7F",
"|  c #3F6D89",
" . c #3F6483",
".. c #3F738C",
"X. c #3E7C92",
"o. c #406987",
"O. c #41718D",
"+. c #407D94",
"@. c #3E8597",
"#. c #3E8698",
"$. c #3E8899",
"%. c #93969F",
"&. c #A9A283",
"*. c #BFAE87",
"=. c #B7AE8B",
"-. c #BCB38E",
";. c #999CA4",
":. c #BEBBB5",
">. c #CCAE80",
",. c #C9B488",
"<. c #D5B583",
"1. c #D8B784",
"2. c #D7B886",
"3. c #D9B985",
"4. c #D9BC8A",
"5. c #D1BC8E",
"6. c #C1B791",
"7. c #C4BA92",
"8. c #C9BE95",
"9. c #DCC18E",
"0. c #D0C396",
"q. c #DEC490",
"w. c #D1C69A",
"e. c #D6CA9D",
"r. c #E1CA96",
"t. c #E4CE9A",
"y. c #E8CF98",
"u. c #E6D29D",
"i. c #EBD39C",
"p. c #DDD1A1",
"a. c #E1D4A3",
"s. c #E9D7A2",
"d. c #EBDAA4",
"f. c #EDDEA9",
"g. c #E5D8A5",
"h. c #F0DFA8",
"j. c #EFE1AB",
"k. c #F2E3AD",
"l. c #EDE3BA",
"z. c #F1E5B5",
"x. c #FBECB2",
"c. c #F2E6BA",
"v. c #F3E8BF",
"b. c #D0CEC4",
"n. c #D7D8DC",
"m. c #F3E9C2",
"M. c #F5ECCA",
"N. c #F8EDC2",
"B. c #F6EED1",
"V. c #F7F0D6",
"C. c #F9F3DC",
"Z. c #F6F1DC",
"A. c #FAF5E3",
"S. c #FBF8EC",
"D. c #FCFBF6",
"F. c #FFFFFE",
"G. c None",
/* pixels */
"G.G.G.G.G.G.G.G.G.G.G.G.G.G.G.G.G.G.G.G.G.G.G.G.G.G.G.G.G.G.G.G.G.G.G.G.G.G.G.G.G.G.G.G.G.G.G.G.G.G.",
"G.G.G.G.G.G.G.G.G.G.G.G.G.G.G.G.G.G.o X X .               X G.G.G.G.G.G.G.G.G.G.G.G.G.G.G.G.G.G.G.G.",
"G.G.G.G.G.G.G.G.G.G.G.G.G.G.G.G.X X X . % n G P P G G G G * . X X G.G.G.G.G.G.G.G.G.G.G.G.G.G.G.G.G.",
"G.G.G.G.G.G.G.G.G.G.G.G.G.G.X X X o + ;.:.h.k.k.k.x.k.x.k.=.Y @ X X G.G.G.G.G.G.G.G.G.G.G.G.G.G.G.G.",
"G.G.G.G.G.G.G.G.G.G.G.G.G.X X X d *.b.D.N.j.j.j.j.j.j.j.j.k.k.T % O X G.G.G.G.G.G.G.G.G.G.G.G.G.G.G.",
"G.G.G.G.G.G.G.G.G.G.G.G.X X ; j a.C.F.m.j.j.j.j.j.j.j.j.j.j.k.f.p.C @ X G.G.G.G.G.G.G.G.G.G.G.G.G.G.",
"G.G.G.G.G.G.G.G.G.G.G.X X X / f.C.F.F.c.j.j.j.j.j.j.j.j.j.j.j.j.j.l.2 X X G.G.G.G.G.G.G.G.G.G.G.G.G.",
"G.G.G.G.G.G.G.G.G.G.X X X s { c.F.F.F.C.M.j.j.j.j.j.j.j.j.j.j.j.j.A.;.@ X G.G.G.G.G.G.G.G.G.G.G.G.G.",
"G.G.G.G.G.G.G.G.G.G.X X s { u.c.F.C.S.F.S.c.A.c.j.z.B.j.j.j.z.B.j.A.F.;.o o G.G.G.G.G.G.G.G.G.G.G.G.",
"G.G.G.G.G.G.G.G.G.G.X   b 3.s.c.F.V.C.F.c.M.F.M.f.m.F.M.j.j.m.A.j.C.F.n.g k X G.G.G.G.G.G.G.G.G.G.G.",
"G.G.G.G.G.G.G.G.G.X X @ F 1.s.c.F.B.V.S.z.v.F.M.k.D.F.V.f.z.D.A.j.j.c.Z.u.b . G.G.G.G.G.G.G.G.G.G.G.",
"G.G.G.G.G.G.G.G.G.X . s 2.2.d.j.c.M.j.j.j.k.M.c.k.C.A.M.f.z.D.B.j.j.j.j.d.n . o G.G.G.G.G.G.G.G.G.G.",
"G.G.G.G.G.G.G.G.X @ 7 f 3.2.d.j.j.j.u.f.j.j.j.j.j.f.f.j.k.k.M.f.j.j.j.j.x.C . X G.G.G.G.G.G.G.G.G.G.",
"G.G.G.G.G.G.G.G.X % m f 1.2.s.k.j.j.q.s.j.j.j.j.k.j.k.k.j.j.j.j.j.j.j.j.z.,.: X X G.G.G.G.G.G.G.G.G.",
"G.G.G.G.G.G.G.X X $ A I 2.2.s.f.j.j.q.s.k.j.j.j.j.j.f.f.j.j.j.k.u.u.k.j.k.i.d . X G.G.G.G.G.G.G.G.G.",
"G.G.G.G.G.G.G.X X $ S ~ <.<.t.q.j.j.r.d.j.f.k.j.f.k.u.r.k.j.j.j.r.u.j.j.j.j.C @ X G.G.G.G.G.G.G.G.G.",
"G.G.G.G.G.G.G.O + @ S ~ <.<.<.4.j.j.j.j.j.j.j.j.j.k.u.q.j.j.j.j.r.u.j.j.j.j.f.1 X X G.G.G.G.G.G.G.G.",
"G.G.G.G.G.G.X X o i J ~ 1.<.<.4.j.j.u.f.j.j.j.j.j.j.u.r.k.j.j.j.s.s.j.j.j.j.u.F @ X G.G.G.G.G.G.G.G.",
"G.G.G.G.G.G.X X + A K I [ <.<.2.t.j.q.s.k.j.f.k.j.k.u.r.k.j.j.k.u.s.k.f.t.j.9.{ * X X G.G.G.G.G.G.G.",
"G.X X . X X X O Z [ R K L [ ) >.2.4.2.d.f.f.k.k.j.d.2.2.s.j.j.j.r.r.k.s.q.u.3.[ = X X G.G.G.G.G.G.G.",
"G.X = r 8 8 2 D 1.1.[ K K _ ! <.<.<.<.u.9.s.d.f.k.d.<.<.2.u.d.t.1.3.u.u.2.<.<.Q v = . . G.G.G.G.G.G.",
"G.  P k.f.f.f.j.q.<.>.! K K L [ 2.2.<.<.<.<.<.r.u.t.<.<.<.2.2.2.<.<.<.<.<._ ^ R ) W g x h X . X O G.",
"G.X a w.k.f.j.k.u.2.1.>.) _ L I ) [ 2.<.<.1.1.<.<.<.<.<.] <.[ I 1.<.<.<.} Q J ) <.<.y.k.f.Y P a X G.",
"G.X X p e.k.j.t.q.<.<.1.2.2.[ ] ' } <.<.} ' [ [ <.<.<.<.~ ! F % A ) ~ <.>.] [ <.<.<.3.s.j.k.x.P   G.",
"G.G.X X ^ <.9.<.k ; c r.<.1.<.1.<.<.<.<.R ~ ' ' <.~ ! R L S ; . i I R <.<.<.3.} y k { { ,.a.&.= G.G.",
"G.G.G.X @ r ) k . r e.i.1.] <.4.<.<.<.>.I ) <.<.<.>.<._ R A @ X o n } 1.<.t.j.9.W ; $ $ % = @ X G.G.",
"G.G.G.G.X X ; c x w.k.u.] : 6.j.q.q.3.<._ 2.<.<.<.<.<.<.<.: X X X @ A 2.t.k.j.j.r._ s d % X X X G.G.",
"G.G.G.G.G.. 8 -.x.k.5.b : h p.j.k.k.q.<.<.<.9.r.r.r.r.u.I % X X X X o D k.k.k.k.k.j.i.U % X X G.G.G.",
"G.G.G.G.G.G.X 1 l j p   h p.j.j.-.j / 2.4.u.d.k.j.j.k.&.% X # 5 > O X $ j j j k x x x = X X G.G.G.G.",
"G.G.G.G.G.G.G.. . . . X - 8 8 8 = j 0.s.f.k.k.g.w.a 8 * X @ q w w 0 6 # . . . . . .   X G.G.G.G.G.G.",
"G.G.G.G.G.G.G.G.G.X X X   X X X X @ = &.8.7.8.j # X X . @ 0 B w  .N B q # @ X o X . . X X G.G.G.G.G.",
"G.G.G.G.G.G.G.G.X O + 7 2 @ X X @ # X O + + + X X X @ > 9 B B ..$...w w w 4 X X @ d t : @ X G.G.G.G.",
"G.G.G.G.G.G.G.X X @ f L ~ F % X , q # . X X X X X < 5 N M M | @.$.$... .w 4 X @ n 3.} R f + X G.G.G.",
"G.G.G.G.G.G.G.X o g K Q >.1.I $ O 6 q 6 5 5 5 5 6 M N M B | @.@.@.@.@.@.| 4 X Z 1.1.<.^ J $ X G.G.G.",
"G.G.G.G.G.G.G.o o A K ~ 1.1.} % O 3 | X.B B o.@.X.X.X.X.X.@.@.@.$.@.$.X.w 3 X ^ 1.3.1.~ S $ O G.G.G.",
"G.G.G.G.G.G.G.X X z K ~ } 3.W @ O e X.X.V ..X.X.X.X.X.X.X.X.X.+.X.X.X.B 4 @ X = W } ) I v @ X G.G.G.",
"G.G.G.G.G.G.G.G.o + z K ) E ; X * 6 5 5 M N N B B B M B N N M N B N 9 3 X X o X % z z l & X G.G.G.G.",
"G.G.G.G.G.G.G.G.G.X $ s f & X X X X O O < 3 3 3 3 3 3 3 3 3 3 3 3 3 @ X X X X X X X . X X G.G.G.G.G.",
"G.G.G.G.G.G.G.G.G.G.G.X . X X X o X o X X X X X X X X X X X X X X X X o o X G.G.G.G.G.G.G.G.G.G.G.G.",
"G.G.G.G.G.G.G.G.G.G.G.G.G.G.G.o X X X X X G.G.G.G.G.G.G.G.G.X X X X X X G.G.G.G.G.G.G.G.G.G.G.G.G.G.",
"G.G.G.G.G.G.G.G.G.G.G.G.G.G.G.G.+ X X + X G.G.G.G.G.G.G.G.G.G.X X X X G.G.G.G.G.G.G.G.G.G.G.G.G.G.G.",
"G.G.G.G.G.G.G.G.G.G.G.G.G.G.G.G.G.X X X X G.G.G.G.G.G.G.G.G.G.X X o G.G.G.G.G.G.G.G.G.G.G.G.G.G.G.G.",
"G.G.G.G.G.G.G.G.G.G.G.G.G.G.G.G.G.X X X G.G.G.G.G.G.G.G.G.G.G.X + X G.G.G.G.G.G.G.G.G.G.G.G.G.G.G.G.",
"G.G.G.G.G.G.G.G.G.G.G.G.G.G.G.G.G.o X o G.G.G.G.G.G.G.G.G.G.G.o X X G.G.G.G.G.G.G.G.G.G.G.G.G.G.G.G.",
"G.G.G.G.G.G.G.G.G.G.G.G.G.G.G.G.G.G.G.G.G.G.G.G.G.G.G.G.G.G.G.G.G.G.G.G.G.G.G.G.G.G.G.G.G.G.G.G.G.G.",
"G.G.G.G.G.G.G.G.G.G.G.G.G.G.G.G.G.G.G.G.G.G.G.G.G.G.G.G.G.G.G.G.G.G.G.G.G.G.G.G.G.G.G.G.G.G.G.G.G.G.",
"G.G.G.G.G.G.G.G.G.G.G.G.G.G.G.G.G.G.G.G.G.G.G.G.G.G.G.G.G.G.G.G.G.G.G.G.G.G.G.G.G.G.G.G.G.G.G.G.G.G.",
"G.G.G.G.G.G.G.G.G.G.G.G.G.G.G.G.G.G.G.G.G.G.G.G.G.G.G.G.G.G.G.G.G.G.G.G.G.G.G.G.G.G.G.G.G.G.G.G.G.G.",
"G.G.G.G.G.G.G.G.G.G.G.G.G.G.G.G.G.G.G.G.G.G.G.G.G.G.G.G.G.G.G.G.G.G.G.G.G.G.G.G.G.G.G.G.G.G.G.G.G.G.",
"G.G.G.G.G.G.G.G.G.G.G.G.G.G.G.G.G.G.G.G.G.G.G.G.G.G.G.G.G.G.G.G.G.G.G.G.G.G.G.G.G.G.G.G.G.G.G.G.G.G."
};
