/* XPM */
static char *result[] = {
/* columns rows colors chars-per-pixel */
"50 50 162 2 ",
"   c #0E152A",
".  c #10172B",
"X  c #151B2D",
"o  c #181E2F",
"O  c #171D30",
"+  c #191F31",
"@  c #1B2233",
"#  c #1E253B",
"$  c #1E283D",
"%  c #222533",
"&  c #242936",
"*  c #2A2B37",
"=  c #262B3A",
"-  c #2C2D39",
";  c #2F313B",
":  c #33333C",
">  c #38353E",
",  c #3C3A3E",
"<  c #1E3143",
"1  c #242D46",
"2  c #28324E",
"3  c #373A41",
"4  c #3C3A41",
"5  c #343949",
"6  c #2B3552",
"7  c #2E3856",
"8  c #2E3D59",
"9  c #323D5D",
"0  c #423D43",
"q  c #354263",
"w  c #3A476B",
"e  c #3C496E",
"r  c #3E4C72",
"t  c #3D5979",
"y  c #4A4546",
"u  c #4D4847",
"i  c #454649",
"p  c #4F4649",
"a  c #47484A",
"s  c #4A4B4B",
"d  c #554E4A",
"f  c #56514D",
"g  c #5A524C",
"h  c #5B5B56",
"j  c #5E5E58",
"k  c #5B5752",
"l  c #62584F",
"z  c #645D54",
"x  c #6B5D55",
"c  c #6F5E58",
"v  c #665754",
"b  c #6B685E",
"n  c #76635B",
"m  c #776A5A",
"M  c #7E6A5E",
"N  c #75655A",
"B  c #414E76",
"V  c #405479",
"C  c #405B7E",
"Z  c #606266",
"A  c #6C6861",
"S  c #797667",
"D  c #81725D",
"F  c #826D60",
"G  c #8D7566",
"H  c #8D7B63",
"J  c #847E6B",
"K  c #917B66",
"L  c #907668",
"P  c #967A6B",
"I  c #997D6C",
"U  c #87826F",
"Y  c #8D836C",
"T  c #958266",
"R  c #9C836B",
"E  c #988A6E",
"W  c #8F8A74",
"Q  c #918C75",
"!  c #9B9277",
"~  c #A1856F",
"^  c #A48770",
"/  c #A68971",
"(  c #AB8E73",
")  c #AD9273",
"_  c #AF9C79",
"`  c #B29476",
"'  c #B59B75",
"]  c #B89E76",
"[  c #BB9D79",
"{  c #B09C79",
"}  c #C3A47C",
"|  c #C6A97D",
" . c #C9AB7E",
".. c #3F6382",
"X. c #3F6B87",
"o. c #3F738C",
"O. c #3C7D91",
"+. c #406282",
"@. c #406886",
"#. c #416988",
"$. c #3E8296",
"%. c #3E8799",
"&. c #3E8899",
"*. c #A69F81",
"=. c #AAA283",
"-. c #B4A581",
";. c #BCA881",
":. c #BAB08C",
">. c #9A9CA5",
",. c #CDAE80",
"<. c #C3AC81",
"1. c #CFB081",
"2. c #CEBB8E",
"3. c #D5B583",
"4. c #D8B784",
"5. c #D7B886",
"6. c #D9B985",
"7. c #D2BD8F",
"8. c #DBBE8B",
"9. c #C1B790",
"0. c #C3B992",
"q. c #D4BF90",
"w. c #DCC18E",
"e. c #DEC491",
"r. c #D1C69A",
"t. c #D5C99C",
"y. c #DDCD9C",
"u. c #E1C692",
"i. c #E1C995",
"p. c #E3CD99",
"a. c #E6D29D",
"s. c #E9D59F",
"d. c #DBCFA0",
"f. c #DED2A1",
"g. c #E2D5A4",
"h. c #E9D6A1",
"j. c #E5D8A6",
"k. c #EBDAA5",
"l. c #EDDEA9",
"z. c #F0DEA7",
"x. c #EEE0A7",
"c. c #EFE1AB",
"v. c #F2E3AC",
"b. c #F0E4B2",
"n. c #FAEBB2",
"m. c #F2E7BA",
"M. c #F3E8BE",
"N. c #CCCED3",
"B. c #D8D7D3",
"V. c #F4EAC5",
"C. c #FAEFC5",
"Z. c #F5EDCC",
"A. c #E7E3D1",
"S. c #F6EFD1",
"D. c #F7F0D6",
"F. c #F9F3DC",
"G. c #FAF5E4",
"H. c #FCF9ED",
"J. c #F0F1F0",
"K. c #FCFAF2",
"L. c #FFFFFE",
"P. c None",
/* pixels */
"P.P.P.P.P.P.P.P.P.P.P.P.P.P.P.P.P.P.P.P.P.P.P.P.P.P.P.P.P.P.P.P.P.P.P.P.P.P.P.P.P.P.P.P.P.P.P.P.P.P.",
"P.P.P.P.P.P.P.P.P.P.P.P.P.P.P.P.P.P.P.P.P.P.P.P.P.P.P.P.P.P.P.P.P.P.P.P.P.P.P.P.P.P.P.P.P.P.P.P.P.P.",
"P.P.P.P.P.P.P.P.P.P.P.P.P.P.P.P.P.X O X . . . X X . X X X X P.P.P.P.P.P.P.P.P.P.P.P.P.P.P.P.P.P.P.P.",
"P.P.P.P.P.P.P.P.P.P.P.P.P.P.X X X o O & Y *.*.=.*.*.*.*.s X X o P.P.P.P.P.P.P.P.P.P.P.P.P.P.P.P.P.P.",
"P.P.P.P.P.P.P.P.P.P.P.P.P.X O X & & >.B.l.v.v.v.n.v.n.b.t.:.: X X P.P.P.P.P.P.P.P.P.P.P.P.P.P.P.P.P.",
"P.P.P.P.P.P.P.P.P.P.P.P.X . X d 7.A.K.M.c.v.c.c.x.c.c.c.v.v.:.i = X P.P.P.P.P.P.P.P.P.P.P.P.P.P.P.P.",
"P.P.P.P.P.P.P.P.P.P.P.X X 0 b g.D.L.Z.c.c.v.c.c.c.c.c.c.c.c.v.v._ = X P.P.P.P.P.P.P.P.P.P.P.P.P.P.P.",
"P.P.P.P.P.P.P.P.P.P.X X X T v.D.L.L.V.x.c.c.c.c.c.c.c.c.c.c.c.c.C.Z . X P.P.P.P.P.P.P.P.P.P.P.P.P.P.",
"P.P.P.P.P.P.P.P.P.X X X d | l.L.L.L.H.F.v.c.c.c.c.c.c.c.c.c.c.c.D.N.5 O O P.P.P.P.P.P.P.P.P.P.P.P.P.",
"P.P.P.P.P.P.P.P.P.o X y  .p.b.L.G.F.L.K.M.K.Z.c.b.F.c.c.c.b.F.l.D.L.N.= % P.P.P.P.P.P.P.P.P.P.P.P.P.",
"P.P.P.P.P.P.P.P.P.o   d 6.a.b.L.G.S.L.V.m.L.D.x.M.L.F.c.c.M.H.c.Z.K.J.b G . P.P.P.P.P.P.P.P.P.P.P.P.",
"P.P.P.P.P.P.P.P.X X % M 4.a.b.G.G.V.G.b.b.K.D.c.K.L.G.c.c.H.K.c.l.v.D.l.T . X P.P.P.P.P.P.P.P.P.P.P.",
"P.P.P.P.P.P.P.P.X X 4 3.3.a.c.b.V.l.c.c.c.m.V.c.Z.D.V.c.c.H.S.c.c.c.c.v.! X X P.P.P.P.P.P.P.P.P.P.P.",
"P.P.P.P.P.P.P.X X d 4 3.3.a.v.c.v.a.h.c.c.c.x.c.c.c.c.c.c.V.c.c.c.c.c.v.=.X X X P.P.P.P.P.P.P.P.P.P.",
"P.P.P.P.P.P.P.X O n u 3.3.a.c.c.c.i.a.v.c.c.c.c.c.c.c.c.c.c.c.c.l.v.v.v.y.l X X P.P.P.P.P.P.P.P.P.P.",
"P.P.P.P.P.P.P.X o M R 3.3.a.k.c.v.i.a.c.c.c.c.c.c.l.k.c.c.c.c.a.i.v.c.v.s.m . X P.P.P.P.P.P.P.P.P.P.",
"P.P.P.P.P.P.X o O M ^ 3.3.e.8.l.c.h.h.c.c.c.c.c.c.k.y.v.l.c.v.a.i.c.c.c.v.=.* X P.P.P.P.P.P.P.P.P.P.",
"P.P.P.P.P.P.X X O M ^ 3.4.3.4.l.c.c.c.c.c.c.c.c.c.h.e.c.c.c.c.a.p.c.c.c.l.n.j . X P.P.P.P.P.P.P.P.P.",
"P.P.P.P.P.o o X p L ^ 3.3.3.4.l.v.a.h.c.c.c.c.c.c.h.e.c.c.c.c.h.k.c.c.c.c.a.) - X P.P.P.P.P.P.P.P.P.",
"P.P.P.P.P.X o o n I P ) 3.3.3.e.l.y.a.c.c.c.c.c.c.h.e.c.c.c.v.h.p.v.l.u.c.y.3., X X P.P.P.P.P.P.P.P.",
"P.P.P.P.X X + D 1.( I P [ )  .3.4.3.s.l.c.c.c.c.l.8.3.i.c.v.c.p.u.l.l.w.p.4. .y X X P.P.P.P.P.P.P.P.",
"P.P.P.P.X @ J 8.3.1.I P ) / ,.3.3.3.u.w.a.a.k.c.l.5.3.3.i.a.p.3.3.u.a.6. . .( L y X X P.P.P.P.P.P.P.",
"P.P.P.X O Q b.i.3.3.` P P P ` 3.3.3.3.3.3.3.8.i.u.5.3.3.3.3.4.3.3.3.4.4.} / ^ ' | f . P.P.P.P.P.P.P.",
"o X o O Q v.l.k.8.3.1.} } / P ( [ 3.3.3.3.3.3.3.3.3.3.} |  .m 1.3.3.3.1./ P ' 4.5.| d . P.P.P.P.P.P.",
"X @ & Q c.c.c.v.w.3.5.4.4. .| | ,.3.4.,.) } [ 4.1.1.3.` I G % g ^ ^ 1.3. . . .6.3.u.Y @ o P.P.P.P.P.",
". h j.l.v.c.v.2.| w.a.5.5.4.3.4.3.3.3.^ ~ } [ 3.` / ~ P P > X > K ^ <.3.5.5. .` ] y.l.y.h . P.P.P.P.",
". i r.v.c.v.7.d W x.k.6.] ;.e.3.3.3.3.^ ` 3.3.3.3.3.| ) F % X X f | 5.w.p.a.5.b - ' z.v.g.b a X P.P.",
"P.. s r.v.7.d   _ n.i.] , _ v.a.p.8.3./ 1.3.3.3.3.3.4.) : X X X . f w.v.c.v.a.3.x - _ v.c.n.=.. P.P.",
"P.X . i } d   h y.c.6.H   =.v.c.v.p.3.} 3.3.e.h.h.h.-.: X O O O X X h f.c.c.c.s.3.z : z r.t.s X P.P.",
"P.P.X X ; X X Q n.v.' ; + =.b.l.v.p.3.4.8.h.l.v.g.9.3 . O @ q 7 @ X X , S f.f.f.y.2.f   3 3 X X P.P.",
"P.P.P.P.X X s 0.0.:.:   S n.v.n.v.e.3.h.l.v.d.0.i % X + 9 r r r r 2 X X o = * = * * @ X X X P.P.P.P.",
"P.P.P.P.P.X X @ + + X . j =.*.*.-.4.8.l.n.n.U . O X . 6 B r +.B r r $ X X X o X X o X X P.P.P.P.P.P.",
"P.P.P.P.P.o X X . X o X X . . % T u.x.! U U s X X @ 2 q B X.$...B r $ X o X X X X X X X P.P.P.P.P.P.",
"P.P.P.P.X X X 0 c v @ X X 2 @ % f k j @     . . 8 q r ..#.%.&.$.C r 9 @ X X @ M D N 0 X X P.P.P.P.P.",
"P.P.P.P.o o 0 L ^ } R % X 9 $ X . . X o @ @ @ 8 t t O.$.&.%.&.&.$.t w @ X + D 4.6.[ G > X P.P.P.P.P.",
"P.P.P.P.. * G P [ 3.4.H . O # $ < $ q t t $.$.$.O.%.&.&.%.&.&.&.#.w $ X . N 6.3.4.} R 0 X P.P.P.P.P.",
"P.P.P.P.X ; I P } 4.6.T X X 7 V o.o.C X.#.#.O.#.#.O.#.#.O.#.#.#.w $ X X X d | 6.4.` I 0 X P.P.P.P.P.",
"P.P.P.P.X % x I ( 3. .d X X O 2 6 2 w B C B B B B B B B V C e 6 1 X o X X . d ) ` I n * X P.P.P.P.P.",
"P.P.P.P.P.X @ x P R d X o X X X X X $ 1 1 1 1 1 1 1 1 1 1 1 1 X . o X P.P.X X > 0 0 * X P.P.P.P.P.P.",
"P.P.P.P.P.P.X % ; - X X X X X o X o X X X o X X O X X X X X X X X X P.P.P.P.X X X X X P.P.P.P.P.P.P.",
"P.P.P.P.P.P.P.P.X X X P.P.X O X X X o P.P.P.P.P.P.P.P.o o O X o X P.P.P.P.P.P.P.P.P.P.P.P.P.P.P.P.P.",
"P.P.P.P.P.P.P.P.P.P.P.P.P.P.o X o X X P.P.P.P.P.P.P.P.X X X X X P.P.P.P.P.P.P.P.P.P.P.P.P.P.P.P.P.P.",
"P.P.P.P.P.P.P.P.P.P.P.P.P.P.X X o X P.P.P.P.P.P.P.P.P.P.X X o X P.P.P.P.P.P.P.P.P.P.P.P.P.P.P.P.P.P.",
"P.P.P.P.P.P.P.P.P.P.P.P.P.P.P.O X O P.P.P.P.P.P.P.P.P.P.X o X P.P.P.P.P.P.P.P.P.P.P.P.P.P.P.P.P.P.P.",
"P.P.P.P.P.P.P.P.P.P.P.P.P.P.X o X X P.P.P.P.P.P.P.P.P.P.X X o X P.P.P.P.P.P.P.P.P.P.P.P.P.P.P.P.P.P.",
"P.P.P.P.P.P.P.P.P.P.P.P.P.P.P.P.P.P.P.P.P.P.P.P.P.P.P.P.P.P.P.P.P.P.P.P.P.P.P.P.P.P.P.P.P.P.P.P.P.P.",
"P.P.P.P.P.P.P.P.P.P.P.P.P.P.P.P.P.P.P.P.P.P.P.P.P.P.P.P.P.P.P.P.P.P.P.P.P.P.P.P.P.P.P.P.P.P.P.P.P.P.",
"P.P.P.P.P.P.P.P.P.P.P.P.P.P.P.P.P.P.P.P.P.P.P.P.P.P.P.P.P.P.P.P.P.P.P.P.P.P.P.P.P.P.P.P.P.P.P.P.P.P.",
"P.P.P.P.P.P.P.P.P.P.P.P.P.P.P.P.P.P.P.P.P.P.P.P.P.P.P.P.P.P.P.P.P.P.P.P.P.P.P.P.P.P.P.P.P.P.P.P.P.P.",
"P.P.P.P.P.P.P.P.P.P.P.P.P.P.P.P.P.P.P.P.P.P.P.P.P.P.P.P.P.P.P.P.P.P.P.P.P.P.P.P.P.P.P.P.P.P.P.P.P.P."
};
