/* XPM */
static char *result[] = {
/* columns rows colors chars-per-pixel */
"50 50 162 2 ",
"   c #0F162A",
".  c #11172B",
"X  c #151B2D",
"o  c #191E2F",
"O  c #171D31",
"+  c #1C2132",
"@  c #1D253B",
"#  c #232634",
"$  c #262935",
"%  c #292B36",
"&  c #2C2E39",
"*  c #302F3A",
"=  c #2E303A",
"-  c #32343D",
";  c #232C45",
":  c #252E48",
">  c #29334E",
",  c #3B3D43",
"<  c #363A47",
"1  c #2B3552",
"2  c #2E3857",
"3  c #2F3A59",
"4  c #323D5E",
"5  c #333F60",
"6  c #423D42",
"7  c #234052",
"8  c #364365",
"9  c #39466A",
"0  c #3B496C",
"q  c #2F5C6F",
"w  c #3E4D73",
"e  c #3F5277",
"r  c #3F5679",
"t  c #3F5B7D",
"y  c #4C4546",
"u  c #4D4947",
"i  c #4B4C4C",
"p  c #434447",
"a  c #554A4C",
"s  c #594E4D",
"d  c #5C534D",
"f  c #5E5250",
"g  c #5D5952",
"h  c #61574F",
"j  c #63594F",
"k  c #655A52",
"l  c #6B5C55",
"z  c #6F5D58",
"x  c #6E6356",
"c  c #626058",
"v  c #6B695F",
"b  c #716456",
"n  c #776A59",
"m  c #7A6C5B",
"M  c #79655C",
"N  c #404E75",
"B  c #415077",
"V  c #40557A",
"C  c #5D616D",
"Z  c #6E6C61",
"A  c #716F62",
"S  c #7A7463",
"D  c #83735E",
"F  c #816B60",
"G  c #8F7567",
"H  c #8B7962",
"J  c #837E6C",
"K  c #907567",
"L  c #917668",
"P  c #95796A",
"I  c #9A7D6C",
"U  c #85816E",
"Y  c #938065",
"T  c #9D816C",
"R  c #9D896A",
"E  c #8A8570",
"W  c #8D8872",
"Q  c #8D887C",
"!  c #938C75",
"~  c #A0836E",
"^  c #A38C6C",
"/  c #A5906F",
"(  c #A48770",
")  c #A68971",
"_  c #AA8D72",
"`  c #A39576",
"'  c #AE9373",
"]  c #A59C7E",
"[  c #B39575",
"{  c #B59B75",
"}  c #B99D77",
"|  c #BB9C78",
" . c #BBA077",
".. c #BFA07A",
"X. c #C4A57C",
"o. c #C7A87D",
"O. c #CCAC7F",
"+. c #3F6382",
"@. c #3E6D88",
"#. c #3B6D85",
"$. c #3E738C",
"%. c #3E7C91",
"&. c #3E8496",
"*. c #3E8698",
"=. c #949490",
"-. c #ABA384",
";. c #B0A887",
":. c #B5AC89",
">. c #BCB28D",
",. c #B0B3BA",
"<. c #C0AC83",
"1. c #CEAE80",
"2. c #CEB081",
"3. c #C0B68F",
"4. c #CBB488",
"5. c #D4B482",
"6. c #D8B784",
"7. c #D6B886",
"8. c #D9B986",
"9. c #D7BB89",
"0. c #D9BC89",
"q. c #C6BC94",
"w. c #DDC28F",
"e. c #CDC398",
"r. c #D7C496",
"t. c #DEC692",
"y. c #D3C79A",
"u. c #D6CA9C",
"i. c #DBCB9B",
"p. c #E2CA96",
"a. c #E4CE99",
"s. c #E7D39E",
"d. c #E9D59F",
"f. c #E2D6A5",
"g. c #E9D6A1",
"h. c #E6D9A6",
"j. c #EBDBA5",
"k. c #EEDFA8",
"l. c #F1DEA7",
"z. c #EFE1AB",
"x. c #F3E4AD",
"c. c #F7E8AF",
"v. c #F1E4B2",
"b. c #F2E6BA",
"n. c #F2E8BF",
"m. c #F9EDBF",
"M. c #E3DFD2",
"N. c #F3E9C2",
"B. c #F4ECCB",
"V. c #F6EFD3",
"C. c #F0ECDC",
"Z. c #F7F0D7",
"A. c #F7F1D9",
"S. c #F9F3DD",
"D. c #EBEBED",
"F. c #F9F4E1",
"G. c #FAF7EA",
"H. c #FBF8EC",
"J. c #F7F6F0",
"K. c #FDFBF5",
"L. c #FEFEFE",
"P. c None",
/* pixels */
"P.P.P.P.P.P.P.P.P.P.P.P.P.P.P.P.P.P.P.P.P.P.P.P.P.P.P.P.P.P.P.P.P.P.P.P.P.P.P.P.P.P.P.P.P.P.P.P.P.P.",
"P.P.P.P.P.P.P.P.P.P.P.P.P.P.P.P.P.P.P.P.P.P.P.P.P.P.P.P.P.P.P.P.P.P.P.P.P.P.P.P.P.P.P.P.P.P.P.P.P.P.",
"P.P.P.P.P.P.P.P.P.P.P.P.P.P.P.P.P.P.P.P.X X X X X X X X X X X X X X P.P.P.P.P.P.P.P.P.P.P.P.P.P.P.P.",
"P.P.P.P.P.P.P.P.P.P.P.P.P.P.P.P.P.P.o o O + W ;.;.-.;.;.;.` - + X X X X P.P.P.P.P.P.P.P.P.P.P.P.P.P.",
"P.P.P.P.P.P.P.P.P.P.P.P.P.P.P.P.P.o . X v y.k.x.x.x.x.x.x.k.M.,.< & X X P.P.P.P.P.P.P.P.P.P.P.P.P.P.",
"P.P.P.P.P.P.P.P.P.P.P.P.P.P.P.P.P.. , Z h.x.z.k.z.x.z.z.z.z.v.H.C.r.g . X X P.P.P.P.P.P.P.P.P.P.P.P.",
"P.P.P.P.P.P.P.P.P.P.P.P.P.P.P.P.X u y.x.z.z.z.z.z.z.z.z.k.x.z.N.L.S.f.S , X X P.P.P.P.P.P.P.P.P.P.P.",
"P.P.P.P.P.P.P.P.P.P.P.P.P.P.P.o . =.m.k.k.z.z.x.z.z.z.k.z.k.z.N.L.L.S.l.m . X P.P.P.P.P.P.P.P.P.P.P.",
"P.P.P.P.P.P.P.P.P.P.P.P.P.P.X o C D.N.z.z.z.z.z.z.z.z.z.z.z.S.K.L.L.K.h.o.y X X P.P.P.P.P.P.P.P.P.P.",
"P.P.P.P.P.P.P.P.P.P.P.P.P.X % 7 D.L.n.b.A.j.z.z.V.B.j.n.L.B.F.L.A.F.K.z.a.X.& X P.P.P.P.P.P.P.P.P.P.",
"P.P.P.P.P.P.P.P.P.P.P.P.P.X P Q J.F.b.b.G.b.z.b.L.S.z.n.L.B.v.L.A.S.K.v.t.O.= X X P.P.P.P.P.P.P.P.P.",
"P.P.P.P.P.P.P.P.P.P.P.P.X X R c.N.z.z.b.L.B.z.b.L.L.n.N.G.b.z.V.N.S.A.z.a.O.m o O P.P.P.P.P.P.P.P.P.",
"P.P.P.P.P.P.P.P.P.P.P.P.X X ] x.z.z.z.z.S.V.z.z.B.N.z.v.b.j.z.z.z.b.z.z.a.5. .+ o X P.P.P.P.P.P.P.P.",
"P.P.P.P.P.P.P.P.P.P.P.X X # :.x.z.z.z.z.z.z.z.z.j.z.z.z.z.z.z.d.a.z.z.z.p.5.{ 6 y X P.P.P.P.P.P.P.P.",
"P.P.P.P.P.P.P.P.P.P.P.X   x d.z.z.z.g.z.z.z.z.z.z.z.z.z.z.z.z.d.p.z.z.z.p.5.} f a X X P.P.P.P.P.P.P.",
"P.P.P.P.P.P.P.P.P.P.P.X   S l.z.z.z.w.j.z.z.z.j.d.z.z.z.z.z.z.s.t.x.j.d.a.5.O.I a X X P.P.P.P.P.P.P.",
"P.P.P.P.P.P.P.P.P.P.P.X 7 q.x.z.z.z.w.j.x.z.z.g.t.z.z.z.z.z.z.j.g.k.j.0.0.5.1.I a X X X P.P.P.P.P.P.",
"P.P.P.P.P.P.P.P.P.P.X X x x.j.z.z.z.t.j.z.z.z.g.t.z.z.z.x.z.z.z.x.k.j.7.5.6.1.I s X X X P.P.P.P.P.P.",
"P.P.P.P.P.P.P.P.P.P.X & X.p.x.j.z.z.j.z.z.z.z.g.t.z.z.z.z.z.z.g.p.k.g.6.5.5...I K * . O P.P.P.P.P.P.",
"P.P.P.P.P.P.P.P.P.o o * O.w.l.w.z.z.w.j.z.z.z.a.w.j.z.z.z.z.z.d.t.s.6.O.1.<.I P ~ l o X X P.P.P.P.P.",
"P.P.P.P.P.P.P.P.X X X s | O.t.0.z.d.0.a.z.z.a.5.5.a.x.k.z.z.s.s.5.5.5.X.[ ' P T o.5.b X . X X X X P.",
"P.P.P.X X . X + + o b T ) X.O.6.w.7.5.5.w.w.6.5.5.a.z.j.t.w.7.0.5.6.6...T T P ' 5.6.p.-.-.-.-.A X P.",
"P.P.P.X + = - -.e.>.O.O.~ I o.O.5.5.5.5.o.5.5.5.5.7.0.9.5.5.5.5.5.1.<.T I T ) O.5.8.k.c.x.v.c.W X P.",
"P.P.P.X u g.f.x.l.p.6.6.X./ ' O.2.X.o.H h O.) 1.5.5.5.1.O.O.5.6.5.| ) ( | 5.2.5.8.a.j.k.k.k.-.+ X P.",
"P.P.P.. - >.c.j.a.8.R D 5.O.O.8...P K # * F I } | | 1.X.[ [ [ 5.5.5.5.5.5.5.9.o.D H 5.a.s.t.& X P.P.",
"P.P.P.P.X , A k j k = m w.d.w.O.O.| k o . d I T | | 5.O.X.' I 5.5.5.5.5.5.5.8.y.i   x 5.Y d + X P.P.",
"P.P.P.P.P..   . + X m 0.d.x.d.7.6.D o X X % ^ O.5.5.5.5.6.O.) 5.5.5.7.j.! R 8.x.u.i $ i $   X P.P.P.",
"P.P.P.P.P.X X $ ) 1.s.x.c.x.c.j.H o X X X X P w.0.0.w.6.{ { { 5.p.z.z.v.! = ^ 4.x.h.u.S . P.P.P.P.P.",
"P.P.P.P.P.P.X X p -.-.-.-.-.-.! o X X ; @ X # -.x.c.>.U o o % ^ O.-.j.c.x.W + 6 ` -.W + P.P.P.P.P.P.",
"P.P.P.P.P.P.P.X X X . .   X X . @ 1 1 0 9 @ . & J J % . X . X & D 7 n U J J & X X X X O P.P.P.P.P.P.",
"P.P.P.P.P.P.P.P.P.O X X O X o + 8 B N N N 9 @ X .   X & l l % . < =         X X X X P.P.P.P.P.P.P.P.",
"P.P.P.P.P.P.P.P.P.P.P.X X X 2 0 N N @.V N w 8 + X X * [ | I M # X O + X X X o X X P.P.P.P.P.P.P.P.P.",
"P.P.P.P.P.P.P.P.P.P.P.X o X 8 N w V %.%.t e N 8 X X ^ 9.5.' P z X 3 0 @ X X X X P.P.P.P.P.P.P.P.P.P.",
"P.P.P.P.P.P.P.P.P.P.P.X X X 8 B +.$.*.*.*.$.+.8 X o [ 6.6.' I M X 3 w > X X o X P.P.P.P.P.P.P.P.P.P.",
"P.P.P.P.P.P.P.P.P.P.P.P.X X ; w $.&.&.*.&.&.*.#.7 X d O.o.T L 6 X 4 0 O X o X X P.P.P.P.P.P.P.P.P.P.",
"P.P.P.P.P.P.P.P.P.P.P.P.P.X . ; w $.&.&.&.&.&.*.q X X d I G 6 X : 0 ; O X X o P.P.P.P.P.P.P.P.P.P.P.",
"P.P.P.P.P.P.P.P.P.P.P.P.P.X X X : 0 r V V V r r B > + o # # X @ 8 : X X X o P.P.P.P.P.P.P.P.P.P.P.P.",
"P.P.P.P.P.P.P.P.P.P.P.P.P.P.X X X o 1 5 4 4 4 8 3 8 2 o X X X X O O X O X P.P.P.P.P.P.P.P.P.P.P.P.P.",
"P.P.P.P.P.P.P.P.P.P.P.P.P.P.P.o X X X X X X X X X X X X X X o o X o X X P.P.P.P.P.P.P.P.P.P.P.P.P.P.",
"P.P.P.P.P.P.P.P.P.P.P.P.P.P.P.X o X X X o X o X X X o X X X X X X X X P.P.P.P.P.P.P.P.P.P.P.P.P.P.P.",
"P.P.P.P.P.P.P.P.P.P.P.P.P.P.X X X O X P.P.P.P.P.P.P.P.P.o X X X o X X o P.P.P.P.P.P.P.P.P.P.P.P.P.P.",
"P.P.P.P.P.P.P.P.P.P.P.P.P.P.X o X o P.P.P.P.P.P.P.P.P.P.X X X X X X O X O P.P.P.P.P.P.P.P.P.P.P.P.P.",
"P.P.P.P.P.P.P.P.P.P.P.P.P.O X X X X P.P.P.P.P.P.P.P.P.P.P.O X + X X X X X P.P.P.P.P.P.P.P.P.P.P.P.P.",
"P.P.P.P.P.P.P.P.P.P.P.P.X X X o X P.P.P.P.P.P.P.P.P.P.P.P.P.P.P.P.o o X P.P.P.P.P.P.P.P.P.P.P.P.P.P.",
"P.P.P.P.P.P.P.P.P.P.P.P.X o X X P.P.P.P.P.P.P.P.P.P.P.P.P.P.P.P.P.P.P.P.P.P.P.P.P.P.P.P.P.P.P.P.P.P.",
"P.P.P.P.P.P.P.P.P.P.P.P.P.P.P.P.P.P.P.P.P.P.P.P.P.P.P.P.P.P.P.P.P.P.P.P.P.P.P.P.P.P.P.P.P.P.P.P.P.P.",
"P.P.P.P.P.P.P.P.P.P.P.P.P.P.P.P.P.P.P.P.P.P.P.P.P.P.P.P.P.P.P.P.P.P.P.P.P.P.P.P.P.P.P.P.P.P.P.P.P.P.",
"P.P.P.P.P.P.P.P.P.P.P.P.P.P.P.P.P.P.P.P.P.P.P.P.P.P.P.P.P.P.P.P.P.P.P.P.P.P.P.P.P.P.P.P.P.P.P.P.P.P.",
"P.P.P.P.P.P.P.P.P.P.P.P.P.P.P.P.P.P.P.P.P.P.P.P.P.P.P.P.P.P.P.P.P.P.P.P.P.P.P.P.P.P.P.P.P.P.P.P.P.P.",
"P.P.P.P.P.P.P.P.P.P.P.P.P.P.P.P.P.P.P.P.P.P.P.P.P.P.P.P.P.P.P.P.P.P.P.P.P.P.P.P.P.P.P.P.P.P.P.P.P.P."
};
