/* XPM */
static char *result[] = {
/* columns rows colors chars-per-pixel */
"50 50 158 2 ",
"   c #0F162A",
".  c #10172B",
"X  c #151B2D",
"o  c #191E2F",
"O  c #191F30",
"+  c #1B2133",
"@  c #1D253A",
"#  c #212534",
"$  c #252935",
"%  c #292A37",
"&  c #262B39",
"*  c #2C2E38",
"=  c #2F323B",
"-  c #32323B",
";  c #38353E",
":  c #3E3B3F",
">  c #232B44",
",  c #27304B",
"<  c #29324E",
"1  c #3C3E44",
"2  c #2B3552",
"3  c #2F3A59",
"4  c #323E5E",
"5  c #333F60",
"6  c #423D42",
"7  c #3E4045",
"8  c #374366",
"9  c #3A466A",
"0  c #3C496E",
"q  c #3E4C72",
"w  c #424245",
"e  c #494345",
"r  c #4F4649",
"t  c #4C4D4D",
"y  c #50474A",
"u  c #544D4A",
"i  c #594D4E",
"p  c #57514C",
"a  c #59524C",
"s  c #5E5350",
"d  c #5D5C56",
"f  c #605550",
"g  c #645C52",
"h  c #686359",
"j  c #746459",
"k  c #776959",
"l  c #7B6C5D",
"z  c #736656",
"x  c #414E76",
"c  c #415177",
"v  c #415178",
"b  c #405B7E",
"n  c #757265",
"m  c #797566",
"M  c #83725E",
"N  c #836C62",
"B  c #8D7466",
"V  c #867A65",
"C  c #887861",
"Z  c #837F6D",
"A  c #8A7E68",
"S  c #827561",
"D  c #917668",
"F  c #967A6A",
"G  c #9A7E6C",
"H  c #85816E",
"J  c #978368",
"K  c #9C826C",
"L  c #9A8A6E",
"P  c #8A8571",
"I  c #8D8873",
"U  c #918C75",
"Y  c #9F987D",
"T  c #A1846F",
"R  c #A38C6D",
"E  c #A9916F",
"W  c #A68971",
"Q  c #AB8D73",
"!  c #AD9372",
"~  c #AF9874",
"^  c #A59B7D",
"/  c #B39576",
"(  c #B59976",
")  c #BA9F77",
"_  c #BB9C79",
"`  c #BAA077",
"'  c #BEA279",
"]  c #C3A47C",
"[  c #C7AA7D",
"{  c #CBAC7F",
"}  c #3F6785",
"|  c #3F6B87",
" . c #3F6E89",
".. c #3F748D",
"X. c #3F788F",
"o. c #3E7C92",
"O. c #406283",
"+. c #406987",
"@. c #3E8396",
"#. c #3E8798",
"$. c #3E8899",
"%. c #93969F",
"&. c #A9A283",
"*. c #BFAE87",
"=. c #B5AC8A",
"-. c #BCB18B",
";. c #999CA4",
":. c #BEBBB5",
">. c #CDAD80",
",. c #C0AC83",
"<. c #CEB486",
"1. c #C2B38B",
"2. c #D5B583",
"3. c #D8B784",
"4. c #D7B886",
"5. c #DAB985",
"6. c #DABD8A",
"7. c #C5BB93",
"8. c #CABD93",
"9. c #DCC18E",
"0. c #CFC499",
"q. c #DDC491",
"w. c #D1C69A",
"e. c #E2C792",
"r. c #E2CA96",
"t. c #E4CE9A",
"y. c #E6D29D",
"u. c #E9D29B",
"i. c #DBCFA0",
"p. c #DED1A1",
"a. c #E2D5A4",
"s. c #E9D7A2",
"d. c #E5D8A5",
"f. c #EBDAA4",
"g. c #EDDEA9",
"h. c #F2DFA7",
"j. c #EFE1AB",
"k. c #F1E3AD",
"l. c #F7E8AF",
"z. c #EDE3BA",
"x. c #F1E5B5",
"c. c #FCEDB3",
"v. c #F2E6BA",
"b. c #F3E8BF",
"n. c #D0CEC4",
"m. c #D7D8DC",
"M. c #F3E9C2",
"N. c #F8EDC2",
"B. c #F5ECCA",
"V. c #F6EED1",
"C. c #F7F0D6",
"Z. c #F9F3DC",
"A. c #F6F1DC",
"S. c #FAF5E3",
"D. c #FBF8EC",
"F. c #FCFBF6",
"G. c #FFFFFE",
"H. c None",
/* pixels */
"H.H.H.H.H.H.H.H.H.H.H.H.H.H.H.H.H.H.H.H.H.H.H.H.H.H.H.H.H.H.H.H.H.H.H.H.H.H.H.H.H.H.H.H.H.H.H.H.H.H.",
"H.H.H.H.H.H.H.H.H.H.H.H.H.H.H.H.H.H.O X X .               X H.H.H.H.H.H.H.H.H.H.H.H.H.H.H.H.H.H.H.H.",
"H.H.H.H.H.H.H.H.H.H.H.H.H.H.H.H.X X X . # l Z Z H Z Z Z Z * . X X H.H.H.H.H.H.H.H.H.H.H.H.H.H.H.H.H.",
"H.H.H.H.H.H.H.H.H.H.H.H.H.H.X X X o O ;.:.f.l.l.l.l.l.l.k.=.P + X X H.H.H.H.H.H.H.H.H.H.H.H.H.H.H.H.",
"H.H.H.H.H.H.H.H.H.H.H.H.H.X X X p *.n.F.N.j.j.j.j.j.j.j.j.l.j.U $ X X H.H.H.H.H.H.H.H.H.H.H.H.H.H.H.",
"H.H.H.H.H.H.H.H.H.H.H.H.X X - d a.Z.G.b.j.j.j.j.j.j.j.j.j.j.j.g.p.n + X H.H.H.H.H.H.H.H.H.H.H.H.H.H.",
"H.H.H.H.H.H.H.H.H.H.H.X X X ~ j.Z.G.G.v.j.j.j.j.j.j.j.j.j.j.j.j.j.z.7 X X H.H.H.H.H.H.H.H.H.H.H.H.H.",
"H.H.H.H.H.H.H.H.H.H.X X X p [ v.G.G.G.Z.B.j.j.j.j.j.j.j.j.j.j.j.j.S.;.+ X H.H.H.H.H.H.H.H.H.H.H.H.H.",
"H.H.H.H.H.H.H.H.H.H.X X u [ u.v.G.S.D.G.D.b.S.b.j.v.V.j.j.j.x.B.j.S.G.;.o X H.H.H.H.H.H.H.H.H.H.H.H.",
"H.H.H.H.H.H.H.H.H.H.X   k 6.s.v.G.V.S.F.v.B.G.B.g.M.G.B.j.j.M.S.j.Z.G.m.s g X H.H.H.H.H.H.H.H.H.H.H.",
"H.H.H.H.H.H.H.H.H.X X + C 5.s.v.F.C.C.D.x.b.F.B.k.F.G.C.j.x.F.S.j.k.x.A.y.k . H.H.H.H.H.H.H.H.H.H.H.",
"H.H.H.H.H.H.H.H.H.X . p 4.2.f.j.v.B.j.j.j.k.B.v.j.S.S.B.g.x.F.V.j.j.j.k.f.l . X H.H.H.H.H.H.H.H.H.H.",
"H.H.H.H.H.H.H.H.X + 6 i 5.2.f.j.j.j.y.g.j.j.j.j.k.g.g.j.k.k.B.j.j.j.j.j.l.Z   X H.H.H.H.H.H.H.H.H.H.",
"H.H.H.H.H.H.H.H.o # j a 5.2.f.j.j.k.q.s.j.j.j.j.j.j.k.k.j.j.g.j.j.k.j.j.k.1.: X X H.H.H.H.H.H.H.H.H.",
"H.H.H.H.H.H.H.X X # N K 5.2.f.g.j.j.q.s.j.j.j.j.j.j.j.g.j.j.k.j.t.y.k.k.k.u.u . X H.H.H.H.H.H.H.H.H.",
"H.H.H.H.H.H.H.X X # B Q 2.2.t.q.j.j.r.f.j.j.j.j.j.k.y.r.j.j.j.k.r.t.j.g.k.k.m + X H.H.H.H.H.H.H.H.H.",
"H.H.H.H.H.H.H.X O O B ! 2.2.2.4.j.j.j.j.j.j.j.j.j.k.y.q.x.j.j.j.r.y.j.j.j.j.g.1 X X H.H.H.H.H.H.H.H.",
"H.H.H.H.H.H.X X O y D Q 5.5.2.6.j.j.y.g.j.j.j.j.j.j.y.r.j.j.j.j.s.d.j.j.j.j.y.S o X H.H.H.H.H.H.H.H.",
"H.H.H.H.H.H.X X O N G G ' 2.2.2.t.j.q.s.k.j.k.g.j.k.y.r.x.j.j.k.s.s.k.f.t.j.q.[ $ X H.H.H.H.H.H.H.H.",
"H.H.H.H.H.O X X M ] G F G [ / 2.2.6.4.f.g.j.j.k.j.f.4.4.y.j.j.j.q.u.j.f.q.t.4.[ * X X H.H.H.H.H.H.H.",
"H.H.H.H.X O 1 V 5.5.] G F ( W >.2.2.2.y.q.s.s.g.k.f.2.2.4.y.g.u.5.4.y.y.2.2.2.Q l * . H.H.H.H.H.H.H.",
"H.X X   X n f.g.6.3.>.W F F G ] 5.2.2.2.2.2.2.r.y.t.2.2.2.2.2.2.2.2.2.2.2.( Q K / ! = . H.H.H.H.H.H.",
"H.X t H P f.k.g.y.4.2.>.( ( G G / ] 2.2.2.2.2.2.2.2.2.2.' 2.[ J 5.2.2.2.>.W F / 2.5.E = X o H.H.H.H.",
"H.. Z c.l.x.g.k.g.y.2.2.3.3.] ] ' >.2.2.>._ ] [ 2.2.2.2.Q Q C $ N Q / 2.>.) ' 2.3.2.e.-.- O O O X H.",
"H.X & &.k.h.g.t.<.g <.t.2.2.2.2.2.2.2.2.W Q ( ) 2.Q Q W G B = . r K K >.2.3.2.2.[ { t.x.0.7.7.h . H.",
"H.H.X $ 8.f.6.>.y w p.s.3.' 2.6.2.2.2.>.G / 2.2.2.>.>._ T N O X O l 2.2.2.5.6.{ e u ( q.l.c.=.+ X H.",
"H.H.X O l J J u   7.j.t.` w 7.g.q.q.4.2.( 2.2.2.2.2.2.2.2.: X X X + S 4.9.y.j.r.` :   g ^ &.n X H.H.",
"H.H.H.X X . . t P i.h.` w . 7.k.j.k.q.2.2.2.9.t.r.r.r.t.L $ X X X X O V k.j.j.j.u.,.z z #   X X H.H.",
"H.H.H.H.H.H.X 1 7.d.h 1   n d.j.j.k.q.2.6.u.f.j.j.g.k.&.% X @ 4 > X X + I j.j.j.j.j.u.H # X X H.H.H.",
"H.H.H.H.H.H.H.. = 1 X X X Y d.p.d.t.4.4.g.k.k.d.w.t w & . + 8 x q 9 @ X # 7 &.a.a.&.7 $ X X H.H.H.H.",
"H.H.H.H.H.H.H.o X X X X X # & $ p ( ( 1.7.7.8.d # X X . @ 8 x v q v 0 & + . # & & # . X X H.H.H.H.H.",
"H.H.H.H.H.H.o X X X X X X X X X X O O O + X + X X X + > 8 x v +.X.q q c 4 X X X X X . X X X H.H.H.H.",
"H.H.H.H.H.X X X 1 i 6 O O X , , X X X X X X X X X , 8 q x q  .#.#...v x 9 @ X X X - l f y o X H.H.H.",
"H.H.H.H.H.X X 6 B T ' g X O 9 x 4 4 4 4 4 4 8 8 8 q q q } X.#.#.#.#.X.| v 2 X X = ! 6.{ T s o o H.H.",
"H.H.H.H.H.X 1 B G ] 3.2.f X # q v +.+.b v O.@.+.X.@.@.@.#.$.$.$.#.#.@.b 4 + X # ! 3.2.3.W l o X H.H.",
"H.H.H.H.H.. 6 K G [ 2.5.l . O 5 b @.#.b +.o.o.o.X.X.@.X.o.o.X.X.X.o.b 4 + o X # ~ 2.3.{ T N o X H.H.",
"H.H.H.H.H.X - N G _ 2.>.i X X @ 4 4 4 q v v v v q q c c v v v v v 8 3 + X X X X = R [ Q F s X H.H.H.",
"H.H.H.H.H.X X - N G Q u . X X X X X X , 2 2 2 2 2 3 2 2 2 2 2 2 2 @ X o X X H.o X % y i y o o H.H.H.",
"H.H.H.H.H.H.X X - 6 1 . X X X X X X o . X . X X X X X X X X X X X o X X X H.H.H.H.X X . . o H.H.H.H.",
"H.H.H.H.H.H.H.H.X X X X H.H.H.X o X o o H.H.H.H.H.H.H.H.H.H.X X X X X H.H.H.H.H.H.H.H.H.H.H.H.H.H.H.",
"H.H.H.H.H.H.H.H.H.H.H.H.H.H.H.H.X O X O H.H.H.H.H.H.H.H.H.H.X X X o H.H.H.H.H.H.H.H.H.H.H.H.H.H.H.H.",
"H.H.H.H.H.H.H.H.H.H.H.H.H.H.H.H.X X X X H.H.H.H.H.H.H.H.H.H.X O X H.H.H.H.H.H.H.H.H.H.H.H.H.H.H.H.H.",
"H.H.H.H.H.H.H.H.H.H.H.H.H.H.H.H.O X O H.H.H.H.H.H.H.H.H.H.H.X X X H.H.H.H.H.H.H.H.H.H.H.H.H.H.H.H.H.",
"H.H.H.H.H.H.H.H.H.H.H.H.H.H.H.H.X X X H.H.H.H.H.H.H.H.H.H.H.X X o H.H.H.H.H.H.H.H.H.H.H.H.H.H.H.H.H.",
"H.H.H.H.H.H.H.H.H.H.H.H.H.H.H.H.H.H.H.H.H.H.H.H.H.H.H.H.H.H.H.H.H.H.H.H.H.H.H.H.H.H.H.H.H.H.H.H.H.H.",
"H.H.H.H.H.H.H.H.H.H.H.H.H.H.H.H.H.H.H.H.H.H.H.H.H.H.H.H.H.H.H.H.H.H.H.H.H.H.H.H.H.H.H.H.H.H.H.H.H.H.",
"H.H.H.H.H.H.H.H.H.H.H.H.H.H.H.H.H.H.H.H.H.H.H.H.H.H.H.H.H.H.H.H.H.H.H.H.H.H.H.H.H.H.H.H.H.H.H.H.H.H.",
"H.H.H.H.H.H.H.H.H.H.H.H.H.H.H.H.H.H.H.H.H.H.H.H.H.H.H.H.H.H.H.H.H.H.H.H.H.H.H.H.H.H.H.H.H.H.H.H.H.H.",
"H.H.H.H.H.H.H.H.H.H.H.H.H.H.H.H.H.H.H.H.H.H.H.H.H.H.H.H.H.H.H.H.H.H.H.H.H.H.H.H.H.H.H.H.H.H.H.H.H.H.",
"H.H.H.H.H.H.H.H.H.H.H.H.H.H.H.H.H.H.H.H.H.H.H.H.H.H.H.H.H.H.H.H.H.H.H.H.H.H.H.H.H.H.H.H.H.H.H.H.H.H."
};
