/* XPM */
static char *result[] = {
/* columns rows colors chars-per-pixel */
"50 50 164 2 ",
"   c #0F162A",
".  c #10172B",
"X  c #151B2D",
"o  c #191E2F",
"O  c #171D30",
"+  c #191F31",
"@  c #1C2133",
"#  c #1F263D",
"$  c #232634",
"%  c #262936",
"&  c #2B2C37",
"*  c #20283F",
"=  c #2E2F39",
"-  c #2D313B",
";  c #33343C",
":  c #3B393E",
">  c #232B44",
",  c #262F49",
"<  c #27314C",
"1  c #373A41",
"2  c #3C3D43",
"3  c #303544",
"4  c #2C3653",
"5  c #2D3856",
"6  c #333E5E",
"7  c #343F61",
"8  c #433D43",
"9  c #344061",
"0  c #3A466B",
"q  c #3B4B6F",
"w  c #3E4C73",
"e  c #3F5076",
"r  c #3F557A",
"t  c #3F597C",
"y  c #424246",
"u  c #494345",
"i  c #4D4448",
"p  c #4C4A4A",
"a  c #564C4B",
"s  c #5D534E",
"d  c #595955",
"f  c #535451",
"g  c #60564F",
"h  c #635552",
"j  c #645B51",
"k  c #605F58",
"l  c #6F5D58",
"z  c #725F59",
"x  c #65645C",
"c  c #6A665C",
"v  c #6C6154",
"b  c #746757",
"n  c #75625A",
"m  c #756A5A",
"M  c #7C6C5C",
"N  c #4E5361",
"B  c #404E75",
"V  c #40557A",
"C  c #6F6C60",
"Z  c #716F62",
"A  c #757365",
"S  c #7E7765",
"D  c #6C707C",
"F  c #7A7B7D",
"G  c #806F5E",
"H  c #83735E",
"J  c #846D62",
"K  c #8E7D64",
"L  c #827E6C",
"P  c #8B7265",
"I  c #907E64",
"U  c #967A6A",
"Y  c #997D6C",
"T  c #85806D",
"R  c #88836F",
"E  c #958267",
"W  c #9E836D",
"Q  c #9F896B",
"!  c #8B8574",
"~  c #8D8973",
"^  c #9B957B",
"/  c #A2856F",
"(  c #A38C6D",
")  c #A58770",
"_  c #A68970",
"`  c #AB8D72",
"'  c #AD9472",
"]  c #A89C7C",
"[  c #B19575",
"{  c #B59976",
"}  c #BB9C79",
"|  c #B59E77",
" . c #ABA07F",
".. c #BCA27B",
"X. c #C3A47C",
"o. c #C6A87C",
"O. c #CAAA7E",
"+. c #3F6281",
"@. c #3F6C87",
"#. c #3F6E8A",
"$. c #3E738C",
"%. c #3E7C92",
"&. c #406A87",
"*. c #406484",
"=. c #3E8496",
"-. c #3D8698",
";. c #A49D80",
":. c #ABA384",
">. c #B0A887",
",. c #B5AC89",
"<. c #B7A883",
"1. c #BAB18D",
"2. c #CEAF80",
"3. c #CFB081",
"4. c #C0B68F",
"5. c #C9B98E",
"6. c #D4B482",
"7. c #D8B784",
"8. c #D7B987",
"9. c #DAB985",
"0. c #D9BC8A",
"q. c #D2BD8E",
"w. c #C3B992",
"e. c #C9BE95",
"r. c #DCC18E",
"t. c #CCC197",
"y. c #DEC591",
"u. c #DBCB9B",
"i. c #D7CB9D",
"p. c #E1C793",
"a. c #E1CA95",
"s. c #E3CE9A",
"d. c #E7D39D",
"f. c #E9D49E",
"g. c #DDD1A0",
"h. c #E3D6A4",
"j. c #E8D6A1",
"k. c #EBDAA4",
"l. c #EDDEA9",
"z. c #F0DEA7",
"x. c #E9DDB6",
"c. c #EFE1AB",
"v. c #F3E5AD",
"b. c #F0E3B2",
"n. c #F7E9B0",
"m. c #F2E7BB",
"M. c #F2E8BF",
"N. c #ECE2C2",
"B. c #F3E9C2",
"V. c #F6EDCD",
"C. c #F8EFCD",
"Z. c #FBF0C5",
"A. c #F6EFD2",
"S. c #F7F0D5",
"D. c #F8F3DD",
"F. c #E3E3E5",
"G. c #F9F5E3",
"H. c #F5F4EF",
"J. c #FBF7EA",
"K. c #FBF8EE",
"L. c #F7F6F2",
"P. c #FCFAF1",
"I. c #FEFEFC",
"U. c None",
/* pixels */
"U.U.U.U.U.U.U.U.U.U.U.U.U.U.U.U.U.U.U.U.U.U.U.U.U.U.U.U.U.U.U.U.U.U.U.U.U.U.U.U.U.U.U.U.U.U.U.U.U.U.",
"U.U.U.U.U.U.U.U.U.U.U.U.U.U.U.U.U.U.U.U.U.U.U.U.U.U.U.U.U.U.U.U.U.U.U.U.U.U.U.U.U.U.U.U.U.U.U.U.U.U.",
"U.U.U.U.U.U.U.U.U.U.U.U.U.U.U.U.U.U.U.o X X X X X X X X X X o X U.U.U.U.U.U.U.U.U.U.U.U.U.U.U.U.U.U.",
"U.U.U.U.U.U.U.U.U.U.U.U.U.U.U.U.U.X o @ x ,.>.>.:.,.:.>.m @ o X X o U.U.U.U.U.U.U.U.U.U.U.U.U.U.U.U.",
"U.U.U.U.U.U.U.U.U.U.U.U.U.U.U.U.X . p t.h.v.v.v.v.v.v.v.x.F.D - % . o U.U.U.U.U.U.U.U.U.U.U.U.U.U.U.",
"U.U.U.U.U.U.U.U.U.U.U.U.U.U.U.. 1 d i.v.c.l.c.c.c.c.l.c.c.V.L.N...: . . o U.U.U.U.U.U.U.U.U.U.U.U.U.",
"U.U.U.U.U.U.U.U.U.U.U.U.U.U.o u 5.v.v.c.c.c.c.c.c.c.c.c.c.l.G.I.C.4.c & o X U.U.U.U.U.U.U.U.U.U.U.U.",
"U.U.U.U.U.U.U.U.U.U.U.U.U.o $ &.Z.l.l.c.c.c.c.c.c.c.c.c.c.c.G.I.I.C.a.u . X U.U.U.U.U.U.U.U.U.U.U.U.",
"U.U.U.U.U.U.U.U.U.U.U.U.X . N F.V.c.c.c.c.c.c.b.c.c.c.b.B.P.I.I.I.D.a.' - X X U.U.U.U.U.U.U.U.U.U.U.",
"U.U.U.U.U.U.U.U.U.U.U.X & 3 F.I.V.b.G.c.c.c.B.G.c.c.G.J.B.P.I.B.I.D.l.r.' @ + U.U.U.U.U.U.U.U.U.U.U.",
"U.U.U.U.U.U.U.U.U.U.U.X E ! H.G.M.c.J.M.c.c.P.P.m.c.J.P.c.S.I.B.I.D.c.r.{ o X X U.U.U.U.U.U.U.U.U.U.",
"U.U.U.U.U.U.U.U.U.U.o . Q v.B.l.c.b.I.G.c.c.P.I.D.c.J.A.c.M.S.m.P.m.c.r.o.g X X U.U.U.U.U.U.U.U.U.U.",
"U.U.U.U.U.U.U.U.U.U.X . ] v.c.c.l.c.V.G.c.c.m.B.m.c.m.c.c.c.k.c.m.c.c.0.7.( X X X U.U.U.U.U.U.U.U.U.",
"U.U.U.U.U.U.U.U.U.o X @ ,.v.c.c.c.c.c.b.c.c.c.c.c.c.c.c.c.c.y.k.c.c.c.r.6.W 8 8 X U.U.U.U.U.U.U.U.U.",
"U.U.U.U.U.U.U.U.U.X   b f.c.c.c.k.l.c.c.c.c.c.c.c.c.c.c.c.c.y.k.c.c.v.r.9.( h y X X U.U.U.U.U.U.U.U.",
"U.U.U.U.U.U.U.U.U.o   S z.v.c.c.y.j.c.c.c.c.d.k.c.c.c.c.c.c.r.k.v.f.k.y.O.X.U 8 . o U.U.U.U.U.U.U.U.",
"U.U.U.U.U.U.U.U.o . y t.v.c.c.c.y.j.c.c.c.l.0.l.l.v.c.c.c.l.j.l.c.s.9.9.9.o.Y 8 . X X U.U.U.U.U.U.U.",
"U.U.U.U.U.U.U.U.X . c v.c.c.c.c.y.k.c.c.v.l.y.l.c.l.c.b.c.v.c.l.c.f.O.9.O.X.U u X X o U.U.U.U.U.U.U.",
"U.U.U.U.U.U.U.U.. : O.d.c.k.c.c.k.l.c.c.l.l.y.l.c.l.c.c.c.c.y.k.v.a.O.O.9.} U P $ X X U.U.U.U.U.U.U.",
"U.U.U.U.U.U.U.o . ; O.y.k.r.k.v.y.j.c.c.l.j.0.j.c.v.c.l.c.c.y.s.f.9.O.O.X.Y U / g X X o U.U.U.U.U.U.",
"U.U.U.U.U.U.o X o g ..O.y.r.c.k.0.y.l.v.j.8.6.0.c.c.c.c.k.j.y.6.O.9.} X./ I [ O.6.j . . X X O O U.U.",
"U.o X X @ @ @ + M W ' o.O.9.r.9.6.6.q.y.0.6.6.r.l.l.a.y.0.8.8.6.9.O.{ / Y Y ..O.7.u.:.:.:.:.S X U.U.",
"U.o $ - y 1.t.2.O.o./ Y ..O.9.O.6.6.o.3.3.6.6.6.0.0.6.6.6.6.6.6.O.} Y / Y ` O.r.0.v.v.v.v.n.;.X U.U.",
"U.  T l.h.c.l.r.9.9.X./ [ O.O.o.2.Q u 2.` X.7.6.6.6.O.3.2.6.6.3.' _ ` O.O.O.O.9.d.j.l.v.l.:.% X U.U.",
"U.. d g.v.f.p.7.E E O.O.9.9.o.U U ; $ z U ' } } o.6._ X.) 2.6.3.6.6.6.6.6.r.] M K 9.s.d.y.; X o U.U.",
"U.U.. f Z j g j & H r.s.r.O.O...n + . 8 Y U [ } o.6...2.U [ 6.6.3.6.6.6.6.r.t.2 X b 6.E s @ X U.U.U.",
"U.U.o   . . . o E q.k.c.f.9.9.E $ X X + G O.6.7.6.6.6.6.{ { 6.7.6.y.k.m ..r.v.t.2 % p % . o U.U.U.U.",
"U.U.U.o X X X v 5.c.v.v.n.c.E $ X X X . j 7.0.0.0.0.8.6.3.6.6.k.c.c.c.x ; ' r.v.h.i.A . U.U.U.U.U.U.",
"U.U.U.X . . . o % ^ :.:.:.^ $ . X * * X X L k.v.v.c.l.y.0.6.6.;.1.n.v.k.x o a ] :.~ + X X o X U.U.U.",
"U.U.o X i s m ; . . X X   X @ 4 4 0 w > X X Z L >.v.c.c.k.a.s.L - T T T A @ . . X . o X . X X X U.U.",
"U.U.X a W O.9.[ ; X X O X @ 9 B B B B q > X     - x e.l.l.l.~ d o . . . . X o X o . . u z h o X o U.",
"U.U.X n / O.6.9.[ $ X X X 7 B B B V &.B q > + X .   3 2 2 8 $ . @ + X X . o X o X o s o.` Y h @ X U.",
"U.U.X n W 2.6.9.' $ X X O 0 w B B t =.$.t e 0 > @ X . . X . . * q 6 # # O X O X X : 2.6.6.W Y a . U.",
"U.U.X i U ) } W & X X X O 5 w t +.%.-.-.-.#.+.w 7 > , , , < < 0 B B w w @ X X o X 2 6.6.6.W Y s X U.",
"U.U.o X 8 i i $ X o U.o O + w r %.-.-.-.=.-.=.#.$.&.&.&.e w +.@.w B B 4 O X o X X $ I 6.} Y J ; X U.",
"U.U.U.X   X X X U.U.U.U.X X , w r %.=.=.=.=.=.=.=.-.-.=.$.+.$.-.#.B 5 o X X X o X . $ M U J = . o U.",
"U.U.U.U.U.U.U.U.U.U.U.U.U.X O @ 5 w e r V V r r V V V V V V w q q 5 O X X X U.U.U.o X + % $ . O U.U.",
"U.U.U.U.U.U.U.U.U.U.U.U.U.O X X O + 5 9 7 6 6 7 6 7 6 6 6 7 * X O o X o X o U.U.U.U.U.O X X U.U.U.U.",
"U.U.U.U.U.U.U.U.U.U.U.U.U.U.X X X X X X X X X X X X X X X X X o X X X X U.U.U.U.U.U.U.U.U.U.U.U.U.U.",
"U.U.U.U.U.U.U.U.U.U.U.U.U.U.U.O o X X o X X X o o X X o X o X X X o o U.U.U.U.U.U.U.U.U.U.U.U.U.U.U.",
"U.U.U.U.U.U.U.U.U.U.U.U.U.U.U.o X X o O X o X U.U.U.U.U.o X X X o U.U.U.U.U.U.U.U.U.U.U.U.U.U.U.U.U.",
"U.U.U.U.U.U.U.U.U.U.U.U.U.U.U.X o X X X X X O U.U.U.U.U.X X o o U.U.U.U.U.U.U.U.U.U.U.U.U.U.U.U.U.U.",
"U.U.U.U.U.U.U.U.U.U.U.U.U.U.U.U.o X X o U.o X U.U.U.U.o X o o U.U.U.U.U.U.U.U.U.U.U.U.U.U.U.U.U.U.U.",
"U.U.U.U.U.U.U.U.U.U.U.U.U.U.U.U.U.X o U.U.U.X U.U.o X o X X U.U.U.U.U.U.U.U.U.U.U.U.U.U.U.U.U.U.U.U.",
"U.U.U.U.U.U.U.U.U.U.U.U.U.U.U.U.U.U.U.U.U.U.U.U.U.U.o X o U.U.U.U.U.U.U.U.U.U.U.U.U.U.U.U.U.U.U.U.U.",
"U.U.U.U.U.U.U.U.U.U.U.U.U.U.U.U.U.U.U.U.U.U.U.U.U.U.U.U.U.U.U.U.U.U.U.U.U.U.U.U.U.U.U.U.U.U.U.U.U.U.",
"U.U.U.U.U.U.U.U.U.U.U.U.U.U.U.U.U.U.U.U.U.U.U.U.U.U.U.U.U.U.U.U.U.U.U.U.U.U.U.U.U.U.U.U.U.U.U.U.U.U.",
"U.U.U.U.U.U.U.U.U.U.U.U.U.U.U.U.U.U.U.U.U.U.U.U.U.U.U.U.U.U.U.U.U.U.U.U.U.U.U.U.U.U.U.U.U.U.U.U.U.U.",
"U.U.U.U.U.U.U.U.U.U.U.U.U.U.U.U.U.U.U.U.U.U.U.U.U.U.U.U.U.U.U.U.U.U.U.U.U.U.U.U.U.U.U.U.U.U.U.U.U.U.",
"U.U.U.U.U.U.U.U.U.U.U.U.U.U.U.U.U.U.U.U.U.U.U.U.U.U.U.U.U.U.U.U.U.U.U.U.U.U.U.U.U.U.U.U.U.U.U.U.U.U."
};
