/* XPM */
static char *result[] = {
/* columns rows colors chars-per-pixel */
"50 50 166 2 ",
"   c #0F162A",
".  c #10172B",
"X  c #151B2D",
"o  c #181E2F",
"O  c #171E30",
"+  c #191F30",
"@  c #1B2133",
"#  c #1E253B",
"$  c #222533",
"%  c #242936",
"&  c #242A3B",
"*  c #2C2E39",
"=  c #2E323B",
"-  c #33323B",
";  c #3D3B3F",
":  c #38353E",
">  c #242D45",
",  c #27304B",
"<  c #29324E",
"1  c #3C3D43",
"2  c #353941",
"3  c #2B3552",
"4  c #2E3957",
"5  c #2F3A59",
"6  c #323E5E",
"7  c #423D42",
"8  c #3F4246",
"9  c #374366",
"0  c #3A476B",
"q  c #3B4A6E",
"w  c #3F4C72",
"e  c #375773",
"r  c #3D5879",
"t  c #424144",
"y  c #494345",
"u  c #4F4947",
"i  c #444649",
"p  c #4F4649",
"a  c #46484A",
"s  c #4C4D4D",
"d  c #504A47",
"f  c #50474A",
"g  c #554E4A",
"h  c #594D4E",
"j  c #57504B",
"k  c #59524C",
"l  c #5B5A55",
"z  c #5D5751",
"x  c #635B52",
"c  c #605F58",
"v  c #6C6154",
"b  c #67665D",
"n  c #766959",
"m  c #7C6C5E",
"M  c #726259",
"N  c #414E76",
"B  c #405077",
"V  c #415278",
"C  c #405B7E",
"Z  c #6F6D61",
"A  c #747163",
"S  c #797567",
"D  c #7F7866",
"F  c #7A7768",
"G  c #83725F",
"H  c #856D62",
"J  c #8D7466",
"K  c #887861",
"L  c #837F6D",
"P  c #847863",
"I  c #917668",
"U  c #957A6A",
"Y  c #9B7E6D",
"T  c #88826E",
"R  c #9C816C",
"E  c #9E896B",
"W  c #8E8973",
"Q  c #8B8671",
"!  c #918C75",
"~  c #A1846F",
"^  c #A58B6F",
"/  c #A9916F",
"(  c #A58771",
")  c #A68971",
"_  c #AB8E73",
"`  c #AC9272",
"'  c #AF9874",
"]  c #B39576",
"[  c #B79A77",
"{  c #BA9F77",
"}  c #BA9C79",
"|  c #B09D7A",
" . c #BAA077",
".. c #BEA179",
"X. c #B5A07B",
"o. c #C2A47C",
"O. c #C6AA7D",
"+. c #CAAB7E",
"@. c #3F6785",
"#. c #3F6D88",
"$. c #377385",
"%. c #3E748C",
"&. c #3E7B91",
"*. c #406181",
"=. c #406887",
"-. c #3E8396",
";. c #3E8799",
":. c #3E8899",
">. c #93969F",
",. c #A69F81",
"<. c #ABA384",
"1. c #BFAE87",
"2. c #B7AE8B",
"3. c #B8AF8B",
"4. c #999CA4",
"5. c #BEBBB5",
"6. c #CEAE80",
"7. c #C0AC83",
"8. c #C2B58D",
"9. c #CDB88C",
"0. c #D5B583",
"q. c #D8B784",
"w. c #D7B886",
"e. c #DAB985",
"r. c #D3BE8F",
"t. c #DABD8A",
"y. c #C1B791",
"u. c #C5BB93",
"i. c #DDC28F",
"p. c #CCC197",
"a. c #D7C190",
"s. c #DEC490",
"d. c #D2C69A",
"f. c #D5CA9D",
"g. c #E2CA95",
"h. c #E4CE9A",
"j. c #E6D29D",
"k. c #E9D39D",
"l. c #DDD1A1",
"z. c #E1D4A4",
"x. c #E9D7A2",
"c. c #EBDAA5",
"v. c #EDDEA9",
"b. c #E4D8A5",
"n. c #EFE1AB",
"m. c #F1E3AD",
"M. c #EDE3BA",
"N. c #F1E5B5",
"B. c #F6E8B0",
"V. c #F8EAB0",
"C. c #F2E6BA",
"Z. c #F3E8BF",
"A. c #D0CEC4",
"S. c #D7D8DC",
"D. c #F3E9C2",
"F. c #F5ECCA",
"G. c #F8EDC2",
"H. c #F6EED1",
"J. c #F7F0D6",
"K. c #F9F3DC",
"L. c #F6F1DC",
"P. c #FAF5E3",
"I. c #FBF8EC",
"U. c #FCFBF6",
"Y. c #FFFFFE",
"T. c None",
/* pixels */
"T.T.T.T.T.T.T.T.T.T.T.T.T.T.T.T.T.T.T.T.T.T.T.T.T.T.T.T.T.T.T.T.T.T.T.T.T.T.T.T.T.T.T.T.T.T.T.T.T.T.",
"T.T.T.T.T.T.T.T.T.T.T.T.T.T.T.T.T.T.o X X . .       . .   X T.T.T.T.T.T.T.T.T.T.T.T.T.T.T.T.T.T.T.T.",
"T.T.T.T.T.T.T.T.T.T.T.T.T.T.T.T.X X X . % m L T L T L L L % . X X T.T.T.T.T.T.T.T.T.T.T.T.T.T.T.T.T.",
"T.T.T.T.T.T.T.T.T.T.T.T.T.T.X O o @ @ >.5.v.m.m.m.V.m.V.m.2.Q @ o X T.T.T.T.T.T.T.T.T.T.T.T.T.T.T.T.",
"T.T.T.T.T.T.T.T.T.T.T.T.T.X X X j 1.A.U.G.n.n.n.n.n.n.n.m.m.m.! & @ X T.T.T.T.T.T.T.T.T.T.T.T.T.T.T.",
"T.T.T.T.T.T.T.T.T.T.T.T.X X - l z.K.Y.D.n.n.n.n.n.n.n.n.m.n.m.v.l.A o X T.T.T.T.T.T.T.T.T.T.T.T.T.T.",
"T.T.T.T.T.T.T.T.T.T.T.X X X ] v.J.Y.Y.C.n.n.n.n.n.n.n.n.n.n.n.n.n.M.1 X X T.T.T.T.T.T.T.T.T.T.T.T.T.",
"T.T.T.T.T.T.T.T.T.T.X X X j O.C.Y.Y.Y.K.F.n.n.n.n.n.n.n.n.n.n.n.v.P.4.@ X T.T.T.T.T.T.T.T.T.T.T.T.T.",
"T.T.T.T.T.T.T.T.T.T.X X g O.j.N.Y.P.I.Y.I.Z.P.Z.n.N.H.n.n.n.C.F.v.P.Y.4.@ X T.T.T.T.T.T.T.T.T.T.T.T.",
"T.T.T.T.T.T.T.T.T.T.X   n t.c.C.Y.H.P.Y.C.F.Y.F.n.D.Y.F.n.n.D.P.n.K.Y.S.z x X T.T.T.T.T.T.T.T.T.T.T.",
"T.T.T.T.T.T.T.T.T.X X @ K e.c.N.U.J.J.I.m.D.U.F.n.U.Y.H.v.N.U.P.n.m.C.J.h.n . T.T.T.T.T.T.T.T.T.T.T.",
"T.T.T.T.T.T.T.T.T.X . j 0.0.c.n.Z.F.n.n.n.n.F.Z.m.P.P.F.n.N.U.H.n.n.n.n.v.m . X T.T.T.T.T.T.T.T.T.T.",
"T.T.T.T.T.T.T.T.X @ 7 h q.0.c.n.n.n.k.c.n.n.n.n.m.v.n.n.n.m.F.n.n.n.n.m.m.L   X T.T.T.T.T.T.T.T.T.T.",
"T.T.T.T.T.T.T.T.o $ M k e.0.c.n.n.n.s.c.n.n.n.n.n.n.n.m.n.n.v.n.n.n.n.n.m.8.; X X T.T.T.T.T.T.T.T.T.",
"T.T.T.T.T.T.T.X X $ H R 0.0.c.v.n.m.s.c.n.n.n.n.n.n.v.v.n.n.m.m.h.k.m.n.m.k.g . X T.T.T.T.T.T.T.T.T.",
"T.T.T.T.T.T.T.X o $ J _ 0.w.j.s.n.n.s.x.n.n.n.n.n.m.j.g.m.n.n.n.g.h.m.n.m.m.S @ X T.T.T.T.T.T.T.T.T.",
"T.T.T.T.T.T.T.X O @ J ` 0.0.0.t.n.n.n.n.n.n.n.n.n.m.j.s.N.n.n.m.s.j.n.n.n.n.n.2 X X T.T.T.T.T.T.T.T.",
"T.T.T.T.T.T.o X o p I _ 0.0.0.t.n.n.k.v.n.n.n.n.n.m.j.g.n.n.n.n.k.c.n.n.N.n.k.G @ X T.T.T.T.T.T.T.T.",
"T.T.T.T.T.T.X o O H U Y o.0.0.0.h.n.s.b.n.n.m.v.n.n.j.g.N.n.n.n.x.c.n.c.j.n.i.+.% X T.T.T.T.T.T.T.T.",
"T.T.T.T.T.X X o G o.( U R o.] 6.0.t.w.c.v.n.n.m.n.c.w.w.k.n.n.n.s.h.m.c.i.j.0.o.* X O T.T.T.T.T.T.T.",
"T.T.T.T.T.X @ P q.q.o.Y U [ ) 0.0.0.0.j.i.x.c.v.n.c.0.0.w.k.c.j.0.e.k.j.q.6.0.) m * . T.T.T.T.T.T.T.",
"T.T.T.T.X @ W m.s.0.6.( U U Y o.e.0.0.0.0.0.0.g.j.h.0.0.0.w.0.0.0.0.0.0.q.[ ` R [ / - X T.T.T.T.T.T.",
"T.T.T.X O ! m.n.j.e.0.+.] [ R R ] o.0.0.0.0.0.0.0.0.0.0.o.0.o.E e.e.0.0.6.( U [ 0.e./ - X T.T.T.T.T.",
"T.X o @ ! m.v.n.n.t.0.q.w.0.O.....6.0.0.6.} o.O.0.0.0.0._ ) K % H _ _ 0.6...O.+.0.0.g.x X X T.T.T.T.",
"T.. Z p.v.n.n.m.a.6.i.g.0.0.0.0.q.0.0.0.~ _ [ o.0._ ) ^ Y J - . f Y ~ 0.0.0.0.0.O.+.h.f.3.- X T.T.T.",
"T.. Z v.m.m.m.r.g X.n.j.e...0.e.0.0.0.6.R ] 0.0.0.6.0.[ ^ m + X o m +.e.t.h.g.+.y u r.m.N.3.i * X T.",
"T.T.X S c.m.r.g   u.m.h. .t u.n.s.s.q.6.) 0.0.0.0.0.0.q._ * X X X o P h.m.n.v.g. .; d a.V.n.m.T . T.",
"T.T.o X A 9.g . v l.c.e.n . u.m.n.m.g.6.{ 0.0.i.h.g.h.| - X X X o X O W m.m.m.v.g. .; d T n.d.s X T.",
"T.T.T.X o 7 . X <.V.c./ - o u.m.n.m.s.0.0.t.j.v.m.m.y.2 . o # 6 > O X @ l | n.n.c.k.1.: X l i . X T.",
"T.T.T.T.T.X . Z l.l.8.= . W m.m.m.m.i.0.x.v.m.b.d.s = . + 6 0 N w 0 # X   * 8 8 t i t % X X   T.T.T.",
"T.T.T.T.T.T.. A b % % X X W p.u.u.9.0.t.m.m.B.Z $ X X X 5 N N V w w 0 @ X . . o . X . X X T.T.T.T.T.",
"T.T.T.T.T.T.T.o X X . . X o o o * ~ g.v.<.,.<.i X X + > 9 N @.&.r e q @ O X o . . . X X T.T.T.T.T.T.",
"T.T.T.T.T.T.X X X y h 1 X X X X - n D F @ . . X O , 6 V C =.:.:.&.V q < X X X z M h - X X T.T.T.T.T.",
"T.T.T.T.T.T.X X f U ( } g X X X X   . . O O O O 4 V C =.-.:.:.:.:.&.V 0 o X v 0.e.[ H - X T.T.T.T.T.",
"T.T.T.T.T.T.X y U Y 6.e.O.y X O @ # @ 6 0 e $.$.&.&.-.:.:.:.:.:.:.@.q # . x 0.0.e.o.Y 7 X T.T.T.T.T.",
"T.T.T.T.T.T.X h Y R 6.0.e.h . # r %.%.C %.&.-.&.&.&.&.-.&.&.-.=.@.0 & X . z 0.w.0.[ Y 7 . T.T.T.T.T.",
"T.T.T.T.T.T.X 7 J Y o.e. .; X @ 6 6 6 w V N V V V V V V N V V N 6 # X X X X v o.{ R H - X T.T.T.T.T.",
"T.T.T.T.T.T.X X 7 J ~ ) t X X X X X X , 3 3 3 3 3 < 3 3 3 3 < > X O o X X o X y h h - X T.T.T.T.T.T.",
"T.T.T.T.T.T.T.X X : 7 * X X o X X X o X X X X X X X X X X X . X X O X T.T.T.X X . . X X T.T.T.T.T.T.",
"T.T.T.T.T.T.T.T.T.X X X X T.o X o X X X T.T.T.T.T.T.T.X o X o o X X T.T.T.T.T.T.T.T.T.T.T.T.T.T.T.T.",
"T.T.T.T.T.T.T.T.T.T.T.T.T.T.X X o X X T.T.T.T.T.T.T.T.T.o X X X O O T.T.T.T.T.T.T.T.T.T.T.T.T.T.T.T.",
"T.T.T.T.T.T.T.T.T.T.T.T.T.T.T.X X X o T.T.T.T.T.T.T.T.T.X X o o O T.T.T.T.T.T.T.T.T.T.T.T.T.T.T.T.T.",
"T.T.T.T.T.T.T.T.T.T.T.T.T.T.T.o X o X T.T.T.T.T.T.T.T.T.T.X O X T.T.T.T.T.T.T.T.T.T.T.T.T.T.T.T.T.T.",
"T.T.T.T.T.T.T.T.T.T.T.T.T.T.T.T.O X X T.T.T.T.T.T.T.T.T.T.o X X T.T.T.T.T.T.T.T.T.T.T.T.T.T.T.T.T.T.",
"T.T.T.T.T.T.T.T.T.T.T.T.T.T.T.X X X o T.T.T.T.T.T.T.T.T.T.X o X X T.T.T.T.T.T.T.T.T.T.T.T.T.T.T.T.T.",
"T.T.T.T.T.T.T.T.T.T.T.T.T.T.T.T.T.T.T.T.T.T.T.T.T.T.T.T.T.T.T.T.T.T.T.T.T.T.T.T.T.T.T.T.T.T.T.T.T.T.",
"T.T.T.T.T.T.T.T.T.T.T.T.T.T.T.T.T.T.T.T.T.T.T.T.T.T.T.T.T.T.T.T.T.T.T.T.T.T.T.T.T.T.T.T.T.T.T.T.T.T.",
"T.T.T.T.T.T.T.T.T.T.T.T.T.T.T.T.T.T.T.T.T.T.T.T.T.T.T.T.T.T.T.T.T.T.T.T.T.T.T.T.T.T.T.T.T.T.T.T.T.T.",
"T.T.T.T.T.T.T.T.T.T.T.T.T.T.T.T.T.T.T.T.T.T.T.T.T.T.T.T.T.T.T.T.T.T.T.T.T.T.T.T.T.T.T.T.T.T.T.T.T.T.",
"T.T.T.T.T.T.T.T.T.T.T.T.T.T.T.T.T.T.T.T.T.T.T.T.T.T.T.T.T.T.T.T.T.T.T.T.T.T.T.T.T.T.T.T.T.T.T.T.T.T."
};
