/* XPM */
static char *result[] = {
/* columns rows colors chars-per-pixel */
"50 50 202 2 ",
"   c #141A2D",
".  c #1A1E2F",
"X  c #191E31",
"o  c #1E2131",
"O  c #232534",
"+  c #272936",
"@  c #2C2A35",
"#  c #2B2B39",
"$  c #282736",
"%  c #312E36",
"&  c #322E3A",
"*  c #35323B",
"=  c #3B343B",
"-  c #3C393E",
";  c #373237",
":  c #2E303D",
">  c #433A3B",
",  c #493D3C",
"<  c #40373B",
"1  c #54443D",
"2  c #5B483E",
"3  c #4C403D",
"4  c #604B3E",
"5  c #242B40",
"6  c #2B2C43",
"7  c #2F2D49",
"8  c #302E4A",
"9  c #2D364B",
"0  c #323444",
"q  c #3C3640",
"w  c #3C3B43",
"e  c #3D3C48",
"r  c #2B3B52",
"t  c #453C44",
"y  c #4A3F43",
"u  c #413F48",
"i  c #2C4659",
"p  c #2E485A",
"a  c #3F4650",
"s  c #3D4348",
"d  c #3C4C6B",
"f  c #344966",
"g  c #34516B",
"h  c #385369",
"j  c #3B5A76",
"k  c #2F4A63",
"l  c #3B6D7C",
"z  c #376378",
"x  c #434446",
"c  c #4B4146",
"v  c #4A4449",
"b  c #52444A",
"n  c #53484C",
"m  c #5B4B4E",
"M  c #5A4746",
"N  c #55534D",
"B  c #4B4E53",
"V  c #5C4F50",
"C  c #4D575B",
"Z  c #5F5251",
"A  c #595B52",
"S  c #555653",
"D  c #634D43",
"F  c #674E48",
"G  c #6D5545",
"H  c #67564A",
"J  c #715746",
"K  c #755946",
"L  c #71564A",
"P  c #725948",
"I  c #795D49",
"U  c #7C5D46",
"Y  c #624D50",
"T  c #645253",
"R  c #6B5455",
"E  c #625A53",
"W  c #6C5B58",
"Q  c #695D58",
"!  c #715557",
"~  c #755B5A",
"^  c #7A5D5C",
"/  c #725758",
"(  c #78664F",
")  c #6C6256",
"_  c #6D635B",
"`  c #75645B",
"'  c #79645E",
"]  c #776658",
"[  c #7E725F",
"{  c #565E66",
"}  c #4D6161",
"|  c #7D6660",
" . c #726A68",
".. c #7E7E67",
"X. c #84634B",
"o. c #8A664B",
"O. c #8D694C",
"+. c #946E4D",
"@. c #9B724E",
"#. c #81615F",
"$. c #846851",
"%. c #976F52",
"&. c #877355",
"*. c #947551",
"=. c #9D7451",
"-. c #9C7953",
";. c #967E5B",
":. c #927855",
">. c #A17651",
",. c #A57B54",
"<. c #AB7D53",
"1. c #856561",
"2. c #8A6763",
"3. c #846C63",
"4. c #8D6A65",
"5. c #916E67",
"6. c #926F68",
"7. c #847362",
"8. c #8A7366",
"9. c #8E7967",
"0. c #94736A",
"q. c #9A766C",
"w. c #957A6C",
"e. c #9C7B6E",
"r. c #9F7E70",
"t. c #A07E6E",
"y. c #A17E70",
"u. c #AA8258",
"i. c #B28256",
"p. c #B5895B",
"a. c #8D876C",
"s. c #968469",
"d. c #8D8D70",
"f. c #9E8170",
"g. c #969474",
"h. c #A18C6E",
"j. c #A58373",
"k. c #A98674",
"l. c #AB8A75",
"z. c #AE8C78",
"x. c #B08E76",
"c. c #B18D79",
"v. c #AB9372",
"b. c #AD9178",
"n. c #B39277",
"m. c #B5937A",
"M. c #B9967C",
"N. c #B59B7D",
"B. c #BC9A7D",
"V. c #B29A75",
"C. c #BAA47C",
"Z. c #C19F7E",
"A. c #C3A77E",
"S. c #C7A97F",
"D. c #3C798A",
"F. c #3F718A",
"G. c #426A86",
"H. c #42738D",
"J. c #457C8A",
"K. c #437A92",
"L. c #447790",
"P. c #448397",
"I. c #43859A",
"U. c #448A9C",
"Y. c #488A99",
"T. c #4E9CA7",
"R. c #51A4AE",
"E. c #AFAC82",
"W. c #B8A883",
"Q. c #B4B184",
"!. c #C29F80",
"~. c #C6A481",
"^. c #C9A682",
"/. c #CDAB83",
"(. c #C6AD83",
"). c #D0AE83",
"_. c #C6B98A",
"`. c #D4B386",
"'. c #D8B687",
"]. c #D9B788",
"[. c #DDBB89",
"{. c #D7B988",
"}. c #D1BF90",
"|. c #E1BF8B",
" X c #DDC18D",
".X c #D5C391",
"XX c #D9CA95",
"oX c #D6D198",
"OX c #E3C28D",
"+X c #E4C790",
"@X c #E6CB92",
"#X c #E9CF95",
"$X c #E9D095",
"%X c #E1D59A",
"&X c #EAD699",
"*X c #EEDC9D",
"=X c #EDE4A3",
"-X c #F1E4A1",
";X c #F3EAA6",
":X c #F5EFA9",
">X c #F6F0A9",
",X c None",
/* pixels */
",X,X,X,X,X,X,X,X,X,X,X,X,X,X,X,X,X,X,X,X,X,X,X,X,X,X,X,X,X,X,X,X,X,X,X,X,X,X,X,X,X,X,X,X,X,X,X,X,X,X",
",X,X,X,X,X,X,X,X,X,X,X,X,X,X,X,X,X,X,X,X,X,X,X,X,X,X,X,X,X,X,X,X,X,X,X,X,X,X,X,X,X,X,X,X,X,X,X,X,X,X",
",X,X,X,X,X,X,X,X,X,X,X,X,X,X,X,X,X,X,X,X,X,X,X,X,X,X,X,X,X,X,X,X,X,X,X,X,X,X,X,X,X,X,X,X,X,X,X,X,X,X",
",X,X,X,X,X,X,X,X,X,X,X,X,X,X,X,X,X,X,X,X,X,X,X,X,X,X,X,X,X,X,X,X,X,X,X,X,X,X,X,X,X,X,X,X,X,X,X,X,X,X",
",X,X,X,X,X,X,X,X,X,X,X,X,X,X,X,X,X,X,X,X,X,X,X,X,X,X,X,X,X,X,X,X,X,X,X,X,X,X,X,X,X,X,X,X,X,X,X,X,X,X",
",X,X,X,X,X,X,X,X,X,X,X,X,X,X,X,X,X,X,X,X,X,X,X,X,X,X,X,X,X,X,X,X,X,X,X,X,X,X,X,X,X,X,X,X,X,X,X,X,X,X",
",X,X,X,X,X,X,X,X,X,X,X,X,X,X,X,X,X,X,X,Xo ,X,X,X,X,X,X,X,X,X,X,X,X,X,X,X,X,X,X,X,X,X,X,X,X,X,X,X,X,X",
",X,X,X,X,X,X,X,X,X,X,X,X,X,X,X,X,X,X,X,XE v.) h.A.A.h.) v.` ,X,X,X,X,X,X,X,X,X,X,X,X,X,X,X,X,X,X,X,X",
",X,X,X,X,X,X,X,X,X,X,X,X,X,X,X,X,X,X,Xw A.OX(.OX$X-X$XOXOXA.- ,X,X,X,X,X,X,X,X,X,X,X,X,X,X,X,X,X,X,X",
",X,X,X,X,X,X,X,X,X,X,X,X,X,X,X,X+ ' ' &.OXh.a.{.-X;X@X@X@XOX7.' ` + ,X,X,X,X,X,X,X,X,X,X,X,X,X,X,X,X",
",X,X,X,X,X,X,X,X,X,X,X,X,X,X,X: W e.t.l.OXB.j.(.;X>X*X@X$XOXB.j.w.W * ,X,X,X,X,X,X,X,X,X,X,X,X,X,X,X",
",X,X,X,X,X,X,X,X,X,X,X,X,XO v ~ z.k.j.`.OX'.x.(.=X>X&X@XOXOX'.e.j.z.W c O ,X,X,X,X,X,X,X,X,X,X,X,X,X",
",X,X,X,X,X,X,X,X,X,X,X,X,Xc e.z.z.k.t.~.OX+X@X+X;X;X@X].OXOXS.j.z.c.c.e.v ,X,X,X,X,X,X,X,X,X,X,X,X,X",
",X,X,X,X,X,X,X,X,X,X,X,Xm k.c.!.(.c.t.Z.OX$X&X@X;X;X.XV.S.OXS.t.c.).~.c.k.m ,X,X,X,X,X,X,X,X,X,X,X,X",
",X,X,X,X,X,X,X,X,X,Xt = T c.~.[.[.m.q.).OXOX@X*X;X=XB.B.|.OX|.t.c.[.[.B.c.T q y ,X,X,X,X,X,X,X,X,X,X",
",X,X,X,X,X,X,X,X* m 2.Y Q c.!.).|.M.j.).OXOXOX&X;X:X-XOX|.OXS.k.x.|.^.!.m.Q Y 2.m = ,X,X,X,X,X,X,X,X",
",X,X,X,X,X,X,X* Y 2.^ y e.z.m.]./.j.l.'.OX/.).*X>X;X;X*XOX[.B.e.c.).].c.c.e.y ^ 2.Y 0 ,X,X,X,X,X,X,X",
",X,X,X,X,X,X,X0 ^ 4.m v w.c.M.OX[.j.n.|.|.j.W.=X*X;X*X@XOX|.S.j.m.!.^.!.c.w.y m 5.^ * ,X,X,X,X,X,X,X",
",X,X,X,X,X,X,Xy 5.y.1.Y e.c.B.[.'.x.l.|.OX/.b..X;X;X-X[.].|.|.B.M.[.M.M.!.w.y 2.q.6.y ,X,X,X,X,X,X,X",
",X,X,X,X,X,XO / q.k.6./ j.~.B.~.).x.j.|.OXOX X=X:X:X=X}.n.|.|.B.M.|.].!.m.r.! 6.k.q.! # ,X,X,X,X,X,X",
",X,X,X,X,X,Xq 2.r.y.4.^ k.B.~.'.|.j.n.|.OXOXOX;X>X>X%Xb.x.|.|.x.c.'.'.B.M.k.^ 2.k.k.4.q ,X,X,X,X,X,X",
",X,X,X,X,X* R 4.k.y.^ 1.z.c.M.].|.n.M.@X+X).N.XX;X;XXXB.S.OX[.l.M.].|.M.z.z.1.~ y.k.4.V # ,X,X,X,X,X",
",X,X,X,X,X$ m 4.y.r.! ^ k.z.M.'.].M.k.}.+X`.n.N.=X>X*X+XOXOXOXW.x.|.[.^.c.k.^ ! y.k.4.b O ,X,X,X,X,X",
",X,X,X,X,Xq T 2.q.q.^ ^ k.B.M.Z.^.x.l.`.&X$XOX&X-X>X-X+X#X+X`.t.~.+X|.~.c.k.^ ^ q.y.2.^ u ,X,X,X,X,X",
",X,X,X,X,XO m 5.k.j.#.^ z.m.M./.|.^.v.@X*X=X=X=X:X>X=X-X*X*X+X| b.[.]./.m.z.^ ^ q.q.2.Y O ,X,X,X,X,X",
",X,X,X,X,X. R 4.y.j.Y | c.k.l.`.OXM.s.:XoX.Xd.d.E.E.d.d._.oX;XE f.`.].m.c.B.6.~ t.j.6.R   ,X,X,X,X,X",
",X,X,X,X,X. Y 5.k.t.b ' e.` v.[.&Xa.d.Q.N s o + y y + . s S Q.d.7.#X Xv.` w.| m e.j.q.R . ,X,X,X,X,X",
",X,X,X,X,X. R 5.k.0.b 8.3.u Q %X:X..A - 4 % 8 # F M 5 8 % 1 - A ..:X%X) c 3.8.c 4.q.5.R o ,X,X,X,X,X",
",X,X,X,X,X# #.4.t.Y V f.~.7.9.{.g.x * L J :.H # J ( + H :.G L ; x g.oXa.7.B.f.m Y e.4.#.# ,X,X,X,X,X",
",X,X,X,X,Xm 1.2.2.t c w.+X XC.a.. 8 6 = O.O.( v X.o.3 &.*.X.= 6 6 . g.C.OX`.w.c t 6.2.1.m ,X,X,X,X,X",
",X,X,X,Xq y ^ 2.2.` x C.{.s.m ; b D ( H 1 X.K ; G D ; X.o.1 H ( W 3 - A g./.V.w ^ 0.4.^ t q ,X,X,X,X",
",X,X,X,X,Xt 2.^ 0.j.E XXS.* ; D ( +.<.i.+.o.-.@.*.*.-.p.-.-.u.i.-.X.F > * V.].) 4.0.^ 2.t ,X,X,X,X,X",
",X,X,X,X# ! 1.b ' 0.` [ E w = b M G J J J J J P J G G J J J J J G F M c 7 u ` ` ~ | m 4.R $ ,X,X,X,X",
",X,X,X,XO c ! 3.k.8.u o 9 d d d # ; F # f g h h r i z g k f : F ; 6 d h C 9 O T w.k.3.| V O ,X,X,X,X",
",X,X,X,X. & t 3.w.= * # C H.H.L.i K @.s D.Y.P.T.h l R.U.D.D.s >.J i H.L.K.j & & e w.3.n t o ,X,X,X,X",
",X,X,X,X,X,X# O * * F = j K.P.H.i U <.- F.J.l P.h h P.P.l l - <.o.p U.P.K.j ; Y = * + : ,X,X,X,X,X,X",
",X,X,X,X,X,X,X  $ F o.y G.U.D.K.p 4 @.> H &.&.&.s.u.u.a.( 4 > ,.U i I.L.L.j > X.L %   ,X,X,X,X,X,X,X",
",X,X,X,X,X,X,X  , =.,.c j F.K.I.p 1 @.; M X.-.=.*.*.,.u.@.( ; O.2 p U.U.I.F.u @.%.>   ,X,X,X,X,X,X,X",
",X,X,X,X,X,X,X  M <.%.0 G.K.I.F.j 9 s 5 6 e B u % : s B v - # e 6 l I.F.D.F.7 @.<.1   ,X,X,X,X,X,X,X",
",X,X,X,X,X,X,X  D <.%.# r } } { } C B Q `  .{ { N B B B B E _ C B } } C C a $ @.,.D   ,X,X,X,X,X,X,X",
",X,X,X,X,X,X,X. O.@.@.@ I -.*.*.*.-.*.-.p.p.u.u.u.u.u.O.+.-.:.,.-.*.*.*.*.G $ =.o.X.. ,X,X,X,X,X,X,X",
",X,X,X,X,X,X,X. J U <.1 K =.@.o.*.@.+.>.i.<.,.<.O.O.X.+.>.<.*.@.<.+.+.+.,.X.; o.I o.. ,X,X,X,X,X,X,X",
",X,X,X,X,X,X,X. @ ; G @ ; D G D , I *.>.O.X.D 4 3 2 > 4 *.<.i.@.K , D G D < @ , < 1 . ,X,X,X,X,X,X,X",
",X,X,X,X,X,X,X,X,X,X,X,X,X,X,X,X,X,X,X,X,X,X,X,X,X,X,X,X,X,X,X,X,X,X,X,X,X,X,X,X,X,X,X,X,X,X,X,X,X,X",
",X,X,X,X,X,X,X,X,X,X,X,X,X,X,X,X,X,X,X,X,X,X,X,X,X,X,X,X,X,X,X,X,X,X,X,X,X,X,X,X,X,X,X,X,X,X,X,X,X,X",
",X,X,X,X,X,X,X,X,X,X,X,X,X,X,X,X,X,X,X,X,X,X,X,X,X,X,X,X,X,X,X,X,X,X,X,X,X,X,X,X,X,X,X,X,X,X,X,X,X,X",
",X,X,X,X,X,X,X,X,X,X,X,X,X,X,X,X,X,X,X,X,X,X,X,X,X,X,X,X,X,X,X,X,X,X,X,X,X,X,X,X,X,X,X,X,X,X,X,X,X,X",
",X,X,X,X,X,X,X,X,X,X,X,X,X,X,X,X,X,X,X,X,X,X,X,X,X,X,X,X,X,X,X,X,X,X,X,X,X,X,X,X,X,X,X,X,X,X,X,X,X,X",
",X,X,X,X,X,X,X,X,X,X,X,X,X,X,X,X,X,X,X,X,X,X,X,X,X,X,X,X,X,X,X,X,X,X,X,X,X,X,X,X,X,X,X,X,X,X,X,X,X,X",
",X,X,X,X,X,X,X,X,X,X,X,X,X,X,X,X,X,X,X,X,X,X,X,X,X,X,X,X,X,X,X,X,X,X,X,X,X,X,X,X,X,X,X,X,X,X,X,X,X,X"
};
