/* XPM */
static char *result[] = {
/* columns rows colors chars-per-pixel */
"50 50 162 2 ",
"   c #0F162A",
".  c #11172B",
"X  c #151B2D",
"o  c #191E2F",
"O  c #171D31",
"+  c #1C2132",
"@  c #1D253B",
"#  c #232634",
"$  c #262935",
"%  c #292B36",
"&  c #2C2E39",
"*  c #302F3A",
"=  c #2E303A",
"-  c #32343D",
";  c #232C45",
":  c #252E48",
">  c #29334E",
",  c #3B3D43",
"<  c #363A47",
"1  c #2B3552",
"2  c #2E3857",
"3  c #2F3A59",
"4  c #323D5E",
"5  c #333F60",
"6  c #423D42",
"7  c #234052",
"8  c #364365",
"9  c #39466A",
"0  c #3B496C",
"q  c #2F5C6F",
"w  c #3E4D73",
"e  c #3F5277",
"r  c #3F5679",
"t  c #3F5B7D",
"y  c #4C4546",
"u  c #4D4947",
"i  c #4B4C4C",
"p  c #434447",
"a  c #554A4C",
"s  c #594E4D",
"d  c #5C534D",
"f  c #5E5250",
"g  c #5D5952",
"h  c #61574F",
"j  c #63594F",
"k  c #655A52",
"l  c #6B5C55",
"z  c #6F5D58",
"x  c #6E6356",
"c  c #626058",
"v  c #6B695F",
"b  c #716456",
"n  c #776A59",
"m  c #7A6C5B",
"M  c #79655C",
"N  c #404E75",
"B  c #415077",
"V  c #40557A",
"C  c #5D616D",
"Z  c #6E6C61",
"A  c #716F62",
"S  c #7A7463",
"D  c #83735E",
"F  c #816B60",
"G  c #8F7567",
"H  c #8B7962",
"J  c #837E6C",
"K  c #907567",
"L  c #917668",
"P  c #95796A",
"I  c #9A7D6C",
"U  c #85816E",
"Y  c #938065",
"T  c #9D816C",
"R  c #9D896A",
"E  c #8A8570",
"W  c #8D8872",
"Q  c #8D887C",
"!  c #938C75",
"~  c #A0836E",
"^  c #A38C6C",
"/  c #A5906F",
"(  c #A48770",
")  c #A68971",
"_  c #AA8D72",
"`  c #A39576",
"'  c #AE9373",
"]  c #A59C7E",
"[  c #B39575",
"{  c #B59B75",
"}  c #B99D77",
"|  c #BB9C78",
" . c #BBA077",
".. c #BFA07A",
"X. c #C4A57C",
"o. c #C7A87D",
"O. c #CCAC7F",
"+. c #3F6382",
"@. c #3E6D88",
"#. c #3B6D85",
"$. c #3E738C",
"%. c #3E7C91",
"&. c #3E8496",
"*. c #3E8698",
"=. c #949490",
"-. c #ABA384",
";. c #B0A887",
":. c #B5AC89",
">. c #BCB28D",
",. c #B0B3BA",
"<. c #C0AC83",
"1. c #CEAE80",
"2. c #CEB081",
"3. c #C0B68F",
"4. c #CBB488",
"5. c #D4B482",
"6. c #D8B784",
"7. c #D6B886",
"8. c #D9B986",
"9. c #D7BB89",
"0. c #D9BC89",
"q. c #C6BC94",
"w. c #DDC28F",
"e. c #CDC398",
"r. c #D7C496",
"t. c #DEC692",
"y. c #D3C79A",
"u. c #D6CA9C",
"i. c #DBCB9B",
"p. c #E2CA96",
"a. c #E4CE99",
"s. c #E7D39E",
"d. c #E9D59F",
"f. c #E2D6A5",
"g. c #E9D6A1",
"h. c #E6D9A6",
"j. c #EBDBA5",
"k. c #EEDFA8",
"l. c #F1DEA7",
"z. c #EFE1AB",
"x. c #F3E4AD",
"c. c #F7E8AF",
"v. c #F1E4B2",
"b. c #F2E6BA",
"n. c #F2E8BF",
"m. c #F9EDBF",
"M. c #E3DFD2",
"N. c #F3E9C2",
"B. c #F4ECCB",
"V. c #F6EFD3",
"C. c #F0ECDC",
"Z. c #F7F0D7",
"A. c #F7F1D9",
"S. c #F9F3DD",
"D. c #EBEBED",
"F. c #F9F4E1",
"G. c #FAF7EA",
"H. c #FBF8EC",
"J. c #F7F6F0",
"K. c #FDFBF5",
"L. c #FEFEFE",
"P. c None",
/* pixels */
"P.P.P.P.P.P.P.P.P.P.P.P.P.P.P.P.P.P.P.P.P.P.P.P.P.P.P.P.P.P.P.P.P.P.P.P.P.P.P.P.P.P.P.P.P.P.P.P.P.P.",
"P.P.P.P.P.P.P.P.P.P.P.P.P.P.P.P.P.P.P.P.P.P.P.P.P.P.P.P.P.P.P.P.P.P.P.P.P.P.P.P.P.P.P.P.P.P.P.P.P.P.",
"P.P.P.P.P.P.P.P.P.P.P.P.P.P.P.P.o X X X X . X X X . X X X X P.P.P.P.P.P.P.P.P.P.P.P.P.P.P.P.P.P.P.P.",
"P.P.P.P.P.P.P.P.P.P.P.P.P.P.X X X X + - ` ;.;.;.;.;.;.W # X X X P.P.P.P.P.P.P.P.P.P.P.P.P.P.P.P.P.P.",
"P.P.P.P.P.P.P.P.P.P.P.P.P.P.X X & < ,.M.x.x.x.x.x.x.x.j.u.v X . X P.P.P.P.P.P.P.P.P.P.P.P.P.P.P.P.P.",
"P.P.P.P.P.P.P.P.P.P.P.P.X X . g r.C.G.v.z.k.z.z.x.z.z.z.z.h.Z , . P.P.P.P.P.P.P.P.P.P.P.P.P.P.P.P.P.",
"P.P.P.P.P.P.P.P.P.P.P.X X 6 S f.S.L.N.z.z.z.z.z.z.z.z.z.z.z.x.y.i . P.P.P.P.P.P.P.P.P.P.P.P.P.P.P.P.",
"P.P.P.P.P.P.P.P.P.P.P.X   m x.S.L.L.N.k.z.k.z.z.z.z.z.z.z.z.z.m.=.. X P.P.P.P.P.P.P.P.P.P.P.P.P.P.P.",
"P.P.P.P.P.P.P.P.P.P.X X u X.h.K.L.L.J.S.v.v.z.z.z.z.z.z.z.z.z.N.D.C X X P.P.P.P.P.P.P.P.P.P.P.P.P.P.",
"P.P.P.P.P.P.P.P.P.P.X & X.p.z.K.F.A.L.F.B.K.b.k.B.A.z.k.j.A.b.N.L.D.< & X P.P.P.P.P.P.P.P.P.P.P.P.P.",
"P.P.P.P.P.P.P.P.P.X X & O.p.x.K.F.A.L.v.B.L.b.v.A.L.b.z.v.G.b.b.S.J.W Y X P.P.P.P.P.P.P.P.P.P.P.P.P.",
"P.P.P.P.P.P.P.P.P.X X n 2.a.z.A.F.n.V.v.v.G.N.b.L.L.b.z.B.L.b.z.x.N.v.^ X X P.P.P.P.P.P.P.P.P.P.P.P.",
"P.P.P.P.P.P.P.P.X o +  .5.p.z.z.b.j.z.z.z.v.v.z.N.N.z.z.V.S.z.z.z.z.z.] X o P.P.P.P.P.P.P.P.P.P.P.P.",
"P.P.P.P.P.P.P.P.X y 6 { 5.p.z.z.z.a.s.z.z.z.z.z.z.z.z.z.v.z.z.z.z.z.x.:.+ X X P.P.P.P.P.P.P.P.P.P.P.",
"P.P.P.P.P.P.P.X X a f } 5.p.x.z.z.p.s.z.z.z.z.z.k.z.z.z.z.z.z.h.z.z.x.d.b . X P.P.P.P.P.P.P.P.P.P.P.",
"P.P.P.P.P.P.P.X . a I O.5.a.g.k.z.t.s.z.z.z.z.z.z.g.j.z.z.z.j.w.z.z.z.k.S   X P.P.P.P.P.P.P.P.P.P.P.",
"P.P.P.P.P.P.X X . a I 1.5.0.9.j.z.j.j.z.z.z.z.z.z.t.g.z.z.z.j.t.z.z.z.z.q.- . P.P.P.P.P.P.P.P.P.P.P.",
"P.P.P.P.P.P.X X O s I 1.5.5.6.j.z.z.z.z.z.z.z.x.z.t.g.z.z.z.j.t.z.z.z.z.c.x . X P.P.P.P.P.P.P.P.P.P.",
"P.P.P.P.P.P.X X * K I X.6.5.5.g.z.p.g.z.k.z.z.z.z.t.g.z.x.z.k.g.z.z.h.x.a.X.= X P.P.P.P.P.P.P.P.P.P.",
"P.P.P.P.P.X X O l ( P I X.1.1.9.s.w.g.z.x.z.z.z.k.w.a.z.k.z.j.t.z.z.w.j.w.O.= X o P.P.P.P.P.P.P.P.P.",
"P.X X X X X X b 5.o.( L _ { X.6.5.5.g.s.z.z.z.z.s.5.5.a.z.k.a.7.d.x.w.w.O.| s X X X P.P.P.P.P.P.P.P.",
"P.X A -.-.-.-.t.5.5._ P I ~ ..5.5.5.0.7.w.t.g.x.a.5.5.5.t.w.5.5.8.t.6.o.X._ T b o + + X X X o P.P.P.",
"P.X W c.v.x.x.k.9.5.1.( I I T O.2.5.5.5.5.5.8.0.7.5.5.1.5.O.5.5.6.O.O.| I ~ O.O.<.e.;.= = + X P.P.P.",
"P.X + ] k.k.x.j.a.6.5.5.5.} ( ) } 5.5.5.O.O.2.5.5.5.1.) 1.h H o.o.6.O._ ) o.8.8.p.z.z.f.h.i   P.P.P.",
"P.P.X & r.s.a.5.H D :.8.5.6.5.5.5.5.5.[ ' [ o.1.| | { I F * # L P X.5.5.5.O.D ^ 8.p.g.x.3.- X P.P.P.",
"P.P.X + d Y 5.x X i r.0.5.5.5.5.5.5.5.I _ o.1.5.| | T T f . o k | O.5.9.s.0.m * l j l n 7 . P.P.P.P.",
"P.P.P.X   $ u # i u.x.0.R ! d.8.5.5.5.) 1.5.5.5.5.5.1.) $ X X o D 6.8.j.x.h.8.m o o X   o P.P.P.P.P.",
"P.P.P.P.P.X S u.h.x.4.R $ ! c.l.x.p.5.{ } { 5.w.0.0.0.Y X X X O o H j.v.x.x.x.s.2./ $ o o P.P.P.P.P.",
"P.P.P.P.P.P.+ ! -.` 6 + W x.v.j.-.<.^ $ o o U >.x.x.-.# X @ ; X . o ! -.-.-.-.-.-.p . X P.P.P.P.P.P.",
"P.P.P.P.P.P.X X X X X $ J U U Z , S & X X X . & J J & X @ 9 0 1 1 @ X .   X . X . X X P.P.P.P.P.P.P.",
"P.P.P.P.P.P.P.P.X o X X .   . . - , . $ l l % X . . X @ 9 N N B B 8 + X X X o X X P.P.P.P.P.P.P.P.P.",
"P.P.P.P.P.P.P.P.P.X o X X X X O X X # M I } [ * X X O 9 N N V @.e w 0 2 X X X P.P.P.P.P.P.P.P.P.P.P.",
"P.P.P.P.P.P.P.P.P.P.X X O X # w 4 X l P _ 5.6.^ o X 8 N e t %.%.e e V 8 X X X P.P.P.P.P.P.P.P.P.P.P.",
"P.P.P.P.P.P.P.P.P.P.o X X X > w 4 X M P [ 6.6.' o X 8 t $.*.*.*.$.t e 8 X X o P.P.P.P.P.P.P.P.P.P.P.",
"P.P.P.P.P.P.P.P.P.P.X X X X O 9 4 X 6 L ~ o.O.h X 7 #.*.&.&.&.&.*.$.0 ; X o P.P.P.P.P.P.P.P.P.P.P.P.",
"P.P.P.P.P.P.P.P.P.P.P.X O X O ; 9 : X 6 G P d X X q *.&.&.&.&.&.$.w ; X X P.P.P.P.P.P.P.P.P.P.P.P.P.",
"P.P.P.P.P.P.P.P.P.P.P.P.X X X X : 9 @ X # # X + > B V V V V V e 9 ; X X X P.P.P.P.P.P.P.P.P.P.P.P.P.",
"P.P.P.P.P.P.P.P.P.P.P.P.P.X X X X o X X X X O 4 4 8 3 8 4 8 8 > o o X X P.P.P.P.P.P.P.P.P.P.P.P.P.P.",
"P.P.P.P.P.P.P.P.P.P.P.P.P.P.X o O X X X X O X X X X X X X X X X X X X P.P.P.P.P.P.P.P.P.P.P.P.P.P.P.",
"P.P.P.P.P.P.P.P.P.P.P.P.P.P.P.X X X o X o X X O X X X X X X X o X o o P.P.P.P.P.P.P.P.P.P.P.P.P.P.P.",
"P.P.P.P.P.P.P.P.P.P.P.P.P.P.O X X O X o X X P.P.P.P.P.P.P.P.P.O X X X X P.P.P.P.P.P.P.P.P.P.P.P.P.P.",
"P.P.P.P.P.P.P.P.P.P.P.P.P.X X o o X X X X o P.P.P.P.P.P.P.P.P.P.+ X o O P.P.P.P.P.P.P.P.P.P.P.P.P.P.",
"P.P.P.P.P.P.P.P.P.P.P.P.P.X X X X X X X X P.P.P.P.P.P.P.P.P.P.P.X X X X X P.P.P.P.P.P.P.P.P.P.P.P.P.",
"P.P.P.P.P.P.P.P.P.P.P.P.P.P.X o o P.P.P.P.P.P.P.P.P.P.P.P.P.P.P.P.X o X X o P.P.P.P.P.P.P.P.P.P.P.P.",
"P.P.P.P.P.P.P.P.P.P.P.P.P.P.P.P.P.P.P.P.P.P.P.P.P.P.P.P.P.P.P.P.P.P.X X X X P.P.P.P.P.P.P.P.P.P.P.P.",
"P.P.P.P.P.P.P.P.P.P.P.P.P.P.P.P.P.P.P.P.P.P.P.P.P.P.P.P.P.P.P.P.P.P.P.P.P.P.P.P.P.P.P.P.P.P.P.P.P.P.",
"P.P.P.P.P.P.P.P.P.P.P.P.P.P.P.P.P.P.P.P.P.P.P.P.P.P.P.P.P.P.P.P.P.P.P.P.P.P.P.P.P.P.P.P.P.P.P.P.P.P.",
"P.P.P.P.P.P.P.P.P.P.P.P.P.P.P.P.P.P.P.P.P.P.P.P.P.P.P.P.P.P.P.P.P.P.P.P.P.P.P.P.P.P.P.P.P.P.P.P.P.P.",
"P.P.P.P.P.P.P.P.P.P.P.P.P.P.P.P.P.P.P.P.P.P.P.P.P.P.P.P.P.P.P.P.P.P.P.P.P.P.P.P.P.P.P.P.P.P.P.P.P.P.",
"P.P.P.P.P.P.P.P.P.P.P.P.P.P.P.P.P.P.P.P.P.P.P.P.P.P.P.P.P.P.P.P.P.P.P.P.P.P.P.P.P.P.P.P.P.P.P.P.P.P."
};
