/* XPM */
static char *result[] = {
/* columns rows colors chars-per-pixel */
"50 50 167 2 ",
"   c #0F152A",
".  c #0E1427",
"X  c #11172B",
"o  c #151B2D",
"O  c #181E2F",
"+  c #191F31",
"@  c #1C2132",
"#  c #1D253A",
"$  c #232634",
"%  c #252835",
"&  c #292B37",
"*  c #212738",
"=  c #262A38",
"-  c #2B2D39",
";  c #2E313B",
":  c #32313B",
">  c #39363E",
",  c #3B393E",
"<  c #232B44",
"1  c #28324D",
"2  c #363940",
"3  c #3D3A41",
"4  c #2E3957",
"5  c #2F3A58",
"6  c #2C3653",
"7  c #333F5F",
"8  c #423D42",
"9  c #2E425D",
"0  c #364264",
"q  c #384467",
"w  c #3A466A",
"e  c #324865",
"r  c #3E4D72",
"t  c #385875",
"y  c #3F5D7D",
"u  c #3C5576",
"i  c #444145",
"p  c #4B4646",
"a  c #4F4946",
"s  c #4D4E4D",
"d  c #454749",
"f  c #534B4A",
"g  c #594D4E",
"h  c #5C544D",
"j  c #474A54",
"k  c #545452",
"l  c #595955",
"z  c #655C51",
"x  c #6D5F55",
"c  c #6F5E58",
"v  c #705E58",
"b  c #64635B",
"n  c #6B6458",
"m  c #7B675D",
"M  c #776958",
"N  c #7C6D5C",
"B  c #706456",
"V  c #414F76",
"C  c #415077",
"Z  c #415078",
"A  c #6C6B66",
"S  c #736F61",
"D  c #797566",
"F  c #7C7868",
"G  c #777566",
"H  c #806F5E",
"J  c #83735E",
"K  c #867660",
"L  c #8D7366",
"P  c #8C7B63",
"I  c #917F65",
"U  c #957A6A",
"Y  c #997C6C",
"T  c #87816D",
"R  c #968366",
"E  c #9D826C",
"W  c #9E8A6B",
"Q  c #8E8973",
"!  c #8B8671",
"~  c #928C75",
"^  c #9C967B",
"/  c #A28C6D",
"(  c #A2866F",
")  c #A7906E",
"_  c #A48770",
"`  c #A78A71",
"'  c #AA8D72",
"]  c #AE9174",
"[  c #A29B7E",
"{  c #B39575",
"}  c #B49976",
"|  c #B89B77",
" . c #BB9C79",
".. c #B19D79",
"X. c #BCA177",
"o. c #BEA27A",
"O. c #C3A47C",
"+. c #C7A87D",
"@. c #CAAB7E",
"#. c #3F5F80",
"$. c #3F6483",
"%. c #387185",
"&. c #3E768E",
"*. c #3E7C92",
"=. c #406282",
"-. c #3E8296",
";. c #3D8798",
":. c #3E8899",
">. c #A59E80",
",. c #ABA384",
"<. c #B0A786",
"1. c #B4AC89",
"2. c #BBB296",
"3. c #A6A9B0",
"4. c #ABAEB6",
"5. c #CEAF80",
"6. c #C1B28B",
"7. c #CCB689",
"8. c #D4B482",
"9. c #D8B784",
"0. c #D7B986",
"q. c #D9B986",
"w. c #DABD8A",
"e. c #C4BA92",
"r. c #C9BD93",
"t. c #D7C08F",
"y. c #DCC18E",
"u. c #CEC498",
"i. c #DEC591",
"p. c #D9CC9E",
"a. c #D1C69A",
"s. c #E0CA96",
"d. c #E4CE99",
"f. c #E2C792",
"g. c #E6D29D",
"h. c #E9D39C",
"j. c #D4C6A2",
"k. c #DBCFA0",
"l. c #DCD0A0",
"z. c #E8D6A1",
"x. c #EBDAA4",
"c. c #EDDEA9",
"v. c #E4D7A5",
"b. c #F0DFA8",
"n. c #EFE1AB",
"m. c #F3E4AC",
"M. c #F6E8AF",
"N. c #EFE2B4",
"B. c #F1E4B3",
"V. c #F7E8B0",
"C. c #F8E9B0",
"Z. c #F1E5B9",
"A. c #D8D9DD",
"S. c #F3E9C2",
"D. c #F5ECCB",
"F. c #F9F0CF",
"G. c #F6EED1",
"H. c #F7F0D5",
"J. c #F7F1D9",
"K. c #F8F3DD",
"L. c #FAF5E4",
"P. c #FBF7EA",
"I. c #FBF9EE",
"U. c #FDFBF3",
"Y. c #FEFEFD",
"T. c #F2F3F4",
"R. c None",
/* pixels */
"R.R.R.R.R.R.R.R.R.R.R.R.R.R.R.R.R.R.R.R.R.R.R.R.R.R.R.R.R.R.R.R.R.R.R.R.R.R.R.R.R.R.R.R.R.R.R.R.R.R.",
"R.R.R.R.R.R.R.R.R.R.R.R.R.R.R.R.R.R.R.o o o X             o o R.R.R.R.R.R.R.R.R.R.R.R.R.R.R.R.R.R.R.",
"R.R.R.R.R.R.R.R.R.R.R.R.R.R.R.R.R.o O o . a D D D D D G F d   o o R.R.R.R.R.R.R.R.R.R.R.R.R.R.R.R.R.",
"R.R.R.R.R.R.R.R.R.R.R.R.R.R.R.o o o X j 3.a.m.m.M.M.M.M.C.r.~ ; o o R.R.R.R.R.R.R.R.R.R.R.R.R.R.R.R.",
"R.R.R.R.R.R.R.R.R.R.R.R.R.o o o @ K 2.A.L.V.n.c.n.n.n.n.n.m.m.1.& @ o R.R.R.R.R.R.R.R.R.R.R.R.R.R.R.",
"R.R.R.R.R.R.R.R.R.R.R.R.o o @ & ~ N.U.P.n.n.n.n.n.n.n.n.n.n.n.n.p.~ @ o R.R.R.R.R.R.R.R.R.R.R.R.R.R.",
"R.R.R.R.R.R.R.R.R.R.R.R.O X 8 t.N.I.Y.L.c.n.n.n.n.n.n.n.n.n.n.n.m.B.A   o R.R.R.R.R.R.R.R.R.R.R.R.R.",
"R.R.R.R.R.R.R.R.R.R.R.o o O M i.L.Y.Y.I.D.N.n.n.n.n.n.n.n.n.n.n.n.F.4.* o o R.R.R.R.R.R.R.R.R.R.R.R.",
"R.R.R.R.R.R.R.R.R.R.R.o O M q.h.K.Y.J.Y.Y.D.D.D.n.n.D.n.n.n.n.D.n.D.Y.3.* o R.R.R.R.R.R.R.R.R.R.R.R.",
"R.R.R.R.R.R.R.R.R.R.R.o @ X.y.n.J.Y.S.Y.L.B.U.P.n.n.P.K.n.n.n.L.n.D.Y.T.j x o R.R.R.R.R.R.R.R.R.R.R.",
"R.R.R.R.R.R.R.R.R.R.o o % | y.n.J.Y.S.Y.G.c.I.I.n.D.Y.U.n.n.J.U.n.N.Z.P.a.W o R.R.R.R.R.R.R.R.R.R.R.",
"R.R.R.R.R.R.R.R.R.R.o o I 8.w.n.n.K.B.N.n.n.Z.K.n.H.U.P.n.c.L.U.n.c.n.n.m.W o o R.R.R.R.R.R.R.R.R.R.",
"R.R.R.R.R.R.R.R.R.o $ % E 9.y.n.n.n.c.x.n.n.n.n.n.n.n.n.n.n.G.Z.n.n.n.n.M.,.X o R.R.R.R.R.R.R.R.R.R.",
"R.R.R.R.R.R.R.R.R.o 8 f R 9.y.n.n.n.z.i.n.n.n.n.n.n.n.n.n.n.n.c.n.n.n.n.m.r., o o R.R.R.R.R.R.R.R.R.",
"R.R.R.R.R.R.R.R.o o 8 m { 8.y.n.n.n.z.i.n.n.n.n.n.n.n.n.n.n.n.n.c.g.n.n.n.x.N   O R.R.R.R.R.R.R.R.R.",
"R.R.R.R.R.R.R.R.o o 8 Y O.8.y.g.z.n.z.i.n.n.n.n.n.n.n.i.n.n.n.n.h.y.n.n.n.m.T o o R.R.R.R.R.R.R.R.R.",
"R.R.R.R.R.R.R.O o o 8 Y O.9.8.9.d.n.n.c.n.n.m.n.n.n.c.y.c.n.n.n.z.i.n.m.c.n.v.k X o R.R.R.R.R.R.R.R.",
"R.R.R.R.R.R.R.o o O f U O.8.8.8.g.n.c.x.n.n.n.n.n.n.c.y.c.n.n.n.z.d.c.N.n.n.b.D O o R.R.R.R.R.R.R.R.",
"R.R.R.R.R.R.R.o o % U U { 8.8.8.i.c.x.i.n.n.n.n.n.n.n.y.n.n.n.n.c.z.n.c.z.n.d.5.> o R.R.R.R.R.R.R.R.",
"R.R.O o o R.o o O N ' U U { @.O.8.i.i.i.n.n.n.n.n.n.d.q.g.n.n.n.z.i.m.c.w.x.w.8.> o o R.R.R.R.R.R.R.",
"R.R.o o O o O o N 8.8.' U E o.' 8.8.5.i.g.z.n.n.n.n.y.@.8.g.n.c.i.9.z.c.w.w.8.| c @ o o R.R.R.R.R.R.",
"R.R.o ~ e.e.e.e.g.8.8.| U Y E { 8.8.8.q.q.q.w.i.n.n.y.8.8.q.w.w.8.8.0.w.8.O.| ' ( J $ $ % o X o o R.",
"R.R.o ^ B.m.n.m.c.w.8.8.{ ( R R | 5.8.8.8.8.8.8.9.9.8.9.8.@.8.o.8.8.8.8.8. .U ( @.@.0.l.a.s > = o R.",
"R.R.o @ >.n.n.m.x.h.q.8.@.8.@.) ` ] 5.8.8.@.5.+.9.@.9.9.O.] O.i W O.O.5.8.' ` O.9.9.y.n.m.c.n.! X R.",
"R.R.o o : s.g.d.0.T M ..9.@.8.8.@.q.@.@.+./ +.] 9.+.| | { Y x $ : U U +.9.8.8.8.P R q.f.h.M.p.l X R.",
"R.R.R.o $ h R 9.S X , u.f.@.9.8.q.@.f.f.{ U +.@.@.O.X.X.U Y 8 . @ M  .@.8.w.d.w.J % z z z S k o R.R.",
"R.R.R.R.o   & a $ 2 e.m.f.X.N z.f.@.@.@.} { y.@.9.@.y.@.+.H @ o o $ E 9.q.z.m.z.w.J o o o   X o R.R.",
"R.R.R.R.R.R.o D u.p.M.i.X.i l m.b.M.x.q.@.@.@.@.y.9.@.y.9.B . o o o % / x.m.m.m.m.h.o.{ , o o R.R.R.",
"R.R.R.R.R.R.R.$ [ e.1.z @ k v.M.C.t.1.@.@.y.y.n.c.n.n.n.Q O o @ @ o X = <.e.e.2.e.e.r.n o o o R.R.R.",
"R.R.R.R.R.R.R.o O + @ O + ~ [ [ ..8 N d.i.h.m.m.M.u.[ Q @ o * w q < < + o O O O o o @ o o o R.R.R.R.",
"R.R.R.R.R.R.R.R.o o o o o X X X X @ F ..m.m.M.p.T 9   X o < w =.$.V r 7 o o o o o o o o R.R.R.R.R.R.",
"R.R.R.R.R.R.R.R.o o O O o O o o O o X ; b b n h . . o o # y =.:.-.&.y V 9 1 o o O O o o o R.R.R.R.R.",
"R.R.R.R.R.R.R.R.o o 8 S H : o o 1 q + X     X X o + + e %.-.;.;.;.;.-.&.r # o @ R / H 8 o o R.R.R.R.",
"R.R.R.R.R.R.R.o o > L Y  .{ : X 4 r q # # @ + + # 9 u *.;.;.;.;.;.;.-.y 0 o @ P 9.8. .L > o R.R.R.R.",
"R.R.R.R.R.R.R.o @ J U { 8.9.( o + q Z r r r r r #.&.&.&.&.&.&.&.&.&.=.0 @   B q.8.8.o.U > o R.R.R.R.",
"R.R.R.R.R.R.R.o $ L U | 9.9.) o o 1 4 4 q Z Z V V Z Z r V V C V Z q 4 # o o p o.q.8.] Y > o R.R.R.R.",
"R.R.R.R.R.R.R.o O g U _ @.@.h o o o o o # 1 1 1 1 1 1 1 1 1 1 1 1 < o o o o o p ' ' Y c $ R.R.R.R.R.",
"R.R.R.R.R.R.R.R.o o g U ( f o o o O o o o o o o o X o o o o o o o o o o o O o o : > 3 $ X R.R.R.R.R.",
"R.R.R.R.R.R.R.R.R.o O - & o o o R.o o o o o o o o o R.R.R.o o O o o o O R.R.R.o o o o o R.R.R.R.R.R.",
"R.R.R.R.R.R.R.R.R.R.o o o o R.R.O o O o o o O o o o R.R.R.R.o o o o o R.R.R.R.R.R.R.R.R.R.R.R.R.R.R.",
"R.R.R.R.R.R.R.R.R.R.R.R.R.R.R.R.O o o o O o O o o R.R.R.R.O O o o o o R.R.R.R.R.R.R.R.R.R.R.R.R.R.R.",
"R.R.R.R.R.R.R.R.R.R.R.R.R.R.R.R.o o O R.R.R.R.R.R.R.R.R.o o o o o R.R.R.R.R.R.R.R.R.R.R.R.R.R.R.R.R.",
"R.R.R.R.R.R.R.R.R.R.R.R.R.R.R.R.R.o + R.R.R.R.R.R.R.R.R.R.o O o + R.R.R.R.R.R.R.R.R.R.R.R.R.R.R.R.R.",
"R.R.R.R.R.R.R.R.R.R.R.R.R.R.R.R.R.R.R.R.R.R.R.R.R.R.R.R.R.R.R.R.R.R.R.R.R.R.R.R.R.R.R.R.R.R.R.R.R.R.",
"R.R.R.R.R.R.R.R.R.R.R.R.R.R.R.R.R.R.R.R.R.R.R.R.R.R.R.R.R.R.R.R.R.R.R.R.R.R.R.R.R.R.R.R.R.R.R.R.R.R.",
"R.R.R.R.R.R.R.R.R.R.R.R.R.R.R.R.R.R.R.R.R.R.R.R.R.R.R.R.R.R.R.R.R.R.R.R.R.R.R.R.R.R.R.R.R.R.R.R.R.R.",
"R.R.R.R.R.R.R.R.R.R.R.R.R.R.R.R.R.R.R.R.R.R.R.R.R.R.R.R.R.R.R.R.R.R.R.R.R.R.R.R.R.R.R.R.R.R.R.R.R.R.",
"R.R.R.R.R.R.R.R.R.R.R.R.R.R.R.R.R.R.R.R.R.R.R.R.R.R.R.R.R.R.R.R.R.R.R.R.R.R.R.R.R.R.R.R.R.R.R.R.R.R.",
"R.R.R.R.R.R.R.R.R.R.R.R.R.R.R.R.R.R.R.R.R.R.R.R.R.R.R.R.R.R.R.R.R.R.R.R.R.R.R.R.R.R.R.R.R.R.R.R.R.R.",
"R.R.R.R.R.R.R.R.R.R.R.R.R.R.R.R.R.R.R.R.R.R.R.R.R.R.R.R.R.R.R.R.R.R.R.R.R.R.R.R.R.R.R.R.R.R.R.R.R.R."
};
