/* XPM */
static char *result[] = {
/* columns rows colors chars-per-pixel */
"50 50 166 2 ",
"   c #080F26",
".  c #0E152A",
"X  c #10172B",
"o  c #151B2D",
"O  c #191E2F",
"+  c #171E31",
"@  c #191F30",
"#  c #1D2232",
"$  c #1E263D",
"%  c #232634",
"&  c #252835",
"*  c #2A2B37",
"=  c #20283F",
"-  c #2A2C38",
";  c #2F333D",
":  c #33343C",
">  c #3A393E",
",  c #3B373F",
"<  c #212941",
"1  c #252E48",
"2  c #27304B",
"3  c #29324E",
"4  c #2B3142",
"5  c #3B3B42",
"6  c #2B3552",
"7  c #2E3856",
"8  c #323E5E",
"9  c #333F60",
"0  c #433E43",
"q  c #3E4045",
"w  c #354364",
"e  c #3B496D",
"r  c #364A69",
"t  c #3E4D72",
"y  c #3C5475",
"u  c #3F5579",
"i  c #3F5B7D",
"p  c #454143",
"a  c #4C4645",
"s  c #434548",
"d  c #4E4648",
"f  c #4B4B4B",
"g  c #47494A",
"h  c #554D4A",
"j  c #5B4F4E",
"k  c #5C544D",
"l  c #4D4F59",
"z  c #525350",
"x  c #5E5150",
"c  c #595954",
"v  c #60584F",
"b  c #635453",
"n  c #655B51",
"m  c #6B5B56",
"M  c #6F5D58",
"N  c #6D6154",
"B  c #616059",
"V  c #69665D",
"C  c #716557",
"Z  c #79655D",
"A  c #7A6C5B",
"S  c #74675D",
"D  c #7D715F",
"F  c #404E75",
"G  c #405177",
"H  c #415178",
"J  c #6C6B60",
"K  c #716F62",
"L  c #84745E",
"P  c #866E62",
"I  c #8C7465",
"U  c #8C7B64",
"Y  c #807D6B",
"T  c #917668",
"R  c #967A6B",
"E  c #9A7D6C",
"W  c #907E65",
"Q  c #85816E",
"!  c #988467",
"~  c #9C836B",
"^  c #9C896C",
"/  c #8B8671",
"(  c #938D76",
")  c #9F8D70",
"_  c #9C967B",
"`  c #9C9176",
"'  c #A2856F",
"]  c #A38E6E",
"[  c #A68971",
"{  c #AB8E73",
"}  c #A38670",
"|  c #AD9472",
" . c #B29475",
".. c #B59976",
"X. c #B89E77",
"o. c #BB9D79",
"O. c #B0A17E",
"+. c #BEA27A",
"@. c #C4A57C",
"#. c #C4A97E",
"$. c #CAAB7E",
"%. c #3B6C85",
"&. c #3E6D89",
"*. c #3F748D",
"=. c #397186",
"-. c #3E7D93",
";. c #406484",
":. c #406986",
">. c #787C86",
",. c #3E8296",
"<. c #3D8698",
"1. c #3D8899",
"2. c #92959D",
"3. c #A79F81",
"4. c #B6AD89",
"5. c #BBB28C",
"6. c #AFB0AF",
"7. c #CEAE80",
"8. c #CFB081",
"9. c #C4B78F",
"0. c #CCB98D",
"q. c #D4B483",
"w. c #D8B784",
"e. c #D7B886",
"r. c #D9B986",
"t. c #D9BC8A",
"y. c #D1B889",
"u. c #C4BA92",
"i. c #C7BB97",
"p. c #D1BE90",
"a. c #DCC28E",
"s. c #CFC498",
"d. c #DDC491",
"f. c #D6CB9D",
"g. c #DCCD9D",
"h. c #E2C691",
"j. c #E1CA96",
"k. c #E3CD99",
"l. c #E6D19D",
"z. c #DCCFA0",
"x. c #DDD1A1",
"c. c #E4D5A2",
"v. c #E9D6A1",
"b. c #E6D9A6",
"n. c #EBDAA4",
"m. c #EDDEA9",
"M. c #F1DEA6",
"N. c #EFE1AB",
"B. c #F2E3AC",
"V. c #EEE2B9",
"C. c #F0E4B4",
"Z. c #F2E6BA",
"A. c #F5EABE",
"S. c #F4EAC4",
"D. c #F5ECCC",
"F. c #F8EFCB",
"G. c #F6EED2",
"H. c #F7F0D6",
"J. c #F8F3DE",
"K. c #EDECE8",
"L. c #F9F5E6",
"P. c #FBF8EE",
"I. c #FAF7E9",
"U. c #FDFBF5",
"Y. c #FEFDFC",
"T. c None",
/* pixels */
"T.T.T.T.T.T.T.T.T.T.T.T.T.T.T.T.T.T.T.T.T.T.T.T.T.T.T.T.T.T.T.T.T.T.T.T.T.T.T.T.T.T.T.T.T.T.T.T.T.T.",
"T.T.T.T.T.T.T.T.T.T.T.T.T.T.T.T.T.T.T.T.T.T.T.T.T.T.T.T.T.T.T.T.T.T.T.T.T.T.T.T.T.T.T.T.T.T.T.T.T.T.",
"T.T.T.T.T.T.T.T.T.T.T.T.T.T.T.T.T.T.T.O o o o O # o O O O O o o T.T.T.T.T.T.T.T.T.T.T.T.T.T.T.T.T.T.",
"T.T.T.T.T.T.T.T.T.T.T.T.T.T.T.T.T.o o X o 4 U 9.u.u.u.u.u.4.5 # o o T.T.T.T.T.T.T.T.T.T.T.T.T.T.T.T.",
"T.T.T.T.T.T.T.T.T.T.T.T.T.T.T.T.O o - f >.K.V.B.B.B.B.B.B.N.b._ # o o T.T.T.T.T.T.T.T.T.T.T.T.T.T.T.",
"T.T.T.T.T.T.T.T.T.T.T.T.T.T.o o X ; O.S.U.S.N.N.B.N.N.N.N.N.N.B._ B o o T.T.T.T.T.T.T.T.T.T.T.T.T.T.",
"T.T.T.T.T.T.T.T.T.T.T.T.T.T.o o A 5.F.Y.I.N.N.N.N.N.N.N.N.N.N.N.B.n.J o o T.T.T.T.T.T.T.T.T.T.T.T.T.",
"T.T.T.T.T.T.T.T.T.T.T.T.T.o o & +.S.U.Y.P.C.N.N.N.N.N.N.N.N.N.N.N.A.6.@ o o T.T.T.T.T.T.T.T.T.T.T.T.",
"T.T.T.T.T.T.T.T.T.T.T.T.O o * ^ a.S.Y.U.Y.Y.S.A.Z.N.C.Z.N.N.N.C.C.Z.U.2.# . T.T.T.T.T.T.T.T.T.T.T.T.",
"T.T.T.T.T.T.T.T.T.T.T.T.o X k r.v.D.Y.S.U.P.Z.U.J.N.C.P.Z.N.N.G.S.V.Y.Y.l g o T.T.T.T.T.T.T.T.T.T.T.",
"T.T.T.T.T.T.T.T.T.T.T.T.o X v e.v.S.Y.S.U.H.N.U.J.N.H.Y.D.m.C.U.S.N.S.L.i.! o T.T.T.T.T.T.T.T.T.T.T.",
"T.T.T.T.T.T.T.T.T.T.T.o X : @.q.n.N.H.S.C.C.m.S.H.N.I.U.D.m.S.U.A.N.N.N.C.^ o o T.T.T.T.T.T.T.T.T.T.",
"T.T.T.T.T.T.T.T.T.T.T.o - 0 q.q.v.N.N.N.v.m.N.N.N.N.N.N.N.N.Z.D.N.N.N.N.B.3.X o T.T.T.T.T.T.T.T.T.T.",
"T.T.T.T.T.T.T.T.T.T.o o b a 8.q.n.N.N.m.d.N.N.N.N.N.N.N.N.N.N.N.N.N.N.N.B.0.p X o T.T.T.T.T.T.T.T.T.",
"T.T.T.T.T.T.T.T.T.T.o o m I q.q.v.N.N.m.d.N.N.N.N.B.N.N.N.N.N.N.m.j.N.N.N.m.C X o T.T.T.T.T.T.T.T.T.",
"T.T.T.T.T.T.T.T.T.o O o M [ q.q.k.d.N.m.j.N.N.N.N.N.B.l.k.N.N.N.m.a.N.B.N.B./ # o T.T.T.T.T.T.T.T.T.",
"T.T.T.T.T.T.T.T.T.O O X m { $.r.q.d.N.N.N.N.N.N.N.N.N.l.k.N.N.N.m.a.m.N.N.N.N.g X o T.T.T.T.T.T.T.T.",
"T.T.T.T.T.T.T.T.T.o o : P | r.$.q.a.N.m.l.N.N.N.N.N.B.l.k.N.N.N.N.l.N.N.N.N.l.U O o T.T.T.T.T.T.T.T.",
"T.T.T.T.T.T.T.T.O o o j E E ..$.q.q.l.v.d.m.N.N.B.N.N.l.j.m.N.N.m.k.N.m.j.N.h.$.% o T.T.T.T.T.T.T.T.",
"T.T.T.T.T.T.T.T.o X j @.| E T @.| q.e.e.t.m.m.N.N.N.m.q.q.c.N.N.n.t.n.B.a.k.e.+.: o O T.T.T.T.T.T.T.",
"T.T.T.T.T.T.T.o o c y.w.$.{ E | [ q.q.q.e.d.h.l.v.m.m.q.q.e.k.l.t.q.a.k.r.$.$.{ P > o T.T.T.T.T.T.T.",
"T.T.T.T.T.T.o o c g.v.q.$.@.E R R o.q.q.q.q.q.q.t.j.h.q.q.q.q.q.q.q.q.q.w.+.' ' +...: o T.T.T.T.T.T.",
"T.T.T.T.o o X z g.B.m.h.$.r.#.#.' ~ [ 7.q.q.q.q.q.q.q.w.q...8.W ! q.q.q.$.{ ' +.$.w...* T.T.T.T.T.T.",
"T.T.T.T.o ; c z.B.N.B.k.$.a.$.w.q.7.7.q.q.7.{ o. .q.$.@.@.' R d % I E +.w.$.$.$.r.r.j.c ; T.T.T.T.T.",
"T.T.T.T.X _ B.B.N.N.0.| a.l.w.w.q.q.q.q.q.o.R @.o.q... .' R Z O o n  .@.w.e.a.$.U | v.B.5.:   T.T.T.",
"T.T.T.T.o f f.B.N.a.h S N.n.$.! 0.j.q.q.q...| q.q.q.q.q.@...0 o o % U w.j.l.n.q.N : +.m.B.5.Y @ T.T.",
"T.T.T.T.o o f f.s.k X Q B.d.^ & u.B.v.l.e.o.@.w.q.e.w.t.8.k o o o X # ` B.C.N.N.y.N , ) f g s + T.T.",
"T.T.T.o o o o & * X s c.N.t.N o u.B.N.m.e.q.$.a.k.m.B.v.V o o @ = o o % | s.C.B.M.#.> O . . X + T.T.",
"T.T.O o & d 0 + o O / N.N.D o z g.N.N.m.e.t.d.N.N.C.3.V o o 1 9 t 6 = o X q ( ( ( c X % n h 0 + o T.",
"T.T.o & Z E ..M o ; x.N./ O . _ B.m.m.d.q.j.B.B.5.n % X o 6 F F F F e = o o X X X X # U w.7.~ d o T.",
"T.T.O Z R ..q.q.k o 5 s % X + 4 q q f +.h.v.f.x./ . X O $ w F F *.u F e w O o o o o L w.q.q.[ M o T.",
"T.T.@ I R o.w.e.C X X X o o < 2 $ X h ] 4.K # # # o $ 3 t y H &.1.H F F e o o o T.o A q.w.$.' M o T.",
"T.T.O x R [ q.+.p X T.T.O o o 8 e + o o o X X o o = y y i %.,.<.<.,.:.H e @ o o T.o O A o.[ T 0 o T.",
"T.T.o O b R ~ 0 X O T.T.o o o = w + + + $ 8 8 w r i *.=.-.<.<.<.,.<.-.u 2 o o T.T.T.o @ 5 0 , O T.T.",
"T.T.T.o @ - & o o T.T.T.o o o o 8 y =.=.=.;.:.*.:.,.,.,.,.-.,.,.%.u t 2 o o T.T.T.T.T.o X o X O T.T.",
"T.T.T.T.T.o o T.T.T.T.T.T.o O o # 8 w w y H H H H G G G G G u e 8 7 # o o O T.T.T.T.T.T.T.T.T.T.T.T.",
"T.T.T.T.T.T.T.T.T.T.T.T.T.O o o o o o # 3 6 6 6 7 7 3 6 6 6 6 $ o o o o o T.T.T.T.T.T.T.T.T.T.T.T.T.",
"T.T.T.T.T.T.T.T.T.T.T.T.T.T.o O o O o o o o o o o o o o o o o o o o o T.T.T.T.T.T.T.T.T.T.T.T.T.T.T.",
"T.T.T.T.T.T.T.T.T.T.T.T.T.T.T.T.T.o o O o o @ o T.T.O o o O o o O T.T.T.T.T.T.T.T.T.T.T.T.T.T.T.T.T.",
"T.T.T.T.T.T.T.T.T.T.T.T.T.T.T.T.T.T.T.o o o o o O o o O o o o O o T.T.T.T.T.T.T.T.T.T.T.T.T.T.T.T.T.",
"T.T.T.T.T.T.T.T.T.T.T.T.T.T.T.T.T.T.T.T.o o @ o o O o o @ o O o o T.T.T.T.T.T.T.T.T.T.T.T.T.T.T.T.T.",
"T.T.T.T.T.T.T.T.T.T.T.T.T.T.T.T.T.T.T.T.T.O o o T.o + T.T.o o o T.T.T.T.T.T.T.T.T.T.T.T.T.T.T.T.T.T.",
"T.T.T.T.T.T.T.T.T.T.T.T.T.T.T.T.T.T.T.T.T.o + o T.T.T.T.T.T.T.T.T.T.T.T.T.T.T.T.T.T.T.T.T.T.T.T.T.T.",
"T.T.T.T.T.T.T.T.T.T.T.T.T.T.T.T.T.T.T.T.T.o o O T.T.T.T.T.T.T.T.T.T.T.T.T.T.T.T.T.T.T.T.T.T.T.T.T.T.",
"T.T.T.T.T.T.T.T.T.T.T.T.T.T.T.T.T.T.T.T.T.T.T.T.T.T.T.T.T.T.T.T.T.T.T.T.T.T.T.T.T.T.T.T.T.T.T.T.T.T.",
"T.T.T.T.T.T.T.T.T.T.T.T.T.T.T.T.T.T.T.T.T.T.T.T.T.T.T.T.T.T.T.T.T.T.T.T.T.T.T.T.T.T.T.T.T.T.T.T.T.T.",
"T.T.T.T.T.T.T.T.T.T.T.T.T.T.T.T.T.T.T.T.T.T.T.T.T.T.T.T.T.T.T.T.T.T.T.T.T.T.T.T.T.T.T.T.T.T.T.T.T.T.",
"T.T.T.T.T.T.T.T.T.T.T.T.T.T.T.T.T.T.T.T.T.T.T.T.T.T.T.T.T.T.T.T.T.T.T.T.T.T.T.T.T.T.T.T.T.T.T.T.T.T.",
"T.T.T.T.T.T.T.T.T.T.T.T.T.T.T.T.T.T.T.T.T.T.T.T.T.T.T.T.T.T.T.T.T.T.T.T.T.T.T.T.T.T.T.T.T.T.T.T.T.T.",
"T.T.T.T.T.T.T.T.T.T.T.T.T.T.T.T.T.T.T.T.T.T.T.T.T.T.T.T.T.T.T.T.T.T.T.T.T.T.T.T.T.T.T.T.T.T.T.T.T.T."
};
