/* XPM */
static char *result[] = {
/* columns rows colors chars-per-pixel */
"50 50 198 2 ",
"   c #13172C",
".  c #151B2D",
"X  c #191D2F",
"o  c #1B1D31",
"O  c #171F30",
"+  c #211F32",
"@  c #16212F",
"#  c #19222F",
"$  c #1C2431",
"%  c #1A2C32",
"&  c #1B2B35",
"*  c #1B3533",
"=  c #1C3C35",
"-  c #1F303C",
";  c #232233",
":  c #2A2333",
">  c #262C35",
",  c #2C2C39",
"<  c #2C263A",
"1  c #322636",
"2  c #332B3B",
"3  c #3B2A3C",
"4  c #35293B",
"5  c #23333E",
"6  c #263636",
"7  c #36333C",
"8  c #39343D",
"9  c #3D3A3E",
"0  c #422C39",
"q  c #55323D",
"w  c #59343F",
"e  c #1E4737",
"r  c #234C3C",
"t  c #264538",
"y  c #235C3C",
"u  c #23553B",
"i  c #3F573E",
"p  c #27653F",
"a  c #585637",
"s  c #7D7834",
"d  c #3D2B43",
"f  c #392740",
"g  c #3C3442",
"h  c #3D3940",
"j  c #253D44",
"k  c #432D45",
"l  c #482F48",
"z  c #423C43",
"x  c #4E314B",
"c  c #4A3B46",
"v  c #543848",
"b  c #5B3753",
"n  c #5F3955",
"m  c #553451",
"M  c #633640",
"N  c #693945",
"B  c #743E45",
"V  c #623A55",
"C  c #683C55",
"Z  c #653C59",
"A  c #6A3D5B",
"S  c #713F5A",
"D  c #294247",
"F  c #294447",
"G  c #2F4E50",
"H  c #355B5A",
"J  c #325554",
"K  c #344D4C",
"L  c #2B6D41",
"P  c #276E41",
"I  c #3C6240",
"U  c #306B41",
"Y  c #2B7345",
"T  c #39625E",
"R  c #387B55",
"E  c #3D6B64",
"W  c #3B6461",
"Q  c #3E7863",
"!  c #494547",
"~  c #554B4C",
"^  c #5A4E4E",
"/  c #58474A",
"(  c #5C504F",
")  c #494956",
"_  c #5F5251",
"`  c #684A4B",
"'  c #6E4E50",
"]  c #7A4259",
"[  c #635653",
"{  c #6E5C59",
"}  c #655953",
"|  c #735754",
" . c #7B4048",
".. c #4A6643",
"X. c #447946",
"o. c #557848",
"O. c #6D6155",
"+. c #6D675B",
"@. c #766958",
"#. c #78645D",
"$. c #7A725C",
"%. c #456C65",
"&. c #417268",
"*. c #447466",
"=. c #7D7462",
"-. c #8E474C",
";. c #8E4859",
":. c #874656",
">. c #934A57",
",. c #9C4C55",
"<. c #904958",
"1. c #975B56",
"2. c #925352",
"3. c #A24D4F",
"4. c #A44F55",
"5. c #AB5154",
"6. c #A65656",
"7. c #B55555",
"8. c #B95655",
"9. c #B65957",
"0. c #BA5D59",
"q. c #B75C59",
"w. c #9B645C",
"e. c #A26B5F",
"r. c #BD675F",
"t. c #9E7466",
"y. c #927768",
"u. c #8F6764",
"i. c #A16E61",
"p. c #BD7365",
"a. c #B57667",
"s. c #C06F63",
"d. c #C37968",
"f. c #2D8345",
"g. c #35984B",
"h. c #3E8C5F",
"j. c #378556",
"k. c #3A9B57",
"l. c #37A54E",
"z. c #39A556",
"x. c #39A754",
"c. c #39B551",
"v. c #37B050",
"b. c #3E8462",
"n. c #538249",
"m. c #5D8F4D",
"M. c #539C4F",
"N. c #41A950",
"B. c #5CAE54",
"V. c #42B753",
"C. c #6FB257",
"Z. c #5BC158",
"A. c #76CD5D",
"S. c #A39B3A",
"D. c #ACA43A",
"F. c #93836A",
"G. c #9A8C70",
"H. c #B19A74",
"J. c #D9945F",
"K. c #DC9C5C",
"L. c #D7915F",
"P. c #E2A858",
"I. c #E7B554",
"U. c #EABD52",
"Y. c #C9826E",
"T. c #87C75D",
"R. c #84D15F",
"E. c #91D762",
"W. c #EEC94E",
"Q. c #F1CD4D",
"!. c #F4D54C",
"~. c #F7DC48",
"^. c #F9DF46",
"/. c #EDC350",
"(. c #EBDD55",
"). c #FEEC43",
"_. c #F9E347",
"`. c #FFF148",
"'. c #FFEF51",
"]. c #FFEF5A",
"[. c #FFF55E",
"{. c #E7D768",
"}. c #FEEF6C",
"|. c #FFF36A",
" X c #B6A783",
".X c #CEBA8F",
"XX c #D9C492",
"oX c #FFF791",
"OX c #FFF488",
"+X c #EAD9A3",
"@X c #EFE0AA",
"#X c #FFFABF",
"$X c #F1E3AC",
"%X c #FDF7C6",
"&X c #FFFBD9",
"*X c #F9F7EC",
"=X c #FFFEFA",
"-X c None",
/* pixels */
"-XJ.L./.~.K.K./.).-X-XJ.L.J.-X-X-X-X-X-X-X-X-X-X-X-X-X-X-X-X-X-X-X-X-X-X-X-X-X-X-X-X-X-X-X-X-X-X-X-X",
"-XK.U.I.I.J.I.Q.).).).-X-X-X-X-X-X-X-X-X-X-X-X-X-X-X-X-X-X-X-X-X-X-X-X-X-X-X-X-X-X-X-X-X-X-X-X-X-X-X",
"-XK.!.~.J.L.I./.~.).).).-X-X-X-X-X-X-X-X-X-X-X-X-X-X-X-X-X-X-X-X-X-X-X-X-X-X-X-X-X-X-X-X-X-X-X-X-X-X",
"-XJ.K.I.K.L.L.L.P._.OX].-X-X-X-X-X-X-X-X-X-X-X-X-X-X-X-X-X-X-X-X-X-X-X-X-X-X-X-X-X-X-X-X-X-X-X-X-X-X",
"-X-XL.J.L.J.J.L.L.!.#X|.D.-X-X-X-X-X-X-X-X-X-X-X-X-X-X-X-X-X-X-X-X-X-X-X-X-X-X-X-X-X-X-X-X-X-X-X-X-X",
"-X-X-X-X-X-XJ.J.K.!.'.`.S.  -X-X-X-X-X-X-X-X-X-X-X-X-X-X-X-X-X-X-X-X-X-X-X-X-X-X-X-X-X-X-X-X-X-X-X-X",
"-X-X-X-X-X-X-XP.I.^.'.`.S.  -X-X-X-X-X-X-X-X-X-X-X-X-X-X-X-X-X-X-X-X-X-X-X-X-X-X-X-X-X-X-X-X-X-X-X-X",
"-X-X-X-X-X-X-X!.Q.|.&X|.S.-X-X-X-X-X-X-X-X-X-X-X-X-X-X-X-X-X-X-X-X-X-X-X-X-X-X-X-X-X-X-X-X-X-X-X-X-X",
"-X-X-X-X-X-Xa _.).%X=X|.S.-X-X-X-Xt.-X-X-X-X-X-X-X-X-X-X-X-X-X-X-X-X-X-X-X-X-X-X-X-X-X-X-X-X-X-X-X-X",
"-X-X-X-X-X@ D.).|.*X&X(.a -X-X-X-Xt.t.-X-X-X-X-X-X-X-X-X-X-X-X-X-X-X-X-X-X-X-X-X-X-X-X-X-X-X-X-X-X-X",
"-X-X-X-X-X@ D.[.&X=XoXD.-X-X-X-X-X-X-X-X-X-X-X-X-X-X-X-X-X-X-X-X-X-X-X-X-X-X-X-X-X-X-X-X-X-X-X-X-X-X",
"-X-X-X-X-X-Xs {.*X%X{.a -X-X-X-X-X-X-X-X-X-X-X-X-X-X-X-X-X-X-X-X-X-X-X-X-X-X-X-X-X-X-X-X-X-X-X-X-X-X",
"-X-X-X-X-X-X-X! .X@X+XF.$ -X-X-X-X-X-X-X-XX + -X-X-X-X-X-X-X-X-X-X-X-X-X-X-X-X-X-X-X-X-X-X-X-X-X-X-X",
"-X-X-X-X-X-X-XO.XX+X+X.X7 -X-X-X-X-X-X-X-X7 ' ; . -X-X-X-X-X-X-X-X-X-X-X-X-X-X-X-X-X-X-X-X-X-X-X-X-X",
"-X-X-X-X-X-X. 7 =.+X XG.+.-X-X-X-X-X-X-X-X8 p.,.1 . -X-X-X-X-X-X-X-X-X-X-X-X-X-X-X-X-X-X-X-X-X-X-X-X",
"-X-X-X-X-X-X  , H.H.g =.}   -X-X-X-X-X-X  / p.0.1.1 X . -X-X-X-X-X$ % -X-X-X-X-X-X-X-X-X-X-X-X-X-X-X",
"-X-X-X-X-X-X-X7 F.7 , ~ X -X-X-X-X-X-X-X> e.r.d.a.n + .     -X-X$ m.i -X-X-X-X-X-X-X-X-X-X-X-X-X-X-X",
"-X-X-X-X-X-X-X. # @ 7 g $ -X-X-X. $ .   , a.r.s.w.b : q M k ; . > B.p -X-X-X-X-X-X-X-X-X-X-X-X-X-X-X",
"-X-X-X-X-X-X-X-X  , { #., -X-X-X. ..n.t   ` q.9.] x B 5.<.A d   . X.U -X-X-X-X-X-X-X-X-X-X-X-X-X-X-X",
"-X-X-X-X-X-X-X-X-X7 #.y.7 -X-X-X-Xo.E.B.y 7 3.,.<.4.4.:.V l 4 v d > L -X-X-X-X-X-X-X-X-X-X-X-X-X-X-X",
"-X-X-X-X-X-X-X-X-X$ ~ u.(   -X-X-X> C.R.c.R ! :.7.4.S Z 3 B 3.,.A x $ -X-X-X-X-X-X-X-X-X-X-X-X-X-X-X",
"-X-X-X-X-X-X-X-X-X  , _ 8 @ % -X-X  a T.B.z.E / 5.>.;.,.5.5.<.S A A d -X-X-X-X-X-X-X-X-X-X-X-X-X-X-X",
"-X-X-X-X-X-X-X-X-X-X$ 6 . r P -X-X-X. ..Z.c.Q %.6.8.8.7.7.,.A A A A n o -X-X-X-X-X-X-X-X-X-X-X-X-X-X",
"-X-X-X-X-X-X-X-X-XX o.T...* f.* -X-X. . n.V.b.E ' 7.7.5.;.A V k d d f . . -X-X-X-X-X-X-X-X-X-X-X-X-X",
"-X-X-X-X-X-X-X-X-X$ M.A.T.I = . -X-XX ; 6 N.b.H 0 5.;.] n x + . e P P L t X -X-X-X-X-X-X-X-X-X-X-X-X",
"-X-X-X-X-X-X-X-X-X. P c.V.g.$ . -X-X! r.0 Y *.K N 7.;.l $ j G Y v.c.N.R.T.X.$ -X-X-X-X-X-X-X-X-X-X-X",
"-X-X-X-X-X-X-X-X-X-X= l.c.f.@ . -X  | d.1.$.w.5.7.7.N . - W h.c.v.v.c.Z.R.R.X.@ . -X-X-X-X-X-X-X-X-X",
"-X-X-X-X-X-X-X-X-X-X. u p 6 . . -X  ' d.H.Y.d.q.7.3.2 j H E b.v.l.f.P L l.N.l.g.y $ -X-X-X-X-X-X-X-X",
"-X-X-X-X-X-X-X-X-X-X-X  . ~ 7 . .   ! p.p.q.7.7.7.5.2 & - H &.Q F % . . * % = Y g.= -X-X-X-X-X-X-X-X",
"-X-X-X-X-X-X-X-X-X-X-X-XO [ ^ . X . @ q 1.9.8.7.7.7.3   F E &.E G W G @ -X-X-X. % @ -X-X-X-X-X-X-X-X",
"-X-X-X-X-X-X-X-X-X-X-X-X. ; ; -X-X. . O 3 M <.,.5.4.C f D E &.&.&.&.T $ -X-X-X-X-X-X-X-X-X-X-X-X-X-X",
"-X-X-X-X-X-X-X-X-X-X-X-X-X-X-X-X-X-X. ; ] :.<.5.7.5.,.] d j H &.E E 5 . -X-X-X-X-X-X-X-X-X-X-X-X-X-X",
"-X-X-X-X-X-X-X-X-X-X-X-X-X-X-X-X-X-X-X1 5.8.8.7.7.7.7.] Z k g K %.H f f O -X-X-X-X-X-X-X-X-X-X-X-X-X",
"-X-X-X-X-X-X-X-X-X-X-X-X-X-X-X-X-X-X-X; -.7.7.8.7.8.4.] A A A Z m H Z Z < . -X-X. F u . -X-X-X-X-X-X",
"-X-X-X-X-X-X-X-X-X-X-X-X-X-X-X-X-X-X-X   .8.8.8.8.7.<.Z Z A A A n b Z Z k . . . F k.v.y . -X-X-X-X-X",
"-X-X-X-X-X-X-X-X-X-X-X-X-X-X-X-X-X-X-X. 0 M M M M M k m n b l k d < f d ; . . X H z.c.f.. -X-X-X-X-X",
"-X-X-X-X-X-X-X-X-X-X-X-X-X-X-X-X-X-X-X. 9 O.[ O.O.[ @.~ g < ; # g #.h ^ h -X-X-XD j.l.y . -X-X-X-X-X",
"-X-X-X-X-X-X-X-X-X-X-X-X-X-X-X-X-X-X-X. 9 O.[ { O.[ @.~ } #.{ ^ h +.^ ; O X -X-X. $ % X -X-X-X-X-X-X",
"-X-X-X-X-X-X-X-X-X-X-X-X-X-X-X-X-X-X-X.   X O o X X o ; < g z > $ , , O . . -X-X-X-X-X-X-X-X-X-X-X-X",
"-X-X-X-X-X-X-X-X-X-X-X-X-X-X-X-X-X-X-X  3 C C C C V V n n x d o ~ _ $ c ! o -X-X-X-X-X-X-X-X-X-X-X-X",
"-X-X-X-X-X-X-X-X-X-X-X-X-X-X-X-X-X-X-X; B 4.6.5.,.] A A Z Z x , } z . 7 { z -X-X-X-X-X-X-X-X-X-X-X-X",
"-X-X-X-X-X-X-X-X-X-X-X-X-X-X-X-X-X-X-XO : : q w : 2 d d 4 + O , g O . . > , . -X-X-X-X-X-X-X-X-X-X-X",
"-X-X-X-X-X-X-X-X-X-X-X-X-X-X-X-X-X-X-X-X-X-X  .   -X  -X-X-X-X. -X-X-X-X-X. X -X-X-X-X-X-X-X-X-X-X-X",
"-X-X-X-X-X-X-X-X-X-X-X-X-X-X-X-X-X-X-X-X-X-X-X. -X-X-X-X-X-X-X-X-X-X-X-X-X. . -X-X-X-X-X-X-X-X-X-X-X",
"-X-X-X-X-X-X-X-X-X-X-X-X-X-X-X-X-X-X-X-X-X-X-X. X -X-X-X-X-X-X-X-X-X-X-X. . X -X-X-X-X-X-X-X-X-X-X-X",
"-X-X-X-X-X-X-X-X-X-X-X-X-X-X-X-X-X-X-X-X-X-X-XX . -X-X-X-X-X-X-X-X-X-X-X-X-X. X -X-X-X-X-X-X-X-X-X-X",
"-X-X-X-X-X-X-X-X-X-X-X-X-X-X-X-X-X-X-X-X-X-X. . X -X-X-X-X-X-X-X-X-X-X-X-X-X-X-X-X-X-X-X-X-X-X-X-X-X",
"-X-X-X-X-X-X-X-X-X-X-X-X-X-X-X-X-X-X-X-X-X-XX . . -X-X-X-X-X-X-X-X-X-X-X-X-X-X-X-X-X-X-X-X-X-X-X-X-X",
"-X-X-X-X-X-X-X-X-X-X-X-X-X-X-X-X-X-X-X-X-X-X-X-X-X-X-X-X-X-X-X-X-X-X-X-X-X-X-X-X-X-X-X-X-X-X-X-X-X-X",
"-X-X-X-X-X-X-X-X-X-X-X-X-X-X-X-X-X-X-X-X-X-X-X-X-X-X-X-X-X-X-X-X-X-X-X-X-X-X-X-X-X-X-X-X-X-X-X-X-X-X"
};
