/* XPM */
static char *result[] = {
/* columns rows colors chars-per-pixel */
"50 50 200 2 ",
"   c #151B2D",
".  c #191D2F",
"X  c #1B1E31",
"o  c #211F31",
"O  c #17222F",
"+  c #19222F",
"@  c #1C2331",
"#  c #1D2D37",
"$  c #1A3333",
"%  c #1D3C35",
"&  c #1E303B",
"*  c #232134",
"=  c #2C2334",
"-  c #252A35",
";  c #292A37",
":  c #2B2539",
">  c #2C2C39",
",  c #33273D",
"<  c #332D3C",
"1  c #3C2D3A",
"2  c #382836",
"3  c #2C3D37",
"4  c #253437",
"5  c #33313B",
"6  c #3A363E",
"7  c #3B393E",
"8  c #472D3B",
"9  c #44363E",
"0  c #57333D",
"q  c #61363F",
"w  c #1E4337",
"e  c #204D39",
"r  c #254538",
"t  c #354C3B",
"y  c #374B3B",
"u  c #245B3C",
"i  c #24533B",
"p  c #3C543D",
"a  c #25623E",
"s  c #4C4C31",
"d  c #545334",
"f  c #3C2B42",
"g  c #263641",
"h  c #3E3A41",
"j  c #442D44",
"k  c #482F49",
"l  c #472F49",
"z  c #433C42",
"x  c #4B324B",
"c  c #493246",
"v  c #52334E",
"b  c #553A44",
"n  c #563551",
"m  c #5A3653",
"M  c #5D3A55",
"N  c #683B4C",
"B  c #753E45",
"V  c #7A3F4D",
"C  c #653C59",
"Z  c #693D5B",
"A  c #653A55",
"S  c #703F57",
"D  c #2B464A",
"F  c #2D4A4D",
"G  c #2F4F51",
"H  c #394B52",
"J  c #355956",
"K  c #384148",
"L  c #2B7644",
"P  c #3A665E",
"I  c #2E6E4B",
"U  c #3E6B64",
"Y  c #3B6661",
"T  c #3E7864",
"R  c #494345",
"E  c #4D4548",
"W  c #554A4C",
"Q  c #57494B",
"!  c #445E40",
"~  c #5C4E50",
"^  c #4F4B4F",
"/  c #684A4B",
"(  c #7E444A",
")  c #734059",
"_  c #7F4459",
"`  c #625452",
"'  c #6A5A56",
"]  c #665A56",
"[  c #785B56",
"{  c #477A47",
"}  c #74645A",
"|  c #786A5B",
" . c #406F67",
".. c #406F68",
"X. c #417269",
"o. c #427866",
"O. c #8C484C",
"+. c #93484C",
"@. c #9D4B4F",
"#. c #92474B",
"$. c #834558",
"%. c #864858",
"&. c #944A55",
"*. c #9B4C56",
"=. c #964B58",
"-. c #8A5D58",
";. c #9A5754",
":. c #A14D4F",
">. c #A34F56",
",. c #A14E58",
"<. c #AC5154",
"1. c #A35259",
"2. c #B55455",
"3. c #B85555",
"4. c #B65857",
"5. c #BA5A57",
"6. c #96685D",
"7. c #BA625C",
"8. c #BE685F",
"9. c #AB6D57",
"0. c #857161",
"q. c #897864",
"w. c #977B6B",
"e. c #A76A61",
"r. c #BF6B61",
"t. c #BB7867",
"y. c #C06E62",
"u. c #C27667",
"i. c #C57E6B",
"p. c #2E8947",
"a. c #2E8847",
"s. c #388948",
"d. c #34934B",
"f. c #3A885A",
"g. c #399A58",
"h. c #37A64E",
"j. c #3AAB54",
"k. c #37B451",
"l. c #38B451",
"z. c #4E914C",
"x. c #609E51",
"c. c #61884C",
"v. c #46B854",
"b. c #54BC56",
"n. c #45A650",
"m. c #71A153",
"M. c #78B858",
"N. c #58C157",
"B. c #6FC55B",
"V. c #B2A839",
"C. c #CFC33E",
"Z. c #DACC3F",
"A. c #FFEF3F",
"S. c #83BC5B",
"D. c #9F8B6C",
"F. c #A38D6D",
"G. c #A99573",
"H. c #D9945F",
"J. c #DC9C5C",
"K. c #D59C58",
"L. c #CAB346",
"P. c #DFA45A",
"I. c #E1A859",
"U. c #EBBE52",
"Y. c #E6B455",
"T. c #C8836E",
"R. c #C2A97E",
"E. c #84C75D",
"W. c #91CF60",
"Q. c #8AD360",
"!. c #87D260",
"~. c #EFC94F",
"^. c #ECC14E",
"/. c #F1CD4D",
"(. c #F5D54A",
"). c #F6D949",
"_. c #F8DD48",
"`. c #EDC350",
"'. c #E7D841",
"]. c #F9E047",
"[. c #FEEC43",
"{. c #FBE448",
"}. c #FFF043",
"|. c #FBEB5C",
" X c #FFF15E",
".X c #D6CE79",
"XX c #FFF16A",
"oX c #FFF47E",
"OX c #FFF173",
"+X c #CBB78B",
"@X c #FFF489",
"#X c #E9D8A7",
"$X c #F1E2A9",
"%X c #FFF9AE",
"&X c #FFF6A7",
"*X c #FFF8B7",
"=X c #FFFBDB",
"-X c #FFFFFC",
";X c #FAF6E6",
":X c None",
/* pixels */
":X:X:X:X:X:X:X:X:X:X:XH.:X:X:X:X:X:X:X:X:X:X:X:X:X:X:X:X:X:X:X:X:X:X:X:X:X:X:X:X:X:X:X:X:X:X:X:X:X:X",
":X:X:X:X:X:X:X:X:X:XH.H.H.:X:X:X:X:X:X:X:X:X:X:X:X:X:X:X:X:X:X:X:X:X:X:X:X:X:X:X:X:X:X:X:X:X:X:X:X:X",
":X:X:X:XJ.H.H.H.H.:X:XH.H.:X:X:X:X:X:X:X:X:X:X:X:X:X:X:X:X:X:X:X:X:X:X:X:X:X:X:X:X:X:X:X:X:X:X:X:X:X",
":X:XI.(.~.J.J.J.H.:X:X:X:X:X:X:X:X:X:X:X:X:X:X:X:X:X:X:X:X:X:X:X:X:X:X:X:X:X:X:X:X:X:X:X:X:X:X:X:X:X",
":X:XU.).U.).].].`.`.:X:X:X:X[.:X:X:X:X:X:X:X:X:X:X:X:X:X:X:X:X:X:X:X:X:X:X:X:X:X:X:X:X:X:X:X:X:X:X:X",
":XH.J.U.{.[.[.[.[.~.:X:X:X:XU.:X:X:X:X:X:X:X:X:X:X:X:X:X:X:X:X:X:X:X:X:X:X:X:X:X:X:X:X:X:X:X:X:X:X:X",
":XH.P.{.oX XA.[.(.J.J./.:X`.P._.:X:X:X:X:X:X:X:X:X:X:X:X:X:X:X:X:X:X:X:X:X:X:X:X:X:X:X:X:X:X:X:X:X:X",
":XH.^.XX=X@X[.}.L.9.`.[.[.[.Y.J.:X:X:X:X:X:X:X:X:X:X:X:X:X:X:X:X:X:X:X:X:X:X:X:X:X:X:X:X:X:X:X:X:X:X",
":XJ.(.%X%X&X|.Z.s :X}.[.[.(.`.Y.:X:X:X:X:X:X:X:X:X:X:X:X:X:X:X:X:X:X:X:X:X:X:X:X:X:X:X:X:X:X:X:X:X:X",
":XK.).@XoX=X@XV.  :X:X/.Y.P.].).:X:X:X:X:X:X:X:X:X:X:X:X:X:X:X:X:X:X:X:X:X:X:X:X:X:X:X:X:X:X:X:X:X:X",
":X:XL.A.XX-X=X'.d :X:X:XH.J./.:X:X:X:X:X:X:X:X:X:X:X:X:X:X:X:X:X:X:X:X:X:X:X:X:X:X:X:X:X:X:X:X:X:X:X",
":X:Xd C.&X-X=X|.d :X:X:X:X:X:X:X:X:X:X. :X:X:X:X:X:X:X:X:X:X:X:X:X:X:X:X:X:X:X:X:X:X:X:X:X:X:X:X:X:X",
":X:X:Xs .X-X;X$XD.  :X:X:X:X:X:X:X:X:X9 / o :X:X:X:X:X:X:X:X:X:X:X:X:X:X:X:X:X:X:X:X:X:X:X:X:X:X:X:X",
":X:X:X:X| #X#X$X+X; :X:X:X:X:X:X:X:X:Xb y.V o   :X:X:X:X:X:X:X:X:X:X:X:X:X:X:X:X:X:X:X:X:X:X:X:X:X:X",
":X:X:X  7 0.#X+XG.] :X:X:X:X:X:X:X:X  -.y.r.O.X   :X:X:X:X:X:X:X:X:X:X:X:X:X:X:X:X:X:X:X:X:X:X:X:X:X",
":X:X:X  - D.R.s | }   :X:X:X  :X:X  Q t.7.i.6.v X   :X:X:X:X+ t - :X:X:X:X:X:X:X:X:X:X:X:X:X:X:X:X:X",
":X:X:X:X6 G.R 5 ' @ :X:X:X  @ s @   [ u.7.t.%.x * 8 2 X :X  3 M.r :X:X:X:X:X:X:X:X:X:X:X:X:X:X:X:X:X",
":X:X:X:X  -   > > X :X:X:X:Xr E.z.$ < 7.4.1.M j ( 2._ v *   t B.w :X:X:X:X:X:X:X:X:X:X:X:X:X:X:X:X:X",
":X:X:X:X:X  ; ] } > :X:X:X:X- M.!.n.i B <.%.&.*.>.%.A x :   3 n.w :X:X:X:X:X:X:X:X:X:X:X:X:X:X:X:X:X",
":X:X:X:X:X:X> } w.~ :X:X:X:X  p W.N.d.J ( <.2.&.S n , 8 B N f w % :X:X:X:X:X:X:X:X:X:X:X:X:X:X:X:X:X",
":X:X:X:X:X:X# ~ q.] :X:X:X:X:X+ c.B.j.f.h =.*.$.$.%.+.<.=.S C ,   :X:X:X:X:X:X:X:X:X:X:X:X:X:X:X:X:X",
":X:X:X:X:X:X  f ' c     :X:X:X:X3 M.j.f...-.2.2.2.3.2.$.C Z Z n X :X:X:X:X:X:X:X:X:X:X:X:X:X:X:X:X:X",
":X:X:X:X:X:X:XO > X e u :X:X:X    d N.j.U ] 2.2.2.>.$.Z C C C C :   :X:X:X:X:X:X:X:X:X:X:X:X:X:X:X:X",
":X:X:X:X:X:X  d m.t $ a.$ :X:X@ 2 3 j.f.U f *.,.$.S C x : : : : X   :X:X:X:X:X:X:X:X:X:X:X:X:X:X:X:X",
":X:X:X:X:X:X+ x.!.E.t i O :X  / t.6 I o.F 0 <.=.A f : X $ L a.p.z.u @ :X:X:X:X:X:X:X:X:X:X:X:X:X:X:X",
":X:X:X:X:X:XO L l.N.s.O   :X  -.T.e.6.6.O.<.2.V o   F I h.k.l.v.Q.E.{ O :X:X:X:X:X:X:X:X:X:X:X:X:X:X",
":X:X:X:X:X:X:Xw h.k.d.@   :X  [ T.u.u.r.5.3.:.< g F U g.k.k.l.l.b.Q.Q.{ O :X:X:X:X:X:X:X:X:X:X:X:X:X",
":X:X:X:X:X:X:XO L p.w     :X:X9 9.8.5.2.2.3.*., & D U T g.d.u r u s.b.v.a.% :X:X:X:X:X:X:X:X:X:X:X:X",
":X:X:X:X:X:X:X:X  O 5 -     :X  9 ;.4.2.3.3.<.o X F Y X.Y & & X   O w e p.p.@ :X:X:X:X:X:X:X:X:X:X:X",
":X:X:X:X:X:X:X:X:XX ' Q   .     f j N *.>.<.=.j X G X.X.Y J U F   :X:X  O w O :X:X:X:X:X:X:X:X:X:X:X",
":X:X:X:X:X:X:X:X:X. 5 5 :X      c *.&.*.,.1.*.S f g Y U X.X.X.G   :X:X:X:X:X:X:X:X:X:X:X:X:X:X:X:X:X",
":X:X:X:X:X:X:X:X:X:X:X:X:X:X.   * #.3.3.3.3.3.,.Z f g Y U T J @ :X:X:X:X:X:X:X:X:X:X:X:X:X:X:X:X:X:X",
":X:X:X:X:X:X:X:X:X:X:X:X:X:X:X:X+ #.2.2.2.2.2.=.Z Z n x H U H l g :X:X:X    :X:X:X:X:X:X:X:X:X:X:X:X",
":X:X:X:X:X:X:X:X:X:X:X:X:X:X:X:X2 2.3.3.3.3.2.S Z Z Z Z M E M Z v X :X@ I u   :X:X:X:X:X:X:X:X:X:X:X",
":X:X:X:X:X:X:X:X:X:X:X:X:X:X:X  o 8 q #.#.#.( M C C C Z M n m Z n * X J j.j.e :X:X:X:X:X:X:X:X:X:X:X",
":X:X:X:X:X:X:X:X:X:X:X:X:X:X:X  ~ } } 6 9 7 7 z j f : f * ; < f f O O Y j.l.a :X:X:X:X:X:X:X:X:X:X:X",
":X:X:X:X:X:X:X:X:X:X:X:X:X:X:X  z E ] 0.F.0.F.0.` ` ^ Q > | ' h W ;   D f.p.% :X:X:X:X:X:X:X:X:X:X:X",
":X:X:X:X:X:X:X:X:X:X:X:X:X:X:X:X  o @ @ * X @ @ > ` ' ' f ~ } 5   O :XX O O   :X:X:X:X:X:X:X:X:X:X:X",
":X:X:X:X:X:X:X:X:X:X:X:X:X:X:X:X8 ) S k l l x k l : : * - 5 > ; O   :X:X:X:X:X:X:X:X:X:X:X:X:X:X:X:X",
":X:X:X:X:X:X:X:X:X:X:X:X:X:X:X* V @.2.,.*.%.Z Z C C M * Q ] X ` E     :X:X:X:X:X:X:X:X:X:X:X:X:X:X:X",
":X:X:X:X:X:X:X:X:X:X:X:X:X:X:X. * = 0 0 0 b m m n f : R ' h   < ' W   :X:X:X:X:X:X:X:X:X:X:X:X:X:X:X",
":X:X:X:X:X:X:X:X:X:X:X:X:X:X:X:X:X:X        X X X     6 6       > 6 :X:X:X:X:X:X:X:X:X:X:X:X:X:X:X:X",
":X:X:X:X:X:X:X:X:X:X:X:X:X:X:X:X:X:X:X  :X:X:X:X:X:X:X:X:X:X:X:X    :X:X:X:X:X:X:X:X:X:X:X:X:X:X:X:X",
":X:X:X:X:X:X:X:X:X:X:X:X:X:X:X:X:X:X:XX   :X:X:X:X:X:X:X:X:X:X      :X:X:X:X:X:X:X:X:X:X:X:X:X:X:X:X",
":X:X:X:X:X:X:X:X:X:X:X:X:X:X:X:X:X:X:X    :X:X:X:X:X:X:X:X:X:X      . :X:X:X:X:X:X:X:X:X:X:X:X:X:X:X",
":X:X:X:X:X:X:X:X:X:X:X:X:X:X:X:X:X:X      :X:X:X:X:X:X:X:X:X:X:X:X    :X:X:X:X:X:X:X:X:X:X:X:X:X:X:X",
":X:X:X:X:X:X:X:X:X:X:X:X:X:X:X:X:X:X  X   :X:X:X:X:X:X:X:X:X:X:X:X:X:X:X:X:X:X:X:X:X:X:X:X:X:X:X:X:X",
":X:X:X:X:X:X:X:X:X:X:X:X:X:X:X:X:X:X:X:X:X:X:X:X:X:X:X:X:X:X:X:X:X:X:X:X:X:X:X:X:X:X:X:X:X:X:X:X:X:X",
":X:X:X:X:X:X:X:X:X:X:X:X:X:X:X:X:X:X:X:X:X:X:X:X:X:X:X:X:X:X:X:X:X:X:X:X:X:X:X:X:X:X:X:X:X:X:X:X:X:X",
":X:X:X:X:X:X:X:X:X:X:X:X:X:X:X:X:X:X:X:X:X:X:X:X:X:X:X:X:X:X:X:X:X:X:X:X:X:X:X:X:X:X:X:X:X:X:X:X:X:X"
};
