/* XPM */
static char *result[] = {
/* columns rows colors chars-per-pixel */
"50 50 198 2 ",
"   c #12172C",
".  c #151B2D",
"X  c #191E2F",
"o  c #1B1E31",
"O  c #0E152C",
"+  c #211F33",
"@  c #16222F",
"#  c #1A212F",
"$  c #1B2331",
"%  c #192D32",
"&  c #1D2A38",
"*  c #1C3133",
"=  c #1C3A35",
"-  c #242434",
";  c #282433",
":  c #242A34",
">  c #2B2A37",
",  c #2B2439",
"<  c #2D2D39",
"1  c #222A39",
"2  c #342D3B",
"3  c #372939",
"4  c #2B3A36",
"5  c #22323D",
"6  c #273438",
"7  c #3A3C31",
"8  c #33313B",
"9  c #39333D",
"0  c #4B323D",
"q  c #53323E",
"w  c #58323D",
"e  c #412B38",
"r  c #62353F",
"t  c #1F4838",
"y  c #224D3A",
"u  c #234337",
"i  c #3A4636",
"p  c #25573C",
"a  c #34563D",
"s  c #26653E",
"d  c #27683F",
"f  c #484932",
"g  c #6A6736",
"h  c #3D2A43",
"j  c #2A3341",
"k  c #233641",
"l  c #3D3741",
"z  c #462E43",
"x  c #502F40",
"c  c #413046",
"v  c #4D3044",
"b  c #433C44",
"n  c #4D324C",
"m  c #573548",
"M  c #5B3653",
"N  c #5F3955",
"B  c #623640",
"V  c #673942",
"C  c #633A57",
"Z  c #693C55",
"A  c #663C5A",
"S  c #6A3D5B",
"D  c #723C45",
"F  c #2B454A",
"G  c #294947",
"H  c #38454D",
"J  c #384E53",
"K  c #335555",
"L  c #385A57",
"P  c #2D534C",
"I  c #2A6D41",
"U  c #2A7442",
"Y  c #3E625F",
"T  c #347B4E",
"R  c #3E6D65",
"E  c #3B6660",
"W  c #3F7168",
"Q  c #4B4446",
"!  c #50464B",
"~  c #544A4C",
"^  c #574D4C",
"/  c #5B544A",
"(  c #5D5150",
")  c #505958",
"_  c #4E5059",
"`  c #6D494B",
"'  c #7F4148",
"]  c #67435B",
"[  c #75415B",
"{  c #7B445A",
"}  c #625651",
"|  c #6A5A56",
" . c #6E5C59",
".. c #765A56",
"X. c #745546",
"o. c #4C6D45",
"O. c #6D6155",
"+. c #736556",
"@. c #75635A",
"#. c #786B5A",
"$. c #406E66",
"%. c #407467",
"&. c #417168",
"*. c #407E64",
"=. c #7F6861",
"-. c #974A4E",
";. c #8C4754",
":. c #834459",
">. c #8A4656",
",. c #944A57",
"<. c #9C4C56",
"1. c #974C58",
"2. c #855F5B",
"3. c #A14D4F",
"4. c #A54F54",
"5. c #AB5255",
"6. c #A95856",
"7. c #B55555",
"8. c #B95655",
"9. c #B75957",
"0. c #95655B",
"q. c #87765B",
"w. c #8B6159",
"e. c #BB635D",
"r. c #B4635C",
"t. c #897064",
"y. c #B97A6A",
"u. c #AC6F62",
"i. c #C27566",
"p. c #C47D6B",
"a. c #3B8A48",
"s. c #33984B",
"d. c #3A9F57",
"f. c #3B975A",
"g. c #398B58",
"h. c #34A24D",
"j. c #3AA64E",
"k. c #38B451",
"l. c #38AA52",
"z. c #3D8062",
"x. c #478849",
"c. c #57964E",
"v. c #558F4C",
"b. c #64924F",
"n. c #47B753",
"m. c #74A454",
"M. c #76AD56",
"N. c #408360",
"B. c #58C157",
"V. c #7ACC5D",
"C. c #69C65A",
"Z. c #9C953B",
"A. c #B4AA3B",
"S. c #C6BA3E",
"D. c #EFDF3E",
"F. c #92856B",
"G. c #9D8E72",
"H. c #B19F7C",
"J. c #D9945F",
"K. c #DD9E5B",
"L. c #D7915F",
"P. c #CE8C5D",
"I. c #CCBF40",
"U. c #DEA25A",
"Y. c #D7B64A",
"T. c #E3AC57",
"R. c #E8B754",
"E. c #8BCA5E",
"W. c #85D15F",
"Q. c #8ED361",
"!. c #DACB40",
"~. c #EEC74F",
"^. c #EFC84E",
"/. c #F8DD49",
"(. c #EFD849",
"). c #FBE445",
"_. c #FEEC43",
"`. c #FFED4B",
"'. c #FFF044",
"]. c #FFEF5D",
"[. c #FFEE52",
"{. c #FFF37B",
"}. c #FFF272",
"|. c #BDAF88",
" X c #CDB081",
".X c #E0CD9A",
"XX c #E3D09C",
"oX c #FFF485",
"OX c #ECD7A1",
"+X c #FEF7B6",
"@X c #F7ECAE",
"#X c #FFF9CA",
"$X c #FFF9C2",
"%X c #F5ECCC",
"&X c #FFFCE5",
"*X c #FFFFFF",
"=X c #FFFEF7",
"-X c None",
/* pixels */
"-X-X-XJ.R.~.K.K.R.T.J.-X-X-X-X-X-X-X-X-X-X-X-X-X-X-X-X-X-X-X-X-X-X-X-X-X-X-X-X-X-X-X-X-X-X-X-X-X-X-X",
"-X-XL.R._./.U.L.L.J.J.J.-X-X-X-X-X-X-X-X-X-X-X-X-X-X-X-X-X-X-X-X-X-X-X-X-X-X-X-X-X-X-X-X-X-X-X-X-X-X",
"-XL.R._.).T.K.K.R.U.J.J.-X-X-X-X-X-X-X-X-X-X-X-X-X-X-X-X-X-X-X-X-X-X-X-X-X-X-X-X-X-X-X-X-X-X-X-X-X-X",
"L.U.).).[././.)._.-X-X-X-X-X-X-X-X-X-X-X-X-X-X-X-X-X-X-X-X-X-X-X-X-X-X-X-X-X-X-X-X-X-X-X-X-X-X-X-X-X",
"L.R.).^.@X}._.oX].-X-X-X-X-X-X-X-X-X-X-X-X-X-X-X-X-X-X-X-X-X-X-X-X-X-X-X-X-X-X-X-X-X-X-X-X-X-X-X-X-X",
"-XT.~.).[.`.'.#X}.D.-X-X-X-X-X-X-X-X-X-X-X-X-X-X-X-X-X-X-X-X-X-X-X-X-X-X-X-X-X-X-X-X-X-X-X-X-X-X-X-X",
"-XP.U._._._.oX$X+XA.-X-X-X-X-X-X-X-X-X-X-X-X-X-X-X-X-X-X-X-X-X-X-X-X-X-X-X-X-X-X-X-X-X-X-X-X-X-X-X-X",
"-XX.Y.'._.].&X+X{.(.f -X-X-X-X-X-X-X-X-X-X-X-X-X-X-X-X-X-X-X-X-X-X-X-X-X-X-X-X-X-X-X-X-X-X-X-X-X-X-X",
"-X. Z._._.].&X#X_._.Z.-X-XJ.-X-XJ.-X-X-X-X-X-X-X-X-X-X-X-X-X-X-X-X-X-X-X-X-X-X-X-X-X-X-X-X-X-X-X-X-X",
"-X-X7 S._._.#X*X}.'.Z.-X-XJ.J.J.J.-X-X-X-X-X-X-X-X-X-X-X-X-X-X-X-X-X-X-X-X-X-X-X-X-X-X-X-X-X-X-X-X-X",
"-X-X-X7 S._.#X*X+X_.g O -XJ.J.J.-X-X-X-X-X-X-X-X-X-X-X-X-X-X-X-X-X-X-X-X-X-X-X-X-X-X-X-X-X-X-X-X-X-X",
"-X-X-X-X7 !.#X*X+X!.7 -X-X-X-X-X-X-X-X-X-X-X-X-X-X-X-X-X-X-X-X-X-X-X-X-X-X-X-X-X-X-X-X-X-X-X-X-X-X-X",
"-X-X-X-X  q.@X%X.X/ # -X-X-X-X-X-X-XX - -X-X-X-X-X-X-X-X-X-X-X-X-X-X-X-X-X-X-X-X-X-X-X-X-X-X-X-X-X-X",
"-X-X-X-X6 H.XX@XOX#.  -X-X-X-X-X-X-X# ` 9 X -X-X-X-X-X-X-X-X-X-X-X-X-X-X-X-X-X-X-X-X-X-X-X-X-X-X-X-X",
"-X-X-X-X$ ~ |.XXF.G.6 -X-X-X-X-X-X-XX 0.6.w . . -X-X-X-X-X-X-X-X-X-X-X-X-X-X-X-X-X-X-X-X-X-X-X-X-X-X",
"-X-X-X-X. | H.#.Q F.> -X-X-X-X-X-X-X< u.e.r.q $ . -X-X-X-X-X# : . -X-X-X-X-X-X-X-X-X-X-X-X-X-X-X-X-X",
"-X-X-X-X-XO.+.$ ~ 8 . -X-X-X-X-X-X. ` p.e.P.[ h O O . -X-X. o.x.. -X-X-X-X-X-X-X-X-X-X-X-X-X-X-X-X-X",
"-X-X-X-X-X. o - 9 > . -X-X. X .   . w.i.e.u.] h h V v , . . v.a.. -X-X-X-X-X-X-X-X-X-X-X-X-X-X-X-X-X",
"-X-X-X-X-X-X. ~ =.^ . -X-X-X4 b.a . 2 6.8.1.N q 4.<.[ M . . a x.@ -X-X-X-X-X-X-X-X-X-X-X-X-X-X-X-X-X",
"-X-X-X-X-X-X. ! t.| . -X-X-X4 E.V.a.= ' 5.>.4.4.,.S n 2 0 v , p y -X-X-X-X-X-X-X-X-X-X-X-X-X-X-X-X-X",
"-X-X-X-X-X-X-X2 @.t.> -X-X-X. o.Q.B.d.J ` 5.5.:.S v x 4.4.{ M - @ -X-X-X-X-X-X-X-X-X-X-X-X-X-X-X-X-X",
"-X-X-X-X-X-X-X$ ! ~ $ % -X-X-X: M.V.k.W H -.4.;.,.4.5.4.{ A S n X -X-X-X-X-X-X-X-X-X-X-X-X-X-X-X-X-X",
"-X-X-X-X-X-X-X. : & @ U = -X-X-X4 M.n.f.R 2.8.8.8.7.5.S S S S A , -X-X-X-X-X-X-X-X-X-X-X-X-X-X-X-X-X",
"-X-X-X-X-X-X-Xi M.m.: I s -X-X-X  i n.d.W ) 3.8.7.<.S C n h h h o . -X-X-X-X-X-X-X-X-X-X-X-X-X-X-X-X",
"-X-X-X-X-X-X-Xa C.W.b.u * -X-X. $ # x.f.R 5 -.<.S S M , . = s s I p $ -X-X-X-X-X-X-X-X-X-X-X-X-X-X-X",
"-X-X-X-X-X-X-X= h.k.n.y . -X-X; 0.` y N.) 0 4.4.M , 1 G I h.k.k.V.W.c.: -X-X-X-X-X-X-X-X-X-X-X-X-X-X",
"-X-X-X-X-X-X-X. U k.l.t . -X-X9 p.u.+.q.6.4.7.;.+ $ K *.k.k.k.k.n.W.W.c.* . -X-X-X-X-X-X-X-X-X-X-X-X",
"-X-X-X-X-X-X-X-X= d y o . . -X9 y.p.p.p.e.9.7.m 5 K $.%.d.j.s.d s a.n.j.h.d % -X-X-X-X-X-X-X-X-X-X-X",
"-X-X-X-X-X-X-X-X-X  9 ! o . . ; 0.i.e.8.8.7.8.V $ & F $.W P % X . % % * s s.p -X-X-X-X-X-X-X-X-X-X-X",
"-X-X-X-X-X-X-X-X-X. 9 @.> . . . < ..6.8.8.8.8.D O 5 E W W K L L & -X-X-X. % @ -X-X-X-X-X-X-X-X-X-X-X",
"-X-X-X-X-X-X-X-X-X-X$ - -X-X. X   3 0 >.,.4.5.:.h k E &.&.%.W W 5 -X-X-X-X-X-X-X-X-X-X-X-X-X-X-X-X-X",
"-X-X-X-X-X-X-X-X-X-X-X-X-X-X-X. . m >.;.4.5.7.6.:.n 1 K W W R F . -X-X-X-X-X-X-X-X-X-X-X-X-X-X-X-X-X",
"-X-X-X-X-X-X-X-X-X-X-X-X-X-X-X-XX ' 8.8.7.7.7.8.,.A n c H E R j h + -X-X-X-X-X  -X-X-X-X-X-X-X-X-X-X",
"-X-X-X-X-X-X-X-X-X-X-X-X-X-X-X-X-Xr 7.7.7.7.7.7.:.A S S C N J ] S h o -X-X. 5 s $ -X-X-X-X-X-X-X-X-X",
"-X-X-X-X-X-X-X-X-X-X-X-X-X-X-X-X-X3 7.8.8.8.8.5.S S S S S S M C A n o . . k g.k.U . -X-X-X-X-X-X-X-X",
"-X-X-X-X-X-X-X-X-X-X-X-X-X-X-X-X. - r r r r r x n N N n h h 2 , c - X . X F f.k.s.@ -X-X-X-X-X-X-X-X",
"-X-X-X-X-X-X-X-X-X-X-X-X-X-X-X-X. - ( O.} +.( +.} b < - o - @.! Q ! $ -X-Xk T d.I @ -X-X-X-X-X-X-X-X",
"-X-X-X-X-X-X-X-X-X-X-X-X-X-X-X-X. - } O.} #.} @.} ( =. .| l } | - o . -X-X. $ % @ -X-X-X-X-X-X-X-X-X",
"-X-X-X-X-X-X-X-X-X-X-X-X-X-X-X-X-X. . o $ o X X o , 2 b < $ , < $ . . -X-X-X-X-X-X-X-X-X-X-X-X-X-X-X",
"-X-X-X-X-X-X-X-X-X-X-X-X-X-X-X-X-X+ C Z Z Z C C N N M h - l | 1 b ! > . -X-X-X-X-X-X-X-X-X-X-X-X-X-X",
"-X-X-X-X-X-X-X-X-X-X-X-X-X-X-X-X. q <.3.7.3.;.S S A C M , ^ ~ $ - ( ^ . -X-X-X-X-X-X-X-X-X-X-X-X-X-X",
"-X-X-X-X-X-X-X-X-X-X-X-X-X-X-X-X. - ; 3 r 3 ; h h h - o - b - . . $ 9 . -X-X-X-X-X-X-X-X-X-X-X-X-X-X",
"-X-X-X-X-X-X-X-X-X-X-X-X-X-X-X-X-X-X-X.   . -X-X-X. -X-X-X-X-X-X-X-X. . -X-X-X-X-X-X-X-X-X-X-X-X-X-X",
"-X-X-X-X-X-X-X-X-X-X-X-X-X-X-X-X-X-X-X-X. . -X-X-X-X-X-X-X-X-X-X-X-XX . -X-X-X-X-X-X-X-X-X-X-X-X-X-X",
"-X-X-X-X-X-X-X-X-X-X-X-X-X-X-X-X-X-X-X-X-X. -X-X-X-X-X-X-X-X-X-X-X-X. X . -X-X-X-X-X-X-X-X-X-X-X-X-X",
"-X-X-X-X-X-X-X-X-X-X-X-X-X-X-X-X-X-X-X-X-Xo . -X-X-X-X-X-X-X-X-X-X-X-X. . -X-X-X-X-X-X-X-X-X-X-X-X-X",
"-X-X-X-X-X-X-X-X-X-X-X-X-X-X-X-X-X-X-X-X. . . -X-X-X-X-X-X-X-X-X-X-X-X-X-X-X-X-X-X-X-X-X-X-X-X-X-X-X",
"-X-X-X-X-X-X-X-X-X-X-X-X-X-X-X-X-X-X-X-XX . . -X-X-X-X-X-X-X-X-X-X-X-X-X-X-X-X-X-X-X-X-X-X-X-X-X-X-X",
"-X-X-X-X-X-X-X-X-X-X-X-X-X-X-X-X-X-X-X-X-X-X-X-X-X-X-X-X-X-X-X-X-X-X-X-X-X-X-X-X-X-X-X-X-X-X-X-X-X-X",
"-X-X-X-X-X-X-X-X-X-X-X-X-X-X-X-X-X-X-X-X-X-X-X-X-X-X-X-X-X-X-X-X-X-X-X-X-X-X-X-X-X-X-X-X-X-X-X-X-X-X"
};
