/* XPM */
static char *result[] = {
/* columns rows colors chars-per-pixel */
"50 50 169 2 ",
"   c #0F152A",
".  c #10172B",
"X  c #151B2D",
"o  c #191E2F",
"O  c #171D30",
"+  c #191F32",
"@  c #1C2132",
"#  c #1D253A",
"$  c #1C2D3F",
"%  c #222533",
"&  c #262935",
"*  c #2A2B36",
"=  c #212738",
"-  c #20283F",
";  c #2D2E39",
":  c #2F333C",
">  c #33353E",
",  c #3A363F",
"<  c #3C3A3E",
"1  c #222A42",
"2  c #262F49",
"3  c #28324D",
"4  c #213A4B",
"5  c #353940",
"6  c #3A3B41",
"7  c #2E3957",
"8  c #2D3755",
"9  c #313D5D",
"0  c #333F60",
"q  c #423D42",
"w  c #3C404A",
"e  c #354162",
"r  c #384467",
"t  c #374769",
"y  c #394569",
"u  c #3B486C",
"i  c #2A5263",
"p  c #3E4C72",
"a  c #3D5375",
"s  c #3F5B7D",
"d  c #306173",
"f  c #424245",
"g  c #4A4645",
"h  c #454749",
"j  c #4C4D4D",
"k  c #4E4748",
"l  c #544C4A",
"z  c #57504B",
"x  c #5A514D",
"c  c #565652",
"v  c #5F5250",
"b  c #5D5B54",
"n  c #5F5E58",
"m  c #60574E",
"M  c #655A51",
"N  c #605F58",
"B  c #695A55",
"V  c #6E6255",
"C  c #64625A",
"Z  c #6C6A5E",
"A  c #726556",
"S  c #75645A",
"D  c #79655D",
"F  c #756A5A",
"G  c #786A59",
"H  c #7F735F",
"J  c #404D75",
"K  c #415077",
"L  c #415278",
"P  c #405B7E",
"I  c #7D7564",
"U  c #7B7868",
"Y  c #826B61",
"T  c #847661",
"R  c #8C7366",
"E  c #8D7B63",
"W  c #827E6B",
"Q  c #967A6A",
"!  c #997C6C",
"~  c #85816E",
"^  c #978467",
"/  c #9C826C",
"(  c #9C896C",
")  c #968368",
"_  c #8B8671",
"`  c #958F77",
"'  c #969077",
"]  c #9A947A",
"[  c #A2856F",
"{  c #A18B6B",
"}  c #A6906F",
"|  c #A9916F",
" . c #A68970",
".. c #AB8D72",
"X. c #A29172",
"o. c #AB9374",
"O. c #B29575",
"+. c #B59977",
"@. c #BC9D79",
"#. c #BFA27A",
"$. c #C3A57C",
"%. c #C7A97D",
"&. c #CAAB7E",
"*. c #3F6382",
"=. c #3F6885",
"-. c #3E6D88",
";. c #387487",
":. c #3D748C",
">. c #38788A",
",. c #405E80",
"<. c #3E8496",
"1. c #3D8698",
"2. c #3E889A",
"3. c #ABA383",
"4. c #B9AB85",
"5. c #BFB68F",
"6. c #9DA0A8",
"7. c #ADAFB7",
"8. c #CEAF80",
"9. c #CFB080",
"0. c #CCB98E",
"q. c #C9B78B",
"w. c #D4B482",
"e. c #D8B784",
"r. c #D6B987",
"t. c #DABA86",
"y. c #DABC8A",
"u. c #C1B790",
"i. c #C5BB93",
"p. c #C9BE95",
"a. c #DCC18D",
"s. c #D6C494",
"d. c #DEC491",
"f. c #D4C99B",
"g. c #E0C794",
"h. c #E1CA96",
"j. c #E4CD99",
"k. c #E5D19D",
"l. c #EAD49F",
"z. c #DFD3A2",
"x. c #C6C3BC",
"c. c #E4D5A2",
"v. c #E9D7A1",
"b. c #EBDAA4",
"n. c #EDDEA9",
"m. c #E7D9A8",
"M. c #F1DFA7",
"N. c #EFE1AB",
"B. c #F2E4AD",
"V. c #F7E8AF",
"C. c #F0E3B3",
"Z. c #F9EAB0",
"A. c #F1E6BA",
"S. c #F3E9BE",
"D. c #DBD9CE",
"F. c #D9DBDD",
"G. c #F1E7C1",
"H. c #F4EAC5",
"J. c #F5ECCA",
"K. c #F6EFD2",
"L. c #F7F0D5",
"P. c #F7F1D8",
"I. c #F9F3DE",
"U. c #F9F5E3",
"Y. c #FBF8ED",
"T. c #FBF7EB",
"R. c #FCFAF1",
"E. c #FFFEFE",
"W. c None",
/* pixels */
"W.W.W.W.W.W.W.W.W.W.W.W.W.W.W.W.W.W.W.W.W.W.W.W.W.W.W.W.W.W.W.W.W.W.W.W.W.W.W.W.W.W.W.W.W.W.W.W.W.W.",
"W.W.W.W.W.W.W.W.W.W.W.W.W.W.W.W.W.W.X X X       .         X W.W.W.W.W.W.W.W.W.W.W.W.W.W.W.W.W.W.W.W.",
"W.W.W.W.W.W.W.W.W.W.W.W.W.W.W.W.X X X X & T _ _ _ _ _ _ _ * X X X W.W.W.W.W.W.W.W.W.W.W.W.W.W.W.W.W.",
"W.W.W.W.W.W.W.W.W.W.W.W.W.W.o X o @ = 6.x.b.V.V.V.V.B.V.B.5.` @ X X W.W.W.W.W.W.W.W.W.W.W.W.W.W.W.W.",
"W.W.W.W.W.W.W.W.W.W.W.W.W.X X X b q.D.R.S.B.N.N.N.B.N.N.N.B.B.] : @ X W.W.W.W.W.W.W.W.W.W.W.W.W.W.W.",
"W.W.W.W.W.W.W.W.W.W.W.W.X X 6 Z m.I.E.A.N.n.N.N.N.N.N.N.N.N.N.n.b.W @ X W.W.W.W.W.W.W.W.W.W.W.W.W.W.",
"W.W.W.W.W.W.W.W.W.W.W.X X X +.N.I.E.E.A.N.N.N.N.N.N.N.N.N.N.N.N.N.G.w . X W.W.W.W.W.W.W.W.W.W.W.W.W.",
"W.W.W.W.W.W.W.W.W.W.X X X M 8.A.E.E.E.U.K.N.N.N.n.N.N.N.N.N.N.N.N.U.7.= X X W.W.W.W.W.W.W.W.W.W.W.W.",
"W.W.W.W.W.W.W.W.W.W.X X m w.k.A.E.I.U.E.Y.G.Y.G.N.A.P.N.n.N.A.K.N.U.E.7.@ @ W.W.W.W.W.W.W.W.W.W.W.W.",
"W.W.W.W.W.W.W.W.W.W.X   S t.v.A.E.L.U.E.C.J.E.J.N.H.E.K.N.N.H.U.b.P.R.F.F V . W.W.W.W.W.W.W.W.W.W.W.",
"W.W.W.W.W.W.W.W.W.X X & ) t.v.C.Y.P.J.I.N.S.R.J.N.E.E.P.b.C.E.U.N.N.C.K.l.A . W.W.W.W.W.W.W.W.W.W.W.",
"W.W.W.W.W.W.W.W.W.X . z t.r.v.M.C.S.b.N.N.N.S.A.N.K.K.A.B.C.R.H.N.N.N.N.N.H   X W.W.W.W.W.W.W.W.W.W.",
"W.W.W.W.W.W.W.W.X @ k z e.w.b.B.N.N.h.b.N.N.N.N.N.b.N.N.N.N.A.N.N.N.N.n.V.W   X X W.W.W.W.W.W.W.W.W.",
"W.W.W.W.W.W.W.W.X % S m e.e.v.C.N.N.d.b.N.N.N.N.N.N.N.N.N.N.N.N.n.N.N.N.N.s.g X X W.W.W.W.W.W.W.W.W.",
"W.W.W.W.W.W.W.X X % R ..w.w.v.v.n.N.d.v.N.N.N.N.N.N.n.b.N.N.N.N.h.k.N.N.N.l.z   X W.W.W.W.W.W.W.W.W.",
"W.W.W.W.W.W.W.X X @ R ..e.w.g.y.N.N.k.b.N.B.N.N.N.N.k.h.N.N.N.N.h.k.N.N.N.B.] & X W.W.W.W.W.W.W.W.W.",
"W.W.W.W.W.W.W.X X @ R ..w.w.w.y.N.N.N.N.N.N.N.N.N.N.k.h.N.N.N.N.g.k.B.C.n.B.n.f X X W.W.W.W.W.W.W.W.",
"W.W.W.W.W.W.X X X M Q ..w.w.e.y.n.N.d.b.N.N.N.N.N.N.k.h.N.N.N.N.b.b.n.n.n.n.h.} @ X W.W.W.W.W.W.W.W.",
"W.W.W.W.W.W.X X ; R ! Q +.&.&.e.d.b.d.v.N.N.N.N.N.N.h.d.N.N.N.N.j.k.n.v.g.n.d.%.% X X W.W.W.W.W.W.W.",
"W.W.W.W.W.X . ; | w...! ! $...&.r.w.w.m.b.N.N.M.N.b.r.w.d.n.C.n.g.g.n.v.y.g.w.@.q X o W.W.W.W.W.W.W.",
"W.W.W.W.X X > 4.y.w.&.! Q ..[ &.w.w.r.d.t.h.h.b.B.b.w.e.r.d.h.d.w.w.g.g.w.$.%.[ Q l X X W.W.W.W.W.W.",
"W.W.W.W.X > u.C.d.w.&.O.! ! Q O.w.w.w.w.w.w.w.y.a.a.w.w.w.w.&.w.w.w.w.w.r.O.[ / $.%.z . W.W.W.W.W.W.",
"W.O X . > p.B.n.M.y.e.&.&.&...{ [ @.w.w.w.&.w.w.w.w.w.w.O.%.O.M 8.8.8.e.$.[ / $.w.w.&.g   W.W.W.W.W.",
"W.X : z i.B.N.M.M.t.e.a.e.t.&.&.w.w.w.w.@.O.+.@.w.%.$.%. .! B X M ! ! 9.w.9.w.w.t.w.k.~ f X W.W.W.W.",
"W.  ~ V.N.N.N.b.X.$.j.k.w.e.&.t.w.e.e.9.! ..$.%.w.O.O.{ Q R % X , ) +.w.w.y.r.9.T { j.B.m.C   W.W.W.",
"W.X w i.B.N.b.} * 4.N.l.w.E q.h.w.w.w.9.[ $.w.w.w.w.e.%.+.v X X X g $.y.j.v.l.w.A * X.N.B.c.] c X W.",
"W.W.. 6 p.b.X.& @ s.N.a.) @ u.N.v.v.y.9.o.{ q q k #.9.e.A X X X X . f s.B.N.N.v.e.G * ( c.B.Z.W   W.",
"W.W.W.X > ) &   ' N.b.9.b   i.B.n.B.d.e.) % .   . & C I X X X # O X X j i.c.C.V.b.a.H * , u.' @ X W.",
"W.W.W.W.X o . , 5.B.c.V X h f.N.n.N.d.^ % X & q , X X o X - 3 p 9 1 X o X N 3.3.3.3.X.< X @ o X W.W.",
"W.W.W.W.W.X . ~ Z.N.U X . 3.Z.N.V.v.r., . & D ! ..M X X 1 p J J J J 8 X X X X X X . X X X X W.W.W.W.",
"W.W.W.W.W.W.. 6 n c X X X h n n b ( w., % D ! O.w.w.V X - u J s *.J p e 3 X X o o X X X W.W.W.W.W.W.",
"W.W.W.W.W.W.W.. . . X X X X X   < O.0.6 ; Q Q $.w.t.^ . X t P <.-.p p K e X X X W.W.W.W.W.W.W.W.W.W.",
"W.W.W.W.W.W.W.W.W.W.X X o @ e @ o % % X & Y ! +.r.w.G . $ >.<.1.<.=.s J 9 X X X W.W.W.W.W.W.W.W.W.W.",
"W.W.W.W.W.W.W.W.W.W.X o X X 3 O X X X 4 X ; Y ! +.G o X d 2.1.<.1.1.:.L 9 X X X W.W.W.W.W.W.W.W.W.W.",
"W.W.W.W.W.W.W.W.W.W.W.X X X X . # 9 7 >.i X ; k f X X 2 >.2.1.1.:.*.K J e X X X W.W.W.W.W.W.W.W.W.W.",
"W.W.W.W.W.W.W.W.W.W.W.W.o X X X + 1 0 s a e 2 X X # 9 a ,.s s s L J p y # X X + W.W.W.W.W.W.W.W.W.W.",
"W.W.W.W.W.W.W.W.W.W.W.W.W.W.X X X X @ @ @ 2 r e 0 e y y y y y y y y 1 @ X X X W.W.W.W.W.W.W.W.W.W.W.",
"W.W.W.W.W.W.W.W.W.W.W.W.W.W.W.X X + X X X X O @ + + O + O + O O O O X X X X X W.W.W.W.W.W.W.W.W.W.W.",
"W.W.W.W.W.W.W.W.W.W.W.W.W.W.o X X X X O X X X X X X o X X X X o O X X O X X O o W.W.W.W.W.W.W.W.W.W.",
"W.W.W.W.W.W.W.W.W.W.W.W.X X o X X O X X W.W.W.W.W.W.W.W.W.W.W.W.W.W.W.X W.X X X o W.W.W.W.W.W.W.W.W.",
"W.W.W.W.W.W.W.W.W.W.W.W.o @ X X X @ X X W.W.W.W.W.W.W.W.W.W.W.W.W.W.W.W.W.W.X X X X X W.W.W.W.W.W.W.",
"W.W.W.W.W.W.W.W.W.W.W.W.X X X W.W.W.W.W.W.W.W.W.W.W.W.W.W.W.W.W.W.W.W.W.W.W.o o o X W.W.W.W.W.W.W.W.",
"W.W.W.W.W.W.W.W.W.W.W.W.W.X X W.W.W.W.W.W.W.W.W.W.W.W.W.W.W.W.W.W.W.W.W.W.W.W.X X W.W.W.W.W.W.W.W.W.",
"W.W.W.W.W.W.W.W.W.W.W.W.W.W.W.W.W.W.W.W.W.W.W.W.W.W.W.W.W.W.W.W.W.W.W.W.W.W.W.W.W.W.W.W.W.W.W.W.W.W.",
"W.W.W.W.W.W.W.W.W.W.W.W.W.W.W.W.W.W.W.W.W.W.W.W.W.W.W.W.W.W.W.W.W.W.W.W.W.W.W.W.W.W.W.W.W.W.W.W.W.W.",
"W.W.W.W.W.W.W.W.W.W.W.W.W.W.W.W.W.W.W.W.W.W.W.W.W.W.W.W.W.W.W.W.W.W.W.W.W.W.W.W.W.W.W.W.W.W.W.W.W.W.",
"W.W.W.W.W.W.W.W.W.W.W.W.W.W.W.W.W.W.W.W.W.W.W.W.W.W.W.W.W.W.W.W.W.W.W.W.W.W.W.W.W.W.W.W.W.W.W.W.W.W.",
"W.W.W.W.W.W.W.W.W.W.W.W.W.W.W.W.W.W.W.W.W.W.W.W.W.W.W.W.W.W.W.W.W.W.W.W.W.W.W.W.W.W.W.W.W.W.W.W.W.W.",
"W.W.W.W.W.W.W.W.W.W.W.W.W.W.W.W.W.W.W.W.W.W.W.W.W.W.W.W.W.W.W.W.W.W.W.W.W.W.W.W.W.W.W.W.W.W.W.W.W.W.",
"W.W.W.W.W.W.W.W.W.W.W.W.W.W.W.W.W.W.W.W.W.W.W.W.W.W.W.W.W.W.W.W.W.W.W.W.W.W.W.W.W.W.W.W.W.W.W.W.W.W."
};
