/* XPM */
static char *result[] = {
/* columns rows colors chars-per-pixel */
"50 50 6 1 ",
"  c #161C2E",
". c #506A69",
"X c #669D9D",
"o c #D0DEB5",
"O c #8CC3C4",
"+ c None",
/* pixels */
"OXXXXOOOOOX..OOOOOOOOXXXXXXXXX............++++++++",
"OOOXXXOOXXX..OOOOOOOOXXOOOOOOOOOOO............++++",
"OOOXXXXXXXX..OOOOOOOOXOOOOOOOOOOOOOOO..........+++",
"OOOXXXXXXX.....OOOOXXXOOOOOOOOOOOOOOOO...XXX....++",
"OOOXXXXXX...XXXXXXXXXXOOOOOOOOOOOOOOOOOO.XXXXX...+",
"oOXXXXXXXXXXXXXXXXXXXXOOOOOOOOOOOOOOOoooOXXXXXX...",
"XXXXXXXXXXXXXXXXXXXXXXXXOOOOOOOoooooooooOOXXXXX...",
"XXXXXXOOOOOOOXXXOOOOOXXXXXXOoooooooooooOOXXXXXXX..",
"XXXXXOOOOOOOOOOOOOOOOOXXXXXXXXXXXXXXXXXXXXXXXXXXX.",
"XXXXOOOOOOOOOOOOOOOOOOOOOXXXXXXXXXXXXXXXXOOOOXXXX.",
"XXXOOOOOOOOOOOOOOOOOOOOOOOXXXXXOOOOOOOOOOOOOOOXXX.",
"XXXOOOOOOOOOOOOOOOOOOOOOOOOXXXOOOOOOOOOOOOOOOOXXX.",
"XXXXOOOOOOOOOOOOOOOOOOOOOOOOXXOOOOOOOOOOOOOOOOXXX.",
"OXXXOOOOOOOOOOOOOOOOOOOOOOOOXXOOOOOOOOOOOOOOOOOXX.",
"OXXXXOOOOOOOOOOOOOOOOOOOOOOOOXXOOOOOOOOOOOOOOOOXX.",
"OXXXXOOOOOOOOOOOOOOOOOOOOOOOOOXOOOOOOOOOOOOOOOOXXX",
"OOXXXXOOOOOOOOOOOOOOOOOOOOOOOOOOOOOOOOOOOOOOOOOXXX",
"OOOOXXXOOOOOOOOOOOOOOOOOOOOOOOOOOOOOOOOOOOOOOOXXXX",
"OOOOXXXXXOOOOOOOOOOOOOOOOOOOOOOOOOOOOOOOOOOOOOXXX.",
"OOOOOXXXXXOOOOOOOOOOOOOOOOOOOOOOOOOOOOOOOOOOOOOO..",
"OOOOOOXXOOOOOOOOOOOOOOOOOOOOOOOOOOOOOOOOOOOOOOOX..",
"OOOOOXXXXOOOOOOOOOOOOOOOOOOOOOOOOOOoooooooOOXXXX..",
"OOOXXXXXXXOOOOXXOOOOOOOOOOOOOOOOoooooooooXXXXXXX  ",
"XXXXXXXOXXXOOOXXXOOOOOOOOOOOOOOOOOoooooXXXXXXX.   ",
"XXXXXXOOOOOOOOOXXXXXOOOOOOOOOOOOOOOOXXXXXXX...XXXX",
"XXXXXXOOOOOOOOOXXXXXXXOOOOOOOOXXXXXXXXXX......XXXX",
"OOXXXXOOOOOOOOOXXXXX.XXXXXXXXXXXXXXXXX.......XXXOX",
"OOOXXXOOOOOOOOOOOXXX..XXXXXXXXXXXXXX.......XXXXOOO",
"OOOOOXXOOOOOOOOOOXXX.....XX...............XXXXOOOO",
"OOOOOOOOOOOOOOOXXXXXX........OOOOOOOOX....XXXOOOOX",
"OOOOOOOOOOOOOXXXXXXXXXXXXXOOOOOOOOOOOOOX..OOOOOOOX",
"OOOOOOOOOOOOOOOOOOOOOXXOOOOOOOOOOOOOOOOX...OOOOOOX",
"OOOOOOOOOOOOOOOOOOOOOOOOOOOOOOOOOOOOOOOOO...OOOOXX",
"OOOOOOOOOOOOOOOOOOOOOOOOOOOOOOOOOOOOOOOOOOO...XXXX",
"OOOOOOOOOOOOOOOOOOOOOOOOOOOOOOOOOOOOOOOOOOOOOX.XXX",
"OOOOOOOOOOOOOOOOOOOOOOOOOOOOOOOOOOOOOOOOOOOOOOXX..",
"OOOOOOOOOOOOOOOOOOOOOOOOOOOOOOOOOOOOOOOOOOOOOOXXX.",
"OOOOOOOOOOOOOOOOOOOOOOOOOOOOOOOOOOOOOOOOOOOOOOXXXX",
"ooooooOOOOOOOOOOOOOOOOOOOOOOOOOOOOOOOOOOOOOOXXXXXX",
"ooooooooOOOOOOOOOOOOOOOOOOOOOOOOOOOOXXXXXXXXXXXXXX",
"OOXXXXXXXOOOOOOOOOOOOOOOOOOOOOOOOOOOOXXXXXXXXXXXOO",
"XXXXXXXXXXXXXXXXXOOOOOXXOOOOOOOOOOOOOOOOOOXXXXXXOO",
"XXXXXXXXXXXXOOOOOOOOOXXOOOOOOOOOOOOOOOOOOOOOOOXOOO",
"XXXXXXXXXXXOOOOXXXXXXXXOOOOOOOOOOOOOOOOOOOOOOOXOOO",
"XOOXXOOOOOOOOOOXXXXXXXXOOOOOOOOOOOOOOOOOOOOOOOXOOX",
"OOOOOOOOOOOOOOOOOOOOXXXXOOOOOOOOOOOOOOOOOOOOOOXXXX",
"OOOOOOOOOOOOOOOOOOOXXXXXXOOOOOOOOOOOOOOOOOOOOXXXXX",
"OOOOOOOOOOOOOOOOOOOXXXXXXOOOOOOOOOOOOOOoooooXXXXXX",
"OOOOOOOOOOOOOOOOOOOXXXXXXOOOOOOOOOOOOOOOOOoooooXXX",
"OOOOOOOOOOOOOOOOOOOOOOXXXXOOOOOOOOOOOOOOOOOOoooooo"
};
