/* XPM */
static char *result[] = {
/* columns rows colors chars-per-pixel */
"50 50 209 2 ",
"   c #11172B",
".  c #151B2D",
"X  c #1A1D2F",
"o  c #1C1E31",
"O  c #0E152D",
"+  c #17222F",
"@  c #19202F",
"#  c #1A2631",
"$  c #1A2932",
"%  c #1E2D39",
"&  c #172030",
"*  c #1B3533",
"=  c #232234",
"-  c #2A2333",
";  c #2E2936",
":  c #2C253A",
">  c #2D2D39",
",  c #242C37",
"<  c #3B2937",
"1  c #332D3B",
"2  c #322539",
"3  c #253234",
"4  c #26373B",
"5  c #33313B",
"6  c #363636",
"7  c #2A2E2F",
"8  c #492E3B",
"9  c #4E383C",
"0  c #52313D",
"q  c #5B343E",
"w  c #1F4337",
"e  c #214D39",
"r  c #254339",
"t  c #36493A",
"y  c #23583C",
"u  c #3F583E",
"i  c #25633E",
"p  c #444635",
"a  c #585833",
"s  c #4D4536",
"d  c #3D2B42",
"f  c #372940",
"g  c #393A42",
"h  c #2E3141",
"j  c #432C47",
"k  c #482F49",
"l  c #433D44",
"z  c #493949",
"x  c #53334E",
"c  c #553846",
"v  c #5B3753",
"b  c #5E3855",
"n  c #573450",
"m  c #693A47",
"M  c #713C47",
"N  c #633A55",
"B  c #6A3D5B",
"V  c #643B58",
"C  c #703E56",
"Z  c #713F5A",
"A  c #2B454A",
"S  c #364547",
"D  c #364E52",
"F  c #335555",
"G  c #2A7843",
"H  c #38655B",
"J  c #2C6A47",
"K  c #3E6C65",
"L  c #3B6660",
"P  c #3E7B62",
"I  c #4B4544",
"U  c #444142",
"Y  c #554C4B",
"T  c #5A494B",
"R  c #5A544E",
"E  c #5A5953",
"W  c #504154",
"Q  c #624A45",
"!  c #7D4147",
"~  c #775746",
"^  c #7A4459",
"/  c #675A54",
"(  c #634A55",
")  c #4E7647",
"_  c #7A675B",
"`  c #676259",
"'  c #436E67",
"]  c #417168",
"[  c #417866",
"{  c #7E6860",
"}  c #857E39",
"|  c #8B454B",
" . c #87484D",
".. c #95494D",
"X. c #96484C",
"o. c #834559",
"O. c #8D4858",
"+. c #954A55",
"@. c #9C4D54",
"#. c #9A4C59",
"$. c #935B58",
"%. c #A24E55",
"&. c #AC5153",
"*. c #A45157",
"=. c #B55555",
"-. c #B95655",
";. c #BA5B58",
":. c #A04D4F",
">. c #86675C",
",. c #9A7159",
"<. c #A8685E",
"1. c #BC645D",
"2. c #A27251",
"3. c #955F64",
"4. c #9E7466",
"5. c #907965",
"6. c #867464",
"7. c #BB6D62",
"8. c #A37665",
"9. c #AA7A64",
"0. c #BB7869",
"q. c #A06D60",
"w. c #C27768",
"e. c #2D8245",
"r. c #2E8A47",
"t. c #3A8D4C",
"y. c #34954A",
"u. c #399E57",
"i. c #3D8D5E",
"p. c #36AB4F",
"a. c #37AE51",
"s. c #37B251",
"d. c #38B251",
"f. c #3F8463",
"g. c #5B864B",
"h. c #5D934E",
"j. c #47B753",
"k. c #58B254",
"l. c #51AC52",
"z. c #7CB759",
"x. c #6DAD55",
"c. c #5DC158",
"v. c #90873B",
"b. c #A49C3B",
"n. c #B2A83C",
"m. c #E8D83E",
"M. c #8F8259",
"N. c #A69540",
"B. c #92866D",
"V. c #BB8465",
"C. c #AB9978",
"Z. c #C98A5B",
"A. c #D4915F",
"S. c #D9935F",
"D. c #DD9C5C",
"F. c #E09F5C",
"G. c #DFA25A",
"H. c #CCA050",
"J. c #E0A559",
"K. c #E3AC57",
"L. c #E6B255",
"P. c #E9BB52",
"I. c #E9B754",
"U. c #C68764",
"Y. c #D08F60",
"T. c #DB9460",
"R. c #C6AA7D",
"E. c #E8BB6F",
"W. c #87C65D",
"Q. c #88D05F",
"!. c #91D762",
"~. c #DAC942",
"^. c #DECE4E",
"/. c #EDC54F",
"(. c #EFC94D",
"). c #E3D441",
"_. c #EBDB42",
"`. c #F4D34B",
"'. c #F7DB49",
"]. c #F8DD48",
"[. c #F9DF46",
"{. c #ECC251",
"}. c #F6DA52",
"|. c #FBE446",
" X c #FEED43",
".X c #FAEA49",
"XX c #FAE953",
"oX c #FFF059",
"OX c #FFF263",
"+X c #B7B9BE",
"@X c #C6AE82",
"#X c #DBC594",
"$X c #E4CD97",
"%X c #E9D89E",
"&X c #F0DF9E",
"*X c #FFF387",
"=X c #FFF49C",
"-X c #FFF591",
";X c #E8D5A0",
":X c #FEF6A9",
">X c #FEF7B4",
",X c #F0E2AB",
"<X c #FFFBD8",
"1X c #FFFCD7",
"2X c #FFF9C7",
"3X c #FFFDE8",
"4X c #FFFEF4",
"5X c #FFFEFE",
"6X c None",
/* pixels */
"6X6X6X6X6X6X6X6X6X6X6X6X6X6X6X6X6X6X6X6X6X6X6X6X6X6X6X6X6X6X6X6X6X6X6X6X6X6X6X6X6X6X6X6X6X6X6X6X6X6X",
"6X6X6X6X6X6X6X6X6X6X6X6X6X6X6X6X6X4.4.4.4.4.6X6X6X6X6X6X6X6X6X6X6X6X6X6X6X6X6X6X6X6X6X6X6X6X6X6X6X6X",
"4.4.4.4.4.6X6X6X6X4.6X6X6X6X6X6X4.4.4.4.4.4.4.4.6X6X6X6X6X6X6X6X6X6X6X6X6X6X6X6X6X6X6X6X6X6X6X6X6X6X",
"4.4.4.4.4.4.4.4.4.4.6X6X6X6X6X4.4.4.4.4.4.4.4.6X6X6X6X6X6X6X6X6X6X6X6X6X6X6X6X6X6X6X6X6X6X6X6X6X6X6X",
"4.4.6X6X6X4.4.4.6X6X6X6X6X6X4.4.6X4.4.4.4.4.4.4.4.4.4.4.4.6X6X6X6X6X6X6X6X6X6X6X6X6X6X6X6X6X6X6X6X6X",
"6X6X6X6X6X6X6X6X6X6X6X6X6X4.6X6X6X6X6X6X6X6X8.4.4.4.4.6X6X6X6X6X6X6X6X6X6X6X6X6X6X6X6X6X6X6X6X6X6X6X",
"6X6X6X6X6X6X6X6X6X6X6X6X6X6X6X6X6X6X6X6X6X6X6X4.4.4.6X6X6X6X6X6X6X6X6X6X6X6X6X6X6X6X6X6X6X6X6X6X6X6X",
"6X6X6X6X6X6X6X6X6X6X6X6X6X6X6X6X6X6X6X6X6X6X6X6X6X6X6X6X6X6X6X9.A.6X6X6X6X6X6X6X6X6X6X6X6X6X6X6X6X6X",
"6X6X6X6X6X6X6X6X6X6X6X6X6X6X6X6X6X6X6X6X6X6X6X6X6X6X6X6X6X6X6X4.V.S.6X6X6X6X6X6X6X6X6X6X6X6X6X6X6X6X",
"6X6X6X6X6X6X6X6X6X6X6X6X6X6X6X6X6X6X6X6X6X6X6X6X6X6X6X6X6X6X6X4.8.Y.S.6X6X6X6X6X6X6X6X6X6X6X6X6X6X6X",
"6X6X6X6X6X6X6X6X6X6X6X6X6X6X6X6X6X6X6X6X6X6X6X6X6X6X6X6X6X6X6X6X4.9.Y.S.6X6X6X6X6X6X6X6X6X6X6X6X6X6X",
"6X6X6X6X6X6X6X6X6X6X6X6X6X6X6X6X6X6X6X6X6X6X6X6X6X6X6X6X6X6X6X6X4.4.9.A.S.6X6X6X6X6X6X6X6X6X6X6X6X6X",
"6X6X6X6X6X6X6X6X6X6X6X6X6X6X6X6X6X6X6X6X6X6X6X6X6X6X6X6X6X6X6X6X6X6X6X6XV.6X6X6X6X6X6X6X6X6X6X6X6X6X",
"6X6X6X6X6X6X6X6X6X6X6X6X6X6X6X6X6X6X6X6X6X6X6X6X6X6X6X6X6X6X6X6X6X6X6X6X6X6X6X6X6X6X6X6X6X6X6X6X6X6X",
"6X6X6X6X6X6X6X6X6X6X6X6X6X6X6X6X6X6X6X6X6X6X6X6X6X6X6X6X6X6X6X6X6X6X6X6X6X6X6X6X6X6X6X6X6X6X6X6X6X6X",
"6X6X6X6X6X6X6X6X6X6X6X6X6X6X6X6X6X6X6X6X6X6X6X6X6X6X6X6X6X6X6X6X6X6X6X6X6X6X6X6X6X6X6X6X6X6X6X6X6X6X",
"6X6X6X6X6X6X6X6X6X6X6X6X6X6X6X6X6X6XX X X X X . 6X6X6X6X6X6X6X6X6XS.S.6X6X4.6X6X6X6X6X6X6X6X6X6X6X6X",
"6X6X6X6X6X6X6X6X6X6X6X6X6X6X6X6X6X- m .... .2 6X6X6X6X6X6X6X6X6X6X6XS.6X6X6X8.6X6X6X6X6X6X6X6X6X6X6X",
"6X6X6X6X6X6X6X6X6X6X. t 4 6X6Xl  .:.-.=.! < o 6X6X6X6X6X6X6X6X6X6X6XJ.J.6X6X4.8.8.6X6X6X6X6X6X6X6X6X",
"6X6X6X6X6X6X6X6X6X  3 z.p . I 7.1.7.0.^ o . 6X6X6X6X6X6X6X6X6X6X6X6X6X'.G.6X4.8.V.U.6X6X6X6X6X6X6X6X",
"6X6X6X6X6X6X6X6X6Xo g.z.# = <.1.1.0.3.( :   6X6X6X6X6X6X6X6X6X6X6X6X6X.XI.A.9.8.Y.S.S.6X6X6X6X6X6X6X",
"6X6X6X6X6X6X6X6X6X3 W.k.* 1 <.=.*.^ V < 2 8 - . 6X6X6X6XX X X 6X6X6X6X6X|.G.A.9.Z.S.S.6X6X6X6X6X6X6X",
"6X6X6X6X6X6X6X6X6X3 z.j.J   ! &.O.@... .+.%.m o . 6XX w e.G $ 6X6X6X6X6X X{.S.U.V.S.S.S.6X6X6X6X6X6X",
"6X6X6X6X6X6X6X6X6XX g.j.a.J A ..=.=.*.o.Z n x d X X G p.r.e 6X6X6X6X6X6X6X[.D.A.L.G.S.S.6X6X6X6X6X6X",
"6X6X6X6X6X6X6X6X6X. t k.s.f.F ..&.+.o.^ m k 0 | M : J G . 6X6X6X6X6X6X6X6X XP.T.J./.S.S.S.6X6X6X6X6X",
"6X6X6X6X6X6X6X6X: 2 , k.p.K K $.=.=.-.-.=.&.%.O.^ b , + 6X6X6X6X6X6X6X6X6X6X{.S.S.{.L.S.S.6X X6X6X6X",
"6X6X6X6X6X6X6X; q.q.I t.[ F h +.=.%.#.o.o.^ B B B B j   6X6X6X6X6X6X6X6X6X6X6XT.S.P.[.K.S.6X6X6X6X6X",
"6X6X6X6X6X6X6XT U.U.V.,.3. ...=.%.V x x x x x x b b f O 6X6X6X6X6X6X6X6X6X6X6XS.S.J..X{.S.S.6X X6X6X",
"6X6X6X6X6X6Xo >.w.1.7.w.1.-.-.%.n = o % h % w w S 4   X 6X6X6X6X6X6X6X6X6X6X6XP.D.G.|. X'.`.6X X6X6X",
"6X6X6X6X6X6XX Q 7.1.-.-.=.-.&.8 % , F K [ p.a.a.s.l.h.w . 6X6X6X6X6X6X6X6X6X6X6XD.G.|. X X X X X6X6X",
"6X6X6X6X6X6X. = q @.=.=.=.-.! . % A K ' i.d.s.s.s.c.!.x.$ 6X6X6X6X6X6X6X6X6X6XN.D.G..X/.`..X|. X X6X",
"6X6X6X6X6X6X= |  ...=.=.=.=.k   % F K K H J y w e.p.c.Q.) X 6X6X6X6X6X6X6X6X6X} F.J.[.D.D.'.'..X X6X",
"6X6X6X6X6X6Xq =.-.-.=.=.=.=.C - . H K ] D % % . . w e.j.j.y 6X6X6X6X6X6X6X6X6Xv.D.P.`.S.S.`.|.6X6X6X",
"6X6X6X6X6XX | -.=.X.&.-.=.=.+.b h F ] ] K K L % 6X6X  J s.i 6X6X6X6X6X6X6X_.a ~.D.P.L.S.S.`.I.6X6X6X",
"6X6X6X6X6X< &.-.&.< < X.-.&.^ B v h L ] K ] A o 6X6X6X# y.J 6X6X6X6X6X6X6X_.n.|.D.T.S.S.S.`.I.6X6X6X",
"6X6X6X6X  8 =.=.=.X.0 = 0 N V B B v z ' ] D o 6X6X6X6X# y $ 6X6X6X6X6X6X6X X.X_.D.T.S.D.S.{.H.6X6X6X",
"6X6X6X6X  8 =.=.-.-.=.M = = d b B B V S W B x o 6X6X6X. . 6X6X6X6X6X6X6X6X X X/.S.S.D./.D.Y.Q 6X6X6X",
"6X6X6X6X. - 0 m X...X.| n 2 o = f x k : j v n : 6X6X6X6X6X6X6X6X6X6X6X6X6X6X X{.S.S.P.{.S.Z.s 6X6X6X",
"6X6X6X6X> R Y _ _ 5._ 6.>.( : O X X # * * $ 1 > 6X6X6X6X6X6X6X6X6X6X6X6X6X~  XG.S.G.].I.T.2.6X6X6X6X",
"6X6X6X6X# > 1 T Y / Y / I g > R 5 $ G p.a.y.r = 6X6X6X6X6X6X6X6X6X6X6X6X  v.|.D.S.(..XK.S.~ 6X6X6X6X",
"6X6X6X6X2 Z C n j j j j d = > / 5 e d.d.c.x.4   . 6X6X6X    6X6X6X6X6X6Xa m.P.A.E.=X}.D.Z.s 6X6X6X6X",
"6X6X6X6X- | =.@.+.^ B B B b : o + G d.j.z.t = T g , X . R ` > . 6X6X6Xt ^. XL.L.:X1X`.S.2.6X6X6X6X6X",
"6X6X6X6X  ; c q q c v b b j : . + e.s.c.!.u l _ 5.>.g l 5.C.@XE 6 p E +X:XoX:X>X4X-XL.S.~ 6X6X6X6X6X",
"6X6X6X6X6X.       X o o o o . . . $ y t.) r , l / _ z d d h.,X#X/.m.XX:X-X2X5X4X>XXXJ.A.6X6X6X6X6X6X",
"6X6X6X6X6XX X X 6X6X6X6X6X6X6X6X6X. . #     X & : h = = B.$X,X%X&X:X:X<X4X5X4X>XoX[.G.6X X6X6X6X6X6X",
"6X6X6X6X  X . 6X6X6X6X6X6X6X6X6X6X6X6X. . X 6X6X6X. + { R.C.$X$X&X3X5X5X5X<X1X3X-X X.X X X6X6X6X6X6X",
"6X6X6X6XX . X 6X6X6X6X6X6X6X6X6X6X6X6X6X. o 6X6X6X6XX 6 I I C.M.|.OX=X=XOX-X3X=XoX X X X6X6X6X6X6X6X",
"6X6X6X6X6X6X6X6X6X6X6X6X6X6X6X6X6X6X6X6X6X6X6X6X6X6X6X6X  = , 7 v.m. X X X XoX X X X X6X6X6X6X6X6X6X",
"6X6X6X6X6X6X6X6X6X6X6X6X6X6X6X6X6X6X6X6X6X6X6X6X6X6X6X6X6X6X6X6X  p b.).).).).~.b.6X6X6X6X6X6X6X6X6X",
"6X6X6X6X6X6X6X6X6X6X6X6X6X6X6X6X6X6X6X6X6X6X6X6X6X6X6X6X6X6X6X6X6X6X6Xp 7 6 6 6X6X6X6X6X6X6X6X6X6X6X"
};
