/* XPM */
static char *result[] = {
/* columns rows colors chars-per-pixel */
"50 50 208 2 ",
"   c #0E142D",
".  c #12172C",
"X  c #151B2D",
"o  c #191D2F",
"O  c #1B1D31",
"+  c #201F30",
"@  c #16212F",
"#  c #1B212E",
"$  c #1C2331",
"%  c #1A2B32",
"&  c #1D3C35",
"*  c #1D3534",
"=  c #25292F",
"-  c #242334",
";  c #262A35",
":  c #2B2B37",
">  c #2D243A",
",  c #2E2A39",
"<  c #2A2434",
"1  c #3C2A37",
"2  c #33273D",
"3  c #342C3C",
"4  c #372A36",
"5  c #23373A",
"6  c #34333C",
"7  c #39323C",
"8  c #3B3739",
"9  c #4A2E3B",
"0  c #462D3C",
"q  c #4A333D",
"w  c #54353E",
"e  c #1F4337",
"r  c #1F4638",
"t  c #264939",
"y  c #324A3A",
"u  c #24553B",
"i  c #23663E",
"p  c #454632",
"a  c #4E4E33",
"s  c #53423D",
"d  c #696538",
"f  c #797437",
"g  c #3A2B42",
"h  c #3E3942",
"j  c #253C43",
"k  c #412C44",
"l  c #482D49",
"z  c #4D314B",
"x  c #453746",
"c  c #553948",
"v  c #5D3954",
"b  c #563852",
"n  c #4F3D52",
"m  c #683943",
"M  c #723C44",
"N  c #653B58",
"B  c #693D5A",
"V  c #643B57",
"C  c #723F56",
"Z  c #2C484C",
"A  c #384749",
"S  c #355957",
"D  c #304F51",
"F  c #2C6C45",
"G  c #2A7442",
"H  c #2C7D44",
"J  c #356759",
"K  c #3E6C65",
"L  c #386661",
"P  c #3F7A65",
"I  c #4D4648",
"U  c #54484B",
"Y  c #59534C",
"T  c #5D4E51",
"R  c #4F5848",
"E  c #6A4A4E",
"W  c #7A4348",
"Q  c #7C5D47",
"!  c #794259",
"~  c #675955",
"^  c #7C5853",
"/  c #4A7245",
"(  c #79665B",
")  c #756A5A",
"_  c #4A6463",
"`  c #417168",
"'  c #407167",
"]  c #5D6661",
"[  c #7F7360",
"{  c #857E38",
"}  c #87444A",
"|  c #94494E",
" . c #984A4D",
".. c #824559",
"X. c #8A4857",
"o. c #954A55",
"O. c #9D4C56",
"+. c #934F5B",
"@. c #985252",
"#. c #A24D4F",
"$. c #A24E55",
"%. c #A84F54",
"&. c #AC5255",
"*. c #A55353",
"=. c #B55454",
"-. c #B85555",
";. c #B65B58",
":. c #956456",
">. c #BB635D",
",. c #B27C55",
"<. c #8A7863",
"1. c #997068",
"2. c #BE6E62",
"3. c #B87868",
"4. c #A67162",
"5. c #C37A69",
"6. c #C17265",
"7. c #2D8646",
"8. c #338A48",
"9. c #33954A",
"0. c #3D945D",
"q. c #35A74E",
"w. c #3BAC53",
"e. c #3AB452",
"r. c #36B250",
"t. c #3C8262",
"y. c #528250",
"u. c #66934F",
"i. c #44A952",
"p. c #48B753",
"a. c #51BE56",
"s. c #68B657",
"d. c #76AD56",
"f. c #66C359",
"g. c #76C75B",
"h. c #8D8639",
"j. c #928B39",
"k. c #9B943A",
"l. c #ADA33C",
"z. c #B7AD3C",
"x. c #CDC23F",
"c. c #D0C33F",
"v. c #EEDE3F",
"b. c #BA8157",
"n. c #9A856A",
"m. c #A8926F",
"M. c #A08E6F",
"N. c #AEA07E",
"B. c #D28F5D",
"V. c #D6905F",
"C. c #D9945F",
"Z. c #DC9C5C",
"A. c #CD8C5B",
"S. c #DEA15A",
"D. c #E3AD57",
"F. c #E2AA58",
"G. c #E6B355",
"H. c #EABB53",
"J. c #E8B755",
"K. c #CD886A",
"L. c #8ACE5F",
"P. c #8ED461",
"I. c #DBCC40",
"U. c #EEC64F",
"Y. c #EFC94E",
"T. c #F1CC4D",
"R. c #E3D441",
"E. c #ECDC42",
"W. c #F4D44C",
"Q. c #F7DB4A",
"!. c #F9DE48",
"~. c #F9DF47",
"^. c #ECC150",
"/. c #E5CF5B",
"(. c #FBE446",
"). c #FFED43",
"_. c #FFEE4A",
"`. c #F4E346",
"'. c #FFF044",
"]. c #FFEF5D",
"[. c #FFEE53",
"{. c #FFF159",
"}. c #FFF065",
"|. c #FFF06B",
" X c #FFF271",
".X c #FFF37C",
"XX c #FEEF63",
"oX c #CAB78C",
"OX c #DCC68A",
"+X c #DBC594",
"@X c #E5D39F",
"#X c #FFF48C",
"$X c #FFF480",
"%X c #FFF496",
"&X c #E6D8A4",
"*X c #E2CBA0",
"=X c #FFF6A4",
"-X c #FFF7B3",
";X c #FFF9BC",
":X c #FFF8B6",
">X c #F2E4AF",
",X c #FFFACC",
"<X c #FFFAC6",
"1X c #FFFCD4",
"2X c #FFFBDD",
"3X c #FFFDEC",
"4X c #FFFFFD",
"5X c None",
/* pixels */
"5X5X5X).).).).).).).5X5X5X5X5X5X).).).).).).).5X5X5X5X5X5X5X5X5X5X5X5X5X5X5X5X5X5X5X5X5X5X5X5X5X5X5X",
"5X).).).).(.T.(.).5X5X5X5X5X).).).).).).).).).).).5X5X5X5X5X5X5X5X5X5X5X5X5X5X5X5X5X5X5X5X5X5X5X5X5X",
").).(.T.H.Z.Z.U.5X5X5XS.T.).).).).).).'.).).).).).).).5X5X5X5X5X5X5X5X5X5X5X5X5X5X5X5X5X5X5X5X5X5X5X",
"(.H.S.Z.C.C.D.S.V.5XD.Q.(.'.).).(.(.W.^.Y.(.(.).).).).).).).5X5X).).5X5X5X5X5X5X5X5X5X5X5X5X5X5X5X5X",
"Z.C.C.C.C.C.C.C.G.Q.(.'.'.(.W.G.Z.S.Z.V.C.Z.Z.J.W.(.).(.).).).).5X).)._.5X5X5X5X5X5X5X5X5X5X5X5X5X5X",
"5X5XC.C.C.C.Z.U.(.).).(.T.F.Z.5XC.C.C.C.C.C.C.C.C.S.H.(.).).)._.).5X).).).5X5X5X5X5X5X5X5X5X5X5X5X5X",
"5X5X5X5X5X5X5X5X).W.U.D.C.5X5XC.C.C.C.C.C.C.C.C.C.C.C.Z.H.(.).).).).)._.).).5X5X5X5X5X5X5X5X5X5X5X5X",
"5X5X5X5X5X5X5X5X5X5X5X5X5X5XC.C.C.5X5X5X5X5X5X5X5X5XW.D.Z.G.(.).).).).).).).5X5X5X5X5X5X5X5X5X5X5X5X",
"5X5X5X5X5X5X5X5X5X5X5X5X5X5X5X5X5X5X5X5X5X5X5X5X5X5X5X5X!.Q.Q.).).).).).).).5X5X5X5X5X5X5X5X5X5X5X5X",
"5X5X5X5X5X5X5X5X5X5X5X5X5X5X5X5X5X5X5X5X5X5X5X5X5X5X5X5X5X).).).).).).).'.(.5X5X5X5X5X5X5X5X5X5X5X5X",
"5X5X5X5X5X5X5X5X5X5X5X5X5X5X5X5X5X5X5X5X5X5X5X5X5X5X5X5X5X5X).).).).).).'.(.5X5X5X5X5X5X5X5X5X5X5X5X",
"5X5X5X5X5X5X5X5X5X5X5X5X5X5X5X5X5X5X5X5X5X5X5X5X5XC.C.C.5X5X).).).).).).(.^.C.5X5X5X5X5X5X5X5X5X5X5X",
"5X5X5X5X5X5X5X5X5X5X5X5X5X5X5X5X5X5X5X5X5X5X5X5X5X5XC.C.C.Z.W.).'.).).).(.F.C.C.5X5X5X5X5X5X5X5X5X5X",
"5X5X5X5X5X5X5X5X5X5X5X5X5X5X5X5X5X5X5X5X5X5X5X5X5X5X5X5XC.C.Z.W.(.).).).).^.C.V.5X5X5X5X5X5X5X5X5X5X",
"5X5X5X5X5X5X5X5X5X5X5X5X5X5X5X5X5X5X5X5X5X5X5X5X5X5X5X5X5XC.V.Z.D.(.).).).(.D.C.C.5X5X5X5X5X5X5X5X5X",
"5X5X5X5X5X5X5X5X5X5X5X5X5X5X5X5X5X5X5X5X5X5X5X5X5X5X5X5X5X5XC.V.V.U.).).).W.Z.C.C.5X5X5X5X5X5X5X5X5X",
"5X5X5X5X5X5X5X5X5X5X5X5X5X5X5X5X5X5X5X5X5X5X5X5X5X5X5X5X5X5XC.C.C.S.Q.(.Q.(.S.V.C.5X5X5X5X5X5X5X5X5X",
"5X5X5X5X5X5X5X5X5X5X5X5Xo 0 } M w 4 X 5X5X5X5X5X5X5X5X5X5X5X5XC.C.C.G.Q.S.!.J.C.C.C.5X5X).5X5X5X5X5X",
"5X5X5X5X5X5X5X5X5X5X5XX o 1 :.6.;.$.m < 5X5X5X5X5X5X5X5X5X5X5X5X5XC.C.G.S.H.W.C.C.C.5X5X).5X5X5X5X5X",
"5X5X5X5X5X5X5X5XX @ X X 5X5Xc K.5.-.-. ., 5X5X5X5X5X5X5X5X5X5X5X5X,.V.Z.Z.Z.Q.D.V.C.C.W.).).5X5X5X5X",
"5X5X5X5X5X5X5X% G 9.7.u $ 5X- 4.5.>.2.5.E X 5X5X5X5X5X5X5X5X5X5X5X5XQ V.C.C.T.G.C.C.C.F.(.).5X5X5X5X",
"5X5X5X5X5X5X5X% t y.s.p.H @ 6 3.>.>.3.4.v - X X 5XX & & X 5X5X5X5X5X8 ,.C.C.S.Z.C.C.C.C.Q.).).5X5X5X",
"5X5X5X5X5X5X5X5X5XX / P.f.8.y o.&.+.X.V l M } 2 X X u i.t 5X5X5X5X5X5Xw A.C.C.C.C.C.C.5X(.).).5X5X5X",
"5X5X5X5X5X5X5X5X5X. y L.g.w.J c &.*.=.*.o...! V 2 . ; s.8.% 5X5X5X5X5X= :.C.C.C.C.C.C.5X5X5X5X5X5X5X",
"5X5X5X5X5X5X5X5X5X5X$ u.f.e.P A $.&.O.C B b z > 0 1 $ u.p.r 5X5X5X5X5X5Xs V.C.C.C.C.C.C.5X5X5X).5X5X",
"5X5X5X5X5X5X5X5XX X   R p.w.P _ *.&.$.O.$.o.} } o...l t F $ 5X5X5X5X5X5X6 b.S.C.C.C.J.W.5X).5X).5X5X",
"5X5X5X5X5X5X5X5X6 :.q y i.t.K D %.-.-.=.$.$.O...! B B g X 5X5X5X5X5X5X5X5XQ U.Z.C.V.G.).).).5X).).5X",
"5X5X5X5X5X5X5XX ^ K.3.) y.] I m =.%.X.! B B N N N B B g X 5X5X5X5X5X5X5X5Xa E.H.C.C.Z.!.).).5X(.).5X",
"5X5X5X5X5X5X5X- 4.5.3.K.2.;.=.-.&.! g > , > > g g z l o X 5X5X5X. X 5X5X5X; z.!.Z.V.Z.Q.'.W.F.!.).5X",
"5X5X5X5X5X5X5X7 3.3.-.>.>.;.-.-.m - X j D S F 7.7.F y t @ 5X5XX u % 5X5X'.5Xl.'.G.V.D.).).T.C.!.E.5X",
"5X5X5X5X5X5X5Xo w ;.=.=.-.-.-.M $ j D K ` 0.r.r.e.e.g.P./ % * H 8.% 5X5X'.l.l.'.D.V.D.}._.Y.Z.!.R.a ",
"5X5X5X5X5X5X5X- k c X.o.&.-.&.1 X % Z K ` 0.q.9.9.q.e.g.g.q.9.9.e X 5X5X'.R.R.'.Y.V.J.<X.XT.C.(.E.a ",
"5X5X5X5X5X5Xo m O.O.=.=.=.=.$.0 X * K ` ` L e X o r 7.q.e.r.q.e X 5X5X5X).).].}.Q.C.W.1X<XY.D.).l.; ",
"5X5X5X5X5X5X4 #.-.=.=.=.=.=.&.! g $ K K ` S S D $ . @ r u t * X 5X5X5X5X5Xv.|.#XW.Z.W.1X<XW.U.'.j.  ",
"5X5X5X5X5X5X9 =.=.=.m m =.-.-.O.B g D K ` ` ` S $ 5X5X. X X 5X5X5X5X5X5X5Xz..X,XW.C.W.1X;X(.(.'.k.5X",
"5X5X5X5X5X. W =.-.=.M - 0 } o.! B N g S ` K L $ 5X5X5X5X5X5X5X5X5X5X5X5X5Xl.;X1XQ.F.(.2X;X).).).h.5X",
"5X5X5X5X5XX } =.-.=.-. .1 + 2 b N B B b L _ n > o 5X5X5X5X5X5X5X5X5X5X5X5Xl.;X=X(.Y._.,X#X).).v.a 5X",
"5X5X5X5X5XX M O. .| #.-.O.z + o g b N v l N B v - 5X5X5X5X5X5X5X5X5X5X5X5Xl. X{.].:X%X-X}.).).E.5X5X",
"5X5X5X5XX , 7 8 7 8 w E E b b < X X < - o > 2 3 - 5X5X5X5X5X5X5X5X5X5X5X5Xl.).).=X4X<X_.]._.).(.5X5X",
"5X5X5X5XO I I I ) n.n.<.m.<.T - ; - . * G G i * $ 5X5X5X5X5X5X5X5X5X5X5X$ l.'._.,X4X%X[.,X}.).).5X5X",
"5X5Xo 9 C V z > - , > > 3 , g : ( U ; 9.r.e.a.y.X 5X5X5X5X5X5X5X5X5X5X5Xp E.)..X4X4X X#X3X}.).).5X5X",
"5X5X. 9  .o.o.X.C C N V V v z - 6 - & q.r.f.d.5 $ ; . 5X5XX 6 # . 5X5X5Xf ).(.-X3X2X}.1X-X(.).).5X5X",
"5X5X5Xo - + 9 w c w b v V k 6 I , # F e.e.P./ $ ~ ( ~ h o U N.<.Y @   8 x.).%X.X X#X.X3X|.).).).5X5X",
"5X5X5X5X5XX X . . . o + O o o 6 I : & 7.e.d.u.: T ( <.~ : ) A oX+X[ d x.).%X<X{..X_.]..X).).).).5X5X",
"5X5X5X5X5XX X o 5X5X5X5X5X5X5X. 5XX X @ r t $ O - 6 U U # ; [ *X>X+X/.'.}.2X#X|.#X).).'.E.l.5X5X5X5X",
"5X5X5Xo X o @ 5X5X5X5X5X5X5X5X5X5X5XX X . X X 5X5X5XO O ; <.OX@X&X*X>X:X3X4X;X.X).).).`.j.5X5X5X5X5X",
"5X5X5XX X X 5X5X5X5X5X5X5X5X5X5X5X5X5X5XX X o 5X5X5X5X. 6 m.~ M.+XOX<X3X3X:X|._.).).(.f X 5X5X5X5X5X",
"5X5X5X5X5X5X5X5X5X5X5X5X5X5X5X5X5X5X5X5X5X5X5X5X5X5X5X5XX ; $ Y I h.`.{.{._.).'.'.(.l.@ 5X5X5X5X5X5X",
"5X5X5X5X5X5X5X5X5X5X5X5X5X5X5X5X5X5X5X5X5X5X5X5X5X5X5X5X5X5X5X5X5X= d h.j.c.v.I.c.f 5X5X5X5X5X5X5X5X",
"5X5X5X5X5X5X5X5X5X5X5X5X5X5X5X5X5X5X5X5X5X5X5X5X5X5X5X5X5X5X5X5X5X5X5X5X@ p p p 5X5X5X5X5X5X5X5X5X5X"
};
