/* XPM */
static char *result[] = {
/* columns rows colors chars-per-pixel */
"50 50 164 2 ",
"   c #0F162A",
".  c #10172B",
"X  c #151B2D",
"o  c #191E2F",
"O  c #171D30",
"+  c #191F31",
"@  c #1C2133",
"#  c #1F263D",
"$  c #232634",
"%  c #262936",
"&  c #2B2C37",
"*  c #20283F",
"=  c #2E2F39",
"-  c #2D313B",
";  c #33343C",
":  c #3B393E",
">  c #232B44",
",  c #262F49",
"<  c #27314C",
"1  c #373A41",
"2  c #3C3D43",
"3  c #303544",
"4  c #2C3653",
"5  c #2D3856",
"6  c #333E5E",
"7  c #343F61",
"8  c #433D43",
"9  c #344061",
"0  c #3A466B",
"q  c #3B4B6F",
"w  c #3E4C73",
"e  c #3F5076",
"r  c #3F557A",
"t  c #3F597C",
"y  c #424246",
"u  c #494345",
"i  c #4D4448",
"p  c #4C4A4A",
"a  c #564C4B",
"s  c #5D534E",
"d  c #595955",
"f  c #535451",
"g  c #60564F",
"h  c #635552",
"j  c #645B51",
"k  c #605F58",
"l  c #6F5D58",
"z  c #725F59",
"x  c #65645C",
"c  c #6A665C",
"v  c #6C6154",
"b  c #746757",
"n  c #75625A",
"m  c #756A5A",
"M  c #7C6C5C",
"N  c #4E5361",
"B  c #404E75",
"V  c #40557A",
"C  c #6F6C60",
"Z  c #716F62",
"A  c #757365",
"S  c #7E7765",
"D  c #6C707C",
"F  c #7A7B7D",
"G  c #806F5E",
"H  c #83735E",
"J  c #846D62",
"K  c #8E7D64",
"L  c #827E6C",
"P  c #8B7265",
"I  c #907E64",
"U  c #967A6A",
"Y  c #997D6C",
"T  c #85806D",
"R  c #88836F",
"E  c #958267",
"W  c #9E836D",
"Q  c #9F896B",
"!  c #8B8574",
"~  c #8D8973",
"^  c #9B957B",
"/  c #A2856F",
"(  c #A38C6D",
")  c #A58770",
"_  c #A68970",
"`  c #AB8D72",
"'  c #AD9472",
"]  c #A89C7C",
"[  c #B19575",
"{  c #B59976",
"}  c #BB9C79",
"|  c #B59E77",
" . c #ABA07F",
".. c #BCA27B",
"X. c #C3A47C",
"o. c #C6A87C",
"O. c #CAAA7E",
"+. c #3F6281",
"@. c #3F6C87",
"#. c #3F6E8A",
"$. c #3E738C",
"%. c #3E7C92",
"&. c #406A87",
"*. c #406484",
"=. c #3E8496",
"-. c #3D8698",
";. c #A49D80",
":. c #ABA384",
">. c #B0A887",
",. c #B5AC89",
"<. c #B7A883",
"1. c #BAB18D",
"2. c #CEAF80",
"3. c #CFB081",
"4. c #C0B68F",
"5. c #C9B98E",
"6. c #D4B482",
"7. c #D8B784",
"8. c #D7B987",
"9. c #DAB985",
"0. c #D9BC8A",
"q. c #D2BD8E",
"w. c #C3B992",
"e. c #C9BE95",
"r. c #DCC18E",
"t. c #CCC197",
"y. c #DEC591",
"u. c #DBCB9B",
"i. c #D7CB9D",
"p. c #E1C793",
"a. c #E1CA95",
"s. c #E3CE9A",
"d. c #E7D39D",
"f. c #E9D49E",
"g. c #DDD1A0",
"h. c #E3D6A4",
"j. c #E8D6A1",
"k. c #EBDAA4",
"l. c #EDDEA9",
"z. c #F0DEA7",
"x. c #E9DDB6",
"c. c #EFE1AB",
"v. c #F3E5AD",
"b. c #F0E3B2",
"n. c #F7E9B0",
"m. c #F2E7BB",
"M. c #F2E8BF",
"N. c #ECE2C2",
"B. c #F3E9C2",
"V. c #F6EDCD",
"C. c #F8EFCD",
"Z. c #FBF0C5",
"A. c #F6EFD2",
"S. c #F7F0D5",
"D. c #F8F3DD",
"F. c #E3E3E5",
"G. c #F9F5E3",
"H. c #F5F4EF",
"J. c #FBF7EA",
"K. c #FBF8EE",
"L. c #F7F6F2",
"P. c #FCFAF1",
"I. c #FEFEFC",
"U. c None",
/* pixels */
"U.U.U.U.U.U.U.U.U.U.U.U.U.U.U.U.U.U.U.U.U.U.U.U.U.U.U.U.U.U.U.U.U.U.U.U.U.U.U.U.U.U.U.U.U.U.U.U.U.U.",
"U.U.U.U.U.U.U.U.U.U.U.U.U.U.U.U.U.U.U.U.U.U.U.U.U.U.U.U.U.U.U.U.U.U.U.U.U.U.U.U.U.U.U.U.U.U.U.U.U.U.",
"U.U.U.U.U.U.U.U.U.U.U.U.U.U.U.U.U.U.X X X X X X X X X X X X X U.U.U.U.U.U.U.U.U.U.U.U.U.U.U.U.U.U.U.",
"U.U.U.U.U.U.U.U.U.U.U.U.U.U.U.U.X X X @ @ m  .>.>.>.>.>.,.c + X X U.U.U.U.U.U.U.U.U.U.U.U.U.U.U.U.U.",
"U.U.U.U.U.U.U.U.U.U.U.U.U.U.U.X X % - D F.x.v.v.v.v.v.v.v.h.t.p . X U.U.U.U.U.U.U.U.U.U.U.U.U.U.U.U.",
"U.U.U.U.U.U.U.U.U.U.U.U.U.X X   1 ..N.L.V.c.l.c.c.c.c.c.c.c.v.i.d : X U.U.U.U.U.U.U.U.U.U.U.U.U.U.U.",
"U.U.U.U.U.U.U.U.U.U.U.U.X X & b 1.C.I.G.c.c.c.c.c.c.c.c.c.c.c.c.v.4.2 X U.U.U.U.U.U.U.U.U.U.U.U.U.U.",
"U.U.U.U.U.U.U.U.U.U.U.U.X X u a.C.I.I.G.c.c.c.c.c.c.c.c.c.c.c.c.c.Z.F   X U.U.U.U.U.U.U.U.U.U.U.U.U.",
"U.U.U.U.U.U.U.U.U.U.U.X X = ' p.D.I.I.I.K.B.c.b.c.c.c.c.c.c.c.b.c.V.F.N O X U.U.U.U.U.U.U.U.U.U.U.U.",
"U.U.U.U.U.U.U.U.U.U.U.X o ' r.c.G.I.B.I.I.B.J.G.c.c.G.B.c.c.c.G.c.V.I.F.3 & X U.U.U.U.U.U.U.U.U.U.U.",
"U.U.U.U.U.U.U.U.U.U.X o o | r.c.D.I.B.I.A.c.P.J.c.M.P.P.c.c.M.K.b.M.G.H.! E X U.U.U.U.U.U.U.U.U.U.U.",
"U.U.U.U.U.U.U.U.U.U.X X s o.r.c.B.K.m.A.M.c.A.J.c.S.I.P.c.l.G.I.c.c.c.B.b.W   X U.U.U.U.U.U.U.U.U.U.",
"U.U.U.U.U.U.U.U.U.X o X / 7.r.c.c.M.c.l.c.l.c.m.c.m.B.M.c.l.D.V.c.c.c.c.v.] X X U.U.U.U.U.U.U.U.U.U.",
"U.U.U.U.U.U.U.U.U.X 2 u E 7.r.c.c.l.j.p.c.l.c.c.c.l.c.c.c.c.b.c.c.v.c.c.v.,.@ X O U.U.U.U.U.U.U.U.U.",
"U.U.U.U.U.U.U.U.X X 8 h ( 7.r.c.c.v.j.y.c.v.c.c.c.v.c.c.c.c.c.c.l.j.l.v.c.f.b . X U.U.U.U.U.U.U.U.U.",
"U.U.U.U.U.U.U.U.X X 8 U X.6.r.j.j.c.j.y.c.c.c.c.c.l.l.h.c.c.c.c.j.y.c.c.c.z.S   X U.U.U.U.U.U.U.U.U.",
"U.U.U.U.U.U.U.O O . 8 Y X.6.8.0.d.c.l.d.c.c.c.c.c.v.l.r.l.c.c.c.j.p.l.c.c.v.t.y . O U.U.U.U.U.U.U.U.",
"U.U.U.U.U.U.U.X X O 8 U X.6.6.6.d.c.c.c.c.c.c.c.c.c.l.r.l.v.c.c.j.p.v.l.c.l.v.c . X U.U.U.U.U.U.U.U.",
"U.U.U.U.U.U.U.X X % P U } 6.6.6.p.c.k.y.c.c.c.c.c.c.l.r.c.l.c.c.l.k.l.v.k.c.s.o.; X U.U.U.U.U.U.U.U.",
"U.U.U.U.U.U.O X X h ) U Y } 2.2.6.s.u.y.c.c.c.c.c.c.h.9.j.c.c.c.h.p.b.l.y.k.y.6.; X X U.U.U.U.U.U.U.",
"U.U.X X . X . . j 3.O.) U Y X.` 6.6.6.y.h.k.v.c.l.v.0.6.8.j.c.l.p.0.j.l.0.r.6.X.h o X X U.U.U.U.U.U.",
"U.U.X L :.:.:.:.u.7.7.{ U Y ) ' 6.6.6.8.9.0.y.p.l.l.0.6.6.0.y.r.6.6.0.0.7.o...` E M @ @ @ X X X o U.",
"U.U.X ] n.n.v.v.z.0.6.3._ W Y E ..O.6.6.6.6.6.6.0.0.7.6.6.3.6.o.7.7.6.6.6.} Y Y o.3.2.t.w.y = $ X U.",
"U.U.X # :.c.l.v.k.f.9.7.6.3.2.( ` ` 6.6.6.O.6.O.6.6.6.6.X.' o.u ( X.o.3.3.` ) X.9.7.q.l.v.h.l.R   U.",
"U.U.X X ; s.d.s.8.K H  .9.6.6.6.6.6.6.6.O.) X._ 6.o.} } ` U z $ = Y U X.6.6.6.6.I E 6.p.f.v.g.d . U.",
"U.U.U.X @ s E O.b X : e.y.6.6.6.6.6.6.6.[ U o.X.6.o.} [ Y Y 2 . $ n } 3.6.0.s.0.H & j j j C f . U.U.",
"U.U.U.U.X   & a % 2 t.v.r...b j.y.6.6.7.{ { 6.6.6.6.6.6.2.G + X X $ E 8.0.k.v.k.0.I + . . . X X U.U.",
"U.U.U.U.U.U.. A i.h.v.q.{ : k c.l.z.k.6.3.6.6.0.0.0.0.0.7.j . X X . $ E k.v.v.v.z.5.v X X X X U.U.U.",
"U.U.U.X X X X + ! :.] a o x l.v.n.1. .6.6.0.y.l.z.v.b.k.S O X > * X X @ ^ :.:.:.^ % O .   X X U.U.U.",
"U.U.o X X X X X X X X X @ A T T L 3 T p.u.k.c.c.n.>.L Z O X > 0 0 4 < @   X   X X X ; m s i O X U.U.",
"U.X X o h l u X X X X X X         + d ~ c.l.l.e.k -     X > w w B V V 9 @ X X X X ; [ 9.o.Y a X U.U.",
"U.X @ h U ` o.s X X o X X X X X + +   $ 2 2 2 ; . X O + > q V #.w B w w 6 X X X $ { 7.6.6.) z X U.U.",
"U.X a U W 2.6.2.: X X X X + # # 6 q > X . . X . X # * 0 w t $.=.V B B B 0 O X X $ ' 7.6.O.W z X U.U.",
"U.X s Y W 6.6.6.8 X X o X @ w w w w 0 , , , < < > 9 B t $.-.-.-.=.+.t w 5 O X O X & Q ..) U i X U.U.",
"U.X ; J Y } 7.K $ X X X X O 5 B w e @.+.B V &.&.#.#.#.-.-.=.-.=.=.%.t q @ X X U.X X % i i 8 X o U.U.",
"U.X X = J U M $ . X o X X X + 5 e @.-.$.t &.-.-.=.=.=.=.=.=.=.=.%.V B , O X U.U.U.U.X . . X X U.U.U.",
"U.U.X X $ % @ X o U.U.U.X X X X 5 w q e V V V V V V r V V V V t q 4 @ O X U.U.U.U.U.U.U.U.U.U.U.U.U.",
"U.U.U.U.X X X U.U.U.U.U.X o X X X + X # 9 6 6 7 6 6 6 6 6 6 6 5 @ X X X X U.U.U.U.U.U.U.U.U.U.U.U.U.",
"U.U.U.U.U.U.U.U.U.U.U.U.U.U.+ X X O X X X X X X X X X X X X X X X X X o U.U.U.U.U.U.U.U.U.U.U.U.U.U.",
"U.U.U.U.U.U.U.U.U.U.U.U.U.U.U.X X o X o X X X O o X o X o X o X X X X U.U.U.U.U.U.U.U.U.U.U.U.U.U.U.",
"U.U.U.U.U.U.U.U.U.U.U.U.U.U.U.U.U.X X X X + U.U.U.U.U.X X X X X X X X U.U.U.U.U.U.U.U.U.U.U.U.U.U.U.",
"U.U.U.U.U.U.U.U.U.U.U.U.U.U.U.U.U.U.X o X X U.U.U.U.U.X o X o + X o X U.U.U.U.U.U.U.U.U.U.U.U.U.U.U.",
"U.U.U.U.U.U.U.U.U.U.U.U.U.U.U.U.U.U.U.+ X X o U.U.U.U.+ X U.X X + X U.U.U.U.U.U.U.U.U.U.U.U.U.U.U.U.",
"U.U.U.U.U.U.U.U.U.U.U.U.U.U.U.U.U.U.U.U.o X X X X U.U.X U.U.U.X X U.U.U.U.U.U.U.U.U.U.U.U.U.U.U.U.U.",
"U.U.U.U.U.U.U.U.U.U.U.U.U.U.U.U.U.U.U.U.U.X X o U.U.U.U.U.U.U.U.U.U.U.U.U.U.U.U.U.U.U.U.U.U.U.U.U.U.",
"U.U.U.U.U.U.U.U.U.U.U.U.U.U.U.U.U.U.U.U.U.U.U.U.U.U.U.U.U.U.U.U.U.U.U.U.U.U.U.U.U.U.U.U.U.U.U.U.U.U.",
"U.U.U.U.U.U.U.U.U.U.U.U.U.U.U.U.U.U.U.U.U.U.U.U.U.U.U.U.U.U.U.U.U.U.U.U.U.U.U.U.U.U.U.U.U.U.U.U.U.U.",
"U.U.U.U.U.U.U.U.U.U.U.U.U.U.U.U.U.U.U.U.U.U.U.U.U.U.U.U.U.U.U.U.U.U.U.U.U.U.U.U.U.U.U.U.U.U.U.U.U.U.",
"U.U.U.U.U.U.U.U.U.U.U.U.U.U.U.U.U.U.U.U.U.U.U.U.U.U.U.U.U.U.U.U.U.U.U.U.U.U.U.U.U.U.U.U.U.U.U.U.U.U.",
"U.U.U.U.U.U.U.U.U.U.U.U.U.U.U.U.U.U.U.U.U.U.U.U.U.U.U.U.U.U.U.U.U.U.U.U.U.U.U.U.U.U.U.U.U.U.U.U.U.U."
};
