/* XPM */
static char *result[] = {
/* columns rows colors chars-per-pixel */
"50 50 5 1 ",
"  c #161C2E",
". c #506A69",
"X c #669D9D",
"o c #D0DEB5",
"O c #8CC3C4",
/* pixels */
".......XXXXXOOOOOOOOOOOOOOOOOOXXXXOOOOOOOOOOOOOOOO",
".....XXXXXOOOOOOOOOOOOOOOOOOOXXXXXXOOOOOOOOOOOOOOO",
".....XXXXOOOOOOOOOOOOOOOOOOOOXXXXXXOOOOOOOOOOOOOOo",
"....XXXXXOOOOOOOOOOOOOOOOOOOOXXXXXXOOOOOOOOOOOOOOO",
". ..XXXOOXOOOOOOOOOOOOOOOOOOOOOOXXXXOOOOOOOOOOOOOO",
". ..XXXOOOOOOOOOOOOOOOOOOOOOOOOOOXXXXXXOOOOOOOOOOO",
". ..XXXOOOXOOOOOOOOOOOOOOOOOOOOOOXXXXXXOOOOOOOOOOO",
". ..XXXOOOOXOOOOOOOOOOOOOOOOOOOOOXXXXXXXXOOOOooooo",
"   XXXXXOOOXXOOOOOOOOOOOOOOOOOOOXXXXXXXXXOOOOooooo",
"   XXXXXXOOXXXOOOOOOXXOOOOOOOOOXXXXXOOOXXXXXOOOOOO",
"    XXXXXXXXXXXOOOOXXXOOOOOOOOOXXXXOOOOOXXXXXXXXXX",
"    XXXXXXXXXXXXXXXXXOOOOOOOOOOOXXOOOOOOOOXXXXXXXX",
".   XXXXXXXXXXXXXXXXXOOOOOOOOOOOOOOOOOOXXXXXXXXXXX",
". ... XXXXXXXXXXXXXXXXXXOOOOOOOOOOOOOOOOOXXOOOOOOO",
". ...    XXXXXXXXXOOXXXXXOOOOOOOOOOOOOOOOOOOOOOOOO",
"            XXXOOOOOOOXXXXXXOOOOOOOOOOOOOOOOOOOOOO",
"       OOOOOOOOOOOOOOOOOXXXXXXOOOOOOOOOOOOOOOOOOOO",
"      OOOOOOOOOOOOOOOOOOXXXXXOOOOOOOOOOOOOOOOOOOOO",
"     OOOOOOOOOOOOOOOOOOOOOXXOOOXXXOOOOOOOOOOOOOOOO",
"     OOOOOOOOOOOOOOOOOOOOOOOXXXXXOOOOOOOOOOOOOOOOO",
"    OOOOOOOOOOOOOOOOOOOOOOOOXXXXXOOOOOOOOOOOOOOOOO",
".   OOOOOOOOOOOOOOOOOOOXXOOXXXXXXOOOOOOOOOOOOOOOOO",
".   OOOOOOOOOOOOOOOXXXXXOOOXXXXXXXOOOOOOOOOOOOOOOO",
".   XOOOOOOOOOOXXXXXXXXXXOOOOXXXXXXOOOOOOOOOOOOOOO",
".   XXXOOOOOOOXXXXXXXXXXXXXXOOOOOOOOOOOOOOOOOOOOOO",
"X. ..XXXXXXXXXXXXXXXXXXXXOOOOOOOOOOOOOOOOOOOOOOOOO",
"X....XXXXXXXXX.OOOOOOOOOOOOOOOOOOOOOOOOOOOOOOOOOOO",
"X.....XXXXX...OOOOOOOOOOOOOOOOOOOOOOOOOOOOOOOOOOOO",
"..............OOOOOOOOOOOOOOOOOOOOOOOOOOOOOOOOOOOO",
".............OOOOOOOOOOOOOOOOOOOOOOOOOOOOOOOOOOOOO",
".............OOOOOOOOOOOOOOOOOOOOOOOOOOOOOOOOOOOOO",
"........XX...OOOOOOOOOOOOOOOOOOOOOOOOOOOOOOOOOOOOO",
".....XXXXXXX..OOOOOOOOOOOOOOOOOOOOOOOOOOOOOOOOOOOO",
"X....XXXXXXXX..OOOOOOOOOOOOOOOOOOOOOOOOOOOOOOOOOOO",
"X....XXXXXXXX...OOOOOOOOOOOOOOOOOOOOOOOOOOOOOOOOOO",
"X...XXXXXXXXXX...OOOOOOOOOOOOOOOOOOOOOOOOOOOOOOOOO",
"X...XXXXXXXXXX...OOOOOOOOOOOOOOOOOOOOOOOOOOOOOOOOO",
"....XXXXXXXXXXX...OOOOOOOOOOOOOOOOOOOOOOOOOOOOOOOO",
".  .XXXXXXXXXXXXXXXOOOOOOOOOOOOOOOOOOOOOOOOOOOOOOO",
"    .XXOOOXXXXXXXXXXXXOOOOOOOOOOOOOOOOOOOOOOOOOOOO",
"     .XOOOOXXXXXXXXXXXOOOOOOOOOOOOOOOOOOOOOOOOOooo",
"  ... .OOOOOOOXXXXOOOOOOXXOOOOOOOOOOOOOOOOOOoooooo",
". ... ..OOOOOOXXXOOOOOOOXXXOOOOOOOOOOOOOOOOOOOoooo",
".  ..   ......XXOOOOOOOOOXXXXXOOOOOOOOOOOOOOOOOOXX",
".       ......XXOOOOOOOOOXXXXXXXOOOOOOOOOXXXXXXXXX",
"     ..XX....XXXOOOOOOOOOXXXX...XXXXXXXXXXXXXXXXXX",
"     XXXXXXXXXXXOOOOOOOOOOOXXX...XXXXXXXXXXXXXXX..",
"    .XXXXXXXXXOOOOOOOOOOOOOXXXX.....XX............",
"    .XXXXXXXXOOOOOOOOOOOOXXXXXXX........XXXOOOOOOO",
"   .XXXXXXXXXOOOOOOOOOOXXXXXXXXXXXXXXOOOOOOOOOOOOO"
};
