/* XPM */
static char *result[] = {
/* columns rows colors chars-per-pixel */
"50 50 160 2 ",
"   c #0D1327",
".  c #0F162A",
"X  c #10172A",
"o  c #151B2D",
"O  c #191E2F",
"+  c #191F31",
"@  c #1C2132",
"#  c #1D263C",
"$  c #232634",
"%  c #252935",
"&  c #2A2B36",
"*  c #272B38",
"=  c #2B2D39",
"-  c #312F3A",
";  c #33343C",
":  c #39363E",
">  c #34383F",
",  c #3B393E",
"<  c #1F3245",
"1  c #222B43",
"2  c #262F49",
"3  c #26314A",
"4  c #29334E",
"5  c #20394B",
"6  c #323747",
"7  c #3B3740",
"8  c #363940",
"9  c #3D3C42",
"0  c #2B3552",
"q  c #323C5D",
"w  c #423D42",
"e  c #364265",
"r  c #384367",
"t  c #394669",
"y  c #3B496D",
"u  c #3F4D74",
"i  c #3F5176",
"p  c #3A5977",
"a  c #3F5378",
"s  c #326879",
"d  c #464145",
"f  c #4B4545",
"g  c #4E4846",
"h  c #4B4C4D",
"j  c #544B4A",
"k  c #4F504F",
"l  c #50514F",
"z  c #5B534D",
"x  c #5A5A55",
"c  c #61584F",
"v  c #655B52",
"b  c #675A53",
"n  c #63625A",
"m  c #69675E",
"M  c #6B695F",
"N  c #726556",
"B  c #74645A",
"V  c #7C6D5B",
"C  c #726C5E",
"Z  c #414E76",
"A  c #405077",
"S  c #415279",
"D  c #40587C",
"F  c #5E626E",
"G  c #737164",
"H  c #7D796A",
"J  c #7D7463",
"K  c #8C7466",
"L  c #827E6C",
"P  c #917768",
"I  c #95796A",
"U  c #9A7D6C",
"Y  c #968366",
"T  c #9C846B",
"R  c #9F896B",
"E  c #8A8572",
"W  c #8E8873",
"Q  c #908B74",
"!  c #9B957B",
"~  c #A2856F",
"^  c #A38E6D",
"/  c #A8916F",
"(  c #A38770",
")  c #A68971",
"_  c #AB8E73",
"`  c #A59575",
"'  c #AC9372",
"]  c #A89A7A",
"[  c #B29475",
"{  c #B69976",
"}  c #B99E77",
"|  c #BB9C79",
" . c #BEA279",
".. c #B2A07C",
"X. c #C2A47B",
"o. c #CBAC7F",
"O. c #C7AA7D",
"+. c #3E6F89",
"@. c #3D6884",
"#. c #3E718B",
"$. c #3E7C92",
"%. c #405D80",
"&. c #797D8A",
"*. c #3E8496",
"=. c #3D8798",
"-. c #3E899A",
";. c #81838A",
":. c #A89F81",
">. c #ABA384",
",. c #B0A886",
"<. c #B5AC89",
"1. c #BCB28D",
"2. c #BFB690",
"3. c #B6B8BE",
"4. c #CEAE80",
"5. c #C6B186",
"6. c #D4B482",
"7. c #D8B784",
"8. c #D7B987",
"9. c #DAB986",
"0. c #DABD8A",
"q. c #C7B994",
"w. c #DCC18E",
"e. c #DEC591",
"r. c #D6CA9D",
"t. c #DCCB9A",
"y. c #E1C692",
"u. c #E2CA96",
"i. c #E3CD99",
"p. c #E6D19D",
"a. c #DDD1A2",
"s. c #E5D5A2",
"d. c #E8D6A1",
"f. c #E6D9A5",
"g. c #EBDAA4",
"h. c #EEDFA9",
"j. c #F1DCA4",
"k. c #EFE1AB",
"l. c #F3E4AD",
"z. c #F0E3B2",
"x. c #F7E9B0",
"c. c #FAEBB2",
"v. c #F2E7BB",
"b. c #F4E8B9",
"n. c #F3E9C2",
"m. c #F5ECCB",
"M. c #FBF2CC",
"N. c #F6EFD4",
"B. c #F7F0D6",
"V. c #F9F2D7",
"C. c #F9F3DD",
"Z. c #ECEDEE",
"A. c #F9F5E3",
"S. c #FAF7E9",
"D. c #FCF9ED",
"F. c #FEF9E4",
"G. c #F4F4F3",
"H. c #FCFAF3",
"J. c #FEFEFC",
"K. c None",
/* pixels */
"K.K.K.K.K.K.K.K.K.K.K.K.K.K.K.K.K.K.K.K.K.K.K.K.K.K.K.K.K.K.K.K.K.K.K.K.K.K.K.K.K.K.K.K.K.K.K.K.K.K.",
"K.K.K.K.K.K.K.K.K.K.K.K.K.K.K.K.K.K.K.o o X X X X X X X X o K.K.K.K.K.K.K.K.K.K.K.K.K.K.K.K.K.K.K.K.",
"K.K.K.K.K.K.K.K.K.K.K.K.K.K.K.K.K.o o o   , x x x x x x x 8   o K.K.K.K.K.K.K.K.K.K.K.K.K.K.K.K.K.K.",
"K.K.K.K.K.K.K.K.K.K.K.K.K.K.K.o o o   6 &.q.l.l.l.l.l.x.c.<.M $ o O K.K.K.K.K.K.K.K.K.K.K.K.K.K.K.K.",
"K.K.K.K.K.K.K.K.K.K.K.K.K.K.o O o v E 3.D.b.k.k.k.k.k.k.k.l.l.Q o o o K.K.K.K.K.K.K.K.K.K.K.K.K.K.K.",
"K.K.K.K.K.K.K.K.K.K.K.K.K.O o X M t.F.D.b.k.k.k.k.k.k.k.l.k.k.h.>.M   O K.K.K.K.K.K.K.K.K.K.K.K.K.K.",
"K.K.K.K.K.K.K.K.K.K.K.K.o o , ] a.A.J.A.h.k.k.k.k.k.k.k.k.k.k.k.l.s.x X o K.K.K.K.K.K.K.K.K.K.K.K.K.",
"K.K.K.K.K.K.K.K.K.K.K.K.o o g u.V.J.J.A.k.k.k.k.l.k.k.k.k.k.h.k.k.M.;.o o o K.K.K.K.K.K.K.K.K.K.K.K.",
"K.K.K.K.K.K.K.K.K.K.K.o o , X.e.C.J.J.J.J.n.z.z.k.k.z.k.k.k.k.z.h.m.G.F o o K.K.K.K.K.K.K.K.K.K.K.K.",
"K.K.K.K.K.K.K.K.K.K.K.o O [ w.k.C.J.n.J.H.n.D.S.k.k.A.v.k.k.k.A.z.m.J.Z.6 = o K.K.K.K.K.K.K.K.K.K.K.",
"K.K.K.K.K.K.K.K.K.K.o + O } w.k.C.J.n.J.N.k.H.S.h.v.H.H.k.h.v.D.k.n.A.G.H Y o K.K.K.K.K.K.K.K.K.K.K.",
"K.K.K.K.K.K.K.K.K.K.o o g X.w.k.m.H.v.A.n.h.C.A.k.C.J.H.k.h.A.J.l.k.k.N.z.T o o K.K.K.K.K.K.K.K.K.K.",
"K.K.K.K.K.K.K.K.K.o o X R 7.w.k.k.n.z.k.k.h.k.m.h.n.C.m.k.k.A.C.k.k.k.h.k.] o o K.K.K.K.K.K.K.K.K.K.",
"K.K.K.K.K.K.K.K.K.o ; 7 T 7.0.k.h.k.g.t.l.k.k.k.k.h.h.k.k.k.n.k.h.k.k.k.l.>.. O O K.K.K.K.K.K.K.K.K.",
"K.K.K.K.K.K.K.K.o o w j Y 7.w.k.k.k.f.w.k.k.k.k.k.k.k.k.k.k.h.h.k.k.h.l.k.t.z o O K.K.K.K.K.K.K.K.K.",
"K.K.K.K.K.K.K.K.O o w K } 6.w.k.k.k.g.e.k.k.k.k.k.k.k.h.k.k.k.k.d.u.k.k.k.g.V . o K.K.K.K.K.K.K.K.K.",
"K.K.K.K.K.K.K.o O o w U o.o.y.p.p.k.g.e.k.k.k.l.k.k.k.w.k.k.k.k.d.e.k.k.k.l.W O o K.K.K.K.K.K.K.K.K.",
"K.K.K.K.K.K.K.O O   w U o.o.o.y.p.k.k.k.k.k.k.k.k.k.g.w.k.k.k.k.d.e.l.h.k.k.h.x   O K.K.K.K.K.K.K.K.",
"K.K.K.K.K.K.K.o o O z U o.o.o.o.p.k.g.g.k.k.k.l.k.k.h.w.k.k.k.k.d.i.h.l.k.k.h.J + o K.K.K.K.K.K.K.K.",
"K.K.K.K.K.K.K.o X & U U X.o.o.o.e.k.g.w.k.k.k.k.k.k.k.w.k.k.k.k.h.d.z.h.d.k.i.6., o K.K.K.K.K.K.K.K.",
"K.K.K.K.K.K.O o O K U I I { o.X.6.e.e.e.k.k.k.k.k.k.p.0.p.k.k.k.d.e.h.h.0.g.0.6.: o O K.K.K.K.K.K.K.",
"K.K.o o X X X o N o.o.) I ~  .[ 7.6.6.e.p.g.k.k.k.k.0.o.7.p.k.k.e.0.d.h.0.e.6.| b o o o K.K.K.K.K.K.",
"K.K.o H >.......u.y.o.} I U ~ [ 6.6.6.8.0.w.w.t.k.k.w.6.6.8.w.w.6.6.0.e.8.X.X._ U V O o o o O O o K.",
"K.K.o ,.x.l.x.c.j.o.o.o.) I I Y  .6.6.6.6.6.6.6.0.w.8.6.6.6.6.6.6.6.6.6.6.X.U T | 4...2.<.; O O o K.",
"K.K.o > r.k.k.k.k.p.o.o.o.o.O.~ ~ ) 6.6.6.6.6.6.o.7.7.7.X.{ 4.z  .o.6.6.4.~ U | 9.o.u.l.l.r.r.H X K.",
"K.K.o o > s.g.g.w. . .o.o.w.9.o.4.4.6.6.6._ X._ 7.o.o.o.| I K & 9 T U X.6.6.4.6.X.X.6.u.h.l.k.H X K.",
"K.K.K.o & ^  .9./ % # ] u.o.9.o.6.6.6.7.[ I O.[ 7. .^ ) I I w X & K ^ O.6.6.w.6.z , ` ' / 5.Q O K.K.",
"K.K.K.K.o X g Y & o W l.y.o.} y.7.6.6.7.[ ~ o.6.o.9.6.o.[ P - o X f X.8.6.u.l.i.o.f . X o o o o K.K.",
"K.K.K.K.K.o o k G W l.g.0.V h l.p.e.e.6.X.O.6.6.o.6.6.6.9.V   o O X g O.u.k.k.k.i.o.v N ; X o o K.K.",
"K.K.K.K.K.K.X x f.c.k.' b % ! k.k.x.h.6.6.6.6.i.p.u.t.p.5.w o o o o o z p.x.l.l.x.l.j.` = o O K.K.K.",
"K.K.K.K.K.K.K.X l n x ; o ! l.l.l.L C 6.6.u.p.k.l.l.k.a.k X o 0 0 O o o x n n n n n n > X o K.K.K.K.",
"K.K.K.K.K.K.K.o X X X o o h h h h & :.s.p.h.l.k.k.W h d o o 0 Z y e e # X X X X X X X o K.K.K.K.K.K.",
"K.K.K.K.K.K.K.K.O o O @ + X o X X + 8 G f.s.f.1.8 $ X o o 4 A #.#.A A t @ o o o @ @ @ o o K.K.K.K.K.",
"K.K.K.K.K.K.K.o o o d K P : o o + + X + = = = % o o o + 2 @.*.=.=.+.a S t O o % ^  .P j o o K.K.K.K.",
"K.K.K.K.K.K.K.o o 9 P U X.X.: o 0 y * O o o X o X # < p *.=.=.=.=.=.=.$.y o $ R 9.7.} I ; o K.K.K.K.",
"K.K.K.K.K.K.K.o $ K I { o.7.^ o o e y 1 1 1 1 1 < s -.-.=.=.=.=.=.=.$.D q X N 9.6.7. .I : o K.K.K.K.",
"K.K.K.K.K.K.K.o $ K I | 9.9.' O o e A S Z Z Z D $.#.+.+.#.+.+.+.+.#.D q @ o g X.7.6._ U : o K.K.K.K.",
"K.K.K.K.K.K.K.o O z I ) o.o.c O O 2 4 4 e A A Z Z Z Z Z Z Z Z Z Z t 4 @ o o X h [ [ U B % K.K.K.K.K.",
"K.K.K.K.K.K.K.K.o O c I ) c o O o o o o # 3 2 2 2 2 2 2 2 2 2 2 2 # o o o O O o 7 w d & o K.K.K.K.K.",
"K.K.K.K.K.K.K.K.K.o $ , : o o O o o o o o o o o o o o X o o X o o o o o O o o o X o o o K.K.K.K.K.K.",
"K.K.K.K.K.K.K.K.K.K.K.o o o K.K.K.o o o o O o K.K.K.K.K.K.K.K.K.K.O + o o o + K.K.K.K.K.K.K.K.K.K.K.",
"K.K.K.K.K.K.K.K.K.K.K.K.K.K.K.K.K.K.+ o O o K.K.K.K.K.K.K.K.K.K.K.o o o o + K.K.K.K.K.K.K.K.K.K.K.K.",
"K.K.K.K.K.K.K.K.K.K.K.K.K.K.K.K.K.O + o o O K.K.K.K.K.K.K.K.K.K.K.o o O + K.K.K.K.K.K.K.K.K.K.K.K.K.",
"K.K.K.K.K.K.K.K.K.K.K.K.K.K.K.K.K.o o o K.K.K.K.K.K.K.K.K.K.K.K.K.o o K.K.K.K.K.K.K.K.K.K.K.K.K.K.K.",
"K.K.K.K.K.K.K.K.K.K.K.K.K.K.K.K.K.o o O O K.K.K.K.K.K.K.K.K.K.K.K.K.+ K.K.K.K.K.K.K.K.K.K.K.K.K.K.K.",
"K.K.K.K.K.K.K.K.K.K.K.K.K.K.K.K.K.K.K.K.K.K.K.K.K.K.K.K.K.K.K.K.K.K.K.K.K.K.K.K.K.K.K.K.K.K.K.K.K.K.",
"K.K.K.K.K.K.K.K.K.K.K.K.K.K.K.K.K.K.K.K.K.K.K.K.K.K.K.K.K.K.K.K.K.K.K.K.K.K.K.K.K.K.K.K.K.K.K.K.K.K.",
"K.K.K.K.K.K.K.K.K.K.K.K.K.K.K.K.K.K.K.K.K.K.K.K.K.K.K.K.K.K.K.K.K.K.K.K.K.K.K.K.K.K.K.K.K.K.K.K.K.K.",
"K.K.K.K.K.K.K.K.K.K.K.K.K.K.K.K.K.K.K.K.K.K.K.K.K.K.K.K.K.K.K.K.K.K.K.K.K.K.K.K.K.K.K.K.K.K.K.K.K.K.",
"K.K.K.K.K.K.K.K.K.K.K.K.K.K.K.K.K.K.K.K.K.K.K.K.K.K.K.K.K.K.K.K.K.K.K.K.K.K.K.K.K.K.K.K.K.K.K.K.K.K."
};
