/* XPM */
static char *result[] = {
/* columns rows colors chars-per-pixel */
"50 52 13 1 ",
"  c #070000",
". c #080000",
"X c #090000",
"o c #211008",
"O c #31210F",
"+ c #312110",
"@ c #4A3118",
"# c #6B4A21",
"$ c #845121",
"% c #845221",
"& c #A57231",
"* c #A57331",
"= c None",
/* pixels */
"==================================================",
"====================+++===========================",
"================++@#%%#@@+++++====================",
"==============+@%***%%%%%#@##@@+==================",
"============+@%*******%%%%@#####++================",
"==========+@%**********%%@######@o================",
"========++**************%**%###@@o================",
"========+@#************#******%@@@.===============",
"========+%*#%*********@********#@@.===============",
"========o***%#%****%#@#********##@o===============",
"========o*****%#%##**#%##******###+.==============",
"========+******%#****%***%#**%%@@@+...============",
"========+%*****#*****%*****#%%#@@@+o@@.===========",
"=======o@#%%**#******%****%@@##@@@++.@@+.=========",
"=======o@#%%%#*******#**%###+#@@@@+++.@@+=========",
"======+o@##%%@%******@######@+@@@@+++o@@@.========",
"=====o#+@###%+%%***%#+#######+@@@@@+++.@@.========",
"=====+%+@####+#%%%###@#######o@@@@@+++.++.========",
"=====@$+@####@@%######@######@+@@@@+++o##+o=======",
"====o#*@@#####+#######+######@o@@@@@++###@o=======",
"====o%*#@#####+#######+######@+@@@@@+#%###+o======",
"====+**#@#####o@######+######@@o@@@@#%%%%#+o======",
"====+*%%@#####o+######+######@@o@@@+%%%%%#++o=====",
"====+%**@####@+#@#####+@#####+o++@@%**%%%#+++.====",
"====+***#####+###@####@+@@@@+@@@o@%*****%#+++.====",
"====@***%###@+###@#####+@@++@@##+#*******o+++o====",
"===+#****##@+@####@####+++#o%%%%#@******#o++++.===",
"===@%**%#@++@#####+###+#%%#o*****%#****#@o++++.===",
"==+#%&##%***#*%%###+++****%o******#***##@@o+++.===",
"==O##@*****%*******%@******+*******@*##@@@o+++.===",
"==o@#+*****#********#******@******%o%#@@@@@o++.===",
"==.@@+%***#*********#******#*****%#o+@@@@@@o++.===",
"==.@@+%%*#**********@*****#*****%%#+o@@@@@+o++.===",
"==.@+#@##@##%*******o***%%@****%%##+@o@@@+++o+.===",
"==.@+#@##@######%***o+%%%%@#%%%%##@+#@o+++++o+.===",
"==.+@#+##+#########@o@+##@@@%%####+@#@@oo+++.+.===",
"==.+@@+##+#########@+##@#+@@######+##@@++@o+.+.===",
"==.@@@+##+########@#+##+#o@@######o##@++@@@...====",
"==.@@+@@#+#######@##@###+o@@######o##++@@@@+.=====",
"==.+@o@@@o@#####@####@###o@+#####@o#++@@@@++.=====",
"===.+o@@@o++@@@+#####@###+@+@####++o++@@@+++.=====",
"====..@@@o++@@+@#####@@##@o++####+@+o+@+++++.=====",
"======.+@o+o@+@@#####@+###o++###+#@+oo++++++.=====",
"=======....o++@@##@##@+@##oo+@#@##@++.+++++.======",
"===========.o+++##@##@++#@+o+@#@##@++.o+o.X=======",
"============.o++@#@##@++@@+o++#+#@@@+o..==========",
"=============..o@+#+#@++@@+o++#+#@@@+o.===========",
"===============o+@#+@@@+@@+o++@o@@@@+o.===========",
"===============.@##@+@@+@@+...+o@@@+o.============",
"===============.+###o@+o.. ===.......=============",
"================.......===========================",
"=================================================="
};
