/* XPM */
static char *result[] = {
/* columns rows colors chars-per-pixel */
"50 50 207 2 ",
"   c #0E162B",
".  c #13162C",
"X  c #151B2D",
"o  c #191D2F",
"O  c #1C1E31",
"+  c #151F30",
"@  c #211F33",
"#  c #17232F",
"$  c #19202F",
"%  c #1B2331",
"&  c #1A2B32",
"*  c #1A2834",
"=  c #1C3433",
"-  c #1C3A34",
";  c #1E313C",
":  c #232334",
">  c #2C2433",
",  c #252A35",
"<  c #2A2A36",
"1  c #2B2439",
"2  c #2D2D39",
"3  c #3C2936",
"4  c #32263D",
"5  c #322C3B",
"6  c #352A37",
"7  c #263638",
"8  c #34333C",
"9  c #3A353F",
"0  c #393539",
"q  c #412B38",
"w  c #4B2E3C",
"e  c #48383B",
"r  c #52323D",
"t  c #5A343E",
"y  c #1F4337",
"u  c #1F4738",
"i  c #274739",
"p  c #33493A",
"a  c #22543B",
"s  c #245C3C",
"d  c #2B503A",
"f  c #38553D",
"g  c #25633E",
"h  c #3C2B42",
"j  c #372940",
"k  c #273D45",
"l  c #3C3A40",
"z  c #432D45",
"x  c #482F49",
"c  c #423D43",
"v  c #47354A",
"b  c #52334E",
"n  c #513245",
"m  c #5A3753",
"M  c #5E3955",
"N  c #543651",
"B  c #633740",
"V  c #6D3C44",
"C  c #663949",
"Z  c #793F47",
"A  c #623A56",
"S  c #6A3D5B",
"D  c #683C59",
"F  c #733F53",
"G  c #2A4448",
"H  c #315253",
"J  c #385958",
"K  c #2F4D50",
"L  c #276A40",
"P  c #2E6944",
"I  c #327151",
"U  c #3E6D65",
"Y  c #3B6660",
"T  c #3F7865",
"R  c #4A4346",
"E  c #544A4B",
"W  c #594D4F",
"Q  c #544548",
"!  c #5D514E",
"~  c #504D52",
"^  c #694E43",
"/  c #774248",
"(  c #76415A",
")  c #7C435A",
"_  c #784054",
"`  c #645554",
"'  c #685A55",
"]  c #715E5A",
"[  c #775551",
"{  c #67405C",
"}  c #477145",
"|  c #78675C",
" . c #4A6764",
".. c #407067",
"X. c #417168",
"o. c #407865",
"O. c #8C464A",
"+. c #9C4B4F",
"@. c #95494C",
"#. c #884658",
"$. c #87485A",
"%. c #944A57",
"&. c #9D4D57",
"*. c #984C58",
"=. c #965956",
"-. c #815B4F",
";. c #A34F57",
":. c #AC5154",
">. c #A85556",
",. c #B55455",
"<. c #B95655",
"1. c #B95C59",
"2. c #926D56",
"3. c #BD645D",
"4. c #B5635D",
"5. c #A67353",
"6. c #B67D56",
"7. c #865260",
"8. c #816B61",
"9. c #8C7366",
"0. c #8C7B63",
"q. c #9D7466",
"w. c #977E6A",
"e. c #907B66",
"r. c #A96E61",
"t. c #BE6C62",
"y. c #A87764",
"u. c #B77B69",
"i. c #BB7D6A",
"p. c #B37A65",
"a. c #C17566",
"s. c #C47C6A",
"d. c #2F8D48",
"f. c #309349",
"g. c #329A4C",
"h. c #3B9A59",
"j. c #3C8F5D",
"k. c #34A34D",
"l. c #36AC4F",
"z. c #38A84E",
"x. c #38A953",
"c. c #37B150",
"v. c #38B451",
"b. c #3D8062",
"n. c #5D884C",
"m. c #4C924C",
"M. c #48865B",
"N. c #68944F",
"B. c #60874C",
"V. c #47B653",
"C. c #53BE56",
"Z. c #58A651",
"A. c #69A754",
"S. c #78BB59",
"D. c #69AC55",
"F. c #68C259",
"G. c #79CC5D",
"H. c #85BD5B",
"J. c #9A876B",
"K. c #A48B6E",
"L. c #BDA278",
"P. c #CC8C5B",
"I. c #C2855A",
"U. c #D9945F",
"Y. c #DD9C5C",
"T. c #D5915E",
"R. c #DCA558",
"E. c #E3A959",
"W. c #EABC52",
"Q. c #E5B455",
"!. c #EBBF4F",
"~. c #C98866",
"^. c #DB9460",
"/. c #C9AC7F",
"(. c #88C85E",
"). c #87D25F",
"_. c #8DD360",
"`. c #94D562",
"'. c #97D963",
"]. c #EFC94F",
"[. c #F1CD4C",
"{. c #F6D849",
"}. c #EDC150",
"|. c #FEEC43",
" X c #FFEE4B",
".X c #F9E045",
"XX c #FFEF54",
"oX c #FFF05C",
"OX c #EACE7F",
"+X c #FFF27D",
"@X c #FFF272",
"#X c #FAE96E",
"$X c #BDAF88",
"%X c #D5BB8A",
"&X c #C2AA80",
"*X c #DBC796",
"=X c #F0DE81",
"-X c #FFF594",
";X c #F2E285",
":X c #E9D7A3",
">X c #F3E5A8",
",X c #FFF7B5",
"<X c #FFF6A4",
"1X c #FFFAC7",
"2X c #FFFAD4",
"3X c #FFFEF3",
"4X c None",
/* pixels */
"4X4X4X4X4X4X4X4X4X4X4X4X4X4X4X4X4X4X4X4X4X4X4X4X4X4X4X4X4X4X4X4X4X4X4X4X4X4X4X4X4X4X4X4X4X4X4X4X4X4X",
"4X4X4X4X4X4X4X4X4X4X4X4X4X4X4X4X4X4X4X4X4X4X4X4X4X4X4X4X4X4X4X4X4X4X4X4X4X4X4X4X4X4X4X4X4X4X4X4X4X4X",
"4X4X4X4X4X4X4X4X4X4X4X4X4X4X4X4X4X4X4X4X4X4X4X4X4X4X4X4X4X4X4X4X4X4X4X4X4X4X4X4X4X4X4X4X4X4X4X4X4X4X",
"4X4X4X4X4X4X4X4X4X4X4X4X4X4X4X4X4X4X4X4X4X4X4X4X4X4X4X4X4X4X4X4X4X4X4X4X4X4X4X4X4X4X4X4X4X4X4X4X4X4X",
"4X4X4X4X4X4X4X4X4X4X4X4X4X4X4X4X4X4X4X4X4X4X4X4X4X4X4X4X4X4X4X4X4X4X4X4X4X4X4X4X4X4X4X4X4X4X4X4X4X4X",
"4X4X4X4XU.U.U.U.4X4Xy.~.T.P.4X4X4X4X4X4X4X4X4X4X4X4X4X4X4X4X4X4X4X4X4X4X4X4X4X4X4X4X4X4X4X4X4X4X4X4X",
"4X4X4XU.U.U.U.4X4Xq.y.p.K.p.y.q.4X4X4X4X4X4X4X4X4X4X4X4X4X4X4X4X4X4X4X4X4X4X4X4X4X4X4X4X4X4X4X4X4X4X",
"4X4XU.U.Q.W.U.4X4X4X4X4X4X4Xq.q.q.4X4X4X4X4X4X4X4X4X4X4X4X4X4X4X4X4X4X4X4X4X4X4X4X4X4X4X4X4X4X4X4X4X",
"4XU.U.W.|.{.U.4X4X4X4X4X4X4X4X4X4X4X4X4X4X4X4X4X4X4X4X4X4X4X4X4X4X4X4X4X4X4X4X4X4X4X4X4X4X4X4X4X4X4X",
"4XU.U.{.|.E.T.U.4X4X4X4X4X4X4X4X4X4X4X4X4X4X4X4X4X4X4X4X4X4X4X4X4X4X4X4X4X4X4X4X4X4X4X4X4X4X4X4X4X4X",
"4X^ P.[.!.}.Y.U.U.U.U.4X4X4X4X4X4X4X4X4X4X4X4X4X$ < + 4X4X4X4X4X4X4X4X4X4X4X4X4X4X4X4X4X4X4X4X4X4X4X",
"4X0 P.U.Q.|.{.R.U.U.U.U.4X4X4X4X4X4X4X4X4X4X4X4X< 2./ @ X 4X4X4X4X4X4X4X4X4X4X4X4X4X4X4X4X4X4X4X4X4X",
"4X: 2.U.!.XX@X{.W.Y.Y.U.U.4X4X4X4X4X4X4X4X4X4XX < u.1.O.> X X 4X4X4X4X4X4X4X4X4X4X4X4X4X4X4X4X4X4X4X",
"4X4Xe P.Y.#X1XXX|.{..X[.Y.T.4X4X4X4X4X4X4X4X4XX [ s.1.t.=.3 X X 4X4X4X4X4X4X4X4X4X4X4X4X4X4X4X4X4X4X",
"4X4Xo 2.U.[.XX|.-X+XXX|.[.P.0 4X4XX 4X4X4X4X$ m u.a.3.~.t.D x X o 4X4X4X4X4X4XX 7 i X 4X4X4X4X4X4X4X",
"4X4X4X0 I.Y.[.|.+X3X+X X|.R.6 4X4X$ 7 % 4Xo $ r.s.,.a.i.7.S 4 : > : X X 4X4XX 7 H.} X 4X4X4X4X4X4X4X",
"4X4X4X4Xe I.Y.[. X,X1X<X|.W.^ 4X4X, (.n.i X @ 5.t.,.4.7.m z 3 O.:._ z : o X o n.S.= 4X4X4X4X4X4X4X4X",
"4X4X4X4XX 0 6.E..X X2X3XoX}.5.4X4X7 (.'.C.g = r ,.,.*.F C Z :.,.%.S S b o X O S.V.* 4X4X4X4X4X4X4X4X",
"4X4X4X4X4XX 6 5.[.|.-X,X;XW.-.4X4Xo } (.).V.g.G / ;.#.:.<.:.%.( A x 1 1 3 4 @ d f.= 4X4X4X4X4X4X4X4X",
"4X4X4X4X4X4X  E OX;X;X>X:XK., 4X4Xo . N.`.C.c.b.J C :.,.;.F D D z 3 Z O.:.( N : = % 4X4X4X4X4X4X4X4X",
"4X4X4X4X4X4X  R J.%X:X>X:X/.8 4X4X4X. , A.(.v.h.U G O.:.%.%.%.%.:.:.,.&.) S S M : X 4X4X4X4X4X4X4X4X",
"4X4X4X4X4X4Xo % ! :X:X$X&X%X8 4X4X4Xo . f S.v.h.U U =.<.,.<.,.,.*.%.F S S S S S 4 X 4X4X4X4X4X4X4X4X",
"4X4X4X4X4X4X  e /.*XJ.7 | *Xl 4X4Xo X o o D.v.h.T J V ,.,.:.&.$.S S M b b x x b 1 X 4X4X4X4X4X4X4X4X",
"4X4X4X4X4X4XX , 0.! : c 0.E % 4X4Xo Q -.> f x.T U ; 3 :.*.) S A m h : X * - - = - & X 4X4X4X4X4X4X4X",
"4X4X4X4X4X4X4XX #   % : :   4X4X4X1 u.s.V i M. .H q +.<.;.F z @ o * & s d.l.l.V.F.Z.P # X 4X4X4X4X4X",
"4X4X4X4X4X4X4X4XX , E ` E + 4X4X4X1 u.~.i.p.p.>.:.:.<.<.F 4 . + K U g.c.v.c.c.V.).`.).m.& X 4X4X4X4X",
"4X4X4X4X4X4X4X4XX j ] 9.| + 4X4X4X< u.s.a.a.a.t.1.,.,.;.h , k K X.X.x.c.v.v.c.c.V.G.).`.A.7 X 4X4X4X",
"4X4X4X4X4X4X4X4X4Xj ] w.| X 4X4X4X< r.s.1.<.,.,.,.,.,.V + k k J U T j.k.f.a u u g f.V.C.C.k.L X 4X4X",
"4X4X4X4X4X4X4X4X4X8 ' 9.| O 4X4X4XX 5 =.1.1.,.,.<.,.<.V X X k H U X.X.K % % + X # # i s L g.z.y X 4X",
"4X4X4X4X4X4X4X4X4XO Q ] ' X 4X4X4XX : h n Z ;.:.,.,.:.F O X k U X.U X.K H U H % 4X4X4X. + * L - . 4X",
"4X4X4X4X4X4X4X4X4Xo % : @ - y 4X4XX j ) F F #.%.%.;.#.F N @ G Y X.X.X.X.X.X.U * 4X4X4X4X4X4XX X 4X4X",
"4X4X4X4X4X4X4X4X. f N.p O s k.a 4XX r ,.,.,.,.,.,.,.,.:.$.m 1 ; J X.X.X.X.U G # 4X4X4X4X4X4X4X4X4X4X",
"4X4X4X4X4X4X4X4X# m.'._.n.$ g.a 4XX r @.t V ,.<.,.,.,.,.*.S M z 2 k Y X.U G O X 4X4X4X4X4X4X4X4X4X4X",
"4X4X4X4X4X4X4X4X& z.F._.(.i u # X X X $ o B ,.,.,.<.,.#.S S S S A x ~ X. .v A j X 4X4X4X4X4X4X4X4X4X",
"4X4X4X4X4X4X4X4X& z.v.V.C.g . X X X > t @.:.<.<.<.,.&.D S S S S S S { l N S S m : X 4X4X4X4X4X4X4X4X",
"4X4X4X4X4X4X4X4X# g v.v.z.a X X X X : 3 q O.O.O.O.O.C m S S S S S S A N b m S N j # - + 4X4X4X4X4X4X",
"4X4X4X4X4X4X4X4X4X= a a u o X 4X4X, | ] 0.l 2 0 5 2 8 9 z j 4 4 j 4 4 < < : v < O s c.s # 4X4X4X4X4X",
"4X4X4X4X4X4X4X4X4X4X. o : , X 4X4X: ` ! | 8.K.L.J.w.L.e.W W E c R j c 9.9.l ' ` 8 g.c.c.- . 4X4X4X4X",
"4X4X4X4X4X4X4X4X4X4XX 8 ] c X 4X4XO 1 4 : , 2 8 < 2 8 2 : R ` R ` j k ] ' : % : & k.v.c.y . 4X4X4X4X",
"4X4X4X4X4X4X4X4X4X4XX 5 ] c X 4Xo n ) ) _ b b N b b b b b h 1 : X , 5 < : 2 : X o I d.L % 4X4X4X4X4X",
"4X4X4X4X4X4X4X4X4X4X4Xo o o 4XX > O.+.:.<.;.&.&.) S S S S S S x O W 8.8 X ] ` < X X # X 4X4X4X4X4X4X",
"4X4X4X4X4X4X4X4X4X4X4X4X4X4X4XX o : @ r B B B B A A A A m h h 1 ! | E : X 8 ! 8.2 X 4X4X4X4X4X4X4X4X",
"4X4X4X4X4X4X4X4X4X4X4X4X4X4X4X4X4X4X4XX .   X . O : : @ % X X o W l % X X X % ! 9 4X4X4X4X4X4X4X4X4X",
"4X4X4X4X4X4X4X4X4X4X4X4X4X4X4X4X4X4X4X4Xo o o 4X4X4X4X4X4X4X4XX X . 4X4XX X o   4X4X4X4X4X4X4X4X4X4X",
"4X4X4X4X4X4X4X4X4X4X4X4X4X4X4X4X4X4X4Xo o X 4X4X4X4X4X4X4X4X4X4X4X4X4X4X4Xo X o 4X4X4X4X4X4X4X4X4X4X",
"4X4X4X4X4X4X4X4X4X4X4X4X4X4X4X4X4X4Xo X X o 4X4X4X4X4X4X4X4X4X4X4X4X4X4X4XX o X 4X4X4X4X4X4X4X4X4X4X",
"4X4X4X4X4X4X4X4X4X4X4X4X4X4X4X4X4X4XX o o 4X4X4X4X4X4X4X4X4X4X4X4X4X4X4X4Xo X o 4X4X4X4X4X4X4X4X4X4X",
"4X4X4X4X4X4X4X4X4X4X4X4X4X4X4X4X4X4X4X4X4X4X4X4X4X4X4X4X4X4X4X4X4X4X4X4X4X4X4X4X4X4X4X4X4X4X4X4X4X4X",
"4X4X4X4X4X4X4X4X4X4X4X4X4X4X4X4X4X4X4X4X4X4X4X4X4X4X4X4X4X4X4X4X4X4X4X4X4X4X4X4X4X4X4X4X4X4X4X4X4X4X",
"4X4X4X4X4X4X4X4X4X4X4X4X4X4X4X4X4X4X4X4X4X4X4X4X4X4X4X4X4X4X4X4X4X4X4X4X4X4X4X4X4X4X4X4X4X4X4X4X4X4X"
};
