/* XPM */
static char *result[] = {
/* columns rows colors chars-per-pixel */
"50 50 205 2 ",
"   c #0E162A",
".  c #13172C",
"X  c #151B2D",
"o  c #191D2F",
"O  c #1C1E31",
"+  c #171F30",
"@  c #221F34",
"#  c #16212F",
"$  c #1C2231",
"%  c #1A2B33",
"&  c #1E2C39",
"*  c #1B3433",
"=  c #1D3C35",
"-  c #242434",
";  c #242B34",
":  c #292935",
">  c #2B2439",
",  c #2D2D39",
"<  c #2A2736",
"1  c #33263D",
"2  c #3A2939",
"3  c #263637",
"4  c #35333D",
"5  c #39343D",
"6  c #3B393E",
"7  c #4A2E3B",
"8  c #432D3B",
"9  c #46393B",
"0  c #4A313C",
"q  c #54323D",
"w  c #58333D",
"e  c #1E4237",
"r  c #1F4C38",
"t  c #254A39",
"y  c #324539",
"u  c #23583B",
"i  c #26653E",
"p  c #27683F",
"a  c #382941",
"s  c #263B44",
"d  c #3E3841",
"f  c #472F49",
"g  c #452E47",
"h  c #443F43",
"j  c #4B314B",
"k  c #453444",
"l  c #583549",
"z  c #563551",
"x  c #5B3753",
"c  c #5E3855",
"v  c #653841",
"b  c #6A3A45",
"n  c #743D44",
"m  c #783E45",
"M  c #623A56",
"N  c #663C59",
"B  c #6A3D5B",
"V  c #6B3D56",
"C  c #703F5A",
"Z  c #2C484C",
"A  c #335655",
"S  c #365D5A",
"D  c #285044",
"F  c #296A40",
"G  c #2C7B44",
"H  c #297442",
"J  c #387745",
"K  c #39625E",
"L  c #316051",
"P  c #3A6561",
"I  c #3D6A63",
"U  c #3E7766",
"Y  c #4B4546",
"T  c #494544",
"R  c #51464B",
"E  c #53494B",
"W  c #594D4F",
"Q  c #5A4446",
"!  c #5D554D",
"~  c #5D5251",
"^  c #4D5451",
"/  c #684D46",
"(  c #68544F",
")  c #7C4259",
"_  c #754057",
"`  c #635454",
"'  c #6F5C59",
"]  c #685A55",
"[  c #765D58",
"{  c #765546",
"}  c #567948",
"|  c #4C7045",
" . c #76645B",
".. c #636E59",
"X. c #407067",
"o. c #417268",
"O. c #406F67",
"+. c #656762",
"@. c #89464B",
"#. c #984A4D",
"$. c #854559",
"%. c #8C4858",
"&. c #944A57",
"*. c #9C4D57",
"=. c #914958",
"-. c #825954",
";. c #935756",
":. c #A44F53",
">. c #A84E50",
",. c #A75056",
"<. c #AB5155",
"1. c #B55454",
"2. c #B95655",
"3. c #B85D59",
"4. c #B75958",
"5. c #A34D4F",
"6. c #8E654C",
"7. c #916554",
"8. c #BB645D",
"9. c #B4675E",
"0. c #B37C55",
"q. c #AB7753",
"w. c #856D62",
"e. c #897264",
"r. c #857363",
"t. c #9E7466",
"y. c #927769",
"u. c #BD6B61",
"i. c #A67163",
"p. c #AB7264",
"a. c #BF7164",
"s. c #B67B69",
"d. c #A56D60",
"f. c #C17365",
"g. c #C37D6B",
"h. c #2E8947",
"j. c #329A4B",
"k. c #3B8B5B",
"l. c #379F56",
"z. c #348E49",
"x. c #34A34D",
"c. c #36AC4F",
"v. c #37A952",
"b. c #37B251",
"n. c #39B351",
"m. c #39B852",
"M. c #3E8262",
"N. c #488649",
"B. c #59844A",
"V. c #66944F",
"C. c #4DBB55",
"Z. c #43B653",
"A. c #54B254",
"S. c #7AAD57",
"D. c #6DB657",
"F. c #7FB358",
"G. c #5EC257",
"H. c #67C65A",
"J. c #7CCC5E",
"K. c #FEEC3F",
"L. c #BF8259",
"P. c #83BA5B",
"I. c #988468",
"U. c #A78F6F",
"Y. c #A99574",
"T. c #B49B75",
"R. c #CD8C5C",
"E. c #D28F5E",
"W. c #D9935F",
"Q. c #DD9C5C",
"!. c #CB9A53",
"~. c #DDA35B",
"^. c #E2A958",
"/. c #E8B654",
"(. c #C6826E",
"). c #C9846F",
"_. c #D99260",
"`. c #DCA665",
"'. c #87CC5E",
"]. c #86D05F",
"[. c #8AD260",
"{. c #97D862",
"}. c #EFC74F",
"|. c #F1CC4D",
" X c #F3D04B",
".X c #FAE247",
"XX c #FFED43",
"oX c #FCE94D",
"OX c #FFEF56",
"+X c #FFF05D",
"@X c #FFF278",
"#X c #CDB486",
"$X c #CFB686",
"%X c #DBC18E",
"&X c #E9D49C",
"*X c #E9D48D",
"=X c #FEF287",
"-X c #FEF49C",
";X c #EDDBA5",
":X c #F2E5AA",
">X c #FFF7A3",
",X c #FFF8BA",
"<X c #FFFACB",
"1X c #FFFDE5",
"2X c None",
/* pixels */
"2X2X2X2X2X2X2X2X2X2X2X2X2X2X2X2X2X2X2X2X2X2X2X2X2X2X2X2X2X2X2X2X2X2X2X2X2X2X2X2X2X2X2X2X2X2X2X2X2X2X",
"2X2X2X2X2X2X2X2X2X2X2X2X2X2X2X2X2X2X2X2X2X2X2X2X2X2X2X2X2X2X2X2X2X2X2X2X2X2X2X2X2X2X2X2X2X2X2X2X2X2X",
"2X2X2X2X2X2XW.W.W.2X2X2X2X2X2X2X2X2X2X2X2X2X2X2X2X2X2X2X2X2X2X2X2X2X2X2X2X2X2X2X2X2X2X2X2X2X2X2X2X2X",
"2X2X2X2XW.W.W.W.W.W.2X2Xt.t.t.2X2X2X2X2X2X2X2X2X2X2X2X2X2X2X2X2X2X2X2X2X2X2X2X2X2X2X2X2X2X2X2X2X2X2X",
"2X2X2XW.Q./.~.W.2X2X2X2Xt.t.t.t.2X2X2X2X2X2X2X2X2X2X2X2X2X2X2X2X2X2X2X2X2X2X2X2X2X2X2X2X2X2X2X2X2X2X",
"2X2XW.W./..X^.2X2X2X2X2X2X2X2Xt.2X2X2X2X2X2X2X2X2X2X2X2X2X2X2X2X2X2X2X2X2X2X2X2X2X2X2X2X2X2X2X2X2X2X",
"2X2XW.~..X.X~.W.2X2X2X2X2X2X2X2X2X2X2X2X2X2X2X2X2X2X2X2X2X2X2X2X2X2X2X2X2X2X2X2X2X2X2X2X2X2X2X2X2X2X",
"2XW.W.~. XXX/.W.W.W.2X2X2X2X2X2X2X2X2X2X2X2X2X2X2X2X2X2X2X2X2X2X2X2X2X2X2X2X2X2X2X2X2X2X2X2X2X2X2X2X",
"2XW.W.W.Q.}./.W.W.W.W.W.2X2X2X2X2X2X2X2X2X2X2X2X2X2X2X2X2X2X2X2X2X2X2X2X2X2X2X2X2X2X2X2X2X2X2X2X2X2X",
"2X2XW.W.W.W.W.W.W.W.W.W.W.2X2X2X2X2X2X2X2X2X2X2XX X 2X2X2X2X2X2X2X2X2X2X2X2X2X2X2X2X2X2X2X2X2X2X2X2X",
"2X2X2XW.W.W.W.^. X X X^.~.W.W.2X2X2X2X2X2X2X2X2X- Q : X 2X2X2X2X2X2X2X2X2X2X2X2X2X2X2X2X2X2X2X2X2X2X",
"2X2X2X2XW.E.R.Q.}.XXXXoXXX/.W.W.2X2X2X2X2X2X2X2X- s.p.8 X X 2X2X2X2X2X2X2X2X2X2X2X2X2X2X2X2X2X2X2X2X",
"2X2X2X2X2X2X9 0.~..XXX,X-XXX^.W.2X2X2X2X2X2X2XX k s.g.<.q X X 2X2X2X2X2X2X2X2X2X2X2X2X2X2X2X2X2X2X2X",
"2X2X2X2X2X2X2X/ E.}.XX@X<X+X/.R.2X2X2X2X2X2X2X- 7.(.u.3.9.q $ X 2X2X2X2X2X2X2X. X X 2X2X2X2X2X2X2X2X",
"2X2X2X2X2X2X2X- 0.|.XX=X@XOX/.6.X . X 2X2X2Xo [ ).(.3.u.u.$.g X X X X 2X2X2X. 3 B.3 X 2X2X2X2X2X2X2X",
"2X2X2X2X2X2X2X$ 0. XXX<X-XK./.6.X X | y X . - p.).a.3.a.%.x O q v 7 O X 2Xo X V.D.* 2X2X2X2X2X2X2X2X",
"2X2X2X2X2X2X2X5 !.XX+X1X-X.XQ.6.  $ P.D.G $ X -.a.4.2.,.j 8 n 1.2.) x > + . y ].| X 2X2X2X2X2X2X2X2X",
"2X2X2X2X2X2XX { ^.XX>X1X-X|.R.9 2X$ V.{.H.j.i 2 >.1.:.&.@.>.1.<.=.N z a X . y A.G + 2X2X2X2X2X2X2X2X",
"2X2X2X2X2X2XX / `.=X:X=X-X~.q.: 2X2X3 S.[.C.c.L R :.:.1.2.<.*.C g > < 8 n f - t F 2X2X2X2X2X2X2X2X2X",
"2X2X2X2X2X2X2X- T.%X&X;X;X#Xh . 2X2X  | '.[.n.M.K 9 :.:.%._ C V v n >.1.,.B x @ # 2X2X2X2X2X2X2X2X2X",
"2X2X2X2X2X2X2X$ ` Y.;X:X:X%X!   2X2X2XX } {.G.v.O.A =.<.:.,.,.<.2.2.1.:.) N B x O 2X2X2X2X2X2X2X2X2X",
"2X2X2X2X2X2X2XX E #X;XY. .$X..  2X2XX . ; S.H.l.X.I ;.2.2.1.2.1.,.*.) B B B B c O X 2X2X2X2X2X2X2X2X",
"2X2X2X2X2X2X2X$ U.$XI., ! #X~   2XX o < X V.C.k.X.Z q 1.<.,.%.$.B M f a a a a 1 + X 2X2X2X2X2X2X2X2X",
"2X2X2X2X2X2X2XX d Y $ %  .6 $ 2X2XX ( p.7 e l.U P % w 1.*.) N j g @ X # r u i u D * X 2X2X2X2X2X2X2X",
"2X2X2X2X2X2X2X2XX X $ , , + 2X2X2X$ d.).;.T ..+.W v <.1.*.l > o % 3 u h.c.m.b.H.].A.H # 2X2X2X2X2X2X",
"2X2X2X2X2X2X2X2X2XO R ' ' > 2X2X2X$ d.).(.(.a.8.1.1.1.1.l @ . ; K M.b.b.b.b.b.C.].{.[.} % X 2X2X2X2X",
"2X2X2X2X2X2X2X2X2X$ ` e.y., 2X2X2X$ p.).(.(.g.g.f.8.1.@., s Z P O.U c.b.b.x.x.x.C.H.'.'.N.* # 2X2X2X",
"2X2X2X2X2X2X2X2X2X@ ~ e.y.: 2X2X2Xo [ (.f.9.4.4.4.4.2.v X % s A O.U k.k.F % % * F G Z.Z.n.x.e . 2X2X",
"2X2X2X2X2X2X2X2X2X$ E  .y., 2X2X2XX $ ( d.f.f.2.1.2.2.v X + Z P O.o.I & & 3 + X 2X# = * F j.h.# 2X2X",
"2X2X2X2X2X2X2X2X2XX , ~ ` - . 2X2X2X@ j 2 l &.>.,.<.:.M & . Z o.o.o.I S I o.Z X 2X2X2XX X % e # 2X2X",
"2X2X2X2X2X2X2X2X2XX ; - X * F * 2X2X1 $.%.%.&.&.*.,.&.$.z a s K o.O.o.o.O.o.A X 2X2X2X2X2X2X2X2X2X2X",
"2X2X2X2X2X2X2X2XX ; S.B.3 * j.H 2X2X8 1.1.1.2.1.2.1.2.<.$.c > % S O.o.O.o.S & X 2X2X2X2X2X2X2X2X2X2X",
"2X2X2X2X2X2X2X2XX F ].{.P.3 H i 2X2X2 @.2 7 1.1.1.1.1.>.=.B N j a s I o.P a $ X 2X2X2X2X2X2X2X2X2X2X",
"2X2X2X2X2X2X2X2XX H Z.J.[.} * # X X X o < n 1.1.1.2.<.) N B B B N j ^ P ^ c c a X 2X2X2X2X2X2X2X2X2X",
"2X2X2X2X2X2X2X2Xo H b.n.m.z.X X X X X 7 #.>.2.2.2.2.<.V B N B B B B N j M B N N a X . 2X2X2X2X2X2X2X",
"2X2X2X2X2X2X2X2X2X* x.c.b.i X # 2XX X - < 8 n m n n n j c N N N N N N j f j c z 1 # t % X 2X2X2X2X2X",
"2X2X2X2X2X2X2X2X2X$ = = e # X 2X2X2X9 r.r.I.5 T T 4 h T d a > > > > > d 4 ; d a - r b.G % 2X2X2X2X2X",
"2X2X2X2X2X2X2X2X2X2XX o - , X 2X2X2X; E T ` w.Y.T.w.U.T.] W ] R W R $ w.y.E T ' d h.m.n.u . 2X2X2X2X",
"2X2X2X2X2X2X2X2X2X2XX ; ' ` o 2X2XX - a 2 - - ; - - : : - - E T Y h + R ` 4 X + + h.m.n.u . 2X2X2X2X",
"2X2X2X2X2X2X2X2X2X2XX $ W E X 2X2Xo V %.$._ x x c x x x c z a > O & k d - , d X X D G i # 2X2X2X2X2X",
"2X2X2X2X2X2X2X2X2X2X2XX X X 2X2XX 2 @.#.1.1.,.,.:.C B B B B B c @ d  .~ . R  .d + . X X 2X2X2X2X2X2X",
"2X2X2X2X2X2X2X2X2X2X2X2X2X2X2X2XX $ o O q q q q l x c c c f 1 1 T [ ` , X ; ' w.- 2X2X2X2X2X2X2X2X2X",
"2X2X2X2X2X2X2X2X2X2X2X2X2X2X2X2X2X2X2X2X  X X X   o O O $ o X $ R : $ X X X , E - 2X2X2X2X2X2X2X2X2X",
"2X2X2X2X2X2X2X2X2X2X2X2X2X2X2X2X2X2X2X2XX X X 2X2X2X2X2X2X2X2XX X 2X2X2XX X X X 2X2X2X2X2X2X2X2X2X2X",
"2X2X2X2X2X2X2X2X2X2X2X2X2X2X2X2X2X2X2X2Xo X X 2X2X2X2X2X2X2X2X2X2X2X2X2X2XX + o 2X2X2X2X2X2X2X2X2X2X",
"2X2X2X2X2X2X2X2X2X2X2X2X2X2X2X2X2X2X2XX X X 2X2X2X2X2X2X2X2X2X2X2X2X2X2X2Xo X X X 2X2X2X2X2X2X2X2X2X",
"2X2X2X2X2X2X2X2X2X2X2X2X2X2X2X2X2X2X2X+ o X 2X2X2X2X2X2X2X2X2X2X2X2X2X2X2XX X o X 2X2X2X2X2X2X2X2X2X",
"2X2X2X2X2X2X2X2X2X2X2X2X2X2X2X2X2X2X2X2X2X2X2X2X2X2X2X2X2X2X2X2X2X2X2X2X2X2X2X2X2X2X2X2X2X2X2X2X2X2X",
"2X2X2X2X2X2X2X2X2X2X2X2X2X2X2X2X2X2X2X2X2X2X2X2X2X2X2X2X2X2X2X2X2X2X2X2X2X2X2X2X2X2X2X2X2X2X2X2X2X2X",
"2X2X2X2X2X2X2X2X2X2X2X2X2X2X2X2X2X2X2X2X2X2X2X2X2X2X2X2X2X2X2X2X2X2X2X2X2X2X2X2X2X2X2X2X2X2X2X2X2X2X"
};
