/* XPM */
static char *result[] = {
/* columns rows colors chars-per-pixel */
"50 50 208 2 ",
"   c #0F182B",
".  c #0C162B",
"X  c #12162C",
"o  c #151B2D",
"O  c #191C2F",
"+  c #1C1F31",
"@  c #171E30",
"#  c #211F33",
"$  c #16222F",
"%  c #19222F",
"&  c #1C2232",
"*  c #1A2B32",
"=  c #1A2935",
"-  c #1B3333",
";  c #1C3D35",
":  c #232334",
">  c #2B2434",
",  c #232C33",
"<  c #292A37",
"1  c #2C253A",
"2  c #2D2D39",
"3  c #32263C",
"4  c #392A39",
"5  c #253334",
"6  c #24383B",
"7  c #35333C",
"8  c #3B353C",
"9  c #442C3A",
"0  c #4D363D",
"q  c #54313C",
"w  c #1E4236",
"e  c #1F4738",
"r  c #284538",
"t  c #22533A",
"y  c #245C3D",
"u  c #3A573E",
"i  c #36493A",
"p  c #27693F",
"a  c #54413D",
"s  c #3B2B42",
"d  c #283A43",
"f  c #3D3940",
"g  c #432E45",
"h  c #413243",
"j  c #433D42",
"k  c #493D45",
"l  c #4A324A",
"z  c #53334F",
"x  c #543A44",
"c  c #553450",
"v  c #593652",
"b  c #5E3855",
"n  c #623740",
"m  c #673947",
"M  c #753E4A",
"N  c #623A56",
"B  c #663B5A",
"V  c #6A3D5B",
"C  c #6D3E54",
"Z  c #713E54",
"A  c #713F5B",
"S  c #2A4449",
"D  c #325454",
"F  c #355B59",
"G  c #395C5B",
"H  c #3C4B4E",
"J  c #2A6B41",
"K  c #266C42",
"L  c #2B7843",
"P  c #297242",
"I  c #39615D",
"U  c #3B7A4F",
"Y  c #3D6C63",
"T  c #3C6761",
"R  c #3F7B64",
"E  c #4A4547",
"W  c #564145",
"Q  c #50464A",
"!  c #58484A",
"~  c #5B4B53",
"^  c #5E5151",
"/  c #515455",
"(  c #6A4D4C",
")  c #7B5A47",
"_  c #74405A",
"`  c #7E435A",
"'  c #7A495D",
"]  c #635553",
"[  c #695956",
"{  c #774F53",
"}  c #4B6943",
"|  c #557A48",
" . c #597E49",
".. c #4F6952",
"X. c #74615B",
"o. c #7A695B",
"O. c #79675C",
"+. c #73685A",
"@. c #426E67",
"#. c #407067",
"$. c #417168",
"%. c #447F63",
"&. c #7E6861",
"*. c #7F7361",
"=. c #8D464B",
"-. c #844449",
";. c #994A4E",
":. c #864658",
">. c #894658",
",. c #8D4858",
"<. c #9B4C55",
"1. c #954A55",
"2. c #925A56",
"3. c #A14D4F",
"4. c #A24E55",
"5. c #A24F58",
"6. c #AC5154",
"7. c #AA5959",
"8. c #B55455",
"9. c #B85555",
"0. c #BA5E59",
"q. c #B55A57",
"w. c #9E6D58",
"e. c #956D4E",
"r. c #BB635D",
"t. c #BC685F",
"y. c #A87657",
"u. c #AA7059",
"i. c #9A5F63",
"p. c #836C61",
"a. c #8B7866",
"s. c #9E7466",
"d. c #977C6A",
"f. c #BA6D62",
"g. c #BD7667",
"h. c #A97163",
"j. c #C37A69",
"k. c #C06C61",
"l. c #2D8245",
"z. c #31934A",
"x. c #339C4C",
"c. c #3D8B5F",
"v. c #3A9D59",
"b. c #35A64E",
"n. c #36AC51",
"m. c #3BA653",
"M. c #37B351",
"N. c #38B451",
"B. c #3E8661",
"V. c #49894A",
"C. c #5C874C",
"Z. c #40924A",
"A. c #67914F",
"S. c #56BA56",
"D. c #4AAE52",
"F. c #72A354",
"G. c #63B957",
"H. c #7FB559",
"J. c #61C258",
"K. c #7BCC5D",
"L. c #BF8358",
"P. c #938065",
"I. c #A38C6D",
"U. c #AD9976",
"Y. c #BBA077",
"T. c #BDA77F",
"R. c #D9945F",
"E. c #DD9D5C",
"W. c #D7965D",
"Q. c #CA9059",
"!. c #DEA05B",
"~. c #E4AD57",
"^. c #E2A958",
"/. c #E2A55A",
"(. c #E6B255",
"). c #EABC52",
"_. c #E9B257",
"`. c #C4816D",
"'. c #C8846F",
"]. c #C6AC7F",
"[. c #85CA5E",
"{. c #8CD361",
"}. c #96D762",
"|. c #EEC64F",
" X c #F1CE4D",
".X c #F7DB49",
"XX c #F7DB48",
"oX c #EFC552",
"OX c #FBE545",
"+X c #FFED43",
"@X c #FDE94A",
"#X c #FFF157",
"$X c #FAE76D",
"%X c #FDEE75",
"&X c #B7A681",
"*X c #DBC38F",
"=X c #E3CA97",
"-X c #E8D39B",
";X c #F9EC8B",
":X c #FFF69C",
">X c #FEF387",
",X c #EADAA4",
"<X c #EFE1B0",
"1X c #F7EDAF",
"2X c #FFFBD8",
"3X c #FBF5CA",
"4X c #FFFEF6",
"5X c None",
/* pixels */
"5X5X5X5X5X5X5X5X5X5X5X5X5X5X5X5X5X5X5X5X5X5X5X5X5X5X5X5X5X5X5X5X5X5X5X5X5X5X5X5X5X5X5X5X5X5X5X5X5X5X",
"5X5X5X5X5X5X5X5X5X5X5X5X5Xs.s.s.5X5X5X5X5X5X5X5X5X5X5X5X5X5X5X5X5X5X5X5X5X5X5X5X5X5X5X5X5X5X5X5X5X5X",
"5X5X5X5XR.R.R.R.5X5X5X5X5X5X5Xs.5X5X5X5X5X5X5X5X5X5X5X5X5X5X5X5X5X5X5X5X5X5X5X5X5X5X5X5X5X5X5X5X5X5X",
"5X5X5XR.~.|.~.5X5X5X5X5X5X5X5X5X5X5X5X5X5X5X5X5X5X5X5X5X5X5X5X5X5X5X5X5X5X5X5X5X5X5X5X5X5X5X5X5X5X5X",
"5X5X5X5X(.OX).5X5X5X5X5X5X5X5X5X5X5X5X5X5X5X5X5X5X5X5X5X5X5X5X5X5X5X5X5X5X5X5X5X5X5X5X5X5X5X5X5X5X5X",
"5X5X5X5X5X^.E.5X5X5X5X5X5X5X5X5X5X5X5X5X5X5X5X5X5X5X5X5X5X5X5X5X5X5X5X5X5X5X5X5X5X5X5X5X5X5X5X5X5X5X",
"5X5X5X5X5X5X5X5X5XR.R.R.R.R.R.R.R.5X5X5X5X5X5X5X5X5X5X5X5X5X5X5X5X5X5X5X5X5X5X5X5X5X5X5X5X5X5X5X5X5X",
"5X5X5XR.R.R.R.R.R.R.R.!.!.E.E.R.R.R.5X5X5X5X5X5X5X5X5X5X5X5X5X5X5X5X5X5X5X5X5X5X5X5X5X5X5X5X5X5X5X5X",
"5X5X5X5XR.R.R.R.E.).|.@XOXOX.X^.R.R.R.5X5X5X5X5X5X5X5X5X5X5X5X5X5X5X5X5X5X5X5X5X5X5X5X5X5X5X5X5X5X5X",
"5X5X5X5XR.R.R.R.(. X X+X+X+X+X.XE.R.R.5X5X5X5X5X5X5X5X5X5X5X5X5X5X5X5X5X5X5X5X5X5X5X5X5X5X5X5X5X5X5X",
"5X5X5X5X5X5XR.R.R.R.E.^.(.@X+X+XoXR.R.5X5X5X5X5X5X5X5X5X5X5X5X5X5X5X5X5X5X5X5X5X5X5X5X5X5X5X5X5X5X5X",
"5X5X5X5X5X5X5X5XR.R.R.^.)./.OX+X XR.R.5X5X5X5X5Xo : + 5X5X5X5X5X5X5X5X5X5X5X5X5X5X5X5X5X5X5X5X5X5X5X",
"5X5X5X5X5X5X5X5X5XR.R.).OX^.(.+X XR.R.5X5X5X5X5X  x 2.g o 5X5X5X5X5X5X5X5X5X5X5X5X5X5X5X5X5X5X5X5X5X",
"5X5X5X5X5X5X5X5X5X5XR.E.XXOXOX+X XR.R.5X5X5X5X5X  W k.7.W O o 5X5X5X5X5X5X5X5X5X5X5X5X5X5X5X5X5X5X5X",
"5X5X5X5X5X5X5X5X5X5Xy.E.XX#X+X+X XR.y.5X5X5X5X5X& s.f.f.g.n O o O 5X5X5X5X5X5X5X5X5X5X5X5X5X5X5X5X5X",
"5X5X5X5X5X5X5X5X5X5Xw._.OX:X%X+X~.) O O 5X5X5X+ ( g.r.'.L.' z 1 o O 5X5X5X5X5X5X5Xr  .5X5X5X5X5X5X5X",
"5X5X5X5X5X5X5X5X5X8 L.oX#X2X1XOXW.0 r 5 X 5Xo 0 g.q.t.j.i.V N : # # O o 5X5X5X5Xo % A.* 5X5X5X5X5X5X",
"5X5X5X5X5X5X5X5X% 2./.OX:X4X%X).e.O } C.y * X k j.r.j.i.V c s 9 =.C l 3 + o o o %  .V.O 5X5X5X5X5X5X",
"5X5X5X5X5X5X5Xo ) ).OX>X2X1X|.y.9 X } }.[.Z.w & =.0.7.Z C q -.<.` B V B s X O o | K.r X 5X5X5X5X5X5X",
"5X5X5X5X5X5X5Xo e.$X;X3X>X$XQ.a . 5X5 F.}.{.S.K j <.:.:.8.6.5.A B N l 3 1 : : o | S.e 5X5X5X5X5X5X5X",
"5X5X5X5X5X5X5Xo P.*X-X<X<X-X+.$ 5X5Xo , F.}.J.m.Y E =.8.4.` V B b 3 9 n M B N g * w 5X5X5X5X5X5X5X5X",
"5X5X5X5X5X5X5Xo ! *.-X<X,X*XI.$ 5X5X5XX u [.J.n.B.G s 6.<.:.>.:.1.4.<.1.A V V B g O 5X5X5X5X5X5X5X5X",
"5X5X5X5X5X5X5X$ E &X-XT.[ T.&X@ 5X5X5X$ O A.J.M.B.R ..6.9.9.8.8.5.>.A B V V V V B + 5X5X5X5X5X5X5X5X",
"5X5X5X5X5X5X5X$ p.].I.8 E U.a.o 5X5Xo o X i G.M.B.Y H <.6.4.>.` V V V b v v v v z + o 5X5X5X5X5X5X5X",
"5X5X5X5X5X5X5Xo : E o o ! E + o 5X5XO ( x > Z.v.$.T $ n <.A V V N v s # + = = = * * $ o 5X5X5X5X5X5X",
"5X5X5X5X5X5X5X5Xo o & 7 7 & o 5X5XX W '.t.3 J %.$.d q 6.8.<.B g # + @ = y z.b.b.D.D.p $ o 5X5X5X5X5X",
"5X5X5X5X5X5X5X5X5Xo k X.O.j o 5X5XX ! '.g.h.h.w.5.;.6.9.6.N # o = D U x.M.N.N.M.J.}.K.U $ o 5X5X5X5X",
"5X5X5X5X5X5X5X5X5XO Q &.d.Q o 5X5XX ! t.r.t.0.0.q.9.q.9.-.1 = d I Y B.N.n.M.N.N.N.J.}.{.V.o 5X5X5X5X",
"5X5X5X5X5X5X5X5X5X5XQ p.P.Q o 5X5Xo W f.q.8.8.8.8.8.8.8.4 , d D Y $.%.m.b.z.y y y z.S.{.[.u $ 5X5X5X",
"5X5X5X5X5X5X5X5X5X5Xf [ d.Q X 5X5Xo % ( q.8.8.8.8.8.8.8.4 X @ S F $.Y Y d * o X o * y m.D.n.; w * 5X",
"5X5X5X5X5X5X5X5X5X5X+ k Q 7 o 5X5X5Xo 1 4 M ,.8.8.8.8.6.g O @ D $.$.$.Y d F I d 5X5X% - w z.x.l.- 5X",
"5X5X5X5X5X5X5X5X5XX 6 5 o @ L y 5X5Xo v C m Z ,.,.<.<.:.B s = D $.$.Y $.$.Y $.F O 5X5X5XX - e * o 5X",
"5X5X5X5X5X5X5X5Xo % F.H.| , p b.- 5Xo ` 6.3.8.8.8.8.8.6.<.V g & S Y Y $.Y R Y d X 5X5X5X5X5X5X5X5X5X",
"5X5X5X5X5X5X5X5XX t J.{.}.} w L * 5Xo q 9 % M 9.8.8.8.9.8.>.V l s d F Y Y Y d @ @ 5X5X5X5X5X5X5X5X5X",
"5X5X5X5X5X5X5X5XX t N.J.K.G.6 $ o o o o > n 6.9.9.8.9.6.' V B B B c s T $./ l c # . 5X5X5X5X5X5X5X5X",
"5X5X5X5X5X5X5X5XX r n.M.M.n.- o o o o X > -.=.=.=.=.=.M c V V _ V V V ~ d l c v v s o o 5X5X5X5X5X5X",
"5X5X5X5X5X5X5X5X5X$ L x.x.p $ o o , O.X.P.8 2 7 4 2 7 7 7 9 s s s s 3 3 1 < < < l 3 & $ $ 5X5X5X5X5X",
"5X5X5X5X5X5X5X5X5X5X$ & $ $ O 5X5X: ] ^ +.p.I.Y.P.P.Y.Y.I.^ ^ ! k f ! : E a.p.8 [ ] < t J @ 5X5X5X5X",
"5X5X5X5X5X5X5X5X5X5Xo o 2 E , 5X5X+ 1 1 : , 2 7 2 2 8 7 7 , : E ^ E ] 1 s [ [ & & , O y x.$ 5X5X5X5X",
"5X5X5X5X5X5X5X5X5X5Xo O ^ p.< 5Xo l :.:.Z v c z z z z z z z z s 1 1 o d 7 2 : 7 , o ; x.l.@ 5X5X5X5X",
"5X5X5X5X5X5X5X5X5X5X5Xo 2 j : 5Xo -.4.3.9.4.<.5.` V V V V V V V V g + ^ p.2 + X.~ : ; t * o 5X5X5X5X",
"5X5X5X5X5X5X5X5X5X5X5X5X5X5X5X5XO 4 # > n n n n N N N N N B v s s < ] X.Q & o f ] o.< X 5X5X5X5X5X5X",
"5X5X5X5X5X5X5X5X5X5X5X5X5X5X5X5X5Xo 5Xo X o o o + # : # # : & o o & ^ 7 + o o o < ] 7 5X5X5X5X5X5X5X",
"5X5X5X5X5X5X5X5X5X5X5X5X5X5X5X5X5X5X5X5Xo o o 5X5X5X5X5X5X5X5X5X5Xo o o 5Xo o o o 5X5X5X5X5X5X5X5X5X",
"5X5X5X5X5X5X5X5X5X5X5X5X5X5X5X5X5X5X5Xo o o o 5X5X5X5X5X5X5X5X5X5X5X5X5X5X5XO O o 5X5X5X5X5X5X5X5X5X",
"5X5X5X5X5X5X5X5X5X5X5X5X5X5X5X5X5X5Xo O @ @ 5X5X5X5X5X5X5X5X5X5X5X5X5X5X5X5Xo o o 5X5X5X5X5X5X5X5X5X",
"5X5X5X5X5X5X5X5X5X5X5X5X5X5X5X5X5X5X5X5X5X5X5X5X5X5X5X5X5X5X5X5X5X5X5X5X5X5X5X5X5X5X5X5X5X5X5X5X5X5X",
"5X5X5X5X5X5X5X5X5X5X5X5X5X5X5X5X5X5X5X5X5X5X5X5X5X5X5X5X5X5X5X5X5X5X5X5X5X5X5X5X5X5X5X5X5X5X5X5X5X5X",
"5X5X5X5X5X5X5X5X5X5X5X5X5X5X5X5X5X5X5X5X5X5X5X5X5X5X5X5X5X5X5X5X5X5X5X5X5X5X5X5X5X5X5X5X5X5X5X5X5X5X",
"5X5X5X5X5X5X5X5X5X5X5X5X5X5X5X5X5X5X5X5X5X5X5X5X5X5X5X5X5X5X5X5X5X5X5X5X5X5X5X5X5X5X5X5X5X5X5X5X5X5X"
};
