/* XPM */
static char *result[] = {
/* columns rows colors chars-per-pixel */
"50 50 206 2 ",
"   c #12172C",
".  c #151B2D",
"X  c #191D2F",
"o  c #1B1E31",
"O  c #171F30",
"+  c #211F32",
"@  c #17212F",
"#  c #19202F",
"$  c #1B2431",
"%  c #192B32",
"&  c #1A2934",
"*  c #1B3333",
"=  c #1C3B35",
"-  c #232334",
";  c #2A2634",
":  c #252A35",
">  c #2C2A36",
",  c #2D243A",
"<  c #2E2D39",
"1  c #252839",
"2  c #342736",
"3  c #3D2937",
"4  c #32263D",
"5  c #332C3B",
"6  c #372B39",
"7  c #21343E",
"8  c #293735",
"9  c #33323B",
"0  c #3B373D",
"q  c #422C39",
"w  c #5A343E",
"e  c #423739",
"r  c #1E4036",
"t  c #214A38",
"y  c #314439",
"u  c #22533B",
"i  c #245B3D",
"p  c #28533B",
"a  c #25643F",
"s  c #2C613E",
"d  c #4D4F3F",
"f  c #3A2A42",
"g  c #263D44",
"h  c #3D3242",
"j  c #3E3940",
"k  c #303E45",
"l  c #422D45",
"z  c #472F48",
"x  c #4C314B",
"c  c #493944",
"v  c #53334F",
"b  c #5A3542",
"n  c #563551",
"m  c #5B3854",
"M  c #623740",
"N  c #6B3A42",
"B  c #633849",
"V  c #743E47",
"C  c #623A57",
"Z  c #643B59",
"A  c #6A3D5B",
"S  c #6A3C54",
"D  c #713F5A",
"F  c #733F54",
"G  c #2B444A",
"H  c #374A4F",
"J  c #365A59",
"K  c #286A40",
"L  c #3C6842",
"P  c #297542",
"I  c #39645F",
"U  c #33784B",
"Y  c #3B6560",
"T  c #3D6C64",
"R  c #3E7965",
"E  c #494146",
"W  c #4A4247",
"Q  c #5A4346",
"!  c #564B4D",
"~  c #594D4F",
"^  c #534448",
"/  c #5B524D",
"(  c #564C57",
")  c #674D4A",
"_  c #784449",
"`  c #6E5447",
"'  c #77425B",
"]  c #7C4359",
"[  c #7B4252",
"{  c #635453",
"}  c #6A5A56",
"|  c #6E5A58",
" . c #775C57",
".. c #476542",
"X. c #507546",
"o. c #77675A",
"O. c #767259",
"+. c #407067",
"@. c #417268",
"#. c #407965",
"$. c #406F66",
"%. c #746660",
"&. c #8D454A",
"*. c #824349",
"=. c #974A4D",
"-. c #844559",
";. c #82495B",
":. c #924957",
">. c #9C4C56",
",. c #9F4E58",
"<. c #855D56",
"1. c #A14D4F",
"2. c #A34F55",
"3. c #A64F55",
"4. c #AC5155",
"5. c #A55056",
"6. c #B65555",
"7. c #B85555",
"8. c #B95E59",
"9. c #B75A58",
"0. c #8B6A57",
"q. c #BA645D",
"w. c #B27D54",
"e. c #836C62",
"r. c #8B7964",
"t. c #9E7466",
"y. c #967B6A",
"u. c #BD6D62",
"i. c #B16B60",
"p. c #BB7C6B",
"a. c #B57366",
"s. c #A16E61",
"d. c #C67D6B",
"f. c #C17365",
"g. c #2E8847",
"h. c #2E8346",
"j. c #309249",
"k. c #339D4C",
"l. c #3A9B59",
"z. c #358853",
"x. c #35A34D",
"c. c #36A94F",
"v. c #38AA53",
"b. c #37B451",
"n. c #38B451",
"m. c #5A854B",
"M. c #6B9751",
"N. c #628A4D",
"B. c #5AA752",
"V. c #43B552",
"C. c #4BBB55",
"Z. c #47BA54",
"A. c #43A750",
"S. c #7DB157",
"D. c #69C45A",
"F. c #7BC85C",
"G. c #FEEC3F",
"H. c #B98855",
"J. c #81B85A",
"K. c #92826B",
"L. c #A79776",
"P. c #B19470",
"I. c #B8A17A",
"U. c #D08E5D",
"Y. c #D6945D",
"T. c #D9935F",
"R. c #DB9A5C",
"E. c #C08558",
"W. c #DEA058",
"Q. c #E3AC57",
"!. c #E1A659",
"~. c #E2AA58",
"^. c #E7B455",
"/. c #ECBD52",
"(. c #C6826D",
"). c #C9866F",
"_. c #E4B075",
"`. c #87CA5E",
"'. c #84D05F",
"]. c #8AD360",
"[. c #94D562",
"{. c #99D963",
"}. c #F1CD4D",
"|. c #F6D949",
" X c #F0CD53",
".X c #FEEC43",
"XX c #FCE748",
"oX c #EED572",
"OX c #FFF066",
"+X c #FFF273",
"@X c #FFF27A",
"#X c #FAE770",
"$X c #C9B286",
"%X c #DBBD89",
"&X c #DCC594",
"*X c #E9D39D",
"=X c #EFDE8A",
"-X c #FFF48B",
";X c #F4E58F",
":X c #EFDEA7",
">X c #F3E5AB",
",X c #F7EDB5",
"<X c #FFF9C7",
"1X c #FFFCDD",
"2X c #FFFEF5",
"3X c None",
/* pixels */
"3X3X3X3X3X3X3X3X3X3X3X3X3X3X3X3X3X3X3X3X3X3X3X3X3X3X3X3X3X3X3X3X3X3X3X3X3X3X3X3X3X3X3X3X3X3X3X3X3X3X",
"3X3X3X3X3X3X3X3X3X3X3X3X3X3X3X3X3X3X3X3X3X3X3X3X3X3X3X3X3X3X3X3X3X3X3X3X3X3X3X3X3X3X3X3X3X3X3X3X3X3X",
"3X3X3X3X3XT.T.T.3X3X3X3Xt.t.t.t.3X3X3X3X3X3X3X3X3X3X3X3X3X3X3X3X3X3X3X3X3X3X3X3X3X3X3X3X3X3X3X3X3X3X",
"3X3X3XT.^.}.!.T.R.T.3X3X3Xt.t.t.3X3X3X3X3X3X3X3X3X3X3X3X3X3X3X3X3X3X3X3X3X3X3X3X3X3X3X3X3X3X3X3X3X3X",
"3X3X3X!.XX|.~.Y.T.3X3X3X3X3X3Xt.3X3X3X3X3X3X3X3X3X3X3X3X3X3X3X3X3X3X3X3X3X3X3X3X3X3X3X3X3X3X3X3X3X3X",
"3X3X3X~.XXQ.3X3X3X3X3X3X3X3X3X3X3X3X3X3X3X3X3X3X3X3X3X3X3X3X3X3X3X3X3X3X3X3X3X3X3X3X3X3X3X3X3X3X3X3X",
"3X3X3XQ.|.W.3X3X3X3X3X3X3X3X3X3X3X3X3X3X3X3X3X3X3X3X3X3X3X3X3X3X3X3X3X3X3X3X3X3X3X3X3X3X3X3X3X3X3X3X",
"3X3X3X3X3XR.T.Y.T.T.T.T.3X3X3X3X3X3X3X3X3X3X3X3X3X3X3X3X3X3X3X3X3X3X3X3X3X3X3X3X3X3X3X3X3X3X3X3X3X3X",
"3X3XT.3X3XT.T.R.R.T.T.T.T.T.3X3X3X3X3X3X3X3X3X3X3X3X3X3X3X3X3X3X3X3X3X3X3X3X3X3X3X3X3X3X3X3X3X3X3X3X",
"3X3XT.T.T.T.R./. X^.^.!.T.T.T.T.3X3X3X3X3X3X3X3X3X3X3X3X3X3X3X3X3X3X3X3X3X3X3X3X3X3X3X3X3X3X3X3X3X3X",
"3X3X3XT.T.T.T.T.Q.|.XX#X_.R.T.T.T.3X3X3X3X3X3X3XO X . 3X3X3X3X3X3X3X3X3X3X3X3X3X3X3X3X3X3X3X3X3X3X3X",
"3X3X3X3X3XT.T.T.Y.!.XXOX<XoXR.T.T.3X3X3X3X3X3X3X. c 6 X 3X3X3X3X3X3X3X3X3X3X3X3X3X3X3X3X3X3X3X3X3X3X",
"3X3X3X3X3X3X3XT.T.T.}.G.OXOX|.R.T.3X3X3X3X3X3X3X. <.u.N X . 3X3X3X3X3X3X3X3X3X3X3X3X3X3X3X3X3X3X3X3X",
"3X3X3X3X3X3X3X3XY.Y.Q.XXXXXX.XQ.T.3X3X3X3X3X3X. 1 s.u.6._ + . . 3X3X3X3X3X3X3X3X3X3X3X3X3X3X3X3X3X3X",
"3X3X3X3X3X3X3X3X` U.Q.G.+X+X.X XT.3X3X3X3X3X3X. ) d.9.u.f._ ; O . 3X3X3X3X3X3X3X  . O 3X3X3X3X3X3X3X",
"3X3X3X3X3X3X3X3X3 U.^.G.-X,X.X|.E.>   3X3X3X. Q p.f.u.d.a.D m O . . . 3X3X3X3XO ..X.O 3X3X3X3X3X3X3X",
"3X3X3X3X3X3X3X  0 Y.|..X,X1XXXW.` . d L @ . .  .d.9.q.p.;.Z 5 6 N b - O . 3X. y `.K . 3X3X3X3X3X3X3X",
"3X3X3X3X3X3X3XX 0. X.X+X2X-X}.H.-   M.[.B.r . Q q.6.6.;.n f b 1.7.-.m z O . . M.S.= 3X3X3X3X3X3X3X3X",
"3X3X3X3X3X3X3X> H.|.OX-X1X#XW.Q . 3XX.[.].A.h.: &.7.:.-.>.=.7.5.-.A n x + . . m.V.= 3X3X3X3X3X3X3X3X",
"3X3X3X3X3X3X3X> P.*X=X-X>X&X` - 3X3X# m.{.D.b.U H *.2.4.7.2.-.A v 4 2 2 V B f $ K = 3X3X3X3X3X3X3X3X",
"3X3X3X3X3X3X3XX r.L.*X>X>X&X%.. 3X3X. 8 S.F.V.l.T k V 6.:.' A ' V N >.4.5.' Z z O O 3X3X3X3X3X3X3X3X",
"3X3X3X3X3X3X3XX 6 L.:X&XI.%XO.. 3X3X3X  y ].C.v.#.Y ) 6.4.4.4.4.6.6.>.-.A A A A f . 3X3X3X3X3X3X3X3X",
"3X3X3X3X3X3X3X. r.&X$X/ 0 $XK.  3X3X.   # m.C.v.R T | 7.6.6.6.4.-.] A Z A A A A f . 3X3X3X3X3X3X3X3X",
"3X3X3X3X3X3X3X. / e.0 $ O.} 9 . 3X3XX 5 o ..Z.l.#.J ; =.6.>.-.] A C v 4 , 4 < 9 + . . 3X3X3X3X3X3X3X",
"3X3X3X3X3X3X3XX . X . o ; O . 3X3X. Q p._ @ z.z.T g q 1.4.-.Z v f 1   @ r a a a P s % X 3X3X3X3X3X3X",
"3X3X3X3X3X3X3X3X. . j { { < . 3X3X. <.).i.) O.o.} B 4.7.3.S , X & G G g.b.b.b.Z.].F.B.u . 3X3X3X3X3X",
"3X3X3X3X3X3X3X3X3XX ~ e.r.j   3X3X. <.).(.(.f.u.9.7.7.7.[ 1 . $ J @.l.n.b.b.b.b.D.[.{.F.L X 3X3X3X3X",
"3X3X3X3X3X3X3X3X3XX ( e.y.h   3X3X. <.(.q.q.q.q.8.6.7.=.2 G G J @.@.l.v.b.x.j.j.x.C.D.'.F.s * 3X3X3X",
"3X3X3X3X3X3X3X3X3X3X! o.y.j   3X3X. c a.f.8.6.6.6.6.7.=.X O & G Y @.@.z.K * X @ r i h.x.x.n.j.% 3X3X",
"3X3X3X3X3X3X3X3X3X3X< { o.9   3X3X. X q _ 4.6.6.7.7.7.=.X . g Y T @.@.G $ g = @   3X@ % * a k.i . 3X",
"3X3X3X3X3X3X3X3X3X. O $ - $ t % 3X3X$ x f x ] >.>.5.>.' z O 1 T @.@.@.Y Y @.T 1 . 3X3X3XX . % % . 3X",
"3X3X3X3X3X3X3X3XX O N.X.: % k.h.3X3Xo -.3.2.>.>.2.4.2.>.D x & G T @.@.@.@.@.T & . 3X3X3X3X3X3X3X3X3X",
"3X3X3X3X3X3X3X3X. t F.{.J.8 i g.3X3X- =.N w 1.7.7.6.7.6.2.A v - g I $.+.@.Y 7 O 3X3X3X3X3X3X3X3X3X3X",
"3X3X3X3X3X3X3X3X. a C.F.[.m.t * .   X X X 3 4.7.7.6.6.4.:.' Z Z z 5 H +.T k f + O 3X3X3X3X3X3X3X3X3X",
"3X3X3X3X3X3X3X3X  K n.V.Z.A.$   X X . ; *.4.6.7.7.7.7.-.Z A A A A Z m ( J ( A n f . 3X3X3X3X3X3X3X3X",
"3X3X3X3X3X3X3X3X3X* k.n.b.g.# . 3X3X  + 3 q _ &.&.&.&.B v Z A A A A A m f x m ' n O . . 3X3X3X3X3X3X",
"3X3X3X3X3X3X3X3X3XX t u u %   3X3X3X: o.o.r.c 9 9 > 6 9 9 e h 4 f f 4 5 > 1 > x f $ @ u $ 3X3X3X3X3X",
"3X3X3X3X3X3X3X3X3X3X  X X < X 3X3X3X- { ~ o.O.K.I.y.K.I.I.| ~ ! H c E 0 e.e.! ! | c % k.P O 3X3X3X3X",
"3X3X3X3X3X3X3X3X3X3X  X ~ } $ 3X3X3XO , 4 + : 9 9 > 9 9 6 - > { ^ ~ ! X / | E . : $ % x.x.& 3X3X3X3X",
"3X3X3X3X3X3X3X3X3X3XX O ~ } $ 3X3X. x ] ] F n v v v v v v v v , , o X 9 9 1 : 5 X X = x.g.@ 3X3X3X3X",
"3X3X3X3X3X3X3X3X3X3X3XX . X 3X3XX M 3.7.7.7.5.,.2.] A A A A A Z f 1 ^ %.j $ { { X . = u % . 3X3X3X3X",
"3X3X3X3X3X3X3X3X3X3X3X3X3X3X3X3X. 2 M M M M M M M C m Z C C x , ; } { 0 O E e.E . . 3X3X3X3X3X3X3X3X",
"3X3X3X3X3X3X3X3X3X3X3X3X3X3X3X3X3X3X3X.   .     . O - + - + X . c { 5 . . E { > . 3X3X3X3X3X3X3X3X3X",
"3X3X3X3X3X3X3X3X3X3X3X3X3X3X3X3X3X3X3X3XX . . @ 3X3X3X3X3X3X. X X 3X3X3X. . . . . 3X3X3X3X3X3X3X3X3X",
"3X3X3X3X3X3X3X3X3X3X3X3X3X3X3X3X3X3X3X3X. X O 3X3X3X3X3X3X3X3X3X3X3X3X3X3X3XX . X 3X3X3X3X3X3X3X3X3X",
"3X3X3X3X3X3X3X3X3X3X3X3X3X3X3X3X3X3X3XX X . 3X3X3X3X3X3X3X3X3X3X3X3X3X3X3X3X. X X 3X3X3X3X3X3X3X3X3X",
"3X3X3X3X3X3X3X3X3X3X3X3X3X3X3X3X3X3X3X3X3X3X3X3X3X3X3X3X3X3X3X3X3X3X3X3X3X3X3X3X3X3X3X3X3X3X3X3X3X3X",
"3X3X3X3X3X3X3X3X3X3X3X3X3X3X3X3X3X3X3X3X3X3X3X3X3X3X3X3X3X3X3X3X3X3X3X3X3X3X3X3X3X3X3X3X3X3X3X3X3X3X",
"3X3X3X3X3X3X3X3X3X3X3X3X3X3X3X3X3X3X3X3X3X3X3X3X3X3X3X3X3X3X3X3X3X3X3X3X3X3X3X3X3X3X3X3X3X3X3X3X3X3X",
"3X3X3X3X3X3X3X3X3X3X3X3X3X3X3X3X3X3X3X3X3X3X3X3X3X3X3X3X3X3X3X3X3X3X3X3X3X3X3X3X3X3X3X3X3X3X3X3X3X3X"
};
