/* XPM */
static char *result[] = {
/* columns rows colors chars-per-pixel */
"50 50 212 2 ",
"   c #0F182B",
".  c #0D152B",
"X  c #13172C",
"o  c #151B2D",
"O  c #191D2F",
"+  c #1B1E31",
"@  c #161F30",
"#  c #211E33",
"$  c #17222F",
"%  c #19202F",
"&  c #1C2331",
"*  c #1A2C32",
"=  c #1A2A35",
"-  c #1B3333",
";  c #1D3B35",
":  c #1F3A39",
">  c #232334",
",  c #242B34",
"<  c #2A2A36",
"1  c #2D243A",
"2  c #2E2C3A",
"3  c #2B2232",
"4  c #352736",
"5  c #3C2936",
"6  c #32263D",
"7  c #332D3C",
"8  c #382C3A",
"9  c #21333D",
"0  c #273B36",
"q  c #34323B",
"w  c #3A343E",
"e  c #39383E",
"r  c #432C39",
"t  c #472D3A",
"y  c #4F313C",
"u  c #45383C",
"i  c #53323D",
"p  c #59353F",
"a  c #1E4437",
"s  c #1E4937",
"d  c #1F4A38",
"f  c #264D3A",
"g  c #314539",
"h  c #245D3D",
"j  c #25553B",
"k  c #3D543D",
"l  c #27653F",
"z  c #3C2A42",
"x  c #382640",
"c  c #253A43",
"v  c #2A3A44",
"b  c #3E3942",
"n  c #3D3544",
"m  c #422D46",
"M  c #482F48",
"N  c #443E44",
"B  c #4C314B",
"V  c #453A46",
"C  c #52334E",
"Z  c #553343",
"A  c #543450",
"S  c #5D3955",
"D  c #5A3653",
"F  c #6A3B43",
"G  c #763E47",
"H  c #613A57",
"J  c #663C5A",
"K  c #6A3D5B",
"L  c #723F57",
"P  c #2C494B",
"I  c #325454",
"U  c #355C59",
"Y  c #355049",
"T  c #296E41",
"R  c #2B7544",
"E  c #3B7644",
"W  c #38605D",
"Q  c #3D6B64",
"!  c #3B6660",
"~  c #3F7567",
"^  c #4D4349",
"/  c #4A474A",
"(  c #52474B",
")  c #53494B",
"_  c #5A4E4E",
"`  c #5D4740",
"'  c #5C504F",
"]  c #5F5152",
"[  c #4D4F4C",
"{  c #654946",
"}  c #675449",
"|  c #72405A",
" . c #7D4359",
".. c #7D4456",
"X. c #635453",
"o. c #6A5C55",
"O. c #6C5A58",
"+. c #7D5953",
"@. c #507A4E",
"#. c #6D6155",
"$. c #756858",
"%. c #78665C",
"&. c #436C66",
"*. c #407067",
"=. c #417168",
"-. c #576A65",
";. c #7E6760",
":. c #83444A",
">. c #8C464A",
",. c #9C4B4E",
"<. c #844559",
"1. c #894658",
"2. c #8C4858",
"3. c #884A5B",
"4. c #924A57",
"5. c #9D4D55",
"6. c #954B58",
"7. c #8D5C58",
"8. c #975754",
"9. c #A14D4F",
"0. c #A44E54",
"q. c #AD5255",
"w. c #A75056",
"e. c #B55454",
"r. c #B95655",
"t. c #B55D5A",
"y. c #8E695D",
"u. c #BB645D",
"i. c #B37C55",
"p. c #A67651",
"a. c #836C62",
"s. c #8B7265",
"d. c #8B7A62",
"f. c #9D7366",
"g. c #9A7D68",
"h. c #BA6D63",
"j. c #AB7865",
"k. c #BD7163",
"l. c #B77C68",
"z. c #C37968",
"x. c #C06F63",
"c. c #2F8E48",
"v. c #2E8647",
"b. c #318948",
"n. c #339D4C",
"m. c #3A9D57",
"M. c #369054",
"N. c #36AC4F",
"B. c #36A24E",
"V. c #38AA52",
"C. c #37B350",
"Z. c #38B351",
"A. c #3E8362",
"S. c #518B4B",
"D. c #62894C",
"F. c #6B9751",
"G. c #49B954",
"H. c #58BC56",
"J. c #4AA850",
"K. c #78B959",
"L. c #65AE54",
"P. c #5BC258",
"I. c #7ACB5D",
"U. c #65C359",
"Y. c #BD8755",
"T. c #A9994E",
"R. c #938166",
"E. c #9B876A",
"W. c #8B816B",
"Q. c #A1896D",
"!. c #B58063",
"~. c #AE9875",
"^. c #BCA57D",
"/. c #C88A5B",
"(. c #D9945F",
"). c #DC9B5C",
"_. c #D5965B",
"`. c #D18D5D",
"'. c #DFA35A",
"]. c #E1A55A",
"[. c #E3AB56",
"{. c #E6B654",
"}. c #EBBC53",
"|. c #C4836D",
" X c #CB8C60",
".X c #D49663",
"XX c #89C85E",
"oX c #80D05E",
"OX c #8DD260",
"+X c #94D762",
"@X c #EFC74D",
"#X c #F5D649",
"$X c #EDC352",
"%X c #F3D251",
"&X c #FEEC43",
"*X c #FBE547",
"=X c #FEF05D",
"-X c #FDE767",
";X c #FFF379",
":X c #F4E576",
">X c #BFB18A",
",X c #DABD8A",
"<X c #D8C494",
"1X c #E6CE99",
"2X c #F6E78A",
"3X c #FFF385",
"4X c #FEF599",
"5X c #EDDCA6",
"6X c #F7ECAD",
"7X c #FBF5CA",
"8X c #FFFEF4",
"9X c None",
/* pixels */
"9X9X9X9Xf.f.9X9X9X9X9X9X9X9X9X9X9X9X9X9X9X9X9X9X9X9X9X9X9X9X9X9X9X9X9X9X9X9X9X9X9X9X9X9X9X9X9X9X9X9X",
"9X9X9Xj.!.9X9X9X9X9X9X9X9X9X9X9X9X9X9X9X9X9X9X9X9X9X9X9X9X9X9X9X9X9X9X9X9X9X9X9X9X9X9X9X9X9X9X9X9X9X",
"9X9Xj.`. X9X9X9X9X9X9X9X9X9X9X9X9X9X9X9X9X9X9X9X9X9X9X9X9X9X9X9X9X9X9X9X9X9X9X9X9X9X9X9X9X9X9X9X9X9X",
"9X9X!.(.(.9X9X9X9X9X9X9X9X9X9X9X9X9X9X9X9X9X9X9X9X9X9X9X9X9X9X9X9X9X9X9X9X9X9X9X9X9X9X9X9X9X9X9X9X9X",
"9Xf.l.(.(.9X9X9X9X9X9X(.(.(.(.9X9X9X9X9X9X9X9X9X9X9X9X9X9X9X9X9X9X9X9X9X9X9X9X9X9X9X9X9X9X9X9X9X9X9X",
"9Xf.!..X9X9X9X9X(.(.(.(.(.(.(.(.(.9X9X9X9X9X9X9X9X9X9X9X9X9X9X9X9X9X9X9X9X9X9X9X9X9X9X9X9X9X9X9X9X9X",
"9X9Xj.!.9X9X(.(.(.(.(.(.[.$X'.(.(.(.9X9X9X9X9X9X9X9X9X9X9X9X9X9X9X9X9X9X9X9X9X9X9X9X9X9X9X9X9X9X9X9X",
"9X9Xf.f.9X9X(.(.(.(.(.(.).#X*X$X(.(.(.9X9X9X9X9X9X9X9X9X9X9X9X9X9X9X9X9X9X9X9X9X9X9X9X9X9X9X9X9X9X9X",
"9X9X9Xf.9X(.9X9X9X9X9X(.(.).{.*X@X).(.9X9X9X9X9X9X9X9X9X9X9X9X9X9X9X9X9X9X9X9X9X9X9X9X9X9X9X9X9X9X9X",
"9X9X9X9X9X9X9X9X9X9X9X(.(.).'.@X#X).(.9X9X9X9X9X9X9X9X9X9X9X9X9X9X9X9X9X9X9X9X9X9X9X9X9X9X9X9X9X9X9X",
"9X9X9X9X9X9X9X9X9X9X9X9X(.].#X[.(.(.(.9X9X9X9X9Xo o 9X9X9X9X9X9X9X9X9X9X9X9X9X9X9X9X9X9X9X9X9X9X9X9X",
"9X9X9X9X9X9X9X9X9X9X9X9X.X[.&X#X(.(.(.9X9X9X9X9X& V # o 9X9X9X9X9X9X9X9X9X9X9X9X9X9X9X9X9X9X9X9X9X9X",
"9X9X9X9X9X9X9X9X9X9X9X/.(.{.&X&X{.(.i.9X9X9X9X9X3 j.8.r o o 9X9X9X9X9X9X9X9X9X9X9X9X9X9X9X9X9X9X9X9X",
"9X9X9X9X9X9X9X9X9X9Xo i.].#X&X&X}.i.< 9X9X9X9Xo w l.u.0.i o o o 9X9X9X9X9X9X9X9X9X9X9X9X9X9X9X9X9X9X",
"9X9X9X9X9X9X9X9X9Xo ` /.@X=X;X&X{.` o 9X9X9X9X% 7.z.t.k.h.Z & o o 9X9X9X9X9X9X9X9X9X9X9X9X9X9X9X9X9X",
"9X9X9X9X9X9X9X9Xo } `.[.&X6X4X#Xp.> 9X9X9X9X% +.z.x.u.|.h.L A + o X 9X9X9X9X9X9X9X9X9X9X9X9X9X9X9X9X",
"9X9X9X9X9X9X9Xo 7 Y.[.%X6X8X4X{.{   9X9X9XX > l.z.r.x.l.3.J x 1 y r @ o 9X9X9X9Xo o X 9X9X9X9X9X9X9X",
"9X9X9X9X9X9X9X3 i.(.%X;X8X7X-XY.< 0 l @.f o & y.t.r.t. .A z t ,.e.2.D z + o o * ; a g , o 9X9X9X9X9X",
"9X9X9X9X9X9Xo u .X$X3X3X3X-X).` k XX+X+XI.E a t e.e.2. .:.>.q.q.2.K H H > X X h N.G.K.D.> 9X9X9X9X9X",
"9X9X9X9X9X9XO g.1X2X7X2X:XT.N o k D.D.F.OXP.B.I { 0.4.q.r.w.2.| S m 3 # i Z 6 & T l , , & 9X9X9X9X9X",
"9X9X9X9X9X9XO R.,X1X5X6X1XW.o 9X9X9XX $ F.I.V.A.W y 0.q.6.| J K D t >.,.q.<.K m > * 9X9X9X9X9X9X9X9X",
"9X9X9X9X9X9Xo e ;.5X5X<X,X~.$ 9X9X9X9XX D.I.Z.m.=.P :.e.5.0.0.5.q.e.q.4.L K K K M o 9X9X9X9X9X9X9X9X",
"9X9X9X9X9X9XX $.<X<Xd.v ~.,X& 9X9X9X$ o k K.Z.m.=.Q 7.r.r.r.r.e.4.1.L K K K K K C @ 9X9X9X9X9X9X9X9X",
"9X9X9X9X9X9Xo $.~.#.> X.E.#.o 9X9X% O % * L.C.M.=.I Z e.q.w.4.<.K K H M M m m m 8 X @ 9X9X9X9X9X9X9X",
"9X9X9X9X9X9Xo & <   o n , . 9X9X9X& 7.7.3 T V.=.Q = r q.5.<.J S C z # o $ s s s d * o   9X9X9X9X9X9X",
"9X9X9X9X9X9X9Xo X 1 ^ ^ 2 X 9X9XX b |.z.F Y @.-.[ i 0.e.w.L z # @ = = h c.N.Z.C.Z.J.R * o 9X9X9X9X9X",
"9X9X9X9X9X9X9X9X@ ( %.a./ X 9X9X  V |.|.z.z.h.t.q.e.r.e...1 o o P Q m.Z.Z.Z.Z.C.G.I.OXS.* o 9X9X9X9X",
"9X9X9X9X9X9X9X9X@ ( ;.g.) o 9X9X. u |.x.k.x.x.h.t.e.e.5.4 c c I =.=.V.Z.Z.Z.N.N.N.H.OXOXS.o 9X9X9X9X",
"9X9X9X9X9X9X9X9X9X( %.g.) X 9X9X  7 j.z.t.r.e.e.r.r.r.G o - c I Q =.~ B.c.l - ; d n.P.OXXXf X 9X9X9X",
"9X9X9X9X9X9X9X9X9Xq O.s.) X 9X9X9Xo 8 8.t.r.r.e.e.r.r.G o X c I Q =.=.I & & = o o ; c.G.I.@.X 9X9X9X",
"9X9X9X9X9X9X9X9X9X+ w b < * & 9X9Xo 6 8 t G 5.q.e.e.q.L > o c Q =.=.=.U I Q ! 9 o 9X- l B.Z.h 9X9X9X",
"9X9X9X9X9X9X9X9XX k g o o v.R 9X9Xo M <.<.L 2.4.4.0.6.L S 1 c U =.=.=.=.=.Q =.P o 9Xo   ; n.v.o 9X9X",
"9X9X9X9X9X9X9Xo * K.XXF.0 f N.a 9Xo F q.>.,.r.e.r.e.r.q.1.H 6 & I ~ =.=.~ =.I = X 9X9X9Xo : h o 9X9X",
"9X9X9X9X9X9X9XX h P.+X+XD.- T $ 9Xo 8 5   i e.e.e.e.e.e.0.K J B 6 v U =.=.I > + @ 9X9X9X9Xo o o 9X9X",
"9X9X9X9X9X9X9XX h C.G.U.H.0 o o o o O 8 F 9.r.e.e.r.q.<.K K K K J A n Q &.^ S B + 9X9X9X9X9X9X9X9X9X",
"9X9X9X9X9X9X9Xo f B.Z.C.N.; o o X X r F ,.r.r.e.e.q...J K K K K K K J n S K K K # @ @ o 9X9X9X9X9X9X",
"9X9X9X9X9X9X9X9Xo R c.c.l % o o q w u e 3 5 5 5 5 < > 8 A A C C A A B 1 1 1 B z o $ T * o 9X9X9X9X9X",
"9X9X9X9X9X9X9X9X9Xo + o O O 9XX #.s.E.Q.O.d.d.o.a.R.d.^ ^ n < , < & > X.o.e ^ _ n f N.c.= 9X9X9X9X9X",
"9X9X9X9X9X9X9X9X9Xo o q ( , 9Xo & > > 7 _ $.$._ #.$.$.^ n _ a.' ;.( < a.s.( < ^ q T Z.N.- 9X9X9X9X9X",
"9X9X9X9X9X9X9X9X9Xo o ] s.2 X & B S D 8 1 6 1 6 6 1 1 6 6 2 1 > < & + n N & o o & R C.c.* 9X9X9X9X9X",
"9X9X9X9X9X9X9X9X9X9Xo < w & o y 0.0.w.6. . . .K K K K K K H C A # w O.N X N X.& $ : f $ o 9X9X9X9X9X",
"9X9X9X9X9X9X9X9X9X9X9X9X9X9Xo t i F 0.,.,.0.5.L K K K K K S S S > V %.X.& 2 _ _ ) + X 9X9X9X9X9X9X9X",
"9X9X9X9X9X9X9X9X9X9X9X9X9X9Xo X   o > > # > > 8 z m m m z + & + @ 7 %.a.( o & e O.] & 9X9X9X9X9X9X9X",
"9X9X9X9X9X9X9X9X9X9X9X9X9X9X9X9X9X9Xo o o o o o o o o o o o 9X9X9Xo > / _ + o X + 7 & 9X9X9X9X9X9X9X",
"9X9X9X9X9X9X9X9X9X9X9X9X9X9X9X9X9X9X& o o 9X9X9X9X9X9X9X9X9X9X9X9X9Xo o o o o + 9X9X9X9X9X9X9X9X9X9X",
"9X9X9X9X9X9X9X9X9X9X9X9X9X9X9X9X9Xo o o o 9X9X9X9X9X9X9X9X9X9X9X9X9X9X9X9X+ o o 9X9X9X9X9X9X9X9X9X9X",
"9X9X9X9X9X9X9X9X9X9X9X9X9X9X9X9X9Xo O o 9X9X9X9X9X9X9X9X9X9X9X9X9X9X9X9X9Xo o o 9X9X9X9X9X9X9X9X9X9X",
"9X9X9X9X9X9X9X9X9X9X9X9X9X9X9X9X9X9X9X9X9X9X9X9X9X9X9X9X9X9X9X9X9X9X9X9X9X9X9X9X9X9X9X9X9X9X9X9X9X9X",
"9X9X9X9X9X9X9X9X9X9X9X9X9X9X9X9X9X9X9X9X9X9X9X9X9X9X9X9X9X9X9X9X9X9X9X9X9X9X9X9X9X9X9X9X9X9X9X9X9X9X",
"9X9X9X9X9X9X9X9X9X9X9X9X9X9X9X9X9X9X9X9X9X9X9X9X9X9X9X9X9X9X9X9X9X9X9X9X9X9X9X9X9X9X9X9X9X9X9X9X9X9X"
};
