/* XPM */
static char *result[] = {
/* columns rows colors chars-per-pixel */
"50 50 5 1 ",
"  c #161C2E",
". c #506A69",
"X c #669D9D",
"o c #D0DEB5",
"O c #8CC3C4",
/* pixels */
".XX...............XXXOOOOOOOOOOOOOOOOOOOOOOOXXOOOO",
".....XXXXXXXOOX...XXXOOOOOOOOOOOOOOOOOOOOOOOOOOOOO",
"XXXXXOOOOOOOOOOOXXXOOXOOOOOOOOOOOOOOOOOOOOOOOOOOOO",
"XXXXXOOOOOOOOOOOOXXOOOXOOOOOOOOOOOOOOOOOOOOOOOOOOO",
"XXXOOOOOOOOOOOOOOXXOOOXXOOOOOOOOOOOOOOOOOOOOOOOOOO",
"OXXOOOOOOOOOOOOOOXXOOOXXOOOOOooOOOOOOOOOOOOOOOOOOO",
"OXXXXOOOOOOOOOOOXXXXXXXOOOOOooooOOOOOOOOOOOOOOOOOO",
"OXXXXXOOOOXXXXXXXXXXXXXOOOooooooooOOOOOOOOOOOOOOOO",
"OXXXXXXXXXXXXXXXXXXXXXXXOOoooooooooOOOOOOOOOOOOOOO",
"XXXXXXXXOOOOXXOOOOOXXXXXOXOoooooooooooOOOOOOOOOOOO",
"XXXXXXOOOOOOOOOOOOOOOOOOOXXOOooooooooooooooooooOOO",
"XXXXOOOOOOOOOOOOOOOOOOOOOXXXOOOooooooooooooooooOOO",
"XXOOOOOOOOOOOOOOOOOOOOOOOOX..XXXOOOOOOOOOXXXXXXXOO",
"XOOOOOOOOOOOOOOOOOOOOOOOOOO...XXXXXXXXXXXXXXX..XXX",
"OOOOOOOOOOOOOOOOOOOOOOOOOOOO...XXX......XXXX...XXX",
"OOOOOOOOOOOOOOOOOOOOOOOOOOOO...X.........XXXXXXXXX",
"OOOOOOOOOOOOOOOOOOOOOOOOOOOOO........XXXOOOOOOOOOO",
"OOOOOOOOOOOOOOOOOOOOOOOOOOOOO.....XOOOOOOOOOOOOOOO",
"OOOOOOOOOOOOOOOOOOOOOOOOOOOOO....OOOOOOOOOOOOOOOOO",
"OOOOOOOOOOOOOOOOOOOOOOOOOOOOO...OOOOOOOOOOOOOOOOOO",
"OOOOOOOOOOOOOOOOOOOOOOOOOOOO...OOOOOOOOOOOOOOOOOOO",
"XOOOOOOOOOOOOOOOOOOOOOOOOOO....OOOOOOOOOOOOOOOOOOO",
"XXOOOOOOOOOOOOOOOOOOOOOOOOooo..OOOOOOOOOOOOOOOOOOO",
"XXOOOOOOOOOOOOOOOOOOOOOOoooooo.OOOOOOOOOOOOOOOOOOO",
"XXXOOOOOOOOOOOOOOOOOOooooooooo.OOOOOOOOOOOOOOOOOOO",
"XXXXOOOOOOOOOOOOOOOooooooooooo.OOOOOOOOOOOOOOOOOOO",
"XX..XOOOOOOOOOOOooOOOOOooooooo.OOOOOOOOOOOOOOOOOOO",
"OX...XXOOOOOOoooooOOOOOoooooo..OOOoooOOoooooooOOOO",
"oO...XXOOOOOOOooooOOoooooooo....OOooooooooooOXXXOO",
"ooO...XXOOOOOOOOooooooooooo......XOoooooooOXXXXXOO",
"ooo...oooooooooooooooooooXX....     XXXXOXXXXXOOOO",
"ooo...oooooooooooooooooXXXX....    XXX..XXXXOOOOOO",
"ooo....ooooooooXXXXXXXXXXXX....  ......XOOOOOOOOOO",
"ooo......OOOOOOOOOOXXXXXXXXX...  ....XXOOOOOOOOOOO",
"o     .OOOOOOOOOOOOXXXXXXXXX... ...XXXXXXXXXXOOOOo",
"      .OOOOOOOOOOXXXXXXXXXXXX.. ..XXXXXXXXXXXXXXXX",
"OOX.  .OOOOOOOXXXXXXXXXXXXXXX.. ...XXXXXXXXXXXXXXX",
"OO..  .XXXXXXXXXXXXXXXXXXXXXX.. ...XXXXXXXXXXXXXXX",
"..... XXXXXXXXXXXXXXXXXXXXXXXX. ....XXXXXXXXXXXXXX",
"..... XXXXXXXXXXXXXXXXXXXXXXXX. XX...XXXXXXXXXXXXX",
"X.....XXXXXXXXXXXXXXXXXXXXXXXX..XXX.X.XXXXXXXXXXXX",
"XX....XXXXXXXXXXXXXXXXXXXXXXXX..XXX.XXXXXXXXXXXXXX",
"XX....XXXXXXXXXXXXXXXXXXXXXXX...XXX.XXXXXXXXXXXXXX",
"XX......XXXXXXXXXXXXXXXXXXXXX...XXXXXXXXXXXXXXXXXX",
"XXX......XXXXXXXXXXXXXXXXXXXX....X..XXXXXXXXXXXXXX",
"XXX.......XXXXXXXXXXXXXXXXXXX....X..XXXXXXXXXXXXXX",
"XX...........XXXXXXXXXXXXXXXX... ...XXXXXXXXXXXXXX",
"XX......OOO......XXXXXXXXXXXXX.. ...XXXXXXXXXXXXXX",
"XX.....XOOOOOOOOXXXXXXXXXXXXXX..  ..XXXXXXXXXXXXXX",
"XX...  XOOOOOOOOXXXXXXXXXXXXXX..  ...XXXXXXXXXXXXX"
};
