/* XPM */
static char *result[] = {
/* columns rows colors chars-per-pixel */
"50 50 4 1 ",
"  c #506A69",
". c #669D9D",
"X c #D0DEB5",
"o c #8CC3C4",
/* pixels */
"oooooooo....oooooooooooooooooooooooooooooooooooooo",
"oooooooo....oooooooooooooooooooooooooooooooooooooo",
"ooooooooo....ooooooooooooooooooooooooooooooooooooo",
"ooooooooooo...oooooooooooooooooooooooooooooooooooo",
"ooooooooooo...oooooooooooooooooooooooooooooooooooo",
"oooooooooooo..o.oooooooooooooooooooooooooooooooooo",
"ooooooooooooo.o..ooooooooooooooooooooooooooooooooo",
"oooooooooooo......ooooooooooooooooooooooooooXXXXXX",
"oooooooooo.......oooo..ooooooooooooooooooXXXXXXXXX",
"ooooo.........oo.oooo...oooooooooooooooooooXXXXX..",
"oooo.........ooo.ooooo.....oooooooooooooooooo.....",
"ooo..........ooooooooo.......ooooooooo............",
"ooooooooo....ooooooooo..... ................... ..",
"oooooooooo...ooooooooooo...   ...............    .",
"oooooooooooo..oooooooooo...      ..    ...        ",
"oooooooooooooooooooooo......         ........o.   ",
"oooooooooooooooooooo..............oooooooooooooo..",
"oooooooooooooooooooooooooooo...ooooooooooooooooo..",
"oooooooooooooooooooooooooooooooooooooooooooooooooo",
"oooooooooooooooooooooooooooooooooooooooooooooooooo",
"oooooooooooooooooooooooooooooooooooooooooooooooooo",
"XXoooooooooooooooooooooooooooooooooooooooooooooooo",
"XXXooooooooooooooooooooooooooooooooooooooooooooooo",
"ooXXXXoooooooooooooooooooooooooooooooooooooooooooo",
"oooXXXXXXXXXXooooooooooooooooooooooooooooooooooooo",
"XooXXXXXXXXXXXXooooooooooooooooooooooooooooooooooo",
"ooooooooo.......oooooooooooooooooooooooooooooooooo",
"........................ooooo..ooooooooooooooooooo",
"..    .............ooooooooo..oooooooooooooooooooo",
"       ...........oooo........oooooooooooooooooooo",
"     ...oooooooooooooo........oooooooooooooooooooo",
"...oooooooooooooooooooooooo....ooooooooooooooooooo",
"oooooooooooooooooooooooooo......oooooooooooooooooo",
"oooooooooooooooooooooooooo......ooooooooooooooXXXX",
"oooooooooooooooooooooooooooo....oooooooooooooooooX",
"ooooooooooooooooooooooooooooo....ooooooooooooooooo",
"oooooooooooooooooooooooooooooo....oooooooooooooooo",
"oooooooooooooooooooooooooooooo.....ooooooooooooXXX",
"oooooooooooooo.ooooooooooooooo.......oooooooXXXXXX",
"oooooooooooooo.oooooooooooooo.........ooooXXXXXooo",
"ooooooooooooo..oooooooooooo......ooo.....ooooooooo",
"ooooooooooooo...ooooooooo.......ooooo........   oo",
".oooooooooo......oooooooooooo..oooooooo......     ",
"..ooooooo.........oooooooooooooooooo..........    ",
"..oooooo.............ooooooooooooooooo..ooooooo.. ",
"ooooooo........oo...  ..o...oooooooooooooooooooo..",
"ooooooo.....ooooo..    ....oooooooooooooooooooooo.",
"XXXXXXooooooooooo.     ....ooooooooooooooooooooooo",
"XXXXooooooooooooooo    ...oooooooooooooooooooooooo",
"ooooooooooooooooooo  ..ooooo...ooooooooooooooooooo"
};
