/* XPM */
static char *_be67a70ee9249719195be32b6daecd6N3Js3846To4sk372[] = {
/* columns rows colors chars-per-pixel */
"102 60 194 2 ",
"   c None",
".  c #17010D",
"X  c #1A000E",
"o  c #1C0312",
"O  c #1F0B16",
"+  c #24030C",
"@  c #2C050A",
"#  c #280206",
"$  c #3A0306",
"%  c #350306",
"&  c #2D1C0D",
"*  c #230514",
"=  c #230816",
"-  c #2B0A14",
";  c #23041B",
":  c #2C051B",
">  c #25091A",
",  c #2A0A1C",
"<  c #360F1C",
"1  c #3D0D1C",
"2  c #350913",
"3  c #3F131A",
"4  c #1F072E",
"5  c #2B0827",
"6  c #360E24",
"7  c #3D0D25",
"8  c #3D0E2B",
"9  c #330926",
"0  c #331223",
"q  c #3B1126",
"w  c #35122B",
"e  c #3D112B",
"r  c #22063E",
"t  c #3C0B34",
"y  c #3C0D3B",
"u  c #320A3A",
"i  c #3C1036",
"p  c #420406",
"a  c #41040C",
"s  c #480508",
"d  c #440C1D",
"f  c #430A17",
"g  c #60041C",
"h  c #5C251F",
"j  c #450D22",
"k  c #420C2C",
"l  c #42132D",
"z  c #420C32",
"x  c #4B0A31",
"c  c #431234",
"v  c #530B24",
"b  c #532F2B",
"n  c #53302A",
"m  c #572A6A",
"M  c #63387B",
"N  c #63515C",
"B  c #624B58",
"V  c #64407C",
"C  c #901108",
"Z  c #9B101A",
"A  c #870F17",
"S  c #AC0A02",
"D  c #A20901",
"F  c #B50504",
"G  c #BB0405",
"H  c #B50A04",
"J  c #B5050B",
"K  c #BA050A",
"L  c #B50809",
"P  c #A90910",
"I  c #981220",
"U  c #EF1F1D",
"Y  c #DD3A03",
"T  c #E72C07",
"R  c #E72D09",
"E  c #E33105",
"W  c #E92816",
"Q  c #F4231F",
"!  c #FA211F",
"~  c #F12916",
"^  c #E43710",
"/  c #FA1F26",
"(  c #E81D27",
")  c #DB3127",
"_  c #EC2324",
"`  c #EC2429",
"'  c #EB292A",
"]  c #E52626",
"[  c #F42224",
"{  c #FA2225",
"}  c #F22328",
"|  c #F9252B",
" . c #FF7E02",
".. c #FF7C0A",
"X. c #F77906",
"o. c #FD7B13",
"O. c #F67914",
"+. c #FF6E27",
"@. c #FF7627",
"#. c #BB7D6A",
"$. c #C47B4E",
"%. c #C47B53",
"&. c #CC7A54",
"*. c #E97F5B",
"=. c #87BC04",
"-. c #9EAA3D",
";. c #FC8102",
":. c #FD8109",
">. c #F08519",
",. c #DE8337",
"<. c #EE8325",
"1. c #F08126",
"2. c #BE814F",
"3. c #D3824E",
"4. c #C98456",
"5. c #D58354",
"6. c #DB8456",
"7. c #D5845B",
"8. c #DC845A",
"9. c #E18254",
"0. c #E0855B",
"q. c #D58567",
"w. c #D19064",
"e. c #CF8471",
"r. c #E48E6D",
"t. c #E19869",
"y. c #F5916A",
"u. c #FB8C72",
"i. c #F58E70",
"p. c #E59877",
"a. c #F88F65",
"s. c #5D3891",
"d. c #5B3A8B",
"f. c #6D459D",
"g. c #6F499E",
"h. c #79459E",
"j. c #71449A",
"k. c #5D4AB4",
"l. c #6E45A6",
"z. c #6F45AB",
"x. c #674AAB",
"c. c #7345A3",
"v. c #7243AB",
"b. c #7148A5",
"n. c #6649B8",
"m. c #575DD7",
"M. c #655BC7",
"N. c #4B6AED",
"B. c #5666E3",
"V. c #556BE6",
"C. c #5668E7",
"Z. c #466DF5",
"A. c #496CF4",
"S. c #466CFA",
"D. c #496BF9",
"F. c #506AF0",
"G. c #E59C84",
"H. c #F1BC8D",
"J. c #FDBF9F",
"K. c #E4BD8A",
"L. c #EECC97",
"P. c #F4CE9C",
"I. c #FBCD9B",
"U. c #F5C694",
"Y. c #EFD599",
"T. c #F4D29D",
"R. c #F9D29F",
"E. c #F7CCA6",
"W. c #F4D4A2",
"Q. c #FAD2A1",
"!. c #F4D2AE",
"~. c #F4CEB2",
"^. c #ECCCA4",
"/. c #C9BAC4",
"(. c #CBC0C9",
"). c #D3CECD",
"_. c #DBCEC6",
"`. c #CDD4CD",
"'. c #D4D1CE",
"]. c #D4CED3",
"[. c #D9CDD2",
"{. c #CED3D1",
"}. c #D3D1D1",
"|. c #DAD0D1",
" X c #CACFED",
".X c #CBD1E8",
"XX c #ECE7EA",
"oX c #E8E7E9",
"OX c #F2EBED",
"+X c #F6F4EF",
"@X c #F4F4F4",
"#X c #FAF6F8",
"$X c #FDFCFC",
"%X c #FEFDF4",
/* pixels */
"                                                                                                                                                                                                            ",
"                                                                                                                                                                                                            ",
"                                                                                                                                                                                                            ",
"                                                                                                                                                                                                            ",
"                                                                                                                                                                                                            ",
"                                                                                                                                                                                                            ",
"                                                                                          > e l q           e j ;                                                                                           ",
"                                                                                          : p [ } 8 e 0     8 >.>.0                                                                                         ",
"                                                                                          ; a Q R p p $     8 1.O.p                                                                                         ",
"                                                                                          : a ~ .. . .<.7 x k 1.;. .z                                                                                       ",
"                                                                                  . t k 8 8 a | } ;.X. . .} / ..;.;.8                                                                                       ",
"                                                                                  . k J _ ..o.G [  . . .;. .J o.;. .;.q c 7 7                                                                               ",
"                                                                                  . 8 F [ ~ E @.G E T T R H K ^ Y ;...8 3.,.7                                                                               ",
"                                                                                  o 8 Z } | ~ +.G ' | [ } S S ' W  .;.s O.:.k                                                                               ",
"                                                                                  O 6 z K } _ [ } J ] _ Q ....S S ..;.} o.X.q                                                                               ",
"                                                                                      8 H F F [ [ L F G [ [  . .o.S ;.! / ] 8                                                                               ",
"                                                                                      k G L L G [ L J F F } Q Q W :.[ { $ j                                                                                 ",
"                                                                                O = * I } _ ] F F u.i.u.L F F ( W T ! J.@ 8                                                                                 ",
"                                                                                8 v g F _ { } H F 6.4.&.C D F ` ] { ) W.+ 8                                                                                 ",
"                                                                                e A H F K ` ] F J 7.Q.W.T.6.K J F U W.Q.@ 8                                                                                 ",
"                                                                                e A F L K F K L J ^.P.W.W.R.W.R.R.Q.Y.6.@ q                                                                                 ",
"                                                                                  + 7 F J i.8.*.K !.W.I.6.6.W.Q.U.R.9.8 k t                                                                                 ",
"                                                                                      g G y.4.I.u.W.4.%.% $ 2.%.$.%.$ -.3 7                                                                                 ",
"                                                                                      7 F a.&.Q.6.T.7.q.7 8 6.6.6.8.z =.& w                                                                                 ",
"                                                                                        7 P D 8.8.R.T.W.$X=.6 ~.T.T.T.k                                                                                     ",
"                                                                                          : k d 0.W.T.W.Q.R.W.&.6.8.T.e                                                                                     ",
"                                                                                        q OX[.[.j 8.I.W.K.R.R.P.I.8.q                                                                                       ",
"                                                                                        , oX}.|.- p.U.I.Q.J.E.I.I.p.,                                                                                       ",
"                                                                                      k }.'.].@X}.0 q.4.W.K J a.t.8 '.e                                                                                     ",
"                                                                                  * k ).).$X$X$X#X'.q k k k k e > `._.8                                                                                     ",
"                                                                                e #.7.8.[.{.`.).'.#X$X$X$X#X#X'.'.).6.z                                                                                     ",
"                                                                              6 t.H.I.7., oXXX, $X$X@X$X$X#X}.o @ 5.6.r.# 5                                                                                 ",
"                                                                              % $.H.W.7.k $X$Xo $X$X$X$X$X#X$X: 2 6.8.$.# #                                                                                 ",
"                                                                            k 0.R.R.T.7.8 8 * }.#X#X$X$X$X$Xe k $ 6.9.W.W.~.8 z                                                                             ",
"                                                                            8 R.Q.w.6.8 8 8 * }.#XOX$X#X$X}.e 8 k 8 8.P.L.W.W.T.< o                                                                         ",
"                                                                        . 1 8.R.T.w.8.8   : * '.'.'.'.'.}.}.8       8 7.% 1 W.0.d .                                                                         ",
"                                                                        . < Q.L.T.n 2     : u d.'.'.'.'.].s.j.; o     - G.r.- 7.f o                                                                         ",
"                                                                        . < W.P.!.b 7     5 u x. X X X X Xn.n.r 4     w G.e.z q.2 o                                                                         ",
"                                                                        . < I.W.q e e   k l.k.D.S.S.A.D.A.S.A.A.C.k     * k k 8                                                                             ",
"                                                                        . 1 8.W.5.h e   k V.D.Z.S.x.i t v.A.Z.S.D.Z.k                                                                                       ",
"                                                                            j e d       k V.S.A.Z.t k e t y n.N.S.S.B.9                                                                                     ",
"                                                                                        m V.Z.A.m.e         m M.m.S.A.8                                                                                     ",
"                                                                                      t v.B.C.B.j.q         y v.n.N.F.k                                                                                     ",
"                                                                                  . e z.l.z.z.f.k         8 v.z.z.z.z.8                                                                                     ",
"                                                                                  . 8 z.l.z.z.c.k         e v.z.z.z.z.e                                                                                     ",
"                                                                                w V g.z.z.z.c.y         6 f.v.z.z.z.y k 9 w                                                                                 ",
"                                                                                e M z.z.z.z.h.8         8 z.z.l.l.M N N B N                                                                                 ",
"                                                                                q M l.l.z.z.c.e         8 b.l.f.j.8 '.$X}.[.8                                                                               ",
"                                                                              k [.+X%Xv.l.z.h.q           c '.'.}.oX$X$X$X$X8                                                                               ",
"                                                                              k [.+X$X#X$X> o             8 ].'.}.].'.'.'.}.e                                                                               ",
"                                                                              k [.OX$X$X)., =               0 6 6 6 6 6 0 0                                                                                 ",
"                                                                              k /.XX@X@X/.9 =                 . . X . . .                                                                                   ",
"                                                                              8 z (.'.}.k k =                                                                                                               ",
"                                                                                w c k 8 c                                                                                                                   ",
"                                                                                                                                                                                                            ",
"                                                                                                                                                                                                            ",
"                                                                                                                                                                                                            ",
"                                                                                                                                                                                                            ",
"                                                                                                                                                                                                            ",
"                                                                                                                                                                                                            "
};
