/* XPM */
static char *_d511cfb1c0e4203960412083b19be84nns8QHoDz1GUi64T[] = {
/* columns rows colors chars-per-pixel */
"50 34 117 2 ",
"   c None",
".  c #9F7309",
"X  c #886815",
"o  c #9D7613",
"O  c #9C7C1B",
"+  c #AB7602",
"@  c #A57F00",
"#  c #AC7C01",
"$  c #A1730C",
"%  c #A57D0B",
"&  c #AA7B08",
"*  c #B07B00",
"=  c #B57F08",
"-  c #A17011",
";  c #A27D15",
":  c #A47718",
">  c #A17C19",
",  c #8C6B27",
"<  c #936F21",
"1  c #B48007",
"2  c #BB8006",
"3  c #EFB40D",
"4  c #F6B702",
"5  c #F9B701",
"6  c #F6B801",
"7  c #F8B800",
"8  c #F5B60C",
"9  c #EBB319",
"0  c #F3B411",
"q  c #F3BB13",
"w  c #F2BE2D",
"e  c #E2BC54",
"r  c #FAD75E",
"t  c #FCD663",
"y  c #FFDA66",
"u  c #F2D76F",
"i  c #FFD76D",
"p  c #FFDA6B",
"a  c #F6D674",
"s  c #FAD777",
"d  c #F6DB75",
"f  c #FBD976",
"g  c #FDD779",
"h  c #FED67B",
"j  c #FBD77E",
"k  c #F9D679",
"l  c #F4DA79",
"z  c #F7DB78",
"x  c #F6DA79",
"c  c #F7DB7A",
"v  c #F3D87C",
"b  c #F7D87D",
"n  c #F4D97F",
"m  c #F8D878",
"M  c #F9D878",
"N  c #FAD878",
"B  c #FAD978",
"V  c #FBD978",
"C  c #FAD979",
"Z  c #F8DA78",
"A  c #F9DA78",
"S  c #FBDB78",
"D  c #FBDA79",
"F  c #F9D87A",
"G  c #FBD87A",
"H  c #FAD97A",
"J  c #FAD87B",
"K  c #FAD97B",
"L  c #FBD97B",
"P  c #F9DA7B",
"I  c #F8DB7B",
"U  c #FBDA7B",
"Y  c #FCD87A",
"T  c #FCD97B",
"R  c #F8DC78",
"E  c #F9D97C",
"W  c #FAD97C",
"Q  c #FBD97C",
"!  c #FBDA7D",
"~  c #F9D87E",
"^  c #FAD87E",
"/  c #FCD97C",
"(  c #FCD87D",
")  c #FCDB7C",
"_  c #F8E17D",
"`  c #EACE86",
"'  c #EDD883",
"]  c #F0DA85",
"[  c #F9DB81",
"{  c #FDDA80",
"}  c #FEDC81",
"|  c #FFFFE7",
" . c #FFF9EA",
".. c #FEFEE9",
"X. c #FCFFED",
"o. c #FFFFEC",
"O. c #FFFEED",
"+. c #FFFCF0",
"@. c #FFFEF3",
"#. c #FFFFF3",
"$. c #FBFFF6",
"%. c #FFFDF4",
"&. c #FCFDF7",
"*. c #FFFDF7",
"=. c #FFFFF8",
"-. c #FFFFFB",
";. c #FAFFFF",
":. c #FFFDFD",
">. c #FEFFFD",
",. c #FFFDFE",
"<. c #FDFEFF",
"1. c #FDFFFF",
"2. c #FFFEFE",
"3. c #FFFFFE",
"4. c #FFFEFF",
"5. c #FEFFFF",
"6. c white",
/* pixels */
"                                                                                                    ",
"                                                                                                    ",
"                                                                                                    ",
"                                                                                                    ",
"              00000000                    O # # # # # # # #                                         ",
"              00000000                # # f s M A A A f f # # @                                     ",
"              66666666              * E A 3 4 4 4 4 4 5 q A A # #                                   ",
"                                  # A E 4 5 6 # # # # 6 7 6 E A # # -                               ",
"                              , < e c w 7 2 = e e e e 1 2 6 w f e & + X                             ",
"                              $ & f h 5 6 # @ M A A d % # 4 5 f _ & # #                             ",
"                              $ & d 6 5 # f j 5 Y a 7 d f # 5 7 d & # #                             ",
"                            # X.X.M 5 # E 0 6 5 5 / k 5 5 7 # 5 d f f # #                           ",
"                            # #.&.5.6 # A 0 7 7 7 4 d M y 6 # 5 d f f # #                           ",
"                            # #.5.5.6 # f A f 6 6 7 5 f E A # 5 d / f # #                           ",
"                            # #.5.5.6 # ` [ n 9 7 7 5 r t A # 5 d a f # #                           ",
"                            # #.5.5.6 # 5.' { d 5 7 7 6 8 / # 5 d f f # #                           ",
"                            # #.5.5.6 # 5.5.5.d c 7 7 7 7 6 # 5 R f f # #                           ",
"                            # #.5.5.6 # 5.5.5.5.A A 5 4 7 6 # 5 d A f # #                           ",
"                            # A v 5.6 # 5.5.5.5.$.A c 7 7 6 # 5 d A f # #                           ",
"                            # h } ] 6 # 5.5.5.5.5.&.s f p 6 # 5 d A f # #                           ",
"                            # h A M 6 # 5.5.5.5.5.5.M p i 8 # 5 d A f # #                           ",
"                            # h A Y 6 # 5.5.5.5.5.5.;.f u A # 5 d a f # #                           ",
"                            # h A M 6 # 5.5.5.5.5.5.-.5.#.A # 5 d A f # #                           ",
"                              $ & A 4 7 # X.5.5.5.5.5.5.| # 5 5 d & # *                             ",
"                              . & M c 5 4 + + 5.5.5.-.@ > 5.5.n M & # #                             ",
"                                  % d i 5 3 4 > ; ; O  ...5.-.#.& & $                               ",
"                                  & f Y 4 5 5 # # % & 5.-.5.5.&.* & o                               ",
"                                    # E f 3 5 5 5 5.5.5.5.5.5.& #                                   ",
"                                      # # f f f f a 5.5.| # # #                                     ",
"                                          : # # # # # # # #                                         ",
"                                                                                                    ",
"                                                                                                    ",
"                                                                                                    ",
"                                                                                                    "
};
