/* XPM */
static char *d0a81bb40f8244eec3948d9d5d555ad4pX7Aku8mF8Lo7gwj[] = {
/* columns rows colors chars-per-pixel */
"53 50 184 2 ",
"   c None",
".  c #241605",
"X  c #2B1704",
"o  c #2C1906",
"O  c #23170C",
"+  c #2A1609",
"@  c #26190C",
"#  c #2B1A0A",
"$  c #321601",
"%  c #321A04",
"&  c #3B1B02",
"*  c #321C0A",
"=  c #251C13",
"-  c #2A1E13",
";  c #221E19",
":  c #3D2105",
">  c #32210F",
",  c #3B230C",
"<  c #2B2115",
"1  c #222019",
"2  c #2D241B",
"3  c #342213",
"4  c #3B2513",
"5  c #3E2915",
"6  c #32251A",
"7  c #34281C",
"8  c #392A18",
"9  c #2E2A27",
"0  c #2F2E2A",
"q  c #342C24",
"w  c #3A2D23",
"e  c #332E2A",
"r  c #373027",
"t  c #3A3027",
"y  c #35312C",
"u  c #3B342C",
"i  c #373531",
"p  c #3A3632",
"a  c #3D3934",
"s  c #3F3C39",
"d  c #461F00",
"f  c #452503",
"g  c #4C2501",
"h  c #462807",
"j  c #4E2902",
"k  c #442609",
"l  c #45290C",
"z  c #4B2B0A",
"x  c #512601",
"c  c #532C03",
"v  c #582E04",
"b  c #532D09",
"n  c #582E09",
"m  c #573006",
"M  c #5A3206",
"N  c #56320A",
"B  c #5B330A",
"V  c #5D380E",
"C  c #422711",
"Z  c #442A10",
"A  c #4C2D13",
"S  c #4E3116",
"D  c #553311",
"F  c #5A3612",
"G  c #5D3A13",
"H  c #523718",
"J  c #5C3B19",
"K  c #603207",
"L  c #633509",
"P  c #63380E",
"I  c #6D3E0F",
"U  c #683710",
"Y  c #643C13",
"T  c #6A3E13",
"R  c #623E1A",
"E  c #4E3921",
"W  c #4E3C2E",
"Q  c #523B25",
"!  c #433D35",
"~  c #4A3F34",
"^  c #443F39",
"/  c #654116",
"(  c #6D4316",
")  c #64421A",
"_  c #6E4419",
"`  c #6A491D",
"'  c #724315",
"]  c #7A4813",
"[  c #714519",
"{  c #78461B",
"}  c #754A1E",
"|  c #7C4B1B",
" . c #464036",
".. c #4A4036",
"X. c #46413B",
"o. c #49433C",
"O. c #53493F",
"+. c #5E4C3C",
"@. c #674725",
"#. c #684724",
"$. c #6C4924",
"%. c #644628",
"&. c #7E5122",
"*. c #664F37",
"=. c #785B3F",
"-. c #464541",
";. c #4A4641",
":. c #4E4A44",
">. c #4E4C49",
",. c #524C45",
"<. c #594F45",
"1. c #524E49",
"2. c #575146",
"3. c #595247",
"4. c #56524D",
"5. c #55514C",
"6. c #5A554F",
"7. c #59544D",
"8. c #5A5651",
"9. c #5B5651",
"0. c #5E5953",
"q. c #5E5A55",
"w. c #5F5C57",
"e. c #5E5A53",
"r. c #5F5E59",
"t. c #6F5E4E",
"y. c #625D57",
"u. c #625C54",
"i. c #6C5E53",
"p. c #625E59",
"a. c #645F59",
"s. c #635E59",
"d. c #656052",
"f. c #6B6157",
"g. c #65605A",
"h. c #66615A",
"j. c #67625C",
"k. c #66615D",
"l. c #66615B",
"z. c #696259",
"x. c #68635D",
"c. c #6A635D",
"v. c #6A655F",
"b. c #6A635C",
"n. c #70665A",
"m. c #796C5F",
"M. c #6B6661",
"N. c #6E6A62",
"B. c #6D6861",
"V. c #726C65",
"C. c #746F69",
"Z. c #7A6F68",
"A. c #7A746D",
"S. c #80531D",
"D. c #93581F",
"F. c #835422",
"G. c #8B5622",
"H. c #8F5B24",
"J. c #855A2C",
"K. c #8D5A28",
"L. c #895C31",
"P. c #986229",
"I. c #966531",
"U. c #996633",
"Y. c #956835",
"T. c #827D76",
"R. c #847F78",
"E. c #887F7B",
"W. c #87817A",
"Q. c #8A847C",
"!. c #8C887E",
"~. c #918577",
"^. c #90867A",
"/. c #93897E",
"(. c #998C7F",
"). c #8D8882",
"_. c #928B85",
"`. c #9A958F",
"'. c #9B9690",
"]. c #B0A69D",
"[. c #B5ADA4",
"{. c #B9B2AC",
"}. c #C5BDB6",
"|. c #C8BFB8",
/* pixels */
"                                          5.:.1.8.r.; 1.X.M.k.N.x.                                        ",
"                                      1 ,.;.1.1.:.8.< :.>.^ O g.g.x.M.s.                                  ",
"                                  s.z.g.2 :.>.;.q.w.e >.:.X.;.7 t ,.:.q     1.                            ",
"                              X.0.w.8.k.! ,.1.X.o.4.a 1.:.;.1.;.- ,.= - 4.1.k.8.q.                        ",
"                            - < t x.v.g...2 y >.a X.y e y 4.>.e 9 e e x.g.g.y.k.1.s.                      ",
"                        u s.8.k.g.2 ^ ;.q * o % o o % X , X 7 # - 0 q w.6.k.a.;.g.x.                      ",
"                      ;.z.y.6.0.>.s.e e 6 * o o + X # o + + + + 4 o * X.N.C.8.g.a.;.q X.                  ",
"                    e - z.g.,.x.5.g.4 # o X + Z B M g g c g L j $ @ o , > X.^ ,.X.;.q p                   ",
"                  >.X.a q A.k.v.g.^ * o X g g c c V j g c g ' g g B & + * 5 o X.;.y q.3.!                 ",
"                  y ^ X.e e ;.X.o.# # h g g g j c V b g c j U.g g m M h # o * o < 1.:.:.- 1.              ",
"                  q y y = :.0 # o # c M c j g M c V V g c c { j g B M c % @ + * 5 :.>.1.e e a             ",
"                R.k.M.3.- y 6 C + l g M j c g c c M M j c g H.j g B c c l j # o + :.;.;.y y u             ",
"              k.g.6.7.,.q % 4 # z Y c M c c x v c M M v v g L.g g c v m f c c # X o i X.e e X.            ",
"              a.x.:.0.:.X., # : c _ g g c v g c v M M c c g g g g g M v h g c D o o X u 2 x.g.i           ",
"              a !.x.k.:.e o # g c _ c g c c g c c V M c m g & c g g M c h c M M # * , @ 7.q.q.X.          ",
"              q @ u ;.q e o N g c [ g g j c g c v B M g v g & c x g M v f j M M B o o 8 u.g.V.!           ",
"          g.v.0.^ 3.e @ % @ M g c } c j j c g c c M M g v g f c c g M c g j M M g o , 8 k.o.X.6 z.        ",
"          1.>.g.! ,.e 7 o k c x c B g j g c g c v B M g m g & c c g M v h g M M f c # o 5.o.o.y.k.        ",
"          v.k.;.2 ;.y + # M M g c V B c g b g c v B M B c g $ c m j M v g c M M g c o , k.k.^ e.o.        ",
"          ;.^ w @ e y X + M M g c F B g g b c c v B M B m c h c m B v c f v M M g v % o X.,.y ~ o.        ",
"          4.1.e w e * # % M M g c Y M c g m c c v c M M M c f M M B M v g v B M g c h X o ;.4.b.y         ",
"    e a s :.;.2 5.g.> ~ g g f g x x K M T T T U I T ' ' S.F.Y.U.U.I.U.U.U.K.I.I.I.&.J.+ % p.y @ x.        ",
"a _.f.6.>.5.p a.u.g.o ~ # c c c c c c c v c c c v c c c c c g g c c c c c c c c c c c # X 2 z.k.X.  4.    ",
"x.!     -.1.= z.5.6.@ ..@ - # O.@ , c m M B c v v v v v g g g c c m m c B m b v m m v # X 2 s.s.1.f.b.O.X.",
"q.^ ^ {.  a q 6.6.y.2 ~ @ z D l k B B B B m B M M M M M M g g c c v v m m m M x v M M # $ 2 X.^ o.  s o.k.",
"  }.X.z.u.O - - ,.X.e ~ l V X F.P.D.G.H.] ' ' ' ' T I ' ' ' [ ( [ T T T ( ' [ [ v M V # $ 1.g.= a _.y.^ o.",
"      z.Q.t 2 w <.p e # B M M Y _.@._ T T [ [ [ [ [ ' [ [ [ [ [ [ T ( T ' ~.m.[ #.o 3 # o 1.:.. z.v.X.y.  ",
"      v.b.^ = @ 1.s.e # V B v @.M.*.[ T ( T T T T T _ Y Y ( Y / T T ( _ [ d.=._ _ v j # % u R.o.z.i.      ",
"    :.4.s.X.T.@ <.g.# + M M c [ [ ( T T T T Y T T T T T T T T ( ( [ [ [ ( ( [ _ ( c j @ T.^ X.X.x.^       ",
"    a.!.X.X.^ `.- 4., @ M v g [ _ T T T T T T T ( _ [ [ [ [ [ [ [ ( [ [ [ [ [ _ ^.Q.f.g.X.V.u o.! !       ",
"      b.X.X.:.z.X.7 o # B g g Y D A z z C S A l h z H D b k h z h h h h g g k D ;.z.! u.X.3.:.{.v.        ",
"      X.`.a.1.X.^ 3 < + B g c R H F F m R T G G J G V Y B D Y J Y J T Y Y F J B g.,.6.u.c.x.z.! [.4.      ",
"        X.Q.X.f.v.(.].u g g M b Y R Y Y B R J R D N m B m R Y Y Y Y Y Y Y Y b D v.! u. .v.x.k.t.X.0.      ",
"           .x.^ ! o.f._.Q N v G N B B v D B j / J T J Y Y Y Y Y / Y J J F N F b ~ X.A.o.g.k.;.t g.9.      ",
"          g.g.X.0.k.k.n.,.E.W g g h k h l A l l f j D J Y R ) Y Y T Y T ( _ ' ' Y X.E X % q.= = k.o.      ",
"          1.:.X.y.1.g.X.g.a._._ Q.i.[ [ [ ( ( [ [ [ [ [ _ _ [ T T Y T T [ ).Q.[ _ m g # o ;.5.@ X.q       ",
"          ;.;.X.X.~ f.|.^ <.H T i.` Y T T T T T T T ( [ _ _ [ [ [ [ [ [ [ 2.%.T T v g # % ^ e ~ o.X.      ",
"            7 q .. . .f.!.^ | ' ` _ _ _ [ [ ( ( [ [ [ [ ( ( [ ' [ [ [ ' [ [ $.[ [ } T # % = g.- 1.,.      ",
"          M.k.7 b.q.X.X.! ~ c X ( ' [ _ _ [ _ ' [ ' ' ' [ [ [ [ [ [ ' [ ( ( ( _ _ c c # , k.k.^ 2 e       ",
"          g.k.! g.k.X.@ a <.< - 7 o g j g g c M c v c M v v m c c B c x j g g g g g x + % v.:.g.r 6       ",
"          x.k.e x.1.o.= 2 % z + : j v g v c c v B M c j c v B M M M B M M B v M v M M # X A.9.x.o.^       ",
"          ;.u O z.v.X.# w B l +.v c c j M B c B m c n B V P v M B v c g c c c x j g g o # X.:.g.o.9       ",
"          r.s.g.u.e e - F M c b b &.K M k & * * c c m g h $ % V j M g g h B m c g j $ + o e e = = M.      ",
"          v.a.8.8.8.;.e B M j c v P v M g g c x v j M c g c c m c V v c f N m v f v g # $ 3.7.1.>.k.i     ",
"          1.v.,.k.s.X.e b M c c c c V M v g c c c g M v g c c b B B m c g f v v g v c # * k.a.v.x.g.      ",
"          M.g.6.g.k.! y S M c b c c ( M c j c c g g B v g j x A B V v c c c x v d v j - # g.g.v.^ X.).    ",
"            z.6.v.^ o.z.b.g.W.M.N.x.W.b.z.v.v.z.N.g.v.A.W.x.!.g.v.x.k.g.k.).V.T.C.x.T.v.v.Q.u ! o./.      ",
"                    :.o.X.X.X.! X.X.X.! ;.:.! X.X.^ o.:.X.^ 6.A.6.y.X.! o.X.^ X.X.o.X.o.o.! A.            ",
"                                              !.Z.Q.M.        ).,.v._.).W._.              _.              ",
"                                                                                                          "
};
