/* XPM */
static char *d2082b85f79a443bfa668eee24e7b88e2wKQFjS39gCQlhPN[] = {
/* columns rows colors chars-per-pixel */
"50 50 23 1 ",
"  c #130A0A",
". c #1F1313",
"X c #1A1613",
"o c #161A13",
"O c #161A14",
"+ c #241C19",
"@ c #291818",
"# c #331F1F",
"$ c #352F2F",
"% c #4B4B4B",
"& c #4E4848",
"* c #574E4E",
"= c #584E4E",
"- c #5B5B5B",
"; c gray36",
": c gray39",
"> c #646464",
", c #6C6C6C",
"< c #7C7C7C",
"1 c gray49",
"2 c #909090",
"3 c gray64",
"4 c #A4A4A4",
/* pixels */
"44#11;4343433411#11;343444444444444444444411#11;44",
"44#11-4444444411#11;444444444444444444444411#11;44",
"11O;-11111111144O-;1111111111111111111111144O;;111",
"11#4411111111111O-;1111111111111111111111111O44111",
"11#4411111111111O--1111111111111111111111111O44111",
"11.114111%%%:1%%.114111%%%%%11%11%111>%11111.11411",
"......########.........#####OOO##O##O+####...OO###",
"......########.........#####Ooo##o##o+####...oO###",
"111..1--444444444441..1;;44444444444421##;;;444444",
"111##;11111111111114##;1111111111111124##;11111111",
"111##;11111111111114##-1111111111111124##;11111111",
"111##411111111111111Oo41111111111111111oo411111111",
"111++41111111111111>OO41111111111111111oo411111111",
"111OO41111111111111%oO41111111111111111OO411111111",
"111..144111%>1%%%111..144111%%%11%%%111..1441%%111",
"111..144111%>1%%%111..144111%%%11%%%111..1441%%111",
"##... ..###########.   ..############@.......#####",
"34411.11-4444444444411 11;;444444444444441..1-;444",
"34411.11-4444444444411 11;;444444444444441..1-;444",
"11144#-;11111111111144#--11111111111111114oO.11111",
"11111#4411111111111111O4411111111111111111oO411111",
"11111#4411111111111111o4411111111111111111OO411111",
"11111.11411%%%%%%%%%11O1144111%11%11%%%%%1..144111",
"###.....####@....###.....###########.........#####",
"###.....####@....###.....###########.........#####",
"44444444444421..1;;444444444444444441&.11;44444444",
"44444344444421..1;;444444444444444441&.11;44444444",
"11111111111124oO;11111111111111111114;O;;111111111",
"11111111111111OO411111111111111111111%O44111111111",
"11111111111111oo411111111111111111111%O44111111111",
"11%%%%111%%111##144411%%%111%%%11%%%1&.11411111111",
"##OOO....###+O######OOO.....#####O##OX...#########",
"##OOO....###+O######oOo.....#####O##OX...#########",
"444441..1;;44444444444411..1;;444444444441##1;;444",
"111114##;1111111111111144OO444111111111114OO;11111",
"111114##;1111111111111144OO444111111111114OO;11111",
"111111##41111111111111111OO;11111111111111OO411111",
"111111##222111::1::::::11++,22111111111111++222111",
"111111##144111%%1%%%%%%11##144111111111111##144111",
"##OOO####oO######ooo################OOOOO#########",
"##OOO####oO######ooo################OOOOO#########",
"444444444441=#11;44444444444441##1;;44444#44444444",
"11;444444441*#11;444444444444444444444411#11;11111",
"11;444444441=#11;444444444444444444444411#11;11111",
";;1111111114;O-;1111111111111111111111144O;;111111",
"441111111111%O--1111111111111111111111111O441%%%11",
"441111111111%O;;1111111111111111111111111O441%%%11",
"114111%%%11%$.114111%%%%%11%11%111%%11111.11411111",
"...########.........#####OOO##O##O#####...OO######",
"...########.........#####OOO##O##O#####...OO######"
};
