/* XPM */
static char *fc2f7f1bed14450fbebe21bdad5a650bP9oEGJOeXBny7rxQ[] = {
/* columns rows colors chars-per-pixel */
"50 50 112 2 ",
"   c #202020",
".  c gray16",
"X  c #2C2B2E",
"o  c #2D2D2D",
"O  c #2E2D31",
"+  c #2F3031",
"@  c gray19",
"#  c #323336",
"$  c #323038",
"%  c #353638",
"&  c #36333F",
"*  c #3A383F",
"=  c #383640",
"-  c #393645",
";  c #3B3943",
":  c #3B3948",
">  c #3C3A49",
",  c #403D4C",
"<  c #433F51",
"1  c #43414A",
"2  c #424352",
"3  c #434750",
"4  c #454154",
"5  c #434554",
"6  c #474457",
"7  c #484554",
"8  c #464A54",
"9  c #4A4857",
"0  c #494D56",
"q  c #494759",
"w  c #474C5B",
"e  c #4A4958",
"r  c #4D4959",
"t  c #484C5B",
"y  c #4B4A5D",
"u  c #4E4A5D",
"i  c #494F5E",
"p  c #514D5E",
"a  c gray32",
"s  c #5B5C5D",
"d  c #4D5061",
"f  c #515260",
"g  c #545161",
"h  c #525463",
"j  c #505264",
"k  c #565264",
"l  c #565766",
"z  c #585563",
"x  c #595667",
"c  c #555A64",
"v  c #57586A",
"b  c #545A6B",
"n  c #575D6F",
"m  c #5B596A",
"M  c #585A6C",
"N  c #5A5F6D",
"B  c #595F71",
"V  c #5D6168",
"C  c #5B616F",
"Z  c #596072",
"A  c #5F6678",
"S  c #606060",
"D  c #636265",
"F  c #636567",
"G  c #666769",
"H  c gray42",
"J  c #616273",
"K  c #626674",
"L  c #696575",
"P  c #626979",
"I  c #646B7B",
"U  c #656C7C",
"Y  c #6A6B7B",
"T  c #69707D",
"R  c #707173",
"E  c gray45",
"W  c #717375",
"Q  c #747577",
"!  c #797979",
"~  c gray50",
"^  c #6B7181",
"/  c #6C7383",
"(  c #6C7482",
")  c #6E7484",
"_  c #7F7F80",
"`  c #747C8D",
"'  c #777F91",
"]  c #7A818E",
"[  c #778092",
"{  c #798090",
"}  c #7B8496",
"|  c #7F8796",
" . c #808080",
".. c gray52",
"X. c #818895",
"o. c #828997",
"O. c #89919E",
"+. c #8992A2",
"@. c #969DA9",
"#. c #A2A2A2",
"$. c #AAAAAA",
"%. c #AEADB0",
"&. c #B1B1B1",
"*. c gray71",
"=. c gray73",
"-. c gray74",
";. c #C1C1C1",
":. c #C5C5C5",
">. c #CACACA",
",. c gray80",
"<. c #CFCFD0",
"1. c #D0D0D0",
/* pixels */
"&.&.*.*.*.&.*.=.-.;.;.:.:.:.;.;.;.;.:.:.>.>.>.:.;.-.-.-.;.:.:.>.:.:.-.-.-.-.-.;.;.:.:.>.>.>.>.,.<.H ",
"&.H Q Q Q Q Q Q Q Q S S S S S R R R R R R R R R R R R R R R R R R R R R R S S S W W W W W W W D *.H ",
"&.G @.@.@.@.@.@.@.@.. . . . . X.X.X.X.X.X.X.X.X.X.X.X.X.X.X.X.X.X.X.X.X.X.. . . O.O.O.O.O.O.O.- %.R ",
"=.G @.+.+.+.+.) ^ ^ ^ ^ . ] ] ] ] ] ] ] / C C C C ] ] ] ] ] ] C C C C C C C . . } } } } Z Z Z - %.! ",
":.G @.+.+.+.{ / ^ ^ ^ ^ o ] ] ] T T T T K m m C C T T T T T T C C C C C C f o o } ^ ^ ^ Z Z Z - %.! ",
":.G @.+.+.+.^ ^ ^ ^ ^ ^ @ ] ] ] C C C C m z z N C C C C C C C C C C C C C 7 @ @ } Z Z Z Z Z Z - %.Q ",
":.G @.^ Y L L ^ ^ ^ x x @ ] ] C C C C C C C z z z z C C z z z z C C C C C 7 @ @ } Z Z Z Z Z Z - %.R ",
":.G @.L L L ^ ^ ^ m x x @ ] ] C C C C C C C C C C C C C C z z C C C C 9 9 7 @ @ } Z Z Z k k k - %.R ",
";.G @.L L L ^ ^ ^ x x x @ ] ] C C C C C C C C C C C C C C z z C C C C 7 7 7 @ @ } Z Z Z k k k - %.R ",
";.G @.^ J x x x x x x x @ ] ] C C C C C h 7 7 7 7 7 7 7 C C C C 7 7 7 7 7 7 @ @ Z Z B k Z Z Z - %.R ",
":.G @.x x x x x x x x x . C C C C C C 7 7 7 7 7 7 7 7 7 7 7 7 7 7 7 7 7 7 7 . . Z Z Z Z Z j 4 - %.R ",
">.G @.x x x x x x x x x . C C C C C C 7 7 7 7 7 7 7 7 7 7 7 7 7 7 7 7 7 7 7 . . Z Z Z Z Z j 4 - %.R ",
",.G @.x x x x x x x x x . . . 7 7 7 7 7 7 7 7 7 7 7 7 7 7 7 7 7 7 7 7 7 7 7 . . . 4 4 4 4 4 4 - %.R ",
",.a . . o @ @ @ @ @ . . . . . . . . . @ @ @ @ @ @ @ . . . 7 7 7 7 7 7 7 7 . . . . . . @ . . .   $.R ",
",.a . . o @ @ @ @ @ . . . . . . . . . @ @ @ @ @ @ @ . . . 7 7 7 7 7 7 7 7 . . . . . . @ . . .   $.R ",
",.a . } } } } } } } } } } } } . . + U U U U U U U U U U . . . . @ @ @ . . . . . } } } } } c .   $.R ",
">.F O.} } } } } } } } } Z Z Z Z . + U U U U i i i i i i i . . } } } } } } } } } } } { Z Z Z Z   $.R ",
">.F O.{ [ ' { } } } { { B Z Z n . @ U U I P i i i i i i w . . } } } { { { } } } { ' ` Z Z Z Z   $.R ",
">.F O.Z v k Z { } } Z Z k Z Z 4 @ % U U N i 7 7 7 i i i - @ @ } } } Z Z Z } } } Z k k Z Z Z Z   $.R ",
">.F O.Z Z Z Z Z Z k k k Z 4 4 4 @ % U 7 7 7 7 i i i i i - @ @ } Z Z Z k k Z Z Z Z Z Z Z Z j 4   $.R ",
">.F O.j j j Z Z Z u u u j 4 4 4 @ % U 7 e e e 5 2 i 2 2 - @ @ } Z Z M k k M Z Z Z j j j j y 4   $.R ",
">.F O.4 4 4 Z Z Z 4 4 4 4 4 4 4 @ % U 7 e i i > - i - - - @ @ } Z Z k k k k Z Z Z 4 4 4 4 4 4   $.R ",
",.F O.4 4 4 4 4 4 4 4 4 4 4 4 4 . o i i i i - - - - - - - . . Z Z Z Z Z Z 4 4 4 4 4 4 4 4 4 4   $.R ",
",.F O.4 4 4 4 4 4 4 4 4 4 4 4 O . . + > > > - - - - - - X . . # q q q q q 4 4 4 4 4 4 4 4 4 4   $.R ",
",.F O.4 4 4 4 4 4 4 4 4 4 4 4 . . . . - - - - - - - - - . . . . 4 4 4 4 4 4 4 4 4 4 4 4 4 4 4   $.R ",
",.a @ @ o . . . . . @ @ @ . . . . . . . o @ @ @ @ @ . . . . . . . . . . . @ @ @ . . . . . . .   $.R ",
"1.F O.X.X.X.. . . +.+.+.+.+.+.+.+.+.+.+.+.+.+.+.+.+.+.+.+.+.+.+.. . . ` ` ` ` ` ` ` ` ` ` { X.- %.R ",
"1.F O.X.X.X.. . . +.+.+.+.+.+.+.+.+.+.+.+.+.+.+.+.+.+.+.+.+.+.+.. . . ` ` ` ` ` ` ` ` ` ` { X.- %.R ",
"1.F O.K K K . | +.+.+.+.+.^ ^ ^ ^ ) +.+.{ ^ ^ ^ ^ L L L ^ ^ ^ x . . ` ` ` v v v v v N X.K K K - %.R ",
"1.F O.K l r . | +.+.^ ^ ^ ^ ^ ^ L L L L Y ^ x x x x ^ ^ ^ x x x @ @ ` p p p v v p p p p K K K - %.R ",
"1.F O.K l r . | +.+.^ ^ ^ ^ ^ ^ L L L L Y ^ x x x x ^ ^ ^ x x x + @ ` p p p v v p p p p K K K - %.R ",
"1.F O.r r r . I ^ ^ ^ ^ x x x ^ x x x x x x x x x x x x x x x x . . v v v v , , , , < p , , , - %.R ",
">.F O.r * . . g x x x x x x x x x x x x 1 . . . . @ @ @ @ @ @ . . . , , , , , , , , < < < , , - %.R ",
":.F O.r * . . g x x x x x x x x x x x x 1 . . . . @ @ @ @ @ @ . . . , , , , , , , , < < < , , - %.R ",
";.a . . . . . . . @ @ @ @ @ @ @ @ @ @ . . . . ( } } } } } } } } . . . . . . . . @ . . . . . .   $.R ",
";.a . } } } } } } } } } } } } } } } } } c . } } } } } } } } } } } } . . . . U U U U U U U 0 .   $.R ",
"-.a . } } } } } } } } } } } } } } } } } c . } } } } } } } } } } } } . . . . U U U U U U U 0 .   $.R ",
"=.F O.} } } } } } } } } } } } Z Z Z Z Z 8 @ } } } } } } } } } Z Z Z Z . . U U U U i d U i i i   $.! ",
"*.F O.} ^ Z Z Z Z } } } Z Z Z k k k k Z 8 @ } } } Z } } } k k Z Z Z 4 @ @ U U U i i i i i i i   $.! ",
"&.F O.} ^ Z Z Z Z } } } Z Z Z k k k k Z 8 @ } } } Z } } } k k Z Z Z 4 @ @ U U U i i i i i i i   $.! ",
"*.F O.} ^ Z k k k k k k Z k k k Z n 4 4 ; @ } } } Z k k k k k k Z Z 4 @ @ U i i i 7 7 7 7 , -   $.! ",
"*.F O.Z Z Z k k k k Z Z Z Z Z Z 4 4 4 4 ; @ } A Z k k k Z Z Z Z 4 4 4 @ @ U 7 7 7 i i 7 i 2 -   $.! ",
"=.F O.B B B k g g g n n Z n n n 4 4 4 4 ; @ } A Z k g g Z n n n 4 4 4 @ @ U 9 9 7 w t 9 w 2 -   $.! ",
"=.F O.k k k Z 6 4 4 4 4 Z 4 4 4 4 4 4 4 ; @ } A Z Z 4 4 Z 4 4 4 4 4 4 @ @ U i i - - : i - - -   $.! ",
"-.F O.Z Z Z 4 4 4 4 4 4 4 4 4 4 4 4 4 4 = . Z Z Z 4 4 4 4 4 4 4 4 4 4 . . i - - - - - - - - -   $.! ",
";.s V j j j 4 4 4 4 4 4 4 4 4 4 4 4 4 = # . 3 d j 4 4 4 4 4 4 4 4 4 = . . 2 - - - - - - - & $   $.! ",
";.a . 4 4 4 4 4 4 4 4 4 4 4 4 4 4 4 4 . . . . , 4 4 4 4 4 4 4 4 4 4 . . . - - - - - - - - $ .   $.! ",
":.a .                                                                                           $.! ",
":.$.#.#.#.#.#.#.#.#.#.#.#.#.#.#.#.#.#.#.#.#.#.#.#.#.#.#.#.#.#.#.#.#.#.#.#.#.#.#.#.#.#.#.#.#.#.#.=.! ",
"........................ . . . . . . . . . . . . . . . . . . . . . . . . . . . . . . . . .~ ~ _ _ _ "
};
